# Blender 3.6.1
# www.blender.org
o icosahedron_subdivide.012
v 1.788854 0.000000 0.894427
v 1.447214 -1.051462 -0.894427
v 1.618034 0.525731 -0.000000
v 1.447214 -0.000000 -0.894427
v 1.618034 -0.525731 0.000000
v 1.703444 0.262866 0.447213
v 1.532624 0.788596 -0.447214
v 1.447214 0.525731 -0.894427
v 1.532624 0.262865 -0.447214
v 1.618034 0.000000 0.000000
v 1.703444 -0.262865 0.447214
v 1.532624 -0.262866 -0.447213
v 1.532624 -0.788597 -0.447213
v 1.447214 -0.525731 -0.894427
v 1.746149 0.131433 0.670820
v 1.660739 0.394298 0.223607
v 1.575329 0.657164 -0.223607
v 1.489919 0.920029 -0.670820
v 1.447214 0.788596 -0.894427
v 1.489919 0.657164 -0.670820
v 1.532624 0.525731 -0.447214
v 1.575329 0.394298 -0.223607
v 1.489919 0.394298 -0.670820
v 1.489919 0.131433 -0.670820
v 1.447214 0.262865 -0.894427
v 1.618034 0.262866 -0.000000
v 1.660739 0.131433 0.223607
v 1.703444 0.000000 0.447214
v 1.746149 -0.131433 0.670820
v 1.660739 -0.131433 0.223607
v 1.660739 -0.394298 0.223607
v 1.618034 -0.262866 0.000000
v 1.575329 -0.394298 -0.223607
v 1.575329 -0.657164 -0.223607
v 1.532624 -0.525731 -0.447213
v 1.489919 -0.657164 -0.670820
v 1.489919 -0.920029 -0.670820
v 1.447214 -0.788597 -0.894427
v 1.489919 -0.394298 -0.670820
v 1.447214 -0.262866 -0.894427
v 1.489919 -0.131433 -0.670820
v 1.575329 0.131433 -0.223607
v 1.575329 -0.131433 -0.223607
v 1.532624 -0.000000 -0.447214
v 1.767502 0.065716 0.782624
v 1.724797 0.197149 0.559017
v 1.682091 0.328582 0.335410
v 1.639386 0.460015 0.111803
v 1.596682 0.591447 -0.111803
v 1.553977 0.722880 -0.335410
v 1.511271 0.854313 -0.559017
v 1.468566 0.985746 -0.782624
v 1.447214 0.920029 -0.894427
v 1.468566 0.854313 -0.782624
v 1.489919 0.788596 -0.670820
v 1.511271 0.722880 -0.559017
v 1.468566 0.722880 -0.782624
v 1.468566 0.591447 -0.782624
v 1.447214 0.657164 -0.894427
v 1.532624 0.657164 -0.447214
v 1.553977 0.591447 -0.335410
v 1.575329 0.525731 -0.223607
v 1.596682 0.460015 -0.111803
v 1.553977 0.460015 -0.335410
v 1.553977 0.328582 -0.335410
v 1.532624 0.394298 -0.447214
v 1.511271 0.328582 -0.559017
v 1.511271 0.197149 -0.559017
v 1.489919 0.262865 -0.670820
v 1.468566 0.197149 -0.782624
v 1.468566 0.065716 -0.782624
v 1.447214 0.131433 -0.894427
v 1.468566 0.328582 -0.782624
v 1.447214 0.394298 -0.894427
v 1.468566 0.460015 -0.782624
v 1.511271 0.591447 -0.559017
v 1.511271 0.460015 -0.559017
v 1.489919 0.525731 -0.670820
v 1.618034 0.394298 -0.000000
v 1.639386 0.328582 0.111803
v 1.660739 0.262866 0.223607
v 1.682091 0.197149 0.335410
v 1.639386 0.197149 0.111803
v 1.639386 0.065716 0.111803
v 1.618034 0.131433 -0.000000
v 1.703444 0.131433 0.447214
v 1.724797 0.065716 0.559017
v 1.746149 0.000000 0.670820
v 1.767502 -0.065716 0.782624
v 1.724797 -0.065716 0.559017
v 1.724797 -0.197149 0.559017
v 1.703444 -0.131433 0.447214
v 1.682091 -0.197149 0.335410
v 1.682091 -0.328582 0.335410
v 1.660739 -0.262865 0.223607
v 1.639386 -0.328582 0.111803
v 1.639386 -0.460015 0.111803
v 1.618034 -0.394298 0.000000
v 1.639386 -0.197149 0.111803
v 1.618034 -0.131433 0.000000
v 1.639386 -0.065716 0.111803
v 1.682091 0.065716 0.335410
v 1.682091 -0.065716 0.335410
v 1.660739 0.000000 0.223607
v 1.596682 -0.460015 -0.111803
v 1.596682 -0.591447 -0.111803
v 1.575329 -0.525731 -0.223607
v 1.553977 -0.591447 -0.335410
v 1.553977 -0.722880 -0.335410
v 1.532624 -0.657164 -0.447213
v 1.553977 -0.460015 -0.335410
v 1.532624 -0.394298 -0.447213
v 1.553977 -0.328582 -0.335410
v 1.511271 -0.722880 -0.559017
v 1.511271 -0.854313 -0.559017
v 1.489919 -0.788597 -0.670820
v 1.468566 -0.854313 -0.782624
v 1.468566 -0.985746 -0.782624
v 1.447214 -0.920029 -0.894427
v 1.468566 -0.722880 -0.782624
v 1.447214 -0.657164 -0.894427
v 1.468566 -0.591447 -0.782624
v 1.468566 -0.460015 -0.782624
v 1.447214 -0.394298 -0.894427
v 1.468566 -0.328582 -0.782624
v 1.468566 -0.197149 -0.782624
v 1.447214 -0.131433 -0.894427
v 1.468566 -0.065716 -0.782624
v 1.489919 -0.262866 -0.670820
v 1.511271 -0.197149 -0.559017
v 1.511271 -0.328582 -0.559017
v 1.511271 -0.591447 -0.559017
v 1.489919 -0.525731 -0.670820
v 1.511271 -0.460015 -0.559017
v 1.596682 0.328582 -0.111803
v 1.596682 0.197149 -0.111803
v 1.596682 0.065716 -0.111803
v 1.575329 0.262865 -0.223607
v 1.553977 0.197149 -0.335410
v 1.596682 -0.065716 -0.111803
v 1.596682 -0.197149 -0.111803
v 1.596682 -0.328582 -0.111803
v 1.575329 -0.262866 -0.223607
v 1.553977 -0.197149 -0.335410
v 1.532624 -0.131433 -0.447214
v 1.511271 -0.065716 -0.559017
v 1.489919 -0.000000 -0.670820
v 1.511271 0.065716 -0.559017
v 1.532624 0.131433 -0.447214
v 1.575329 -0.000000 -0.223607
v 1.553977 -0.065716 -0.335410
v 1.553977 0.065716 -0.335410
v 1.447214 1.051462 -0.894427
v 1.788854 0.000000 0.894427
v 1.767502 0.065716 0.782624
v 1.767502 -0.065716 0.782624
v 1.447214 1.051462 -0.894427
v 1.468566 0.985746 -0.782624
v 1.447214 0.920029 -0.894427
vn 0.9822 -0.0000 -0.1876
s 0
f 52//1 18//1 54//1
f 54//1 19//1 53//1
f 52//1 54//1 53//1
f 18//1 51//1 55//1
f 51//1 7//1 56//1
f 56//1 20//1 55//1
f 51//1 56//1 55//1
f 20//1 58//1 57//1
f 58//1 8//1 59//1
f 59//1 19//1 57//1
f 58//1 59//1 57//1
f 18//1 55//1 54//1
f 55//1 20//1 57//1
f 57//1 19//1 54//1
f 55//1 57//1 54//1
f 7//1 50//1 60//1
f 50//1 17//1 61//1
f 61//1 21//1 60//1
f 50//1 61//1 60//1
f 17//1 49//1 62//1
f 49//1 3//1 63//1
f 63//1 22//1 62//1
f 49//1 63//1 62//1
f 22//1 65//1 64//1
f 65//1 9//1 66//1
f 66//1 21//1 64//1
f 65//1 66//1 64//1
f 17//1 62//1 61//1
f 62//1 22//1 64//1
f 64//1 21//1 61//1
f 62//1 64//1 61//1
f 9//1 68//1 67//1
f 68//1 24//1 69//1
f 69//1 23//1 67//1
f 68//1 69//1 67//1
f 24//1 71//1 70//1
f 71//1 4//1 72//1
f 72//1 25//1 70//1
f 71//1 72//1 70//1
f 25//1 74//1 73//1
f 74//1 8//1 75//1
f 75//1 23//1 73//1
f 74//1 75//1 73//1
f 24//1 70//1 69//1
f 70//1 25//1 73//1
f 73//1 23//1 69//1
f 70//1 73//1 69//1
f 7//1 60//1 56//1
f 60//1 21//1 76//1
f 76//1 20//1 56//1
f 60//1 76//1 56//1
f 21//1 66//1 77//1
f 66//1 9//1 67//1
f 67//1 23//1 77//1
f 66//1 67//1 77//1
f 23//1 75//1 78//1
f 75//1 8//1 58//1
f 58//1 20//1 78//1
f 75//1 58//1 78//1
f 21//1 77//1 76//1
f 77//1 23//1 78//1
f 78//1 20//1 76//1
f 77//1 78//1 76//1
f 3//1 48//1 79//1
f 48//1 16//1 80//1
f 80//1 26//1 79//1
f 48//1 80//1 79//1
f 16//1 47//1 81//1
f 47//1 6//1 82//1
f 82//1 27//1 81//1
f 47//1 82//1 81//1
f 27//1 84//1 83//1
f 84//1 10//1 85//1
f 85//1 26//1 83//1
f 84//1 85//1 83//1
f 16//1 81//1 80//1
f 81//1 27//1 83//1
f 83//1 26//1 80//1
f 81//1 83//1 80//1
f 6//1 46//1 86//1
f 46//1 15//1 87//1
f 87//1 28//1 86//1
f 46//1 87//1 86//1
f 15//1 45//1 88//1
f 89//1 29//1 88//1
f 45//1 89//1 88//1
f 29//1 91//1 90//1
f 91//1 11//1 92//1
f 92//1 28//1 90//1
f 91//1 92//1 90//1
f 15//1 88//1 87//1
f 88//1 29//1 90//1
f 90//1 28//1 87//1
f 88//1 90//1 87//1
f 11//1 94//1 93//1
f 94//1 31//1 95//1
f 95//1 30//1 93//1
f 94//1 95//1 93//1
f 31//1 97//1 96//1
f 97//1 5//1 98//1
f 98//1 32//1 96//1
f 97//1 98//1 96//1
f 32//1 100//1 99//1
f 100//1 10//1 101//1
f 101//1 30//1 99//1
f 100//1 101//1 99//1
f 31//1 96//1 95//1
f 96//1 32//1 99//1
f 99//1 30//1 95//1
f 96//1 99//1 95//1
f 6//1 86//1 82//1
f 86//1 28//1 102//1
f 102//1 27//1 82//1
f 86//1 102//1 82//1
f 28//1 92//1 103//1
f 92//1 11//1 93//1
f 93//1 30//1 103//1
f 92//1 93//1 103//1
f 30//1 101//1 104//1
f 101//1 10//1 84//1
f 84//1 27//1 104//1
f 101//1 84//1 104//1
f 28//1 103//1 102//1
f 103//1 30//1 104//1
f 104//1 27//1 102//1
f 103//1 104//1 102//1
f 5//1 106//1 105//1
f 106//1 34//1 107//1
f 107//1 33//1 105//1
f 106//1 107//1 105//1
f 34//1 109//1 108//1
f 109//1 13//1 110//1
f 110//1 35//1 108//1
f 109//1 110//1 108//1
f 35//1 112//1 111//1
f 112//1 12//1 113//1
f 113//1 33//1 111//1
f 112//1 113//1 111//1
f 34//1 108//1 107//1
f 108//1 35//1 111//1
f 111//1 33//1 107//1
f 108//1 111//1 107//1
f 13//1 115//1 114//1
f 115//1 37//1 116//1
f 116//1 36//1 114//1
f 115//1 116//1 114//1
f 37//1 118//1 117//1
f 118//1 2//1 119//1
f 119//1 38//1 117//1
f 118//1 119//1 117//1
f 38//1 121//1 120//1
f 121//1 14//1 122//1
f 122//1 36//1 120//1
f 121//1 122//1 120//1
f 37//1 117//1 116//1
f 117//1 38//1 120//1
f 120//1 36//1 116//1
f 117//1 120//1 116//1
f 14//1 124//1 123//1
f 124//1 40//1 125//1
f 125//1 39//1 123//1
f 124//1 125//1 123//1
f 40//1 127//1 126//1
f 127//1 4//1 128//1
f 128//1 41//1 126//1
f 127//1 128//1 126//1
f 41//1 130//1 129//1
f 130//1 12//1 131//1
f 131//1 39//1 129//1
f 130//1 131//1 129//1
f 40//1 126//1 125//1
f 126//1 41//1 129//1
f 129//1 39//1 125//1
f 126//1 129//1 125//1
f 13//1 114//1 110//1
f 114//1 36//1 132//1
f 132//1 35//1 110//1
f 114//1 132//1 110//1
f 36//1 122//1 133//1
f 122//1 14//1 123//1
f 123//1 39//1 133//1
f 122//1 123//1 133//1
f 39//1 131//1 134//1
f 131//1 12//1 112//1
f 112//1 35//1 134//1
f 131//1 112//1 134//1
f 36//1 133//1 132//1
f 133//1 39//1 134//1
f 134//1 35//1 132//1
f 133//1 134//1 132//1
f 3//1 79//1 63//1
f 79//1 26//1 135//1
f 135//1 22//1 63//1
f 79//1 135//1 63//1
f 26//1 85//1 136//1
f 85//1 10//1 137//1
f 137//1 42//1 136//1
f 85//1 137//1 136//1
f 42//1 139//1 138//1
f 139//1 9//1 65//1
f 65//1 22//1 138//1
f 139//1 65//1 138//1
f 26//1 136//1 135//1
f 136//1 42//1 138//1
f 138//1 22//1 135//1
f 136//1 138//1 135//1
f 10//1 100//1 140//1
f 100//1 32//1 141//1
f 141//1 43//1 140//1
f 100//1 141//1 140//1
f 32//1 98//1 142//1
f 98//1 5//1 105//1
f 105//1 33//1 142//1
f 98//1 105//1 142//1
f 33//1 113//1 143//1
f 113//1 12//1 144//1
f 144//1 43//1 143//1
f 113//1 144//1 143//1
f 32//1 142//1 141//1
f 142//1 33//1 143//1
f 143//1 43//1 141//1
f 142//1 143//1 141//1
f 12//1 130//1 145//1
f 130//1 41//1 146//1
f 146//1 44//1 145//1
f 130//1 146//1 145//1
f 41//1 128//1 147//1
f 128//1 4//1 71//1
f 71//1 24//1 147//1
f 128//1 71//1 147//1
f 24//1 68//1 148//1
f 68//1 9//1 149//1
f 149//1 44//1 148//1
f 68//1 149//1 148//1
f 41//1 147//1 146//1
f 147//1 24//1 148//1
f 148//1 44//1 146//1
f 147//1 148//1 146//1
f 10//1 140//1 137//1
f 140//1 43//1 150//1
f 150//1 42//1 137//1
f 140//1 150//1 137//1
f 43//1 144//1 151//1
f 144//1 12//1 145//1
f 145//1 44//1 151//1
f 144//1 145//1 151//1
f 44//1 149//1 152//1
f 149//1 9//1 139//1
f 139//1 42//1 152//1
f 149//1 139//1 152//1
f 43//1 151//1 150//1
f 151//1 44//1 152//1
f 152//1 42//1 150//1
f 151//1 152//1 150//1
f 155//1 154//1 156//1
f 157//1 158//1 159//1
