# Blender 3.6.1
# www.blender.org
o icosahedron_subdivide.014
v 0.552786 -1.701302 0.894427
v -0.552786 -1.701302 -0.894427
v 1.447214 -1.051462 -0.894427
v 0.000000 -1.701302 0.000000
v 0.447214 -1.376382 -0.894427
v 1.000000 -1.376382 0.000000
v 0.276393 -1.701302 0.447214
v -0.276393 -1.701302 -0.447213
v 0.947214 -1.213922 -0.894427
v 1.223607 -1.213922 -0.447213
v 0.723607 -1.376382 -0.447213
v 0.500000 -1.538842 0.000000
v 0.776393 -1.538842 0.447214
v 0.223607 -1.538842 -0.447213
v -0.052786 -1.538842 -0.894427
v 0.414589 -1.701302 0.670820
v 0.138196 -1.701302 0.223607
v -0.414589 -1.701302 -0.670820
v -0.138196 -1.701302 -0.223607
v 1.197214 -1.132692 -0.894427
v 1.335411 -1.132692 -0.670820
v 1.085411 -1.213922 -0.670820
v 0.973607 -1.295152 -0.447213
v 1.111804 -1.295152 -0.223607
v 0.861804 -1.376382 -0.223607
v 0.835410 -1.295152 -0.670820
v 0.585410 -1.376382 -0.670820
v 0.697214 -1.295152 -0.894427
v 0.750000 -1.457612 0.000000
v 0.888196 -1.457612 0.223607
v 0.638196 -1.538842 0.223607
v 0.526393 -1.620072 0.447214
v 0.664590 -1.620072 0.670820
v 0.388196 -1.620072 0.223607
v 0.250000 -1.620072 0.000000
v 0.111804 -1.620072 -0.223607
v -0.026393 -1.620072 -0.447213
v -0.164589 -1.620072 -0.670820
v -0.302786 -1.620072 -0.894427
v 0.085411 -1.538842 -0.670820
v 0.197214 -1.457612 -0.894427
v 0.335411 -1.457612 -0.670820
v 0.611804 -1.457612 -0.223607
v 0.361804 -1.538842 -0.223607
v 0.473607 -1.457612 -0.447213
v 0.483688 -1.701302 0.782624
v 0.345491 -1.701302 0.559017
v 0.069098 -1.701302 0.111804
v 0.207295 -1.701302 0.335410
v -0.483688 -1.701302 -0.782624
v -0.345491 -1.701302 -0.559017
v -0.207295 -1.701302 -0.335410
v -0.069098 -1.701302 -0.111803
v 1.322214 -1.092077 -0.894427
v 1.391312 -1.092077 -0.782624
v 1.266312 -1.132692 -0.782624
v 1.210411 -1.173307 -0.670820
v 1.279509 -1.173307 -0.559017
v 1.154509 -1.213922 -0.559017
v 1.141312 -1.173307 -0.782624
v 1.016312 -1.213922 -0.782624
v 1.072214 -1.173307 -0.894427
v 1.098607 -1.254537 -0.447213
v 1.167705 -1.254537 -0.335410
v 1.042705 -1.295152 -0.335410
v 0.986804 -1.335767 -0.223607
v 1.055902 -1.335767 -0.111803
v 0.930902 -1.376382 -0.111803
v 0.917705 -1.335767 -0.335410
v 0.792705 -1.376382 -0.335410
v 0.848607 -1.335767 -0.447213
v 0.779509 -1.335767 -0.559017
v 0.654509 -1.376382 -0.559017
v 0.710410 -1.335767 -0.670820
v 0.641312 -1.335767 -0.782624
v 0.516312 -1.376382 -0.782624
v 0.572214 -1.335767 -0.894427
v 0.766312 -1.295152 -0.782624
v 0.822214 -1.254537 -0.894427
v 0.891312 -1.254537 -0.782624
v 1.029509 -1.254537 -0.559017
v 0.904509 -1.295152 -0.559017
v 0.960411 -1.254537 -0.670820
v 0.875000 -1.416997 0.000000
v 0.944098 -1.416997 0.111803
v 0.819098 -1.457612 0.111803
v 0.763196 -1.498227 0.223607
v 0.832295 -1.498227 0.335410
v 0.707295 -1.538842 0.335410
v 0.694098 -1.498227 0.111803
v 0.569098 -1.538842 0.111803
v 0.625000 -1.498227 0.000000
v 0.651393 -1.579457 0.447214
v 0.720491 -1.579457 0.559017
v 0.595491 -1.620072 0.559017
v 0.539590 -1.660687 0.670820
v 0.608688 -1.660687 0.782624
v 0.470491 -1.660687 0.559017
v 0.401393 -1.660687 0.447214
v 0.332295 -1.660687 0.335410
v 0.263196 -1.660687 0.223607
v 0.194098 -1.660687 0.111804
v 0.125000 -1.660687 0.000000
v 0.319098 -1.620072 0.111803
v 0.375000 -1.579457 0.000000
v 0.444098 -1.579457 0.111803
v 0.582295 -1.579457 0.335410
v 0.457295 -1.620072 0.335410
v 0.513196 -1.579457 0.223607
v 0.055902 -1.660687 -0.111803
v -0.013196 -1.660687 -0.223607
v -0.082295 -1.660687 -0.335410
v -0.151393 -1.660687 -0.447213
v 0.042705 -1.620072 -0.335410
v 0.098607 -1.579457 -0.447213
v 0.167705 -1.579457 -0.335410
v -0.220491 -1.660687 -0.559017
v -0.289589 -1.660687 -0.670820
v -0.358688 -1.660687 -0.782624
v -0.427786 -1.660687 -0.894427
v -0.233688 -1.620072 -0.782624
v -0.177786 -1.579457 -0.894427
v -0.108688 -1.579457 -0.782624
v 0.016312 -1.538842 -0.782624
v 0.072214 -1.498227 -0.894427
v 0.141312 -1.498227 -0.782624
v 0.266312 -1.457612 -0.782624
v 0.322214 -1.416997 -0.894427
v 0.391312 -1.416997 -0.782624
v 0.210411 -1.498227 -0.670820
v 0.279509 -1.498227 -0.559017
v 0.154509 -1.538842 -0.559017
v -0.095491 -1.620072 -0.559017
v -0.039589 -1.579457 -0.670820
v 0.029509 -1.579457 -0.559017
v 0.805902 -1.416997 -0.111803
v 0.680902 -1.457612 -0.111803
v 0.555902 -1.498227 -0.111803
v 0.736804 -1.416997 -0.223607
v 0.667705 -1.416997 -0.335410
v 0.430902 -1.538842 -0.111803
v 0.305902 -1.579457 -0.111803
v 0.180902 -1.620072 -0.111803
v 0.236804 -1.579457 -0.223607
v 0.292705 -1.538842 -0.335410
v 0.348607 -1.498227 -0.447213
v 0.404509 -1.457612 -0.559017
v 0.460410 -1.416997 -0.670820
v 0.529509 -1.416997 -0.559017
v 0.598607 -1.416997 -0.447213
v 0.486804 -1.498227 -0.223607
v 0.417705 -1.498227 -0.335410
v 0.542705 -1.457612 -0.335410
vn 0.3035 -0.9342 -0.1876
s 0
f 3//1 55//1 54//1
f 55//1 21//1 56//1
f 56//1 20//1 54//1
f 55//1 56//1 54//1
f 21//1 58//1 57//1
f 58//1 10//1 59//1
f 59//1 22//1 57//1
f 58//1 59//1 57//1
f 22//1 61//1 60//1
f 61//1 9//1 62//1
f 62//1 20//1 60//1
f 61//1 62//1 60//1
f 21//1 57//1 56//1
f 57//1 22//1 60//1
f 60//1 20//1 56//1
f 57//1 60//1 56//1
f 10//1 64//1 63//1
f 64//1 24//1 65//1
f 65//1 23//1 63//1
f 64//1 65//1 63//1
f 24//1 67//1 66//1
f 67//1 6//1 68//1
f 68//1 25//1 66//1
f 67//1 68//1 66//1
f 25//1 70//1 69//1
f 70//1 11//1 71//1
f 71//1 23//1 69//1
f 70//1 71//1 69//1
f 24//1 66//1 65//1
f 66//1 25//1 69//1
f 69//1 23//1 65//1
f 66//1 69//1 65//1
f 11//1 73//1 72//1
f 73//1 27//1 74//1
f 74//1 26//1 72//1
f 73//1 74//1 72//1
f 27//1 76//1 75//1
f 76//1 5//1 77//1
f 77//1 28//1 75//1
f 76//1 77//1 75//1
f 28//1 79//1 78//1
f 79//1 9//1 80//1
f 80//1 26//1 78//1
f 79//1 80//1 78//1
f 27//1 75//1 74//1
f 75//1 28//1 78//1
f 78//1 26//1 74//1
f 75//1 78//1 74//1
f 10//1 63//1 59//1
f 63//1 23//1 81//1
f 81//1 22//1 59//1
f 63//1 81//1 59//1
f 23//1 71//1 82//1
f 71//1 11//1 72//1
f 72//1 26//1 82//1
f 71//1 72//1 82//1
f 26//1 80//1 83//1
f 80//1 9//1 61//1
f 61//1 22//1 83//1
f 80//1 61//1 83//1
f 23//1 82//1 81//1
f 82//1 26//1 83//1
f 83//1 22//1 81//1
f 82//1 83//1 81//1
f 6//1 85//1 84//1
f 85//1 30//1 86//1
f 86//1 29//1 84//1
f 85//1 86//1 84//1
f 30//1 88//1 87//1
f 88//1 13//1 89//1
f 89//1 31//1 87//1
f 88//1 89//1 87//1
f 31//1 91//1 90//1
f 91//1 12//1 92//1
f 92//1 29//1 90//1
f 91//1 92//1 90//1
f 30//1 87//1 86//1
f 87//1 31//1 90//1
f 90//1 29//1 86//1
f 87//1 90//1 86//1
f 13//1 94//1 93//1
f 94//1 33//1 95//1
f 95//1 32//1 93//1
f 94//1 95//1 93//1
f 33//1 97//1 96//1
f 46//1 16//1 96//1
f 97//1 46//1 96//1
f 16//1 47//1 98//1
f 47//1 7//1 99//1
f 99//1 32//1 98//1
f 47//1 99//1 98//1
f 33//1 96//1 95//1
f 96//1 16//1 98//1
f 98//1 32//1 95//1
f 96//1 98//1 95//1
f 7//1 49//1 100//1
f 49//1 17//1 101//1
f 101//1 34//1 100//1
f 49//1 101//1 100//1
f 17//1 48//1 102//1
f 48//1 4//1 103//1
f 103//1 35//1 102//1
f 48//1 103//1 102//1
f 35//1 105//1 104//1
f 105//1 12//1 106//1
f 106//1 34//1 104//1
f 105//1 106//1 104//1
f 17//1 102//1 101//1
f 102//1 35//1 104//1
f 104//1 34//1 101//1
f 102//1 104//1 101//1
f 13//1 93//1 89//1
f 93//1 32//1 107//1
f 107//1 31//1 89//1
f 93//1 107//1 89//1
f 32//1 99//1 108//1
f 99//1 7//1 100//1
f 100//1 34//1 108//1
f 99//1 100//1 108//1
f 34//1 106//1 109//1
f 106//1 12//1 91//1
f 91//1 31//1 109//1
f 106//1 91//1 109//1
f 32//1 108//1 107//1
f 108//1 34//1 109//1
f 109//1 31//1 107//1
f 108//1 109//1 107//1
f 4//1 53//1 110//1
f 53//1 19//1 111//1
f 111//1 36//1 110//1
f 53//1 111//1 110//1
f 19//1 52//1 112//1
f 52//1 8//1 113//1
f 113//1 37//1 112//1
f 52//1 113//1 112//1
f 37//1 115//1 114//1
f 115//1 14//1 116//1
f 116//1 36//1 114//1
f 115//1 116//1 114//1
f 19//1 112//1 111//1
f 112//1 37//1 114//1
f 114//1 36//1 111//1
f 112//1 114//1 111//1
f 8//1 51//1 117//1
f 51//1 18//1 118//1
f 118//1 38//1 117//1
f 51//1 118//1 117//1
f 18//1 50//1 119//1
f 50//1 2//1 120//1
f 120//1 39//1 119//1
f 50//1 120//1 119//1
f 39//1 122//1 121//1
f 122//1 15//1 123//1
f 123//1 38//1 121//1
f 122//1 123//1 121//1
f 18//1 119//1 118//1
f 119//1 39//1 121//1
f 121//1 38//1 118//1
f 119//1 121//1 118//1
f 15//1 125//1 124//1
f 125//1 41//1 126//1
f 126//1 40//1 124//1
f 125//1 126//1 124//1
f 41//1 128//1 127//1
f 128//1 5//1 129//1
f 129//1 42//1 127//1
f 128//1 129//1 127//1
f 42//1 131//1 130//1
f 131//1 14//1 132//1
f 132//1 40//1 130//1
f 131//1 132//1 130//1
f 41//1 127//1 126//1
f 127//1 42//1 130//1
f 130//1 40//1 126//1
f 127//1 130//1 126//1
f 8//1 117//1 113//1
f 117//1 38//1 133//1
f 133//1 37//1 113//1
f 117//1 133//1 113//1
f 38//1 123//1 134//1
f 123//1 15//1 124//1
f 124//1 40//1 134//1
f 123//1 124//1 134//1
f 40//1 132//1 135//1
f 132//1 14//1 115//1
f 115//1 37//1 135//1
f 132//1 115//1 135//1
f 38//1 134//1 133//1
f 134//1 40//1 135//1
f 135//1 37//1 133//1
f 134//1 135//1 133//1
f 6//1 84//1 68//1
f 84//1 29//1 136//1
f 136//1 25//1 68//1
f 84//1 136//1 68//1
f 29//1 92//1 137//1
f 92//1 12//1 138//1
f 138//1 43//1 137//1
f 92//1 138//1 137//1
f 43//1 140//1 139//1
f 140//1 11//1 70//1
f 70//1 25//1 139//1
f 140//1 70//1 139//1
f 29//1 137//1 136//1
f 137//1 43//1 139//1
f 139//1 25//1 136//1
f 137//1 139//1 136//1
f 12//1 105//1 141//1
f 105//1 35//1 142//1
f 142//1 44//1 141//1
f 105//1 142//1 141//1
f 35//1 103//1 143//1
f 103//1 4//1 110//1
f 110//1 36//1 143//1
f 103//1 110//1 143//1
f 36//1 116//1 144//1
f 116//1 14//1 145//1
f 145//1 44//1 144//1
f 116//1 145//1 144//1
f 35//1 143//1 142//1
f 143//1 36//1 144//1
f 144//1 44//1 142//1
f 143//1 144//1 142//1
f 14//1 131//1 146//1
f 131//1 42//1 147//1
f 147//1 45//1 146//1
f 131//1 147//1 146//1
f 42//1 129//1 148//1
f 129//1 5//1 76//1
f 76//1 27//1 148//1
f 129//1 76//1 148//1
f 27//1 73//1 149//1
f 73//1 11//1 150//1
f 150//1 45//1 149//1
f 73//1 150//1 149//1
f 42//1 148//1 147//1
f 148//1 27//1 149//1
f 149//1 45//1 147//1
f 148//1 149//1 147//1
f 12//1 141//1 138//1
f 141//1 44//1 151//1
f 151//1 43//1 138//1
f 141//1 151//1 138//1
f 44//1 145//1 152//1
f 145//1 14//1 146//1
f 146//1 45//1 152//1
f 145//1 146//1 152//1
f 45//1 150//1 153//1
f 150//1 11//1 140//1
f 140//1 43//1 153//1
f 150//1 140//1 153//1
f 44//1 152//1 151//1
f 152//1 45//1 153//1
f 153//1 43//1 151//1
f 152//1 153//1 151//1
o icosahedron_subdivide.004
v 0.552786 -1.701302 0.894427
v 0.483688 -1.701302 0.782624
v 0.608688 -1.660687 0.782624
vn 0.3035 -0.9342 -0.1876
s 0
f 156//2 154//2 155//2
