# Blender 3.6.1
# www.blender.org
o icosahedron_subdivide.002
v -1.447214 -1.051462 0.894427
v -1.468566 -0.985746 0.782624
v -1.391312 -1.092077 0.782624
vn -0.7947 -0.5774 -0.1876
s 0
f 3//1 1//1 2//1
o icosahedron_subdivide.015
v -1.447214 -1.051462 0.894427
v -1.788854 -0.000000 -0.894427
v -0.552786 -1.701302 -0.894427
v -1.618034 -0.525731 0.000000
v -1.170820 -0.850651 -0.894427
v -1.000000 -1.376382 0.000000
v -1.532624 -0.788596 0.447214
v -1.703444 -0.262866 -0.447213
v -0.861803 -1.275977 -0.894427
v -0.776393 -1.538842 -0.447213
v -1.085410 -1.113517 -0.447213
v -1.309017 -0.951057 0.000000
v -1.223607 -1.213922 0.447214
v -1.394427 -0.688191 -0.447213
v -1.479837 -0.425326 -0.894427
v -1.489919 -0.920029 0.670820
v -1.575329 -0.657164 0.223607
v -1.746149 -0.131433 -0.670820
v -1.660739 -0.394298 -0.223607
v -0.707294 -1.488639 -0.894427
v -0.664590 -1.620072 -0.670820
v -0.819098 -1.407409 -0.670820
v -0.930902 -1.326179 -0.447213
v -0.888196 -1.457612 -0.223607
v -1.042705 -1.244949 -0.223607
v -0.973606 -1.194746 -0.670820
v -1.128115 -0.982084 -0.670820
v -1.016312 -1.063314 -0.894427
v -1.154508 -1.163719 0.000000
v -1.111804 -1.295152 0.223607
v -1.266312 -1.082489 0.223607
v -1.378116 -1.001259 0.447214
v -1.335411 -1.132692 0.670820
v -1.420820 -0.869827 0.223607
v -1.463526 -0.738394 0.000000
v -1.506231 -0.606961 -0.223607
v -1.548936 -0.475528 -0.447213
v -1.591640 -0.344096 -0.670820
v -1.634346 -0.212663 -0.894427
v -1.437132 -0.556758 -0.670820
v -1.325328 -0.637988 -0.894427
v -1.282624 -0.769421 -0.670820
v -1.197213 -1.032287 -0.223607
v -1.351722 -0.819624 -0.223607
v -1.239918 -0.900854 -0.447213
v -1.468566 -0.985746 0.782624
v -1.511271 -0.854313 0.559017
v -1.596682 -0.591447 0.111803
v -1.553977 -0.722880 0.335410
v -1.767502 -0.065716 -0.782624
v -1.724797 -0.197149 -0.559017
v -1.682091 -0.328582 -0.335410
v -1.639386 -0.460015 -0.111803
v -0.630040 -1.594971 -0.894427
v -0.608688 -1.660687 -0.782624
v -0.685942 -1.554356 -0.782624
v -0.741844 -1.513741 -0.670820
v -0.720491 -1.579457 -0.559017
v -0.797745 -1.473126 -0.559017
v -0.763196 -1.448024 -0.782624
v -0.840451 -1.341693 -0.782624
v -0.784549 -1.382308 -0.894427
v -0.853647 -1.432511 -0.447213
v -0.832295 -1.498227 -0.335410
v -0.909549 -1.391896 -0.335410
v -0.965451 -1.351281 -0.223607
v -0.944098 -1.416997 -0.111803
v -1.021353 -1.310666 -0.111803
v -0.986803 -1.285564 -0.335410
v -1.064058 -1.179233 -0.335410
v -1.008156 -1.219848 -0.447213
v -1.029508 -1.154132 -0.559017
v -1.106762 -1.047800 -0.559017
v -1.050861 -1.088415 -0.670820
v -1.072213 -1.022699 -0.782624
v -1.149467 -0.916367 -0.782624
v -1.093566 -0.956982 -0.894427
v -0.994959 -1.129030 -0.782624
v -0.939057 -1.169645 -0.894427
v -0.917705 -1.235362 -0.782624
v -0.875000 -1.366794 -0.559017
v -0.952254 -1.260463 -0.559017
v -0.896352 -1.301078 -0.670820
v -1.077254 -1.270051 0.000000
v -1.055902 -1.335767 0.111803
v -1.133156 -1.229436 0.111803
v -1.189058 -1.188821 0.223607
v -1.167705 -1.254537 0.335410
v -1.244960 -1.148206 0.335410
v -1.210410 -1.123104 0.111803
v -1.287664 -1.016773 0.111803
v -1.231763 -1.057388 0.000000
v -1.300861 -1.107591 0.447214
v -1.279509 -1.173307 0.559017
v -1.356763 -1.066976 0.559017
v -1.412665 -1.026361 0.670820
v -1.391312 -1.092077 0.782624
v -1.434017 -0.960644 0.559017
v -1.455370 -0.894928 0.447214
v -1.476722 -0.829212 0.335410
v -1.498075 -0.763495 0.223607
v -1.519427 -0.697779 0.111803
v -1.540780 -0.632062 0.000000
v -1.442173 -0.804110 0.111803
v -1.386271 -0.844725 0.000000
v -1.364919 -0.910442 0.111803
v -1.322214 -1.041874 0.335410
v -1.399468 -0.935543 0.335410
v -1.343566 -0.976158 0.223607
v -1.562132 -0.566346 -0.111803
v -1.583485 -0.500630 -0.223607
v -1.604837 -0.434913 -0.335410
v -1.626190 -0.369197 -0.447213
v -1.527583 -0.541245 -0.335410
v -1.471681 -0.581860 -0.447213
v -1.450329 -0.647576 -0.335410
v -1.647542 -0.303481 -0.559017
v -1.668895 -0.237764 -0.670820
v -1.690247 -0.172048 -0.782624
v -1.711600 -0.106331 -0.894427
v -1.612993 -0.278379 -0.782624
v -1.557091 -0.318994 -0.894427
v -1.535739 -0.384711 -0.782624
v -1.458484 -0.491042 -0.782624
v -1.402583 -0.531657 -0.894427
v -1.381230 -0.597373 -0.782624
v -1.303976 -0.703705 -0.782624
v -1.248074 -0.744320 -0.894427
v -1.226722 -0.810036 -0.782624
v -1.359878 -0.663090 -0.670820
v -1.338525 -0.728806 -0.559017
v -1.415780 -0.622475 -0.559017
v -1.570288 -0.409812 -0.559017
v -1.514386 -0.450427 -0.670820
v -1.493034 -0.516143 -0.559017
v -1.098607 -1.204334 -0.111803
v -1.175861 -1.098003 -0.111803
v -1.253115 -0.991672 -0.111803
v -1.119959 -1.138618 -0.223607
v -1.141312 -1.072902 -0.335410
v -1.330369 -0.885340 -0.111803
v -1.407624 -0.779009 -0.111803
v -1.484878 -0.672677 -0.111803
v -1.428976 -0.713292 -0.223607
v -1.373075 -0.753907 -0.335410
v -1.317173 -0.794522 -0.447213
v -1.261271 -0.835137 -0.559017
v -1.205369 -0.875753 -0.670820
v -1.184017 -0.941469 -0.559017
v -1.162664 -1.007185 -0.447213
v -1.274468 -0.925955 -0.223607
v -1.295820 -0.860239 -0.335410
v -1.218566 -0.966570 -0.335410
vn -0.7947 -0.5774 -0.1876
vn -0.7947 -0.5773 -0.1876
s 0
f 6//2 58//2 57//2
f 58//2 24//2 59//2
f 59//2 23//2 57//2
f 58//3 59//3 57//3
f 24//2 61//2 60//2
f 61//3 13//3 62//3
f 62//2 25//2 60//2
f 61//3 62//3 60//3
f 25//2 64//2 63//2
f 64//2 12//2 65//2
f 65//2 23//2 63//2
f 64//2 65//2 63//2
f 24//2 60//2 59//2
f 60//2 25//2 63//2
f 63//2 23//2 59//2
f 60//3 63//3 59//3
f 13//2 67//2 66//2
f 67//2 27//2 68//2
f 68//2 26//2 66//2
f 67//2 68//2 66//2
f 27//2 70//2 69//2
f 70//2 9//2 71//2
f 71//2 28//2 69//2
f 70//2 71//2 69//2
f 28//2 73//2 72//2
f 73//3 14//3 74//3
f 74//2 26//2 72//2
f 73//2 74//2 72//2
f 27//2 69//2 68//2
f 69//2 28//2 72//2
f 72//3 26//3 68//3
f 69//2 72//2 68//2
f 14//2 76//2 75//2
f 76//2 30//2 77//2
f 77//2 29//2 75//2
f 76//3 77//3 75//3
f 30//3 79//3 78//3
f 79//2 8//2 80//2
f 80//3 31//3 78//3
f 79//2 80//2 78//2
f 31//2 82//2 81//2
f 82//3 12//3 83//3
f 83//3 29//3 81//3
f 82//2 83//2 81//2
f 30//2 78//2 77//2
f 78//2 31//2 81//2
f 81//2 29//2 77//2
f 78//3 81//3 77//3
f 13//2 66//2 62//2
f 66//2 26//2 84//2
f 84//2 25//2 62//2
f 66//2 84//2 62//2
f 26//3 74//3 85//3
f 74//2 14//2 75//2
f 75//2 29//2 85//2
f 74//3 75//3 85//3
f 29//2 83//2 86//2
f 83//3 12//3 64//3
f 64//2 25//2 86//2
f 83//3 64//3 86//3
f 26//2 85//2 84//2
f 85//2 29//2 86//2
f 86//3 25//3 84//3
f 85//3 86//3 84//3
f 9//2 88//2 87//2
f 88//2 33//2 89//2
f 89//3 32//3 87//3
f 88//2 89//2 87//2
f 33//3 91//3 90//3
f 91//3 16//3 92//3
f 92//3 34//3 90//3
f 91//2 92//2 90//2
f 34//2 94//2 93//2
f 94//2 15//2 95//2
f 95//2 32//2 93//2
f 94//3 95//3 93//3
f 33//3 90//3 89//3
f 90//3 34//3 93//3
f 93//2 32//2 89//2
f 90//2 93//2 89//2
f 16//2 97//2 96//2
f 97//3 36//3 98//3
f 98//3 35//3 96//3
f 97//2 98//2 96//2
f 36//3 100//3 99//3
f 49//3 19//3 99//3
f 100//2 49//2 99//2
f 19//3 50//3 101//3
f 50//2 10//2 102//2
f 102//3 35//3 101//3
f 50//3 102//3 101//3
f 36//2 99//2 98//2
f 99//3 19//3 101//3
f 101//2 35//2 98//2
f 99//3 101//3 98//3
f 10//2 52//2 103//2
f 52//3 20//3 104//3
f 104//2 37//2 103//2
f 52//2 104//2 103//2
f 20//3 51//3 105//3
f 51//3 7//3 106//3
f 106//3 38//3 105//3
f 51//2 106//2 105//2
f 38//3 108//3 107//3
f 108//2 15//2 109//2
f 109//3 37//3 107//3
f 108//3 109//3 107//3
f 20//2 105//2 104//2
f 105//2 38//2 107//2
f 107//2 37//2 104//2
f 105//3 107//3 104//3
f 16//2 96//2 92//2
f 96//2 35//2 110//2
f 110//2 34//2 92//2
f 96//3 110//3 92//3
f 35//3 102//3 111//3
f 102//3 10//3 103//3
f 103//3 37//3 111//3
f 102//3 103//3 111//3
f 37//2 109//2 112//2
f 109//3 15//3 94//3
f 94//3 34//3 112//3
f 109//2 94//2 112//2
f 35//3 111//3 110//3
f 111//2 37//2 112//2
f 112//3 34//3 110//3
f 111//3 112//3 110//3
f 7//3 56//3 113//3
f 56//3 22//3 114//3
f 114//3 39//3 113//3
f 56//2 114//2 113//2
f 22//3 55//3 115//3
f 55//2 11//2 116//2
f 116//3 40//3 115//3
f 55//2 116//2 115//2
f 40//3 118//3 117//3
f 118//2 17//2 119//2
f 119//2 39//2 117//2
f 118//2 119//2 117//2
f 22//3 115//3 114//3
f 115//2 40//2 117//2
f 117//3 39//3 114//3
f 115//2 117//2 114//2
f 11//3 54//3 120//3
f 54//3 21//3 121//3
f 121//2 41//2 120//2
f 54//3 121//3 120//3
f 21//3 53//3 122//3
f 53//3 5//3 123//3
f 123//2 42//2 122//2
f 53//2 123//2 122//2
f 42//3 125//3 124//3
f 125//3 18//3 126//3
f 126//3 41//3 124//3
f 125//2 126//2 124//2
f 21//2 122//2 121//2
f 122//2 42//2 124//2
f 124//2 41//2 121//2
f 122//3 124//3 121//3
f 18//2 128//2 127//2
f 128//3 44//3 129//3
f 129//3 43//3 127//3
f 128//3 129//3 127//3
f 44//3 131//3 130//3
f 131//2 8//2 132//2
f 132//3 45//3 130//3
f 131//2 132//2 130//2
f 45//2 134//2 133//2
f 134//3 17//3 135//3
f 135//2 43//2 133//2
f 134//3 135//3 133//3
f 44//2 130//2 129//2
f 130//2 45//2 133//2
f 133//2 43//2 129//2
f 130//3 133//3 129//3
f 11//2 120//2 116//2
f 120//3 41//3 136//3
f 136//3 40//3 116//3
f 120//3 136//3 116//3
f 41//3 126//3 137//3
f 126//2 18//2 127//2
f 127//3 43//3 137//3
f 126//2 127//2 137//2
f 43//3 135//3 138//3
f 135//2 17//2 118//2
f 118//2 40//2 138//2
f 135//3 118//3 138//3
f 41//2 137//2 136//2
f 137//3 43//3 138//3
f 138//3 40//3 136//3
f 137//3 138//3 136//3
f 9//2 87//2 71//2
f 87//3 32//3 139//3
f 139//2 28//2 71//2
f 87//2 139//2 71//2
f 32//2 95//2 140//2
f 95//3 15//3 141//3
f 141//2 46//2 140//2
f 95//3 141//3 140//3
f 46//3 143//3 142//3
f 143//2 14//2 73//2
f 73//3 28//3 142//3
f 143//2 73//2 142//2
f 32//3 140//3 139//3
f 140//3 46//3 142//3
f 142//3 28//3 139//3
f 140//2 142//2 139//2
f 15//3 108//3 144//3
f 108//3 38//3 145//3
f 145//3 47//3 144//3
f 108//2 145//2 144//2
f 38//2 106//2 146//2
f 106//3 7//3 113//3
f 113//2 39//2 146//2
f 106//2 113//2 146//2
f 39//3 119//3 147//3
f 119//2 17//2 148//2
f 148//3 47//3 147//3
f 119//2 148//2 147//2
f 38//3 146//3 145//3
f 146//3 39//3 147//3
f 147//2 47//2 145//2
f 146//3 147//3 145//3
f 17//3 134//3 149//3
f 134//2 45//2 150//2
f 150//3 48//3 149//3
f 134//2 150//2 149//2
f 45//2 132//2 151//2
f 132//2 8//2 79//2
f 79//2 30//2 151//2
f 132//3 79//3 151//3
f 30//3 76//3 152//3
f 76//3 14//3 153//3
f 153//3 48//3 152//3
f 76//3 153//3 152//3
f 45//2 151//2 150//2
f 151//2 30//2 152//2
f 152//2 48//2 150//2
f 151//3 152//3 150//3
f 15//2 144//2 141//2
f 144//2 47//2 154//2
f 154//3 46//3 141//3
f 144//3 154//3 141//3
f 47//2 148//2 155//2
f 148//2 17//2 149//2
f 149//2 48//2 155//2
f 148//3 149//3 155//3
f 48//2 153//2 156//2
f 153//3 14//3 143//3
f 143//2 46//2 156//2
f 153//3 143//3 156//3
f 47//2 155//2 154//2
f 155//3 48//3 156//3
f 156//3 46//3 154//3
f 155//3 156//3 154//3
