# Blender 3.6.1
# www.blender.org
o octtorus_subdivide.016
v 1.500000 0.700000 -0.000000
v 0.700000 1.500000 -0.000000
v 2.000000 0.800000 0.500000
v 0.800000 2.000000 0.500000
v 1.400000 1.400000 0.500000
v 0.750000 1.750000 0.250000
v 1.350000 1.150000 0.250000
v 1.100000 1.100000 -0.000000
v 1.750000 0.750000 0.250000
v 1.100000 1.700000 0.500000
v 0.775000 1.875000 0.375000
v 1.075000 1.575000 0.375000
v 1.050000 1.450000 0.250000
v 0.725000 1.625000 0.125000
v 1.025000 1.325000 0.125000
v 1.375000 1.275000 0.375000
v 1.675000 0.975000 0.375000
v 1.700000 1.100000 0.500000
v 1.300000 0.900000 -0.000000
v 1.625000 0.725000 0.125000
v 1.425000 0.925000 0.125000
v 1.550000 0.950000 0.250000
v 1.875000 0.775000 0.375000
v 1.225000 1.125000 0.125000
v 0.900000 1.300000 -0.000000
v 0.950000 1.850000 0.500000
v 0.787500 1.937500 0.437500
v 0.937500 1.787500 0.437500
v 0.925000 1.725000 0.375000
v 0.762500 1.812500 0.312500
v 0.912500 1.662500 0.312500
v 1.087500 1.637500 0.437500
v 1.237500 1.487500 0.437500
v 1.250000 1.550000 0.500000
v 0.900000 1.600000 0.250000
v 0.737500 1.687500 0.187500
v 0.887500 1.537500 0.187500
v 0.875000 1.475000 0.125000
v 0.712500 1.562500 0.062500
v 0.862500 1.412500 0.062500
v 1.037500 1.387500 0.187500
v 1.187500 1.237500 0.187500
v 1.200000 1.300000 0.250000
v 1.362500 1.212500 0.312500
v 1.512500 1.062500 0.312500
v 1.525000 1.125000 0.375000
v 1.687500 1.037500 0.437500
v 1.837500 0.887500 0.437500
v 1.850000 0.950000 0.500000
v 1.537500 1.187500 0.437500
v 1.550000 1.250000 0.500000
v 1.387500 1.337500 0.437500
v 1.062500 1.512500 0.312500
v 1.212500 1.362500 0.312500
v 1.225000 1.425000 0.375000
v 1.400000 0.800000 -0.000000
v 1.562500 0.712500 0.062500
v 1.462500 0.812500 0.062500
v 1.525000 0.825000 0.125000
v 1.687500 0.737500 0.187500
v 1.587500 0.837500 0.187500
v 1.362500 0.912500 0.062500
v 1.262500 1.012500 0.062500
v 1.200000 1.000000 -0.000000
v 1.650000 0.850000 0.250000
v 1.812500 0.762500 0.312500
v 1.712500 0.862500 0.312500
v 1.775000 0.875000 0.375000
v 1.937500 0.787500 0.437500
v 1.612500 0.962500 0.312500
v 1.450000 1.050000 0.250000
v 1.287500 1.137500 0.187500
v 1.125000 1.225000 0.125000
v 0.962500 1.312500 0.062500
v 0.800000 1.400000 -0.000000
v 1.062500 1.212500 0.062500
v 1.000000 1.200000 -0.000000
v 1.162500 1.112500 0.062500
v 1.487500 0.937500 0.187500
v 1.387500 1.037500 0.187500
v 1.325000 1.025000 0.125000
v 0.875000 1.925000 0.500000
v 0.793750 1.968750 0.468750
v 0.868750 1.893750 0.468750
v 0.862500 1.862500 0.437500
v 0.781250 1.906250 0.406250
v 0.856250 1.831250 0.406250
v 0.943750 1.818750 0.468750
v 1.018750 1.743750 0.468750
v 1.025000 1.775000 0.500000
v 0.850000 1.800000 0.375000
v 0.768750 1.843750 0.343750
v 0.843750 1.768750 0.343750
v 0.837500 1.737500 0.312500
v 0.756250 1.781250 0.281250
v 0.831250 1.706250 0.281250
v 0.918750 1.693750 0.343750
v 0.993750 1.618750 0.343750
v 1.000000 1.650000 0.375000
v 1.081250 1.606250 0.406250
v 1.156250 1.531250 0.406250
v 1.162500 1.562500 0.437500
v 1.243750 1.518750 0.468750
v 1.318750 1.443750 0.468750
v 1.325000 1.475000 0.500000
v 1.168750 1.593750 0.468750
v 1.175000 1.625000 0.500000
v 1.093750 1.668750 0.468750
v 0.931250 1.756250 0.406250
v 1.006250 1.681250 0.406250
v 1.012500 1.712500 0.437500
v 0.825000 1.675000 0.250000
v 0.743750 1.718750 0.218750
v 0.818750 1.643750 0.218750
v 0.812500 1.612500 0.187500
v 0.731250 1.656250 0.156250
v 0.806250 1.581250 0.156250
v 0.893750 1.568750 0.218750
v 0.968750 1.493750 0.218750
v 0.975000 1.525000 0.250000
v 0.800000 1.550000 0.125000
v 0.718750 1.593750 0.093750
v 0.793750 1.518750 0.093750
v 0.787500 1.487500 0.062500
v 0.706250 1.531250 0.031250
v 0.781250 1.456250 0.031250
v 0.868750 1.443750 0.093750
v 0.943750 1.368750 0.093750
v 0.950000 1.400000 0.125000
v 1.031250 1.356250 0.156250
v 1.106250 1.281250 0.156250
v 1.112500 1.312500 0.187500
v 1.193750 1.268750 0.218750
v 1.268750 1.193750 0.218750
v 1.275000 1.225000 0.250000
v 1.118750 1.343750 0.218750
v 1.125000 1.375000 0.250000
v 1.043750 1.418750 0.218750
v 0.881250 1.506250 0.156250
v 0.956250 1.431250 0.156250
v 0.962500 1.462500 0.187500
v 1.356250 1.181250 0.281250
v 1.431250 1.106250 0.281250
v 1.437500 1.137500 0.312500
v 1.518750 1.093750 0.343750
v 1.593750 1.018750 0.343750
v 1.600000 1.050000 0.375000
v 1.443750 1.168750 0.343750
v 1.450000 1.200000 0.375000
v 1.368750 1.243750 0.343750
v 1.681250 1.006250 0.406250
v 1.756250 0.931250 0.406250
v 1.762500 0.962500 0.437500
v 1.843750 0.918750 0.468750
v 1.918750 0.843750 0.468750
v 1.925000 0.875000 0.500000
v 1.768750 0.993750 0.468750
v 1.775000 1.025000 0.500000
v 1.693750 1.068750 0.468750
v 1.618750 1.143750 0.468750
v 1.625000 1.175000 0.500000
v 1.543750 1.218750 0.468750
v 1.468750 1.293750 0.468750
v 1.475000 1.325000 0.500000
v 1.393750 1.368750 0.468750
v 1.462500 1.262500 0.437500
v 1.381250 1.306250 0.406250
v 1.456250 1.231250 0.406250
v 1.606250 1.081250 0.406250
v 1.612500 1.112500 0.437500
v 1.531250 1.156250 0.406250
v 0.906250 1.631250 0.281250
v 0.981250 1.556250 0.281250
v 1.056250 1.481250 0.281250
v 0.987500 1.587500 0.312500
v 1.068750 1.543750 0.343750
v 1.131250 1.406250 0.281250
v 1.206250 1.331250 0.281250
v 1.281250 1.256250 0.281250
v 1.287500 1.287500 0.312500
v 1.293750 1.318750 0.343750
v 1.300000 1.350000 0.375000
v 1.306250 1.381250 0.406250
v 1.312500 1.412500 0.437500
v 1.231250 1.456250 0.406250
v 1.150000 1.500000 0.375000
v 1.137500 1.437500 0.312500
v 1.218750 1.393750 0.343750
v 1.143750 1.468750 0.343750
v 1.450000 0.750000 -0.000000
v 1.531250 0.706250 0.031250
v 1.481250 0.756250 0.031250
v 1.512500 0.762500 0.062500
v 1.593750 0.718750 0.093750
v 1.543750 0.768750 0.093750
v 1.431250 0.806250 0.031250
v 1.381250 0.856250 0.031250
v 1.350000 0.850000 -0.000000
v 1.575000 0.775000 0.125000
v 1.656250 0.731250 0.156250
v 1.606250 0.781250 0.156250
v 1.637500 0.787500 0.187500
v 1.718750 0.743750 0.218750
v 1.668750 0.793750 0.218750
v 1.556250 0.831250 0.156250
v 1.506250 0.881250 0.156250
v 1.475000 0.875000 0.125000
v 1.393750 0.918750 0.093750
v 1.343750 0.968750 0.093750
v 1.312500 0.962500 0.062500
v 1.231250 1.006250 0.031250
v 1.181250 1.056250 0.031250
v 1.150000 1.050000 -0.000000
v 1.281250 0.956250 0.031250
v 1.250000 0.950000 -0.000000
v 1.331250 0.906250 0.031250
v 1.493750 0.818750 0.093750
v 1.443750 0.868750 0.093750
v 1.412500 0.862500 0.062500
v 1.700000 0.800000 0.250000
v 1.781250 0.756250 0.281250
v 1.731250 0.806250 0.281250
v 1.762500 0.812500 0.312500
v 1.843750 0.768750 0.343750
v 1.793750 0.818750 0.343750
v 1.681250 0.856250 0.281250
v 1.631250 0.906250 0.281250
v 1.600000 0.900000 0.250000
v 1.825000 0.825000 0.375000
v 1.906250 0.781250 0.406250
v 1.856250 0.831250 0.406250
v 1.887500 0.837500 0.437500
v 1.968750 0.793750 0.468750
v 1.806250 0.881250 0.406250
v 1.725000 0.925000 0.375000
v 1.643750 0.968750 0.343750
v 1.562500 1.012500 0.312500
v 1.481250 1.056250 0.281250
v 1.400000 1.100000 0.250000
v 1.531250 1.006250 0.281250
v 1.500000 1.000000 0.250000
v 1.581250 0.956250 0.281250
v 1.743750 0.868750 0.343750
v 1.693750 0.918750 0.343750
v 1.662500 0.912500 0.312500
v 1.318750 1.143750 0.218750
v 1.237500 1.187500 0.187500
v 1.156250 1.231250 0.156250
v 1.075000 1.275000 0.125000
v 1.206250 1.181250 0.156250
v 1.175000 1.175000 0.125000
v 1.256250 1.131250 0.156250
v 0.993750 1.318750 0.093750
v 0.912500 1.362500 0.062500
v 0.831250 1.406250 0.031250
v 0.750000 1.450000 -0.000000
v 0.881250 1.356250 0.031250
v 0.850000 1.350000 -0.000000
v 0.931250 1.306250 0.031250
v 0.981250 1.256250 0.031250
v 0.950000 1.250000 -0.000000
v 1.031250 1.206250 0.031250
v 1.081250 1.156250 0.031250
v 1.050000 1.150000 -0.000000
v 1.131250 1.106250 0.031250
v 1.112500 1.162500 0.062500
v 1.193750 1.118750 0.093750
v 1.143750 1.168750 0.093750
v 1.043750 1.268750 0.093750
v 1.012500 1.262500 0.062500
v 1.093750 1.218750 0.093750
v 1.618750 0.843750 0.218750
v 1.568750 0.893750 0.218750
v 1.518750 0.943750 0.218750
v 1.537500 0.887500 0.187500
v 1.456250 0.931250 0.156250
v 1.468750 0.993750 0.218750
v 1.418750 1.043750 0.218750
v 1.368750 1.093750 0.218750
v 1.337500 1.087500 0.187500
v 1.306250 1.081250 0.156250
v 1.275000 1.075000 0.125000
v 1.243750 1.068750 0.093750
v 1.212500 1.062500 0.062500
v 1.293750 1.018750 0.093750
v 1.375000 0.975000 0.125000
v 1.437500 0.987500 0.187500
v 1.356250 1.031250 0.156250
v 1.406250 0.981250 0.156250
vn -0.5392 -0.5392 0.6470
s 0
f 4//1 83//1 82//1
f 83//1 27//1 84//1
f 84//1 26//1 82//1
f 83//1 84//1 82//1
f 27//1 86//1 85//1
f 86//1 11//1 87//1
f 87//1 28//1 85//1
f 86//1 87//1 85//1
f 28//1 89//1 88//1
f 89//1 10//1 90//1
f 90//1 26//1 88//1
f 89//1 90//1 88//1
f 27//1 85//1 84//1
f 85//1 28//1 88//1
f 88//1 26//1 84//1
f 85//1 88//1 84//1
f 11//1 92//1 91//1
f 92//1 30//1 93//1
f 93//1 29//1 91//1
f 92//1 93//1 91//1
f 30//1 95//1 94//1
f 95//1 6//1 96//1
f 96//1 31//1 94//1
f 95//1 96//1 94//1
f 31//1 98//1 97//1
f 98//1 12//1 99//1
f 99//1 29//1 97//1
f 98//1 99//1 97//1
f 30//1 94//1 93//1
f 94//1 31//1 97//1
f 97//1 29//1 93//1
f 94//1 97//1 93//1
f 12//1 101//1 100//1
f 101//1 33//1 102//1
f 102//1 32//1 100//1
f 101//1 102//1 100//1
f 33//1 104//1 103//1
f 104//1 5//1 105//1
f 105//1 34//1 103//1
f 104//1 105//1 103//1
f 34//1 107//1 106//1
f 107//1 10//1 108//1
f 108//1 32//1 106//1
f 107//1 108//1 106//1
f 33//1 103//1 102//1
f 103//1 34//1 106//1
f 106//1 32//1 102//1
f 103//1 106//1 102//1
f 11//1 91//1 87//1
f 91//1 29//1 109//1
f 109//1 28//1 87//1
f 91//1 109//1 87//1
f 29//1 99//1 110//1
f 99//1 12//1 100//1
f 100//1 32//1 110//1
f 99//1 100//1 110//1
f 32//1 108//1 111//1
f 108//1 10//1 89//1
f 89//1 28//1 111//1
f 108//1 89//1 111//1
f 29//1 110//1 109//1
f 110//1 32//1 111//1
f 111//1 28//1 109//1
f 110//1 111//1 109//1
f 6//1 113//1 112//1
f 113//1 36//1 114//1
f 114//1 35//1 112//1
f 113//1 114//1 112//1
f 36//1 116//1 115//1
f 116//1 14//1 117//1
f 117//1 37//1 115//1
f 116//1 117//1 115//1
f 37//1 119//1 118//1
f 119//1 13//1 120//1
f 120//1 35//1 118//1
f 119//1 120//1 118//1
f 36//1 115//1 114//1
f 115//1 37//1 118//1
f 118//1 35//1 114//1
f 115//1 118//1 114//1
f 14//1 122//1 121//1
f 122//1 39//1 123//1
f 123//1 38//1 121//1
f 122//1 123//1 121//1
f 39//1 125//1 124//1
f 125//1 2//1 126//1
f 126//1 40//1 124//1
f 125//1 126//1 124//1
f 40//1 128//1 127//1
f 128//1 15//1 129//1
f 129//1 38//1 127//1
f 128//1 129//1 127//1
f 39//1 124//1 123//1
f 124//1 40//1 127//1
f 127//1 38//1 123//1
f 124//1 127//1 123//1
f 15//1 131//1 130//1
f 131//1 42//1 132//1
f 132//1 41//1 130//1
f 131//1 132//1 130//1
f 42//1 134//1 133//1
f 134//1 7//1 135//1
f 135//1 43//1 133//1
f 134//1 135//1 133//1
f 43//1 137//1 136//1
f 137//1 13//1 138//1
f 138//1 41//1 136//1
f 137//1 138//1 136//1
f 42//1 133//1 132//1
f 133//1 43//1 136//1
f 136//1 41//1 132//1
f 133//1 136//1 132//1
f 14//1 121//1 117//1
f 121//1 38//1 139//1
f 139//1 37//1 117//1
f 121//1 139//1 117//1
f 38//1 129//1 140//1
f 129//1 15//1 130//1
f 130//1 41//1 140//1
f 129//1 130//1 140//1
f 41//1 138//1 141//1
f 138//1 13//1 119//1
f 119//1 37//1 141//1
f 138//1 119//1 141//1
f 38//1 140//1 139//1
f 140//1 41//1 141//1
f 141//1 37//1 139//1
f 140//1 141//1 139//1
f 7//1 143//1 142//1
f 143//1 45//1 144//1
f 144//1 44//1 142//1
f 143//1 144//1 142//1
f 45//1 146//1 145//1
f 146//1 17//1 147//1
f 147//1 46//1 145//1
f 146//1 147//1 145//1
f 46//1 149//1 148//1
f 149//1 16//1 150//1
f 150//1 44//1 148//1
f 149//1 150//1 148//1
f 45//1 145//1 144//1
f 145//1 46//1 148//1
f 148//1 44//1 144//1
f 145//1 148//1 144//1
f 17//1 152//1 151//1
f 152//1 48//1 153//1
f 153//1 47//1 151//1
f 152//1 153//1 151//1
f 48//1 155//1 154//1
f 155//1 3//1 156//1
f 156//1 49//1 154//1
f 155//1 156//1 154//1
f 49//1 158//1 157//1
f 158//1 18//1 159//1
f 159//1 47//1 157//1
f 158//1 159//1 157//1
f 48//1 154//1 153//1
f 154//1 49//1 157//1
f 157//1 47//1 153//1
f 154//1 157//1 153//1
f 18//1 161//1 160//1
f 161//1 51//1 162//1
f 162//1 50//1 160//1
f 161//1 162//1 160//1
f 51//1 164//1 163//1
f 164//1 5//1 165//1
f 165//1 52//1 163//1
f 164//1 165//1 163//1
f 52//1 167//1 166//1
f 167//1 16//1 168//1
f 168//1 50//1 166//1
f 167//1 168//1 166//1
f 51//1 163//1 162//1
f 163//1 52//1 166//1
f 166//1 50//1 162//1
f 163//1 166//1 162//1
f 17//1 151//1 147//1
f 151//1 47//1 169//1
f 169//1 46//1 147//1
f 151//1 169//1 147//1
f 47//1 159//1 170//1
f 159//1 18//1 160//1
f 160//1 50//1 170//1
f 159//1 160//1 170//1
f 50//1 168//1 171//1
f 168//1 16//1 149//1
f 149//1 46//1 171//1
f 168//1 149//1 171//1
f 47//1 170//1 169//1
f 170//1 50//1 171//1
f 171//1 46//1 169//1
f 170//1 171//1 169//1
f 6//1 112//1 96//1
f 112//1 35//1 172//1
f 172//1 31//1 96//1
f 112//1 172//1 96//1
f 35//1 120//1 173//1
f 120//1 13//1 174//1
f 174//1 53//1 173//1
f 120//1 174//1 173//1
f 53//1 176//1 175//1
f 176//1 12//1 98//1
f 98//1 31//1 175//1
f 176//1 98//1 175//1
f 35//1 173//1 172//1
f 173//1 53//1 175//1
f 175//1 31//1 172//1
f 173//1 175//1 172//1
f 13//1 137//1 177//1
f 137//1 43//1 178//1
f 178//1 54//1 177//1
f 137//1 178//1 177//1
f 43//1 135//1 179//1
f 135//1 7//1 142//1
f 142//1 44//1 179//1
f 135//1 142//1 179//1
f 44//1 150//1 180//1
f 150//1 16//1 181//1
f 181//1 54//1 180//1
f 150//1 181//1 180//1
f 43//1 179//1 178//1
f 179//1 44//1 180//1
f 180//1 54//1 178//1
f 179//1 180//1 178//1
f 16//1 167//1 182//1
f 167//1 52//1 183//1
f 183//1 55//1 182//1
f 167//1 183//1 182//1
f 52//1 165//1 184//1
f 165//1 5//1 104//1
f 104//1 33//1 184//1
f 165//1 104//1 184//1
f 33//1 101//1 185//1
f 101//1 12//1 186//1
f 186//1 55//1 185//1
f 101//1 186//1 185//1
f 52//1 184//1 183//1
f 184//1 33//1 185//1
f 185//1 55//1 183//1
f 184//1 185//1 183//1
f 13//1 177//1 174//1
f 177//1 54//1 187//1
f 187//1 53//1 174//1
f 177//1 187//1 174//1
f 54//1 181//1 188//1
f 181//1 16//1 182//1
f 182//1 55//1 188//1
f 181//1 182//1 188//1
f 55//1 186//1 189//1
f 186//1 12//1 176//1
f 176//1 53//1 189//1
f 186//1 176//1 189//1
f 54//1 188//1 187//1
f 188//1 55//1 189//1
f 189//1 53//1 187//1
f 188//1 189//1 187//1
f 1//1 191//1 190//1
f 191//1 57//1 192//1
f 192//1 56//1 190//1
f 191//1 192//1 190//1
f 57//1 194//1 193//1
f 194//1 20//1 195//1
f 195//1 58//1 193//1
f 194//1 195//1 193//1
f 58//1 197//1 196//1
f 197//1 19//1 198//1
f 198//1 56//1 196//1
f 197//1 198//1 196//1
f 57//1 193//1 192//1
f 193//1 58//1 196//1
f 196//1 56//1 192//1
f 193//1 196//1 192//1
f 20//1 200//1 199//1
f 200//1 60//1 201//1
f 201//1 59//1 199//1
f 200//1 201//1 199//1
f 60//1 203//1 202//1
f 203//1 9//1 204//1
f 204//1 61//1 202//1
f 203//1 204//1 202//1
f 61//1 206//1 205//1
f 206//1 21//1 207//1
f 207//1 59//1 205//1
f 206//1 207//1 205//1
f 60//1 202//1 201//1
f 202//1 61//1 205//1
f 205//1 59//1 201//1
f 202//1 205//1 201//1
f 21//1 209//1 208//1
f 209//1 63//1 210//1
f 210//1 62//1 208//1
f 209//1 210//1 208//1
f 63//1 212//1 211//1
f 212//1 8//1 213//1
f 213//1 64//1 211//1
f 212//1 213//1 211//1
f 64//1 215//1 214//1
f 215//1 19//1 216//1
f 216//1 62//1 214//1
f 215//1 216//1 214//1
f 63//1 211//1 210//1
f 211//1 64//1 214//1
f 214//1 62//1 210//1
f 211//1 214//1 210//1
f 20//1 199//1 195//1
f 199//1 59//1 217//1
f 217//1 58//1 195//1
f 199//1 217//1 195//1
f 59//1 207//1 218//1
f 207//1 21//1 208//1
f 208//1 62//1 218//1
f 207//1 208//1 218//1
f 62//1 216//1 219//1
f 216//1 19//1 197//1
f 197//1 58//1 219//1
f 216//1 197//1 219//1
f 59//1 218//1 217//1
f 218//1 62//1 219//1
f 219//1 58//1 217//1
f 218//1 219//1 217//1
f 9//1 221//1 220//1
f 221//1 66//1 222//1
f 222//1 65//1 220//1
f 221//1 222//1 220//1
f 66//1 224//1 223//1
f 224//1 23//1 225//1
f 225//1 67//1 223//1
f 224//1 225//1 223//1
f 67//1 227//1 226//1
f 227//1 22//1 228//1
f 228//1 65//1 226//1
f 227//1 228//1 226//1
f 66//1 223//1 222//1
f 223//1 67//1 226//1
f 226//1 65//1 222//1
f 223//1 226//1 222//1
f 23//1 230//1 229//1
f 230//1 69//1 231//1
f 231//1 68//1 229//1
f 230//1 231//1 229//1
f 69//1 233//1 232//1
f 233//1 3//1 155//1
f 155//1 48//1 232//1
f 233//1 155//1 232//1
f 48//1 152//1 234//1
f 152//1 17//1 235//1
f 235//1 68//1 234//1
f 152//1 235//1 234//1
f 69//1 232//1 231//1
f 232//1 48//1 234//1
f 234//1 68//1 231//1
f 232//1 234//1 231//1
f 17//1 146//1 236//1
f 146//1 45//1 237//1
f 237//1 70//1 236//1
f 146//1 237//1 236//1
f 45//1 143//1 238//1
f 143//1 7//1 239//1
f 239//1 71//1 238//1
f 143//1 239//1 238//1
f 71//1 241//1 240//1
f 241//1 22//1 242//1
f 242//1 70//1 240//1
f 241//1 242//1 240//1
f 45//1 238//1 237//1
f 238//1 71//1 240//1
f 240//1 70//1 237//1
f 238//1 240//1 237//1
f 23//1 229//1 225//1
f 229//1 68//1 243//1
f 243//1 67//1 225//1
f 229//1 243//1 225//1
f 68//1 235//1 244//1
f 235//1 17//1 236//1
f 236//1 70//1 244//1
f 235//1 236//1 244//1
f 70//1 242//1 245//1
f 242//1 22//1 227//1
f 227//1 67//1 245//1
f 242//1 227//1 245//1
f 68//1 244//1 243//1
f 244//1 70//1 245//1
f 245//1 67//1 243//1
f 244//1 245//1 243//1
f 7//1 134//1 246//1
f 134//1 42//1 247//1
f 247//1 72//1 246//1
f 134//1 247//1 246//1
f 42//1 131//1 248//1
f 131//1 15//1 249//1
f 249//1 73//1 248//1
f 131//1 249//1 248//1
f 73//1 251//1 250//1
f 251//1 24//1 252//1
f 252//1 72//1 250//1
f 251//1 252//1 250//1
f 42//1 248//1 247//1
f 248//1 73//1 250//1
f 250//1 72//1 247//1
f 248//1 250//1 247//1
f 15//1 128//1 253//1
f 128//1 40//1 254//1
f 254//1 74//1 253//1
f 128//1 254//1 253//1
f 40//1 126//1 255//1
f 126//1 2//1 256//1
f 256//1 75//1 255//1
f 126//1 256//1 255//1
f 75//1 258//1 257//1
f 258//1 25//1 259//1
f 259//1 74//1 257//1
f 258//1 259//1 257//1
f 40//1 255//1 254//1
f 255//1 75//1 257//1
f 257//1 74//1 254//1
f 255//1 257//1 254//1
f 25//1 261//1 260//1
f 261//1 77//1 262//1
f 262//1 76//1 260//1
f 261//1 262//1 260//1
f 77//1 264//1 263//1
f 264//1 8//1 265//1
f 265//1 78//1 263//1
f 264//1 265//1 263//1
f 78//1 267//1 266//1
f 267//1 24//1 268//1
f 268//1 76//1 266//1
f 267//1 268//1 266//1
f 77//1 263//1 262//1
f 263//1 78//1 266//1
f 266//1 76//1 262//1
f 263//1 266//1 262//1
f 15//1 253//1 249//1
f 253//1 74//1 269//1
f 269//1 73//1 249//1
f 253//1 269//1 249//1
f 74//1 259//1 270//1
f 259//1 25//1 260//1
f 260//1 76//1 270//1
f 259//1 260//1 270//1
f 76//1 268//1 271//1
f 268//1 24//1 251//1
f 251//1 73//1 271//1
f 268//1 251//1 271//1
f 74//1 270//1 269//1
f 270//1 76//1 271//1
f 271//1 73//1 269//1
f 270//1 271//1 269//1
f 9//1 220//1 204//1
f 220//1 65//1 272//1
f 272//1 61//1 204//1
f 220//1 272//1 204//1
f 65//1 228//1 273//1
f 228//1 22//1 274//1
f 274//1 79//1 273//1
f 228//1 274//1 273//1
f 79//1 276//1 275//1
f 276//1 21//1 206//1
f 206//1 61//1 275//1
f 276//1 206//1 275//1
f 65//1 273//1 272//1
f 273//1 79//1 275//1
f 275//1 61//1 272//1
f 273//1 275//1 272//1
f 22//1 241//1 277//1
f 241//1 71//1 278//1
f 278//1 80//1 277//1
f 241//1 278//1 277//1
f 71//1 239//1 279//1
f 239//1 7//1 246//1
f 246//1 72//1 279//1
f 239//1 246//1 279//1
f 72//1 252//1 280//1
f 252//1 24//1 281//1
f 281//1 80//1 280//1
f 252//1 281//1 280//1
f 71//1 279//1 278//1
f 279//1 72//1 280//1
f 280//1 80//1 278//1
f 279//1 280//1 278//1
f 24//1 267//1 282//1
f 267//1 78//1 283//1
f 283//1 81//1 282//1
f 267//1 283//1 282//1
f 78//1 265//1 284//1
f 265//1 8//1 212//1
f 212//1 63//1 284//1
f 265//1 212//1 284//1
f 63//1 209//1 285//1
f 209//1 21//1 286//1
f 286//1 81//1 285//1
f 209//1 286//1 285//1
f 78//1 284//1 283//1
f 284//1 63//1 285//1
f 285//1 81//1 283//1
f 284//1 285//1 283//1
f 22//1 277//1 274//1
f 277//1 80//1 287//1
f 287//1 79//1 274//1
f 277//1 287//1 274//1
f 80//1 281//1 288//1
f 281//1 24//1 282//1
f 282//1 81//1 288//1
f 281//1 282//1 288//1
f 81//1 286//1 289//1
f 286//1 21//1 276//1
f 276//1 79//1 289//1
f 286//1 276//1 289//1
f 80//1 288//1 287//1
f 288//1 81//1 289//1
f 289//1 79//1 287//1
f 288//1 289//1 287//1
