####
#
# OBJ File Generated by Meshlab
#
####
# Object cake_part05_seg_04.obj
#
# Vertices: 232
# Faces: 44
#
####
vn 0.1620137 0.1024078 -0.9814603
v 0.4632947 0.1606466 -1.5547194
vn 0.4269822 0.0832147 -0.9004230
v 0.5307041 0.1898686 -1.5190324
vn 0.4478620 -0.2898830 -0.8458059
v 0.5043408 0.1141038 -1.5070251
vn -1.4364469 -1.0299479 -1.2114006
v 0.0859530 0.2513625 -1.5314883
vn -0.3595830 -0.2730412 -0.8922716
v 0.4136280 0.1473151 -1.5229568
vn 0.0474454 -0.3269364 -0.9438546
v 0.1786882 0.2076605 -1.5155209
vn -0.1063966 0.0684009 -0.9919683
v 0.3067402 0.2549068 -1.5006690
vn -0.1364475 0.0826578 -0.9871929
v 0.4180073 0.2030845 -1.5417875
vn -0.0422622 0.1301612 -0.9905918
v 0.0696342 0.2908210 -1.5371433
vn -1.4197102 -1.0190805 -1.3318083
v 0.0935645 0.1684562 -1.4690281
vn -5.1185660 -1.7842646 -2.6350386
v 0.0165723 0.2651751 -1.4609622
vn -0.1450815 -0.0931370 -0.9850264
v 0.3097174 0.1862173 -1.5057248
vn 0.1944210 0.5060646 -0.8402971
v 0.0833423 0.3134346 -1.5203527
vn 0.0000000 0.0000000 0.0000000
v 0.2750805 0.1491593 -1.4578344
vn 0.4534779 -0.0081181 -0.8912305
v 0.6483981 0.1256113 -1.4530519
vn -2.1646295 -0.9618970 -1.4932877
v 0.0418009 0.3012375 -1.5207624
vn -0.0647506 -0.7140995 -0.6970432
v 0.1866634 0.1591261 -1.4665397
vn 0.3145208 0.3441850 -0.8846544
v 0.1702445 0.3015368 -1.4819993
vn 0.0000000 0.0000000 0.0000000
v 0.4922655 0.0649486 -1.3799533
vn -2.9103937 -0.2791589 -0.6973958
v -0.0100985 0.3904326 -1.4129008
vn 0.0000000 0.0000000 0.0000000
v 0.1709164 0.1394789 -1.4021151
vn -0.8581828 0.3056507 -0.4124317
v 0.0119732 0.4119773 -1.4428606
vn -0.2709666 0.5063140 -0.8186716
v 0.0555078 0.3772144 -1.4783107
vn 0.0000000 0.0000000 0.0000000
v 0.3665601 0.1155375 -1.4351070
vn 0.0000000 0.0000000 0.0000000
v 0.2721592 0.3312673 -1.4235353
vn 0.2469264 -0.3613685 -0.8991330
v 0.6140578 0.0794993 -1.4439499
vn -2.6588392 -0.4143527 -0.7964546
v 0.0076190 0.3535903 -1.4770708
vn 0.0000000 0.0000000 0.0000000
v 0.3743013 0.3114595 -1.4484965
vn 0.2645182 -0.2438973 -0.9330297
v 0.8615061 0.0492242 -1.3757920
vn 0.0000000 0.0000000 0.0000000
v 0.0993210 0.4109738 -1.4184233
vn 0.0000000 0.0000000 0.0000000
v 0.2313708 0.1057158 -1.3758379
vn 0.0000000 0.0000000 0.0000000
v 0.3444214 0.3451233 -1.4009174
vn 0.0000000 0.0000000 0.0000000
v 0.5603742 0.2695827 -1.4546487
vn 0.2273691 0.4982987 -0.8366610
v 0.4658648 0.2872210 -1.4786718
vn 0.2581582 -0.3196774 -0.9116802
v 0.7399887 0.0850331 -1.4115900
vn 0.0000000 0.0000000 0.0000000
v 0.0774926 0.0907900 -1.3780195
vn 0.0000000 0.0000000 0.0000000
v 0.4836567 0.3421932 -1.3905512
vn 0.5983418 0.3619047 -0.7148511
v 0.6780493 0.2297614 -1.3755058
vn -3.0672424 -1.1445774 -1.6586912
v 0.0324943 0.1467409 -1.3931010
vn -5.8443804 -0.8819886 -2.0757909
v -0.0145282 0.1966969 -1.3127370
vn -0.6019363 0.6775681 -0.4225802
v 0.0336318 0.4546834 -1.3721714
vn 0.0000000 0.0000000 0.0000000
v 0.1496375 0.0717991 -1.3335687
vn 0.0000000 0.0000000 0.0000000
v 0.3168432 0.3930605 -1.3417238
vn 0.0000000 0.0000000 0.0000000
v 0.8995941 0.2564198 -1.2778460
vn 0.0000000 0.0000000 0.0000000
v 0.1636309 0.1150374 -1.3637214
vn 0.1820843 -0.7585840 -0.6256162
v 0.8701856 0.0214859 -1.3396320
vn 0.4068233 0.1704892 -0.8974566
v 0.9311470 0.1328079 -1.3456093
vn 0.0000000 0.0000000 0.0000000
v 0.4113615 0.3585706 -1.3684812
vn 0.0000000 0.0000000 0.0000000
v 0.1306522 0.1269226 -1.4052920
vn 0.0000000 0.0000000 0.0000000
v 0.2153542 0.3624302 -1.3967934
vn 0.5657063 -0.6372311 -0.5233671
v 0.9926682 0.0464188 -1.3342159
vn -2.1262324 -0.4234548 -1.0569856
v 0.0063093 0.0700463 -1.3039142
vn 0.0000000 0.0000000 0.0000000
v 0.0857479 0.0421159 -1.2825748
vn 0.0000000 0.0000000 0.0000000
v 0.6246189 0.0344419 -1.2928891
vn -0.0440542 -0.7771176 -0.6278116
v 0.6757743 0.0444960 -1.3569063
vn 0.0000000 0.0000000 0.0000000
v 0.1732852 0.4249074 -1.3350526
vn 0.5657063 -0.6372311 -0.5233671
v 0.9726462 0.0036089 -1.3037339
vn 0.5657062 -0.6372311 -0.5233670
v 1.0704945 0.0381575 -1.2400349
vn 0.7803841 0.2424306 -0.5763923
v 1.0402683 0.1438570 -1.2594661
vn 0.0000000 0.0000000 0.0000000
v 0.2351024 0.0362071 -1.2717575
vn 0.0000000 0.0000000 0.0000000
v 0.5820046 0.3408402 -1.3500963
vn 0.0000000 0.0000000 0.0000000
v 0.3442726 0.0539896 -1.3123100
vn 0.0000000 0.0000000 0.0000000
v -0.0222413 0.0349568 -1.2563428
vn -6.0698895 -0.5491108 -1.5101560
v -0.0229421 0.3301385 -1.3417577
vn -3.0595689 -0.0667926 -0.8798150
v -0.0487733 0.4526131 -1.2581106
vn 0.0000000 0.0000000 0.0000000
v 0.3231870 0.0242312 -1.2433090
vn 0.0000000 0.0000000 0.0000000
v 0.2483004 0.3973414 -1.3397622
vn 0.0000000 0.0000000 0.0000000
v 0.3906897 0.4477171 -1.2640996
vn 0.4726838 0.1869934 -0.8611640
v 0.7883523 0.1715691 -1.3662533
vn 0.0000000 0.0000000 0.0000000
v 0.0025935 0.0215171 -1.2083088
vn 0.0000000 0.0000000 0.0000000
v 0.6058668 0.4274725 -1.1796755
vn 0.0000000 0.0000000 0.0000000
v 0.4773259 0.4907221 -1.1705811
vn 0.0000000 0.0000000 0.0000000
v 0.1536630 0.0190960 -1.2409694
vn 0.0000000 0.0000000 0.0000000
v 0.5181295 0.4103311 -1.2822951
vn -0.9527024 0.1501566 -0.2642180
v -0.0528187 0.5087198 -1.2116380
vn 0.0000000 0.0000000 0.0000000
v 0.7610651 0.0189160 -1.2494781
vn 0.0000000 0.0000000 0.0000000
v -0.0044941 0.5155473 -1.2316684
vn 0.0000000 0.0000000 0.0000000
v 0.4644648 0.0283773 -1.2354013
vn 0.0000000 0.0000000 0.0000000
v 0.9944430 -0.0067740 -1.2301688
vn 0.0000000 0.0000000 0.0000000
v 0.7974944 0.3443715 -1.2071247
vn 0.8356224 0.4171123 -0.3574249
v 1.0611898 0.2108511 -1.1825389
vn 0.0000000 0.0000000 0.0000000
v 0.0715434 0.0111323 -1.1888794
vn 0.0000000 0.0000000 0.0000000
v 0.1274734 -0.0115387 -1.1484480
vn 0.0000000 0.0000000 0.0000000
v 0.7802902 0.0119758 -1.1394479
vn -6.0093613 -0.3009716 -1.7914463
v -0.0682830 0.1892998 -1.1507474
vn 0.9710208 -0.2316804 0.0586752
v 1.0812482 0.0045362 -1.1479014
vn 0.9974630 0.0238099 -0.0670876
v 1.1018808 0.0874395 -1.1620066
vn 0.0000000 0.0000000 0.0000000
v 0.1008182 0.5154184 -1.2107626
vn 0.0000000 0.0000000 0.0000000
v 0.1874297 0.5355883 -1.0737517
vn 0.0000000 0.0000000 0.0000000
v 0.2281466 -0.0115116 -1.1085960
vn 0.0000000 0.0000000 0.0000000
v 0.8659842 0.4519783 -1.0675806
vn 0.0000000 0.0000000 0.0000000
v 0.3573636 0.5380904 -1.0856377
vn 0.9092526 0.1226987 0.3977496
v 1.0773016 0.1301372 -1.0907141
vn 0.0000000 0.0000000 0.0000000
v 0.4428907 0.5333040 -1.1131929
vn 0.0000000 0.0000000 0.0000000
v 0.6950285 0.3768198 -1.1977897
vn 0.0000000 0.0000000 0.0000000
v 0.7113740 0.0202991 -1.1561816
vn 0.0000000 0.0000000 0.0000000
v 0.6172551 0.0240511 -1.1601907
vn -5.7905822 0.6385252 -1.9180675
v -0.0897349 0.4530169 -1.1424985
vn 0.0000000 0.0000000 0.0000000
v 0.9031222 -0.0045824 -1.1552606
vn 0.0000000 0.0000000 0.0000000
v 0.9106742 0.3728854 -1.1653316
vn 0.0000000 0.0000000 0.0000000
v 0.5197217 0.0142682 -1.0921874
vn 0.8862803 0.4629363 0.0140442
v 1.0546150 0.2492590 -1.1203550
vn 0.0000000 0.0000000 0.0000000
v 0.2509472 0.4787202 -1.2054538
vn -5.9585452 -0.4403805 -1.9002162
v -0.0629588 0.3346897 -1.1776688
vn 0.7056559 0.6085457 -0.3629353
v 0.9902666 0.2910082 -1.1937304
vn -3.2383697 -0.5523911 -0.9103148
v -0.0499816 0.0722633 -1.1958977
vn 0.0000000 0.0000000 0.0000000
v 0.4851602 0.5317339 -1.0502753
vn 0.0000000 0.0000000 0.0000000
v 0.6672329 0.0109684 -1.0709497
vn 0.0000000 0.0000000 0.0000000
v 0.0608582 -0.0096993 -1.0870525
vn 0.0000000 0.0000000 0.0000000
v 0.3981142 0.0073399 -1.0716107
vn 0.8176967 0.5577766 0.1423283
v 0.9490106 0.4100122 -1.0657014
vn 0.8497168 0.1918599 0.4910918
v 1.0311511 0.2240841 -1.0409021
vn 0.0000000 0.0000000 0.0000000
v 1.0112246 -0.0134443 -1.1597486
vn 0.8553783 -0.0786974 0.5119909
v 1.0645932 0.0414308 -1.0631195
vn -6.0138149 -0.6074125 -1.6852691
v -0.1114574 0.3099214 -1.0359498
vn 0.0000000 0.0000000 0.0000000
v 0.8181818 -0.0037408 -1.0280839
vn 0.8681706 0.3868223 0.3108834
v 1.0050553 0.3242568 -1.0516158
vn -2.7901950 1.0383842 -0.8210459
v -0.0764035 0.5132594 -1.1240174
vn 0.0000000 0.0000000 0.0000000
v 1.0024840 -0.0104383 -1.0745229
vn 0.0000000 0.0000000 0.0000000
v 0.6414065 0.4870603 -1.0372177
vn 0.0000000 0.0000000 0.0000000
v 0.0387804 -0.0133053 -0.9647322
vn -1.9142351 -0.8218779 -0.0754674
v -0.0368472 0.0362471 -1.0481632
vn -5.9567928 -1.4718524 -0.8375313
v -0.0958795 0.1724927 -1.0345881
vn 0.0000000 0.0000000 0.0000000
v 0.7659535 0.4837926 -1.0311371
vn -2.2109759 1.9633343 -0.1174048
v -0.0758793 0.5478390 -1.0103592
vn 0.0000000 0.0000000 0.0000000
v 0.0337585 0.5568404 -1.0523566
vn 0.0000000 0.0000000 0.0000000
v 0.3866520 0.5620648 -0.9264790
vn 0.0000000 0.0000000 0.0000000
v 0.5802161 0.5261273 -0.9696386
vn 0.2235432 0.9422814 0.2492674
v 0.8073176 0.5290081 -0.9068473
vn -5.1253734 2.4589317 -0.3645634
v -0.1287467 0.4904276 -0.9748344
vn 0.0000000 0.0000000 0.0000000
v 0.2349517 -0.0104418 -0.9248652
vn -1.6697476 2.0966320 0.4279183
v -0.0564255 0.5428134 -0.9073775
vn 0.0000000 0.0000000 0.0000000
v 0.3611401 0.0102521 -0.9221566
vn 0.0000000 0.0000000 0.0000000
v 0.5782155 0.0060873 -0.9502867
vn 0.8676327 0.2727266 0.4157327
v 0.9383774 0.3968667 -0.9530957
vn 0.8354340 0.4431430 0.3250760
v 0.8949009 0.4779846 -0.9603975
vn 0.0000000 0.0000000 0.0000000
v 0.8562499 -0.0009262 -0.9343849
vn 0.6763983 -0.2857184 0.6788597
v 0.9525052 0.0139594 -0.9766656
vn 0.7477207 -0.0938741 0.6573442
v 0.9755064 0.1193691 -0.9552186
vn -5.9389429 0.2815770 -1.5793920
v -0.1238205 0.4286017 -1.0389969
vn 0.0000000 0.0000000 0.0000000
v 0.7386240 0.0025360 -0.9131539
vn 0.0000000 0.0000000 0.0000000
v 0.1238416 -0.0193478 -0.9184783
vn 0.6897955 -0.3157786 0.6515105
v 0.8811208 0.0389660 -0.8836639
vn -4.6741233 -1.7524254 0.0202149
v -0.0935037 0.1453506 -0.9300470
vn -0.0317881 0.9584253 0.2835674
v 0.1101204 0.5490785 -0.9034147
vn 0.7100255 -0.0404414 0.7030137
v 0.9253958 0.1627113 -0.8965011
vn 0.7832408 0.0519926 0.6195407
v 0.9199206 0.2589800 -0.8943322
vn 0.0000000 0.0000000 0.0000000
v 0.4809361 0.5574493 -0.8451595
vn -1.2123761 -0.6346171 0.0350257
v -0.0118595 0.0129902 -0.8544095
vn -0.1372318 0.9717621 0.1919528
v 0.5949413 0.5678060 -0.8002844
vn 0.4472123 -0.8053411 0.3891363
v 0.8139090 0.0084705 -0.8695334
vn -6.1089702 -0.5598731 -0.4458548
v -0.1437359 0.3412022 -0.9119078
vn 0.0000000 0.0000000 0.0000000
v 0.3587641 0.0093072 -0.8396266
vn 0.0000000 0.0000000 0.0000000
v 0.6912771 0.5483611 -0.9011583
vn 0.6985904 -0.1090866 0.7071574
v 0.8623945 0.1303042 -0.8419776
vn -0.0986270 0.9725267 0.2108664
v 0.2112805 0.5523343 -0.9386889
vn 0.8096392 0.1310537 0.5721096
v 0.8983220 0.3763286 -0.8768454
vn 0.0000000 0.0000000 0.0000000
v 0.4715419 -0.0040449 -0.7947788
vn 0.2882316 -0.8074575 0.5147184
v 0.7323198 0.0080112 -0.8154706
vn -4.6481071 2.6130147 0.8137023
v -0.1392823 0.4666844 -0.8330196
vn -2.3727636 1.2773527 0.7165774
v -0.1294325 0.4461299 -0.7637644
vn 0.7328373 0.0610560 0.6776590
v 0.8474005 0.3433845 -0.8128402
vn -0.0380791 0.8969356 0.4405185
v 0.0533226 0.5234382 -0.8231205
vn 0.6199577 -0.4439915 0.6469343
v 0.8222871 0.0364881 -0.8211778
vn 0.0000000 0.0000000 0.0000000
v 0.5360539 0.5484850 -0.9060627
vn 0.8017387 0.2957979 0.5193445
v 0.8713229 0.4522454 -0.8647152
vn 0.6431753 0.6455223 0.4118575
v 0.8491364 0.5106674 -0.8750188
vn 0.0000000 0.0000000 0.0000000
v 0.6027890 0.0045125 -0.7920111
vn 0.0000000 0.0000000 0.0000000
v 0.1112590 -0.0212666 -0.8283621
vn -2.1000941 -0.8574540 0.1727704
v -0.0579986 0.0913851 -0.7361298
vn -3.6613293 -0.3952185 0.4496177
v -0.1406306 0.3486589 -0.7805200
vn 0.4664864 0.7591559 0.4539524
v 0.7185252 0.5562991 -0.7803475
vn -5.7788887 -1.8225187 0.9231273
v -0.1105352 0.2034907 -0.8183565
vn 0.0000000 0.0000000 0.0000000
v 0.0931774 -0.0419757 -0.7240564
vn -0.9902483 1.5917292 0.5811136
v -0.0693756 0.4877335 -0.7715504
vn 0.5574894 -0.3527032 0.7515358
v 0.7581740 0.0557923 -0.7549925
vn 0.6854526 0.3707742 0.6266428
v 0.7751330 0.5000975 -0.7686961
vn -0.1025026 0.9093441 0.4032202
v 0.2051238 0.5250998 -0.8159614
vn -0.1931395 0.9110079 0.3643649
v 0.4206005 0.5394267 -0.7812548
vn -0.8092038 -0.5126283 0.2870568
v -0.0089490 -0.0183234 -0.7358435
vn -0.3883746 0.8214582 0.4175782
v 0.4389890 0.5152144 -0.7129062
vn -0.2461226 0.8423013 0.4795333
v 0.4785057 0.5255484 -0.7001469
vn -0.7702027 -0.2778476 0.5740981
v -0.0206501 0.0233572 -0.6943949
vn -0.3037250 0.1811432 0.9353814
v -0.0667890 0.3875475 -0.7281013
vn -0.1828075 0.7239835 0.6651537
v 0.2675604 0.4838448 -0.7259598
vn 0.0000000 0.0000000 0.0000000
v 0.2746658 -0.0164087 -0.7861338
vn 0.7007375 -0.0437644 0.7120756
v 0.8035305 0.2506965 -0.7698115
vn 0.7079827 0.0785218 0.7018511
v 0.7769320 0.3798738 -0.7442977
vn 0.4720306 -0.3393357 0.8136575
v 0.6717176 0.0353438 -0.7211167
vn 0.6283954 -0.1330847 0.7664253
v 0.7412820 0.1734745 -0.7200772
vn -0.1081995 0.5815020 0.8063178
v 0.0877668 0.4602205 -0.7403881
vn 0.7736273 -0.5737182 0.2689759
v 0.5495251 0.0003033 -0.6929168
vn -0.4408985 -0.2221423 0.8696329
v 0.0351597 -0.0320942 -0.6693780
vn -0.0426102 0.8938067 0.4464236
v 0.5817021 0.5435662 -0.6870351
vn -0.3749515 -0.8393752 0.3935234
v 0.2389368 -0.0350990 -0.6643342
vn -0.1283107 0.0985441 0.9868259
v 0.1383076 0.1372421 -0.6611782
vn -2.3147049 -0.5919737 0.9722826
v -0.0814046 0.2393485 -0.7271735
vn 0.5723926 -0.2680093 0.7749437
v 0.6546242 0.1292029 -0.6720562
vn 0.4791061 0.6117117 0.6294968
v 0.6797596 0.5209754 -0.6814389
vn -0.4218745 0.0408021 0.9057357
v 0.0048265 0.0925453 -0.6738533
vn -0.2046298 0.1679213 0.9643283
v 0.0534992 0.2796698 -0.6912708
vn -0.2898340 0.3545875 0.8889679
v 0.2642406 0.3878905 -0.6691550
vn 0.6512360 -0.1026564 0.7518998
v 0.6888485 0.2519121 -0.6633820
vn 0.0000000 0.0000000 0.0000000
v 0.3282602 -0.0485559 -0.6289716
vn 0.3653060 0.5201583 0.7720019
v 0.6106290 0.4827399 -0.6087067
vn -0.1630438 -0.2295532 0.9595426
v 0.0990830 -0.0427003 -0.6587841
vn -0.4459581 0.1918157 0.8742586
v 0.3183053 0.3252878 -0.6294633
vn -0.1570744 -0.0340156 0.9870008
v 0.1072132 0.0120603 -0.6443021
vn -0.3158088 0.7067513 0.6330619
v 0.4137185 0.4794110 -0.6693162
vn -0.1005546 0.1485900 0.9837733
v 0.1870717 0.0475475 -0.6443316
vn -0.2569013 0.1065876 0.9605420
v 0.2190835 0.1046357 -0.6557394
vn 0.6310411 -0.1782081 0.7550027
v 0.5906781 0.1974896 -0.5897896
vn 0.6453430 0.0641063 0.7611983
v 0.6550648 0.3896354 -0.6244335
vn -0.4324859 0.1753374 0.8844279
v 0.3806881 0.2362699 -0.5747349
vn 0.0000000 0.0000000 0.0000000
v 0.3763407 -0.0576956 -0.5686490
vn -0.4960189 0.1049720 0.8619432
v 0.3291390 0.0687908 -0.5780554
vn -0.3156348 -0.1664172 0.9341735
v 0.2053207 -0.0074777 -0.6374485
vn -0.1683872 0.6440268 0.7462407
v 0.5342861 0.4761384 -0.5941102
vn 0.7211539 -0.4807886 0.4987778
v 0.5215698 0.0066504 -0.5989737
vn 0.7004169 -0.3702830 0.6101694
v 0.5788314 0.0647916 -0.6396555
vn -0.4643162 0.1867614 0.8657544
v 0.2485118 0.0675143 -0.6346713
vn -0.3569070 0.1089423 0.9277656
v 0.2516929 0.2145974 -0.6425325
vn 0.5818756 -0.1450378 0.8002405
v 0.5241777 0.1168091 -0.5531262
vn 0.4347962 -0.7526871 0.4943829
v 0.4415453 -0.0418821 -0.5928896
vn -0.5004594 -0.0692740 0.8629841
v 0.3203025 -0.0311618 -0.5784104
vn 0.1730402 0.2238410 0.9591415
v 0.5613228 0.4139979 -0.5612991
vn -0.3031763 0.3143965 0.8995771
v 0.4529108 0.3763028 -0.5756932
vn -0.5099598 -0.0119189 0.8601156
v 0.4064018 -0.0505414 -0.5276310
vn -0.1859902 -0.1839015 0.9651880
v 0.4188887 -0.0006525 -0.5195363
vn 0.4892841 -0.3680428 0.7906615
v 0.4798243 0.0216479 -0.5298319
vn -0.0531277 0.0910837 0.9944251
v 0.4579689 0.1587952 -0.5264844
vn 0.3421864 0.0332197 0.9390447
v 0.5574439 0.2804811 -0.5548362
# 232 vertices, 0 vertices normals

f 122//122 123//123 106//106
f 85//85 106//106 123//123
f 85//85 123//123 115//115
f 11//11 27//27 16//16
f 171//171 161//161 160//160
f 118//118 140//140 130//130
f 118//118 130//130 125//125
f 160//160 175//175 132//132
f 152//152 173//173 171//171
f 171//171 160//160 152//152
f 130//130 152//152 160//160
f 175//175 160//160 161//161
f 173//173 170//170 197//197
f 197//197 171//171 173//173
f 52//52 40//40 39//39
f 11//11 4//4 10//10
f 11//11 16//16 4//4
f 64//64 40//40 104//104
f 104//104 65//65 64//64
f 123//123 122//122 144//144
f 152//152 123//123 144//144
f 39//39 11//11 10//10
f 39//39 40//40 11//11
f 104//104 40//40 85//85
f 40//40 64//64 11//11
f 65//65 20//20 64//64
f 20//20 27//27 11//11
f 106//106 40//40 52//52
f 85//85 40//40 106//106
f 64//64 20//20 11//11
f 85//85 115//115 104//104
f 140//140 104//104 115//115
f 98//98 104//104 140//140
f 118//118 98//98 140//140
f 115//115 123//123 152//152
f 152//152 140//140 115//115
f 152//152 130//130 140//140
f 132//132 130//130 160//160
f 125//125 130//130 132//132
f 98//98 65//65 104//104
f 98//98 118//118 65//65
f 144//144 149//149 173//173
f 170//170 173//173 149//149
f 152//152 144//144 173//173
# 44 faces, 0 coords texture

# End of File
