####
#
# OBJ File Generated by Meshlab
#
####
# Object cake_part05_seg_00.obj
#
# Vertices: 232
# Faces: 130
#
####
vn 0.2273707 0.4976991 -0.8370174
v 0.4632947 0.1606466 -1.5547194
vn 0.3874668 0.4625972 -0.7974167
v 0.5307041 0.1898686 -1.5190324
vn 0.0000000 0.0000000 0.0000000
v 0.5043408 0.1141038 -1.5070251
vn 0.3017191 0.1688769 -0.9383209
v 0.0859530 0.2513625 -1.5314883
vn 0.0000000 0.0000000 0.0000000
v 0.4136280 0.1473151 -1.5229568
vn 0.1329999 0.2985531 -0.9450805
v 0.1786882 0.2076605 -1.5155209
vn -0.0297610 0.4520104 -0.8915161
v 0.3067402 0.2549068 -1.5006690
vn 0.0605736 0.4922144 -0.8683639
v 0.4180073 0.2030845 -1.5417875
vn -0.0422622 0.1301612 -0.9905918
v 0.0696342 0.2908210 -1.5371433
vn 0.0000000 0.0000000 0.0000000
v 0.0935645 0.1684562 -1.4690281
vn 0.0000000 0.0000000 0.0000000
v 0.0165723 0.2651751 -1.4609622
vn -0.1293523 0.0672109 -0.9893183
v 0.3097174 0.1862173 -1.5057248
vn 0.2342414 0.4784715 -0.8462837
v 0.0833423 0.3134346 -1.5203527
vn 0.0000000 0.0000000 0.0000000
v 0.2750805 0.1491593 -1.4578344
vn 0.5098870 0.3657584 -0.7786117
v 0.6483981 0.1256113 -1.4530519
vn -0.2759924 0.4222148 -0.8634598
v 0.0418009 0.3012375 -1.5207624
vn 0.0000000 0.0000000 0.0000000
v 0.1866634 0.1591261 -1.4665397
vn 0.2664776 0.5525357 -0.7897431
v 0.1702445 0.3015368 -1.4819993
vn 0.0000000 0.0000000 0.0000000
v 0.4922655 0.0649486 -1.3799533
vn -0.7751426 0.5464059 -0.3171667
v -0.0100985 0.3904326 -1.4129008
vn 0.0000000 0.0000000 0.0000000
v 0.1709164 0.1394789 -1.4021151
vn -0.4387143 0.7129195 -0.5470610
v 0.0119732 0.4119773 -1.4428606
vn 0.0666029 0.6502775 -0.7567716
v 0.0555078 0.3772144 -1.4783107
vn 0.0000000 0.0000000 0.0000000
v 0.3665601 0.1155375 -1.4351070
vn 0.0831247 0.7688777 -0.6339695
v 0.2721592 0.3312673 -1.4235353
vn 0.0000000 0.0000000 0.0000000
v 0.6140578 0.0794993 -1.4439499
vn -0.3971561 0.4880763 -0.7772056
v 0.0076190 0.3535903 -1.4770708
vn 0.0049392 0.7795326 -0.6263422
v 0.3743013 0.3114595 -1.4484965
vn 0.3045034 0.0887544 -0.9483672
v 0.8615061 0.0492242 -1.3757920
vn 0.3353232 0.7656015 -0.5490107
v 0.0993210 0.4109738 -1.4184233
vn 0.0000000 0.0000000 0.0000000
v 0.2313708 0.1057158 -1.3758379
vn 0.0678172 0.8131051 -0.5781531
v 0.3444214 0.3451233 -1.4009174
vn 0.4539479 0.5769992 -0.6789722
v 0.5603742 0.2695827 -1.4546487
vn 0.1484837 0.6923478 -0.7061212
v 0.4658648 0.2872210 -1.4786718
vn 0.3880385 0.2131303 -0.8966614
v 0.7399887 0.0850331 -1.4115900
vn 0.0000000 0.0000000 0.0000000
v 0.0774926 0.0907900 -1.3780195
vn 0.1346584 0.8263706 -0.5467896
v 0.4836567 0.3421932 -1.3905512
vn 0.4629484 0.5581727 -0.6885653
v 0.6780493 0.2297614 -1.3755058
vn 0.0000000 0.0000000 0.0000000
v 0.0324943 0.1467409 -1.3931010
vn 0.0000000 0.0000000 0.0000000
v -0.0145282 0.1966969 -1.3127370
vn -0.1661886 0.8650668 -0.4733295
v 0.0336318 0.4546834 -1.3721714
vn 0.0000000 0.0000000 0.0000000
v 0.1496375 0.0717991 -1.3335687
vn 0.0480285 0.8069472 -0.5886676
v 0.3168432 0.3930605 -1.3417238
vn 0.2760601 0.6036540 -0.7479256
v 0.8995941 0.2564198 -1.2778460
vn 0.0000000 0.0000000 0.0000000
v 0.1636309 0.1150374 -1.3637214
vn 0.0000000 0.0000000 0.0000000
v 0.8701856 0.0214859 -1.3396320
vn 0.3895769 0.3343030 -0.8581792
v 0.9311470 0.1328079 -1.3456093
vn 0.0786378 0.8170897 -0.5711222
v 0.4113615 0.3585706 -1.3684812
vn 0.0000000 0.0000000 0.0000000
v 0.1306522 0.1269226 -1.4052920
vn 0.1756051 0.7700624 -0.6133243
v 0.2153542 0.3624302 -1.3967934
vn 0.4643585 0.2174608 -0.8585348
v 0.9926682 0.0464188 -1.3342159
vn 0.0000000 0.0000000 0.0000000
v 0.0063093 0.0700463 -1.3039142
vn 0.0000000 0.0000000 0.0000000
v 0.0857479 0.0421159 -1.2825748
vn 0.0000000 0.0000000 0.0000000
v 0.6246189 0.0344419 -1.2928891
vn 0.0000000 0.0000000 0.0000000
v 0.6757743 0.0444960 -1.3569063
vn 0.2951730 0.8057527 -0.5134545
v 0.1732852 0.4249074 -1.3350526
vn 0.0000000 0.0000000 0.0000000
v 0.9726462 0.0036089 -1.3037339
vn 0.0000000 0.0000000 0.0000000
v 1.0704945 0.0381575 -1.2400349
vn 0.5565871 0.4434588 -0.7025348
v 1.0402683 0.1438570 -1.2594661
vn 0.0000000 0.0000000 0.0000000
v 0.2351024 0.0362071 -1.2717575
vn 0.4133760 0.7284209 -0.5463729
v 0.5820046 0.3408402 -1.3500963
vn 0.0000000 0.0000000 0.0000000
v 0.3442726 0.0539896 -1.3123100
vn 0.0000000 0.0000000 0.0000000
v -0.0222413 0.0349568 -1.2563428
vn 0.0000000 0.0000000 0.0000000
v -0.0229421 0.3301385 -1.3417577
vn -0.6465523 0.5800374 -0.4955067
v -0.0487733 0.4526131 -1.2581106
vn 0.0000000 0.0000000 0.0000000
v 0.3231870 0.0242312 -1.2433090
vn 0.1453274 0.8129038 -0.5639747
v 0.2483004 0.3973414 -1.3397622
vn 0.0650845 0.8354031 -0.5457708
v 0.3906897 0.4477171 -1.2640996
vn 0.2923889 0.4785155 -0.8279684
v 0.7883523 0.1715691 -1.3662533
vn 0.0000000 0.0000000 0.0000000
v 0.0025935 0.0215171 -1.2083088
vn 0.3627554 0.8247555 -0.4338053
v 0.6058668 0.4274725 -1.1796755
vn 0.2427274 0.8649442 -0.4392664
v 0.4773259 0.4907221 -1.1705811
vn 0.0000000 0.0000000 0.0000000
v 0.1536630 0.0190960 -1.2409694
vn 0.2567897 0.8109055 -0.5258246
v 0.5181295 0.4103311 -1.2822951
vn -0.6368352 0.6746340 -0.3732427
v -0.0528187 0.5087198 -1.2116380
vn 0.0000000 0.0000000 0.0000000
v 0.7610651 0.0189160 -1.2494781
vn -0.2167197 0.8927077 -0.3951019
v -0.0044941 0.5155473 -1.2316684
vn 0.0000000 0.0000000 0.0000000
v 0.4644648 0.0283773 -1.2354013
vn 0.0000000 0.0000000 0.0000000
v 0.9944430 -0.0067740 -1.2301688
vn 0.1395240 0.7360955 -0.6623417
v 0.7974944 0.3443715 -1.2071247
vn 0.6409687 0.4839479 -0.5957798
v 1.0611898 0.2108511 -1.1825389
vn 0.0000000 0.0000000 0.0000000
v 0.0715434 0.0111323 -1.1888794
vn 0.0000000 0.0000000 0.0000000
v 0.1274734 -0.0115387 -1.1484480
vn 0.0000000 0.0000000 0.0000000
v 0.7802902 0.0119758 -1.1394479
vn 0.0000000 0.0000000 0.0000000
v -0.0682830 0.1892998 -1.1507474
vn 0.0000000 0.0000000 0.0000000
v 1.0812482 0.0045362 -1.1479014
vn 0.0000000 0.0000000 0.0000000
v 1.1018808 0.0874395 -1.1620066
vn 0.1571274 0.9287095 -0.3358715
v 0.1008182 0.5154184 -1.2107626
vn 0.0745389 0.9722759 -0.2216386
v 0.1874297 0.5355883 -1.0737517
vn 0.0000000 0.0000000 0.0000000
v 0.2281466 -0.0115116 -1.1085960
vn 0.2337080 0.8488148 -0.4742299
v 0.8659842 0.4519783 -1.0675806
vn 0.0009051 0.9582149 -0.2860479
v 0.3573636 0.5380904 -1.0856377
vn 0.0000000 0.0000000 0.0000000
v 1.0773016 0.1301372 -1.0907141
vn 0.1178667 0.9181452 -0.3783080
v 0.4428907 0.5333040 -1.1131929
vn 0.2817055 0.7838036 -0.5534383
v 0.6950285 0.3768198 -1.1977897
vn 0.0000000 0.0000000 0.0000000
v 0.7113740 0.0202991 -1.1561816
vn 0.0000000 0.0000000 0.0000000
v 0.6172551 0.0240511 -1.1601907
vn 0.0000000 0.0000000 0.0000000
v -0.0897349 0.4530169 -1.1424985
vn 0.0000000 0.0000000 0.0000000
v 0.9031222 -0.0045824 -1.1552606
vn 0.2995837 0.7408974 -0.6010996
v 0.9106742 0.3728854 -1.1653316
vn 0.0000000 0.0000000 0.0000000
v 0.5197217 0.0142682 -1.0921874
vn 0.0000000 0.0000000 0.0000000
v 1.0546150 0.2492590 -1.1203550
vn 0.0964771 0.8893251 -0.4469823
v 0.2509472 0.4787202 -1.2054538
vn 0.0000000 0.0000000 0.0000000
v -0.0629588 0.3346897 -1.1776688
vn 0.5497624 0.5800969 -0.6010399
v 0.9902666 0.2910082 -1.1937304
vn 0.0000000 0.0000000 0.0000000
v -0.0499816 0.0722633 -1.1958977
vn 0.2283122 0.9455075 -0.2321405
v 0.4851602 0.5317339 -1.0502753
vn 0.0000000 0.0000000 0.0000000
v 0.6672329 0.0109684 -1.0709497
vn 0.0000000 0.0000000 0.0000000
v 0.0608582 -0.0096993 -1.0870525
vn 0.0000000 0.0000000 0.0000000
v 0.3981142 0.0073399 -1.0716107
vn 0.6233830 0.7206280 -0.3034615
v 0.9490106 0.4100122 -1.0657014
vn 0.0000000 0.0000000 0.0000000
v 1.0311511 0.2240841 -1.0409021
vn 0.0000000 0.0000000 0.0000000
v 1.0112246 -0.0134443 -1.1597486
vn 0.0000000 0.0000000 0.0000000
v 1.0645932 0.0414308 -1.0631195
vn 0.0000000 0.0000000 0.0000000
v -0.1114574 0.3099214 -1.0359498
vn 0.0000000 0.0000000 0.0000000
v 0.8181818 -0.0037408 -1.0280839
vn 0.8342389 0.5113025 -0.2064348
v 1.0050553 0.3242568 -1.0516158
vn -0.3375879 0.9159544 -0.2169379
v -0.0764035 0.5132594 -1.1240174
vn 0.0000000 0.0000000 0.0000000
v 1.0024840 -0.0104383 -1.0745229
vn 0.1675081 0.8824102 -0.4396514
v 0.6414065 0.4870603 -1.0372177
vn 0.0000000 0.0000000 0.0000000
v 0.0387804 -0.0133053 -0.9647322
vn 0.0000000 0.0000000 0.0000000
v -0.0368472 0.0362471 -1.0481632
vn 0.0000000 0.0000000 0.0000000
v -0.0958795 0.1724927 -1.0345881
vn 0.0946778 0.8728563 -0.4787045
v 0.7659535 0.4837926 -1.0311371
vn -0.1139423 0.9898182 -0.0853065
v -0.0758793 0.5478390 -1.0103592
vn -0.0407555 0.9925365 -0.1149361
v 0.0337585 0.5568404 -1.0523566
vn 0.0000652 0.9998975 -0.0143217
v 0.3866520 0.5620648 -0.9264790
vn 0.1546717 0.9398407 -0.3045917
v 0.5802161 0.5261273 -0.9696386
vn 0.2982778 0.9336640 -0.1982471
v 0.8073176 0.5290081 -0.9068473
vn 0.0000000 0.0000000 0.0000000
v -0.1287467 0.4904276 -0.9748344
vn 0.0000000 0.0000000 0.0000000
v 0.2349517 -0.0104418 -0.9248652
vn -0.0474332 0.9966303 0.0669197
v -0.0564255 0.5428134 -0.9073775
vn 0.0000000 0.0000000 0.0000000
v 0.3611401 0.0102521 -0.9221566
vn 0.0000000 0.0000000 0.0000000
v 0.5782155 0.0060873 -0.9502867
vn 0.8677799 0.4774943 0.1376856
v 0.9383774 0.3968667 -0.9530957
vn 0.5210869 0.8322315 -0.1893656
v 0.8949009 0.4779846 -0.9603975
vn 0.0000000 0.0000000 0.0000000
v 0.8562499 -0.0009262 -0.9343849
vn 0.0000000 0.0000000 0.0000000
v 0.9525052 0.0139594 -0.9766656
vn 0.0000000 0.0000000 0.0000000
v 0.9755064 0.1193691 -0.9552186
vn 0.0000000 0.0000000 0.0000000
v -0.1238205 0.4286017 -1.0389969
vn 0.0000000 0.0000000 0.0000000
v 0.7386240 0.0025360 -0.9131539
vn 0.0000000 0.0000000 0.0000000
v 0.1238416 -0.0193478 -0.9184783
vn 0.0000000 0.0000000 0.0000000
v 0.8811208 0.0389660 -0.8836639
vn 0.0000000 0.0000000 0.0000000
v -0.0935037 0.1453506 -0.9300470
vn -0.0034535 0.9941884 0.1075994
v 0.1101204 0.5490785 -0.9034147
vn 0.0000000 0.0000000 0.0000000
v 0.9253958 0.1627113 -0.8965011
vn 0.0000000 0.0000000 0.0000000
v 0.9199206 0.2589800 -0.8943322
vn -0.0507022 0.9979026 0.0402471
v 0.4809361 0.5574493 -0.8451595
vn 0.0000000 0.0000000 0.0000000
v -0.0118595 0.0129902 -0.8544095
vn -0.0118260 0.9993011 0.0354609
v 0.5949413 0.5678060 -0.8002844
vn 0.0000000 0.0000000 0.0000000
v 0.8139090 0.0084705 -0.8695334
vn 0.0000000 0.0000000 0.0000000
v -0.1437359 0.3412022 -0.9119078
vn 0.0000000 0.0000000 0.0000000
v 0.3587641 0.0093072 -0.8396266
vn 0.0922178 0.9627520 -0.2541744
v 0.6912771 0.5483611 -0.9011583
vn 0.0000000 0.0000000 0.0000000
v 0.8623945 0.1303042 -0.8419776
vn -0.0091053 0.9990646 0.0422730
v 0.2112805 0.5523343 -0.9386889
vn 0.0000000 0.0000000 0.0000000
v 0.8983220 0.3763286 -0.8768454
vn 0.0000000 0.0000000 0.0000000
v 0.4715419 -0.0040449 -0.7947788
vn 0.0000000 0.0000000 0.0000000
v 0.7323198 0.0080112 -0.8154706
vn 0.0000000 0.0000000 0.0000000
v -0.1392823 0.4666844 -0.8330196
vn 0.0000000 0.0000000 0.0000000
v -0.1294325 0.4461299 -0.7637644
vn 0.0000000 0.0000000 0.0000000
v 0.8474005 0.3433845 -0.8128402
vn 0.0000000 0.0000000 0.0000000
v 0.0533226 0.5234382 -0.8231205
vn 0.0000000 0.0000000 0.0000000
v 0.8222871 0.0364881 -0.8211778
vn 0.0651940 0.9814899 -0.1800763
v 0.5360539 0.5484850 -0.9060627
vn 0.0000000 0.0000000 0.0000000
v 0.8713229 0.4522454 -0.8647152
vn 0.4582683 0.8839626 -0.0927387
v 0.8491364 0.5106674 -0.8750188
vn 0.0000000 0.0000000 0.0000000
v 0.6027890 0.0045125 -0.7920111
vn 0.0000000 0.0000000 0.0000000
v 0.1112590 -0.0212666 -0.8283621
vn 0.0000000 0.0000000 0.0000000
v -0.0579986 0.0913851 -0.7361298
vn 0.0000000 0.0000000 0.0000000
v -0.1406306 0.3486589 -0.7805200
vn 0.2792577 0.9563894 0.0856418
v 0.7185252 0.5562991 -0.7803475
vn 0.0000000 0.0000000 0.0000000
v -0.1105352 0.2034907 -0.8183565
vn 0.0000000 0.0000000 0.0000000
v 0.0931774 -0.0419757 -0.7240564
vn 0.0000000 0.0000000 0.0000000
v -0.0693756 0.4877335 -0.7715504
vn 0.0000000 0.0000000 0.0000000
v 0.7581740 0.0557923 -0.7549925
vn 0.6411501 0.7074413 0.2974113
v 0.7751330 0.5000975 -0.7686961
vn -0.0498941 0.9755620 0.2139847
v 0.2051238 0.5250998 -0.8159614
vn -0.1101060 0.9782533 0.1757760
v 0.4206005 0.5394267 -0.7812548
vn 0.0000000 0.0000000 0.0000000
v -0.0089490 -0.0183234 -0.7358435
vn 0.0000000 0.0000000 0.0000000
v 0.4389890 0.5152144 -0.7129062
vn 0.0000000 0.0000000 0.0000000
v 0.4785057 0.5255484 -0.7001469
vn 0.0000000 0.0000000 0.0000000
v -0.0206501 0.0233572 -0.6943949
vn 0.0000000 0.0000000 0.0000000
v -0.0667890 0.3875475 -0.7281013
vn 0.0000000 0.0000000 0.0000000
v 0.2675604 0.4838448 -0.7259598
vn 0.0000000 0.0000000 0.0000000
v 0.2746658 -0.0164087 -0.7861338
vn 0.0000000 0.0000000 0.0000000
v 0.8035305 0.2506965 -0.7698115
vn 0.0000000 0.0000000 0.0000000
v 0.7769320 0.3798738 -0.7442977
vn 0.0000000 0.0000000 0.0000000
v 0.6717176 0.0353438 -0.7211167
vn 0.0000000 0.0000000 0.0000000
v 0.7412820 0.1734745 -0.7200772
vn 0.0000000 0.0000000 0.0000000
v 0.0877668 0.4602205 -0.7403881
vn 0.0000000 0.0000000 0.0000000
v 0.5495251 0.0003033 -0.6929168
vn 0.0000000 0.0000000 0.0000000
v 0.0351597 -0.0320942 -0.6693780
vn -0.0559179 0.9776396 0.2027168
v 0.5817021 0.5435662 -0.6870351
vn 0.0000000 0.0000000 0.0000000
v 0.2389368 -0.0350990 -0.6643342
vn 0.0000000 0.0000000 0.0000000
v 0.1383076 0.1372421 -0.6611782
vn 0.0000000 0.0000000 0.0000000
v -0.0814046 0.2393485 -0.7271735
vn 0.0000000 0.0000000 0.0000000
v 0.6546242 0.1292029 -0.6720562
vn 0.0000000 0.0000000 0.0000000
v 0.6797596 0.5209754 -0.6814389
vn 0.0000000 0.0000000 0.0000000
v 0.0048265 0.0925453 -0.6738533
vn 0.0000000 0.0000000 0.0000000
v 0.0534992 0.2796698 -0.6912708
vn 0.0000000 0.0000000 0.0000000
v 0.2642406 0.3878905 -0.6691550
vn 0.0000000 0.0000000 0.0000000
v 0.6888485 0.2519121 -0.6633820
vn 0.0000000 0.0000000 0.0000000
v 0.3282602 -0.0485559 -0.6289716
vn 0.0000000 0.0000000 0.0000000
v 0.6106290 0.4827399 -0.6087067
vn 0.0000000 0.0000000 0.0000000
v 0.0990830 -0.0427003 -0.6587841
vn 0.0000000 0.0000000 0.0000000
v 0.3183053 0.3252878 -0.6294633
vn 0.0000000 0.0000000 0.0000000
v 0.1072132 0.0120603 -0.6443021
vn 0.0000000 0.0000000 0.0000000
v 0.4137185 0.4794110 -0.6693162
vn 0.0000000 0.0000000 0.0000000
v 0.1870717 0.0475475 -0.6443316
vn 0.0000000 0.0000000 0.0000000
v 0.2190835 0.1046357 -0.6557394
vn 0.0000000 0.0000000 0.0000000
v 0.5906781 0.1974896 -0.5897896
vn 0.0000000 0.0000000 0.0000000
v 0.6550648 0.3896354 -0.6244335
vn 0.0000000 0.0000000 0.0000000
v 0.3806881 0.2362699 -0.5747349
vn 0.0000000 0.0000000 0.0000000
v 0.3763407 -0.0576956 -0.5686490
vn 0.0000000 0.0000000 0.0000000
v 0.3291390 0.0687908 -0.5780554
vn 0.0000000 0.0000000 0.0000000
v 0.2053207 -0.0074777 -0.6374485
vn 0.0000000 0.0000000 0.0000000
v 0.5342861 0.4761384 -0.5941102
vn 0.0000000 0.0000000 0.0000000
v 0.5215698 0.0066504 -0.5989737
vn 0.0000000 0.0000000 0.0000000
v 0.5788314 0.0647916 -0.6396555
vn 0.0000000 0.0000000 0.0000000
v 0.2485118 0.0675143 -0.6346713
vn 0.0000000 0.0000000 0.0000000
v 0.2516929 0.2145974 -0.6425325
vn 0.0000000 0.0000000 0.0000000
v 0.5241777 0.1168091 -0.5531262
vn 0.0000000 0.0000000 0.0000000
v 0.4415453 -0.0418821 -0.5928896
vn 0.0000000 0.0000000 0.0000000
v 0.3203025 -0.0311618 -0.5784104
vn 0.0000000 0.0000000 0.0000000
v 0.5613228 0.4139979 -0.5612991
vn 0.0000000 0.0000000 0.0000000
v 0.4529108 0.3763028 -0.5756932
vn 0.0000000 0.0000000 0.0000000
v 0.4064018 -0.0505414 -0.5276310
vn 0.0000000 0.0000000 0.0000000
v 0.4188887 -0.0006525 -0.5195363
vn 0.0000000 0.0000000 0.0000000
v 0.4798243 0.0216479 -0.5298319
vn 0.0000000 0.0000000 0.0000000
v 0.4579689 0.1587952 -0.5264844
vn 0.0000000 0.0000000 0.0000000
v 0.5574439 0.2804811 -0.5548362
# 232 vertices, 0 vertices normals

f 13//13 16//16 23//23
f 34//34 7//7 28//28
f 179//179 150//150 148//148
f 80//80 91//91 100//100
f 71//71 74//74 72//72
f 77//77 41//41 65//65
f 88//88 41//41 77//77
f 88//88 56//56 41//41
f 105//105 100//100 111//111
f 120//120 71//71 107//107
f 128//128 120//120 107//107
f 111//111 91//91 136//136
f 47//47 69//69 44//44
f 95//95 80//80 38//38
f 95//95 61//61 71//71
f 69//69 38//38 80//80
f 74//74 68//68 72//72
f 100//100 105//105 44//44
f 80//80 100//100 44//44
f 47//47 44//44 105//105
f 107//107 72//72 94//94
f 107//107 71//71 72//72
f 71//71 120//120 95//95
f 124//124 95//95 120//120
f 80//80 95//95 124//124
f 91//91 80//80 124//124
f 105//105 111//111 117//117
f 100//100 91//91 111//111
f 38//38 69//69 15//15
f 69//69 47//47 35//35
f 178//178 156//156 145//145
f 127//127 156//156 179//179
f 61//61 33//33 34//34
f 38//38 33//33 61//61
f 61//61 34//34 37//37
f 7//7 6//6 18//18
f 33//33 38//38 2//2
f 75//75 77//77 65//65
f 103//103 56//56 88//88
f 67//67 56//56 103//103
f 103//103 43//43 67//67
f 68//68 43//43 103//103
f 94//94 92//92 107//107
f 33//33 2//2 34//34
f 44//44 69//69 80//80
f 105//105 59//59 47//47
f 107//107 92//92 127//127
f 67//67 50//50 56//56
f 43//43 48//48 32//32
f 43//43 68//68 48//48
f 68//68 74//74 48//48
f 56//56 30//30 41//41
f 129//129 91//91 124//124
f 120//120 154//154 124//124
f 154//154 129//129 124//124
f 111//111 136//136 135//135
f 136//136 91//91 129//129
f 22//22 23//23 27//27
f 7//7 18//18 25//25
f 18//18 13//13 23//23
f 28//28 7//7 25//25
f 154//154 128//128 165//165
f 120//120 128//128 154//154
f 136//136 129//129 167//167
f 107//107 127//127 165//165
f 128//128 107//107 165//165
f 18//18 4//4 13//13
f 37//37 48//48 74//74
f 61//61 37//37 74//74
f 71//71 61//61 74//74
f 95//95 38//38 61//61
f 172//172 150//150 194//194
f 7//7 34//34 8//8
f 41//41 22//22 20//20
f 41//41 23//23 22//22
f 41//41 30//30 23//23
f 56//56 50//50 18//18
f 50//50 25//25 18//18
f 30//30 18//18 23//23
f 56//56 18//18 30//30
f 67//67 25//25 50//50
f 67//67 43//43 25//25
f 28//28 25//25 32//32
f 32//32 48//48 28//28
f 48//48 37//37 28//28
f 34//34 28//28 37//37
f 32//32 25//25 43//43
f 94//94 72//72 92//92
f 72//72 68//68 92//92
f 125//125 126//126 118//118
f 126//126 89//89 88//88
f 92//92 103//103 89//89
f 126//126 125//125 132//132
f 145//145 126//126 132//132
f 156//156 126//126 145//145
f 89//89 126//126 156//156
f 156//156 92//92 89//89
f 156//156 127//127 92//92
f 179//179 148//148 127//127
f 148//148 165//165 127//127
f 126//126 77//77 118//118
f 77//77 75//75 118//118
f 88//88 77//77 126//126
f 89//89 103//103 88//88
f 68//68 103//103 92//92
f 150//150 165//165 148//148
f 154//154 165//165 150//150
f 154//154 150//150 172//172
f 129//129 154//154 172//172
f 172//172 177//177 129//129
f 23//23 16//16 27//27
f 18//18 6//6 4//4
f 51//51 29//29 47//47
f 59//59 51//51 47//47
f 69//69 35//35 15//15
f 29//29 35//35 47//47
f 179//179 156//156 178//178
f 12//12 6//6 7//7
f 81//81 59//59 105//105
f 65//65 41//41 20//20
f 38//38 15//15 2//2
f 20//20 22//22 27//27
f 16//16 9//9 4//4
f 13//13 4//4 9//9
f 16//16 13//13 9//9
f 194//194 150//150 179//179
f 7//7 8//8 12//12
f 8//8 2//2 1//1
f 2//2 8//8 34//34
f 118//118 75//75 65//65
# 130 faces, 0 coords texture

# End of File
