# Blender 3.6.1
# www.blender.org
o icosahedron_subdivide.020
v -0.552786 -1.701302 -0.894427
v 1.447214 -1.051462 -0.894427
v 0.000000 -0.000000 -2.000000
v 0.447214 -1.376382 -0.894427
v -0.276393 -0.850651 -1.447213
v 0.723607 -0.525731 -1.447214
v 0.947214 -1.213922 -0.894427
v -0.052786 -1.538842 -0.894427
v -0.138196 -0.425326 -1.723607
v -0.414589 -1.275977 -1.170820
v 0.085411 -1.113517 -1.170820
v 0.223607 -0.688191 -1.447214
v 0.361804 -0.262866 -1.723607
v 0.585410 -0.951057 -1.170820
v 1.085410 -0.788597 -1.170820
v 1.197214 -1.132692 -0.894427
v 0.697214 -1.295152 -0.894427
v -0.302786 -1.620072 -0.894427
v 0.197214 -1.457612 -0.894427
v -0.069098 -0.212663 -1.861803
v -0.207295 -0.637988 -1.585410
v -0.345491 -1.063314 -1.309017
v -0.483688 -1.488639 -1.032624
v -0.233688 -1.407409 -1.032624
v -0.164589 -1.194747 -1.170820
v -0.095491 -0.982084 -1.309017
v 0.016312 -1.326179 -1.032624
v 0.266312 -1.244949 -1.032624
v -0.026393 -0.769421 -1.447214
v 0.042705 -0.556758 -1.585410
v 0.111804 -0.344096 -1.723607
v 0.180902 -0.131433 -1.861803
v 0.292705 -0.475528 -1.585410
v 0.542705 -0.394298 -1.585410
v 0.473607 -0.606961 -1.447214
v 0.654509 -0.738394 -1.309017
v 0.904509 -0.657164 -1.309017
v 0.835410 -0.869827 -1.170820
v 1.016312 -1.001259 -1.032624
v 1.266312 -0.920029 -1.032624
v 0.766312 -1.082489 -1.032624
v 0.516312 -1.163720 -1.032624
v 0.154509 -0.900854 -1.309017
v 0.404509 -0.819624 -1.309017
v 0.335410 -1.032287 -1.170820
v 1.322214 -1.092077 -0.894427
v 1.072214 -1.173307 -0.894427
v 0.572214 -1.335767 -0.894427
v 0.822214 -1.254537 -0.894427
v -0.427786 -1.660687 -0.894427
v -0.177786 -1.579457 -0.894427
v 0.072214 -1.498227 -0.894427
v 0.322214 -1.416997 -0.894427
v -0.034549 -0.106332 -1.930902
v -0.103647 -0.318994 -1.792705
v -0.172746 -0.531657 -1.654508
v -0.241844 -0.744320 -1.516312
v -0.310942 -0.956982 -1.378115
v -0.380040 -1.169645 -1.239918
v -0.449139 -1.382308 -1.101722
v -0.518237 -1.594971 -0.963525
v -0.393237 -1.554356 -0.963525
v -0.358688 -1.448024 -1.032624
v -0.324139 -1.341693 -1.101722
v -0.268237 -1.513741 -0.963525
v -0.143237 -1.473126 -0.963525
v -0.289589 -1.235362 -1.170820
v -0.255040 -1.129030 -1.239918
v -0.220491 -1.022699 -1.309017
v -0.185942 -0.916368 -1.378115
v -0.130040 -1.088415 -1.239918
v -0.005040 -1.047800 -1.239918
v -0.039589 -1.154132 -1.170820
v 0.050861 -1.219848 -1.101722
v 0.175861 -1.179233 -1.101722
v 0.141312 -1.285564 -1.032624
v 0.231763 -1.351281 -0.963525
v 0.356763 -1.310666 -0.963525
v 0.106763 -1.391896 -0.963525
v -0.018237 -1.432511 -0.963525
v -0.199139 -1.301078 -1.101722
v -0.074139 -1.260463 -1.101722
v -0.108688 -1.366794 -1.032624
v -0.151393 -0.810036 -1.447213
v -0.116844 -0.703705 -1.516312
v -0.082295 -0.597373 -1.585410
v -0.047746 -0.491042 -1.654508
v 0.008156 -0.663090 -1.516312
v 0.133156 -0.622475 -1.516312
v 0.098607 -0.728806 -1.447214
v -0.013196 -0.384711 -1.723607
v 0.021353 -0.278379 -1.792705
v 0.055902 -0.172048 -1.861803
v 0.090451 -0.065717 -1.930902
v 0.146353 -0.237764 -1.792705
v 0.271353 -0.197149 -1.792705
v 0.236804 -0.303481 -1.723607
v 0.327254 -0.369197 -1.654508
v 0.452254 -0.328582 -1.654508
v 0.417705 -0.434913 -1.585410
v 0.508156 -0.500630 -1.516312
v 0.633156 -0.460015 -1.516312
v 0.598607 -0.566346 -1.447214
v 0.383156 -0.541245 -1.516312
v 0.348607 -0.647576 -1.447214
v 0.258156 -0.581860 -1.516312
v 0.077254 -0.450427 -1.654508
v 0.202254 -0.409812 -1.654508
v 0.167705 -0.516143 -1.585410
v 0.689058 -0.632063 -1.378115
v 0.814058 -0.591447 -1.378115
v 0.779509 -0.697779 -1.309017
v 0.869960 -0.763495 -1.239919
v 0.994960 -0.722880 -1.239919
v 0.960410 -0.829212 -1.170820
v 0.744960 -0.804110 -1.239918
v 0.710410 -0.910442 -1.170820
v 0.619960 -0.844725 -1.239918
v 1.050861 -0.894928 -1.101722
v 1.175861 -0.854313 -1.101722
v 1.141312 -0.960644 -1.032624
v 1.231763 -1.026361 -0.963525
v 1.356763 -0.985746 -0.963525
v 1.106763 -1.066976 -0.963525
v 0.981763 -1.107591 -0.963525
v 0.856763 -1.148206 -0.963525
v 0.731763 -1.188821 -0.963525
v 0.606763 -1.229436 -0.963525
v 0.481763 -1.270051 -0.963525
v 0.641312 -1.123104 -1.032624
v 0.550861 -1.057388 -1.101722
v 0.675861 -1.016773 -1.101722
v 0.925861 -0.935543 -1.101722
v 0.891312 -1.041874 -1.032624
v 0.800861 -0.976158 -1.101722
v -0.060942 -0.875753 -1.378115
v 0.064058 -0.835138 -1.378115
v 0.189058 -0.794523 -1.378115
v 0.029509 -0.941469 -1.309017
v 0.119960 -1.007185 -1.239918
v 0.314058 -0.753908 -1.378115
v 0.439058 -0.713293 -1.378115
v 0.564058 -0.672678 -1.378115
v 0.529509 -0.779009 -1.309017
v 0.494960 -0.885340 -1.239918
v 0.460410 -0.991672 -1.170820
v 0.425861 -1.098003 -1.101722
v 0.391312 -1.204334 -1.032624
v 0.300861 -1.138618 -1.101722
v 0.210410 -1.072902 -1.170820
v 0.279509 -0.860239 -1.309017
v 0.369960 -0.925955 -1.239918
v 0.244960 -0.966570 -1.239918
vn 0.1876 -0.5774 -0.7947
vn 0.1876 -0.5773 -0.7947
s 0
f 1//1 61//1 50//1
f 61//1 23//1 62//1
f 62//1 18//1 50//1
f 61//1 62//1 50//1
f 23//1 60//1 63//1
f 60//2 10//2 64//2
f 64//1 24//1 63//1
f 60//1 64//1 63//1
f 24//1 66//1 65//1
f 66//1 8//1 51//1
f 51//1 18//1 65//1
f 66//1 51//1 65//1
f 23//1 63//1 62//1
f 63//2 24//2 65//2
f 65//1 18//1 62//1
f 63//2 65//2 62//2
f 10//2 59//2 67//2
f 59//1 22//1 68//1
f 68//1 25//1 67//1
f 59//2 68//2 67//2
f 22//1 58//1 69//1
f 58//1 5//1 70//1
f 70//2 26//2 69//2
f 58//1 70//1 69//1
f 26//1 72//1 71//1
f 72//1 11//1 73//1
f 73//1 25//1 71//1
f 72//1 73//1 71//1
f 22//1 69//1 68//1
f 69//1 26//1 71//1
f 71//1 25//1 68//1
f 69//1 71//1 68//1
f 11//1 75//1 74//1
f 75//1 28//1 76//1
f 76//1 27//1 74//1
f 75//1 76//1 74//1
f 28//1 78//1 77//1
f 78//1 4//1 53//1
f 53//1 19//1 77//1
f 78//1 53//1 77//1
f 19//2 52//2 79//2
f 52//2 8//2 80//2
f 80//1 27//1 79//1
f 52//2 80//2 79//2
f 28//1 77//1 76//1
f 77//1 19//1 79//1
f 79//1 27//1 76//1
f 77//1 79//1 76//1
f 10//2 67//2 64//2
f 67//1 25//1 81//1
f 81//1 24//1 64//1
f 67//1 81//1 64//1
f 25//2 73//2 82//2
f 73//2 11//2 74//2
f 74//1 27//1 82//1
f 73//1 74//1 82//1
f 27//1 80//1 83//1
f 80//1 8//1 66//1
f 66//1 24//1 83//1
f 80//1 66//1 83//1
f 25//1 82//1 81//1
f 82//1 27//1 83//1
f 83//2 24//2 81//2
f 82//2 83//2 81//2
f 5//1 57//1 84//1
f 57//1 21//1 85//1
f 85//1 29//1 84//1
f 57//2 85//2 84//2
f 21//2 56//2 86//2
f 56//1 9//1 87//1
f 87//1 30//1 86//1
f 56//1 87//1 86//1
f 30//2 89//2 88//2
f 89//1 12//1 90//1
f 90//1 29//1 88//1
f 89//1 90//1 88//1
f 21//1 86//1 85//1
f 86//1 30//1 88//1
f 88//1 29//1 85//1
f 86//2 88//2 85//2
f 9//2 55//2 91//2
f 55//1 20//1 92//1
f 92//1 31//1 91//1
f 55//2 92//2 91//2
f 20//1 54//1 93//1
f 54//2 3//2 94//2
f 94//1 32//1 93//1
f 54//1 94//1 93//1
f 32//1 96//1 95//1
f 96//2 13//2 97//2
f 97//2 31//2 95//2
f 96//2 97//2 95//2
f 20//1 93//1 92//1
f 93//1 32//1 95//1
f 95//2 31//2 92//2
f 93//1 95//1 92//1
f 13//1 99//1 98//1
f 99//1 34//1 100//1
f 100//1 33//1 98//1
f 99//1 100//1 98//1
f 34//2 102//2 101//2
f 102//1 6//1 103//1
f 103//1 35//1 101//1
f 102//1 103//1 101//1
f 35//1 105//1 104//1
f 105//1 12//1 106//1
f 106//2 33//2 104//2
f 105//1 106//1 104//1
f 34//2 101//2 100//2
f 101//1 35//1 104//1
f 104//2 33//2 100//2
f 101//2 104//2 100//2
f 9//1 91//1 87//1
f 91//1 31//1 107//1
f 107//1 30//1 87//1
f 91//1 107//1 87//1
f 31//1 97//1 108//1
f 97//1 13//1 98//1
f 98//1 33//1 108//1
f 97//1 98//1 108//1
f 33//2 106//2 109//2
f 106//1 12//1 89//1
f 89//1 30//1 109//1
f 106//2 89//2 109//2
f 31//1 108//1 107//1
f 108//1 33//1 109//1
f 109//1 30//1 107//1
f 108//1 109//1 107//1
f 6//1 111//1 110//1
f 111//2 37//2 112//2
f 112//2 36//2 110//2
f 111//2 112//2 110//2
f 37//2 114//2 113//2
f 114//2 15//2 115//2
f 115//1 38//1 113//1
f 114//1 115//1 113//1
f 38//1 117//1 116//1
f 117//1 14//1 118//1
f 118//1 36//1 116//1
f 117//1 118//1 116//1
f 37//1 113//1 112//1
f 113//2 38//2 116//2
f 116//1 36//1 112//1
f 113//1 116//1 112//1
f 15//2 120//2 119//2
f 120//2 40//2 121//2
f 121//1 39//1 119//1
f 120//1 121//1 119//1
f 40//1 123//1 122//1
f 123//2 2//2 46//2
f 46//1 16//1 122//1
f 123//1 46//1 122//1
f 16//2 47//2 124//2
f 47//2 7//2 125//2
f 125//1 39//1 124//1
f 47//1 125//1 124//1
f 40//1 122//1 121//1
f 122//1 16//1 124//1
f 124//1 39//1 121//1
f 122//2 124//2 121//2
f 7//1 49//1 126//1
f 49//2 17//2 127//2
f 127//1 41//1 126//1
f 49//2 127//2 126//2
f 17//1 48//1 128//1
f 48//1 4//1 129//1
f 129//1 42//1 128//1
f 48//1 129//1 128//1
f 42//1 131//1 130//1
f 131//2 14//2 132//2
f 132//1 41//1 130//1
f 131//1 132//1 130//1
f 17//1 128//1 127//1
f 128//1 42//1 130//1
f 130//1 41//1 127//1
f 128//1 130//1 127//1
f 15//2 119//2 115//2
f 119//2 39//2 133//2
f 133//2 38//2 115//2
f 119//1 133//1 115//1
f 39//1 125//1 134//1
f 125//2 7//2 126//2
f 126//1 41//1 134//1
f 125//2 126//2 134//2
f 41//1 132//1 135//1
f 132//2 14//2 117//2
f 117//2 38//2 135//2
f 132//1 117//1 135//1
f 39//2 134//2 133//2
f 134//1 41//1 135//1
f 135//1 38//1 133//1
f 134//1 135//1 133//1
f 5//1 84//1 70//1
f 84//2 29//2 136//2
f 136//2 26//2 70//2
f 84//1 136//1 70//1
f 29//1 90//1 137//1
f 90//1 12//1 138//1
f 138//2 43//2 137//2
f 90//1 138//1 137//1
f 43//1 140//1 139//1
f 140//1 11//1 72//1
f 72//1 26//1 139//1
f 140//2 72//2 139//2
f 29//1 137//1 136//1
f 137//2 43//2 139//2
f 139//2 26//2 136//2
f 137//2 139//2 136//2
f 12//2 105//2 141//2
f 105//1 35//1 142//1
f 142//2 44//2 141//2
f 105//1 142//1 141//1
f 35//1 103//1 143//1
f 103//2 6//2 110//2
f 110//2 36//2 143//2
f 103//1 110//1 143//1
f 36//1 118//1 144//1
f 118//1 14//1 145//1
f 145//1 44//1 144//1
f 118//1 145//1 144//1
f 35//1 143//1 142//1
f 143//2 36//2 144//2
f 144//2 44//2 142//2
f 143//1 144//1 142//1
f 14//2 131//2 146//2
f 131//1 42//1 147//1
f 147//2 45//2 146//2
f 131//2 147//2 146//2
f 42//1 129//1 148//1
f 129//1 4//1 78//1
f 78//1 28//1 148//1
f 129//1 78//1 148//1
f 28//1 75//1 149//1
f 75//2 11//2 150//2
f 150//1 45//1 149//1
f 75//2 150//2 149//2
f 42//1 148//1 147//1
f 148//1 28//1 149//1
f 149//1 45//1 147//1
f 148//1 149//1 147//1
f 12//1 141//1 138//1
f 141//1 44//1 151//1
f 151//2 43//2 138//2
f 141//2 151//2 138//2
f 44//1 145//1 152//1
f 145//2 14//2 146//2
f 146//1 45//1 152//1
f 145//1 146//1 152//1
f 45//2 150//2 153//2
f 150//1 11//1 140//1
f 140//1 43//1 153//1
f 150//1 140//1 153//1
f 44//1 152//1 151//1
f 152//1 45//1 153//1
f 153//1 43//1 151//1
f 152//1 153//1 151//1
