# Blender 3.6.1
# www.blender.org
o icosahedron_subdivide.003
v 0.000000 0.000000 2.000000
v 1.788854 0.000000 0.894427
v 0.552786 1.701302 0.894427
v 1.170820 0.850651 0.894427
v 0.276393 0.850651 1.447213
v 0.894427 0.000000 1.447214
v 0.861803 1.275977 0.894427
v 0.414589 1.275977 1.170820
v 0.723606 0.850651 1.170820
v 0.585410 0.425326 1.447214
v 0.138196 0.425326 1.723607
v 0.447214 0.000000 1.723607
v 1.032624 0.425326 1.170820
v 1.341640 0.000000 1.170820
v 1.479837 0.425326 0.894427
v 0.707294 1.488639 0.894427
v 0.483688 1.488639 1.032624
v 0.638196 1.275977 1.032624
v 0.569098 1.063314 1.170820
v 0.345491 1.063314 1.309017
v 0.500000 0.850651 1.309017
v 0.792705 1.063314 1.032624
v 0.947213 0.850651 1.032624
v 1.016312 1.063314 0.894427
v 0.430901 0.637988 1.447214
v 0.207295 0.637988 1.585410
v 0.361803 0.425326 1.585410
v 0.292705 0.212663 1.723607
v 0.069098 0.212663 1.861803
v 0.223607 0.000000 1.861803
v 0.516312 0.212663 1.585410
v 0.670820 0.000000 1.585410
v 0.739918 0.212663 1.447214
v 0.963525 0.212663 1.309017
v 1.118034 0.000000 1.309017
v 1.187132 0.212663 1.170820
v 1.410739 0.212663 1.032624
v 1.565247 0.000000 1.032624
v 1.634346 0.212663 0.894427
v 1.256230 0.425326 1.032624
v 1.325328 0.637988 0.894427
v 1.101722 0.637988 1.032624
v 0.654508 0.637988 1.309017
v 0.809017 0.425326 1.309017
v 0.878115 0.637988 1.170820
v 0.630040 1.594971 0.894427
v 0.518237 1.594971 0.963525
v 0.595491 1.488639 0.963525
v 0.560942 1.382308 1.032624
v 0.449139 1.382308 1.101722
v 0.526393 1.275977 1.101722
v 0.672745 1.382308 0.963525
v 0.750000 1.275977 0.963525
v 0.784549 1.382308 0.894427
v 0.491844 1.169645 1.170820
v 0.380040 1.169645 1.239918
v 0.457295 1.063314 1.239918
v 0.422745 0.956982 1.309017
v 0.310942 0.956982 1.378115
v 0.388196 0.850651 1.378115
v 0.534549 0.956982 1.239918
v 0.611803 0.850651 1.239918
v 0.646352 0.956982 1.170820
v 0.758156 0.956982 1.101722
v 0.835410 0.850651 1.101722
v 0.869959 0.956982 1.032624
v 0.981762 0.956982 0.963525
v 1.059017 0.850651 0.963525
v 1.093566 0.956982 0.894427
v 0.904508 1.063314 0.963525
v 0.939057 1.169645 0.894427
v 0.827254 1.169645 0.963525
v 0.603647 1.169645 1.101722
v 0.680901 1.063314 1.101722
v 0.715450 1.169645 1.032624
v 0.353647 0.744320 1.447214
v 0.241844 0.744320 1.516312
v 0.319098 0.637988 1.516312
v 0.284549 0.531657 1.585410
v 0.172746 0.531657 1.654508
v 0.250000 0.425326 1.654508
v 0.396352 0.531657 1.516312
v 0.473607 0.425326 1.516312
v 0.508156 0.531657 1.447214
v 0.215451 0.318994 1.723607
v 0.103647 0.318994 1.792705
v 0.180902 0.212663 1.792705
v 0.146352 0.106332 1.861803
v 0.034549 0.106332 1.930902
v 0.111803 0.000000 1.930902
v 0.258156 0.106332 1.792705
v 0.335410 0.000000 1.792705
v 0.369959 0.106332 1.723607
v 0.481763 0.106332 1.654508
v 0.559017 0.000000 1.654508
v 0.593566 0.106331 1.585410
v 0.705369 0.106331 1.516312
v 0.782624 0.000000 1.516312
v 0.817173 0.106331 1.447214
v 0.628115 0.212663 1.516312
v 0.662664 0.318994 1.447214
v 0.550861 0.318994 1.516312
v 0.327254 0.318994 1.654508
v 0.404508 0.212663 1.654508
v 0.439057 0.318994 1.585410
v 0.928976 0.106331 1.378115
v 1.006230 0.000000 1.378115
v 1.040780 0.106331 1.309017
v 1.152583 0.106331 1.239919
v 1.229837 0.000000 1.239919
v 1.264386 0.106331 1.170820
v 1.075329 0.212663 1.239919
v 1.109878 0.318994 1.170820
v 0.998074 0.318994 1.239919
v 1.376190 0.106331 1.101722
v 1.453444 0.000000 1.101722
v 1.487993 0.106331 1.032624
v 1.599796 0.106331 0.963525
v 1.677051 0.000000 0.963525
v 1.711600 0.106331 0.894427
v 1.522542 0.212663 0.963525
v 1.557091 0.318994 0.894427
v 1.445288 0.318994 0.963525
v 1.368034 0.425326 0.963525
v 1.402583 0.531657 0.894427
v 1.290779 0.531657 0.963525
v 1.213525 0.637988 0.963525
v 1.248074 0.744320 0.894427
v 1.136271 0.744320 0.963525
v 1.178976 0.531657 1.032624
v 1.067173 0.531657 1.101722
v 1.144427 0.425326 1.101722
v 1.298935 0.212663 1.101722
v 1.333484 0.318994 1.032624
v 1.221681 0.318994 1.101722
v 0.465451 0.744320 1.378115
v 0.542705 0.637988 1.378115
v 0.619959 0.531657 1.378115
v 0.577254 0.744320 1.309017
v 0.689057 0.744320 1.239919
v 0.697213 0.425326 1.378115
v 0.774468 0.318994 1.378115
v 0.851722 0.212663 1.378115
v 0.886271 0.318994 1.309017
v 0.920820 0.425326 1.239919
v 0.955369 0.531657 1.170820
v 0.989918 0.637988 1.101722
v 1.024467 0.744320 1.032624
v 0.912664 0.744320 1.101722
v 0.800861 0.744320 1.170820
v 0.731763 0.531657 1.309017
v 0.843566 0.531657 1.239919
v 0.766312 0.637988 1.239919
vn 0.4911 0.3568 0.7947
s 0
f 3//1 47//1 46//1
f 47//1 17//1 48//1
f 48//1 16//1 46//1
f 47//1 48//1 46//1
f 17//1 50//1 49//1
f 50//1 8//1 51//1
f 51//1 18//1 49//1
f 50//1 51//1 49//1
f 18//1 53//1 52//1
f 53//1 7//1 54//1
f 54//1 16//1 52//1
f 53//1 54//1 52//1
f 17//1 49//1 48//1
f 49//1 18//1 52//1
f 52//1 16//1 48//1
f 49//1 52//1 48//1
f 8//1 56//1 55//1
f 56//1 20//1 57//1
f 57//1 19//1 55//1
f 56//1 57//1 55//1
f 20//1 59//1 58//1
f 59//1 5//1 60//1
f 60//1 21//1 58//1
f 59//1 60//1 58//1
f 21//1 62//1 61//1
f 62//1 9//1 63//1
f 63//1 19//1 61//1
f 62//1 63//1 61//1
f 20//1 58//1 57//1
f 58//1 21//1 61//1
f 61//1 19//1 57//1
f 58//1 61//1 57//1
f 9//1 65//1 64//1
f 65//1 23//1 66//1
f 66//1 22//1 64//1
f 65//1 66//1 64//1
f 23//1 68//1 67//1
f 68//1 4//1 69//1
f 69//1 24//1 67//1
f 68//1 69//1 67//1
f 24//1 71//1 70//1
f 71//1 7//1 72//1
f 72//1 22//1 70//1
f 71//1 72//1 70//1
f 23//1 67//1 66//1
f 67//1 24//1 70//1
f 70//1 22//1 66//1
f 67//1 70//1 66//1
f 8//1 55//1 51//1
f 55//1 19//1 73//1
f 73//1 18//1 51//1
f 55//1 73//1 51//1
f 19//1 63//1 74//1
f 63//1 9//1 64//1
f 64//1 22//1 74//1
f 63//1 64//1 74//1
f 22//1 72//1 75//1
f 72//1 7//1 53//1
f 53//1 18//1 75//1
f 72//1 53//1 75//1
f 19//1 74//1 73//1
f 74//1 22//1 75//1
f 75//1 18//1 73//1
f 74//1 75//1 73//1
f 5//1 77//1 76//1
f 77//1 26//1 78//1
f 78//1 25//1 76//1
f 77//1 78//1 76//1
f 26//1 80//1 79//1
f 80//1 11//1 81//1
f 81//1 27//1 79//1
f 80//1 81//1 79//1
f 27//1 83//1 82//1
f 83//1 10//1 84//1
f 84//1 25//1 82//1
f 83//1 84//1 82//1
f 26//1 79//1 78//1
f 79//1 27//1 82//1
f 82//1 25//1 78//1
f 79//1 82//1 78//1
f 11//1 86//1 85//1
f 86//1 29//1 87//1
f 87//1 28//1 85//1
f 86//1 87//1 85//1
f 29//1 89//1 88//1
f 89//1 1//1 90//1
f 90//1 30//1 88//1
f 89//1 90//1 88//1
f 30//1 92//1 91//1
f 92//1 12//1 93//1
f 93//1 28//1 91//1
f 92//1 93//1 91//1
f 29//1 88//1 87//1
f 88//1 30//1 91//1
f 91//1 28//1 87//1
f 88//1 91//1 87//1
f 12//1 95//1 94//1
f 95//1 32//1 96//1
f 96//1 31//1 94//1
f 95//1 96//1 94//1
f 32//1 98//1 97//1
f 98//1 6//1 99//1
f 99//1 33//1 97//1
f 98//1 99//1 97//1
f 33//1 101//1 100//1
f 101//1 10//1 102//1
f 102//1 31//1 100//1
f 101//1 102//1 100//1
f 32//1 97//1 96//1
f 97//1 33//1 100//1
f 100//1 31//1 96//1
f 97//1 100//1 96//1
f 11//1 85//1 81//1
f 85//1 28//1 103//1
f 103//1 27//1 81//1
f 85//1 103//1 81//1
f 28//1 93//1 104//1
f 93//1 12//1 94//1
f 94//1 31//1 104//1
f 93//1 94//1 104//1
f 31//1 102//1 105//1
f 102//1 10//1 83//1
f 83//1 27//1 105//1
f 102//1 83//1 105//1
f 28//1 104//1 103//1
f 104//1 31//1 105//1
f 105//1 27//1 103//1
f 104//1 105//1 103//1
f 6//1 107//1 106//1
f 107//1 35//1 108//1
f 108//1 34//1 106//1
f 107//1 108//1 106//1
f 35//1 110//1 109//1
f 110//1 14//1 111//1
f 111//1 36//1 109//1
f 110//1 111//1 109//1
f 36//1 113//1 112//1
f 113//1 13//1 114//1
f 114//1 34//1 112//1
f 113//1 114//1 112//1
f 35//1 109//1 108//1
f 109//1 36//1 112//1
f 112//1 34//1 108//1
f 109//1 112//1 108//1
f 14//1 116//1 115//1
f 116//1 38//1 117//1
f 117//1 37//1 115//1
f 116//1 117//1 115//1
f 38//1 119//1 118//1
f 119//1 2//1 120//1
f 120//1 39//1 118//1
f 119//1 120//1 118//1
f 39//1 122//1 121//1
f 122//1 15//1 123//1
f 123//1 37//1 121//1
f 122//1 123//1 121//1
f 38//1 118//1 117//1
f 118//1 39//1 121//1
f 121//1 37//1 117//1
f 118//1 121//1 117//1
f 15//1 125//1 124//1
f 125//1 41//1 126//1
f 126//1 40//1 124//1
f 125//1 126//1 124//1
f 41//1 128//1 127//1
f 128//1 4//1 129//1
f 129//1 42//1 127//1
f 128//1 129//1 127//1
f 42//1 131//1 130//1
f 131//1 13//1 132//1
f 132//1 40//1 130//1
f 131//1 132//1 130//1
f 41//1 127//1 126//1
f 127//1 42//1 130//1
f 130//1 40//1 126//1
f 127//1 130//1 126//1
f 14//1 115//1 111//1
f 115//1 37//1 133//1
f 133//1 36//1 111//1
f 115//1 133//1 111//1
f 37//1 123//1 134//1
f 123//1 15//1 124//1
f 124//1 40//1 134//1
f 123//1 124//1 134//1
f 40//1 132//1 135//1
f 132//1 13//1 113//1
f 113//1 36//1 135//1
f 132//1 113//1 135//1
f 37//1 134//1 133//1
f 134//1 40//1 135//1
f 135//1 36//1 133//1
f 134//1 135//1 133//1
f 5//1 76//1 60//1
f 76//1 25//1 136//1
f 136//1 21//1 60//1
f 76//1 136//1 60//1
f 25//1 84//1 137//1
f 84//1 10//1 138//1
f 138//1 43//1 137//1
f 84//1 138//1 137//1
f 43//1 140//1 139//1
f 140//1 9//1 62//1
f 62//1 21//1 139//1
f 140//1 62//1 139//1
f 25//1 137//1 136//1
f 137//1 43//1 139//1
f 139//1 21//1 136//1
f 137//1 139//1 136//1
f 10//1 101//1 141//1
f 101//1 33//1 142//1
f 142//1 44//1 141//1
f 101//1 142//1 141//1
f 33//1 99//1 143//1
f 99//1 6//1 106//1
f 106//1 34//1 143//1
f 99//1 106//1 143//1
f 34//1 114//1 144//1
f 114//1 13//1 145//1
f 145//1 44//1 144//1
f 114//1 145//1 144//1
f 33//1 143//1 142//1
f 143//1 34//1 144//1
f 144//1 44//1 142//1
f 143//1 144//1 142//1
f 13//1 131//1 146//1
f 131//1 42//1 147//1
f 147//1 45//1 146//1
f 131//1 147//1 146//1
f 42//1 129//1 148//1
f 129//1 4//1 68//1
f 68//1 23//1 148//1
f 129//1 68//1 148//1
f 23//1 65//1 149//1
f 65//1 9//1 150//1
f 150//1 45//1 149//1
f 65//1 150//1 149//1
f 42//1 148//1 147//1
f 148//1 23//1 149//1
f 149//1 45//1 147//1
f 148//1 149//1 147//1
f 10//1 141//1 138//1
f 141//1 44//1 151//1
f 151//1 43//1 138//1
f 141//1 151//1 138//1
f 44//1 145//1 152//1
f 145//1 13//1 146//1
f 146//1 45//1 152//1
f 145//1 146//1 152//1
f 45//1 150//1 153//1
f 150//1 9//1 140//1
f 140//1 43//1 153//1
f 150//1 140//1 153//1
f 44//1 152//1 151//1
f 152//1 45//1 153//1
f 153//1 43//1 151//1
f 152//1 153//1 151//1
