####
#
# OBJ File Generated by Meshlab
#
####
# Object head_part12_seg_01.obj
#
# Vertices: 169
# Faces: 171
#
####
vn 0.883410 0.539746 -4.175427
v -0.154616 2.034363 0.223442
vn -2.726869 -0.965897 -4.529406
v -0.184807 2.007498 0.235467
vn 0.907557 -2.410253 -5.001287
v -0.149578 1.983806 0.240567
vn 3.680104 -0.571122 -4.044441
v -0.120530 1.995602 0.251115
vn -1.063336 1.305583 -2.590814
v -0.164374 2.058064 0.234119
vn 2.170347 0.381738 -2.245632
v -0.134866 2.038504 0.244235
vn -2.663857 0.870740 -2.632540
v -0.195869 2.040165 0.252359
vn -0.590630 0.449516 -0.578735
v -0.182595 2.079274 0.269188
vn -2.889843 -2.634511 -4.241558
v -0.203270 1.945754 0.280570
vn 0.000000 0.000000 0.000000
v -0.146019 2.079513 0.265959
vn 1.862958 -3.695959 -4.324121
v -0.129888 1.934977 0.282401
vn 4.115132 -2.031901 -3.828862
v -0.104261 1.952067 0.289069
vn 2.514257 -0.041133 -1.463881
v -0.096427 1.997091 0.295742
vn 0.000000 0.000000 0.000000
v -0.205688 2.047202 0.298110
vn -2.395627 -0.430763 -1.784439
v -0.219451 1.998178 0.285542
vn -0.178262 -4.367753 -4.274920
v -0.166059 1.912843 0.299186
vn -1.010553 -4.285024 -4.248606
v -0.216992 1.863749 0.361841
vn 0.000000 0.000000 0.000000
v -0.187847 2.078063 0.300850
vn 0.484233 -4.951526 -3.824931
v -0.164212 1.856869 0.372614
vn 0.000000 0.000000 0.000000
v -0.159640 2.082015 0.301549
vn 0.000000 0.000000 0.000000
v -0.125448 2.050392 0.314935
vn -2.309279 -1.422196 -2.505960
v -0.246240 1.919244 0.341779
vn 0.000000 0.000000 0.000000
v -0.231866 1.986268 0.364855
vn 2.002693 -4.284655 -3.910482
v -0.113583 1.893751 0.335660
vn 1.761009 -1.594796 -2.076413
v -0.054908 1.911550 0.367344
vn -3.140724 -2.188093 -3.759519
v -0.265560 1.863624 0.376955
vn -2.507352 0.126256 -1.324759
v -0.275500 1.902920 0.396145
vn 2.022166 -4.204206 -4.010696
v -0.077245 1.852919 0.398041
vn 0.000000 0.000000 0.000000
v -0.128539 2.031170 0.375348
vn 0.000000 0.000000 0.000000
v -0.050934 1.954081 0.378292
vn -0.625507 -4.979627 -3.779186
v -0.224664 1.829286 0.408069
vn -2.483117 -4.204390 -3.311917
v -0.266356 1.825580 0.420444
vn 0.000000 0.000000 0.000000
v -0.112488 1.997240 0.434570
vn 0.000000 0.000000 0.000000
v -0.178075 2.047450 0.343391
vn 0.000000 0.000000 0.000000
v -0.084386 2.000205 0.372609
vn 0.000409 -5.186835 -3.433165
v -0.202063 1.808205 0.432435
vn -4.609884 -1.784950 -2.532266
v -0.285322 1.854603 0.406923
vn 0.000000 0.000000 0.000000
v -0.241246 1.943705 0.477650
vn 0.670471 -5.202127 -3.403953
v -0.132364 1.812717 0.435992
vn 0.000000 0.000000 0.000000
v -0.181247 1.994240 0.435809
vn 1.181436 -5.135392 -3.288389
v -0.078872 1.807806 0.455126
vn 1.397084 -1.734150 -1.822917
v -0.030111 1.856444 0.427788
vn 0.000000 0.000000 0.000000
v -0.029457 1.907934 0.417142
vn 2.281737 -4.396811 -3.680115
v -0.056818 1.832140 0.431549
vn 0.020818 -5.550879 -2.917336
v -0.223170 1.773644 0.494480
vn -2.851247 -0.715833 -1.643354
v -0.304800 1.860593 0.456739
vn 0.485142 -5.673894 -2.596300
v -0.189947 1.757500 0.528915
vn 0.000000 0.000000 0.000000
v -0.262428 1.936690 0.436300
vn -4.122328 -2.518601 -3.451648
v -0.309523 1.813045 0.478884
vn 0.000000 0.000000 0.000000
v -0.062990 1.939722 0.455093
vn 0.000000 0.000000 0.000000
v -0.016683 1.854654 0.474493
vn 1.179275 -2.396279 -1.361145
v -0.030943 1.809644 0.481830
vn -1.332061 -5.012370 -3.270966
v -0.267910 1.778298 0.489265
vn 1.063654 -5.754414 -2.047287
v -0.112135 1.767992 0.525603
vn -3.783177 -2.766096 -3.446256
v -0.337021 1.779828 0.533161
vn 0.618782 -5.594980 -2.783754
v -0.148863 1.774554 0.504710
vn -2.664906 -0.441337 -1.633222
v -0.337273 1.837515 0.518500
vn 0.000000 0.000000 0.000000
v -0.131308 1.952006 0.492954
vn 0.000000 0.000000 0.000000
v -0.293968 1.900333 0.510621
vn 0.000000 0.000000 0.000000
v -0.091475 1.906817 0.525472
vn 1.554110 -5.420991 -2.152453
v -0.068330 1.785309 0.497364
vn 0.000000 0.000000 0.000000
v -0.016986 1.817997 0.510409
vn 0.000000 0.000000 0.000000
v -0.191097 1.937408 0.512666
vn 1.055992 -2.659069 -0.480326
v -0.046798 1.785312 0.537797
vn 0.000000 0.000000 0.000000
v -0.040486 1.848189 0.531461
vn -1.110157 -5.216751 -3.005063
v -0.290489 1.751864 0.539450
vn 0.004098 -5.669992 -2.703463
v -0.237939 1.753581 0.536261
vn 0.000000 0.000000 0.000000
v -0.252998 1.917638 0.538478
vn -0.616226 -5.815529 -2.297420
v -0.297437 1.742051 0.566083
vn 1.105398 -5.816632 -2.046039
v -0.152774 1.749852 0.560783
vn 0.000000 0.000000 0.000000
v -0.103142 1.886603 0.556488
vn -1.944584 -4.895261 -3.153058
v -0.331086 1.740537 0.579012
vn 0.000000 0.000000 0.000000
v -0.065680 1.800988 0.578312
vn 0.000000 0.000000 0.000000
v -0.352723 1.850623 0.579012
vn 0.000000 0.000000 0.000000
v -0.216854 1.903395 0.568251
vn 0.531491 -5.769992 -2.367235
v -0.277605 1.708532 0.643969
vn 2.612608 -5.555033 -0.298932
v -0.096833 1.760314 0.580058
vn 0.000000 0.000000 0.000000
v -0.268660 1.888104 0.596857
vn 0.081134 -5.780771 -2.413064
v -0.263422 1.730097 0.587322
vn 2.444020 -5.611403 -1.289311
v -0.130984 1.741815 0.612549
vn 0.000000 0.000000 0.000000
v -0.102888 1.790615 0.637202
vn -3.890301 -2.563669 -3.739415
v -0.381928 1.753838 0.608798
vn -2.533825 -3.526815 -4.208230
v -0.396633 1.716367 0.649168
vn 0.000000 0.000000 0.000000
v -0.353487 1.865691 0.644120
vn 0.000000 0.000000 0.000000
v -0.139791 1.895457 0.559340
vn 0.000000 0.000000 0.000000
v -0.320951 1.876287 0.601147
vn 0.000000 0.000000 0.000000
v -0.378384 1.846837 0.641007
vn 1.720069 -2.669302 0.053101
v -0.091172 1.767923 0.606421
vn 0.160386 -5.619847 -2.596087
v -0.235331 1.717172 0.632730
vn 0.000000 0.000000 0.000000
v -0.358783 1.856687 0.678015
vn -3.338575 -1.420023 4.140388
v -0.320849 1.697526 0.667492
vn -0.224627 -5.121639 -3.175649
v -0.266568 1.697113 0.673553
vn 0.000000 0.000000 0.000000
v -0.111497 1.759671 0.681670
vn -0.334201 -5.193377 -3.496812
v -0.234278 1.697816 0.661692
vn 1.172730 -5.446282 -2.734572
v -0.180512 1.717691 0.631300
vn 0.000000 0.000000 0.000000
v -0.107569 1.849350 0.591951
vn 0.883337 -4.706579 -3.454870
v -0.299881 1.688611 0.681341
vn 0.714471 -4.943068 -3.740935
v -0.185710 1.668113 0.700900
vn 0.000000 0.000000 0.000000
v -0.393832 1.853381 0.683782
vn -0.709499 -5.127581 -3.248856
v -0.339173 1.696707 0.652435
vn 0.000000 0.000000 0.000000
v -0.149275 1.777692 0.694133
vn -2.669559 -0.233056 -1.867323
v -0.393325 1.801759 0.615187
vn 0.000000 0.000000 0.000000
v -0.416019 1.830806 0.686207
vn 0.000000 0.000000 0.000000
v -0.228413 1.856043 0.638173
vn -3.270674 -3.154493 -3.581226
v -0.427509 1.694797 0.685501
vn 1.420711 -2.385176 -1.280114
v -0.110879 1.739755 0.661324
vn -1.039525 -4.863791 -3.763890
v -0.372338 1.671409 0.690965
vn 0.000000 0.000000 0.000000
v -0.304413 1.857376 0.655698
vn 0.170689 -4.859800 -3.962655
v -0.242685 1.656570 0.714917
vn -2.839710 -4.546574 -2.306432
v -0.421864 1.660428 0.725347
vn 0.000000 0.000000 0.000000
v -0.410084 1.827353 0.738161
vn 1.562076 -2.358831 -2.089572
v -0.120910 1.683202 0.712255
vn 0.000000 0.000000 0.000000
v -0.114312 1.727565 0.724901
vn -4.873907 -0.631534 -3.456312
v -0.431379 1.746171 0.666396
vn 1.725629 -4.513416 -3.758954
v -0.144164 1.651432 0.731034
vn 0.406777 -4.685073 -4.107691
v -0.306022 1.652694 0.711318
vn 0.000000 0.000000 0.000000
v -0.202411 1.806403 0.689172
vn -1.238123 -5.106355 -3.409057
v -0.360440 1.646142 0.723612
vn 0.000000 0.000000 0.000000
v -0.304870 1.813229 0.727783
vn -4.807829 -2.386877 -2.057792
v -0.460533 1.698584 0.731304
vn 0.000000 0.000000 0.000000
v -0.373566 1.846726 0.708357
vn -1.794670 -5.436736 -2.358227
v -0.377069 1.633348 0.751747
vn -0.550727 -5.276552 -3.112990
v -0.327478 1.623216 0.748292
vn 0.142594 -5.323798 -3.224979
v -0.274741 1.609767 0.771109
vn -4.977006 -1.123289 -0.271627
v -0.479687 1.714752 0.765622
vn -2.482588 0.177147 -0.989174
v -0.465017 1.775846 0.736683
vn -0.331604 -5.727804 -2.554605
v -0.300637 1.604701 0.784739
vn 0.000000 0.000000 0.000000
v -0.128554 1.697089 0.780361
vn 3.485391 -3.427230 -2.231980
v -0.126092 1.623152 0.780053
vn 0.477978 -5.116813 -3.611123
v -0.231951 1.613002 0.773480
vn 0.589734 -5.142262 -3.543335
v -0.183486 1.619855 0.768724
vn -4.327469 -3.045012 1.782677
v -0.452845 1.679824 0.795045
vn -3.515450 -4.838743 -0.295702
v -0.416279 1.643424 0.777902
vn 0.000000 0.000000 0.000000
v -0.204562 1.735238 0.776136
vn -1.546270 -5.675955 -1.416348
v -0.307993 1.589898 0.819574
vn 0.620181 -5.479625 -2.428107
v -0.166879 1.568007 0.849020
vn 2.344979 -0.671305 -0.407214
v -0.114131 1.650931 0.803139
vn 0.000000 0.000000 0.000000
v -0.448070 1.751834 0.816658
vn 0.000000 0.000000 0.000000
v -0.455749 1.781494 0.789903
vn 0.000000 0.000000 0.000000
v -0.336041 1.758120 0.805310
vn 0.000000 0.000000 0.000000
v -0.275940 1.765487 0.776229
vn 0.000000 0.000000 0.000000
v -0.346836 1.784263 0.784774
vn 0.000000 0.000000 0.000000
v -0.167752 1.673789 0.820780
vn -2.743507 -0.306967 1.083259
v -0.473204 1.732997 0.795644
vn -2.788339 -5.198262 0.057552
v -0.373547 1.615133 0.808474
vn 0.000000 0.000000 0.000000
v -0.400077 1.777521 0.806996
vn 0.000000 0.000000 0.000000
v -0.330401 1.694331 0.855368
vn -0.054740 -5.568122 -2.785604
v -0.225487 1.585324 0.816449
vn 0.000000 0.000000 0.000000
v -0.380089 1.725258 0.842707
vn -2.022379 -2.853375 1.083487
v -0.367887 1.622276 0.846829
vn -0.304225 -3.594524 -0.596989
v -0.238396 1.566119 0.873748
vn -1.303365 -4.115676 1.693968
v -0.282041 1.571386 0.871232
vn 0.000000 0.000000 0.000000
v -0.233233 1.643376 0.872850
vn -3.241483 -4.642315 1.625692
v -0.307832 1.586799 0.861214
vn 1.453580 -2.316072 -1.330203
v -0.124780 1.589003 0.844938
vn -1.639003 -0.818864 1.645409
v -0.416657 1.698946 0.840608
vn 0.000000 0.000000 0.000000
v -0.125555 1.604162 0.855690
vn 0.000000 0.000000 0.000000
v -0.276097 1.705294 0.834197
vn 0.000000 0.000000 0.000000
v -0.303549 1.652140 0.877268
vn 0.225508 -3.045979 -0.828370
v -0.142653 1.559000 0.878706
vn 0.000000 0.000000 0.000000
v -0.347873 1.643215 0.876613
vn 0.000000 0.000000 0.000000
v -0.126557 1.575205 0.882714
vn 0.000000 0.000000 0.000000
v -0.153076 1.622437 0.863438
vn 0.000000 0.000000 0.000000
v -0.366017 1.684382 0.863583
vn -0.016559 -1.744817 0.034607
v -0.148765 1.559526 0.902269
vn 0.000000 0.000000 0.000000
v -0.230232 1.589129 0.900695
vn -1.104918 -1.425685 1.677366
v -0.296609 1.601716 0.886012
vn -0.141468 -2.714347 -0.405007
v -0.187359 1.559831 0.899194
vn 0.000000 0.000000 0.000000
v -0.172637 1.586089 0.900331
# 169 vertices, 0 vertices normals

f 22//22 17//17 26//26
f 25//25 28//28 24//24
f 31//31 36//36 32//32
f 115//115 98//98 112//112
f 130//130 109//109 131//131
f 26//26 17//17 32//32
f 24//24 39//39 19//19
f 39//39 24//24 28//28
f 124//124 135//135 127//127
f 53//53 45//45 67//67
f 64//64 61//61 52//52
f 22//22 9//9 17//17
f 17//17 16//16 19//19
f 17//17 9//9 16//16
f 24//24 19//19 16//16
f 24//24 16//16 11//11
f 24//24 11//11 12//12
f 39//39 36//36 19//19
f 16//16 3//3 11//11
f 9//9 2//2 3//3
f 3//3 16//16 9//9
f 12//12 11//11 3//3
f 27//27 26//26 37//37
f 122//122 118//118 123//123
f 67//67 45//45 47//47
f 70//70 47//47 56//56
f 54//54 70//70 56//56
f 54//54 61//61 64//64
f 97//97 91//91 100//100
f 92//92 109//109 97//97
f 92//92 94//94 109//109
f 46//46 32//32 49//49
f 37//37 32//32 46//46
f 49//49 32//32 53//53
f 83//83 82//82 100//100
f 100//100 82//82 72//72
f 72//72 79//79 100//100
f 100//100 79//79 76//76
f 114//114 82//82 83//83
f 105//105 83//83 107//107
f 105//105 114//114 83//83
f 107//107 83//83 100//100
f 100//100 76//76 97//97
f 97//97 91//91 100//100
f 92//92 97//97 76//76
f 92//92 76//76 94//94
f 76//76 89//89 94//94
f 82//82 114//114 102//102
f 148//148 135//135 124//124
f 155//155 136//136 129//129
f 145//145 135//135 150//150
f 109//109 98//98 131//131
f 129//129 131//131 115//115
f 131//131 98//98 115//115
f 129//129 115//115 112//112
f 129//129 112//112 137//137
f 122//122 123//123 135//135
f 135//135 123//123 127//127
f 127//127 123//123 124//124
f 151//151 135//135 148//148
f 151//151 152//152 135//135
f 151//151 148//148 136//136
f 155//155 160//160 136//136
f 31//31 32//32 17//17
f 31//31 17//17 36//36
f 17//17 19//19 36//36
f 41//41 39//39 28//28
f 44//44 41//41 28//28
f 28//28 42//42 44//44
f 109//109 94//94 98//98
f 112//112 98//98 95//95
f 106//106 112//112 95//95
f 82//82 55//55 72//72
f 102//102 55//55 82//82
f 79//79 72//72 69//69
f 110//110 120//120 105//105
f 105//105 120//120 114//114
f 126//126 114//114 120//120
f 110//110 105//105 107//107
f 107//107 122//122 110//110
f 118//118 122//122 107//107
f 118//118 107//107 123//123
f 116//116 107//107 100//100
f 123//123 107//107 116//116
f 97//97 116//116 100//100
f 116//116 97//97 109//109
f 133//133 145//145 150//150
f 53//53 36//36 45//45
f 32//32 36//36 53//53
f 36//36 39//39 47//47
f 47//47 45//45 36//36
f 47//47 39//39 56//56
f 56//56 39//39 54//54
f 61//61 54//54 41//41
f 54//54 39//39 41//41
f 61//61 41//41 52//52
f 52//52 44//44 42//42
f 52//52 41//41 44//44
f 66//66 55//55 53//53
f 79//79 67//67 47//47
f 77//77 54//54 64//64
f 168//168 151//151 136//136
f 168//168 136//136 160//160
f 89//89 76//76 79//79
f 95//95 89//89 79//79
f 95//95 79//79 47//47
f 95//95 47//47 70//70
f 80//80 95//95 70//70
f 70//70 54//54 80//80
f 80//80 77//77 88//88
f 54//54 77//77 80//80
f 66//66 53//53 67//67
f 57//57 49//49 55//55
f 55//55 49//49 53//53
f 72//72 66//66 69//69
f 55//55 66//66 72//72
f 148//148 124//124 130//130
f 148//148 130//130 131//131
f 136//136 148//148 131//131
f 129//129 136//136 131//131
f 37//37 26//26 32//32
f 69//69 66//66 79//79
f 66//66 67//67 79//79
f 89//89 95//95 94//94
f 95//95 98//98 94//94
f 95//95 80//80 106//106
f 123//123 116//116 124//124
f 124//124 116//116 109//109
f 124//124 109//109 130//130
f 120//120 110//110 133//133
f 133//133 132//132 120//120
f 110//110 122//122 133//133
f 145//145 122//122 135//135
f 133//133 122//122 145//145
f 3//3 2//2 1//1
f 3//3 6//6 4//4
f 4//4 6//6 13//13
f 22//22 15//15 9//9
f 25//25 24//24 12//12
f 25//25 12//12 13//13
f 9//9 15//15 2//2
f 15//15 7//7 2//2
f 3//3 4//4 12//12
f 13//13 12//12 4//4
f 156//156 144//144 132//132
f 150//150 132//132 133//133
f 150//150 156//156 132//132
f 46//46 27//27 37//37
f 152//152 154//154 135//135
f 150//150 135//135 154//154
f 125//125 132//132 144//144
f 126//126 125//125 144//144
f 25//25 42//42 28//28
f 152//152 151//151 167//167
f 5//5 1//1 2//2
f 6//6 3//3 1//1
f 49//49 57//57 46//46
f 102//102 114//114 126//126
f 77//77 64//64 88//88
f 165//165 168//168 160//160
f 5//5 2//2 7//7
f 8//8 5//5 7//7
f 6//6 1//1 5//5
f 155//155 129//129 137//137
f 154//154 152//152 167//167
f 167//167 150//150 154//154
f 27//27 22//22 26//26
f 106//106 80//80 88//88
f 125//125 120//120 132//132
f 125//125 126//126 120//120
f 57//57 55//55 102//102
# 171 faces, 0 coords texture

# End of File
