# Blender 3.6.1
# www.blender.org
o cube_subdivide.001
v 1.000000 0.000000 0.000000
v 1.000000 1.000000 -0.000000
v 1.000000 0.000000 1.000000
v 1.000000 1.000000 1.000000
v 1.000000 0.500000 -0.000000
v 1.000000 0.500000 1.000000
v 1.000000 0.500000 0.500000
v 1.000000 0.000000 0.500000
v 1.000000 1.000000 0.500000
v 1.000000 0.750000 -0.000000
v 1.000000 0.250000 -0.000000
v 1.000000 0.250000 1.000000
v 1.000000 0.750000 1.000000
v 1.000000 0.250000 0.750000
v 1.000000 0.000000 0.750000
v 1.000000 0.250000 0.500000
v 1.000000 0.250000 0.250000
v 1.000000 0.000000 0.250000
v 1.000000 0.500000 0.250000
v 1.000000 0.750000 0.250000
v 1.000000 0.500000 0.750000
v 1.000000 0.750000 0.500000
v 1.000000 1.000000 0.250000
v 1.000000 0.750000 0.750000
v 1.000000 1.000000 0.750000
v 1.000000 0.875000 -0.000000
v 1.000000 0.625000 -0.000000
v 1.000000 0.375000 -0.000000
v 1.000000 0.125000 -0.000000
v 1.000000 0.125000 1.000000
v 1.000000 0.375000 1.000000
v 1.000000 0.625000 1.000000
v 1.000000 0.875000 1.000000
v 1.000000 0.125000 0.875000
v 1.000000 0.000000 0.875000
v 1.000000 0.125000 0.750000
v 1.000000 0.125000 0.625000
v 1.000000 0.000000 0.625000
v 1.000000 0.125000 0.500000
v 1.000000 0.250000 0.625000
v 1.000000 0.375000 0.500000
v 1.000000 0.375000 0.625000
v 1.000000 0.125000 0.375000
v 1.000000 0.000000 0.375000
v 1.000000 0.125000 0.250000
v 1.000000 0.125000 0.125000
v 1.000000 0.000000 0.125000
v 1.000000 0.250000 0.125000
v 1.000000 0.375000 0.125000
v 1.000000 0.500000 0.125000
v 1.000000 0.625000 0.125000
v 1.000000 0.750000 0.125000
v 1.000000 0.875000 0.125000
v 1.000000 0.625000 0.250000
v 1.000000 0.625000 0.375000
v 1.000000 0.500000 0.375000
v 1.000000 0.250000 0.375000
v 1.000000 0.375000 0.250000
v 1.000000 0.375000 0.375000
v 1.000000 0.250000 0.875000
v 1.000000 0.375000 0.750000
v 1.000000 0.500000 0.625000
v 1.000000 0.375000 0.875000
v 1.000000 0.500000 0.875000
v 1.000000 0.625000 0.500000
v 1.000000 0.750000 0.375000
v 1.000000 0.875000 0.250000
v 1.000000 1.000000 0.125000
v 1.000000 0.875000 0.375000
v 1.000000 1.000000 0.375000
v 1.000000 0.875000 0.500000
v 1.000000 0.875000 0.625000
v 1.000000 1.000000 0.625000
v 1.000000 0.875000 0.750000
v 1.000000 0.875000 0.875000
v 1.000000 1.000000 0.875000
v 1.000000 0.750000 0.875000
v 1.000000 0.625000 0.875000
v 1.000000 0.625000 0.625000
v 1.000000 0.750000 0.625000
v 1.000000 0.625000 0.750000
v 1.000000 0.937500 -0.000000
v 1.000000 0.812500 -0.000000
v 1.000000 0.687500 -0.000000
v 1.000000 0.562500 -0.000000
v 1.000000 0.437500 -0.000000
v 1.000000 0.312500 -0.000000
v 1.000000 0.187500 -0.000000
v 1.000000 0.062500 -0.000000
v 1.000000 0.062500 1.000000
v 1.000000 0.187500 1.000000
v 1.000000 0.312500 1.000000
v 1.000000 0.437500 1.000000
v 1.000000 0.562500 1.000000
v 1.000000 0.687500 1.000000
v 1.000000 0.812500 1.000000
v 1.000000 0.937500 1.000000
v 1.000000 0.062500 0.937500
v 1.000000 0.000000 0.937500
v 1.000000 0.062500 0.875000
v 1.000000 0.062500 0.812500
v 1.000000 0.000000 0.812500
v 1.000000 0.062500 0.750000
v 1.000000 0.125000 0.812500
v 1.000000 0.187500 0.750000
v 1.000000 0.187500 0.812500
v 1.000000 0.062500 0.687500
v 1.000000 0.000000 0.687500
v 1.000000 0.062500 0.625000
v 1.000000 0.062500 0.562500
v 1.000000 0.000000 0.562500
v 1.000000 0.062500 0.500000
v 1.000000 0.125000 0.562500
v 1.000000 0.187500 0.500000
v 1.000000 0.187500 0.562500
v 1.000000 0.250000 0.562500
v 1.000000 0.312500 0.500000
v 1.000000 0.312500 0.562500
v 1.000000 0.375000 0.562500
v 1.000000 0.437500 0.500000
v 1.000000 0.437500 0.562500
v 1.000000 0.312500 0.625000
v 1.000000 0.312500 0.687500
v 1.000000 0.250000 0.687500
v 1.000000 0.125000 0.687500
v 1.000000 0.187500 0.625000
v 1.000000 0.187500 0.687500
v 1.000000 0.062500 0.437500
v 1.000000 0.000000 0.437500
v 1.000000 0.062500 0.375000
v 1.000000 0.062500 0.312500
v 1.000000 0.000000 0.312500
v 1.000000 0.062500 0.250000
v 1.000000 0.125000 0.312500
v 1.000000 0.187500 0.250000
v 1.000000 0.187500 0.312500
v 1.000000 0.062500 0.187500
v 1.000000 0.000000 0.187500
v 1.000000 0.062500 0.125000
v 1.000000 0.062500 0.062500
v 1.000000 0.000000 0.062500
v 1.000000 0.125000 0.062500
v 1.000000 0.187500 0.062500
v 1.000000 0.250000 0.062500
v 1.000000 0.312500 0.062500
v 1.000000 0.375000 0.062500
v 1.000000 0.437500 0.062500
v 1.000000 0.312500 0.125000
v 1.000000 0.312500 0.187500
v 1.000000 0.250000 0.187500
v 1.000000 0.125000 0.187500
v 1.000000 0.187500 0.125000
v 1.000000 0.187500 0.187500
v 1.000000 0.500000 0.062500
v 1.000000 0.562500 0.062500
v 1.000000 0.625000 0.062500
v 1.000000 0.687500 0.062500
v 1.000000 0.562500 0.125000
v 1.000000 0.562500 0.187500
v 1.000000 0.500000 0.187500
v 1.000000 0.750000 0.062500
v 1.000000 0.812500 0.062500
v 1.000000 0.875000 0.062500
v 1.000000 0.937500 0.062500
v 1.000000 0.812500 0.125000
v 1.000000 0.812500 0.187500
v 1.000000 0.750000 0.187500
v 1.000000 0.687500 0.250000
v 1.000000 0.687500 0.312500
v 1.000000 0.625000 0.312500
v 1.000000 0.562500 0.375000
v 1.000000 0.562500 0.437500
v 1.000000 0.500000 0.437500
v 1.000000 0.562500 0.312500
v 1.000000 0.500000 0.312500
v 1.000000 0.562500 0.250000
v 1.000000 0.687500 0.125000
v 1.000000 0.687500 0.187500
v 1.000000 0.625000 0.187500
v 1.000000 0.125000 0.437500
v 1.000000 0.187500 0.375000
v 1.000000 0.250000 0.312500
v 1.000000 0.187500 0.437500
v 1.000000 0.250000 0.437500
v 1.000000 0.312500 0.250000
v 1.000000 0.375000 0.187500
v 1.000000 0.437500 0.125000
v 1.000000 0.437500 0.187500
v 1.000000 0.437500 0.250000
v 1.000000 0.437500 0.312500
v 1.000000 0.437500 0.375000
v 1.000000 0.437500 0.437500
v 1.000000 0.375000 0.437500
v 1.000000 0.312500 0.437500
v 1.000000 0.312500 0.312500
v 1.000000 0.375000 0.312500
v 1.000000 0.312500 0.375000
v 1.000000 0.125000 0.937500
v 1.000000 0.187500 0.875000
v 1.000000 0.250000 0.812500
v 1.000000 0.187500 0.937500
v 1.000000 0.250000 0.937500
v 1.000000 0.312500 0.750000
v 1.000000 0.375000 0.687500
v 1.000000 0.437500 0.625000
v 1.000000 0.500000 0.562500
v 1.000000 0.437500 0.687500
v 1.000000 0.500000 0.687500
v 1.000000 0.437500 0.750000
v 1.000000 0.437500 0.812500
v 1.000000 0.500000 0.812500
v 1.000000 0.437500 0.875000
v 1.000000 0.437500 0.937500
v 1.000000 0.500000 0.937500
v 1.000000 0.375000 0.937500
v 1.000000 0.312500 0.937500
v 1.000000 0.312500 0.812500
v 1.000000 0.375000 0.812500
v 1.000000 0.312500 0.875000
v 1.000000 0.562500 0.500000
v 1.000000 0.625000 0.437500
v 1.000000 0.687500 0.375000
v 1.000000 0.750000 0.312500
v 1.000000 0.687500 0.437500
v 1.000000 0.750000 0.437500
v 1.000000 0.687500 0.500000
v 1.000000 0.812500 0.250000
v 1.000000 0.875000 0.187500
v 1.000000 0.937500 0.125000
v 1.000000 1.000000 0.062500
v 1.000000 0.937500 0.187500
v 1.000000 1.000000 0.187500
v 1.000000 0.937500 0.250000
v 1.000000 0.937500 0.312500
v 1.000000 1.000000 0.312500
v 1.000000 0.937500 0.375000
v 1.000000 0.937500 0.437500
v 1.000000 1.000000 0.437500
v 1.000000 0.937500 0.500000
v 1.000000 0.875000 0.437500
v 1.000000 0.812500 0.500000
v 1.000000 0.812500 0.437500
v 1.000000 0.812500 0.312500
v 1.000000 0.875000 0.312500
v 1.000000 0.812500 0.375000
v 1.000000 0.937500 0.562500
v 1.000000 1.000000 0.562500
v 1.000000 0.937500 0.625000
v 1.000000 0.937500 0.687500
v 1.000000 1.000000 0.687500
v 1.000000 0.937500 0.750000
v 1.000000 0.875000 0.687500
v 1.000000 0.812500 0.750000
v 1.000000 0.812500 0.687500
v 1.000000 0.937500 0.812500
v 1.000000 1.000000 0.812500
v 1.000000 0.937500 0.875000
v 1.000000 0.937500 0.937500
v 1.000000 1.000000 0.937500
v 1.000000 0.875000 0.937500
v 1.000000 0.812500 0.937500
v 1.000000 0.750000 0.937500
v 1.000000 0.687500 0.937500
v 1.000000 0.625000 0.937500
v 1.000000 0.562500 0.937500
v 1.000000 0.687500 0.875000
v 1.000000 0.687500 0.812500
v 1.000000 0.750000 0.812500
v 1.000000 0.875000 0.812500
v 1.000000 0.812500 0.875000
v 1.000000 0.812500 0.812500
v 1.000000 0.562500 0.562500
v 1.000000 0.625000 0.562500
v 1.000000 0.687500 0.562500
v 1.000000 0.562500 0.625000
v 1.000000 0.562500 0.687500
v 1.000000 0.750000 0.562500
v 1.000000 0.812500 0.562500
v 1.000000 0.875000 0.562500
v 1.000000 0.812500 0.625000
v 1.000000 0.750000 0.687500
v 1.000000 0.687500 0.750000
v 1.000000 0.625000 0.812500
v 1.000000 0.562500 0.875000
v 1.000000 0.562500 0.812500
v 1.000000 0.562500 0.750000
v 1.000000 0.687500 0.625000
v 1.000000 0.687500 0.687500
v 1.000000 0.625000 0.687500
vn 1.0000 -0.0000 -0.0000
s 0
f 3//1 99//1 98//1
f 99//1 35//1 100//1
f 100//1 34//1 98//1
f 99//1 100//1 98//1
f 35//1 102//1 101//1
f 102//1 15//1 103//1
f 103//1 36//1 101//1
f 102//1 103//1 101//1
f 36//1 105//1 104//1
f 105//1 14//1 106//1
f 106//1 34//1 104//1
f 105//1 106//1 104//1
f 35//1 101//1 100//1
f 101//1 36//1 104//1
f 104//1 34//1 100//1
f 101//1 104//1 100//1
f 15//1 108//1 107//1
f 108//1 38//1 109//1
f 109//1 37//1 107//1
f 108//1 109//1 107//1
f 38//1 111//1 110//1
f 111//1 8//1 112//1
f 112//1 39//1 110//1
f 111//1 112//1 110//1
f 39//1 114//1 113//1
f 114//1 16//1 115//1
f 115//1 37//1 113//1
f 114//1 115//1 113//1
f 38//1 110//1 109//1
f 110//1 39//1 113//1
f 113//1 37//1 109//1
f 110//1 113//1 109//1
f 16//1 117//1 116//1
f 117//1 41//1 118//1
f 118//1 40//1 116//1
f 117//1 118//1 116//1
f 41//1 120//1 119//1
f 120//1 7//1 121//1
f 121//1 42//1 119//1
f 120//1 121//1 119//1
f 42//1 123//1 122//1
f 123//1 14//1 124//1
f 124//1 40//1 122//1
f 123//1 124//1 122//1
f 41//1 119//1 118//1
f 119//1 42//1 122//1
f 122//1 40//1 118//1
f 119//1 122//1 118//1
f 15//1 107//1 103//1
f 107//1 37//1 125//1
f 125//1 36//1 103//1
f 107//1 125//1 103//1
f 37//1 115//1 126//1
f 115//1 16//1 116//1
f 116//1 40//1 126//1
f 115//1 116//1 126//1
f 40//1 124//1 127//1
f 124//1 14//1 105//1
f 105//1 36//1 127//1
f 124//1 105//1 127//1
f 37//1 126//1 125//1
f 126//1 40//1 127//1
f 127//1 36//1 125//1
f 126//1 127//1 125//1
f 8//1 129//1 128//1
f 129//1 44//1 130//1
f 130//1 43//1 128//1
f 129//1 130//1 128//1
f 44//1 132//1 131//1
f 132//1 18//1 133//1
f 133//1 45//1 131//1
f 132//1 133//1 131//1
f 45//1 135//1 134//1
f 135//1 17//1 136//1
f 136//1 43//1 134//1
f 135//1 136//1 134//1
f 44//1 131//1 130//1
f 131//1 45//1 134//1
f 134//1 43//1 130//1
f 131//1 134//1 130//1
f 18//1 138//1 137//1
f 138//1 47//1 139//1
f 139//1 46//1 137//1
f 138//1 139//1 137//1
f 47//1 141//1 140//1
f 141//1 1//1 89//1
f 89//1 29//1 140//1
f 141//1 89//1 140//1
f 29//1 88//1 142//1
f 88//1 11//1 143//1
f 143//1 46//1 142//1
f 88//1 143//1 142//1
f 47//1 140//1 139//1
f 140//1 29//1 142//1
f 142//1 46//1 139//1
f 140//1 142//1 139//1
f 11//1 87//1 144//1
f 87//1 28//1 145//1
f 145//1 48//1 144//1
f 87//1 145//1 144//1
f 28//1 86//1 146//1
f 86//1 5//1 147//1
f 147//1 49//1 146//1
f 86//1 147//1 146//1
f 49//1 149//1 148//1
f 149//1 17//1 150//1
f 150//1 48//1 148//1
f 149//1 150//1 148//1
f 28//1 146//1 145//1
f 146//1 49//1 148//1
f 148//1 48//1 145//1
f 146//1 148//1 145//1
f 18//1 137//1 133//1
f 137//1 46//1 151//1
f 151//1 45//1 133//1
f 137//1 151//1 133//1
f 46//1 143//1 152//1
f 143//1 11//1 144//1
f 144//1 48//1 152//1
f 143//1 144//1 152//1
f 48//1 150//1 153//1
f 150//1 17//1 135//1
f 135//1 45//1 153//1
f 150//1 135//1 153//1
f 46//1 152//1 151//1
f 152//1 48//1 153//1
f 153//1 45//1 151//1
f 152//1 153//1 151//1
f 5//1 85//1 154//1
f 85//1 27//1 155//1
f 155//1 50//1 154//1
f 85//1 155//1 154//1
f 27//1 84//1 156//1
f 84//1 10//1 157//1
f 157//1 51//1 156//1
f 84//1 157//1 156//1
f 51//1 159//1 158//1
f 159//1 19//1 160//1
f 160//1 50//1 158//1
f 159//1 160//1 158//1
f 27//1 156//1 155//1
f 156//1 51//1 158//1
f 158//1 50//1 155//1
f 156//1 158//1 155//1
f 10//1 83//1 161//1
f 83//1 26//1 162//1
f 162//1 52//1 161//1
f 83//1 162//1 161//1
f 26//1 82//1 163//1
f 82//1 2//1 164//1
f 164//1 53//1 163//1
f 82//1 164//1 163//1
f 53//1 166//1 165//1
f 166//1 20//1 167//1
f 167//1 52//1 165//1
f 166//1 167//1 165//1
f 26//1 163//1 162//1
f 163//1 53//1 165//1
f 165//1 52//1 162//1
f 163//1 165//1 162//1
f 20//1 169//1 168//1
f 169//1 55//1 170//1
f 170//1 54//1 168//1
f 169//1 170//1 168//1
f 55//1 172//1 171//1
f 172//1 7//1 173//1
f 173//1 56//1 171//1
f 172//1 173//1 171//1
f 56//1 175//1 174//1
f 175//1 19//1 176//1
f 176//1 54//1 174//1
f 175//1 176//1 174//1
f 55//1 171//1 170//1
f 171//1 56//1 174//1
f 174//1 54//1 170//1
f 171//1 174//1 170//1
f 10//1 161//1 157//1
f 161//1 52//1 177//1
f 177//1 51//1 157//1
f 161//1 177//1 157//1
f 52//1 167//1 178//1
f 167//1 20//1 168//1
f 168//1 54//1 178//1
f 167//1 168//1 178//1
f 54//1 176//1 179//1
f 176//1 19//1 159//1
f 159//1 51//1 179//1
f 176//1 159//1 179//1
f 52//1 178//1 177//1
f 178//1 54//1 179//1
f 179//1 51//1 177//1
f 178//1 179//1 177//1
f 8//1 128//1 112//1
f 128//1 43//1 180//1
f 180//1 39//1 112//1
f 128//1 180//1 112//1
f 43//1 136//1 181//1
f 136//1 17//1 182//1
f 182//1 57//1 181//1
f 136//1 182//1 181//1
f 57//1 184//1 183//1
f 184//1 16//1 114//1
f 114//1 39//1 183//1
f 184//1 114//1 183//1
f 43//1 181//1 180//1
f 181//1 57//1 183//1
f 183//1 39//1 180//1
f 181//1 183//1 180//1
f 17//1 149//1 185//1
f 149//1 49//1 186//1
f 186//1 58//1 185//1
f 149//1 186//1 185//1
f 49//1 147//1 187//1
f 147//1 5//1 154//1
f 154//1 50//1 187//1
f 147//1 154//1 187//1
f 50//1 160//1 188//1
f 160//1 19//1 189//1
f 189//1 58//1 188//1
f 160//1 189//1 188//1
f 49//1 187//1 186//1
f 187//1 50//1 188//1
f 188//1 58//1 186//1
f 187//1 188//1 186//1
f 19//1 175//1 190//1
f 175//1 56//1 191//1
f 191//1 59//1 190//1
f 175//1 191//1 190//1
f 56//1 173//1 192//1
f 173//1 7//1 120//1
f 120//1 41//1 192//1
f 173//1 120//1 192//1
f 41//1 117//1 193//1
f 117//1 16//1 194//1
f 194//1 59//1 193//1
f 117//1 194//1 193//1
f 56//1 192//1 191//1
f 192//1 41//1 193//1
f 193//1 59//1 191//1
f 192//1 193//1 191//1
f 17//1 185//1 182//1
f 185//1 58//1 195//1
f 195//1 57//1 182//1
f 185//1 195//1 182//1
f 58//1 189//1 196//1
f 189//1 19//1 190//1
f 190//1 59//1 196//1
f 189//1 190//1 196//1
f 59//1 194//1 197//1
f 194//1 16//1 184//1
f 184//1 57//1 197//1
f 194//1 184//1 197//1
f 58//1 196//1 195//1
f 196//1 59//1 197//1
f 197//1 57//1 195//1
f 196//1 197//1 195//1
f 3//1 98//1 90//1
f 98//1 34//1 198//1
f 198//1 30//1 90//1
f 98//1 198//1 90//1
f 34//1 106//1 199//1
f 106//1 14//1 200//1
f 200//1 60//1 199//1
f 106//1 200//1 199//1
f 60//1 202//1 201//1
f 202//1 12//1 91//1
f 91//1 30//1 201//1
f 202//1 91//1 201//1
f 34//1 199//1 198//1
f 199//1 60//1 201//1
f 201//1 30//1 198//1
f 199//1 201//1 198//1
f 14//1 123//1 203//1
f 123//1 42//1 204//1
f 204//1 61//1 203//1
f 123//1 204//1 203//1
f 42//1 121//1 205//1
f 121//1 7//1 206//1
f 206//1 62//1 205//1
f 121//1 206//1 205//1
f 62//1 208//1 207//1
f 208//1 21//1 209//1
f 209//1 61//1 207//1
f 208//1 209//1 207//1
f 42//1 205//1 204//1
f 205//1 62//1 207//1
f 207//1 61//1 204//1
f 205//1 207//1 204//1
f 21//1 211//1 210//1
f 211//1 64//1 212//1
f 212//1 63//1 210//1
f 211//1 212//1 210//1
f 64//1 214//1 213//1
f 214//1 6//1 93//1
f 93//1 31//1 213//1
f 214//1 93//1 213//1
f 31//1 92//1 215//1
f 92//1 12//1 216//1
f 216//1 63//1 215//1
f 92//1 216//1 215//1
f 64//1 213//1 212//1
f 213//1 31//1 215//1
f 215//1 63//1 212//1
f 213//1 215//1 212//1
f 14//1 203//1 200//1
f 203//1 61//1 217//1
f 217//1 60//1 200//1
f 203//1 217//1 200//1
f 61//1 209//1 218//1
f 209//1 21//1 210//1
f 210//1 63//1 218//1
f 209//1 210//1 218//1
f 63//1 216//1 219//1
f 216//1 12//1 202//1
f 202//1 60//1 219//1
f 216//1 202//1 219//1
f 61//1 218//1 217//1
f 218//1 63//1 219//1
f 219//1 60//1 217//1
f 218//1 219//1 217//1
f 7//1 172//1 220//1
f 172//1 55//1 221//1
f 221//1 65//1 220//1
f 172//1 221//1 220//1
f 55//1 169//1 222//1
f 169//1 20//1 223//1
f 223//1 66//1 222//1
f 169//1 223//1 222//1
f 66//1 225//1 224//1
f 225//1 22//1 226//1
f 226//1 65//1 224//1
f 225//1 226//1 224//1
f 55//1 222//1 221//1
f 222//1 66//1 224//1
f 224//1 65//1 221//1
f 222//1 224//1 221//1
f 20//1 166//1 227//1
f 166//1 53//1 228//1
f 228//1 67//1 227//1
f 166//1 228//1 227//1
f 53//1 164//1 229//1
f 164//1 2//1 230//1
f 230//1 68//1 229//1
f 164//1 230//1 229//1
f 68//1 232//1 231//1
f 232//1 23//1 233//1
f 233//1 67//1 231//1
f 232//1 233//1 231//1
f 53//1 229//1 228//1
f 229//1 68//1 231//1
f 231//1 67//1 228//1
f 229//1 231//1 228//1
f 23//1 235//1 234//1
f 235//1 70//1 236//1
f 236//1 69//1 234//1
f 235//1 236//1 234//1
f 70//1 238//1 237//1
f 238//1 9//1 239//1
f 239//1 71//1 237//1
f 238//1 239//1 237//1
f 71//1 241//1 240//1
f 241//1 22//1 242//1
f 242//1 69//1 240//1
f 241//1 242//1 240//1
f 70//1 237//1 236//1
f 237//1 71//1 240//1
f 240//1 69//1 236//1
f 237//1 240//1 236//1
f 20//1 227//1 223//1
f 227//1 67//1 243//1
f 243//1 66//1 223//1
f 227//1 243//1 223//1
f 67//1 233//1 244//1
f 233//1 23//1 234//1
f 234//1 69//1 244//1
f 233//1 234//1 244//1
f 69//1 242//1 245//1
f 242//1 22//1 225//1
f 225//1 66//1 245//1
f 242//1 225//1 245//1
f 67//1 244//1 243//1
f 244//1 69//1 245//1
f 245//1 66//1 243//1
f 244//1 245//1 243//1
f 9//1 247//1 246//1
f 247//1 73//1 248//1
f 248//1 72//1 246//1
f 247//1 248//1 246//1
f 73//1 250//1 249//1
f 250//1 25//1 251//1
f 251//1 74//1 249//1
f 250//1 251//1 249//1
f 74//1 253//1 252//1
f 253//1 24//1 254//1
f 254//1 72//1 252//1
f 253//1 254//1 252//1
f 73//1 249//1 248//1
f 249//1 74//1 252//1
f 252//1 72//1 248//1
f 249//1 252//1 248//1
f 25//1 256//1 255//1
f 256//1 76//1 257//1
f 257//1 75//1 255//1
f 256//1 257//1 255//1
f 76//1 259//1 258//1
f 259//1 4//1 97//1
f 97//1 33//1 258//1
f 259//1 97//1 258//1
f 33//1 96//1 260//1
f 96//1 13//1 261//1
f 261//1 75//1 260//1
f 96//1 261//1 260//1
f 76//1 258//1 257//1
f 258//1 33//1 260//1
f 260//1 75//1 257//1
f 258//1 260//1 257//1
f 13//1 95//1 262//1
f 95//1 32//1 263//1
f 263//1 77//1 262//1
f 95//1 263//1 262//1
f 32//1 94//1 264//1
f 94//1 6//1 265//1
f 265//1 78//1 264//1
f 94//1 265//1 264//1
f 78//1 267//1 266//1
f 267//1 24//1 268//1
f 268//1 77//1 266//1
f 267//1 268//1 266//1
f 32//1 264//1 263//1
f 264//1 78//1 266//1
f 266//1 77//1 263//1
f 264//1 266//1 263//1
f 25//1 255//1 251//1
f 255//1 75//1 269//1
f 269//1 74//1 251//1
f 255//1 269//1 251//1
f 75//1 261//1 270//1
f 261//1 13//1 262//1
f 262//1 77//1 270//1
f 261//1 262//1 270//1
f 77//1 268//1 271//1
f 268//1 24//1 253//1
f 253//1 74//1 271//1
f 268//1 253//1 271//1
f 75//1 270//1 269//1
f 270//1 77//1 271//1
f 271//1 74//1 269//1
f 270//1 271//1 269//1
f 7//1 220//1 206//1
f 220//1 65//1 272//1
f 272//1 62//1 206//1
f 220//1 272//1 206//1
f 65//1 226//1 273//1
f 226//1 22//1 274//1
f 274//1 79//1 273//1
f 226//1 274//1 273//1
f 79//1 276//1 275//1
f 276//1 21//1 208//1
f 208//1 62//1 275//1
f 276//1 208//1 275//1
f 65//1 273//1 272//1
f 273//1 79//1 275//1
f 275//1 62//1 272//1
f 273//1 275//1 272//1
f 22//1 241//1 277//1
f 241//1 71//1 278//1
f 278//1 80//1 277//1
f 241//1 278//1 277//1
f 71//1 239//1 279//1
f 239//1 9//1 246//1
f 246//1 72//1 279//1
f 239//1 246//1 279//1
f 72//1 254//1 280//1
f 254//1 24//1 281//1
f 281//1 80//1 280//1
f 254//1 281//1 280//1
f 71//1 279//1 278//1
f 279//1 72//1 280//1
f 280//1 80//1 278//1
f 279//1 280//1 278//1
f 24//1 267//1 282//1
f 267//1 78//1 283//1
f 283//1 81//1 282//1
f 267//1 283//1 282//1
f 78//1 265//1 284//1
f 265//1 6//1 214//1
f 214//1 64//1 284//1
f 265//1 214//1 284//1
f 64//1 211//1 285//1
f 211//1 21//1 286//1
f 286//1 81//1 285//1
f 211//1 286//1 285//1
f 78//1 284//1 283//1
f 284//1 64//1 285//1
f 285//1 81//1 283//1
f 284//1 285//1 283//1
f 22//1 277//1 274//1
f 277//1 80//1 287//1
f 287//1 79//1 274//1
f 277//1 287//1 274//1
f 80//1 281//1 288//1
f 281//1 24//1 282//1
f 282//1 81//1 288//1
f 281//1 282//1 288//1
f 81//1 286//1 289//1
f 286//1 21//1 276//1
f 276//1 79//1 289//1
f 286//1 276//1 289//1
f 80//1 288//1 287//1
f 288//1 81//1 289//1
f 289//1 79//1 287//1
f 288//1 289//1 287//1
