####
#
# OBJ File Generated by Meshlab
#
####
# Object head_part08-[0]-DBSCAN-0.2-20-1708708433.9118161.obj
#
# Vertices: 161
# Faces: 118
#
####
vn 0.5693977475166321 0.3765288591384888 -0.7307614088058472
v -1.2031376361846924 -0.1096294596791267 -0.0486865639686584
vn 0.0000000000000000 0.0000000000000000 0.0000000000000000
v -1.2423850297927856 -0.1705775409936905 -0.0524306446313858
vn 0.7170417308807373 0.5501571297645569 -0.4279932677745819
v -1.1523077487945557 -0.0581441409885883 0.0174473822116852
vn 0.7869292497634888 -0.1207372397184372 -0.6051155924797058
v -1.1197801828384399 -0.3079752326011658 -0.0056741172447801
vn 0.0000000000000000 0.0000000000000000 0.0000000000000000
v -1.2545634508132935 -0.0785422399640083 -0.0319859981536865
vn 0.7974666953086853 0.1553471237421036 -0.5830214619636536
v -1.1239900588989258 -0.1809159815311432 -0.0237467996776104
vn 0.7197179794311523 -0.2445470690727234 -0.6497713923454285
v -1.1245746612548828 -0.4599536955356598 0.0341455452144146
vn 0.9948809146881104 -0.0046085524372756 -0.1009485125541687
v -1.1053712368011475 -0.3471753299236298 0.0617660507559776
vn 0.0000000000000000 0.0000000000000000 0.0000000000000000
v -1.2833690643310547 -0.0413213521242142 0.0437428429722786
vn 0.2613733410835266 -0.4599112868309021 -0.8486257195472717
v -1.1895469427108765 -0.5723732709884644 0.0750599429011345
vn 0.0000000000000000 0.0000000000000000 0.0000000000000000
v -1.2134416103363037 -0.4601008594036102 0.0216323677450418
vn 0.2877809703350067 -0.1890518367290497 -0.9388511180877686
v -1.1874221563339233 -0.3330796360969543 -0.0213528946042061
vn 0.0000000000000000 0.0000000000000000 0.0000000000000000
v -1.2823642492294312 -0.1368990987539291 0.0166120547801256
vn 0.9728143215179443 -0.0699489563703537 -0.2207700610160828
v -1.0976902246475220 -0.4861232340335846 0.0936189815402031
vn 0.9886741638183594 0.0758911445736885 0.1294760107994080
v -1.1178427934646606 -0.1253828406333923 0.1057518869638443
vn 0.0000000000000000 0.0000000000000000 0.0000000000000000
v -1.2619524002075195 -0.2602761387825012 0.0015902218874544
vn 0.9559623599052429 0.2620021700859070 -0.1322521418333054
v -1.1165710687637329 -0.0981005653738976 0.0552823320031166
vn 0.0000000000000000 0.0000000000000000 0.0000000000000000
v -1.2576199769973755 -0.4403824210166931 0.0713994055986404
vn 0.0000000000000000 0.0000000000000000 0.0000000000000000
v -1.2437666654586792 -0.6372557878494263 0.1364361792802811
vn 0.9976210594177246 0.0363379344344139 -0.0585823431611061
v -1.1038506031036377 -0.2191280871629715 0.0434770956635475
vn 0.2667710483074188 0.8013543486595154 -0.5354105234146118
v -1.2366539239883423 -0.0074222767725587 0.0513373948633671
vn 0.0000000000000000 0.0000000000000000 0.0000000000000000
v -1.1978346109390259 -0.7351655960083008 0.1803286969661713
vn 0.9913298487663269 -0.0267871692776680 -0.1286370158195496
v -1.0927929878234863 -0.5772014260292053 0.1793143898248672
vn 0.9957019686698914 0.0905649736523628 0.0193839631974697
v -1.1126725673675537 -0.4054620862007141 0.1944393664598465
vn 0.0000000000000000 0.0000000000000000 0.0000000000000000
v -1.2994632720947266 -0.0112002268433571 0.1401094645261765
vn 0.6223695278167725 0.7043774724006653 -0.3413335680961609
v -1.1785786151885986 0.0234416835010052 0.1264681071043015
vn 0.8002822399139404 -0.3110217154026031 -0.5126535892486572
v -1.1212632656097412 -0.6310815215110779 0.1279078871011734
vn 0.0000000000000000 0.0000000000000000 0.0000000000000000
v -1.3077110052108765 -0.2281302064657211 0.1556676626205444
vn 0.9560930132865906 0.2864305675029755 -0.0619964264333248
v -1.1356903314590454 -0.0384920686483383 0.1803687363862991
vn 0.0000000000000000 0.0000000000000000 0.0000000000000000
v -1.2750904560089111 -0.6015698909759521 0.1994061022996902
vn 0.2846722602844238 0.8726914525032043 -0.3967005312442780
v -1.2385474443435669 0.0628603175282478 0.1701505333185196
vn 0.9941339492797852 0.0495163872838020 0.0961551144719124
v -1.1221076250076294 -0.2477633506059647 0.1588394641876221
vn 0.7023395895957947 0.6503340601921082 -0.2894558906555176
v -1.1826809644699097 0.0830534473061562 0.2546626627445221
vn 0.0000000000000000 0.0000000000000000 0.0000000000000000
v -1.2398580312728882 -0.7431268095970154 0.2182091623544693
vn 0.0000000000000000 0.0000000000000000 0.0000000000000000
v -1.3214089870452881 -0.0458180420100689 0.3129740655422211
vn 0.7319906353950500 -0.3602164387702942 -0.5783025026321411
v -1.1327708959579468 -0.7990478873252869 0.2523203194141388
vn 0.4256791174411774 -0.3490534424781799 -0.8348407149314880
v -1.1327536106109619 -0.9203235507011414 0.3426848948001862
vn 0.0000000000000000 0.0000000000000000 0.0000000000000000
v -1.2832927703857422 0.0932097062468529 0.2702085971832275
vn 0.0000000000000000 0.0000000000000000 0.0000000000000000
v -1.2388567924499512 -0.7726217508316040 0.3193102478981018
vn 0.0000000000000000 0.0000000000000000 0.0000000000000000
v -1.1954064369201660 -0.8493221998214722 0.2883411943912506
vn 0.8575896620750427 -0.2014599442481995 -0.4732376337051392
v -1.0745114088058472 -0.7722815871238708 0.2998773157596588
vn 0.9302488565444946 -0.1388389617204666 -0.3396477997303009
v -1.0911275148391724 -0.6848360300064087 0.2305108159780502
vn 0.8010617494583130 -0.1714383810758591 -0.5735059380531311
v -1.0655099153518677 -0.8494130373001099 0.3473237156867981
vn 0.0000000000000000 0.0000000000000000 0.0000000000000000
v -1.2866042852401733 -0.5548046827316284 0.3260255157947540
vn 0.3147081136703491 0.9053478240966797 -0.2851391136646271
v -1.2156411409378052 0.1301155388355255 0.3677117824554443
vn 0.0000000000000000 0.0000000000000000 0.0000000000000000
v -1.3093471527099609 -0.3783940076828003 0.2516587674617767
vn 0.9840573668479919 0.1102373600006104 -0.1395663768053055
v -1.0927938222885132 -0.5312379002571106 0.3005935549736023
vn 0.9916030764579773 0.0666307359933853 -0.1108323410153389
v -1.1201708316802979 -0.2506080567836761 0.3225101232528687
vn 0.9666957855224609 0.1154836118221283 -0.2283915132284164
v -1.0970011949539185 -0.3876911699771881 0.3840531110763550
vn 0.0000000000000000 0.0000000000000000 0.0000000000000000
v -1.3182758092880249 0.0954484045505524 0.3450002670288086
vn 0.7356979846954346 0.6478235721588135 -0.1976692974567413
v -1.1550304889678955 0.1114232540130615 0.3752577304840088
vn 0.9566099047660828 0.0652050971984863 -0.2839820086956024
v -1.0517393350601196 -0.7011811137199402 0.3714335858821869
vn 0.0000000000000000 0.0000000000000000 0.0000000000000000
v -1.3002448081970215 -0.3095740377902985 0.4188521802425385
vn 0.0000000000000000 0.0000000000000000 0.0000000000000000
v -1.1058413982391357 -1.0337898731231689 0.4277077615261078
vn 0.7074958086013794 -0.1936883926391602 -0.6796575784683228
v -1.0441631078720093 -0.9685703516006470 0.4080289006233215
vn 0.9153510928153992 0.0534457527101040 -0.3990938663482666
v -1.0125777721405029 -0.8546508550643921 0.4418080747127533
vn 0.8615897893905640 0.5074942708015442 -0.0106075182557106
v -1.1213691234588623 0.0747456848621368 0.4277701079845428
vn 0.0000000000000000 0.0000000000000000 0.0000000000000000
v -1.1720373630523682 -0.9491284489631653 0.4168757200241089
vn 0.7405005693435669 -0.1983086913824081 -0.6421312689781189
v -0.9759488701820374 -1.0868189334869385 0.4988977909088135
vn 0.0000000000000000 0.0000000000000000 0.0000000000000000
v -1.2219052314758301 -0.7120209932327271 0.4764614105224609
vn 0.9581403732299805 0.1364282369613647 -0.2517026364803314
v -1.0620949268341064 -0.5112264156341553 0.4390560984611511
vn 0.9525930881500244 0.2077732235193253 -0.2222536653280258
v -1.1234207153320312 0.0172856338322163 0.3677011728286743
vn 0.9430428743362427 0.3325860500335693 -0.0075298747979105
v -1.0978649854660034 0.0119935087859631 0.4873476624488831
vn 0.0000000000000000 0.0000000000000000 0.0000000000000000
v -1.0858540534973145 -1.1150698661804199 0.4926533102989197
vn 0.0000000000000000 0.0000000000000000 0.0000000000000000
v -1.2726185321807861 0.1239474043250084 0.4202412962913513
vn 0.5507454872131348 -0.2090657055377960 -0.8080661296844482
v -1.0301338434219360 -1.0952700376510620 0.4769476056098938
vn 0.8173655271530151 -0.0175496134907007 -0.5758520364761353
v -0.9804115295410156 -0.9935125708580017 0.4845092892646790
vn 0.0000000000000000 0.0000000000000000 0.0000000000000000
v -1.3097841739654541 0.0810216441750526 0.4360316693782806
vn 0.0000000000000000 0.0000000000000000 0.0000000000000000
v -1.1262235641479492 -1.0754313468933105 0.5362303256988525
vn 0.7095688581466675 0.6744761466979980 0.2039458006620407
v -1.1568789482116699 0.0831541195511818 0.4991390407085419
vn 0.9129831790924072 0.4036534428596497 0.0593771226704121
v -1.0922869443893433 -0.0067968387156725 0.5578636527061462
vn 0.0000000000000000 0.0000000000000000 0.0000000000000000
v -1.2540476322174072 -0.4022561907768250 0.5394605398178101
vn 0.0000000000000000 0.0000000000000000 0.0000000000000000
v -1.2534403800964355 0.0772183313965797 0.5247772336006165
vn 0.0000000000000000 0.0000000000000000 0.0000000000000000
v -1.1729702949523926 -0.9236524701118469 0.5228471755981445
vn 0.0000000000000000 0.0000000000000000 0.0000000000000000
v -1.1831586360931396 -0.8336957097053528 0.5335661768913269
vn 0.0000000000000000 0.0000000000000000 0.0000000000000000
v -1.0483421087265015 -1.1621872186660767 0.5613973736763000
vn 0.8196671605110168 -0.4024765491485596 -0.4076252579689026
v -0.9794610142707825 -1.1616443395614624 0.5657157301902771
vn 0.9480004906654358 -0.1103644371032715 -0.2985208928585052
v -0.9321076273918152 -1.0768311023712158 0.5771936178207397
vn 0.0000000000000000 0.0000000000000000 0.0000000000000000
v -1.1457686424255371 -0.9979621171951294 0.6563522219657898
vn 0.0000000000000000 0.0000000000000000 0.0000000000000000
v -1.1947120428085327 -0.5846676826477051 0.6427213549613953
vn 0.7001825571060181 0.6578038930892944 0.2775579094886780
v -1.1460829973220825 0.0187713690102100 0.6329765915870667
vn 0.0000000000000000 0.0000000000000000 0.0000000000000000
v -1.2746417522430420 -0.1802157163619995 0.5462565422058105
vn 0.9649570584297180 0.1572042852640152 -0.2101063281297684
v -0.9859758019447327 -0.7389522194862366 0.6250970363616943
vn 0.8841676115989685 0.4663517177104950 -0.0276341307908297
v -1.0725343227386475 -0.0713648870587349 0.6610589623451233
vn 0.0000000000000000 0.0000000000000000 0.0000000000000000
v -1.2000484466552734 -0.6622917056083679 0.5508399009704590
vn 0.0000000000000000 0.0000000000000000 0.0000000000000000
v -1.2114067077636719 0.0462867356836796 0.5879707336425781
vn 0.0000000000000000 0.0000000000000000 0.0000000000000000
v -1.1819261312484741 -0.6809587478637695 0.5737677812576294
vn 0.9707619547843933 0.1110942810773849 -0.2127890884876251
v -1.0638229846954346 -0.2411168813705444 0.5524441599845886
vn 0.9055391550064087 -0.3922463357448578 0.1616832315921783
v -0.9202823638916016 -1.0989165306091309 0.6565254330635071
vn 0.9652900695800781 0.1297285705804825 -0.2266839295625687
v -1.0123897790908813 -0.6490232944488525 0.5650746226310730
vn 0.0000000000000000 0.0000000000000000 0.0000000000000000
v -1.2031629085540771 -0.4102688133716583 0.6622667908668518
vn 0.0000000000000000 0.0000000000000000 0.0000000000000000
v -1.2864491939544678 -0.0234777983278036 0.5053346753120422
vn 0.9683535099029541 0.1599751114845276 -0.1915707141160965
v -0.9579225182533264 -0.8882794976234436 0.6354094743728638
vn 0.0000000000000000 0.0000000000000000 0.0000000000000000
v -1.0258448123931885 -1.1751253604888916 0.6578618288040161
vn 0.0000000000000000 0.0000000000000000 0.0000000000000000
v -1.2044214010238647 -0.3146578073501587 0.7652421593666077
vn 0.6820346117019653 -0.6756905913352966 0.2797696590423584
v -0.9658578634262085 -1.1399694681167603 0.6684816479682922
vn 0.9521483182907104 -0.0525067001581192 0.3010923564434052
v -0.9327158927917480 -1.0206347703933716 0.7035297155380249
vn 0.0000000000000000 0.0000000000000000 0.0000000000000000
v -1.2106190919876099 -0.0470747165381908 0.6731860041618347
vn 0.9703748822212219 0.1068842858076096 -0.2166761755943298
v -1.0015908479690552 -0.5160780549049377 0.6763439774513245
vn 0.9681003689765930 0.1091305240988731 -0.2255481928586960
v -1.0176067352294922 -0.4033087790012360 0.6599282026290894
vn 0.9868164658546448 0.0597883500158787 0.1503953039646149
v -0.9385391473770142 -0.9007674455642700 0.7269659638404846
vn 0.0000000000000000 0.0000000000000000 0.0000000000000000
v -1.0968656539916992 -1.1195845603942871 0.6694640517234802
vn 0.0000000000000000 0.0000000000000000 0.0000000000000000
v -1.1319634914398193 -0.9753757119178772 0.7614098191261292
vn 0.0000000000000000 0.0000000000000000 0.0000000000000000
v -1.2267425060272217 -0.2200654447078705 0.6622613668441772
vn 0.9923754930496216 0.1123735755681992 -0.0506269671022892
v -0.9754249453544617 -0.6547739505767822 0.7246348261833191
vn 0.0000000000000000 0.0000000000000000 0.0000000000000000
v -1.1415001153945923 -0.8770821690559387 0.7220705747604370
vn 0.9948680400848389 0.0745630934834480 -0.0683953911066055
v -0.9959769845008850 -0.4237188398838043 0.7488095760345459
vn 0.6004333496093750 0.7926967144012451 0.1054122298955917
v -1.1402832269668579 -0.0324104502797127 0.7540239691734314
vn 0.0000000000000000 0.0000000000000000 0.0000000000000000
v -1.1638737916946411 -0.7854841351509094 0.6176711320877075
vn 0.9009431600570679 0.4291943013668060 -0.0639817193150520
v -1.0329631567001343 -0.1308356225490570 0.7572036981582642
vn 0.9480416178703308 0.0836723744869232 0.3069463074207306
v -0.9535703063011169 -0.8133577704429626 0.7655415534973145
vn 0.0000000000000000 0.0000000000000000 0.0000000000000000
v -1.1647911071777344 -0.4558672606945038 0.8128864169120789
vn 0.0000000000000000 0.0000000000000000 0.0000000000000000
v -1.1529171466827393 -0.7332334518432617 0.7783236503601074
vn 0.0000000000000000 0.0000000000000000 0.0000000000000000
v -1.1707006692886353 -0.6434248089790344 0.7762346267700195
vn 0.0000000000000000 0.0000000000000000 0.0000000000000000
v -1.2414382696151733 -0.3038558363914490 0.8807817697525024
vn 0.0000000000000000 0.0000000000000000 0.0000000000000000
v -1.1443011760711670 -0.8099223375320435 0.7388263940811157
vn 0.0000000000000000 0.0000000000000000 0.0000000000000000
v -1.1769063472747803 -0.5662574172019958 0.8079999089241028
vn 0.9985511898994446 -0.0532294735312462 -0.0078806718811393
v -0.9929700493812561 -0.2993992865085602 0.8135786652565002
vn 0.9762666225433350 0.0446312837302685 0.2119233012199402
v -0.9892303943634033 -0.5282524824142456 0.7885068655014038
vn 0.0000000000000000 0.0000000000000000 0.0000000000000000
v -1.2238926887512207 -0.1652878671884537 0.7739511728286743
vn 0.0000000000000000 0.0000000000000000 0.0000000000000000
v -1.2062500715255737 -0.0870717987418175 0.8406389355659485
vn 0.0000000000000000 0.0000000000000000 0.0000000000000000
v -1.1090261936187744 -1.0641721487045288 0.7567236423492432
vn 0.9542934298515320 0.1674957573413849 -0.2475258708000183
v -1.0200465917587280 -0.2383921444416046 0.7291396260261536
vn 0.0000000000000000 0.0000000000000000 0.0000000000000000
v -1.0498999357223511 -1.1331371068954468 0.7316222786903381
vn 0.6432952880859375 -0.3039937019348145 0.7026798725128174
v -1.0362128019332886 -1.0418699979782104 0.7890931367874146
vn 0.0000000000000000 0.0000000000000000 0.0000000000000000
v -1.1937226057052612 -0.3392034173011780 0.8361559510231018
vn 0.9332246184349060 -0.0680221840739250 0.3527956008911133
v -1.0171611309051514 -0.4177660346031189 0.8648215532302856
vn 0.6853777766227722 0.7101508378982544 0.1610682159662247
v -1.0733586549758911 -0.0901160910725594 0.8067628741264343
vn 0.0000000000000000 0.0000000000000000 0.0000000000000000
v -1.2567608356475830 -0.2289901524782181 0.8976531028747559
vn 0.0000000000000000 0.0000000000000000 0.0000000000000000
v -1.1016258001327515 -0.9898768067359924 0.8084946274757385
vn 0.0000000000000000 0.0000000000000000 0.0000000000000000
v -1.1113923788070679 -0.8578706383705139 0.8015978932380676
vn 0.9827861785888672 0.1737585216760635 -0.0627630576491356
v -0.9876250028610229 -0.2281670719385147 0.8297519683837891
vn 0.7422774434089661 -0.1404861658811569 0.6552005410194397
v -0.9682297706604004 -0.9144006371498108 0.7820013165473938
vn 0.0000000000000000 0.0000000000000000 0.0000000000000000
v -1.1067703962326050 -0.7848814129829407 0.8449885845184326
vn 0.0000000000000000 0.0000000000000000 0.0000000000000000
v -1.1452925205230713 -0.5455533266067505 0.8874727487564087
vn 0.0000000000000000 0.0000000000000000 0.0000000000000000
v -1.1234055757522583 -0.6403603553771973 0.8740221858024597
vn 0.0000000000000000 0.0000000000000000 0.0000000000000000
v -1.1412175893783569 -0.3790584802627563 0.8901824355125427
vn 0.8406827449798584 0.5217790007591248 0.1449113935232162
v -1.0141496658325195 -0.1643245369195938 0.8554115891456604
vn 0.0000000000000000 0.0000000000000000 0.0000000000000000
v -1.1505923271179199 -0.0686128959059715 0.8643332123756409
vn 0.6150324940681458 -0.0826644301414490 0.7841566801071167
v -1.0050384998321533 -0.8049914836883545 0.8295431137084961
vn 0.3766924738883972 -0.2596558630466461 0.8892027735710144
v -1.0572106838226318 -0.8602716326713562 0.8355024456977844
vn 0.8290823101997375 0.0089345974847674 0.5590553283691406
v -1.0070410966873169 -0.6575592756271362 0.8359884619712830
vn 0.5927032828330994 0.7216228246688843 0.3577198386192322
v -1.1169074773788452 -0.1194962710142136 0.9352388381958008
vn 0.0000000000000000 0.0000000000000000 0.0000000000000000
v -1.0609651803970337 -0.4297782480716705 0.9215686917304993
vn 0.0000000000000000 0.0000000000000000 0.0000000000000000
v -1.1725751161575317 -0.3389229476451874 0.9250275492668152
vn 0.4490594267845154 -0.0329353623092175 0.8928946852684021
v -1.0844506025314331 -0.7338534593582153 0.8721054792404175
vn 0.0000000000000000 0.0000000000000000 0.0000000000000000
v -1.0715769529342651 -0.6595003604888916 0.8910960555076599
vn 0.6416458487510681 -0.0648159533739090 0.7642574906349182
v -1.0854051113128662 -0.5558540821075439 0.9104058742523193
vn 0.0000000000000000 0.0000000000000000 0.0000000000000000
v -1.1151087284088135 -0.3113316893577576 1.0058621168136597
vn 0.8886519074440002 -0.2068824470043182 0.4092648029327393
v -1.0441032648086548 -0.3229978680610657 0.9712271094322205
vn 0.0000000000000000 0.0000000000000000 0.0000000000000000
v -1.2224543094635010 -0.2887812554836273 0.9696083664894104
vn 0.9379464983940125 0.0450208038091660 0.3438452780246735
v -1.0047791004180908 -0.2473277300596237 0.9240921735763550
vn 0.0000000000000000 0.0000000000000000 0.0000000000000000
v -1.1110291481018066 -0.4592714607715607 0.9057993292808533
vn 0.0000000000000000 0.0000000000000000 0.0000000000000000
v -1.0804286003112793 -0.3832419514656067 0.9430543184280396
vn 0.0000000000000000 0.0000000000000000 0.0000000000000000
v -1.2374956607818604 -0.1560052484273911 0.9671526551246643
vn 0.7773182392120361 0.4029498994350433 0.4831230044364929
v -1.0646541118621826 -0.1910765767097473 0.9961639046669006
vn 0.0000000000000000 0.0000000000000000 0.0000000000000000
v -1.1904473304748535 -0.1013427525758743 0.9575315117835999
vn 0.0000000000000000 0.0000000000000000 0.0000000000000000
v -1.1415045261383057 -0.1606820225715637 1.0183939933776855
vn 0.0000000000000000 0.0000000000000000 0.0000000000000000
v -1.1897352933883667 -0.1784145981073380 1.0285201072692871
vn 0.0000000000000000 0.0000000000000000 0.0000000000000000
v -1.2100402116775513 -0.2396103441715240 1.0172874927520752
vn 0.7705973386764526 0.0036864723078907 0.6373116374015808
v -1.0969235897064209 -0.2403695285320282 1.0354672670364380
# 161 vertices, 0 vertices normals

f 7//7 8//8 14//14
f 7//7 27//27 10//10
f 41//41 36//36 42//42
f 42//42 23//23 47//47
f 49//49 47//47 48//48
f 96//96 89//89 97//97
f 97//97 93//93 101//101
f 138//138 110//110 128//128
f 62//62 51//51 57//57
f 49//49 61//61 47//47
f 133//133 125//125 97//97
f 133//133 97//97 101//101
f 132//132 138//138 152//152
f 6//6 3//3 17//17
f 118//118 107//107 123//123
f 123//123 110//110 138//138
f 32//32 15//15 29//29
f 62//62 29//29 33//33
f 23//23 24//24 47//47
f 23//23 42//42 27//27
f 62//62 33//33 51//51
f 45//45 51//51 33//33
f 110//110 84//84 128//128
f 128//128 84//84 108//108
f 140//140 133//133 111//111
f 111//111 142//142 140//140
f 142//142 111//111 105//105
f 142//142 105//105 119//119
f 127//127 142//142 119//119
f 127//127 118//118 152//152
f 118//118 132//132 152//152
f 24//24 32//32 48//48
f 32//32 29//29 48//48
f 48//48 29//29 62//62
f 70//70 71//71 63//63
f 101//101 93//93 111//111
f 93//93 105//105 111//111
f 105//105 99//99 107//107
f 138//138 128//128 143//143
f 161//161 152//152 156//156
f 47//47 24//24 48//48
f 90//90 56//56 52//52
f 61//61 90//90 52//52
f 4//4 12//12 6//6
f 3//3 6//6 1//1
f 7//7 12//12 4//4
f 32//32 20//20 15//15
f 17//17 3//3 29//29
f 29//29 15//15 17//17
f 26//26 3//3 21//21
f 29//29 3//3 26//26
f 141//141 133//133 140//140
f 63//63 71//71 88//88
f 84//84 88//88 71//71
f 84//84 71//71 81//81
f 156//156 138//138 143//143
f 23//23 27//27 14//14
f 27//27 7//7 14//14
f 31//31 33//33 26//26
f 29//29 26//26 33//33
f 41//41 43//43 36//36
f 52//52 56//56 43//43
f 43//43 41//41 52//52
f 41//41 42//42 52//52
f 42//42 47//47 52//52
f 61//61 52//52 47//47
f 66//66 55//55 67//67
f 67//67 59//59 66//66
f 56//56 67//67 55//55
f 77//77 59//59 78//78
f 78//78 59//59 67//67
f 78//78 67//67 93//93
f 93//93 67//67 56//56
f 90//90 61//61 88//88
f 93//93 56//56 90//90
f 90//90 83//83 93//93
f 105//105 93//93 83//83
f 105//105 83//83 90//90
f 105//105 90//90 99//99
f 99//99 100//100 107//107
f 107//107 100//100 123//123
f 88//88 84//84 123//123
f 123//123 84//84 110//110
f 62//62 57//57 63//63
f 63//63 57//57 70//70
f 96//96 78//78 89//89
f 97//97 89//89 78//78
f 97//97 78//78 93//93
f 133//133 101//101 111//111
f 119//119 105//105 107//107
f 119//119 107//107 127//127
f 118//118 127//127 107//107
f 132//132 118//118 123//123
f 138//138 132//132 123//123
f 146//146 140//140 142//142
f 142//142 127//127 148//148
f 23//23 14//14 24//24
f 14//14 8//8 24//24
f 24//24 8//8 32//32
f 32//32 8//8 20//20
f 15//15 20//20 17//17
f 36//36 27//27 42//42
f 100//100 90//90 88//88
f 99//99 90//90 100//100
f 100//100 88//88 123//123
f 7//7 4//4 8//8
f 4//4 6//6 20//20
f 20//20 8//8 4//4
f 20//20 6//6 17//17
f 37//37 43//43 55//55
f 55//55 43//43 56//56
f 51//51 70//70 57//57
f 88//88 61//61 49//49
f 48//48 88//88 49//49
f 88//88 62//62 63//63
f 48//48 62//62 88//88
f 150//150 127//127 152//152
f 156//156 152//152 138//138
# 118 faces, 0 coords texture

# End of File
