####
#
# OBJ File Generated by Meshlab
#
####
# Object head_part10-[0]-DBSCAN-0.2-20-1708708481.7307217.obj
#
# Vertices: 120
# Faces: 94
#
####
vn -0.0103828627616167 -0.1340924501419067 -0.9909144043922424
v -0.7770765423774719 0.5091989636421204 0.9165983200073242
vn 0.2290781438350677 -0.0125652449205518 -0.9733269214630127
v -0.7573378682136536 0.5893791913986206 0.9103673100471497
vn 0.4004037976264954 0.1147092804312706 -0.9091306924819946
v -0.7465854287147522 0.6853329539299011 0.9163382053375244
vn 0.1264351755380630 0.0654259026050568 -0.9898148775100708
v -0.7757982015609741 0.6741577982902527 0.9055560231208801
vn 0.4525063335895538 -0.0299261547625065 -0.8912588357925415
v -0.7111062407493591 0.5372951030731201 0.9262114763259888
vn 0.6210891604423523 -0.1236478462815285 -0.7739246487617493
v -0.6313936710357666 0.8202802538871765 0.9836562275886536
vn -0.0692164301872253 -0.0603445880115032 -0.9957748651504517
v -0.8063131570816040 0.5583765506744385 0.9156503677368164
vn 0.1122368574142456 0.1103189662098885 -0.9875386357307434
v -0.6706489920616150 1.0512546300888062 0.9476398229598999
vn 0.0000000000000000 0.0000000000000000 0.0000000000000000
v -0.8416406512260437 0.6646667122840881 0.9649086594581604
vn -0.0803509503602982 0.1110597029328346 -0.9905602335929871
v -0.7278345227241516 0.9336591958999634 0.9375704526901245
vn 0.2778544723987579 -0.6668184995651245 -0.6914840340614319
v -0.7446010708808899 0.4179074466228485 0.9446137547492981
vn -0.0874884948134422 -0.3219668567180634 -0.9426999092102051
v -0.7922704219818115 0.4398236870765686 0.9326280355453491
vn 0.2819187343120575 -0.0514085218310356 -0.9580599665641785
v -0.7068291306495667 0.8544629216194153 0.9337171316146851
vn 0.4757196307182312 -0.0048493761569262 -0.8795835375785828
v -0.6978335380554199 0.7380459308624268 0.9482088088989258
vn 0.5644314885139465 -0.0627853199839592 -0.8230888247489929
v -0.5779485106468201 1.0281133651733398 0.9907568693161011
vn 0.0000000000000000 0.0000000000000000 0.0000000000000000
v -0.8314765095710754 0.7760596871376038 1.0089781284332275
vn 0.4179077744483948 0.1095178872346878 -0.9018642306327820
v -0.6056585311889648 1.0913295745849609 0.9743089675903320
vn 0.3486353158950806 0.3080858290195465 -0.8851759433746338
v -0.6253159642219543 1.1435599327087402 0.9804480075836182
vn 0.0000000000000000 0.0000000000000000 0.0000000000000000
v -0.7939897775650024 0.8809273242950439 0.9896991848945618
vn 0.1160893142223358 -0.8492480516433716 -0.5150738954544067
v -0.8226078748703003 0.3897500932216644 0.9734578132629395
vn 0.7921103835105896 -0.3735359609127045 -0.4827337563037872
v -0.6691296696662903 0.4731545448303223 0.9717025160789490
vn -0.4675651192665100 -0.1005194485187531 -0.8782247304916382
v -0.8412159085273743 0.5095009207725525 0.9507114291191101
vn 0.3264416456222534 -0.0007431254489347 -0.9452170729637146
v -0.6670598983764648 0.9594618082046509 0.9447903037071228
vn 0.4386311173439026 -0.3103880584239960 -0.8433635234832764
v -0.7155744433403015 0.4653689563274384 0.9340832233428955
vn 0.0000000000000000 0.0000000000000000 0.0000000000000000
v -0.8189441561698914 0.5219476819038391 0.9287444353103638
vn -0.2169453799724579 -0.1023336648941040 -0.9708051085472107
v -0.8090142011642456 0.6303418874740601 0.9175974726676941
vn -0.3552307784557343 0.1407522857189178 -0.9241212010383606
v -0.7473898530006409 0.9936176538467407 0.9683602452278137
vn 0.0676504075527191 0.1621750891208649 -0.9844403266906738
v -0.6971709132194519 1.1060343980789185 0.9537946581840515
vn 0.7725443243980408 -0.0842076241970062 -0.6293522715568542
v -0.6674219369888306 0.5167976021766663 0.9644625186920166
vn 0.0000000000000000 0.0000000000000000 0.0000000000000000
v -0.7433847188949585 1.0400631427764893 1.0119704008102417
vn 0.6137529611587524 -0.0706222206354141 -0.7863331437110901
v -0.6488153338432312 0.7490356564521790 0.9835177063941956
vn 0.0000000000000000 0.0000000000000000 0.0000000000000000
v -0.8518878817558289 0.3581544160842896 0.9922586679458618
vn 0.7261592149734497 -0.0529304258525372 -0.6854860186576843
v -0.6582831144332886 0.6022746562957764 0.9746221899986267
vn 0.0000000000000000 0.0000000000000000 0.0000000000000000
v -0.7295020818710327 1.1393867731094360 0.9841814041137695
vn 0.0000000000000000 0.0000000000000000 0.0000000000000000
v -0.7506649494171143 0.3848284780979156 1.0271439552307129
vn 0.1440286338329315 0.1207152381539345 -0.9821830391883850
v -0.7820479869842529 0.7832438945770264 0.9355083107948303
vn 0.2118533700704575 0.2628999650478363 -0.9412766695022583
v -0.6788753867149353 1.1740659475326538 0.9769137501716614
vn 0.7548583745956421 -0.1071898862719536 -0.6470696330070496
v -0.5989869832992554 0.7373661994934082 1.0254224538803101
vn 0.8619871139526367 -0.1717439442873001 -0.4769510626792908
v -0.5586437582969666 0.8266243934631348 1.0541518926620483
vn 0.8986266851425171 -0.2809787690639496 -0.3369287252426147
v -0.6446024775505066 0.5041153430938721 1.0205565690994263
vn 0.0000000000000000 0.0000000000000000 0.0000000000000000
v -0.8649050593376160 0.3923487365245819 1.0087933540344238
vn 0.0000000000000000 0.0000000000000000 0.0000000000000000
v -0.8187903761863708 0.3696020841598511 1.0123558044433594
vn 0.0000000000000000 0.0000000000000000 0.0000000000000000
v -0.7045106887817383 1.2017139196395874 1.0190501213073730
vn 0.7946723103523254 -0.1333263516426086 -0.5922161936759949
v -0.6119744181632996 0.6572394967079163 1.0179759263992310
vn 0.0000000000000000 0.0000000000000000 0.0000000000000000
v -0.7916265130043030 0.8739580512046814 1.0347322225570679
vn 0.8642254471778870 -0.1964767277240753 -0.4631535112857819
v -0.5356126427650452 0.9588604569435120 1.0489308834075928
vn 0.0000000000000000 0.0000000000000000 0.0000000000000000
v -0.7541816234588623 0.9587950706481934 1.0282187461853027
vn 0.0000000000000000 0.0000000000000000 0.0000000000000000
v -0.8743728399276733 0.5505841374397278 1.0229108333587646
vn 0.0000000000000000 0.0000000000000000 0.0000000000000000
v -0.8631173372268677 0.6859579086303711 1.0282160043716431
vn 0.6440651416778564 -0.0082285478711128 -0.7649263739585876
v -0.6351691484451294 0.6952534914016724 0.9937640428543091
vn 0.5755313634872437 -0.1196847110986710 -0.8089741468429565
v -0.6221966147422791 0.9208611249923706 0.9734399914741516
vn 0.5683860182762146 0.1641736924648285 -0.8062160611152649
v -0.5544656515121460 1.1081662178039551 1.0065708160400391
vn 0.7743072509765625 -0.0021058721467853 -0.6328063607215881
v -0.5079746842384338 1.0895580053329468 1.0469672679901123
vn 0.4287397265434265 0.4902549386024475 -0.7588361501693726
v -0.6222648620605469 1.1973693370819092 1.0169360637664795
vn 0.0000000000000000 0.0000000000000000 0.0000000000000000
v -0.8091722130775452 0.3784320056438446 1.0472531318664551
vn 0.0000000000000000 0.0000000000000000 0.0000000000000000
v -0.7103477716445923 1.1968448162078857 1.0581277608871460
vn 0.0000000000000000 0.0000000000000000 0.0000000000000000
v -0.8409506678581238 0.5732845067977905 1.0857777595520020
vn 0.9023995995521545 -0.2603897154331207 -0.3433251976966858
v -0.5964535474777222 0.5621290206909180 1.0903875827789307
vn 0.0000000000000000 0.0000000000000000 0.0000000000000000
v -0.6558862328529358 1.2233483791351318 1.0600147247314453
vn 0.9271482229232788 -0.1540001332759857 -0.3415847718715668
v -0.5604532361030579 0.7395175099372864 1.0855119228363037
vn 0.0000000000000000 0.0000000000000000 0.0000000000000000
v -0.8703017830848694 0.4477667212486267 1.0360640287399292
vn 0.6850122213363647 -0.6592065095901489 -0.3101693987846375
v -0.6985163092613220 0.4244458079338074 0.9939082860946655
vn 0.6364548802375793 0.4052343368530273 -0.6562851667404175
v -0.5255531072616577 1.1644421815872192 1.0503048896789551
vn 0.0000000000000000 0.0000000000000000 0.0000000000000000
v -0.7299868464469910 1.1316502094268799 1.0439965724945068
vn 0.9462084174156189 -0.1073453277349472 -0.3052321374416351
v -0.4859204590320587 1.0840229988098145 1.0914623737335205
vn 0.8751625418663025 -0.2022423446178436 -0.4395323693752289
v -0.5852360129356384 0.6466151475906372 1.0759389400482178
vn 0.8410093784332275 -0.4960194528102875 -0.2160274833440781
v -0.6277186870574951 0.4811375439167023 1.0994247198104858
vn 0.8777989149093628 0.1616589725017548 -0.4509273171424866
v -0.4891507923603058 1.1353663206100464 1.0828627347946167
vn 0.9858017563819885 -0.1193999648094177 -0.1180610805749893
v -0.5336095094680786 0.8802966475486755 1.0892603397369385
vn 0.0000000000000000 0.0000000000000000 0.0000000000000000
v -0.6320011615753174 1.2266912460327148 1.0943059921264648
vn 0.9880031347274780 -0.1512984782457352 0.0309638343751431
v -0.5355919003486633 0.9490510821342468 1.1175943613052368
vn 0.9349998831748962 -0.3545207679271698 -0.0095036011189222
v -0.4949240982532501 1.0324217081069946 1.1199339628219604
vn 0.0000000000000000 0.0000000000000000 0.0000000000000000
v -0.7011007666587830 1.0060530900955200 1.0681420564651489
vn 0.0000000000000000 0.0000000000000000 0.0000000000000000
v -0.8597121834754944 0.6421926021575928 1.0686222314834595
vn 0.0000000000000000 0.0000000000000000 0.0000000000000000
v -0.7534542679786682 0.3949364423751831 1.0857893228530884
vn 0.5940958261489868 0.6914207339286804 -0.4110811352729797
v -0.5646601319313049 1.2174186706542969 1.0828914642333984
vn 0.0000000000000000 0.0000000000000000 0.0000000000000000
v -0.8284246921539307 0.4156864285469055 1.0659351348876953
vn 0.0000000000000000 0.0000000000000000 0.0000000000000000
v -0.8528231978416443 0.5006319880485535 1.0621001720428467
vn 0.0000000000000000 0.0000000000000000 0.0000000000000000
v -0.7751718759536743 0.4251336157321930 1.1027071475982666
vn 0.9837555289268494 -0.1780436336994171 -0.0229218918830156
v -0.5587481856346130 0.6398355960845947 1.1487573385238647
vn 0.0000000000000000 0.0000000000000000 0.0000000000000000
v -0.6418353915214539 1.1062988042831421 1.1346331834793091
vn 0.7208657264709473 -0.6831949353218079 -0.1166080832481384
v -0.6850843429565430 0.4214870035648346 1.0942794084548950
vn 0.0000000000000000 0.0000000000000000 0.0000000000000000
v -0.7563923001289368 0.6124823093414307 1.1437647342681885
vn 0.9947952628135681 -0.0927067622542381 -0.0422824956476688
v -0.4706988930702209 1.1077094078063965 1.1398085355758667
vn 0.9940675497055054 -0.1073117703199387 -0.0177134871482849
v -0.5413365364074707 0.8239455223083496 1.1278930902481079
vn 0.0000000000000000 0.0000000000000000 0.0000000000000000
v -0.8303484916687012 0.7258954644203186 1.0738480091094971
vn 0.0000000000000000 0.0000000000000000 0.0000000000000000
v -0.5719728469848633 1.0404844284057617 1.1372128725051880
vn 0.0000000000000000 0.0000000000000000 0.0000000000000000
v -0.7285017371177673 0.8585554957389832 1.0952651500701904
vn 0.0000000000000000 0.0000000000000000 0.0000000000000000
v -0.7939521670341492 0.8062379956245422 1.0710558891296387
vn 0.0000000000000000 0.0000000000000000 0.0000000000000000
v -0.6450582742691040 1.0250214338302612 1.1066380739212036
vn 0.9097256064414978 -0.3651992678642273 0.1975569128990173
v -0.5774359703063965 0.5666832923889160 1.1680566072463989
vn 0.0000000000000000 0.0000000000000000 0.0000000000000000
v -0.6494490504264832 0.4676538109779358 1.1452624797821045
vn 0.8294243812561035 -0.5564444661140442 -0.0492423363029957
v -0.6165111660957336 0.4934578835964203 1.1489797830581665
vn 0.9869087338447571 -0.0815920680761337 0.1391185522079468
v -0.5488739609718323 0.7274041175842285 1.1506155729293823
vn 0.8619964718818665 -0.5064428448677063 0.0218585785478354
v -0.5955929756164551 0.5254142284393311 1.1402094364166260
vn 0.9009814858436584 0.3015525937080383 -0.3119269013404846
v -0.4852676093578339 1.1689437627792358 1.1160970926284790
vn 0.0000000000000000 0.0000000000000000 0.0000000000000000
v -0.5248792767524719 1.1911616325378418 1.1496913433074951
vn 0.0000000000000000 0.0000000000000000 0.0000000000000000
v -0.7145813703536987 0.4388037621974945 1.1309320926666260
vn 0.0000000000000000 0.0000000000000000 0.0000000000000000
v -0.6880771517753601 1.0986449718475342 1.0982190370559692
vn 0.0000000000000000 0.0000000000000000 0.0000000000000000
v -0.7566671967506409 0.7552580237388611 1.1180597543716431
vn 0.0000000000000000 0.0000000000000000 0.0000000000000000
v -0.5905786752700806 1.1284525394439697 1.1590837240219116
vn 0.0000000000000000 0.0000000000000000 0.0000000000000000
v -0.5640923976898193 0.8619303703308105 1.1474006175994873
vn 0.0000000000000000 0.0000000000000000 0.0000000000000000
v -0.6208091974258423 0.9290661811828613 1.1222628355026245
vn 0.0000000000000000 0.0000000000000000 0.0000000000000000
v -0.7865043282508850 0.6659985780715942 1.1246789693832397
vn 0.0000000000000000 0.0000000000000000 0.0000000000000000
v -0.5186278223991394 1.0272070169448853 1.1375551223754883
vn 0.0000000000000000 0.0000000000000000 0.0000000000000000
v -0.5878093242645264 1.2185975313186646 1.1188440322875977
vn 0.9065766930580139 0.0283291991800070 0.4210892617702484
v -0.5570169091224670 0.7748789191246033 1.1649528741836548
vn 0.0000000000000000 0.0000000000000000 0.0000000000000000
v -0.5562453866004944 1.1649152040481567 1.1717754602432251
vn 0.0000000000000000 0.0000000000000000 0.0000000000000000
v -0.6745100021362305 0.7038803696632385 1.1718074083328247
vn 0.4555573463439941 -0.6269039511680603 0.6320276856422424
v -0.6275686025619507 0.5366919636726379 1.1744433641433716
vn 0.0000000000000000 0.0000000000000000 0.0000000000000000
v -0.7718914747238159 0.5146145224571228 1.1188207864761353
vn 0.0000000000000000 0.0000000000000000 0.0000000000000000
v -0.6517590880393982 1.1808148622512817 1.1224931478500366
vn 0.0000000000000000 0.0000000000000000 0.0000000000000000
v -0.5582262873649597 0.8179392814636230 1.1594742536544800
vn 0.0000000000000000 0.0000000000000000 0.0000000000000000
v -0.6070759296417236 0.7970369458198547 1.1629360914230347
vn 0.8205311298370361 -0.3773580193519592 0.4293365478515625
v -0.4945775270462036 1.0844959020614624 1.1650413274765015
vn 0.9762546420097351 0.2032795399427414 -0.0748620033264160
v -0.4771066308021545 1.1494525671005249 1.1695959568023682
vn 0.0000000000000000 0.0000000000000000 0.0000000000000000
v -0.5170561075210571 1.1366754770278931 1.1870911121368408
vn 0.0000000000000000 0.0000000000000000 0.0000000000000000
v -0.6580258011817932 0.6104928851127625 1.1865503787994385
vn 0.0000000000000000 0.0000000000000000 0.0000000000000000
v -0.5490351915359497 1.1447428464889526 1.1814974546432495
vn 0.8661177158355713 -0.1005889996886253 0.4896143376827240
v -0.5804628729820251 0.6613197326660156 1.1915839910507202
# 120 vertices, 0 vertices normals

f 15//15 23//23 8//8
f 6//6 13//13 51//51
f 6//6 51//51 46//46
f 23//23 15//15 51//51
f 46//46 15//15 53//53
f 14//14 3//3 36//36
f 5//5 24//24 1//1
f 33//33 5//5 2//2
f 33//33 3//3 14//14
f 12//12 11//11 20//20
f 62//62 20//20 11//11
f 8//8 23//23 10//10
f 10//10 27//27 8//8
f 28//28 8//8 27//27
f 120//120 91//91 80//80
f 120//120 80//80 94//94
f 38//38 6//6 39//39
f 6//6 46//46 39//39
f 46//46 51//51 15//15
f 33//33 14//14 50//50
f 31//31 14//14 6//6
f 14//14 36//36 13//13
f 14//14 13//13 6//6
f 10//10 13//13 36//36
f 10//10 23//23 13//13
f 23//23 51//51 13//13
f 72//72 65//65 84//84
f 65//65 68//68 96//96
f 96//96 84//84 65//65
f 68//68 63//63 96//96
f 91//91 95//95 58//58
f 80//80 91//91 58//58
f 80//80 60//60 94//94
f 60//60 85//85 94//94
f 107//107 94//94 85//85
f 7//7 2//2 1//1
f 2//2 5//5 1//1
f 2//2 26//26 4//4
f 3//3 2//2 4//4
f 2//2 3//3 33//33
f 3//3 4//4 36//36
f 62//62 11//11 24//24
f 15//15 17//17 52//52
f 52//52 17//17 18//18
f 58//58 67//67 40//40
f 58//58 40//40 33//33
f 33//33 44//44 66//66
f 66//66 58//58 33//33
f 44//44 38//38 66//66
f 60//60 66//66 38//38
f 62//62 67//67 82//82
f 67//67 58//58 95//95
f 115//115 72//72 84//84
f 116//116 84//84 96//96
f 12//12 22//22 1//1
f 12//12 24//24 11//11
f 24//24 12//12 1//1
f 15//15 8//8 17//17
f 18//18 28//28 37//37
f 8//8 28//28 18//18
f 8//8 18//18 17//17
f 65//65 53//53 68//68
f 68//68 53//53 63//63
f 96//96 63//63 76//76
f 58//58 66//66 80//80
f 60//60 80//80 66//66
f 63//63 52//52 18//18
f 53//53 15//15 52//52
f 63//63 53//53 52//52
f 54//54 63//63 18//18
f 62//62 40//40 67//67
f 91//91 110//110 95//95
f 40//40 62//62 21//21
f 21//21 29//29 40//40
f 60//60 39//39 85//85
f 39//39 69//69 85//85
f 69//69 71//71 85//85
f 39//39 46//46 69//69
f 71//71 69//69 46//46
f 71//71 46//46 72//72
f 46//46 53//53 65//65
f 65//65 72//72 46//46
f 93//93 67//67 95//95
f 62//62 24//24 21//21
f 24//24 5//5 29//29
f 29//29 21//21 24//24
f 29//29 5//5 33//33
f 50//50 44//44 33//33
f 31//31 50//50 14//14
f 6//6 38//38 31//31
f 29//29 33//33 40//40
f 44//44 50//50 38//38
f 38//38 50//50 31//31
f 60//60 38//38 39//39
# 94 faces, 0 coords texture

# End of File
