####
#
# OBJ File Generated by Meshlab
#
####
# Object head_part12-[-1]-DBSCAN-0.2-20-1708708548.5871336.obj
#
# Vertices: 169
# Faces: 87
#
####
vn 0.2247742414474487 0.0689563825726509 -0.9719678163528442
v -0.1546155065298080 2.0343630313873291 0.2234418541193008
vn -0.5964878797531128 -0.0239551924169064 -0.8022645115852356
v -0.1848071068525314 2.0074977874755859 0.2354665845632553
vn 0.3925535678863525 -0.2648364901542664 -0.8807742595672607
v -0.1495777517557144 1.9838062524795532 0.2405674755573273
vn 0.6936714053153992 -0.1035063415765762 -0.7128158211708069
v -0.1205295845866203 1.9956023693084717 0.2511149346828461
vn -0.1272017806768417 0.5510377287864685 -0.8247284889221191
v -0.1643741726875305 2.0580639839172363 0.2341187149286270
vn 0.7526794672012329 0.2998923659324646 -0.5861212015151978
v -0.1348662525415421 2.0385036468505859 0.2442353069782257
vn -0.8014880418777466 0.2999381422996521 -0.5173528194427490
v -0.1958692669868469 2.0401654243469238 0.2523589432239532
vn -0.4525221586227417 0.7837645411491394 -0.4253666698932648
v -0.1825946867465973 2.0792741775512695 0.2691881358623505
vn -0.7792292237281799 -0.1836726516485214 -0.5992212295532227
v -0.2032698094844818 1.9457539319992065 0.2805695235729218
vn 0.4199426770210266 0.7983166575431824 -0.4316696524620056
v -0.1460188031196594 2.0795133113861084 0.2659589052200317
vn 0.0000000000000000 0.0000000000000000 0.0000000000000000
v -0.1298880130052567 1.9349771738052368 0.2824012041091919
vn 0.7073861956596375 -0.3172473013401031 -0.6316318511962891
v -0.1042608246207237 1.9520665407180786 0.2890690863132477
vn 0.8902334570884705 0.2091656476259232 -0.4046408534049988
v -0.0964272543787956 1.9970911741256714 0.2957417070865631
vn -0.8978350162506104 0.3634503185749054 -0.2485881596803665
v -0.2056881338357925 2.0472018718719482 0.2981097996234894
vn -0.8939604759216309 0.0446137711405754 -0.4459195137023926
v -0.2194507420063019 1.9981776475906372 0.2855423986911774
vn 0.0000000000000000 0.0000000000000000 0.0000000000000000
v -0.1660585403442383 1.9128425121307373 0.2991860806941986
vn 0.0000000000000000 0.0000000000000000 0.0000000000000000
v -0.2169919759035110 1.8637487888336182 0.3618409633636475
vn 0.0000000000000000 0.0000000000000000 0.0000000000000000
v -0.1878468990325928 2.0780632495880127 0.3008503317832947
vn 0.0000000000000000 0.0000000000000000 0.0000000000000000
v -0.1642116755247116 1.8568689823150635 0.3726138770580292
vn -0.0131519809365273 0.9970871210098267 -0.0751287490129471
v -0.1596396863460541 2.0820152759552002 0.3015487194061279
vn 0.8792120218276978 0.4366666972637177 -0.1905476897954941
v -0.1254481673240662 2.0503919124603271 0.3149352073669434
vn -0.9063380360603333 0.1016476452350616 -0.4101453125476837
v -0.2462396025657654 1.9192435741424561 0.3417791724205017
vn -0.9266803860664368 0.2836290299892426 -0.2466134727001190
v -0.2318664491176605 1.9862678050994873 0.3648545444011688
vn 0.5157287120819092 -0.5835893154144287 -0.6272538304328918
v -0.1135830357670784 1.8937510251998901 0.3356603980064392
vn 0.7900787591934204 -0.2159390300512314 -0.5737123489379883
v -0.0549078695476055 1.9115496873855591 0.3673435151576996
vn -0.8814854025840759 0.0075908182188869 -0.4721505045890808
v -0.2655599713325500 1.8636239767074585 0.3769553005695343
vn -0.9125094413757324 0.2285012453794479 -0.3392842411994934
v -0.2755004167556763 1.9029196500778198 0.3961454629898071
vn 0.4767296612262726 -0.5434025526046753 -0.6909721493721008
v -0.0772448554635048 1.8529192209243774 0.3980411887168884
vn 0.0000000000000000 0.0000000000000000 0.0000000000000000
v -0.1285394579172134 2.0311701297760010 0.3753475248813629
vn 0.9172321557998657 0.3265579044818878 -0.2281342148780823
v -0.0509336926043034 1.9540808200836182 0.3782915174961090
vn 0.0000000000000000 0.0000000000000000 0.0000000000000000
v -0.2246638983488083 1.8292864561080933 0.4080694913864136
vn 0.0000000000000000 0.0000000000000000 0.0000000000000000
v -0.2663560509681702 1.8255803585052490 0.4204442203044891
vn 0.0000000000000000 0.0000000000000000 0.0000000000000000
v -0.1124884039163589 1.9972404241561890 0.4345695972442627
vn 0.0000000000000000 0.0000000000000000 0.0000000000000000
v -0.1780745685100555 2.0474495887756348 0.3433906733989716
vn 0.8090542554855347 0.5683341622352600 -0.1497581005096436
v -0.0843859240412712 2.0002045631408691 0.3726092278957367
vn 0.0000000000000000 0.0000000000000000 0.0000000000000000
v -0.2020625174045563 1.8082046508789062 0.4324345290660858
vn -0.9219514131546021 0.1041950732469559 -0.3730267882347107
v -0.2853215932846069 1.8546031713485718 0.4069229960441589
vn 0.0000000000000000 0.0000000000000000 0.0000000000000000
v -0.2412461787462234 1.9437047243118286 0.4776496589183807
vn 0.0000000000000000 0.0000000000000000 0.0000000000000000
v -0.1323639154434204 1.8127167224884033 0.4359915554523468
vn 0.0000000000000000 0.0000000000000000 0.0000000000000000
v -0.1812473386526108 1.9942401647567749 0.4358087778091431
vn 0.0000000000000000 0.0000000000000000 0.0000000000000000
v -0.0788720175623894 1.8078056573867798 0.4551259875297546
vn 0.8497381210327148 -0.2769868075847626 -0.4485793411731720
v -0.0301114208996296 1.8564444780349731 0.4277880787849426
vn 0.9669065475463867 0.2070223391056061 -0.1491090357303619
v -0.0294569432735443 1.9079339504241943 0.4171416461467743
vn 0.0000000000000000 0.0000000000000000 0.0000000000000000
v -0.0568178221583366 1.8321403264999390 0.4315486550331116
vn 0.0000000000000000 0.0000000000000000 0.0000000000000000
v -0.2231700569391251 1.7736439704895020 0.4944804310798645
vn -0.9281460046768188 0.1458616554737091 -0.3424460887908936
v -0.3048004806041718 1.8605930805206299 0.4567390084266663
vn 0.0000000000000000 0.0000000000000000 0.0000000000000000
v -0.1899473816156387 1.7575004100799561 0.5289146304130554
vn -0.8805330991744995 0.4627630114555359 -0.1025275141000748
v -0.2624276876449585 1.9366904497146606 0.4362996220588684
vn -0.8509177565574646 -0.1499658674001694 -0.5034373998641968
v -0.3095225691795349 1.8130449056625366 0.4788841903209686
vn 0.8030507564544678 0.5358453392982483 0.2607282996177673
v -0.0629897043108940 1.9397220611572266 0.4550930261611938
vn 0.9983743429183960 0.0345331355929375 -0.0453443601727486
v -0.0166833978146315 1.8546537160873413 0.4744929969310760
vn 0.8442096710205078 -0.4747556746006012 -0.2488316297531128
v -0.0309434980154037 1.8096436262130737 0.4818302392959595
vn 0.0000000000000000 0.0000000000000000 0.0000000000000000
v -0.2679095268249512 1.7782981395721436 0.4892653822898865
vn 0.0000000000000000 0.0000000000000000 0.0000000000000000
v -0.1121345087885857 1.7679919004440308 0.5256025195121765
vn 0.0000000000000000 0.0000000000000000 0.0000000000000000
v -0.3370207846164703 1.7798280715942383 0.5331609249114990
vn 0.0000000000000000 0.0000000000000000 0.0000000000000000
v -0.1488626152276993 1.7745543718338013 0.5047104358673096
vn -0.8509177565574646 -0.1499658674001694 -0.5034373998641968
v -0.3372733891010284 1.8375148773193359 0.5184998512268066
vn 0.0000000000000000 0.0000000000000000 0.0000000000000000
v -0.1313083469867706 1.9520055055618286 0.4929538071155548
vn 0.0000000000000000 0.0000000000000000 0.0000000000000000
v -0.2939679622650146 1.9003326892852783 0.5106214880943298
vn 0.0000000000000000 0.0000000000000000 0.0000000000000000
v -0.0914753451943398 1.9068166017532349 0.5254724621772766
vn 0.0000000000000000 0.0000000000000000 0.0000000000000000
v -0.0683302581310272 1.7853085994720459 0.4973642230033875
vn 0.9549954533576965 -0.2084770053625107 0.2110001295804977
v -0.0169861726462841 1.8179965019226074 0.5104086995124817
vn 0.0000000000000000 0.0000000000000000 0.0000000000000000
v -0.1910967677831650 1.9374076128005981 0.5126659870147705
vn 0.8247945904731750 -0.4186665117740631 0.3800423145294189
v -0.0467976927757263 1.7853120565414429 0.5377968549728394
vn 0.8320041298866272 0.1171435043215752 0.5422605872154236
v -0.0404862947762012 1.8481893539428711 0.5314606428146362
vn 0.0000000000000000 0.0000000000000000 0.0000000000000000
v -0.2904890477657318 1.7518644332885742 0.5394502878189087
vn 0.0000000000000000 0.0000000000000000 0.0000000000000000
v -0.2379389703273773 1.7535805702209473 0.5362614393234253
vn 0.0000000000000000 0.0000000000000000 0.0000000000000000
v -0.2529976963996887 1.9176384210586548 0.5384783744812012
vn 0.0000000000000000 0.0000000000000000 0.0000000000000000
v -0.2974373698234558 1.7420507669448853 0.5660825371742249
vn 0.0000000000000000 0.0000000000000000 0.0000000000000000
v -0.1527740210294724 1.7498519420623779 0.5607826709747314
vn 0.0000000000000000 0.0000000000000000 0.0000000000000000
v -0.1031421646475792 1.8866034746170044 0.5564875006675720
vn 0.0000000000000000 0.0000000000000000 0.0000000000000000
v -0.3310857117176056 1.7405369281768799 0.5790116190910339
vn 0.8642713427543640 -0.1723833084106445 0.4725665748119354
v -0.0656801238656044 1.8009877204895020 0.5783119201660156
vn -0.8314815163612366 0.4567415714263916 -0.3162682950496674
v -0.3527232408523560 1.8506226539611816 0.5790118575096130
vn 0.0000000000000000 0.0000000000000000 0.0000000000000000
v -0.2168536037206650 1.9033946990966797 0.5682511925697327
vn 0.0000000000000000 0.0000000000000000 0.0000000000000000
v -0.2776052057743073 1.7085324525833130 0.6439685225486755
vn 0.5281341671943665 -0.8393325209617615 0.1288225203752518
v -0.0968333333730698 1.7603144645690918 0.5800583958625793
vn 0.0000000000000000 0.0000000000000000 0.0000000000000000
v -0.2686603665351868 1.8881038427352905 0.5968565940856934
vn 0.0000000000000000 0.0000000000000000 0.0000000000000000
v -0.2634221315383911 1.7300971746444702 0.5873216986656189
vn 0.5054361224174500 -0.8278518319129944 -0.2433015555143356
v -0.1309838145971298 1.7418152093887329 0.6125487685203552
vn 0.8997771739959717 -0.1086863130331039 0.4225971102714539
v -0.1028876081109047 1.7906154394149780 0.6372020244598389
vn 0.0000000000000000 0.0000000000000000 0.0000000000000000
v -0.3819279670715332 1.7538381814956665 0.6087976098060608
vn 0.0000000000000000 0.0000000000000000 0.0000000000000000
v -0.3966330289840698 1.7163668870925903 0.6491680741310120
vn 0.0000000000000000 0.0000000000000000 0.0000000000000000
v -0.3534865379333496 1.8656909465789795 0.6441201567649841
vn 0.0000000000000000 0.0000000000000000 0.0000000000000000
v -0.1397905349731445 1.8954569101333618 0.5593402981758118
vn 0.0000000000000000 0.0000000000000000 0.0000000000000000
v -0.3209510445594788 1.8762873411178589 0.6011465787887573
vn -0.7904493808746338 0.4799646735191345 -0.3805569410324097
v -0.3783836662769318 1.8468371629714966 0.6410072445869446
vn 0.8318428993225098 -0.4824592471122742 0.2743545472621918
v -0.0911716446280479 1.7679231166839600 0.6064206957817078
vn 0.0000000000000000 0.0000000000000000 0.0000000000000000
v -0.2353307902812958 1.7171723842620850 0.6327304244041443
vn 0.0000000000000000 0.0000000000000000 0.0000000000000000
v -0.3587833940982819 1.8566870689392090 0.6780154705047607
vn 0.0000000000000000 0.0000000000000000 0.0000000000000000
v -0.3208485841751099 1.6975256204605103 0.6674917936325073
vn 0.0000000000000000 0.0000000000000000 0.0000000000000000
v -0.2665676772594452 1.6971125602722168 0.6735528707504272
vn 0.0000000000000000 0.0000000000000000 0.0000000000000000
v -0.1114967614412308 1.7596709728240967 0.6816697716712952
vn 0.0000000000000000 0.0000000000000000 0.0000000000000000
v -0.2342775464057922 1.6978163719177246 0.6616923213005066
vn 0.0000000000000000 0.0000000000000000 0.0000000000000000
v -0.1805117428302765 1.7176907062530518 0.6313002705574036
vn 0.0000000000000000 0.0000000000000000 0.0000000000000000
v -0.1075690016150475 1.8493500947952271 0.5919514298439026
vn 0.0000000000000000 0.0000000000000000 0.0000000000000000
v -0.2998814582824707 1.6886107921600342 0.6813409924507141
vn 0.0000000000000000 0.0000000000000000 0.0000000000000000
v -0.1857098937034607 1.6681126356124878 0.7008997201919556
vn 0.0000000000000000 0.0000000000000000 0.0000000000000000
v -0.3938317000865936 1.8533812761306763 0.6837822794914246
vn 0.0000000000000000 0.0000000000000000 0.0000000000000000
v -0.3391733467578888 1.6967072486877441 0.6524350643157959
vn 0.0000000000000000 0.0000000000000000 0.0000000000000000
v -0.1492750644683838 1.7776918411254883 0.6941327452659607
vn -0.8287018537521362 0.3722835481166840 -0.4179211854934692
v -0.3933246433734894 1.8017588853836060 0.6151874661445618
vn -0.7921399474143982 0.4329440891742706 -0.4302019178867340
v -0.4160188734531403 1.8308062553405762 0.6862073540687561
vn 0.0000000000000000 0.0000000000000000 0.0000000000000000
v -0.2284134477376938 1.8560426235198975 0.6381726861000061
vn 0.0000000000000000 0.0000000000000000 0.0000000000000000
v -0.4275090694427490 1.6947968006134033 0.6855013370513916
vn 0.9283717274665833 -0.3685392141342163 0.0480072461068630
v -0.1108791381120682 1.7397551536560059 0.6613238453865051
vn 0.0000000000000000 0.0000000000000000 0.0000000000000000
v -0.3723375797271729 1.6714088916778564 0.6909649968147278
vn 0.0000000000000000 0.0000000000000000 0.0000000000000000
v -0.3044132590293884 1.8573756217956543 0.6556984782218933
vn 0.0000000000000000 0.0000000000000000 0.0000000000000000
v -0.2426853328943253 1.6565698385238647 0.7149171233177185
vn 0.0000000000000000 0.0000000000000000 0.0000000000000000
v -0.4218637943267822 1.6604281663894653 0.7253469824790955
vn -0.6839920878410339 0.7282897830009460 0.0418190695345402
v -0.4100840389728546 1.8273530006408691 0.7381606698036194
vn 0.9899036288261414 -0.1343183070421219 -0.0452688224613667
v -0.1209098100662231 1.6832021474838257 0.7122549414634705
vn 0.9899036288261414 -0.1343183070421219 -0.0452688224613667
v -0.1143119558691978 1.7275651693344116 0.7249010205268860
vn -0.8650896549224854 0.1517853885889053 -0.4781015515327454
v -0.4313789606094360 1.7461708784103394 0.6663961410522461
vn 0.0000000000000000 0.0000000000000000 0.0000000000000000
v -0.1441637575626373 1.6514316797256470 0.7310342788696289
vn 0.0000000000000000 0.0000000000000000 0.0000000000000000
v -0.3060224056243896 1.6526944637298584 0.7113177180290222
vn 0.0000000000000000 0.0000000000000000 0.0000000000000000
v -0.2024107277393341 1.8064028024673462 0.6891719102859497
vn 0.0000000000000000 0.0000000000000000 0.0000000000000000
v -0.3604400753974915 1.6461417675018311 0.7236119508743286
vn 0.0000000000000000 0.0000000000000000 0.0000000000000000
v -0.3048703074455261 1.8132286071777344 0.7277827858924866
vn -0.8753291964530945 -0.3657774627208710 -0.3162366151809692
v -0.4605332612991333 1.6985841989517212 0.7313041090965271
vn 0.0000000000000000 0.0000000000000000 0.0000000000000000
v -0.3735662400722504 1.8467264175415039 0.7083572745323181
vn 0.0000000000000000 0.0000000000000000 0.0000000000000000
v -0.3770690262317657 1.6333479881286621 0.7517467737197876
vn 0.0000000000000000 0.0000000000000000 0.0000000000000000
v -0.3274784982204437 1.6232159137725830 0.7482924461364746
vn 0.0000000000000000 0.0000000000000000 0.0000000000000000
v -0.2747411131858826 1.6097666025161743 0.7711090445518494
vn -0.9760527610778809 -0.2136246562004089 -0.0410563834011555
v -0.4796873629093170 1.7147517204284668 0.7656215429306030
vn -0.9219583272933960 0.3275558650493622 -0.2066399455070496
v -0.4650173783302307 1.7758457660675049 0.7366834282875061
vn 0.0000000000000000 0.0000000000000000 0.0000000000000000
v -0.3006367385387421 1.6047005653381348 0.7847393751144409
vn 0.0000000000000000 0.0000000000000000 0.0000000000000000
v -0.1285542696714401 1.6970890760421753 0.7803606986999512
vn 0.9481498003005981 -0.2729485332965851 -0.1628228425979614
v -0.1260924339294434 1.6231516599655151 0.7800526618957520
vn 0.0000000000000000 0.0000000000000000 0.0000000000000000
v -0.2319509536027908 1.6130018234252930 0.7734804749488831
vn 0.0000000000000000 0.0000000000000000 0.0000000000000000
v -0.1834861785173416 1.6198554039001465 0.7687235474586487
vn -0.7671951651573181 -0.5068041682243347 0.3931424617767334
v -0.4528451263904572 1.6798236370086670 0.7950446009635925
vn -0.6350691914558411 -0.7408930659294128 0.2185512036085129
v -0.4162794351577759 1.6434240341186523 0.7779023051261902
vn 0.0000000000000000 0.0000000000000000 0.0000000000000000
v -0.2045619487762451 1.7352381944656372 0.7761363387107849
vn -0.4952080249786377 -0.8665179610252380 -0.0625760257244110
v -0.3079929649829865 1.5898979902267456 0.8195735812187195
vn 0.0000000000000000 0.0000000000000000 0.0000000000000000
v -0.1668792665004730 1.5680066347122192 0.8490203619003296
vn 0.9875743389129639 -0.1519852876663208 -0.0399686843156815
v -0.1141310110688210 1.6509306430816650 0.8031390309333801
vn -0.4315851330757141 0.3651649355888367 0.8248569369316101
v -0.4480704665184021 1.7518343925476074 0.8166577219963074
vn -0.7072834968566895 0.5694433450698853 0.4189085066318512
v -0.4557490050792694 1.7814944982528687 0.7899026870727539
vn 0.0000000000000000 0.0000000000000000 0.0000000000000000
v -0.3360414803028107 1.7581200599670410 0.8053099513053894
vn 0.0000000000000000 0.0000000000000000 0.0000000000000000
v -0.2759397029876709 1.7654873132705688 0.7762292623519897
vn 0.0000000000000000 0.0000000000000000 0.0000000000000000
v -0.3468357324600220 1.7842627763748169 0.7847743034362793
vn 0.0000000000000000 0.0000000000000000 0.0000000000000000
v -0.1677519232034683 1.6737886667251587 0.8207800984382629
vn -0.8793070912361145 0.0567253604531288 0.4728650152683258
v -0.4732043445110321 1.7329967021942139 0.7956435084342957
vn 0.0000000000000000 0.0000000000000000 0.0000000000000000
v -0.3735471665859222 1.6151328086853027 0.8084742426872253
vn -0.1088231503963470 0.5216048359870911 0.8462185859680176
v -0.4000769555568695 1.7775212526321411 0.8069964051246643
vn 0.0000000000000000 0.0000000000000000 0.0000000000000000
v -0.3304005861282349 1.6943305730819702 0.8553678989410400
vn 0.0000000000000000 0.0000000000000000 0.0000000000000000
v -0.2254871428012848 1.5853239297866821 0.8164485692977905
vn 0.0000000000000000 0.0000000000000000 0.0000000000000000
v -0.3800893425941467 1.7252575159072876 0.8427069783210754
vn -0.6155800223350525 -0.6100723743438721 0.4988716840744019
v -0.3678874373435974 1.6222761869430542 0.8468288183212280
vn -0.2690206766128540 -0.6078557372093201 0.7470872402191162
v -0.2383961528539658 1.5661194324493408 0.8737484216690063
vn -0.4428421556949615 -0.7217040061950684 0.5320095419883728
v -0.2820405066013336 1.5713860988616943 0.8712315559387207
vn -0.1109915971755981 0.4489647746086121 0.8866292834281921
v -0.2332331836223602 1.6433761119842529 0.8728497028350830
vn -0.5542674660682678 -0.7810570001602173 0.2876414656639099
v -0.3078315854072571 1.5867986679077148 0.8612141609191895
vn 0.9646890759468079 -0.2599691152572632 -0.0423214174807072
v -0.1247804015874863 1.5890032052993774 0.8449377417564392
vn -0.5457121729850769 -0.0882414206862450 0.8333136439323425
v -0.4166569709777832 1.6989457607269287 0.8406082987785339
vn 0.9941065311431885 -0.0241394136101007 0.1056856811046600
v -0.1255554407835007 1.6041623353958130 0.8556904196739197
vn 0.0000000000000000 0.0000000000000000 0.0000000000000000
v -0.2760969996452332 1.7052942514419556 0.8341973423957825
vn -0.0476401783525944 0.1642977297306061 0.9852597117424011
v -0.3035493791103363 1.6521399021148682 0.8772676587104797
vn 0.5025945305824280 -0.8645219802856445 0.0007147439755499
v -0.1426527351140976 1.5590002536773682 0.8787059187889099
vn -0.4324301779270172 -0.1509124785661697 0.8889486193656921
v -0.3478727638721466 1.6432152986526489 0.8766127228736877
vn 0.9119813442230225 -0.3053612709045410 0.2739424407482147
v -0.1265572309494019 1.5752053260803223 0.8827144503593445
vn 0.0000000000000000 0.0000000000000000 0.0000000000000000
v -0.1530761420726776 1.6224372386932373 0.8634378314018250
vn -0.3806714117527008 0.1223194524645805 0.9165845513343811
v -0.3660174012184143 1.6843817234039307 0.8635832667350769
vn 0.3836387991905212 -0.4973169267177582 0.7781370282173157
v -0.1487648487091064 1.5595256090164185 0.9022685885429382
vn -0.2307050675153732 -0.2656871676445007 0.9360477924346924
v -0.2302315235137939 1.5891288518905640 0.9006947875022888
vn -0.3494875729084015 -0.3616335391998291 0.8643376231193542
v -0.2966085076332092 1.6017158031463623 0.8860117793083191
vn -0.1540687084197998 -0.5238219499588013 0.8377787470817566
v -0.1873587667942047 1.5598309040069580 0.8991943597793579
vn 0.1171489208936691 0.1342800110578537 0.9839943647384644
v -0.1726367175579071 1.5860885381698608 0.9003311395645142
# 169 vertices, 0 vertices normals

f 3//3 2//2 1//1
f 5//5 8//8 10//10
f 162//162 160//160 155//155
f 155//155 157//157 162//162
f 88//88 73//73 81//81
f 169//169 166//166 168//168
f 168//168 165//165 169//169
f 51//51 43//43 50//50
f 42//42 43//43 51//51
f 25//25 30//30 43//43
f 73//73 64//64 65//65
f 139//139 144//144 138//138
f 3//3 6//6 4//4
f 4//4 6//6 13//13
f 23//23 22//22 27//27
f 62//62 64//64 52//52
f 62//62 52//52 51//51
f 22//22 15//15 9//9
f 23//23 15//15 22//22
f 25//25 24//24 12//12
f 25//25 12//12 13//13
f 13//13 30//30 25//25
f 30//30 13//13 35//35
f 9//9 15//15 2//2
f 15//15 7//7 2//2
f 3//3 4//4 12//12
f 13//13 12//12 4//4
f 156//156 144//144 132//132
f 138//138 144//144 156//156
f 150//150 132//132 133//133
f 150//150 156//156 132//132
f 138//138 156//156 146//146
f 139//139 138//138 146//146
f 46//46 27//27 37//37
f 48//48 27//27 46//46
f 64//64 62//62 65//65
f 74//74 102//102 87//87
f 103//103 87//87 102//102
f 152//152 154//154 135//135
f 150//150 135//135 154//154
f 112//112 113//113 137//137
f 125//125 132//132 144//144
f 126//126 125//125 144//144
f 139//139 126//126 144//144
f 139//139 111//111 126//126
f 155//155 137//137 157//157
f 25//25 42//42 28//28
f 43//43 42//42 25//25
f 50//50 43//43 30//30
f 112//112 106//106 113//113
f 152//152 151//151 167//167
f 159//159 161//161 167//167
f 167//167 166//166 153//153
f 5//5 1//1 2//2
f 6//6 3//3 1//1
f 49//49 57//57 46//46
f 102//102 114//114 126//126
f 103//103 102//102 126//126
f 14//14 7//7 15//15
f 14//14 8//8 7//7
f 10//10 8//8 20//20
f 13//13 6//6 21//21
f 6//6 10//10 21//21
f 52//52 42//42 51//51
f 65//65 62//62 51//51
f 77//77 64//64 88//88
f 88//88 64//64 73//73
f 168//168 166//166 151//151
f 166//166 167//167 151//151
f 165//165 168//168 160//160
f 165//165 160//160 162//162
f 169//169 165//165 162//162
f 5//5 2//2 7//7
f 8//8 5//5 7//7
f 10//10 6//6 5//5
f 6//6 1//1 5//5
f 155//155 129//129 137//137
f 154//154 152//152 167//167
f 167//167 150//150 154//154
f 167//167 161//161 150//150
f 161//161 156//156 150//150
f 156//156 161//161 164//164
f 27//27 22//22 26//26
f 106//106 80//80 88//88
f 106//106 88//88 81//81
f 125//125 120//120 132//132
f 125//125 126//126 120//120
# 87 faces, 0 coords texture

# End of File
