# Blender 3.6.1
# www.blender.org
o octtorus_subdivide.006
v 0.700000 1.500000 -0.000000
v -0.700000 1.500000 -0.000000
v 0.800000 2.000000 0.500000
v -0.800000 2.000000 0.500000
v 0.750000 1.750000 0.250000
v 0.000000 2.000000 0.500000
v -0.750000 1.750000 0.250000
v 0.050000 1.750000 0.250000
v 0.000000 1.500000 -0.000000
v 0.775000 1.875000 0.375000
v 0.725000 1.625000 0.125000
v -0.400000 2.000000 0.500000
v -0.775000 1.875000 0.375000
v -0.375000 1.875000 0.375000
v -0.350000 1.750000 0.250000
v -0.725000 1.625000 0.125000
v -0.325000 1.625000 0.125000
v 0.025000 1.875000 0.375000
v 0.425000 1.875000 0.375000
v 0.400000 2.000000 0.500000
v 0.350000 1.500000 -0.000000
v 0.375000 1.625000 0.125000
v 0.400000 1.750000 0.250000
v 0.025000 1.625000 0.125000
v -0.350000 1.500000 -0.000000
v 0.787500 1.937500 0.437500
v 0.762500 1.812500 0.312500
v 0.737500 1.687500 0.187500
v 0.712500 1.562500 0.062500
v -0.600000 2.000000 0.500000
v -0.787500 1.937500 0.437500
v -0.587500 1.937500 0.437500
v -0.575000 1.875000 0.375000
v -0.762500 1.812500 0.312500
v -0.562500 1.812500 0.312500
v -0.387500 1.937500 0.437500
v -0.187500 1.937500 0.437500
v -0.200000 2.000000 0.500000
v -0.550000 1.750000 0.250000
v -0.737500 1.687500 0.187500
v -0.537500 1.687500 0.187500
v -0.525000 1.625000 0.125000
v -0.712500 1.562500 0.062500
v -0.512500 1.562500 0.062500
v -0.337500 1.687500 0.187500
v -0.137500 1.687500 0.187500
v -0.150000 1.750000 0.250000
v 0.037500 1.812500 0.312500
v 0.237500 1.812500 0.312500
v 0.225000 1.875000 0.375000
v 0.412500 1.937500 0.437500
v 0.612500 1.937500 0.437500
v 0.600000 2.000000 0.500000
v 0.212500 1.937500 0.437500
v 0.200000 2.000000 0.500000
v 0.012500 1.937500 0.437500
v -0.362500 1.812500 0.312500
v -0.162500 1.812500 0.312500
v -0.175000 1.875000 0.375000
v 0.525000 1.500000 -0.000000
v 0.537500 1.562500 0.062500
v 0.550000 1.625000 0.125000
v 0.562500 1.687500 0.187500
v 0.362500 1.562500 0.062500
v 0.187500 1.562500 0.062500
v 0.175000 1.500000 -0.000000
v 0.575000 1.750000 0.250000
v 0.587500 1.812500 0.312500
v 0.600000 1.875000 0.375000
v 0.412500 1.812500 0.312500
v 0.225000 1.750000 0.250000
v 0.037500 1.687500 0.187500
v -0.150000 1.625000 0.125000
v -0.337500 1.562500 0.062500
v -0.525000 1.500000 -0.000000
v -0.162500 1.562500 0.062500
v -0.175000 1.500000 -0.000000
v 0.012500 1.562500 0.062500
v 0.387500 1.687500 0.187500
v 0.212500 1.687500 0.187500
v 0.200000 1.625000 0.125000
v 0.793750 1.968750 0.468750
v 0.781250 1.906250 0.406250
v 0.768750 1.843750 0.343750
v 0.756250 1.781250 0.281250
v 0.743750 1.718750 0.218750
v 0.731250 1.656250 0.156250
v 0.718750 1.593750 0.093750
v 0.706250 1.531250 0.031250
v -0.700000 2.000000 0.500000
v -0.793750 1.968750 0.468750
v -0.693750 1.968750 0.468750
v -0.687500 1.937500 0.437500
v -0.781250 1.906250 0.406250
v -0.681250 1.906250 0.406250
v -0.593750 1.968750 0.468750
v -0.493750 1.968750 0.468750
v -0.500000 2.000000 0.500000
v -0.675000 1.875000 0.375000
v -0.768750 1.843750 0.343750
v -0.668750 1.843750 0.343750
v -0.662500 1.812500 0.312500
v -0.756250 1.781250 0.281250
v -0.656250 1.781250 0.281250
v -0.568750 1.843750 0.343750
v -0.468750 1.843750 0.343750
v -0.475000 1.875000 0.375000
v -0.381250 1.906250 0.406250
v -0.281250 1.906250 0.406250
v -0.287500 1.937500 0.437500
v -0.193750 1.968750 0.468750
v -0.093750 1.968750 0.468750
v -0.100000 2.000000 0.500000
v -0.293750 1.968750 0.468750
v -0.300000 2.000000 0.500000
v -0.393750 1.968750 0.468750
v -0.581250 1.906250 0.406250
v -0.481250 1.906250 0.406250
v -0.487500 1.937500 0.437500
v -0.650000 1.750000 0.250000
v -0.743750 1.718750 0.218750
v -0.643750 1.718750 0.218750
v -0.637500 1.687500 0.187500
v -0.731250 1.656250 0.156250
v -0.631250 1.656250 0.156250
v -0.543750 1.718750 0.218750
v -0.443750 1.718750 0.218750
v -0.450000 1.750000 0.250000
v -0.625000 1.625000 0.125000
v -0.718750 1.593750 0.093750
v -0.618750 1.593750 0.093750
v -0.612500 1.562500 0.062500
v -0.706250 1.531250 0.031250
v -0.606250 1.531250 0.031250
v -0.518750 1.593750 0.093750
v -0.418750 1.593750 0.093750
v -0.425000 1.625000 0.125000
v -0.331250 1.656250 0.156250
v -0.231250 1.656250 0.156250
v -0.237500 1.687500 0.187500
v -0.143750 1.718750 0.218750
v -0.043750 1.718750 0.218750
v -0.050000 1.750000 0.250000
v -0.243750 1.718750 0.218750
v -0.250000 1.750000 0.250000
v -0.343750 1.718750 0.218750
v -0.531250 1.656250 0.156250
v -0.431250 1.656250 0.156250
v -0.437500 1.687500 0.187500
v 0.043750 1.781250 0.281250
v 0.143750 1.781250 0.281250
v 0.137500 1.812500 0.312500
v 0.231250 1.843750 0.343750
v 0.331250 1.843750 0.343750
v 0.325000 1.875000 0.375000
v 0.131250 1.843750 0.343750
v 0.125000 1.875000 0.375000
v 0.031250 1.843750 0.343750
v 0.418750 1.906250 0.406250
v 0.518750 1.906250 0.406250
v 0.512500 1.937500 0.437500
v 0.606250 1.968750 0.468750
v 0.706250 1.968750 0.468750
v 0.700000 2.000000 0.500000
v 0.506250 1.968750 0.468750
v 0.500000 2.000000 0.500000
v 0.406250 1.968750 0.468750
v 0.306250 1.968750 0.468750
v 0.300000 2.000000 0.500000
v 0.206250 1.968750 0.468750
v 0.106250 1.968750 0.468750
v 0.100000 2.000000 0.500000
v 0.006250 1.968750 0.468750
v 0.112500 1.937500 0.437500
v 0.018750 1.906250 0.406250
v 0.118750 1.906250 0.406250
v 0.318750 1.906250 0.406250
v 0.312500 1.937500 0.437500
v 0.218750 1.906250 0.406250
v -0.556250 1.781250 0.281250
v -0.456250 1.781250 0.281250
v -0.356250 1.781250 0.281250
v -0.462500 1.812500 0.312500
v -0.368750 1.843750 0.343750
v -0.256250 1.781250 0.281250
v -0.156250 1.781250 0.281250
v -0.056250 1.781250 0.281250
v -0.062500 1.812500 0.312500
v -0.068750 1.843750 0.343750
v -0.075000 1.875000 0.375000
v -0.081250 1.906250 0.406250
v -0.087500 1.937500 0.437500
v -0.181250 1.906250 0.406250
v -0.275000 1.875000 0.375000
v -0.262500 1.812500 0.312500
v -0.168750 1.843750 0.343750
v -0.268750 1.843750 0.343750
v 0.612500 1.500000 -0.000000
v 0.618750 1.531250 0.031250
v 0.625000 1.562500 0.062500
v 0.631250 1.593750 0.093750
v 0.531250 1.531250 0.031250
v 0.443750 1.531250 0.031250
v 0.437500 1.500000 -0.000000
v 0.637500 1.625000 0.125000
v 0.643750 1.656250 0.156250
v 0.650000 1.687500 0.187500
v 0.656250 1.718750 0.218750
v 0.556250 1.656250 0.156250
v 0.468750 1.656250 0.156250
v 0.462500 1.625000 0.125000
v 0.368750 1.593750 0.093750
v 0.281250 1.593750 0.093750
v 0.275000 1.562500 0.062500
v 0.181250 1.531250 0.031250
v 0.093750 1.531250 0.031250
v 0.087500 1.500000 -0.000000
v 0.268750 1.531250 0.031250
v 0.262500 1.500000 -0.000000
v 0.356250 1.531250 0.031250
v 0.543750 1.593750 0.093750
v 0.456250 1.593750 0.093750
v 0.450000 1.562500 0.062500
v 0.662500 1.750000 0.250000
v 0.668750 1.781250 0.281250
v 0.675000 1.812500 0.312500
v 0.681250 1.843750 0.343750
v 0.581250 1.781250 0.281250
v 0.493750 1.781250 0.281250
v 0.487500 1.750000 0.250000
v 0.687500 1.875000 0.375000
v 0.693750 1.906250 0.406250
v 0.700000 1.937500 0.437500
v 0.606250 1.906250 0.406250
v 0.512500 1.875000 0.375000
v 0.418750 1.843750 0.343750
v 0.325000 1.812500 0.312500
v 0.231250 1.781250 0.281250
v 0.137500 1.750000 0.250000
v 0.318750 1.781250 0.281250
v 0.312500 1.750000 0.250000
v 0.406250 1.781250 0.281250
v 0.593750 1.843750 0.343750
v 0.506250 1.843750 0.343750
v 0.500000 1.812500 0.312500
v 0.043750 1.718750 0.218750
v -0.050000 1.687500 0.187500
v -0.143750 1.656250 0.156250
v -0.237500 1.625000 0.125000
v -0.056250 1.656250 0.156250
v -0.062500 1.625000 0.125000
v 0.031250 1.656250 0.156250
v -0.331250 1.593750 0.093750
v -0.425000 1.562500 0.062500
v -0.518750 1.531250 0.031250
v -0.612500 1.500000 -0.000000
v -0.431250 1.531250 0.031250
v -0.437500 1.500000 -0.000000
v -0.343750 1.531250 0.031250
v -0.256250 1.531250 0.031250
v -0.262500 1.500000 -0.000000
v -0.168750 1.531250 0.031250
v -0.081250 1.531250 0.031250
v -0.087500 1.500000 -0.000000
v 0.006250 1.531250 0.031250
v -0.075000 1.562500 0.062500
v 0.018750 1.593750 0.093750
v -0.068750 1.593750 0.093750
v -0.243750 1.593750 0.093750
v -0.250000 1.562500 0.062500
v -0.156250 1.593750 0.093750
v 0.568750 1.718750 0.218750
v 0.481250 1.718750 0.218750
v 0.393750 1.718750 0.218750
v 0.475000 1.687500 0.187500
v 0.381250 1.656250 0.156250
v 0.306250 1.718750 0.218750
v 0.218750 1.718750 0.218750
v 0.131250 1.718750 0.218750
v 0.125000 1.687500 0.187500
v 0.118750 1.656250 0.156250
v 0.112500 1.625000 0.125000
v 0.106250 1.593750 0.093750
v 0.100000 1.562500 0.062500
v 0.193750 1.593750 0.093750
v 0.287500 1.625000 0.125000
v 0.300000 1.687500 0.187500
v 0.206250 1.656250 0.156250
v 0.293750 1.656250 0.156250
vn -0.0000 -0.7071 0.7071
s 0
f 4//1 91//1 90//1
f 91//1 31//1 92//1
f 92//1 30//1 90//1
f 91//1 92//1 90//1
f 31//1 94//1 93//1
f 94//1 13//1 95//1
f 95//1 32//1 93//1
f 94//1 95//1 93//1
f 32//1 97//1 96//1
f 97//1 12//1 98//1
f 98//1 30//1 96//1
f 97//1 98//1 96//1
f 31//1 93//1 92//1
f 93//1 32//1 96//1
f 96//1 30//1 92//1
f 93//1 96//1 92//1
f 13//1 100//1 99//1
f 100//1 34//1 101//1
f 101//1 33//1 99//1
f 100//1 101//1 99//1
f 34//1 103//1 102//1
f 103//1 7//1 104//1
f 104//1 35//1 102//1
f 103//1 104//1 102//1
f 35//1 106//1 105//1
f 106//1 14//1 107//1
f 107//1 33//1 105//1
f 106//1 107//1 105//1
f 34//1 102//1 101//1
f 102//1 35//1 105//1
f 105//1 33//1 101//1
f 102//1 105//1 101//1
f 14//1 109//1 108//1
f 109//1 37//1 110//1
f 110//1 36//1 108//1
f 109//1 110//1 108//1
f 37//1 112//1 111//1
f 112//1 6//1 113//1
f 113//1 38//1 111//1
f 112//1 113//1 111//1
f 38//1 115//1 114//1
f 115//1 12//1 116//1
f 116//1 36//1 114//1
f 115//1 116//1 114//1
f 37//1 111//1 110//1
f 111//1 38//1 114//1
f 114//1 36//1 110//1
f 111//1 114//1 110//1
f 13//1 99//1 95//1
f 99//1 33//1 117//1
f 117//1 32//1 95//1
f 99//1 117//1 95//1
f 33//1 107//1 118//1
f 107//1 14//1 108//1
f 108//1 36//1 118//1
f 107//1 108//1 118//1
f 36//1 116//1 119//1
f 116//1 12//1 97//1
f 97//1 32//1 119//1
f 116//1 97//1 119//1
f 33//1 118//1 117//1
f 118//1 36//1 119//1
f 119//1 32//1 117//1
f 118//1 119//1 117//1
f 7//1 121//1 120//1
f 121//1 40//1 122//1
f 122//1 39//1 120//1
f 121//1 122//1 120//1
f 40//1 124//1 123//1
f 124//1 16//1 125//1
f 125//1 41//1 123//1
f 124//1 125//1 123//1
f 41//1 127//1 126//1
f 127//1 15//1 128//1
f 128//1 39//1 126//1
f 127//1 128//1 126//1
f 40//1 123//1 122//1
f 123//1 41//1 126//1
f 126//1 39//1 122//1
f 123//1 126//1 122//1
f 16//1 130//1 129//1
f 130//1 43//1 131//1
f 131//1 42//1 129//1
f 130//1 131//1 129//1
f 43//1 133//1 132//1
f 133//1 2//1 134//1
f 134//1 44//1 132//1
f 133//1 134//1 132//1
f 44//1 136//1 135//1
f 136//1 17//1 137//1
f 137//1 42//1 135//1
f 136//1 137//1 135//1
f 43//1 132//1 131//1
f 132//1 44//1 135//1
f 135//1 42//1 131//1
f 132//1 135//1 131//1
f 17//1 139//1 138//1
f 139//1 46//1 140//1
f 140//1 45//1 138//1
f 139//1 140//1 138//1
f 46//1 142//1 141//1
f 142//1 8//1 143//1
f 143//1 47//1 141//1
f 142//1 143//1 141//1
f 47//1 145//1 144//1
f 145//1 15//1 146//1
f 146//1 45//1 144//1
f 145//1 146//1 144//1
f 46//1 141//1 140//1
f 141//1 47//1 144//1
f 144//1 45//1 140//1
f 141//1 144//1 140//1
f 16//1 129//1 125//1
f 129//1 42//1 147//1
f 147//1 41//1 125//1
f 129//1 147//1 125//1
f 42//1 137//1 148//1
f 137//1 17//1 138//1
f 138//1 45//1 148//1
f 137//1 138//1 148//1
f 45//1 146//1 149//1
f 146//1 15//1 127//1
f 127//1 41//1 149//1
f 146//1 127//1 149//1
f 42//1 148//1 147//1
f 148//1 45//1 149//1
f 149//1 41//1 147//1
f 148//1 149//1 147//1
f 8//1 151//1 150//1
f 151//1 49//1 152//1
f 152//1 48//1 150//1
f 151//1 152//1 150//1
f 49//1 154//1 153//1
f 154//1 19//1 155//1
f 155//1 50//1 153//1
f 154//1 155//1 153//1
f 50//1 157//1 156//1
f 157//1 18//1 158//1
f 158//1 48//1 156//1
f 157//1 158//1 156//1
f 49//1 153//1 152//1
f 153//1 50//1 156//1
f 156//1 48//1 152//1
f 153//1 156//1 152//1
f 19//1 160//1 159//1
f 160//1 52//1 161//1
f 161//1 51//1 159//1
f 160//1 161//1 159//1
f 52//1 163//1 162//1
f 163//1 3//1 164//1
f 164//1 53//1 162//1
f 163//1 164//1 162//1
f 53//1 166//1 165//1
f 166//1 20//1 167//1
f 167//1 51//1 165//1
f 166//1 167//1 165//1
f 52//1 162//1 161//1
f 162//1 53//1 165//1
f 165//1 51//1 161//1
f 162//1 165//1 161//1
f 20//1 169//1 168//1
f 169//1 55//1 170//1
f 170//1 54//1 168//1
f 169//1 170//1 168//1
f 55//1 172//1 171//1
f 172//1 6//1 173//1
f 173//1 56//1 171//1
f 172//1 173//1 171//1
f 56//1 175//1 174//1
f 175//1 18//1 176//1
f 176//1 54//1 174//1
f 175//1 176//1 174//1
f 55//1 171//1 170//1
f 171//1 56//1 174//1
f 174//1 54//1 170//1
f 171//1 174//1 170//1
f 19//1 159//1 155//1
f 159//1 51//1 177//1
f 177//1 50//1 155//1
f 159//1 177//1 155//1
f 51//1 167//1 178//1
f 167//1 20//1 168//1
f 168//1 54//1 178//1
f 167//1 168//1 178//1
f 54//1 176//1 179//1
f 176//1 18//1 157//1
f 157//1 50//1 179//1
f 176//1 157//1 179//1
f 51//1 178//1 177//1
f 178//1 54//1 179//1
f 179//1 50//1 177//1
f 178//1 179//1 177//1
f 7//1 120//1 104//1
f 120//1 39//1 180//1
f 180//1 35//1 104//1
f 120//1 180//1 104//1
f 39//1 128//1 181//1
f 128//1 15//1 182//1
f 182//1 57//1 181//1
f 128//1 182//1 181//1
f 57//1 184//1 183//1
f 184//1 14//1 106//1
f 106//1 35//1 183//1
f 184//1 106//1 183//1
f 39//1 181//1 180//1
f 181//1 57//1 183//1
f 183//1 35//1 180//1
f 181//1 183//1 180//1
f 15//1 145//1 185//1
f 145//1 47//1 186//1
f 186//1 58//1 185//1
f 145//1 186//1 185//1
f 47//1 143//1 187//1
f 143//1 8//1 150//1
f 150//1 48//1 187//1
f 143//1 150//1 187//1
f 48//1 158//1 188//1
f 158//1 18//1 189//1
f 189//1 58//1 188//1
f 158//1 189//1 188//1
f 47//1 187//1 186//1
f 187//1 48//1 188//1
f 188//1 58//1 186//1
f 187//1 188//1 186//1
f 18//1 175//1 190//1
f 175//1 56//1 191//1
f 191//1 59//1 190//1
f 175//1 191//1 190//1
f 56//1 173//1 192//1
f 173//1 6//1 112//1
f 112//1 37//1 192//1
f 173//1 112//1 192//1
f 37//1 109//1 193//1
f 109//1 14//1 194//1
f 194//1 59//1 193//1
f 109//1 194//1 193//1
f 56//1 192//1 191//1
f 192//1 37//1 193//1
f 193//1 59//1 191//1
f 192//1 193//1 191//1
f 15//1 185//1 182//1
f 185//1 58//1 195//1
f 195//1 57//1 182//1
f 185//1 195//1 182//1
f 58//1 189//1 196//1
f 189//1 18//1 190//1
f 190//1 59//1 196//1
f 189//1 190//1 196//1
f 59//1 194//1 197//1
f 194//1 14//1 184//1
f 184//1 57//1 197//1
f 194//1 184//1 197//1
f 58//1 196//1 195//1
f 196//1 59//1 197//1
f 197//1 57//1 195//1
f 196//1 197//1 195//1
f 1//1 89//1 198//1
f 89//1 29//1 199//1
f 199//1 60//1 198//1
f 89//1 199//1 198//1
f 29//1 88//1 200//1
f 88//1 11//1 201//1
f 201//1 61//1 200//1
f 88//1 201//1 200//1
f 61//1 203//1 202//1
f 203//1 21//1 204//1
f 204//1 60//1 202//1
f 203//1 204//1 202//1
f 29//1 200//1 199//1
f 200//1 61//1 202//1
f 202//1 60//1 199//1
f 200//1 202//1 199//1
f 11//1 87//1 205//1
f 87//1 28//1 206//1
f 206//1 62//1 205//1
f 87//1 206//1 205//1
f 28//1 86//1 207//1
f 86//1 5//1 208//1
f 208//1 63//1 207//1
f 86//1 208//1 207//1
f 63//1 210//1 209//1
f 210//1 22//1 211//1
f 211//1 62//1 209//1
f 210//1 211//1 209//1
f 28//1 207//1 206//1
f 207//1 63//1 209//1
f 209//1 62//1 206//1
f 207//1 209//1 206//1
f 22//1 213//1 212//1
f 213//1 65//1 214//1
f 214//1 64//1 212//1
f 213//1 214//1 212//1
f 65//1 216//1 215//1
f 216//1 9//1 217//1
f 217//1 66//1 215//1
f 216//1 217//1 215//1
f 66//1 219//1 218//1
f 219//1 21//1 220//1
f 220//1 64//1 218//1
f 219//1 220//1 218//1
f 65//1 215//1 214//1
f 215//1 66//1 218//1
f 218//1 64//1 214//1
f 215//1 218//1 214//1
f 11//1 205//1 201//1
f 205//1 62//1 221//1
f 221//1 61//1 201//1
f 205//1 221//1 201//1
f 62//1 211//1 222//1
f 211//1 22//1 212//1
f 212//1 64//1 222//1
f 211//1 212//1 222//1
f 64//1 220//1 223//1
f 220//1 21//1 203//1
f 203//1 61//1 223//1
f 220//1 203//1 223//1
f 62//1 222//1 221//1
f 222//1 64//1 223//1
f 223//1 61//1 221//1
f 222//1 223//1 221//1
f 5//1 85//1 224//1
f 85//1 27//1 225//1
f 225//1 67//1 224//1
f 85//1 225//1 224//1
f 27//1 84//1 226//1
f 84//1 10//1 227//1
f 227//1 68//1 226//1
f 84//1 227//1 226//1
f 68//1 229//1 228//1
f 229//1 23//1 230//1
f 230//1 67//1 228//1
f 229//1 230//1 228//1
f 27//1 226//1 225//1
f 226//1 68//1 228//1
f 228//1 67//1 225//1
f 226//1 228//1 225//1
f 10//1 83//1 231//1
f 83//1 26//1 232//1
f 232//1 69//1 231//1
f 83//1 232//1 231//1
f 26//1 82//1 233//1
f 82//1 3//1 163//1
f 163//1 52//1 233//1
f 82//1 163//1 233//1
f 52//1 160//1 234//1
f 160//1 19//1 235//1
f 235//1 69//1 234//1
f 160//1 235//1 234//1
f 26//1 233//1 232//1
f 233//1 52//1 234//1
f 234//1 69//1 232//1
f 233//1 234//1 232//1
f 19//1 154//1 236//1
f 154//1 49//1 237//1
f 237//1 70//1 236//1
f 154//1 237//1 236//1
f 49//1 151//1 238//1
f 151//1 8//1 239//1
f 239//1 71//1 238//1
f 151//1 239//1 238//1
f 71//1 241//1 240//1
f 241//1 23//1 242//1
f 242//1 70//1 240//1
f 241//1 242//1 240//1
f 49//1 238//1 237//1
f 238//1 71//1 240//1
f 240//1 70//1 237//1
f 238//1 240//1 237//1
f 10//1 231//1 227//1
f 231//1 69//1 243//1
f 243//1 68//1 227//1
f 231//1 243//1 227//1
f 69//1 235//1 244//1
f 235//1 19//1 236//1
f 236//1 70//1 244//1
f 235//1 236//1 244//1
f 70//1 242//1 245//1
f 242//1 23//1 229//1
f 229//1 68//1 245//1
f 242//1 229//1 245//1
f 69//1 244//1 243//1
f 244//1 70//1 245//1
f 245//1 68//1 243//1
f 244//1 245//1 243//1
f 8//1 142//1 246//1
f 142//1 46//1 247//1
f 247//1 72//1 246//1
f 142//1 247//1 246//1
f 46//1 139//1 248//1
f 139//1 17//1 249//1
f 249//1 73//1 248//1
f 139//1 249//1 248//1
f 73//1 251//1 250//1
f 251//1 24//1 252//1
f 252//1 72//1 250//1
f 251//1 252//1 250//1
f 46//1 248//1 247//1
f 248//1 73//1 250//1
f 250//1 72//1 247//1
f 248//1 250//1 247//1
f 17//1 136//1 253//1
f 136//1 44//1 254//1
f 254//1 74//1 253//1
f 136//1 254//1 253//1
f 44//1 134//1 255//1
f 134//1 2//1 256//1
f 256//1 75//1 255//1
f 134//1 256//1 255//1
f 75//1 258//1 257//1
f 258//1 25//1 259//1
f 259//1 74//1 257//1
f 258//1 259//1 257//1
f 44//1 255//1 254//1
f 255//1 75//1 257//1
f 257//1 74//1 254//1
f 255//1 257//1 254//1
f 25//1 261//1 260//1
f 261//1 77//1 262//1
f 262//1 76//1 260//1
f 261//1 262//1 260//1
f 77//1 264//1 263//1
f 264//1 9//1 265//1
f 265//1 78//1 263//1
f 264//1 265//1 263//1
f 78//1 267//1 266//1
f 267//1 24//1 268//1
f 268//1 76//1 266//1
f 267//1 268//1 266//1
f 77//1 263//1 262//1
f 263//1 78//1 266//1
f 266//1 76//1 262//1
f 263//1 266//1 262//1
f 17//1 253//1 249//1
f 253//1 74//1 269//1
f 269//1 73//1 249//1
f 253//1 269//1 249//1
f 74//1 259//1 270//1
f 259//1 25//1 260//1
f 260//1 76//1 270//1
f 259//1 260//1 270//1
f 76//1 268//1 271//1
f 268//1 24//1 251//1
f 251//1 73//1 271//1
f 268//1 251//1 271//1
f 74//1 270//1 269//1
f 270//1 76//1 271//1
f 271//1 73//1 269//1
f 270//1 271//1 269//1
f 5//1 224//1 208//1
f 224//1 67//1 272//1
f 272//1 63//1 208//1
f 224//1 272//1 208//1
f 67//1 230//1 273//1
f 230//1 23//1 274//1
f 274//1 79//1 273//1
f 230//1 274//1 273//1
f 79//1 276//1 275//1
f 276//1 22//1 210//1
f 210//1 63//1 275//1
f 276//1 210//1 275//1
f 67//1 273//1 272//1
f 273//1 79//1 275//1
f 275//1 63//1 272//1
f 273//1 275//1 272//1
f 23//1 241//1 277//1
f 241//1 71//1 278//1
f 278//1 80//1 277//1
f 241//1 278//1 277//1
f 71//1 239//1 279//1
f 239//1 8//1 246//1
f 246//1 72//1 279//1
f 239//1 246//1 279//1
f 72//1 252//1 280//1
f 252//1 24//1 281//1
f 281//1 80//1 280//1
f 252//1 281//1 280//1
f 71//1 279//1 278//1
f 279//1 72//1 280//1
f 280//1 80//1 278//1
f 279//1 280//1 278//1
f 24//1 267//1 282//1
f 267//1 78//1 283//1
f 283//1 81//1 282//1
f 267//1 283//1 282//1
f 78//1 265//1 284//1
f 265//1 9//1 216//1
f 216//1 65//1 284//1
f 265//1 216//1 284//1
f 65//1 213//1 285//1
f 213//1 22//1 286//1
f 286//1 81//1 285//1
f 213//1 286//1 285//1
f 78//1 284//1 283//1
f 284//1 65//1 285//1
f 285//1 81//1 283//1
f 284//1 285//1 283//1
f 23//1 277//1 274//1
f 277//1 80//1 287//1
f 287//1 79//1 274//1
f 277//1 287//1 274//1
f 80//1 281//1 288//1
f 281//1 24//1 282//1
f 282//1 81//1 288//1
f 281//1 282//1 288//1
f 81//1 286//1 289//1
f 286//1 22//1 276//1
f 276//1 79//1 289//1
f 286//1 276//1 289//1
f 80//1 288//1 287//1
f 288//1 81//1 289//1
f 289//1 79//1 287//1
f 288//1 289//1 287//1
