####
#
# OBJ File Generated by Meshlab
#
####
# Object head_part08_seg_01.obj
#
# Vertices: 161
# Faces: 170
#
####
vn 0.023875 0.778640 -2.646762
v -1.203138 -0.109629 -0.048687
vn -1.971519 -0.422427 -4.406662
v -1.242385 -0.170578 -0.052431
vn 0.000000 0.000000 0.000000
v -1.152308 -0.058144 0.017447
vn 0.000000 0.000000 0.000000
v -1.119780 -0.307975 -0.005674
vn -1.999710 2.100735 -3.427501
v -1.254563 -0.078542 -0.031986
vn 0.000000 0.000000 0.000000
v -1.123990 -0.180916 -0.023747
vn 0.000000 0.000000 0.000000
v -1.124575 -0.459954 0.034146
vn 0.000000 0.000000 0.000000
v -1.105371 -0.347175 0.061766
vn -4.373574 2.491860 -2.070633
v -1.283369 -0.041321 0.043743
vn -1.492430 -1.108613 -2.364889
v -1.189547 -0.572373 0.075060
vn -1.697307 -1.756331 -4.342511
v -1.213442 -0.460101 0.021632
vn -1.438350 -0.830834 -2.418693
v -1.187422 -0.333080 -0.021353
vn -5.784251 -0.077881 -2.075188
v -1.282364 -0.136899 0.016612
vn 0.000000 0.000000 0.000000
v -1.097690 -0.486123 0.093619
vn 0.000000 0.000000 0.000000
v -1.117843 -0.125383 0.105752
vn -4.774969 -1.337211 -3.224753
v -1.261952 -0.260276 0.001590
vn 0.000000 0.000000 0.000000
v -1.116571 -0.098101 0.055282
vn -5.210000 -1.197690 -2.862416
v -1.257620 -0.440382 0.071399
vn -3.857018 -2.176007 -3.527854
v -1.243767 -0.637256 0.136436
vn 0.000000 0.000000 0.000000
v -1.103851 -0.219128 0.043477
vn -1.431840 2.438321 -1.475457
v -1.236654 -0.007422 0.051337
vn -1.358392 -2.135624 -2.548049
v -1.197835 -0.735166 0.180329
vn 0.000000 0.000000 0.000000
v -1.092793 -0.577201 0.179314
vn 0.000000 0.000000 0.000000
v -1.112673 -0.405462 0.194439
vn -5.085130 2.186327 -1.556110
v -1.299463 -0.011200 0.140109
vn 0.000000 0.000000 0.000000
v -1.178579 0.023442 0.126468
vn 0.000000 0.000000 0.000000
v -1.121263 -0.631082 0.127908
vn -6.138454 -0.349240 -1.020787
v -1.307711 -0.228130 0.155668
vn 0.000000 0.000000 0.000000
v -1.135690 -0.038492 0.180369
vn -5.938109 -1.182734 -1.142663
v -1.275090 -0.601570 0.199406
vn -1.599211 1.800782 -1.196685
v -1.238547 0.062860 0.170151
vn 0.000000 0.000000 0.000000
v -1.122108 -0.247763 0.158839
vn 0.000000 0.000000 0.000000
v -1.182681 0.083053 0.254663
vn -4.451641 -2.652756 -2.240925
v -1.239858 -0.743127 0.218209
vn -6.164938 0.239075 -0.019634
v -1.321409 -0.045818 0.312974
vn 0.242262 -1.656700 -1.890995
v -1.132771 -0.799048 0.252320
vn -1.319287 -2.309271 -1.949376
v -1.132754 -0.920324 0.342685
vn -2.908490 1.845745 -1.079149
v -1.283293 0.093210 0.270209
vn -5.825236 -1.946896 0.128257
v -1.238857 -0.772622 0.319310
vn -2.698505 -3.426482 -2.919858
v -1.195406 -0.849322 0.288341
vn 0.000000 0.000000 0.000000
v -1.074511 -0.772282 0.299877
vn 0.000000 0.000000 0.000000
v -1.091128 -0.684836 0.230511
vn 0.000000 0.000000 0.000000
v -1.065510 -0.849413 0.347324
vn -6.085325 -1.007062 0.656860
v -1.286604 -0.554805 0.326026
vn -0.259594 2.768491 0.043508
v -1.215641 0.130116 0.367712
vn -6.157167 -0.570351 -0.401415
v -1.309347 -0.378394 0.251659
vn 0.000000 0.000000 0.000000
v -1.092794 -0.531238 0.300594
vn 0.000000 0.000000 0.000000
v -1.120171 -0.250608 0.322510
vn 0.000000 0.000000 0.000000
v -1.097001 -0.387691 0.384053
vn -3.956757 2.601537 -0.671237
v -1.318276 0.095448 0.345000
vn 0.000000 0.000000 0.000000
v -1.155030 0.111423 0.375258
vn 0.000000 0.000000 0.000000
v -1.051739 -0.701181 0.371434
vn -6.105844 -0.494434 1.152775
v -1.300245 -0.309574 0.418852
vn -2.240639 -2.133257 -1.694143
v -1.105841 -1.033790 0.427708
vn 0.000000 0.000000 0.000000
v -1.044163 -0.968570 0.408029
vn 0.000000 0.000000 0.000000
v -1.012578 -0.854651 0.441808
vn 0.000000 0.000000 0.000000
v -1.121369 0.074746 0.427770
vn -4.954504 -2.743410 -1.301914
v -1.172037 -0.949128 0.416876
vn 0.000000 0.000000 0.000000
v -0.975949 -1.086819 0.498898
vn -5.924788 -1.155098 1.631117
v -1.221905 -0.712021 0.476461
vn 0.000000 0.000000 0.000000
v -1.062095 -0.511226 0.439056
vn 0.000000 0.000000 0.000000
v -1.123421 0.017286 0.367701
vn 0.000000 0.000000 0.000000
v -1.097865 0.011994 0.487348
vn -2.176327 -3.826901 -2.555120
v -1.085854 -1.115070 0.492653
vn -1.720064 4.936785 1.115858
v -1.272619 0.123947 0.420241
vn 0.138550 -2.021178 -1.925326
v -1.030134 -1.095270 0.476948
vn 0.000000 0.000000 0.000000
v -0.980412 -0.993513 0.484509
vn -4.863691 1.887092 1.684100
v -1.309784 0.081022 0.436032
vn -5.211402 -2.981078 -0.551827
v -1.126224 -1.075431 0.536230
vn 0.216832 2.592658 1.087187
v -1.156879 0.083154 0.499139
vn 0.000000 0.000000 0.000000
v -1.092287 -0.006797 0.557864
vn -5.913108 -0.767322 1.934575
v -1.254048 -0.402256 0.539461
vn -2.440576 3.320957 2.927741
v -1.253440 0.077218 0.524777
vn -6.078487 -1.234200 0.703687
v -1.172970 -0.923652 0.522847
vn -5.899013 -0.921668 1.954520
v -1.183159 -0.833696 0.533566
vn -1.722084 -4.789243 -1.512541
v -1.048342 -1.162187 0.561397
vn 0.400468 -2.613821 -0.753214
v -0.979461 -1.161644 0.565716
vn 0.000000 0.000000 0.000000
v -0.932108 -1.076831 0.577194
vn -6.001485 -1.344453 0.736432
v -1.145769 -0.997962 0.656352
vn -6.058796 -0.855058 1.324812
v -1.194712 -0.584668 0.642721
vn -0.779415 2.432822 1.756794
v -1.146083 0.018771 0.632977
vn -5.908227 -0.127631 1.988212
v -1.274642 -0.180216 0.546257
vn 0.000000 0.000000 0.000000
v -0.985976 -0.738952 0.625097
vn 0.000000 0.000000 0.000000
v -1.072534 -0.071365 0.661059
vn -4.262424 -2.980678 3.058649
v -1.200048 -0.662292 0.550840
vn -2.073275 3.868156 3.083253
v -1.211407 0.046287 0.587971
vn -5.692652 -1.137227 1.655121
v -1.181926 -0.680959 0.573768
vn 0.000000 0.000000 0.000000
v -1.063823 -0.241117 0.552444
vn 0.000000 0.000000 0.000000
v -0.920282 -1.098917 0.656525
vn 0.000000 0.000000 0.000000
v -1.012390 -0.649023 0.565075
vn -5.953945 -0.723905 1.718393
v -1.203163 -0.410269 0.662267
vn -5.719772 0.464079 2.227930
v -1.286449 -0.023478 0.505335
vn 0.000000 0.000000 0.000000
v -0.957923 -0.888279 0.635409
vn -0.276054 -4.713761 1.130788
v -1.025845 -1.175125 0.657862
vn -5.988854 -1.508121 0.151921
v -1.204421 -0.314658 0.765242
vn 1.249285 -2.128770 1.143016
v -0.965858 -1.139969 0.668482
vn 0.000000 0.000000 0.000000
v -0.932716 -1.020635 0.703530
vn -4.753984 2.742041 2.179737
v -1.210619 -0.047075 0.673186
vn 0.000000 0.000000 0.000000
v -1.001591 -0.516078 0.676344
vn 0.000000 0.000000 0.000000
v -1.017607 -0.403309 0.659928
vn 0.000000 0.000000 0.000000
v -0.938539 -0.900767 0.726966
vn -4.559793 -3.689622 0.818648
v -1.096866 -1.119585 0.669464
vn -5.643096 -0.716461 2.053609
v -1.131963 -0.975376 0.761410
vn -6.067176 -0.278166 1.401512
v -1.226743 -0.220065 0.662261
vn 0.000000 0.000000 0.000000
v -0.975425 -0.654774 0.724635
vn -6.074486 -0.302274 1.486242
v -1.141500 -0.877082 0.722071
vn 0.000000 0.000000 0.000000
v -0.995977 -0.423719 0.748810
vn -1.418000 2.585970 0.799019
v -1.140283 -0.032410 0.754024
vn -6.084293 -0.695929 1.239133
v -1.163874 -0.785484 0.617671
vn 0.000000 0.000000 0.000000
v -1.032963 -0.130836 0.757204
vn 0.000000 0.000000 0.000000
v -0.953570 -0.813358 0.765542
vn -5.887959 -0.232375 2.029344
v -1.164791 -0.455867 0.812886
vn -5.692730 -1.172121 1.980121
v -1.152917 -0.733233 0.778324
vn -5.884657 -1.135225 1.544212
v -1.170701 -0.643425 0.776235
vn -4.559261 -2.761674 0.034755
v -1.241438 -0.303856 0.880782
vn -6.011871 -1.039414 1.406259
v -1.144301 -0.809922 0.738826
vn -5.811170 -0.388168 1.632097
v -1.176906 -0.566257 0.808000
vn 0.000000 0.000000 0.000000
v -0.992970 -0.299399 0.813579
vn 0.000000 0.000000 0.000000
v -0.989230 -0.528252 0.788507
vn -6.201812 0.502381 -0.343472
v -1.223893 -0.165288 0.773951
vn -4.294434 3.720578 0.650308
v -1.206250 -0.087072 0.840639
vn -3.634678 -2.619988 2.827331
v -1.109026 -1.064172 0.756724
vn 0.000000 0.000000 0.000000
v -1.020047 -0.238392 0.729140
vn -0.511303 -3.676862 3.123848
v -1.049900 -1.133137 0.731622
vn -0.055781 -1.624948 2.946459
v -1.036213 -1.041870 0.789093
vn -3.415111 -5.048684 -0.634972
v -1.193723 -0.339203 0.836156
vn 0.000000 0.000000 0.000000
v -1.017161 -0.417766 0.864822
vn 0.000000 0.000000 0.000000
v -1.073359 -0.090116 0.806763
vn -5.720022 -0.057011 0.100261
v -1.256761 -0.228990 0.897653
vn -2.360125 -1.339657 4.324876
v -1.101626 -0.989877 0.808495
vn -4.793219 -0.952881 3.644316
v -1.111392 -0.857871 0.801598
vn 0.000000 0.000000 0.000000
v -0.987625 -0.228167 0.829752
vn 0.000000 0.000000 0.000000
v -0.968230 -0.914401 0.782001
vn -3.803330 -1.290336 4.132069
v -1.106770 -0.784881 0.844989
vn -3.986866 -0.344194 3.780477
v -1.145293 -0.545553 0.887473
vn -3.911428 -1.453689 4.204551
v -1.123406 -0.640360 0.874022
vn -4.531279 -2.838429 2.866078
v -1.141218 -0.379058 0.890182
vn 0.000000 0.000000 0.000000
v -1.014150 -0.164325 0.855412
vn -1.103290 2.571797 0.588079
v -1.150592 -0.068613 0.864333
vn 0.000000 0.000000 0.000000
v -1.005038 -0.804991 0.829543
vn -1.290868 -0.697853 2.667317
v -1.057211 -0.860272 0.835502
vn 0.000000 0.000000 0.000000
v -1.007041 -0.657559 0.835988
vn 0.000000 0.000000 0.000000
v -1.116907 -0.119496 0.935239
vn -0.300460 -1.009614 2.894134
v -1.060965 -0.429778 0.921569
vn -3.029853 -4.875516 2.267474
v -1.172575 -0.338923 0.925028
vn -2.238984 -0.709033 2.417023
v -1.084451 -0.733853 0.872105
vn -1.050751 -0.540655 2.583529
v -1.071577 -0.659500 0.891096
vn -1.231785 -0.460188 3.125178
v -1.085405 -0.555854 0.910406
vn -0.338726 -3.321659 4.502900
v -1.115109 -0.311332 1.005862
vn 0.663005 -1.244478 2.056018
v -1.044103 -0.322998 0.971227
vn -3.803810 -2.840495 2.550253
v -1.222454 -0.288781 0.969608
vn 0.000000 0.000000 0.000000
v -1.004779 -0.247328 0.924092
vn -3.471216 -0.445774 4.850945
v -1.111029 -0.459271 0.905799
vn -1.312455 -3.025259 5.076921
v -1.080429 -0.383242 0.943054
vn -4.569601 1.854919 1.946573
v -1.237496 -0.156005 0.967153
vn 0.000000 0.000000 0.000000
v -1.064654 -0.191077 0.996164
vn -1.971250 2.486114 1.324468
v -1.190447 -0.101343 0.957532
vn 0.041090 1.412737 2.669660
v -1.141505 -0.160682 1.018394
vn -1.776794 1.528331 4.537690
v -1.189735 -0.178415 1.028520
vn -3.088569 -1.176825 3.929979
v -1.210040 -0.239610 1.017287
vn 0.014084 -0.717866 2.851353
v -1.096924 -0.240370 1.035467
# 161 vertices, 0 vertices normals

f 30//30 18//18 19//19
f 19//19 18//18 10//10
f 141//141 134//134 131//131
f 58//58 40//40 37//37
f 39//39 40//40 58//58
f 44//44 39//39 60//60
f 136//136 117//117 114//114
f 122//122 124//124 125//125
f 125//125 130//130 122//122
f 60//60 58//58 74//74
f 39//39 58//58 60//60
f 112//112 135//135 153//153
f 137//137 112//112 153//153
f 38//38 25//25 35//35
f 113//113 114//114 80//80
f 124//124 102//102 94//94
f 69//69 58//58 54//54
f 74//74 58//58 69//69
f 80//80 114//114 117//117
f 122//122 102//102 124//124
f 135//135 136//136 148//148
f 60//60 74//74 75//75
f 60//60 87//87 85//85
f 80//80 85//85 87//87
f 160//160 155//155 129//129
f 155//155 121//121 129//129
f 155//155 157//157 121//121
f 92//92 53//53 82//82
f 68//68 92//92 73//73
f 79//79 69//69 102//102
f 106//106 109//109 79//79
f 80//80 87//87 109//109
f 13//13 9//9 5//5
f 25//25 28//28 35//35
f 38//38 35//35 50//50
f 53//53 60//60 72//72
f 82//82 53//53 72//72
f 80//80 91//91 72//72
f 112//112 80//80 117//117
f 91//91 80//80 112//112
f 95//95 91//91 112//112
f 112//112 137//137 95//95
f 126//126 95//95 137//137
f 115//115 95//95 126//126
f 115//115 129//129 95//95
f 121//121 120//120 129//129
f 28//28 46//46 35//35
f 104//104 72//72 91//91
f 112//112 117//117 135//135
f 126//126 137//137 145//145
f 115//115 126//126 145//145
f 2//2 16//16 13//13
f 16//16 12//12 18//18
f 9//9 13//13 25//25
f 25//25 21//21 9//9
f 74//74 69//69 79//79
f 79//79 109//109 74//74
f 109//109 75//75 74//74
f 109//109 60//60 75//75
f 109//109 87//87 60//60
f 146//146 136//136 113//113
f 136//136 114//114 113//113
f 117//117 136//136 135//135
f 141//141 131//131 130//130
f 50//50 35//35 68//68
f 104//104 82//82 72//72
f 86//86 92//92 98//98
f 95//95 104//104 91//91
f 98//98 82//82 104//104
f 92//92 82//82 98//98
f 135//135 148//148 153//153
f 115//115 145//145 151//151
f 151//151 129//129 115//115
f 151//151 160//160 129//129
f 30//30 46//46 18//18
f 46//46 28//28 18//18
f 16//16 18//18 28//28
f 28//28 25//25 13//13
f 16//16 28//28 13//13
f 39//39 34//34 40//40
f 46//46 30//30 44//44
f 30//30 34//34 39//39
f 39//39 44//44 30//30
f 80//80 60//60 85//85
f 80//80 72//72 60//60
f 120//120 95//95 129//129
f 104//104 95//95 120//120
f 98//98 104//104 120//120
f 120//120 121//121 98//98
f 121//121 108//108 98//98
f 46//46 44//44 53//53
f 35//35 46//46 53//53
f 130//130 103//103 122//122
f 130//130 131//131 103//103
f 103//103 131//131 106//106
f 116//116 106//106 131//131
f 131//131 113//113 116//116
f 113//113 131//131 134//134
f 146//146 113//113 134//134
f 35//35 53//53 92//92
f 68//68 35//35 92//92
f 65//65 50//50 68//68
f 69//69 76//76 102//102
f 79//79 102//102 122//122
f 103//103 79//79 122//122
f 106//106 79//79 103//103
f 116//116 109//109 106//106
f 116//116 113//113 109//109
f 113//113 80//80 109//109
f 146//146 134//134 141//141
f 136//136 146//146 147//147
f 151//151 145//145 149//149
f 151//151 149//149 160//160
f 155//155 160//160 159//159
f 34//34 22//22 40//40
f 30//30 19//19 34//34
f 19//19 22//22 34//34
f 161//161 160//160 149//149
f 53//53 44//44 60//60
f 154//154 153//153 144//144
f 154//154 137//137 153//153
f 137//137 154//154 149//149
f 149//149 145//145 137//137
f 150//150 149//149 154//154
f 38//38 50//50 65//65
f 58//58 37//37 54//54
f 73//73 86//86 70//70
f 124//124 94//94 96//96
f 69//69 54//54 64//64
f 124//124 96//96 125//125
f 64//64 54//54 66//66
f 38//38 31//31 25//25
f 157//157 139//139 121//121
f 18//18 11//11 10//10
f 45//45 38//38 65//65
f 73//73 65//65 68//68
f 73//73 70//70 65//65
f 9//9 21//21 5//5
f 121//121 139//139 108//108
f 161//161 149//149 150//150
f 2//2 12//12 16//16
f 13//13 5//5 2//2
f 21//21 1//1 5//5
f 11//11 12//12 10//10
f 18//18 12//12 11//11
f 31//31 21//21 25//25
f 141//141 130//130 125//125
f 12//12 2//2 1//1
f 5//5 1//1 2//2
f 73//73 92//92 86//86
f 81//81 86//86 98//98
f 22//22 19//19 10//10
f 36//36 37//37 40//40
f 69//69 64//64 76//76
f 76//76 64//64 66//66
f 76//76 66//66 77//77
f 81//81 98//98 108//108
f 94//94 77//77 96//96
f 76//76 77//77 94//94
f 102//102 76//76 94//94
f 148//148 136//136 147//147
f 157//157 155//155 159//159
f 157//157 159//159 158//158
f 36//36 40//40 22//22
f 86//86 81//81 70//70
f 161//161 159//159 160//160
f 158//158 159//159 161//161
f 70//70 45//45 65//65
f 144//144 153//153 148//148
f 150//150 154//154 144//144
# 170 faces, 0 coords texture

# End of File
