####
#
# OBJ File Generated by Meshlab
#
####
# Object head_part08_seg_00.obj
#
# Vertices: 161
# Faces: 148
#
####
vn 0.395098 0.369760 -0.840937
v -1.203138 -0.109629 -0.048687
vn 0.000000 0.000000 0.000000
v -1.242385 -0.170578 -0.052431
vn 0.582822 0.614514 -0.531687
v -1.152308 -0.058144 0.017447
vn 0.712099 -0.131947 -0.689569
v -1.119780 -0.307975 -0.005674
vn 0.000000 0.000000 0.000000
v -1.254563 -0.078542 -0.031986
vn 0.698190 0.074084 -0.712069
v -1.123990 -0.180916 -0.023747
vn 0.566281 -0.281606 -0.774612
v -1.124575 -0.459954 0.034146
vn 0.995582 -0.011291 -0.093213
v -1.105371 -0.347175 0.061766
vn 0.000000 0.000000 0.000000
v -1.283369 -0.041321 0.043743
vn 0.209482 -0.468427 -0.858308
v -1.189547 -0.572373 0.075060
vn 0.000000 0.000000 0.000000
v -1.213442 -0.460101 0.021632
vn 0.250147 -0.213728 -0.944323
v -1.187422 -0.333080 -0.021353
vn 0.000000 0.000000 0.000000
v -1.282364 -0.136899 0.016612
vn 0.968508 -0.075268 -0.237332
v -1.097690 -0.486123 0.093619
vn 0.988468 0.078537 0.129473
v -1.117843 -0.125383 0.105752
vn 0.000000 0.000000 0.000000
v -1.261952 -0.260276 0.001590
vn 0.935541 0.316461 -0.156894
v -1.116571 -0.098101 0.055282
vn 0.000000 0.000000 0.000000
v -1.257620 -0.440382 0.071399
vn 0.000000 0.000000 0.000000
v -1.243767 -0.637256 0.136436
vn 0.996980 0.032985 -0.070307
v -1.103851 -0.219128 0.043477
vn 0.223705 0.793526 -0.565926
v -1.236654 -0.007422 0.051337
vn 0.249743 -0.575813 -0.778504
v -1.197835 -0.735166 0.180329
vn 0.988022 -0.048119 -0.146618
v -1.092793 -0.577201 0.179314
vn 0.995816 0.090735 0.010888
v -1.112673 -0.405462 0.194439
vn 0.000000 0.000000 0.000000
v -1.299463 -0.011200 0.140109
vn 0.579010 0.728696 -0.365717
v -1.178579 0.023442 0.126468
vn 0.618548 -0.423539 -0.661825
v -1.121263 -0.631082 0.127908
vn 0.000000 0.000000 0.000000
v -1.307711 -0.228130 0.155668
vn 0.954872 0.284596 -0.084996
v -1.135690 -0.038492 0.180369
vn 0.000000 0.000000 0.000000
v -1.275090 -0.601570 0.199406
vn 0.201352 0.899868 -0.386906
v -1.238547 0.062860 0.170151
vn 0.995850 0.051489 0.075044
v -1.122108 -0.247763 0.158839
vn 0.530874 0.787578 -0.312879
v -1.182681 0.083053 0.254663
vn 0.000000 0.000000 0.000000
v -1.239858 -0.743127 0.218209
vn 0.000000 0.000000 0.000000
v -1.321409 -0.045818 0.312974
vn 0.620843 -0.432583 -0.653778
v -1.132771 -0.799048 0.252320
vn 0.447942 -0.441401 -0.777505
v -1.132754 -0.920324 0.342685
vn 0.044926 0.944256 -0.326133
v -1.283293 0.093210 0.270209
vn 0.000000 0.000000 0.000000
v -1.238857 -0.772622 0.319310
vn 0.000000 0.000000 0.000000
v -1.195406 -0.849322 0.288341
vn 0.863174 -0.194391 -0.465986
v -1.074511 -0.772282 0.299877
vn 0.923165 -0.164159 -0.347590
v -1.091128 -0.684836 0.230511
vn 0.758180 -0.237156 -0.607388
v -1.065510 -0.849413 0.347324
vn 0.000000 0.000000 0.000000
v -1.286604 -0.554805 0.326026
vn 0.232876 0.959447 -0.158842
v -1.215641 0.130116 0.367712
vn 0.000000 0.000000 0.000000
v -1.309347 -0.378394 0.251659
vn 0.982903 0.114624 -0.144096
v -1.092794 -0.531238 0.300594
vn 0.990010 0.061915 -0.126679
v -1.120171 -0.250608 0.322510
vn 0.968772 0.112953 -0.220732
v -1.097001 -0.387691 0.384053
vn 0.000000 0.000000 0.000000
v -1.318276 0.095448 0.345000
vn 0.625388 0.772303 -0.111527
v -1.155030 0.111423 0.375258
vn 0.958708 0.078909 -0.273226
v -1.051739 -0.701181 0.371434
vn 0.000000 0.000000 0.000000
v -1.300245 -0.309574 0.418852
vn 0.238617 -0.480326 -0.844008
v -1.105841 -1.033790 0.427708
vn 0.573861 -0.303651 -0.760578
v -1.044163 -0.968570 0.408029
vn 0.920649 0.054250 -0.386604
v -1.012578 -0.854651 0.441808
vn 0.848452 0.529196 -0.009046
v -1.121369 0.074746 0.427770
vn 0.000000 0.000000 0.000000
v -1.172037 -0.949128 0.416876
vn 0.644012 -0.315081 -0.697117
v -0.975949 -1.086819 0.498898
vn 0.000000 0.000000 0.000000
v -1.221905 -0.712021 0.476461
vn 0.958988 0.134009 -0.249768
v -1.062095 -0.511226 0.439056
vn 0.954651 0.204038 -0.216820
v -1.123421 0.017286 0.367701
vn 0.942341 0.333992 -0.021051
v -1.097865 0.011994 0.487348
vn 0.000000 0.000000 0.000000
v -1.085854 -1.115070 0.492653
vn 0.000000 0.000000 0.000000
v -1.272619 0.123947 0.420241
vn 0.432605 -0.383574 -0.815919
v -1.030134 -1.095270 0.476948
vn 0.849067 -0.009399 -0.528201
v -0.980412 -0.993513 0.484509
vn 0.000000 0.000000 0.000000
v -1.309784 0.081022 0.436032
vn 0.000000 0.000000 0.000000
v -1.126224 -1.075431 0.536230
vn 0.669293 0.703994 0.237572
v -1.156879 0.083154 0.499139
vn 0.892612 0.439467 0.100557
v -1.092287 -0.006797 0.557864
vn 0.000000 0.000000 0.000000
v -1.254048 -0.402256 0.539461
vn 0.000000 0.000000 0.000000
v -1.253440 0.077218 0.524777
vn 0.000000 0.000000 0.000000
v -1.172970 -0.923652 0.522847
vn 0.000000 0.000000 0.000000
v -1.183159 -0.833696 0.533566
vn 0.000000 0.000000 0.000000
v -1.048342 -1.162187 0.561397
vn 0.805889 -0.512158 -0.297048
v -0.979461 -1.161644 0.565716
vn 0.954272 -0.152319 -0.257225
v -0.932108 -1.076831 0.577194
vn 0.000000 0.000000 0.000000
v -1.145769 -0.997962 0.656352
vn 0.000000 0.000000 0.000000
v -1.194712 -0.584668 0.642721
vn 0.701629 0.661936 0.263740
v -1.146083 0.018771 0.632977
vn 0.000000 0.000000 0.000000
v -1.274642 -0.180216 0.546257
vn 0.965258 0.160326 -0.206333
v -0.985976 -0.738952 0.625097
vn 0.887663 0.460375 0.010446
v -1.072534 -0.071365 0.661059
vn 0.000000 0.000000 0.000000
v -1.200048 -0.662292 0.550840
vn 0.000000 0.000000 0.000000
v -1.211407 0.046287 0.587971
vn 0.000000 0.000000 0.000000
v -1.181926 -0.680959 0.573768
vn 0.967805 0.113327 -0.224744
v -1.063823 -0.241117 0.552444
vn 0.900771 -0.395619 0.179158
v -0.920282 -1.098917 0.656525
vn 0.964483 0.129468 -0.230238
v -1.012390 -0.649023 0.565075
vn 0.000000 0.000000 0.000000
v -1.203163 -0.410269 0.662267
vn 0.000000 0.000000 0.000000
v -1.286449 -0.023478 0.505335
vn 0.968637 0.154974 -0.194233
v -0.957923 -0.888279 0.635409
vn 0.000000 0.000000 0.000000
v -1.025845 -1.175125 0.657862
vn 0.000000 0.000000 0.000000
v -1.204421 -0.314658 0.765242
vn 0.764050 -0.560530 0.319428
v -0.965858 -1.139969 0.668482
vn 0.921418 -0.116925 0.370563
v -0.932716 -1.020635 0.703530
vn 0.000000 0.000000 0.000000
v -1.210619 -0.047075 0.673186
vn 0.970280 0.106945 -0.217072
v -1.001591 -0.516078 0.676344
vn 0.967478 0.109888 -0.227841
v -1.017607 -0.403309 0.659928
vn 0.989343 0.071575 0.126794
v -0.938539 -0.900767 0.726966
vn 0.000000 0.000000 0.000000
v -1.096866 -1.119585 0.669464
vn 0.000000 0.000000 0.000000
v -1.131963 -0.975376 0.761410
vn 0.000000 0.000000 0.000000
v -1.226743 -0.220065 0.662261
vn 0.993629 0.112680 -0.002218
v -0.975425 -0.654774 0.724635
vn 0.000000 0.000000 0.000000
v -1.141500 -0.877082 0.722071
vn 0.995967 0.072279 -0.053146
v -0.995977 -0.423719 0.748810
vn 0.602543 0.770822 0.206822
v -1.140283 -0.032410 0.754024
vn 0.000000 0.000000 0.000000
v -1.163874 -0.785484 0.617671
vn 0.908494 0.410087 -0.080418
v -1.032963 -0.130836 0.757204
vn 0.952788 0.074328 0.294397
v -0.953570 -0.813358 0.765542
vn 0.000000 0.000000 0.000000
v -1.164791 -0.455867 0.812886
vn 0.000000 0.000000 0.000000
v -1.152917 -0.733233 0.778324
vn 0.000000 0.000000 0.000000
v -1.170701 -0.643425 0.776235
vn 0.000000 0.000000 0.000000
v -1.241438 -0.303856 0.880782
vn 0.000000 0.000000 0.000000
v -1.144301 -0.809922 0.738826
vn 0.000000 0.000000 0.000000
v -1.176906 -0.566257 0.808000
vn 0.998670 -0.039555 -0.033068
v -0.992970 -0.299399 0.813579
vn 0.978313 0.045953 0.201971
v -0.989230 -0.528252 0.788507
vn 0.000000 0.000000 0.000000
v -1.223893 -0.165288 0.773951
vn 0.000000 0.000000 0.000000
v -1.206250 -0.087072 0.840639
vn 0.000000 0.000000 0.000000
v -1.109026 -1.064172 0.756724
vn 0.957448 0.156237 -0.242658
v -1.020047 -0.238392 0.729140
vn 0.000000 0.000000 0.000000
v -1.049900 -1.133137 0.731622
vn 0.589502 -0.297314 0.751061
v -1.036213 -1.041870 0.789093
vn 0.000000 0.000000 0.000000
v -1.193723 -0.339203 0.836156
vn 0.911069 -0.132309 0.390446
v -1.017161 -0.417766 0.864822
vn 0.623182 0.750469 0.220094
v -1.073359 -0.090116 0.806763
vn 0.000000 0.000000 0.000000
v -1.256761 -0.228990 0.897653
vn 0.000000 0.000000 0.000000
v -1.101626 -0.989877 0.808495
vn 0.000000 0.000000 0.000000
v -1.111392 -0.857871 0.801598
vn 0.978086 0.194724 -0.073689
v -0.987625 -0.228167 0.829752
vn 0.693338 -0.147615 0.705332
v -0.968230 -0.914401 0.782001
vn 0.000000 0.000000 0.000000
v -1.106770 -0.784881 0.844989
vn 0.000000 0.000000 0.000000
v -1.145293 -0.545553 0.887473
vn 0.000000 0.000000 0.000000
v -1.123406 -0.640360 0.874022
vn 0.000000 0.000000 0.000000
v -1.141218 -0.379058 0.890182
vn 0.838356 0.519977 0.163654
v -1.014150 -0.164325 0.855412
vn 0.444872 0.819929 0.360285
v -1.150592 -0.068613 0.864333
vn 0.566387 -0.111991 0.816495
v -1.005038 -0.804991 0.829543
vn 0.371871 -0.219094 0.902059
v -1.057211 -0.860272 0.835502
vn 0.806359 -0.026645 0.590826
v -1.007041 -0.657559 0.835988
vn 0.461649 0.780291 0.421932
v -1.116907 -0.119496 0.935239
vn 0.787349 -0.282517 0.547965
v -1.060965 -0.429778 0.921569
vn 0.000000 0.000000 0.000000
v -1.172575 -0.338923 0.925028
vn 0.481120 -0.147377 0.864178
v -1.084451 -0.733853 0.872105
vn 0.643091 -0.167658 0.747211
v -1.071577 -0.659500 0.891096
vn 0.671642 -0.085671 0.735906
v -1.085405 -0.555854 0.910406
vn 0.000000 0.000000 0.000000
v -1.115109 -0.311332 1.005862
vn 0.837504 -0.149519 0.525577
v -1.044103 -0.322998 0.971227
vn 0.000000 0.000000 0.000000
v -1.222454 -0.288781 0.969608
vn 0.916278 0.081689 0.392125
v -1.004779 -0.247328 0.924092
vn 0.000000 0.000000 0.000000
v -1.111029 -0.459271 0.905799
vn 0.000000 0.000000 0.000000
v -1.080429 -0.383242 0.943054
vn 0.000000 0.000000 0.000000
v -1.237496 -0.156005 0.967153
vn 0.661714 0.429531 0.614522
v -1.064654 -0.191077 0.996164
vn 0.343040 0.813979 0.468788
v -1.190447 -0.101343 0.957532
vn 0.411663 0.681139 0.605461
v -1.141505 -0.160682 1.018394
vn 0.000000 0.000000 0.000000
v -1.189735 -0.178415 1.028520
vn 0.000000 0.000000 0.000000
v -1.210040 -0.239610 1.017287
vn 0.644656 0.170125 0.745303
v -1.096924 -0.240370 1.035467
# 161 vertices, 0 vertices normals

f 7//7 8//8 14//14
f 7//7 27//27 10//10
f 41//41 36//36 42//42
f 42//42 23//23 47//47
f 49//49 47//47 48//48
f 96//96 89//89 97//97
f 97//97 93//93 101//101
f 138//138 110//110 128//128
f 62//62 51//51 57//57
f 49//49 61//61 47//47
f 133//133 125//125 97//97
f 133//133 97//97 101//101
f 132//132 138//138 152//152
f 6//6 3//3 17//17
f 118//118 107//107 123//123
f 123//123 110//110 138//138
f 32//32 15//15 29//29
f 62//62 29//29 33//33
f 23//23 24//24 47//47
f 23//23 42//42 27//27
f 62//62 33//33 51//51
f 45//45 51//51 33//33
f 110//110 84//84 128//128
f 128//128 84//84 108//108
f 140//140 133//133 111//111
f 111//111 142//142 140//140
f 142//142 111//111 105//105
f 142//142 105//105 119//119
f 127//127 142//142 119//119
f 127//127 118//118 152//152
f 118//118 132//132 152//152
f 24//24 32//32 48//48
f 32//32 29//29 48//48
f 48//48 29//29 62//62
f 70//70 71//71 63//63
f 101//101 93//93 111//111
f 93//93 105//105 111//111
f 105//105 99//99 107//107
f 138//138 128//128 143//143
f 161//161 152//152 156//156
f 47//47 24//24 48//48
f 90//90 56//56 52//52
f 61//61 90//90 52//52
f 4//4 12//12 6//6
f 3//3 6//6 1//1
f 7//7 12//12 4//4
f 32//32 20//20 15//15
f 17//17 3//3 29//29
f 29//29 15//15 17//17
f 26//26 3//3 21//21
f 29//29 3//3 26//26
f 141//141 133//133 140//140
f 63//63 71//71 88//88
f 84//84 88//88 71//71
f 84//84 71//71 81//81
f 156//156 138//138 143//143
f 23//23 27//27 14//14
f 27//27 7//7 14//14
f 31//31 33//33 26//26
f 29//29 26//26 33//33
f 41//41 43//43 36//36
f 52//52 56//56 43//43
f 43//43 41//41 52//52
f 41//41 42//42 52//52
f 42//42 47//47 52//52
f 61//61 52//52 47//47
f 66//66 55//55 67//67
f 67//67 59//59 66//66
f 56//56 67//67 55//55
f 77//77 59//59 78//78
f 78//78 59//59 67//67
f 78//78 67//67 93//93
f 93//93 67//67 56//56
f 90//90 61//61 88//88
f 93//93 56//56 90//90
f 90//90 83//83 93//93
f 105//105 93//93 83//83
f 105//105 83//83 90//90
f 105//105 90//90 99//99
f 99//99 100//100 107//107
f 107//107 100//100 123//123
f 88//88 84//84 123//123
f 123//123 84//84 110//110
f 62//62 57//57 63//63
f 63//63 57//57 70//70
f 96//96 78//78 89//89
f 97//97 89//89 78//78
f 97//97 78//78 93//93
f 133//133 101//101 111//111
f 119//119 105//105 107//107
f 119//119 107//107 127//127
f 118//118 127//127 107//107
f 132//132 118//118 123//123
f 138//138 132//132 123//123
f 146//146 140//140 142//142
f 142//142 127//127 148//148
f 23//23 14//14 24//24
f 14//14 8//8 24//24
f 24//24 8//8 32//32
f 32//32 8//8 20//20
f 15//15 20//20 17//17
f 36//36 27//27 42//42
f 100//100 90//90 88//88
f 99//99 90//90 100//100
f 100//100 88//88 123//123
f 7//7 4//4 8//8
f 4//4 6//6 20//20
f 20//20 8//8 4//4
f 20//20 6//6 17//17
f 37//37 43//43 55//55
f 55//55 43//43 56//56
f 51//51 70//70 57//57
f 88//88 61//61 49//49
f 48//48 88//88 49//49
f 88//88 62//62 63//63
f 48//48 62//62 88//88
f 150//150 127//127 152//152
f 156//156 152//152 138//138
f 125//125 96//96 97//97
f 84//84 81//81 108//108
f 157//157 158//158 143//143
f 143//143 139//139 157//157
f 33//33 38//38 45//45
f 33//33 31//31 38//38
f 139//139 128//128 108//108
f 139//139 143//143 128//128
f 161//161 150//150 152//152
f 27//27 22//22 10//10
f 21//21 3//3 1//1
f 7//7 10//10 12//12
f 141//141 125//125 133//133
f 6//6 12//12 1//1
f 71//71 70//70 81//81
f 143//143 158//158 156//156
f 31//31 26//26 21//21
f 43//43 37//37 36//36
f 55//55 66//66 54//54
f 77//77 66//66 59//59
f 77//77 78//78 96//96
f 141//141 140//140 146//146
f 146//146 142//142 147//147
f 142//142 148//148 147//147
f 148//148 127//127 144//144
f 36//36 22//22 27//27
f 158//158 161//161 156//156
f 54//54 37//37 55//55
f 70//70 51//51 45//45
f 150//150 144//144 127//127
# 148 faces, 0 coords texture

# End of File
