####
#
# OBJ File Generated by Meshlab
#
####
# Object cake_part10_seg_03.obj
#
# Vertices: 221
# Faces: 68
#
####
vn -0.144808 0.144034 -0.978920
v -0.488020 0.478888 0.297530
vn 0.465345 0.258295 -0.846604
v -0.394202 0.530001 0.357946
vn -0.273660 -0.218122 -0.936767
v -0.487859 0.300810 0.305102
vn -0.355307 -0.134702 -0.924993
v -0.578013 0.366426 0.314214
vn -0.514833 -0.142013 -0.845446
v -0.677818 0.420110 0.368437
vn 0.501059 0.008343 -0.865373
v -0.361095 0.400029 0.370236
vn -0.277443 -0.428334 -0.859974
v -0.487781 0.136009 0.353548
vn -0.230622 0.085273 -0.969300
v -0.612834 0.532691 0.327560
vn -0.118435 0.249784 -0.961031
v -0.662089 0.624148 0.345656
vn 0.013265 0.411941 -0.911114
v -0.493290 0.592192 0.345574
vn 0.355315 -0.151644 -0.922364
v -0.422130 0.225175 0.337314
vn 0.305605 -0.335206 -0.891203
v -0.410455 0.126872 0.364577
vn -0.099616 -0.703259 -0.703920
v -0.398449 0.047126 0.411182
vn 0.000000 0.000000 0.000000
v -0.485413 0.649577 0.430437
vn 0.129535 0.686074 -0.715908
v -0.600108 0.659402 0.390656
vn -0.500791 -0.061326 -0.863393
v -0.852556 0.608339 0.448782
vn -0.328418 -0.649970 -0.685332
v -0.575058 0.058838 0.424474
vn -0.459634 -0.288407 -0.839975
v -0.606221 0.210100 0.378495
vn 0.401916 0.503189 -0.765026
v -0.311633 0.580898 0.431324
vn -0.449637 -0.133512 -0.883177
v -0.738089 0.600365 0.369201
vn -0.468938 -0.666619 -0.579410
v -0.689327 0.072216 0.492938
vn 0.193626 -0.819034 -0.540085
v -0.389371 -0.000586 0.474793
vn -0.478936 -0.155697 -0.863932
v -0.764196 0.487691 0.407508
vn -0.519033 -0.302556 -0.799415
v -0.743783 0.172990 0.483802
vn 0.307347 -0.492878 -0.814008
v -0.259704 0.064396 0.460792
vn 0.317445 0.755602 -0.572969
v -0.356803 0.628306 0.468818
vn -0.440382 0.453787 -0.774688
v -0.728335 0.658223 0.397547
vn -0.519542 -0.242807 -0.819219
v -0.724040 0.311046 0.430271
vn -0.548171 -0.128795 -0.826390
v -0.945612 0.489794 0.501974
vn 0.491182 -0.175139 -0.853268
v -0.331402 0.168302 0.399857
vn 0.459182 0.124172 -0.879621
v -0.274311 0.504928 0.426043
vn 0.502675 0.038438 -0.863620
v -0.287625 0.442574 0.416517
vn -0.175074 -0.850168 -0.496551
v -0.519517 0.013097 0.483206
vn -0.353874 -0.860386 -0.366754
v -0.631599 0.041278 0.507299
vn 0.085431 -0.854495 -0.512386
v -0.299364 -0.000153 0.561826
vn -0.397293 0.618414 -0.678029
v -0.852270 0.660551 0.496236
vn 0.284061 -0.055277 -0.957212
v -0.094812 0.216574 0.501005
vn -0.637344 -0.101194 -0.763906
v -0.997518 0.574219 0.529772
vn -0.474312 -0.268033 -0.838562
v -0.867256 0.363574 0.489963
vn 0.000000 0.000000 0.000000
v -0.791114 0.665176 0.453671
vn 0.344632 0.099211 -0.933481
v -0.105945 0.492303 0.496934
vn 0.000000 0.000000 0.000000
v -0.525883 0.674364 0.473426
vn 0.917220 -0.210929 -0.337960
v 0.051018 0.299060 0.564849
vn 0.000000 0.000000 0.000000
v -0.406209 0.678097 0.561658
vn -0.325243 -0.911022 -0.253489
v -0.688479 0.055169 0.553116
vn 0.000000 0.000000 0.000000
v -0.476966 0.025117 0.591191
vn 0.830878 -0.047457 -0.554427
v 0.060839 0.370727 0.548770
vn -0.536788 0.584170 -0.608772
v -0.966107 0.626073 0.531492
vn 0.899242 -0.374059 -0.226812
v 0.000644 0.066737 0.580055
vn 0.852672 -0.190140 -0.486618
v 0.019370 0.179556 0.558255
vn 0.201344 -0.635024 -0.745791
v -0.163136 -0.004193 0.516668
vn 0.412478 -0.055312 -0.909287
v -0.009338 0.301762 0.522167
vn 0.320767 -0.214392 -0.922575
v -0.131006 0.081764 0.498678
vn 0.393806 -0.027120 -0.918793
v -0.185277 0.331099 0.468046
vn 0.497603 -0.231174 -0.836032
v -0.034875 0.095800 0.526184
vn 0.702976 0.222382 -0.675553
v 0.038103 0.493422 0.547922
vn -0.478671 -0.279254 -0.832401
v -0.805862 0.274574 0.493888
vn 0.337537 0.415554 -0.844620
v -0.168885 0.565795 0.488224
vn 0.373533 0.494479 -0.784834
v -0.032805 0.574677 0.536423
vn 0.000000 0.000000 0.000000
v -0.784323 0.649832 0.606493
vn 0.000000 0.000000 0.000000
v -0.725807 0.661179 0.591081
vn 0.000000 0.000000 0.000000
v -0.660039 0.674538 0.500071
vn 0.649656 -0.755162 -0.087628
v -0.078820 -0.028975 0.609303
vn -0.504568 -0.617476 -0.603436
v -0.830250 0.124913 0.562550
vn 0.000000 0.000000 0.000000
v -0.520024 0.694510 0.580996
vn -0.491792 -0.780293 -0.386373
v -0.753001 0.073738 0.552624
vn -0.743636 -0.029876 -0.667917
v -1.040687 0.590198 0.577120
vn 0.201370 -0.877439 -0.435374
v -0.133162 -0.026525 0.582833
vn 0.999725 0.002254 -0.023327
v 0.064017 0.389491 0.598453
vn 0.972449 0.228802 -0.044650
v 0.054963 0.514928 0.611851
vn 0.000000 0.000000 0.000000
v -0.881955 0.651107 0.573087
vn 0.269573 0.757882 -0.594092
v -0.147530 0.623484 0.554440
vn -0.583250 -0.190799 -0.789567
v -0.988670 0.404789 0.554875
vn -0.495455 -0.744480 -0.447520
v -0.913809 0.124515 0.644123
vn 0.000000 0.000000 0.000000
v -0.646847 0.072648 0.647769
vn 0.681297 0.630887 -0.371236
v 0.010929 0.599652 0.600118
vn -0.690547 -0.001834 -0.723286
v -1.070678 0.524910 0.613431
vn 0.594739 -0.707111 -0.382466
v -0.054108 -0.003504 0.572999
vn -0.677287 0.730601 0.086633
v -1.017098 0.608771 0.604907
vn -0.482048 -0.846461 -0.226127
v -0.778027 0.081981 0.611929
vn 0.000000 0.000000 0.000000
v -0.235608 0.664750 0.612457
vn -0.519056 -0.149335 -0.841594
v -1.059806 0.362432 0.615930
vn -0.664119 0.123297 -0.737390
v -1.127890 0.447326 0.652461
vn -0.500760 -0.560041 -0.659995
v -1.010176 0.201225 0.634470
vn -0.492356 -0.294389 -0.819098
v -0.919432 0.265967 0.558025
vn 0.631383 0.770865 -0.084396
v -0.017335 0.649467 0.668287
vn 0.908887 0.394083 0.136468
v 0.026009 0.580061 0.694620
vn 0.000000 0.000000 0.000000
v -0.454988 0.054286 0.778155
vn -0.734416 0.135594 -0.665017
v -1.174759 0.442578 0.703378
vn -0.759867 0.337920 -0.555349
v -1.121132 0.519528 0.687147
vn -0.407652 0.887658 -0.214206
v -1.019835 0.572157 0.712463
vn 0.974491 -0.213296 0.069799
v 0.027273 0.219527 0.657542
vn 0.000000 0.000000 0.000000
v 0.016796 0.513802 0.747256
vn 0.000000 0.000000 0.000000
v -0.844093 0.120308 0.724013
vn -0.598206 -0.153698 -0.786465
v -1.155970 0.308412 0.674613
vn -0.534368 -0.757692 -0.374638
v -1.130540 0.217973 0.700842
vn 0.000000 0.000000 0.000000
v -0.808989 0.630191 0.696035
vn 0.000000 0.000000 0.000000
v -0.318462 0.683207 0.699806
vn 0.000000 0.000000 0.000000
v -0.557328 0.068827 0.709376
vn -0.723534 -0.479774 -0.496301
v -1.203811 0.267908 0.729160
vn 0.000000 0.000000 0.000000
v -0.224858 -0.008268 0.630770
vn 0.000000 0.000000 0.000000
v -0.255360 0.687029 0.778417
vn -0.938167 -0.150451 -0.311781
v -1.247182 0.300144 0.773468
vn -0.830085 0.095801 -0.549346
v -1.227416 0.363573 0.755509
vn -0.915784 0.396399 -0.064866
v -1.195867 0.440073 0.777593
vn 0.692459 -0.668521 0.271257
v -0.107722 -0.006601 0.710472
vn 0.000000 0.000000 0.000000
v -0.204869 0.683034 0.710261
vn 0.778553 -0.588907 0.216896
v -0.024179 0.051405 0.700628
vn -0.447244 -0.860188 -0.245051
v -1.003489 0.166977 0.711012
vn 0.968693 0.071149 0.237847
v 0.040887 0.425142 0.696038
vn -0.440602 -0.893390 0.087886
v -1.120963 0.226396 0.787796
vn 0.000000 0.000000 0.000000
v -0.642100 0.686210 0.673667
vn 0.000000 0.000000 0.000000
v -0.507602 0.695473 0.724108
vn 0.000000 0.000000 0.000000
v -0.301842 0.034256 0.814295
vn 0.000000 0.000000 0.000000
v -0.322884 0.689129 0.804051
vn 0.000000 0.000000 0.000000
v -0.897372 0.579726 0.772716
vn 0.000000 0.000000 0.000000
v 0.008738 0.308329 0.788673
vn 0.391287 0.917365 0.073047
v -0.108777 0.682918 0.712573
vn -0.680697 -0.723712 0.113548
v -1.217199 0.270130 0.803505
vn -0.813420 0.578885 0.056927
v -1.135177 0.492559 0.760707
vn 0.000000 0.000000 0.000000
v -0.602104 0.111959 0.827511
vn 0.000000 0.000000 0.000000
v -0.835630 0.586502 0.842929
vn 0.000000 0.000000 0.000000
v -0.607769 0.667781 0.886276
vn 0.000000 0.000000 0.000000
v -0.692778 0.665914 0.822139
vn 0.000000 0.000000 0.000000
v -0.386843 0.685166 0.830682
vn 0.892621 0.282647 0.351195
v -0.023412 0.544884 0.848542
vn 0.000000 0.000000 0.000000
v -0.748385 0.139974 0.836641
vn 0.666020 0.661355 0.345003
v -0.113351 0.671139 0.924886
vn 0.000000 0.000000 0.000000
v -0.931405 0.189839 0.829741
vn 0.000000 0.000000 0.000000
v -0.036850 0.368822 0.925688
vn 0.000000 0.000000 0.000000
v -0.049245 0.266945 0.919141
vn 0.000000 0.000000 0.000000
v -0.276014 0.710043 0.900761
vn 0.000000 0.000000 0.000000
v -1.019889 0.223845 0.862800
vn 0.000000 0.000000 0.000000
v -1.051321 0.484445 0.857893
vn 0.706073 0.674032 0.217121
v -0.032606 0.644099 0.792062
vn 0.000000 0.000000 0.000000
v -0.931433 0.534043 0.849256
vn 0.364213 -0.749659 0.552595
v -0.153919 0.027852 0.857641
vn 0.626340 -0.669997 0.398499
v -0.079684 0.059744 0.851979
vn -0.949988 -0.018402 0.311744
v -1.224868 0.325173 0.842945
vn 0.857912 -0.388671 0.336038
v -0.019568 0.157709 0.811810
vn 0.000000 0.000000 0.000000
v -0.835236 0.161715 0.837696
vn -0.536869 -0.479152 0.694396
v -1.114202 0.289451 0.905780
vn 0.000000 0.000000 0.000000
v -0.490110 0.660938 0.902085
vn -0.595495 0.442170 0.670725
v -1.159626 0.425949 0.868533
vn 0.533471 0.747843 0.395146
v -0.196914 0.703647 0.976177
vn -0.595495 0.442170 0.670725
v -1.206797 0.389197 0.850881
vn 0.000000 0.000000 0.000000
v -0.173515 0.706968 0.836193
vn 0.000000 0.000000 0.000000
v -0.001737 0.443414 0.834282
vn 0.000000 0.000000 0.000000
v -0.977123 0.494622 0.886744
vn 0.000000 0.000000 0.000000
v -0.579282 0.139956 0.949345
vn 0.000000 0.000000 0.000000
v -0.700781 0.639688 0.956977
vn -0.462786 0.323899 0.825178
v -1.070166 0.406084 0.952014
vn 0.000000 0.000000 0.000000
v -0.804330 0.198477 0.960304
vn 0.000000 0.000000 0.000000
v -0.644920 0.587091 1.072077
vn 0.000000 0.000000 0.000000
v -0.474063 0.623185 1.028929
vn -0.595495 0.442170 0.670725
v -1.138359 0.356373 0.933282
vn 0.000000 0.000000 0.000000
v -0.967096 0.470562 0.933883
vn 0.000000 0.000000 0.000000
v -0.883164 0.499825 0.985921
vn 0.000000 0.000000 0.000000
v -0.098754 0.173949 0.935836
vn 0.000000 0.000000 0.000000
v -0.671907 0.166963 0.967067
vn 0.000000 0.000000 0.000000
v -0.938431 0.242908 0.953621
vn 0.000000 0.000000 0.000000
v -0.105284 0.103339 0.924914
vn 0.000000 0.000000 0.000000
v -0.574962 0.196677 1.107875
vn -0.590485 -0.101983 0.800579
v -1.021750 0.335448 1.006893
vn 0.000000 0.000000 0.000000
v -0.382826 0.673744 0.969925
vn 0.000000 0.000000 0.000000
v -0.779484 0.598770 0.964255
vn 0.000000 0.000000 0.000000
v -0.074866 0.476243 0.980223
vn 0.797937 0.463181 0.385695
v -0.086823 0.583907 0.974759
vn 0.000000 0.000000 0.000000
v -0.089212 0.332053 0.999065
vn 0.000000 0.000000 0.000000
v -0.468563 0.103493 0.939057
vn 0.000000 0.000000 0.000000
v -0.344675 0.099094 0.971497
vn 0.000000 0.000000 0.000000
v -0.239774 0.082376 0.953848
vn 0.339224 -0.585957 0.735922
v -0.274848 0.141084 1.043358
vn 0.354432 -0.672962 0.649230
v -0.157846 0.097515 0.954736
vn -0.707955 0.294255 0.642039
v -0.949853 0.404537 1.040324
vn 0.000000 0.000000 0.000000
v -0.426945 0.140781 1.051910
vn -0.363166 -0.722989 0.587705
v -0.768233 0.282277 1.108908
vn 0.000000 0.000000 0.000000
v -0.142070 0.282083 1.031004
vn -0.666867 -0.075115 0.741382
v -0.932157 0.351108 1.084325
vn -0.485216 -0.556963 0.674060
v -0.907506 0.307291 1.065864
vn 0.000000 0.000000 0.000000
v -0.809438 0.513469 1.101204
vn 0.000000 0.000000 0.000000
v -0.710024 0.210768 1.048476
vn 0.000000 0.000000 0.000000
v -0.748145 0.569080 1.082296
vn 0.000000 0.000000 0.000000
v -0.723962 0.555806 1.123647
vn 0.000000 0.000000 0.000000
v -0.125393 0.376513 1.057298
vn 0.339224 -0.585957 0.735922
v -0.220694 0.198507 1.064117
vn 0.686429 0.262526 0.678155
v -0.134222 0.601479 1.052753
vn -0.585180 -0.327086 0.742011
v -0.858859 0.340643 1.132954
vn -0.654691 -0.096351 0.749731
v -0.886639 0.382632 1.129554
vn 0.000000 0.000000 0.000000
v -0.445358 0.586334 1.139489
vn 0.542648 -0.758478 0.360894
v -0.227272 0.288623 1.142300
vn 0.671395 0.331586 0.662781
v -0.200868 0.637789 1.106156
vn 0.320906 0.844278 0.429201
v -0.281859 0.676494 1.090575
vn 0.686429 0.262526 0.678155
v -0.192088 0.448942 1.170375
vn -0.397970 -0.275475 0.875062
v -0.707674 0.352682 1.232941
vn -0.195177 -0.712363 0.674125
v -0.435450 0.253093 1.249716
vn -0.353272 -0.592898 0.723651
v -0.650112 0.292712 1.211907
vn 0.334007 -0.800381 0.497824
v -0.353229 0.220297 1.188093
vn 0.535830 0.515931 0.668358
v -0.258302 0.554152 1.238897
vn 0.604527 0.529461 0.595163
v -0.264887 0.621863 1.185351
vn 0.000000 0.000000 0.000000
v -0.366494 0.648430 1.108203
vn -0.501958 0.008168 0.864854
v -0.820226 0.424436 1.176040
vn -0.198817 0.689970 0.695998
v -0.518496 0.525156 1.183762
vn -0.183045 0.605277 0.774684
v -0.636756 0.487825 1.205448
vn 0.556565 -0.678237 0.479822
v -0.278531 0.304530 1.252805
vn 0.000000 0.000000 0.000000
v -0.487351 0.224336 1.199385
vn -0.531889 -0.259863 0.805956
v -0.816957 0.365699 1.181424
vn 0.466746 0.498525 0.730494
v -0.273249 0.459069 1.313337
vn 0.000000 0.000000 0.000000
v -0.741526 0.502401 1.174812
vn -0.198817 0.689970 0.695998
v -0.600271 0.408504 1.276044
vn -0.299793 -0.436079 0.848504
v -0.468796 0.314878 1.305351
vn 0.376628 -0.580998 0.721522
v -0.330419 0.327926 1.334448
vn -0.357789 0.158427 0.920265
v -0.707016 0.423015 1.239484
vn -0.312635 -0.357848 0.879889
v -0.561530 0.315673 1.273963
vn -0.082967 0.701485 0.707838
v -0.351534 0.579414 1.229064
vn 0.632955 -0.382787 0.672935
v -0.281238 0.369703 1.311953
vn 0.466746 0.498525 0.730494
v -0.332417 0.497252 1.325085
vn -0.198817 0.689970 0.695998
v -0.465304 0.405683 1.317395
vn -0.192877 -0.438779 0.877651
v -0.395847 0.333212 1.341228
vn -0.291870 0.152375 0.944242
v -0.388166 0.410719 1.363893
vn 0.212403 -0.024301 0.976880
v -0.335470 0.408643 1.367003
# 221 vertices, 0 vertices normals

f 16//16 20//20 23//23
f 85//85 64//64 84//84
f 100//100 103//103 104//104
f 104//104 95//95 100//100
f 96//96 100//100 95//95
f 84//84 96//96 95//95
f 17//17 21//21 24//24
f 82//82 77//77 73//73
f 77//77 29//29 73//73
f 77//77 38//38 29//29
f 38//38 77//77 67//67
f 20//20 8//8 23//23
f 8//8 20//20 9//9
f 9//9 10//10 8//8
f 10//10 9//9 15//15
f 95//95 82//82 84//84
f 85//85 84//84 82//82
f 84//84 64//64 74//74
f 13//13 17//17 7//7
f 16//16 29//29 38//38
f 16//16 23//23 29//29
f 10//10 1//1 8//8
f 21//21 17//17 34//34
f 24//24 21//21 64//64
f 89//89 95//95 104//104
f 89//89 83//83 95//95
f 89//89 90//90 83//83
f 90//90 77//77 83//83
f 64//64 21//21 66//66
f 24//24 64//64 85//85
f 77//77 82//82 83//83
f 5//5 28//28 23//23
f 17//17 13//13 33//33
f 24//24 18//18 17//17
f 85//85 73//73 39//39
f 8//8 4//4 5//5
f 24//24 28//28 18//18
f 4//4 18//18 28//28
f 28//28 5//5 4//4
f 8//8 5//5 23//23
f 3//3 18//18 4//4
f 7//7 17//17 18//18
f 18//18 3//3 7//7
f 73//73 29//29 39//39
f 23//23 28//28 39//39
f 29//29 23//23 39//39
f 1//1 4//4 8//8
f 39//39 28//28 57//57
f 24//24 57//57 28//28
f 1//1 3//3 4//4
f 82//82 95//95 83//83
f 57//57 24//24 85//85
f 57//57 85//85 39//39
f 82//82 73//73 85//85
f 109//109 84//84 74//74
f 111//111 119//119 100//100
f 96//96 109//109 111//111
f 80//80 74//74 64//64
f 64//64 66//66 80//80
f 33//33 34//34 17//17
f 45//45 21//21 34//34
f 45//45 66//66 21//21
f 100//100 103//103 104//104
f 109//109 96//96 84//84
f 119//119 139//139 103//103
f 104//104 103//103 139//139
f 111//111 100//100 96//96
f 103//103 100//100 119//119
# 68 faces, 0 coords texture

# End of File
