####
#
# OBJ File Generated by Meshlab
#
####
# Object cake_part08_seg_01.obj
#
# Vertices: 301
# Faces: 185
#
####
vn -0.343324 0.791323 -0.505902
v -1.041248 0.539132 -0.415336
vn -0.455474 0.727357 -0.513319
v -1.226193 0.476849 -0.391657
vn 0.441616 -0.453477 -0.774167
v -0.825241 0.601742 -0.416156
vn -0.259287 0.890208 -0.374566
v -0.924334 0.596274 -0.410261
vn 0.031456 0.992245 -0.120254
v -0.842901 0.623642 -0.386065
vn 0.081683 -0.334709 -0.938775
v -1.266549 0.384711 -0.413522
vn 0.081683 -0.334709 -0.938774
v -1.131427 0.453511 -0.426295
vn 0.390036 0.886826 -0.247814
v -0.759794 0.587052 -0.370218
vn 0.582700 -0.127452 -0.802631
v -0.622775 0.513440 -0.350207
vn 0.513531 0.477039 -0.713246
v -0.619030 0.546032 -0.352664
vn 0.081683 -0.334709 -0.938775
v -1.164919 0.362849 -0.396884
vn 0.000000 0.000000 0.000000
v -1.032220 0.376990 -0.368133
vn 0.137882 -0.018471 -0.990277
v -0.995070 0.476864 -0.407745
vn 0.000000 0.000000 0.000000
v -0.882820 0.368863 -0.330617
vn 0.441616 -0.453477 -0.774167
v -0.869360 0.536273 -0.402974
vn -0.248236 0.888099 -0.386858
v -1.014800 0.600872 -0.336712
vn 0.235940 0.954895 -0.180298
v -0.797022 0.627169 -0.285247
vn 0.358451 0.924489 -0.129744
v -0.684733 0.583834 -0.283805
vn 0.539910 0.835116 -0.105255
v -0.626346 0.560138 -0.316696
vn 0.668360 -0.318377 -0.672258
v -0.644921 0.447639 -0.321410
vn -0.225375 -0.141986 -0.963870
v -1.329842 0.280415 -0.369459
vn -0.051795 -0.335614 -0.940575
v -1.461417 0.215726 -0.346318
vn 0.000000 0.000000 0.000000
v -1.133387 0.223582 -0.299727
vn -0.051795 -0.335614 -0.940575
v -1.435948 0.116582 -0.312344
vn 0.248554 0.534437 -0.807836
v -0.684271 0.542706 -0.348299
vn -0.652683 0.537035 -0.534415
v -1.391892 0.341080 -0.363887
vn 0.000000 0.000000 0.000000
v -1.283199 0.195487 -0.314206
vn 0.157495 -0.208837 -0.965185
v -0.767340 0.453924 -0.342644
vn -0.446299 0.828681 -0.337794
v -1.227777 0.551431 -0.278420
vn -0.269310 0.946652 -0.176979
v -1.071227 0.627308 -0.224662
vn -0.016438 0.974118 -0.225440
v -0.897452 0.650712 -0.229416
vn 0.820174 0.538581 0.192988
v -0.617814 0.527236 -0.246690
vn 0.984093 0.148606 -0.097354
v -0.599295 0.502198 -0.301888
vn -0.051795 -0.335614 -0.940575
v -1.538598 0.116408 -0.306629
vn -0.539535 -0.140745 -0.830116
v -1.568376 0.011208 -0.264816
vn 0.000000 0.000000 0.000000
v -1.007724 0.252715 -0.289467
vn 0.000000 0.000000 0.000000
v -0.705078 0.340698 -0.282967
vn 0.933184 -0.167719 -0.317865
v -0.616511 0.379656 -0.260969
vn 0.000000 0.000000 0.000000
v -1.459499 -0.033394 -0.225262
vn -0.890383 0.092018 -0.445815
v -1.638866 -0.072869 -0.205583
vn -0.801789 0.419635 -0.425489
v -1.524355 0.230459 -0.282946
vn 0.000000 0.000000 0.000000
v -0.824418 0.177389 -0.211210
vn 0.947516 -0.148161 -0.283304
v -0.597019 0.328063 -0.188982
vn -0.715843 0.671953 -0.189862
v -1.455551 0.416540 -0.178190
vn 0.000000 0.000000 0.000000
v -1.278625 0.058361 -0.246775
vn -0.357247 -0.318941 -0.877868
v -1.581964 -0.080215 -0.226071
vn 0.000000 0.000000 0.000000
v -1.006328 0.120137 -0.228896
vn -0.636591 0.645278 -0.422337
v -1.405345 0.420282 -0.267866
vn 0.784052 -0.348220 -0.513815
v -0.639399 0.274315 -0.217225
vn 0.000000 0.000000 0.000000
v -1.119740 0.028598 -0.196299
vn -0.281914 -0.558179 -0.780359
v -1.584130 -0.145591 -0.173341
vn -0.028400 0.999556 -0.009059
v -0.895091 0.659682 -0.135150
vn 0.660320 -0.379360 -0.648123
v -0.648873 0.177854 -0.152372
vn -0.824687 0.509887 -0.244759
v -1.536438 0.306517 -0.181856
vn 0.304855 0.949431 -0.075135
v -0.796914 0.648073 -0.160317
vn 0.422611 0.905382 -0.041039
v -0.694743 0.595465 -0.123605
vn 0.997025 0.072881 -0.025104
v -0.604238 0.426417 -0.207150
vn -0.616095 0.787561 -0.013230
v -1.415810 0.458538 -0.137568
vn 0.893665 0.447021 0.039175
v -0.624268 0.510841 -0.152188
vn -0.915943 0.118037 -0.383557
v -1.683638 -0.153085 -0.132032
vn 0.000000 0.000000 0.000000
v -1.090220 -0.105352 -0.093796
vn 0.905189 -0.138866 -0.401683
v -0.601755 0.137393 -0.080684
vn -0.254406 0.966584 0.031519
v -1.050762 0.636024 -0.136121
vn 0.952147 -0.168468 -0.255019
v -0.599216 0.245469 -0.141356
vn -0.885097 0.259524 -0.386330
v -1.609951 0.068778 -0.233122
vn 0.000000 0.000000 0.000000
v -1.261773 -0.051924 -0.176369
vn -0.543714 -0.305698 -0.781616
v -1.707691 -0.268388 -0.100757
vn 0.000000 0.000000 0.000000
v -0.837462 -0.020011 -0.098350
vn -0.063615 -0.401220 -0.913770
v -1.621323 -0.268357 -0.106784
vn 0.000000 0.000000 0.000000
v -0.946963 0.007940 -0.150113
vn 0.000000 0.000000 0.000000
v -1.439634 -0.154307 -0.137010
vn -0.888825 0.413515 -0.197474
v -1.619955 0.173569 -0.117020
vn -0.496753 0.866582 -0.047667
v -1.284861 0.541346 -0.164765
vn -0.341371 0.939804 -0.015277
v -1.096404 0.608684 -0.018391
vn -0.786582 0.611058 0.088864
v -1.522713 0.330170 -0.056688
vn -0.134239 0.990070 0.041723
v -0.942080 0.645834 -0.043324
vn -0.616830 0.767701 0.173657
v -1.407289 0.449081 -0.067064
vn -0.926781 0.203608 -0.315626
v -1.677300 0.005023 -0.112745
vn 0.000000 0.000000 0.000000
v -1.459414 -0.259240 -0.067912
vn 0.000000 0.000000 0.000000
v -1.253507 -0.149413 -0.107761
vn -0.582908 -0.505207 -0.636384
v -1.711656 -0.339481 -0.046339
vn 0.822830 -0.223274 -0.522590
v -0.611071 0.023314 -0.035096
vn 0.000000 0.000000 0.000000
v -0.946393 -0.080571 -0.082488
vn 0.000000 0.000000 0.000000
v -1.320305 -0.224278 -0.063150
vn 0.000000 0.000000 0.000000
v -0.705673 0.050203 -0.090723
vn -0.948478 0.119461 -0.293461
v -1.751143 -0.257002 -0.015734
vn -0.339230 -0.869505 -0.359004
v -1.718617 -0.418576 0.065695
vn 0.993425 0.081067 -0.080840
v -0.590132 0.337346 -0.062324
vn 0.000000 0.000000 0.000000
v -0.973438 -0.169473 -0.012074
vn 0.000000 0.000000 0.000000
v -0.675742 -0.069689 -0.002015
vn 0.932021 -0.102870 -0.347496
v -0.572490 0.088553 -0.002223
vn 0.000000 0.000000 0.000000
v -0.928268 -0.415458 0.107919
vn -0.959063 0.269383 -0.087353
v -1.767543 -0.184820 0.081239
vn -0.014794 -0.842962 -0.537769
v -1.643010 -0.383023 0.007885
vn -0.924021 0.381885 0.018672
v -1.675758 0.076331 0.010297
vn -0.124368 0.983032 -0.134836
v -0.942900 0.649177 0.034512
vn 0.000000 0.000000 0.000000
v -0.968755 -0.279408 0.051782
vn 0.000000 0.000000 0.000000
v -1.516392 -0.354601 0.006462
vn 0.000000 0.000000 0.000000
v -0.801129 -0.187024 0.055875
vn -0.692594 0.708212 0.136925
v -1.446848 0.385964 0.038780
vn -0.957352 0.257120 -0.131779
v -1.724404 -0.068645 0.004216
vn 0.907584 -0.073163 -0.413447
v -0.568209 -0.047044 0.054140
vn 0.207326 0.977630 -0.035437
v -0.812658 0.650083 -0.007465
vn 0.000000 0.000000 0.000000
v -1.126665 -0.229143 -0.014191
vn 0.000000 0.000000 0.000000
v -1.306640 -0.333377 0.017706
vn 0.393704 0.917127 -0.062257
v -0.665480 0.594695 0.107330
vn 0.000000 0.000000 0.000000
v -0.857788 -0.113711 -0.019235
vn 0.000000 0.000000 0.000000
v -1.094744 -0.388051 0.075519
vn -0.975469 -0.047271 -0.215000
v -1.769866 -0.366235 0.041501
vn -0.068279 -0.927621 -0.367231
v -1.566707 -0.457498 0.147227
vn -0.998960 0.026173 -0.037338
v -1.794319 -0.301338 0.138174
vn -0.841934 0.459969 0.282092
v -1.643386 0.107311 0.092596
vn 0.947502 0.318126 -0.032195
v -0.602581 0.471811 0.049259
vn 0.258796 0.965468 0.029925
v -0.780853 0.651305 0.179341
vn -0.826731 0.546174 0.134946
v -1.618413 0.185519 0.013780
vn -0.551738 0.833864 0.015977
v -1.298601 0.506327 0.028496
vn -0.421463 0.902419 -0.089488
v -1.148496 0.602123 0.093823
vn 0.008146 -0.904274 -0.426874
v -1.234038 -0.432373 0.104386
vn 0.000000 0.000000 0.000000
v -0.784616 -0.300146 0.125520
vn 0.084662 -0.816598 -0.570964
v -1.411358 -0.426036 0.100664
vn 0.565520 -0.341946 -0.750507
v -0.597648 -0.167245 0.086723
vn -0.825300 0.501155 0.260237
v -1.586127 0.159147 0.151204
vn -0.222333 0.973315 -0.056801
v -1.014390 0.654704 0.115374
vn -0.927440 0.318659 0.195733
v -1.776184 -0.219606 0.164359
vn 0.000000 0.000000 0.000000
v -0.633583 -0.276786 0.145567
vn 0.000000 0.000000 0.000000
v -0.557914 -0.257528 0.145635
vn 0.035945 0.997833 -0.055114
v -0.877387 0.669952 0.113796
vn 0.943284 0.329905 -0.037116
v -0.611575 0.491484 0.146682
vn 0.862070 -0.093327 -0.498122
v -0.528872 -0.183758 0.146071
vn -0.714636 0.698925 -0.028257
v -1.397879 0.426508 0.130560
vn 0.000000 0.000000 0.000000
v -0.870814 -0.361546 0.104084
vn -0.032040 -0.921586 -0.386849
v -1.476397 -0.461749 0.142096
vn -0.555896 0.831206 0.008684
v -1.290961 0.536766 0.195608
vn -0.980020 -0.132028 0.148757
v -1.782743 -0.389914 0.191197
vn 0.000000 0.000000 0.000000
v -1.278540 -0.488674 0.268036
vn 0.987200 0.109472 -0.115984
v -0.544329 0.101549 0.134733
vn 0.964997 0.254850 0.061910
v -0.557202 0.123187 0.302475
vn -0.391493 -0.917981 -0.063589
v -1.690243 -0.448082 0.188997
vn 0.049305 -0.971277 -0.232787
v -0.806411 -0.463955 0.198457
vn 0.000000 0.000000 0.000000
v -0.622290 0.380439 0.208395
vn -0.017369 0.986422 0.163309
v -0.907165 0.666803 0.196691
vn 0.070224 -0.893873 -0.442787
v -1.379078 -0.465874 0.172584
vn 0.921111 -0.117390 -0.371179
v -0.481403 -0.257714 0.251574
vn 0.987033 0.158518 0.025265
v -0.574768 0.290576 0.177656
vn 0.000000 0.000000 0.000000
v -0.804811 -0.412172 0.153230
vn 0.000000 0.000000 0.000000
v -0.659191 0.488608 0.204838
vn 0.512276 0.808529 0.289576
v -0.693840 0.588195 0.203083
vn 0.796467 -0.307928 -0.520405
v -0.539830 -0.323743 0.201222
vn 0.811428 0.572668 -0.116770
v -0.630314 0.556117 0.162497
vn 0.578746 -0.663722 -0.473843
v -0.523697 -0.425067 0.293264
vn 0.979495 0.200338 -0.021299
v -0.500974 -0.034036 0.265394
vn -0.879481 0.451805 0.149615
v -1.557018 0.172999 0.234643
vn -0.316628 0.939454 0.131050
v -1.099749 0.624004 0.228589
vn -0.076289 0.962723 0.259506
v -0.913563 0.640702 0.289601
vn 0.000000 0.000000 0.000000
v -1.470698 -0.485077 0.278248
vn -0.829243 0.553769 0.075472
v -1.488601 0.312901 0.161399
vn 0.017610 -0.976251 -0.215925
v -1.036962 -0.476332 0.201267
vn 0.000000 0.000000 0.000000
v -0.599577 0.266540 0.264515
vn 0.000000 0.000000 0.000000
v -0.663110 0.389199 0.269171
vn 0.000000 0.000000 0.000000
v -0.735529 0.518572 0.285677
vn 0.205440 -0.790935 -0.576382
v -0.646157 -0.405267 0.222444
vn 0.000000 0.000000 0.000000
v -1.186059 -0.491161 0.270821
vn -0.910375 -0.064845 0.408671
v -1.732167 -0.399938 0.317286
vn -0.245360 0.954693 0.168404
v -1.051725 0.602851 0.372877
vn -0.888814 0.384363 0.249549
v -1.617677 0.020380 0.282033
vn -0.908457 0.403075 0.110620
v -1.542261 0.184307 0.334013
vn -0.862370 0.502816 0.059116
v -1.477968 0.341882 0.294060
vn -0.710875 0.701859 0.045275
v -1.405752 0.434283 0.267199
vn 0.992773 0.040565 -0.112946
v -0.469325 -0.234879 0.317709
vn 0.384454 0.799437 0.461622
v -0.831691 0.601992 0.310683
vn 0.931596 -0.360510 -0.046490
v -0.473987 -0.393042 0.342981
vn -0.946546 0.280433 0.159401
v -1.598588 -0.005352 0.410984
vn 0.000000 0.000000 0.000000
v -1.192140 -0.495607 0.335679
vn 0.000000 0.000000 0.000000
v -0.768200 0.453362 0.388511
vn -0.461109 -0.883054 0.087146
v -1.614957 -0.462216 0.306412
vn 0.000000 0.000000 0.000000
v -0.644059 0.215137 0.394869
vn 0.928945 -0.032770 0.368765
v -0.479751 -0.321263 0.380624
vn 0.955692 0.248653 0.157555
v -0.514666 -0.030829 0.343385
vn 0.000000 0.000000 0.000000
v -1.364825 -0.491185 0.364610
vn 0.591330 -0.805769 0.032632
v -0.532835 -0.469411 0.384152
vn 0.000000 0.000000 0.000000
v -0.696797 0.389096 0.363138
vn 0.597105 0.493975 0.632024
v -0.872360 0.535449 0.399918
vn -0.927587 0.111847 0.356472
v -1.776306 -0.309351 0.248579
vn -0.882129 0.392279 0.260701
v -1.712177 -0.089912 0.172333
vn -0.373145 -0.913389 0.162736
v -1.588152 -0.453893 0.444798
vn -0.508061 0.824056 0.250612
v -1.286636 0.513351 0.344423
vn -0.744716 0.620418 0.245926
v -1.442127 0.375184 0.379757
vn 0.000000 0.000000 0.000000
v -0.917477 0.487393 0.463693
vn -0.019650 0.989868 0.140622
v -0.935915 0.599940 0.409557
vn -0.348808 0.916226 0.197136
v -1.082546 0.575242 0.503018
vn -0.182809 0.982931 0.020657
v -1.003778 0.609528 0.479519
vn 0.009940 -0.992875 -0.118743
v -0.972483 -0.503756 0.435968
vn 0.132075 -0.955095 -0.265237
v -0.687836 -0.487008 0.319756
vn 0.000000 0.000000 0.000000
v -0.522525 -0.156388 0.392109
vn 0.000000 0.000000 0.000000
v -0.696512 0.284483 0.438662
vn 0.000000 0.000000 0.000000
v -1.276117 -0.492289 0.449761
vn -0.467286 0.850853 0.240194
v -1.189710 0.526141 0.436363
vn 0.000000 0.000000 0.000000
v -1.503726 -0.482179 0.374639
vn 0.808866 0.088312 0.581323
v -0.545286 -0.292904 0.454316
vn 0.000000 0.000000 0.000000
v -0.587280 0.016556 0.416643
vn -0.913143 0.186812 0.362314
v -1.694198 -0.313728 0.402707
vn 0.468157 0.695350 0.545268
v -0.979943 0.591118 0.499969
vn -0.946444 0.086622 0.311031
v -1.687055 -0.388719 0.445327
vn -0.923798 0.266906 0.274515
v -1.645300 -0.174470 0.418422
vn 0.000000 0.000000 0.000000
v -1.469377 -0.461255 0.485963
vn 0.414499 -0.880963 0.228243
v -0.594963 -0.487482 0.451889
vn 0.699789 -0.165299 0.694962
v -0.560313 -0.360183 0.499890
vn 0.000000 0.000000 0.000000
v -0.625069 -0.148698 0.487871
vn 0.772637 -0.282501 0.568529
v -0.544504 -0.412835 0.471447
vn -0.575960 0.796566 0.183717
v -1.186126 0.508169 0.523329
vn 0.783789 0.320463 0.531957
v -0.963117 0.528822 0.492480
vn -0.612417 -0.742527 0.271292
v -1.658547 -0.426619 0.436469
vn -0.606331 0.709605 0.358920
v -1.324072 0.410476 0.508570
vn 0.000000 0.000000 0.000000
v -0.857089 0.418415 0.475459
vn -0.929752 0.329969 0.163347
v -1.565493 0.085164 0.488896
vn 0.000000 0.000000 0.000000
v -0.764564 0.333043 0.469140
vn 0.000000 0.000000 0.000000
v -1.188343 -0.497609 0.582230
vn -0.838199 0.378903 0.392243
v -1.529687 0.096881 0.603192
vn -0.407048 0.852469 0.328037
v -1.149451 0.521860 0.607272
vn 0.000000 0.000000 0.000000
v -0.780653 0.146879 0.537793
vn -0.981272 0.055191 0.184553
v -1.636614 -0.352626 0.593413
vn 0.000000 0.000000 0.000000
v -0.702165 -0.215370 0.593751
vn 0.000000 0.000000 0.000000
v -1.379927 -0.478186 0.563371
vn 0.041576 0.906391 0.420388
v -1.024401 0.549615 0.552522
vn 0.167449 -0.977600 0.127511
v -0.749737 -0.503611 0.522644
vn 0.000000 0.000000 0.000000
v -0.961801 0.412427 0.553173
vn 0.509113 -0.679953 0.527701
v -0.651454 -0.472701 0.544780
vn -0.626191 -0.747178 0.222732
v -1.588926 -0.434229 0.553398
vn -0.794601 0.524780 0.305311
v -1.484579 0.247306 0.508292
vn 0.000000 0.000000 0.000000
v -0.912647 0.212819 0.599911
vn -0.674816 -0.736991 0.038310
v -1.563689 -0.433726 0.705480
vn -0.216706 -0.975450 0.039182
v -1.506824 -0.450681 0.597884
vn -0.692223 0.520574 0.499830
v -1.453895 0.197776 0.619769
vn -0.923255 0.269042 0.274257
v -1.588698 -0.093136 0.603863
vn 0.675081 -0.019575 0.737484
v -0.626501 -0.321603 0.548927
vn -0.655923 0.674873 0.338100
v -1.263343 0.414769 0.606532
vn 0.010325 -0.994824 0.101087
v -1.221033 -0.489969 0.742030
vn 0.270264 -0.835095 0.479139
v -0.844911 -0.489336 0.668248
vn 0.359710 -0.821364 0.442684
v -0.735433 -0.488736 0.597446
vn 0.528949 -0.349312 0.773430
v -0.757665 -0.441800 0.651302
vn 0.647448 -0.205524 0.733874
v -0.663098 -0.399089 0.589166
vn 0.000000 0.000000 0.000000
v -0.730236 -0.033872 0.557004
vn -0.623676 0.668700 0.404807
v -1.200430 0.447458 0.672018
vn -0.658504 0.446874 0.605538
v -1.460636 0.120134 0.681149
vn -0.646899 0.460042 0.608181
v -1.383537 0.202343 0.691664
vn -0.673543 0.577532 0.461298
v -1.370720 0.286994 0.630752
vn 0.000000 0.000000 0.000000
v -0.816012 -0.165755 0.663950
vn -0.056244 0.901121 0.429905
v -1.090081 0.522458 0.617570
vn 0.000000 0.000000 0.000000
v -1.045238 0.241075 0.663021
vn 0.522496 -0.057983 0.850668
v -0.772257 -0.332991 0.675881
vn 0.000000 0.000000 0.000000
v -1.051710 0.415266 0.630253
vn 0.000000 0.000000 0.000000
v -1.167884 0.052354 0.754795
vn -0.598419 0.428870 0.676731
v -1.366720 0.090610 0.775872
vn -0.982836 -0.009290 0.184247
v -1.624594 -0.329382 0.735411
vn 0.460356 -0.246098 0.852941
v -0.913482 -0.419818 0.753513
vn 0.000000 0.000000 0.000000
v -1.041014 -0.004170 0.726378
vn 0.000000 0.000000 0.000000
v -0.875329 -0.035028 0.654634
vn -0.554491 0.535743 0.636804
v -1.289406 0.322642 0.709139
vn -0.366791 0.472708 0.801256
v -1.219757 0.347389 0.726422
vn 0.000000 0.000000 0.000000
v -1.142361 0.400340 0.685741
vn -0.364440 0.803390 0.470902
v -1.139649 0.494555 0.661442
vn -0.714362 0.398314 0.575355
v -1.488151 0.003295 0.729539
vn 0.000000 0.000000 0.000000
v -1.175514 0.237975 0.720071
vn -0.717208 -0.653094 0.243066
v -1.581563 -0.411893 0.810659
vn 0.000000 0.000000 0.000000
v -1.109631 -0.197633 0.832468
vn -0.231001 -0.970296 0.071864
v -1.404164 -0.472210 0.698659
vn -0.897484 0.297905 0.325232
v -1.599077 -0.250393 0.742649
vn -0.750097 0.398747 0.527594
v -1.530535 -0.134836 0.778376
vn -0.019838 0.143477 0.989455
v -1.266295 0.149711 0.769525
vn 0.130017 0.395931 0.909029
v -1.277013 0.017242 0.794997
vn -0.284572 0.472528 0.834108
v -1.251649 0.264387 0.755022
vn 0.511589 0.066123 0.856682
v -0.944734 -0.215035 0.756370
vn 0.113766 -0.664521 0.738559
v -0.945889 -0.482028 0.740120
vn -0.668232 0.350912 0.655993
v -1.514961 -0.286175 0.893976
vn 0.014362 -0.983933 0.177960
v -1.286490 -0.478665 0.859573
vn -0.068972 0.495809 0.865688
v -1.332596 -0.065092 0.858321
vn -0.579405 0.445212 0.682698
v -1.304628 0.231470 0.759216
vn 0.206163 -0.865965 0.455633
v -1.030391 -0.489421 0.727947
vn -0.915329 -0.016139 0.402384
v -1.599853 -0.357082 0.814593
vn 0.223558 -0.895119 0.385725
v -1.178621 -0.478217 0.853344
vn -0.202111 -0.949442 0.240233
v -1.390634 -0.469163 0.866175
vn 0.090273 -0.896605 0.433532
v -1.319476 -0.462016 0.954287
vn -0.608935 0.438349 0.661096
v -1.411064 -0.074573 0.851158
vn 0.000000 0.000000 0.000000
v -1.253137 -0.126572 0.850449
vn 0.473869 -0.538194 0.696990
v -1.077253 -0.441317 0.841026
vn 0.000000 0.000000 0.000000
v -1.290043 -0.076001 0.837381
vn 0.473708 -0.501208 0.724149
v -1.200925 -0.430888 0.939301
vn -0.590470 0.411339 0.694367
v -1.427824 -0.178555 0.904091
vn -0.158525 0.564958 0.809748
v -1.332305 -0.174501 0.928697
vn 0.000000 0.000000 0.000000
v -1.158947 -0.304020 0.910264
vn 0.560949 -0.089567 0.822991
v -1.081255 -0.351259 0.860860
vn -0.728982 -0.201852 0.654096
v -1.538191 -0.383710 0.914532
vn 0.000000 0.000000 0.000000
v -1.223980 -0.255010 0.929675
vn -0.514125 -0.705488 0.487814
v -1.471722 -0.440333 0.911895
vn -0.530838 0.348770 0.772380
v -1.366892 -0.324860 1.013208
vn -0.542562 0.341136 0.767628
v -1.375276 -0.236594 0.970672
vn 0.420994 -0.011986 0.906984
v -1.258240 -0.351234 0.992540
vn -0.255749 -0.602691 0.755882
v -1.384805 -0.435718 1.012509
vn 0.071078 0.377924 0.923104
v -1.302285 -0.261313 0.986287
vn -0.585980 0.134570 0.799074
v -1.435006 -0.386471 0.997166
vn 0.157783 -0.310588 0.937358
v -1.334000 -0.413218 1.024948
# 301 vertices, 0 vertices normals

f 48//48 41//41 54//54
f 48//48 26//26 41//41
f 16//16 4//4 1//1
f 163//163 183//183 134//134
f 29//29 30//30 16//16
f 221//221 231//231 264//264
f 264//264 279//279 221//221
f 60//60 78//78 40//40
f 40//40 78//78 65//65
f 106//106 103//103 114//114
f 30//30 31//31 16//16
f 17//17 16//16 31//31
f 154//154 114//114 141//141
f 292//292 294//294 300//300
f 56//56 55//55 103//103
f 277//277 245//245 253//253
f 5//5 4//4 16//16
f 16//16 17//17 5//5
f 17//17 8//8 5//5
f 17//17 18//18 8//8
f 106//106 56//56 103//103
f 2//2 26//26 48//48
f 48//48 29//29 2//2
f 29//29 16//16 2//2
f 16//16 1//1 2//2
f 60//60 86//86 101//101
f 78//78 60//60 101//101
f 29//29 48//48 73//73
f 109//109 111//111 86//86
f 111//111 109//109 134//134
f 221//221 201//201 203//203
f 191//191 189//189 164//164
f 189//189 154//154 164//164
f 274//274 292//292 300//300
f 274//274 300//300 295//295
f 274//274 295//295 296//296
f 296//296 288//288 274//274
f 203//203 201//201 163//163
f 294//294 264//264 231//231
f 72//72 41//41 65//65
f 283//283 268//268 288//288
f 283//283 253//253 262//262
f 279//279 264//264 292//292
f 294//294 292//292 264//264
f 55//55 17//17 31//31
f 56//56 17//17 55//55
f 18//18 17//17 56//56
f 55//55 31//31 52//52
f 72//72 65//65 78//78
f 73//73 58//58 77//77
f 117//117 133//133 153//153
f 210//210 213//213 236//236
f 261//261 248//248 219//219
f 245//245 244//244 253//253
f 258//258 246//246 245//245
f 259//259 243//243 258//258
f 218//218 215//215 234//234
f 93//93 86//86 111//111
f 101//101 93//93 184//184
f 95//95 101//101 184//184
f 261//261 219//219 243//243
f 166//166 187//187 167//167
f 168//168 167//167 187//187
f 187//187 186//186 168//168
f 63//63 73//73 74//74
f 197//197 164//164 186//186
f 197//197 186//186 213//213
f 210//210 197//197 213//213
f 254//254 221//221 279//279
f 115//115 72//72 95//95
f 115//115 75//75 72//72
f 77//77 75//75 100//100
f 100//100 116//116 77//77
f 221//221 204//204 201//201
f 221//221 234//234 204//204
f 172//172 204//204 234//234
f 234//234 215//215 172//172
f 73//73 48//48 44//44
f 134//134 183//183 111//111
f 166//166 172//172 215//215
f 229//229 166//166 215//215
f 187//187 166//166 229//229
f 213//213 187//187 229//229
f 213//213 186//186 187//187
f 74//74 116//116 117//117
f 133//133 117//117 116//116
f 117//117 123//123 74//74
f 96//96 74//74 123//123
f 127//127 96//96 123//123
f 103//103 96//96 127//127
f 127//127 114//114 103//103
f 93//93 111//111 124//124
f 184//184 93//93 124//124
f 186//186 153//153 133//133
f 186//186 164//164 153//153
f 141//141 153//153 154//154
f 164//164 154//154 153//153
f 218//218 229//229 215//215
f 218//218 233//233 229//229
f 233//233 246//246 229//229
f 213//213 229//229 246//246
f 236//236 213//213 246//246
f 74//74 76//76 63//63
f 76//76 52//52 63//63
f 103//103 52//52 76//76
f 103//103 55//55 52//52
f 73//73 77//77 116//116
f 74//74 73//73 116//116
f 123//123 117//117 153//153
f 153//153 141//141 123//123
f 127//127 123//123 141//141
f 114//114 127//127 141//141
f 277//277 258//258 245//245
f 259//259 258//258 271//271
f 258//258 277//277 271//271
f 74//74 96//96 76//76
f 103//103 76//76 96//96
f 165//165 152//152 122//122
f 152//152 156//156 122//122
f 168//168 156//156 167//167
f 130//130 156//156 168//168
f 168//168 133//133 130//130
f 210//210 190//190 197//197
f 190//190 210//210 219//219
f 219//219 248//248 190//190
f 248//248 224//224 190//190
f 101//101 86//86 93//93
f 95//95 78//78 101//101
f 72//72 78//78 95//95
f 184//184 122//122 112//112
f 122//122 115//115 112//112
f 116//116 130//130 133//133
f 183//183 201//201 184//184
f 201//201 204//204 184//184
f 184//184 204//204 165//165
f 204//204 172//172 165//165
f 172//172 166//166 165//165
f 267//267 221//221 254//254
f 234//234 221//221 267//267
f 268//268 234//234 267//267
f 268//268 262//262 234//234
f 262//262 218//218 234//234
f 218//218 262//262 244//244
f 244//244 262//262 253//253
f 30//30 29//29 73//73
f 75//75 54//54 72//72
f 44//44 54//54 75//75
f 58//58 44//44 75//75
f 75//75 77//77 58//58
f 152//152 165//165 166//166
f 156//156 152//152 166//166
f 166//166 167//167 156//156
f 168//168 186//186 133//133
f 183//183 163//163 201//201
f 190//190 164//164 197//197
f 191//191 164//164 190//190
f 219//219 210//210 236//236
f 236//236 243//243 219//219
f 184//184 112//112 95//95
f 112//112 115//115 95//95
f 75//75 115//115 122//122
f 156//156 75//75 122//122
f 100//100 75//75 156//156
f 130//130 100//100 156//156
f 116//116 100//100 130//130
f 233//233 218//218 244//244
f 246//246 233//233 245//245
f 233//233 244//244 245//245
f 258//258 236//236 246//246
f 243//243 236//236 258//258
f 54//54 41//41 72//72
f 54//54 44//44 48//48
f 73//73 44//44 58//58
f 183//183 124//124 111//111
f 183//183 184//184 124//124
f 122//122 184//184 165//165
f 279//279 267//267 254//254
f 274//274 267//267 279//279
f 274//274 268//268 267//267
f 288//288 268//268 274//274
f 262//262 268//268 283//283
f 292//292 274//274 279//279
f 63//63 30//30 73//73
f 52//52 30//30 63//63
f 31//31 30//30 52//52
# 185 faces, 0 coords texture

# End of File
