####
#
# OBJ File Generated by Meshlab
#
####
# Object head_part12-[1]-DBSCAN-0.2-20-1708708548.5881302.obj
#
# Vertices: 169
# Faces: 134
#
####
vn 0.0000000000000000 0.0000000000000000 0.0000000000000000
v -0.1546155065298080 2.0343630313873291 0.2234418541193008
vn -0.2356577813625336 -0.5263221263885498 -0.8169764280319214
v -0.1848071068525314 2.0074977874755859 0.2354665845632553
vn 0.0375399254262447 -0.5805193185806274 -0.8133806586265564
v -0.1495777517557144 1.9838062524795532 0.2405674755573273
vn 0.0000000000000000 0.0000000000000000 0.0000000000000000
v -0.1205295845866203 1.9956023693084717 0.2511149346828461
vn 0.0000000000000000 0.0000000000000000 0.0000000000000000
v -0.1643741726875305 2.0580639839172363 0.2341187149286270
vn 0.0000000000000000 0.0000000000000000 0.0000000000000000
v -0.1348662525415421 2.0385036468505859 0.2442353069782257
vn 0.0000000000000000 0.0000000000000000 0.0000000000000000
v -0.1958692669868469 2.0401654243469238 0.2523589432239532
vn 0.0000000000000000 0.0000000000000000 0.0000000000000000
v -0.1825946867465973 2.0792741775512695 0.2691881358623505
vn -0.3021798133850098 -0.5923695564270020 -0.7468505501747131
v -0.2032698094844818 1.9457539319992065 0.2805695235729218
vn 0.0000000000000000 0.0000000000000000 0.0000000000000000
v -0.1460188031196594 2.0795133113861084 0.2659589052200317
vn 0.3196728229522705 -0.6237059235572815 -0.7133024334907532
v -0.1298880130052567 1.9349771738052368 0.2824012041091919
vn 0.5195286273956299 -0.5122505426406860 -0.6838783025741577
v -0.1042608246207237 1.9520665407180786 0.2890690863132477
vn 0.0000000000000000 0.0000000000000000 0.0000000000000000
v -0.0964272543787956 1.9970911741256714 0.2957417070865631
vn 0.0000000000000000 0.0000000000000000 0.0000000000000000
v -0.2056881338357925 2.0472018718719482 0.2981097996234894
vn 0.0000000000000000 0.0000000000000000 0.0000000000000000
v -0.2194507420063019 1.9981776475906372 0.2855423986911774
vn -0.0041458392515779 -0.7197947502136230 -0.6941745281219482
v -0.1660585403442383 1.9128425121307373 0.2991860806941986
vn -0.1823905408382416 -0.7115061879158020 -0.6785961389541626
v -0.2169919759035110 1.8637487888336182 0.3618409633636475
vn 0.0000000000000000 0.0000000000000000 0.0000000000000000
v -0.1878468990325928 2.0780632495880127 0.3008503317832947
vn 0.0773006677627563 -0.7900827527046204 -0.6081066727638245
v -0.1642116755247116 1.8568689823150635 0.3726138770580292
vn 0.0000000000000000 0.0000000000000000 0.0000000000000000
v -0.1596396863460541 2.0820152759552002 0.3015487194061279
vn 0.0000000000000000 0.0000000000000000 0.0000000000000000
v -0.1254481673240662 2.0503919124603271 0.3149352073669434
vn -0.4255710244178772 -0.4975432455539703 -0.7558704018592834
v -0.2462396025657654 1.9192435741424561 0.3417791724205017
vn 0.0000000000000000 0.0000000000000000 0.0000000000000000
v -0.2318664491176605 1.9862678050994873 0.3648545444011688
vn 0.2804715335369110 -0.7204163074493408 -0.6342996954917908
v -0.1135830357670784 1.8937510251998901 0.3356603980064392
vn 0.5205044150352478 -0.5432221293449402 -0.6587752699851990
v -0.0549078695476055 1.9115496873855591 0.3673435151576996
vn -0.5108163952827454 -0.4816092252731323 -0.7121230363845825
v -0.2655599713325500 1.8636239767074585 0.3769553005695343
vn -0.8406932950019836 0.0506244674324989 -0.5391402244567871
v -0.2755004167556763 1.9029196500778198 0.3961454629898071
vn 0.3027420043945312 -0.7085754275321960 -0.6373917460441589
v -0.0772448554635048 1.8529192209243774 0.3980411887168884
vn 0.0000000000000000 0.0000000000000000 0.0000000000000000
v -0.1285394579172134 2.0311701297760010 0.3753475248813629
vn 0.0000000000000000 0.0000000000000000 0.0000000000000000
v -0.0509336926043034 1.9540808200836182 0.3782915174961090
vn -0.1005221158266068 -0.7927433848381042 -0.6012097597122192
v -0.2246638983488083 1.8292864561080933 0.4080694913864136
vn -0.4125400185585022 -0.7067144513130188 -0.5747740864753723
v -0.2663560509681702 1.8255803585052490 0.4204442203044891
vn 0.0000000000000000 0.0000000000000000 0.0000000000000000
v -0.1124884039163589 1.9972404241561890 0.4345695972442627
vn 0.0000000000000000 0.0000000000000000 0.0000000000000000
v -0.1780745685100555 2.0474495887756348 0.3433906733989716
vn 0.0000000000000000 0.0000000000000000 0.0000000000000000
v -0.0843859240412712 2.0002045631408691 0.3726092278957367
vn -0.0116738090291619 -0.8315914869308472 -0.5552651286125183
v -0.2020625174045563 1.8082046508789062 0.4324345290660858
vn -0.7742486596107483 -0.4210116267204285 -0.4725337922573090
v -0.2853215932846069 1.8546031713485718 0.4069229960441589
vn 0.0000000000000000 0.0000000000000000 0.0000000000000000
v -0.2412461787462234 1.9437047243118286 0.4776496589183807
vn 0.1093742921948433 -0.8362581729888916 -0.5373169779777527
v -0.1323639154434204 1.8127167224884033 0.4359915554523468
vn 0.0000000000000000 0.0000000000000000 0.0000000000000000
v -0.1812473386526108 1.9942401647567749 0.4358087778091431
vn 0.1861849576234818 -0.8247748613357544 -0.5339303016662598
v -0.0788720175623894 1.8078056573867798 0.4551259875297546
vn 0.4870285689830780 -0.6289343237876892 -0.6060070991516113
v -0.0301114208996296 1.8564444780349731 0.4277880787849426
vn 0.0000000000000000 0.0000000000000000 0.0000000000000000
v -0.0294569432735443 1.9079339504241943 0.4171416461467743
vn 0.3787912726402283 -0.7130814194679260 -0.5899423956871033
v -0.0568178221583366 1.8321403264999390 0.4315486550331116
vn -0.0016672437777743 -0.8876329064369202 -0.4605486690998077
v -0.2231700569391251 1.7736439704895020 0.4944804310798645
vn -0.7952665090560913 -0.4226146340370178 -0.4346816837787628
v -0.3048004806041718 1.8605930805206299 0.4567390084266663
vn 0.0726084560155869 -0.9031094312667847 -0.4232272207736969
v -0.1899473816156387 1.7575004100799561 0.5289146304130554
vn 0.0000000000000000 0.0000000000000000 0.0000000000000000
v -0.2624276876449585 1.9366904497146606 0.4362996220588684
vn -0.6605881452560425 -0.4589972198009491 -0.5940915942192078
v -0.3095225691795349 1.8130449056625366 0.4788841903209686
vn 0.0000000000000000 0.0000000000000000 0.0000000000000000
v -0.0629897043108940 1.9397220611572266 0.4550930261611938
vn 0.0000000000000000 0.0000000000000000 0.0000000000000000
v -0.0166833978146315 1.8546537160873413 0.4744929969310760
vn 0.4068191349506378 -0.7875218987464905 -0.4629334211349487
v -0.0309434980154037 1.8096436262130737 0.4818302392959595
vn -0.2109001874923706 -0.8189134001731873 -0.5337621569633484
v -0.2679095268249512 1.7782981395721436 0.4892653822898865
vn 0.1741805672645569 -0.9273223876953125 -0.3312616348266602
v -0.1121345087885857 1.7679919004440308 0.5256025195121765
vn -0.5883824229240417 -0.5503256916999817 -0.5924084186553955
v -0.3370207846164703 1.7798280715942383 0.5331609249114990
vn 0.1018872335553169 -0.8969507813453674 -0.4302307367324829
v -0.1488626152276993 1.7745543718338013 0.5047104358673096
vn -0.8486143350601196 -0.1337931454181671 -0.5118135213851929
v -0.3372733891010284 1.8375148773193359 0.5184998512268066
vn 0.0000000000000000 0.0000000000000000 0.0000000000000000
v -0.1313083469867706 1.9520055055618286 0.4929538071155548
vn 0.0000000000000000 0.0000000000000000 0.0000000000000000
v -0.2939679622650146 1.9003326892852783 0.5106214880943298
vn 0.0000000000000000 0.0000000000000000 0.0000000000000000
v -0.0914753451943398 1.9068166017532349 0.5254724621772766
vn 0.2787147462368011 -0.8933935761451721 -0.3523719310760498
v -0.0683302581310272 1.7853085994720459 0.4973642230033875
vn 0.0000000000000000 0.0000000000000000 0.0000000000000000
v -0.0169861726462841 1.8179965019226074 0.5104086995124817
vn 0.0000000000000000 0.0000000000000000 0.0000000000000000
v -0.1910967677831650 1.9374076128005981 0.5126659870147705
vn 0.3426016271114349 -0.9174398183822632 -0.2023074924945831
v -0.0467976927757263 1.7853120565414429 0.5377968549728394
vn 0.0000000000000000 0.0000000000000000 0.0000000000000000
v -0.0404862947762012 1.8481893539428711 0.5314606428146362
vn -0.1567691415548325 -0.8698408007621765 -0.4677608609199524
v -0.2904890477657318 1.7518644332885742 0.5394502878189087
vn -0.0034642098471522 -0.9008175730705261 -0.4341840744018555
v -0.2379389703273773 1.7535805702209473 0.5362614393234253
vn 0.0000000000000000 0.0000000000000000 0.0000000000000000
v -0.2529976963996887 1.9176384210586548 0.5384783744812012
vn -0.0980236902832985 -0.9255695343017578 -0.3656671345233917
v -0.2974373698234558 1.7420507669448853 0.5660825371742249
vn 0.1786277443170547 -0.9242441058158875 -0.3374388217926025
v -0.1527740210294724 1.7498519420623779 0.5607826709747314
vn 0.0000000000000000 0.0000000000000000 0.0000000000000000
v -0.1031421646475792 1.8866034746170044 0.5564875006675720
vn -0.2725911736488342 -0.8302111029624939 -0.4862545728683472
v -0.3310857117176056 1.7405369281768799 0.5790116190910339
vn 0.0000000000000000 0.0000000000000000 0.0000000000000000
v -0.0656801238656044 1.8009877204895020 0.5783119201660156
vn 0.0000000000000000 0.0000000000000000 0.0000000000000000
v -0.3527232408523560 1.8506226539611816 0.5790118575096130
vn 0.0000000000000000 0.0000000000000000 0.0000000000000000
v -0.2168536037206650 1.9033946990966797 0.5682511925697327
vn 0.0699238553643227 -0.9162392020225525 -0.3944825828075409
v -0.2776052057743073 1.7085324525833130 0.6439685225486755
vn 0.3895188570022583 -0.9149485826492310 -0.1055669263005257
v -0.0968333333730698 1.7603144645690918 0.5800583958625793
vn 0.0000000000000000 0.0000000000000000 0.0000000000000000
v -0.2686603665351868 1.8881038427352905 0.5968565940856934
vn 0.0054804189130664 -0.9263177514076233 -0.3767033517360687
v -0.2634221315383911 1.7300971746444702 0.5873216986656189
vn 0.3615227341651917 -0.9177903532981873 -0.1642018109560013
v -0.1309838145971298 1.7418152093887329 0.6125487685203552
vn 0.0000000000000000 0.0000000000000000 0.0000000000000000
v -0.1028876081109047 1.7906154394149780 0.6372020244598389
vn -0.6060069799423218 -0.4862657189369202 -0.6295245885848999
v -0.3819279670715332 1.7538381814956665 0.6087976098060608
vn -0.4028615057468414 -0.5951809883117676 -0.6953144073486328
v -0.3966330289840698 1.7163668870925903 0.6491680741310120
vn 0.0000000000000000 0.0000000000000000 0.0000000000000000
v -0.3534865379333496 1.8656909465789795 0.6441201567649841
vn 0.0000000000000000 0.0000000000000000 0.0000000000000000
v -0.1397905349731445 1.8954569101333618 0.5593402981758118
vn 0.0000000000000000 0.0000000000000000 0.0000000000000000
v -0.3209510445594788 1.8762873411178589 0.6011465787887573
vn 0.0000000000000000 0.0000000000000000 0.0000000000000000
v -0.3783836662769318 1.8468371629714966 0.6410072445869446
vn 0.5571692585945129 -0.8220305442810059 0.1175931468605995
v -0.0911716446280479 1.7679231166839600 0.6064206957817078
vn 0.0305708274245262 -0.9003244042396545 -0.4341444671154022
v -0.2353307902812958 1.7171723842620850 0.6327304244041443
vn 0.0000000000000000 0.0000000000000000 0.0000000000000000
v -0.3587833940982819 1.8566870689392090 0.6780154705047607
vn -0.6064590215682983 -0.2579500973224640 0.7521098256111145
v -0.3208485841751099 1.6975256204605103 0.6674917936325073
vn -0.0401498153805733 -0.8494806885719299 -0.5260899066925049
v -0.2665676772594452 1.6971125602722168 0.6735528707504272
vn 0.0000000000000000 0.0000000000000000 0.0000000000000000
v -0.1114967614412308 1.7596709728240967 0.6816697716712952
vn -0.0527027584612370 -0.8354495167732239 -0.5470343828201294
v -0.2342775464057922 1.6978163719177246 0.6616923213005066
vn 0.1834487318992615 -0.8824518322944641 -0.4331573843955994
v -0.1805117428302765 1.7176907062530518 0.6313002705574036
vn 0.0000000000000000 0.0000000000000000 0.0000000000000000
v -0.1075690016150475 1.8493500947952271 0.5919514298439026
vn -0.1068100333213806 -0.9422944784164429 -0.3172899186611176
v -0.2998814582824707 1.6886107921600342 0.6813409924507141
vn 0.1100563034415245 -0.7841351628303528 -0.6107533574104309
v -0.1857098937034607 1.6681126356124878 0.7008997201919556
vn 0.0000000000000000 0.0000000000000000 0.0000000000000000
v -0.3938317000865936 1.8533812761306763 0.6837822794914246
vn -0.2110752314329147 -0.9010214209556580 -0.3789560794830322
v -0.3391733467578888 1.6967072486877441 0.6524350643157959
vn 0.0000000000000000 0.0000000000000000 0.0000000000000000
v -0.1492750644683838 1.7776918411254883 0.6941327452659607
vn -0.7936314940452576 -0.1089299395680428 -0.5985677242279053
v -0.3933246433734894 1.8017588853836060 0.6151874661445618
vn 0.0000000000000000 0.0000000000000000 0.0000000000000000
v -0.4160188734531403 1.8308062553405762 0.6862073540687561
vn 0.0000000000000000 0.0000000000000000 0.0000000000000000
v -0.2284134477376938 1.8560426235198975 0.6381726861000061
vn -0.5455644726753235 -0.5619605779647827 -0.6217392086982727
v -0.4275090694427490 1.6947968006134033 0.6855013370513916
vn 0.4329553842544556 -0.7993060946464539 -0.4167247116565704
v -0.1108791381120682 1.7397551536560059 0.6613238453865051
vn -0.1726833879947662 -0.7830513715744019 -0.5975040197372437
v -0.3723375797271729 1.6714088916778564 0.6909649968147278
vn 0.0000000000000000 0.0000000000000000 0.0000000000000000
v -0.3044132590293884 1.8573756217956543 0.6556984782218933
vn 0.0188517849892378 -0.7672783732414246 -0.6410369873046875
v -0.2426853328943253 1.6565698385238647 0.7149171233177185
vn -0.4612984061241150 -0.7863559126853943 -0.4109113514423370
v -0.4218637943267822 1.6604281663894653 0.7253469824790955
vn 0.0000000000000000 0.0000000000000000 0.0000000000000000
v -0.4100840389728546 1.8273530006408691 0.7381606698036194
vn 0.5220633149147034 -0.6434465646743774 -0.5598450899124146
v -0.1209098100662231 1.6832021474838257 0.7122549414634705
vn 0.0000000000000000 0.0000000000000000 0.0000000000000000
v -0.1143119558691978 1.7275651693344116 0.7249010205268860
vn -0.7626171112060547 -0.2253628075122833 -0.6063223481178284
v -0.4313789606094360 1.7461708784103394 0.6663961410522461
vn 0.2524759471416473 -0.7496434450149536 -0.6117928624153137
v -0.1441637575626373 1.6514316797256470 0.7310342788696289
vn 0.0873802229762077 -0.7525610327720642 -0.6526994705200195
v -0.3060224056243896 1.6526944637298584 0.7113177180290222
vn 0.0000000000000000 0.0000000000000000 0.0000000000000000
v -0.2024107277393341 1.8064028024673462 0.6891719102859497
vn -0.2020021975040436 -0.8191607594490051 -0.5368154644966125
v -0.3604400753974915 1.6461417675018311 0.7236119508743286
vn 0.0000000000000000 0.0000000000000000 0.0000000000000000
v -0.3048703074455261 1.8132286071777344 0.7277827858924866
vn -0.8037582039833069 -0.4794748425483704 -0.3522451221942902
v -0.4605332612991333 1.6985841989517212 0.7313041090965271
vn 0.0000000000000000 0.0000000000000000 0.0000000000000000
v -0.3735662400722504 1.8467264175415039 0.7083572745323181
vn -0.2843078076839447 -0.8754268884658813 -0.3908922970294952
v -0.3770690262317657 1.6333479881286621 0.7517467737197876
vn -0.0923723429441452 -0.8572109341621399 -0.5066130757331848
v -0.3274784982204437 1.6232159137725830 0.7482924461364746
vn 0.0266235955059528 -0.8544596433639526 -0.5188352465629578
v -0.2747411131858826 1.6097666025161743 0.7711090445518494
vn 0.0000000000000000 0.0000000000000000 0.0000000000000000
v -0.4796873629093170 1.7147517204284668 0.7656215429306030
vn -0.9055370092391968 -0.0230598058551550 -0.4236404001712799
v -0.4650173783302307 1.7758457660675049 0.7366834282875061
vn -0.0518749468028545 -0.9112959504127502 -0.4084711670875549
v -0.3006367385387421 1.6047005653381348 0.7847393751144409
vn 0.0000000000000000 0.0000000000000000 0.0000000000000000
v -0.1285542696714401 1.6970890760421753 0.7803606986999512
vn 0.4554944336414337 -0.7418314814567566 -0.4921492934226990
v -0.1260924339294434 1.6231516599655151 0.7800526618957520
vn 0.0761432796716690 -0.8136252760887146 -0.5763821005821228
v -0.2319509536027908 1.6130018234252930 0.7734804749488831
vn 0.0865786075592041 -0.8201583623886108 -0.5655478239059448
v -0.1834861785173416 1.6198554039001465 0.7687235474586487
vn -0.7269017100334167 -0.6775872111320496 -0.1117562353610992
v -0.4528451263904572 1.6798236370086670 0.7950446009635925
vn -0.5925403833389282 -0.7979807853698730 -0.1101023107767105
v -0.4162794351577759 1.6434240341186523 0.7779023051261902
vn 0.0000000000000000 0.0000000000000000 0.0000000000000000
v -0.2045619487762451 1.7352381944656372 0.7761363387107849
vn -0.1588361263275146 -0.9437856078147888 -0.2898963987827301
v -0.3079929649829865 1.5898979902267456 0.8195735812187195
vn 0.1014177724719048 -0.9065859913825989 -0.4096538424491882
v -0.1668792665004730 1.5680066347122192 0.8490203619003296
vn 0.9483644366264343 -0.2699186503887177 -0.1665797978639603
v -0.1141310110688210 1.6509306430816650 0.8031390309333801
vn 0.0000000000000000 0.0000000000000000 0.0000000000000000
v -0.4480704665184021 1.7518343925476074 0.8166577219963074
vn 0.0000000000000000 0.0000000000000000 0.0000000000000000
v -0.4557490050792694 1.7814944982528687 0.7899026870727539
vn 0.0000000000000000 0.0000000000000000 0.0000000000000000
v -0.3360414803028107 1.7581200599670410 0.8053099513053894
vn 0.0000000000000000 0.0000000000000000 0.0000000000000000
v -0.2759397029876709 1.7654873132705688 0.7762292623519897
vn 0.0000000000000000 0.0000000000000000 0.0000000000000000
v -0.3468357324600220 1.7842627763748169 0.7847743034362793
vn 0.0000000000000000 0.0000000000000000 0.0000000000000000
v -0.1677519232034683 1.6737886667251587 0.8207800984382629
vn 0.0000000000000000 0.0000000000000000 0.0000000000000000
v -0.4732043445110321 1.7329967021942139 0.7956435084342957
vn -0.4522235393524170 -0.8916743397712708 -0.0202650744467974
v -0.3735471665859222 1.6151328086853027 0.8084742426872253
vn 0.0000000000000000 0.0000000000000000 0.0000000000000000
v -0.4000769555568695 1.7775212526321411 0.8069964051246643
vn 0.0000000000000000 0.0000000000000000 0.0000000000000000
v -0.3304005861282349 1.6943305730819702 0.8553678989410400
vn -0.0007761571905576 -0.8885416984558105 -0.4587954282760620
v -0.2254871428012848 1.5853239297866821 0.8164485692977905
vn 0.0000000000000000 0.0000000000000000 0.0000000000000000
v -0.3800893425941467 1.7252575159072876 0.8427069783210754
vn -0.5211492180824280 -0.8218965530395508 0.2299772799015045
v -0.3678874373435974 1.6222761869430542 0.8468288183212280
vn -0.0721998065710068 -0.9562461972236633 -0.2835146784782410
v -0.2383961528539658 1.5661194324493408 0.8737484216690063
vn -0.0979922413825989 -0.9514670968055725 -0.2917326092720032
v -0.2820405066013336 1.5713860988616943 0.8712315559387207
vn 0.0000000000000000 0.0000000000000000 0.0000000000000000
v -0.2332331836223602 1.6433761119842529 0.8728497028350830
vn 0.0000000000000000 0.0000000000000000 0.0000000000000000
v -0.3078315854072571 1.5867986679077148 0.8612141609191895
vn 0.3543239831924438 -0.8034609556198120 -0.4784401655197144
v -0.1247804015874863 1.5890032052993774 0.8449377417564392
vn 0.0000000000000000 0.0000000000000000 0.0000000000000000
v -0.4166569709777832 1.6989457607269287 0.8406082987785339
vn 0.0000000000000000 0.0000000000000000 0.0000000000000000
v -0.1255554407835007 1.6041623353958130 0.8556904196739197
vn 0.0000000000000000 0.0000000000000000 0.0000000000000000
v -0.2760969996452332 1.7052942514419556 0.8341973423957825
vn 0.0000000000000000 0.0000000000000000 0.0000000000000000
v -0.3035493791103363 1.6521399021148682 0.8772676587104797
vn 0.1201171129941940 -0.9185149669647217 -0.3766989111900330
v -0.1426527351140976 1.5590002536773682 0.8787059187889099
vn 0.0000000000000000 0.0000000000000000 0.0000000000000000
v -0.3478727638721466 1.6432152986526489 0.8766127228736877
vn 0.0000000000000000 0.0000000000000000 0.0000000000000000
v -0.1265572309494019 1.5752053260803223 0.8827144503593445
vn 0.0000000000000000 0.0000000000000000 0.0000000000000000
v -0.1530761420726776 1.6224372386932373 0.8634378314018250
vn 0.0000000000000000 0.0000000000000000 0.0000000000000000
v -0.3660174012184143 1.6843817234039307 0.8635832667350769
vn 0.0000000000000000 0.0000000000000000 0.0000000000000000
v -0.1487648487091064 1.5595256090164185 0.9022685885429382
vn 0.0000000000000000 0.0000000000000000 0.0000000000000000
v -0.2302315235137939 1.5891288518905640 0.9006947875022888
vn 0.0000000000000000 0.0000000000000000 0.0000000000000000
v -0.2966085076332092 1.6017158031463623 0.8860117793083191
vn -0.0730100646615028 -0.9791901111602783 -0.1893571317195892
v -0.1873587667942047 1.5598309040069580 0.8991943597793579
vn 0.0000000000000000 0.0000000000000000 0.0000000000000000
v -0.1726367175579071 1.5860885381698608 0.9003311395645142
# 169 vertices, 0 vertices normals

f 22//22 17//17 26//26
f 25//25 28//28 24//24
f 31//31 36//36 32//32
f 115//115 98//98 112//112
f 130//130 109//109 131//131
f 26//26 17//17 32//32
f 24//24 39//39 19//19
f 39//39 24//24 28//28
f 124//124 135//135 127//127
f 53//53 45//45 67//67
f 64//64 61//61 52//52
f 22//22 9//9 17//17
f 17//17 16//16 19//19
f 17//17 9//9 16//16
f 24//24 19//19 16//16
f 24//24 16//16 11//11
f 24//24 11//11 12//12
f 39//39 36//36 19//19
f 16//16 3//3 11//11
f 9//9 2//2 3//3
f 3//3 16//16 9//9
f 12//12 11//11 3//3
f 27//27 26//26 37//37
f 122//122 118//118 123//123
f 67//67 45//45 47//47
f 70//70 47//47 56//56
f 54//54 70//70 56//56
f 54//54 61//61 64//64
f 97//97 91//91 100//100
f 92//92 109//109 97//97
f 92//92 94//94 109//109
f 46//46 32//32 49//49
f 37//37 32//32 46//46
f 49//49 32//32 53//53
f 83//83 82//82 100//100
f 100//100 82//82 72//72
f 72//72 79//79 100//100
f 100//100 79//79 76//76
f 114//114 82//82 83//83
f 105//105 83//83 107//107
f 105//105 114//114 83//83
f 107//107 83//83 100//100
f 100//100 76//76 97//97
f 97//97 91//91 100//100
f 92//92 97//97 76//76
f 92//92 76//76 94//94
f 76//76 89//89 94//94
f 82//82 114//114 102//102
f 148//148 135//135 124//124
f 155//155 136//136 129//129
f 145//145 135//135 150//150
f 109//109 98//98 131//131
f 129//129 131//131 115//115
f 131//131 98//98 115//115
f 129//129 115//115 112//112
f 129//129 112//112 137//137
f 122//122 123//123 135//135
f 135//135 123//123 127//127
f 127//127 123//123 124//124
f 151//151 135//135 148//148
f 151//151 152//152 135//135
f 151//151 148//148 136//136
f 155//155 160//160 136//136
f 31//31 32//32 17//17
f 31//31 17//17 36//36
f 17//17 19//19 36//36
f 41//41 39//39 28//28
f 44//44 41//41 28//28
f 28//28 42//42 44//44
f 109//109 94//94 98//98
f 112//112 98//98 95//95
f 106//106 112//112 95//95
f 82//82 55//55 72//72
f 102//102 55//55 82//82
f 79//79 72//72 69//69
f 110//110 120//120 105//105
f 105//105 120//120 114//114
f 126//126 114//114 120//120
f 110//110 105//105 107//107
f 107//107 122//122 110//110
f 118//118 122//122 107//107
f 118//118 107//107 123//123
f 116//116 107//107 100//100
f 123//123 107//107 116//116
f 97//97 116//116 100//100
f 116//116 97//97 109//109
f 133//133 145//145 150//150
f 53//53 36//36 45//45
f 32//32 36//36 53//53
f 36//36 39//39 47//47
f 47//47 45//45 36//36
f 47//47 39//39 56//56
f 56//56 39//39 54//54
f 61//61 54//54 41//41
f 54//54 39//39 41//41
f 61//61 41//41 52//52
f 52//52 44//44 42//42
f 52//52 41//41 44//44
f 66//66 55//55 53//53
f 79//79 67//67 47//47
f 77//77 54//54 64//64
f 168//168 151//151 136//136
f 168//168 136//136 160//160
f 89//89 76//76 79//79
f 95//95 89//89 79//79
f 95//95 79//79 47//47
f 95//95 47//47 70//70
f 80//80 95//95 70//70
f 70//70 54//54 80//80
f 80//80 77//77 88//88
f 54//54 77//77 80//80
f 66//66 53//53 67//67
f 57//57 49//49 55//55
f 55//55 49//49 53//53
f 72//72 66//66 69//69
f 55//55 66//66 72//72
f 148//148 124//124 130//130
f 148//148 130//130 131//131
f 136//136 148//148 131//131
f 129//129 136//136 131//131
f 37//37 26//26 32//32
f 69//69 66//66 79//79
f 66//66 67//67 79//79
f 89//89 95//95 94//94
f 95//95 98//98 94//94
f 95//95 80//80 106//106
f 123//123 116//116 124//124
f 124//124 116//116 109//109
f 124//124 109//109 130//130
f 120//120 110//110 133//133
f 133//133 132//132 120//120
f 110//110 122//122 133//133
f 145//145 122//122 135//135
f 133//133 122//122 145//145
# 134 faces, 0 coords texture

# End of File
