####
#
# OBJ File Generated by Meshlab
#
####
# Object head_part05_seg_03.obj
#
# Vertices: 340
# Faces: 99
#
####
vn 0.000000 0.000000 0.000000
v -0.227045 1.176378 -1.208933
vn 0.000000 0.000000 0.000000
v -0.147213 0.882262 -1.219467
vn 0.000000 0.000000 0.000000
v 0.016208 1.248288 -1.216319
vn 0.000000 0.000000 0.000000
v -0.106509 0.999779 -1.227947
vn 0.000000 0.000000 0.000000
v 0.112817 1.013079 -1.210121
vn 0.577370 -0.779139 -0.244103
v 0.060289 0.927098 -1.206893
vn 0.000000 0.000000 0.000000
v 0.088952 1.143749 -1.222638
vn 0.000000 0.000000 0.000000
v 0.159981 1.196112 -1.218375
vn 0.000000 0.000000 0.000000
v 0.181165 1.111576 -1.214577
vn 0.000000 0.000000 0.000000
v 0.228200 1.209377 -1.202966
vn 0.000000 0.000000 0.000000
v -0.035145 0.889325 -1.210673
vn 0.000000 0.000000 0.000000
v -0.020518 1.077951 -1.222877
vn 0.000000 0.000000 0.000000
v -0.404292 0.993126 -1.158452
vn -0.092585 -0.993510 0.066078
v -0.295561 0.830973 -1.149687
vn 0.092909 -0.994531 -0.047702
v -0.156637 0.831005 -1.160637
vn 0.782973 -0.569907 0.249318
v 0.226486 1.086177 -1.167747
vn 0.489347 -0.870043 0.059701
v -0.002184 0.856945 -1.130742
vn 0.691260 -0.712818 0.118533
v 0.107741 0.943352 -1.146536
vn -0.128302 -0.851582 -0.508279
v -0.400440 0.898413 -1.146445
vn 0.000000 0.000000 0.000000
v -0.248153 0.873539 -1.196714
vn 0.000000 0.000000 0.000000
v -0.378020 1.266710 -1.141459
vn 0.000000 0.000000 0.000000
v -0.186240 1.097617 -1.214556
vn 0.000000 0.000000 0.000000
v -0.285404 0.992928 -1.204123
vn 0.000000 0.000000 0.000000
v -0.191117 0.962620 -1.218819
vn 0.000000 0.000000 0.000000
v -0.253528 1.240729 -1.185959
vn 0.000000 0.000000 0.000000
v -0.113431 1.249268 -1.204227
vn 0.000000 0.000000 0.000000
v 0.230214 1.116401 -1.201690
vn 0.000000 0.000000 0.000000
v 0.139486 1.292815 -1.202706
vn 0.000000 0.000000 0.000000
v 0.059805 1.347177 -1.200981
vn 0.000000 0.000000 0.000000
v 0.261791 1.370791 -1.162182
vn -0.229379 -0.969428 -0.087143
v -0.501404 0.865271 -1.065433
vn -0.138356 -0.979859 -0.143996
v -0.345183 0.841255 -1.064629
vn 0.000000 0.000000 0.000000
v -0.538781 0.908927 -1.096092
vn 0.000000 0.000000 0.000000
v 0.219593 1.595604 -1.101437
vn 0.000000 0.000000 0.000000
v -0.324622 1.459266 -1.085633
vn 0.108657 -0.993562 -0.032072
v -0.150372 0.825774 -1.039371
vn 0.468466 -0.866546 0.172155
v -0.038246 0.853358 -1.014304
vn 0.000000 0.000000 0.000000
v -0.101316 1.500713 -1.126478
vn 0.730916 -0.442455 0.519610
v 0.283576 1.202345 -1.095779
vn 0.863005 -0.390965 0.319951
v 0.346228 1.341840 -1.109371
vn 0.000000 0.000000 0.000000
v -0.295163 1.375665 -1.132042
vn 0.000000 0.000000 0.000000
v -0.586264 1.012000 -1.072297
vn 0.000000 0.000000 0.000000
v -0.162448 1.369342 -1.164690
vn 0.000000 0.000000 0.000000
v -0.379695 1.109121 -1.162828
vn 0.000000 0.000000 0.000000
v -0.029440 1.394177 -1.171677
vn 0.000000 0.000000 0.000000
v 0.124789 1.466549 -1.152753
vn 0.000000 0.000000 0.000000
v 0.298222 1.244176 -1.155319
vn 0.000000 0.000000 0.000000
v 0.274178 1.516102 -1.115300
vn 0.000000 0.000000 0.000000
v -0.440471 1.405344 -1.063266
vn 0.000000 0.000000 0.000000
v -0.148669 1.593991 -1.070983
vn 0.897537 -0.286445 0.335226
v 0.389289 1.569029 -1.007658
vn -0.390008 -0.914304 -0.109281
v -0.626407 0.916580 -1.048594
vn 0.000000 0.000000 0.000000
v 0.347106 1.619940 -1.059895
vn 0.765944 -0.519383 0.378907
v 0.168299 1.049397 -1.069088
vn 0.000000 0.000000 0.000000
v -0.539765 1.115798 -1.092715
vn -0.069088 -0.996703 0.042539
v -0.249325 0.829451 -1.107798
vn 0.954386 -0.117576 -0.274452
v 0.353919 1.480903 -1.092903
vn 0.757326 -0.408039 0.509864
v 0.312115 1.326937 -1.035569
vn 0.000000 0.000000 0.000000
v 0.126861 1.625163 -1.088758
vn 0.000000 0.000000 0.000000
v -0.539308 1.242955 -1.064792
vn 0.000000 0.000000 0.000000
v 0.238492 1.681530 -1.061073
vn 0.000000 0.000000 0.000000
v -0.182306 1.678805 -1.005656
vn -0.273301 -0.950831 0.145693
v -0.451454 0.859129 -0.967722
vn 0.000000 0.000000 0.000000
v -0.693283 0.967227 -0.998712
vn 0.000000 0.000000 0.000000
v -0.053493 1.752693 -1.017114
vn 0.706132 -0.390581 0.590613
v 0.202559 1.256487 -0.972742
vn 0.979123 -0.175432 0.102677
v 0.414190 1.721222 -0.985081
vn 0.301982 -0.867808 0.394609
v -0.143204 0.827328 -0.911105
vn 0.761256 -0.416574 0.496945
v 0.106931 1.070162 -0.955582
vn 0.000000 0.000000 0.000000
v -0.353050 1.571333 -0.997573
vn 0.000000 0.000000 0.000000
v -0.221861 1.510765 -1.084946
vn 0.000000 0.000000 0.000000
v -0.637149 1.138938 -1.030377
vn 0.000000 0.000000 0.000000
v -0.014439 1.610029 -1.087790
vn 0.000000 0.000000 0.000000
v 0.137201 1.771352 -1.031187
vn 0.700855 -0.622727 0.347869
v 0.053667 0.937246 -1.008067
vn 0.000000 0.000000 0.000000
v -0.575731 1.405665 -0.985823
vn 0.000000 0.000000 0.000000
v 0.336467 1.759049 -1.014259
vn 0.000000 0.000000 0.000000
v 0.092314 1.869745 -0.988978
vn 0.882513 -0.264168 0.389084
v 0.436943 1.794475 -0.932369
vn 0.000000 0.000000 0.000000
v -0.510286 1.504961 -0.959120
vn 0.794981 -0.332362 0.507484
v 0.144320 1.214058 -0.921709
vn 0.000000 0.000000 0.000000
v -0.302937 1.699596 -0.933518
vn -0.558480 -0.828762 0.035411
v -0.757419 0.991796 -0.924557
vn 0.000000 0.000000 0.000000
v -0.724218 1.071807 -0.977839
vn 0.000000 0.000000 0.000000
v -0.076460 1.843948 -0.959615
vn 0.000000 0.000000 0.000000
v 0.417506 1.850258 -0.946075
vn 0.000000 0.000000 0.000000
v 0.264231 2.011927 -0.918430
vn -0.306324 -0.928638 0.209275
v -0.644914 0.914315 -0.963590
vn 0.000000 0.000000 0.000000
v -0.699723 1.213636 -0.965339
vn 0.885088 -0.315854 0.341841
v 0.365063 1.435193 -1.034569
vn 0.000000 0.000000 0.000000
v 0.326264 1.887131 -0.968651
vn 0.000000 0.000000 0.000000
v -0.232445 1.775494 -0.932255
vn 0.000000 0.000000 0.000000
v 0.077849 1.970767 -0.938959
vn 0.000000 0.000000 0.000000
v 0.186925 1.912346 -0.983368
vn 0.000000 0.000000 0.000000
v -0.754250 1.359809 -0.867162
vn 0.867334 -0.264444 0.421665
v 0.424147 1.885888 -0.841279
vn -0.197856 -0.980059 0.018382
v -0.321106 0.821272 -0.953403
vn 0.904357 -0.620503 1.592919
v -0.039096 0.898403 -0.909719
vn 1.252163 -1.022822 2.629005
v 0.043631 1.036480 -0.892088
vn 1.500970 -0.911795 2.263410
v 0.105959 1.164372 -0.882102
vn 0.000000 0.000000 0.000000
v -0.099604 1.980582 -0.876473
vn 0.691783 -0.368645 0.620917
v 0.224071 1.443208 -0.873310
vn -0.237581 -0.908701 0.343247
v -0.737252 0.981908 -0.837940
vn 0.000000 0.000000 0.000000
v 0.325810 2.118930 -0.813979
vn 0.000000 0.000000 0.000000
v -0.824704 1.130445 -0.869025
vn 0.000000 0.000000 0.000000
v 0.398319 1.985932 -0.884668
vn 0.000000 0.000000 0.000000
v -0.680407 1.358305 -0.921543
vn 0.725106 -0.353309 0.591096
v 0.326559 1.524500 -0.929075
vn 0.970575 -0.032367 0.238615
v 0.419866 2.054445 -0.801004
vn -0.423594 -0.903395 0.066679
v -0.837292 1.019052 -0.788551
vn 0.000000 0.000000 0.000000
v -0.202816 1.885294 -0.883605
vn 1.628355 -0.993088 2.543826
v 0.152566 1.362401 -0.832576
vn 0.584803 -0.441103 2.323202
v -0.269826 0.876725 -0.823689
vn 0.689826 -0.433341 0.579962
v 0.324749 1.676696 -0.843809
vn 0.842920 -0.323280 0.430089
v 0.405670 1.714097 -0.916008
vn 0.000000 0.000000 0.000000
v -0.361425 1.699879 -0.897191
vn 0.000000 0.000000 0.000000
v -0.023843 2.069939 -0.853062
vn 0.000000 0.000000 0.000000
v -0.790119 1.402012 -0.796256
vn 0.000000 0.000000 0.000000
v -0.642323 1.508526 -0.852216
vn 0.000000 0.000000 0.000000
v 0.109263 2.089290 -0.868231
vn 0.000000 0.000000 0.000000
v 0.381675 2.124203 -0.777851
vn 0.003563 -0.957901 0.287078
v -0.244239 0.810487 -0.907062
vn -0.230268 -0.839941 0.491401
v -0.565360 0.948581 -0.840070
vn 1.131038 -0.744941 3.075090
v -0.126022 0.900555 -0.854032
vn 0.000000 0.000000 0.000000
v -0.810764 1.276880 -0.846747
vn 1.605416 -1.457849 5.885136
v -0.223802 1.030873 -0.806006
vn 2.090094 -1.765160 5.630446
v -0.047070 1.037112 -0.851159
vn -0.196419 -0.672350 0.713698
v -0.435253 0.923685 -0.794438
vn 0.000000 0.000000 0.000000
v -0.241014 1.946718 -0.807326
vn 0.860556 -0.162875 0.482612
v 0.393615 2.045825 -0.695396
vn 2.102062 -2.183042 5.477755
v -0.432945 1.131507 -0.711931
vn 0.000000 0.000000 0.000000
v -0.344071 1.805026 -0.833323
vn 0.000000 0.000000 0.000000
v 0.018636 2.153947 -0.786686
vn 0.771053 -0.425551 0.473691
v 0.339149 1.772141 -0.773100
vn 0.000000 0.000000 0.000000
v 0.182222 2.172217 -0.780804
vn 0.000000 0.000000 0.000000
v -0.930182 1.124654 -0.757835
vn 0.000000 0.000000 0.000000
v -0.903798 1.324741 -0.733340
vn -0.569735 -0.777726 -0.265600
v -0.849132 1.041372 -0.828507
vn -0.228884 -0.860261 0.455592
v -0.375327 0.861733 -0.856146
vn 0.000000 0.000000 0.000000
v -0.149551 2.076429 -0.772781
vn 2.121206 -2.394640 5.348317
v -0.353952 1.260555 -0.692986
vn 0.000000 0.000000 0.000000
v -0.487749 1.648468 -0.847319
vn 2.475780 -1.980140 5.350152
v 0.064087 1.239532 -0.824057
vn 0.832544 -0.841692 2.586050
v -0.467672 1.000463 -0.748325
vn -0.374943 -0.890025 0.259372
v -0.909727 1.071384 -0.732918
vn 0.000000 0.000000 0.000000
v -0.697609 1.577537 -0.739507
vn 0.000000 0.000000 0.000000
v -0.621595 1.660137 -0.710006
vn -0.117620 -0.887387 0.445768
v -0.822493 1.051994 -0.710856
vn -0.003689 -0.806198 0.591634
v -0.662874 1.049499 -0.719811
vn 1.221987 -1.434269 0.883796
v 0.243722 1.699376 -0.701115
vn 0.818227 -0.274567 0.505093
v 0.354994 1.896168 -0.697465
vn 0.000000 0.000000 0.000000
v 0.361306 2.175856 -0.715164
vn 1.688520 -2.124762 5.636280
v -0.103143 1.262662 -0.773117
vn 0.000000 0.000000 0.000000
v -0.961802 1.230311 -0.698480
vn 1.671610 -1.393281 1.855004
v 0.210073 1.581360 -0.784675
vn -0.269055 -0.882021 0.386844
v -0.918381 1.108026 -0.621964
vn -0.383164 -0.869278 0.312314
v -1.005785 1.162097 -0.606465
vn 0.000000 0.000000 0.000000
v -0.269811 2.031689 -0.700189
vn 0.068970 -0.861321 0.503358
v -0.790225 1.130780 -0.575762
vn 1.261372 -1.266885 2.067121
v -0.640484 1.132808 -0.617676
vn 1.471484 -2.281228 1.226385
v 0.213362 1.700625 -0.617777
vn 0.000000 0.000000 0.000000
v -0.141721 2.163304 -0.671663
vn 0.000000 0.000000 0.000000
v -0.494525 1.791194 -0.690109
vn 0.000000 0.000000 0.000000
v -0.053700 2.190293 -0.700584
vn 0.000000 0.000000 0.000000
v 0.067170 2.232260 -0.689763
vn 0.900135 -0.031648 0.434460
v 0.393366 2.143733 -0.687747
vn 0.000000 0.000000 0.000000
v 0.275343 2.226577 -0.686863
vn 0.000000 0.000000 0.000000
v -0.775642 1.506917 -0.739162
vn 0.000000 0.000000 0.000000
v -0.367069 1.889344 -0.732076
vn 2.562893 -2.608787 5.058953
v 0.063729 1.450666 -0.741785
vn 2.004271 -1.784018 2.180917
v -0.684244 1.175856 -0.546268
vn 0.000000 0.000000 0.000000
v -0.882917 1.482718 -0.636635
vn 0.000000 0.000000 0.000000
v -0.765381 1.593427 -0.660951
vn 0.759252 -0.357509 0.543805
v 0.258065 1.798973 -0.605187
vn 0.000000 0.000000 0.000000
v 0.351639 2.219036 -0.624122
vn 0.000000 0.000000 0.000000
v -0.522507 1.876775 -0.533204
vn 1.339844 -1.439618 3.009444
v -0.555262 1.103303 -0.670229
vn 1.896372 -3.364705 4.880340
v -0.173157 1.501165 -0.630524
vn 0.000000 0.000000 0.000000
v -0.387496 1.955945 -0.643196
vn 2.739566 -3.999640 3.909746
v 0.108162 1.615906 -0.649140
vn 3.092381 -2.904142 4.557860
v -0.553885 1.281697 -0.579269
vn 2.602656 -3.518474 4.333190
v -0.424784 1.452517 -0.552194
vn 0.000000 0.000000 0.000000
v -0.298146 2.085254 -0.584532
vn 0.000000 0.000000 0.000000
v -0.743035 1.675658 -0.567071
vn 1.684533 -3.718706 4.157065
v -0.208990 1.597714 -0.548454
vn 1.769231 -4.831265 3.398986
v -0.151263 1.670461 -0.479974
vn 0.769999 -0.390572 0.504534
v 0.164249 1.837902 -0.461535
vn 0.000000 0.000000 0.000000
v -0.189748 2.164716 -0.588379
vn 0.777408 -0.253468 0.575666
v 0.289715 2.017333 -0.575025
vn 0.000000 0.000000 0.000000
v 0.295168 2.266569 -0.577205
vn 3.215942 -3.860501 3.528160
v -0.524240 1.464889 -0.467538
vn 0.000000 0.000000 0.000000
v -0.813024 1.688534 -0.479071
vn -0.503113 -0.792265 0.345246
v -1.044372 1.199566 -0.499248
vn -0.905382 -0.380351 0.188725
v -1.068608 1.242313 -0.529364
vn 0.000000 0.000000 0.000000
v -0.013209 2.264905 -0.558718
vn -0.174036 -0.895426 0.409784
v -0.950461 1.181573 -0.496235
vn 0.036718 -0.868269 0.494733
v -0.876169 1.231097 -0.369975
vn 0.829915 -0.235827 0.505595
v 0.241978 2.140261 -0.422447
vn 0.000000 0.000000 0.000000
v -1.028879 1.437418 -0.504096
vn 0.000000 0.000000 0.000000
v 0.171049 2.282416 -0.602175
vn 3.965019 -3.398399 3.456133
v -0.682827 1.289734 -0.450586
vn 0.000000 0.000000 0.000000
v -0.916393 1.592583 -0.477202
vn 0.000000 0.000000 0.000000
v -0.591880 1.773103 -0.581071
vn 0.000000 0.000000 0.000000
v -1.011913 1.329996 -0.593093
vn 0.812969 -0.250369 0.525734
v 0.221616 1.968280 -0.507048
vn 0.841928 -0.179483 0.508865
v 0.316400 2.200241 -0.524170
vn 0.000000 0.000000 0.000000
v -0.390643 2.045422 -0.468996
vn 2.616062 -4.477646 3.402331
v -0.296552 1.595494 -0.484049
vn -0.324553 -0.842714 0.429533
v -1.046695 1.267023 -0.374442
vn 0.000000 0.000000 0.000000
v -0.263330 2.160105 -0.480978
vn 0.000000 0.000000 0.000000
v -0.155725 2.231851 -0.479408
vn 1.451698 -1.354233 1.244843
v -0.775573 1.217472 -0.421041
vn 0.000000 0.000000 0.000000
v -0.693333 1.767911 -0.469292
vn 1.762917 -4.845117 3.504317
v -0.028192 1.697164 -0.496492
vn 1.075339 -2.606012 1.925449
v 0.127474 1.741018 -0.516717
vn 0.000000 0.000000 0.000000
v 0.154233 2.324214 -0.418261
vn 0.861749 0.071774 0.502232
v 0.223017 2.298963 -0.378048
vn 0.000000 0.000000 0.000000
v 0.258841 2.298930 -0.484278
vn 4.065283 -3.393652 3.250327
v -0.609501 1.402731 -0.435051
vn 0.000000 0.000000 0.000000
v -0.342263 2.126430 -0.324359
vn 0.000000 0.000000 0.000000
v -1.106409 1.344404 -0.418571
vn 0.000000 0.000000 0.000000
v -0.831004 1.711294 -0.383137
vn 2.172073 -5.267168 2.618318
v -0.062099 1.781363 -0.314994
vn 0.000000 0.000000 0.000000
v -1.027970 1.527579 -0.409843
vn 1.742998 -1.546204 1.788044
v -0.736686 1.191204 -0.483288
vn 2.791360 -4.806369 2.837288
v -0.472688 1.577242 -0.352651
vn 0.000000 0.000000 0.000000
v -0.247743 2.198280 -0.366067
vn 0.000000 0.000000 0.000000
v -0.555157 1.908477 -0.408300
vn 0.000000 0.000000 0.000000
v 0.030095 2.322456 -0.388568
vn 0.000000 0.000000 0.000000
v -0.406062 2.074382 -0.345818
vn 0.000000 0.000000 0.000000
v -0.985083 1.608787 -0.316103
vn 2.269211 -5.282711 2.452124
v -0.194413 1.717281 -0.354762
vn 1.152945 -2.929306 1.799596
v 0.077145 1.789770 -0.390026
vn 0.852844 -0.239956 0.463766
v 0.161215 2.039663 -0.344926
vn 0.000000 0.000000 0.000000
v -1.128690 1.410702 -0.319152
vn 0.000000 0.000000 0.000000
v -1.086573 1.470205 -0.350192
vn 0.000000 0.000000 0.000000
v -0.485090 2.002707 -0.321129
vn 0.000000 0.000000 0.000000
v -0.580088 1.918120 -0.304805
vn 0.000000 0.000000 0.000000
v -0.913004 1.671971 -0.341385
vn 1.188320 -1.958589 1.228477
v 0.085911 1.882783 -0.279152
vn 0.000000 0.000000 0.000000
v -0.092699 2.287397 -0.376222
vn 0.000000 0.000000 0.000000
v -0.751916 1.804159 -0.214964
vn 0.857573 -0.096908 0.505151
v 0.149089 2.240139 -0.242793
vn 0.000000 0.000000 0.000000
v -0.698224 1.821423 -0.317637
vn 0.000000 0.000000 0.000000
v 0.112756 2.327867 -0.283427
vn 0.000000 0.000000 0.000000
v -1.127631 1.459622 -0.244753
vn 4.001153 -4.152428 2.253076
v -0.570838 1.522119 -0.326218
vn -0.539533 -0.742876 0.396283
v -1.114977 1.377611 -0.260098
vn 2.676832 -2.413555 1.230424
v -0.733882 1.370840 -0.269646
vn -0.392791 -0.815455 0.425146
v -1.030578 1.372019 -0.155673
vn 0.000000 0.000000 0.000000
v -1.045660 1.583585 -0.210651
vn 0.000000 0.000000 0.000000
v -0.402315 2.085957 -0.207711
vn 0.000000 0.000000 0.000000
v -0.884430 1.710562 -0.231366
vn 0.088802 -0.931200 0.353527
v -0.881315 1.321492 -0.183087
vn 0.000000 0.000000 0.000000
v -0.020985 2.320550 -0.241199
vn 0.864594 -0.183679 0.467697
v 0.081096 2.079361 -0.171164
vn 2.508435 -4.675986 1.477749
v -0.522892 1.595771 -0.276988
vn 2.671329 -5.337284 1.733230
v -0.307109 1.728137 -0.210973
vn -0.290773 -0.878324 0.379470
v -0.911685 1.377773 -0.054392
vn 0.000000 0.000000 0.000000
v -0.124603 2.285917 -0.143569
vn 0.000000 0.000000 0.000000
v 0.004976 2.318828 -0.138053
vn 0.000000 0.000000 0.000000
v 0.073096 2.307354 -0.166094
vn 0.000000 0.000000 0.000000
v -1.109986 1.511455 -0.160888
vn 4.319481 -4.469606 0.556065
v -0.607991 1.546127 -0.115279
vn 0.000000 0.000000 0.000000
v -0.592868 1.926584 -0.187424
vn 0.000000 0.000000 0.000000
v -0.181243 2.261600 -0.261081
vn 0.000000 0.000000 0.000000
v -0.263060 2.201088 -0.196790
vn -0.614751 -0.656596 0.436992
v -1.102556 1.455232 -0.131898
vn 0.000000 0.000000 0.000000
v -0.948803 1.686860 -0.107278
vn 0.000000 0.000000 0.000000
v -0.806180 1.786497 -0.135403
vn 1.920799 -2.075286 0.325972
v -0.764515 1.399055 -0.054404
vn 3.081999 -4.975427 2.164876
v -0.056914 1.852383 -0.154490
vn 0.000000 0.000000 0.000000
v -0.503543 1.988056 -0.038742
vn 1.569640 -1.791734 1.043676
v 0.023362 1.939119 -0.126315
vn 3.531709 -4.896823 1.177571
v -0.518977 1.613293 -0.204653
vn -0.497000 -0.747599 0.440553
v -0.999918 1.463922 0.025547
vn 0.000000 0.000000 0.000000
v -1.074301 1.557082 -0.050476
vn 0.836706 -0.209856 0.505849
v -0.014634 2.045159 -0.018424
vn 0.832040 -0.015028 0.554513
v -0.001749 2.177068 0.005153
vn 0.000000 0.000000 0.000000
v -0.705971 1.850991 -0.027427
vn 0.178175 -0.945724 0.271772
v -0.832825 1.365298 -0.043628
vn 0.000000 0.000000 0.000000
v -0.984381 1.672373 -0.006739
vn 0.000000 0.000000 0.000000
v -0.491965 1.986147 0.053799
vn 3.028841 -5.372167 1.166892
v -0.225704 1.818055 0.018143
vn 0.000000 0.000000 0.000000
v -0.310219 2.149143 -0.044084
vn 0.000000 0.000000 0.000000
v -0.858684 1.760686 -0.016323
vn 1.682199 -2.478259 0.842099
v -0.078033 1.907804 0.013128
vn 0.000000 0.000000 0.000000
v -0.014967 2.233958 0.033011
vn 0.000000 0.000000 0.000000
v -0.150851 2.242721 -0.016697
vn 0.782329 0.291966 0.550198
v -0.000961 2.277516 -0.049270
vn 0.000000 0.000000 0.000000
v -0.219973 2.163398 0.098658
vn 0.000000 0.000000 0.000000
v -1.023209 1.625841 0.096133
vn -0.635422 -0.616872 0.464444
v -1.032242 1.540044 0.082428
vn 0.000000 0.000000 0.000000
v -0.406644 2.059686 0.021007
vn 0.834249 -0.352487 0.424006
v -0.115530 1.925536 0.116812
vn -0.094434 -0.925977 0.365580
v -0.838696 1.414893 0.106128
vn 4.143481 -4.624906 0.501704
v -0.643665 1.506088 0.033190
vn 3.658985 -4.984746 0.929666
v -0.471516 1.675036 0.035933
vn 1.540306 -1.816254 0.721135
v -0.736805 1.455849 0.153118
vn 0.000000 0.000000 0.000000
v -0.337718 2.102239 0.047161
vn 0.000000 0.000000 0.000000
v -0.305583 2.087442 0.143865
vn 0.000000 0.000000 0.000000
v -0.926950 1.719336 0.090905
vn 0.000000 0.000000 0.000000
v -0.426040 2.006740 0.141009
vn 0.728136 0.126013 0.673750
v -0.078170 2.208194 0.081921
vn 3.448180 -4.529869 2.474451
v -0.525273 1.675873 0.206206
vn 3.187060 -5.274217 1.008295
v -0.447933 1.717199 0.143784
vn 0.000000 0.000000 0.000000
v -0.650619 1.883674 0.142124
vn 2.942309 -5.014234 2.127843
v -0.345979 1.780478 0.179399
vn 1.311712 -2.318976 0.589774
v -0.197249 1.860616 0.178161
vn 3.895018 -4.270772 2.121459
v -0.622407 1.550972 0.136728
vn 0.000000 0.000000 0.000000
v -0.814218 1.787916 0.119751
vn 0.000000 0.000000 0.000000
v -0.534165 1.922897 0.234093
vn -0.085503 -0.832286 0.547713
v -0.823308 1.465292 0.222950
vn -0.524852 -0.713227 0.464583
v -0.929412 1.514776 0.189553
vn 0.393276 0.330296 0.858044
v -0.249840 2.040439 0.205681
vn 0.000000 0.000000 0.000000
v -0.929301 1.708191 0.183509
vn 0.656983 -0.074475 0.750218
v -0.163032 1.944783 0.202715
vn 0.000000 0.000000 0.000000
v -0.845253 1.764731 0.247506
vn 0.790868 -0.051154 0.609846
v -0.097099 2.069421 0.128333
vn 0.000000 0.000000 0.000000
v -0.143905 2.144759 0.161813
vn 0.340957 -0.607517 0.717406
v -0.777018 1.506711 0.255425
vn 0.000000 0.000000 0.000000
v -0.962955 1.633131 0.223254
vn -0.361605 -0.485569 0.795905
v -0.904321 1.602909 0.304672
vn 1.531579 -1.995708 2.250188
v -0.388896 1.821836 0.273520
vn 0.186425 -0.060258 0.980620
v -0.340939 1.918460 0.270341
vn 2.321512 -3.411034 4.413772
v -0.555089 1.718970 0.291954
vn 0.000000 0.000000 0.000000
v -0.621699 1.876809 0.272020
vn 0.000000 0.000000 0.000000
v -0.433528 1.950887 0.251429
vn -0.269163 -0.604187 0.750007
v -0.860446 1.527611 0.278669
vn 0.492981 -0.262409 0.829525
v -0.234056 1.915495 0.249839
vn 1.515842 -2.111376 2.018433
v -0.673873 1.609978 0.255080
vn -0.166144 -0.092129 0.981788
v -0.847643 1.707250 0.322326
vn 0.127690 -0.374932 0.918216
v -0.819995 1.604140 0.317329
vn 0.164882 -0.342428 0.924963
v -0.755595 1.694546 0.336711
vn 0.706683 0.728947 2.371782
v -0.513692 1.869696 0.302565
vn 0.000000 0.000000 0.000000
v -0.725264 1.822645 0.292695
vn 0.041587 -0.112369 0.992796
v -0.725935 1.779083 0.345037
vn 0.571151 -1.002252 2.758538
v -0.654656 1.750398 0.338804
vn 0.088292 0.265823 1.840510
v -0.649438 1.838970 0.337428
vn 1.259349 0.073678 5.561906
v -0.571914 1.812246 0.337569
# 340 vertices, 0 vertices normals

f 153//153 170//170 178//178
f 170//170 112//112 155//155
f 178//178 141//141 153//153
f 180//180 170//170 155//155
f 170//170 180//180 178//178
f 223//223 258//258 232//232
f 223//223 233//233 240//240
f 275//275 249//249 247//247
f 177//177 144//144 131//131
f 298//298 258//258 284//284
f 275//275 258//258 298//298
f 144//144 113//113 126//126
f 126//126 113//113 124//124
f 144//144 126//126 131//131
f 131//131 126//126 141//141
f 271//271 264//264 297//297
f 264//264 298//298 297//297
f 170//170 153//153 143//143
f 112//112 170//170 143//143
f 309//309 308//308 284//284
f 310//310 298//298 305//305
f 305//305 298//298 306//306
f 298//298 284//284 308//308
f 308//308 306//306 298//298
f 331//331 299//299 310//310
f 258//258 226//226 208//208
f 264//264 271//271 249//249
f 249//249 275//275 264//264
f 275//275 298//298 264//264
f 310//310 297//297 298//298
f 127//127 143//143 153//153
f 99//99 100//100 143//143
f 112//112 143//143 100//100
f 178//178 182//182 141//141
f 182//182 178//178 208//208
f 249//249 212//212 201//201
f 258//258 272//272 284//284
f 287//287 284//284 272//272
f 287//287 272//272 274//274
f 309//309 284//284 287//287
f 326//326 331//331 305//305
f 326//326 305//305 324//324
f 324//324 305//305 308//308
f 331//331 326//326 338//338
f 340//340 338//338 326//326
f 340//340 326//326 324//324
f 324//324 335//335 340//340
f 247//247 219//219 191//191
f 226//226 191//191 182//182
f 226//226 247//247 191//191
f 226//226 182//182 208//208
f 212//212 225//225 201//201
f 201//201 219//219 249//249
f 247//247 249//249 219//219
f 339//339 338//338 340//340
f 186//186 208//208 185//185
f 208//208 178//178 185//185
f 272//272 223//223 240//240
f 258//258 223//223 272//272
f 272//272 240//240 274//274
f 155//155 150//150 180//180
f 180//180 150//150 161//161
f 181//181 160//160 177//177
f 181//181 177//177 131//131
f 182//182 181//181 141//141
f 181//181 131//131 141//141
f 225//225 171//171 201//201
f 201//201 171//171 181//181
f 171//171 160//160 181//181
f 219//219 201//201 181//181
f 219//219 181//181 191//191
f 181//181 182//182 191//191
f 232//232 258//258 208//208
f 232//232 208//208 186//186
f 223//223 186//186 214//214
f 223//223 232//232 186//186
f 214//214 215//215 233//233
f 233//233 223//223 214//214
f 257//257 247//247 226//226
f 247//247 257//257 275//275
f 275//275 257//257 226//226
f 275//275 226//226 258//258
f 299//299 271//271 297//297
f 299//299 297//297 310//310
f 331//331 310//310 305//305
f 306//306 308//308 305//305
f 309//309 324//324 308//308
f 153//153 126//126 127//127
f 153//153 141//141 126//126
f 127//127 126//126 124//124
f 127//127 124//124 98//98
f 127//127 98//98 99//99
f 99//99 143//143 127//127
f 185//185 178//178 186//186
f 214//214 186//186 178//178
f 178//178 180//180 214//214
f 215//215 214//214 180//180
f 161//161 215//215 180//180
f 339//339 340//340 335//335
# 99 faces, 0 coords texture

# End of File
