####
#
# OBJ File Generated by Meshlab
#
####
# Object cake_part07_seg_04.obj
#
# Vertices: 279
# Faces: 133
#
####
vn 0.410369 -0.263130 -0.873132
v -1.067775 -0.399113 -1.234513
vn -0.746897 0.189582 -1.424571
v -1.199897 -0.328784 -1.251744
vn -0.118943 -0.118678 -0.985783
v -1.139927 -0.385012 -1.255809
vn -0.239712 0.134122 -0.961535
v -1.123749 -0.205762 -1.253568
vn 0.518662 0.101055 -0.848986
v -1.036626 -0.132174 -1.202340
vn -0.432073 -0.261738 -0.863022
v -1.250905 -0.416303 -1.204251
vn -2.125950 1.715532 -5.249385
v -1.158485 0.063827 -1.197463
vn -0.036568 -0.711144 -0.702095
v -1.130192 -0.441390 -1.199211
vn -0.126119 1.932188 -4.961405
v -1.088349 0.152095 -1.192665
vn 0.600877 0.025379 -0.798939
v -0.969184 -0.321834 -1.167060
vn -3.481847 1.429444 -4.757401
v -1.216496 -0.035423 -1.196575
vn -1.915989 0.660898 -3.041047
v -1.204353 -0.137520 -1.223954
vn 0.090524 0.396078 -3.152317
v -1.090852 0.035805 -1.205718
vn 0.375936 0.047874 -0.925408
v -1.072054 -0.302344 -1.244134
vn 0.607251 0.770591 -2.664972
v -0.983677 0.176320 -1.143635
vn -0.315232 -0.929194 -0.192945
v -1.286957 -0.444893 -1.089697
vn 0.616923 -0.165036 -0.769525
v -1.015899 -0.425658 -1.182244
vn 0.598800 -0.103915 -0.794129
v -0.920578 -0.412736 -1.118515
vn -4.371760 1.183754 -4.100494
v -1.352996 -0.261973 -1.147257
vn -4.536907 1.847564 -3.806615
v -1.269154 -0.070113 -1.152569
vn -1.961253 0.343951 -2.612492
v -1.307036 -0.345101 -1.197743
vn -1.977941 3.014285 -4.327752
v -1.096102 0.218066 -1.148087
vn 0.532071 0.043396 -0.845587
v -0.964677 0.029524 -1.133470
vn -4.316193 2.568370 -3.467314
v -1.203563 0.071144 -1.156596
vn 0.000000 0.000000 0.000000
v -1.036796 -0.454351 -1.099004
vn -1.676807 0.103436 -1.495080
v -1.395739 -0.391414 -1.108274
vn -0.593304 -0.205099 -0.778412
v -1.335406 -0.419594 -1.156491
vn -4.954994 2.462787 -2.962461
v -1.299018 -0.048387 -1.089679
vn -0.084971 1.148373 -3.179006
v -0.933466 0.311308 -1.109155
vn -0.442255 -0.824792 -0.352320
v -1.402806 -0.422217 -0.982324
vn 0.456628 -0.067828 -0.887068
v -0.778434 0.207213 -1.033447
vn -3.523004 0.732452 -2.000807
v -1.442199 -0.347108 -1.049739
vn 0.312081 -0.831074 -0.460349
v -0.917216 -0.455347 -1.039308
vn -4.766694 3.045501 -2.660711
v -1.221473 0.114340 -1.078700
vn -0.484083 3.447006 -4.249601
v -0.870103 0.464273 -1.065055
vn 0.624504 1.637904 -2.243219
v -0.811324 0.464300 -1.048671
vn -3.994598 3.865600 -2.601329
v -1.102151 0.286573 -1.067897
vn 0.555340 0.047190 -0.830284
v -0.878074 -0.127022 -1.081833
vn 0.418279 -0.067172 -0.905832
v -0.771715 0.343719 -1.040467
vn -0.220145 1.124959 -2.995578
v -0.866590 0.408957 -1.086363
vn 0.500057 -0.098804 -0.860338
v -0.658519 0.144630 -0.961922
vn -2.468663 4.851811 -1.823115
v -0.882572 0.480596 -1.033490
vn -2.311213 3.613331 -3.615858
v -0.966837 0.398581 -1.072061
vn 0.514698 -0.099534 -0.851574
v -0.690507 -0.407654 -0.962347
vn -0.542818 3.017684 -1.439842
v -0.787848 0.506905 -1.005019
vn 0.557480 0.020201 -0.829945
v -0.791981 -0.302774 -1.035937
vn 0.543969 -0.244882 -0.802577
v -0.801030 -0.418256 -1.027505
vn 0.512502 -0.034033 -0.858011
v -0.619620 0.335596 -0.966558
vn -2.683893 -0.175789 -0.432544
v -1.473444 -0.403214 -0.969527
vn -2.405548 5.493060 -1.574043
v -0.856108 0.510755 -0.949040
vn 0.000000 0.000000 0.000000
v -1.167965 -0.462746 -0.915777
vn -4.475257 3.838849 -2.143686
v -1.160222 0.265856 -0.972623
vn 0.000000 0.000000 0.000000
v -0.807448 -0.459724 -0.951880
vn -5.717754 0.468061 -2.062047
v -1.481050 -0.330142 -0.952030
vn -5.126511 2.057491 -2.921631
v -1.382455 -0.186837 -1.060330
vn -5.035789 2.547693 -2.755437
v -1.331890 -0.017084 -1.000408
vn -3.676052 4.664318 -2.014855
v -1.053431 0.370722 -0.968643
vn 0.445021 0.131317 -0.885840
v -0.655224 0.499390 -0.960164
vn 0.437602 0.204141 -0.875689
v -0.730582 0.433051 -1.016456
vn 0.503607 0.026740 -0.863519
v -0.696085 -0.153773 -0.976525
vn 0.500304 -0.027874 -0.865401
v -0.799208 0.036914 -1.029341
vn -3.256209 5.064561 -1.776910
v -0.982011 0.446066 -0.901004
vn 0.501541 -0.070506 -0.862256
v -0.606737 -0.305090 -0.923403
vn -4.436666 3.175907 -3.063632
v -1.271027 0.158040 -0.926697
vn 0.000000 0.000000 0.000000
v -0.674872 -0.466510 -0.873331
vn 0.000000 0.000000 0.000000
v -1.354224 -0.447966 -0.875807
vn 0.000000 0.000000 0.000000
v -0.596292 -0.422101 -0.877171
vn 0.596188 -0.140629 -0.790432
v -0.512407 0.201644 -0.861860
vn -0.807162 3.602599 -0.377981
v -0.696913 0.585798 -0.845236
vn 0.563966 0.040098 -0.824824
v -0.527619 0.347495 -0.903075
vn -5.558582 1.361496 -2.565024
v -1.498818 -0.270732 -0.864452
vn -4.719387 2.386997 -3.378454
v -1.375742 0.046977 -0.873500
vn -0.755386 2.443839 -0.707847
v -0.722678 0.554994 -0.938694
vn 0.495189 -0.027445 -0.868352
v -0.591663 -0.184302 -0.930487
vn 0.491933 0.096807 -0.865234
v -0.542829 0.475395 -0.907256
vn 0.473021 -0.068012 -0.878422
v -0.559761 -0.005846 -0.897092
vn 0.593731 -0.023270 -0.804327
v -0.526663 -0.185109 -0.882482
vn -5.252720 -1.067197 -2.922868
v -1.533399 -0.360483 -0.820031
vn -4.249612 3.183376 -3.155998
v -1.345432 0.231292 -0.785927
vn -3.497547 4.063253 -3.037176
v -1.218929 0.389446 -0.759527
vn 0.000000 0.000000 0.000000
v -0.578213 -0.468163 -0.798605
vn -1.845120 5.808656 -1.003299
v -0.781228 0.563205 -0.850602
vn -5.181197 1.793386 -3.038512
v -1.461404 -0.150423 -0.868872
vn 0.177477 0.950574 -0.254777
v -0.582448 0.565463 -0.880812
vn 0.704496 0.459463 -0.540906
v -0.480374 0.521898 -0.823630
vn -2.365807 -0.979022 -0.894979
v -1.469848 -0.421231 -0.877098
vn -4.481738 2.431545 -3.659642
v -1.334123 0.131475 -0.870642
vn -2.289798 -1.213453 -1.548254
v -1.534428 -0.423096 -0.762737
vn 0.000000 0.000000 0.000000
v -0.462811 -0.282294 -0.793647
vn -1.336952 5.902150 -1.662460
v -0.863893 0.550384 -0.731268
vn -1.577373 6.035695 -0.612135
v -0.776312 0.567362 -0.758289
vn 0.502727 1.223814 0.036049
v -0.474675 0.561034 -0.750861
vn -3.385913 4.348644 -2.942224
v -1.120211 0.370072 -0.867438
vn 0.000000 0.000000 0.000000
v -0.675140 -0.484620 -0.772373
vn -4.998176 -0.608763 -3.514304
v -1.601064 -0.365122 -0.714007
vn -4.667625 2.440319 -2.484763
v -1.524945 0.047188 -0.686435
vn 0.000000 0.000000 0.000000
v -0.420482 0.187160 -0.744576
vn 0.000000 0.000000 0.000000
v -0.871969 -0.476455 -0.804795
vn 0.912252 -0.016689 -0.409288
v -0.431469 0.369107 -0.772530
vn 0.922909 0.327724 0.202080
v -0.374611 0.014477 -0.657750
vn -0.216981 -0.920685 -0.324437
v -1.399040 -0.455454 -0.761457
vn 0.859408 0.510664 -0.025307
v -0.420765 0.491473 -0.729546
vn 0.000000 0.000000 0.000000
v -1.210881 -0.471069 -0.706870
vn 0.000000 0.000000 0.000000
v -0.488475 -0.416473 -0.764199
vn 0.520629 3.687659 0.049240
v -0.565732 0.598314 -0.746604
vn -2.708679 2.212177 -1.293682
v -1.352073 0.314141 -0.658531
vn -5.262844 0.823494 -3.327554
v -1.562607 -0.281737 -0.757512
vn 0.000000 0.000000 0.000000
v -0.457569 -0.079935 -0.797161
vn -2.359270 5.482064 -1.838857
v -0.927389 0.505785 -0.814500
vn 0.000000 0.000000 0.000000
v -0.459294 0.097408 -0.797642
vn 0.959169 0.060935 0.276191
v -0.404585 0.232696 -0.669235
vn -0.240498 -0.922009 -0.303415
v -1.533483 -0.452689 -0.679391
vn -2.495448 5.089366 -2.413186
v -1.107487 0.485384 -0.717816
vn -5.043643 3.182701 -1.446747
v -1.491527 0.122049 -0.644112
vn 0.995041 0.070859 0.069806
v -0.400859 0.407575 -0.683503
vn 0.913219 5.898553 0.945662
v -0.578502 0.596538 -0.660615
vn -4.784843 2.143261 -3.367377
v -1.495614 0.025322 -0.736791
vn -2.032192 2.520868 -1.079968
v -1.233446 0.426267 -0.660725
vn 0.000000 0.000000 0.000000
v -0.359469 -0.208376 -0.659360
vn -3.047518 4.861156 -2.106850
v -1.180488 0.446684 -0.712376
vn -0.238372 -0.925077 -0.295653
v -1.607854 -0.464237 -0.605766
vn -1.166149 2.165221 -0.684664
v -1.145124 0.495002 -0.623294
vn 0.506877 -0.715833 -0.480269
v -0.424812 -0.460543 -0.605442
vn 0.967482 -0.249892 0.039144
v -0.326504 -0.373809 -0.562969
vn 0.000000 0.000000 0.000000
v -0.305073 -0.259720 -0.578035
vn -5.361145 1.113954 -3.047464
v -1.636192 -0.287569 -0.642512
vn -0.883274 3.001497 -1.040892
v -0.995465 0.549812 -0.654710
vn -5.345760 1.326756 -2.875655
v -1.598464 -0.175370 -0.677034
vn -5.519373 2.188178 -1.645020
v -1.579832 -0.044872 -0.624929
vn 0.000000 0.000000 0.000000
v -1.065871 -0.479874 -0.603398
vn 0.000000 0.000000 0.000000
v -0.576654 -0.480475 -0.648273
vn -0.549957 6.208752 0.198160
v -0.667237 0.594207 -0.687518
vn 0.940724 -0.017436 0.338724
v -0.418189 0.351613 -0.616846
vn 0.881430 0.381460 0.278511
v -0.425348 0.485122 -0.616349
vn 0.733821 2.303284 0.938889
v -0.483463 0.532754 -0.563721
vn 1.165529 3.267221 0.634577
v -0.493718 0.566077 -0.656492
vn 0.000000 0.000000 0.000000
v -0.392682 -0.377535 -0.676386
vn -0.401325 4.318532 -0.539273
v -0.790926 0.583217 -0.643741
vn 0.000000 0.000000 0.000000
v -1.270751 0.394478 -0.557873
vn 0.000000 0.000000 0.000000
v -0.817561 -0.487428 -0.617086
vn -1.839219 0.176229 -0.886873
v -1.679430 -0.451403 -0.559040
vn 0.891695 0.057580 0.448959
v -0.453972 0.237214 -0.566572
vn 0.837153 0.340718 0.427885
v -0.377055 -0.039842 -0.503587
vn 0.911518 0.280332 0.300914
v -0.405880 0.076725 -0.572633
vn -2.466049 0.329551 -0.504944
v -1.707893 -0.367515 -0.483344
vn 0.973269 0.133520 0.186867
v -0.314364 -0.124109 -0.593712
vn -2.925078 -0.572612 -1.751739
v -1.630932 -0.420479 -0.653472
vn -5.423754 -0.055063 -2.238229
v -1.677402 -0.345762 -0.597898
vn 0.838265 0.393447 0.377506
v -0.327305 -0.071130 -0.564168
vn 0.760789 -0.631077 -0.151463
v -0.353010 -0.459794 -0.530779
vn 0.000000 0.000000 0.000000
v -1.266564 -0.482939 -0.496760
vn -0.208534 0.977077 -0.042827
v -0.921729 0.581852 -0.549148
vn -2.357549 1.528518 -0.187028
v -1.450281 0.199815 -0.528482
vn -0.016740 -0.994717 -0.101280
v -1.453499 -0.473361 -0.541666
vn -5.665864 2.515651 0.251345
v -1.599484 -0.059800 -0.502036
vn 0.878916 0.049621 0.474389
v -0.460871 0.367819 -0.511812
vn 0.355448 2.526569 -0.068840
v -0.762790 0.599406 -0.529554
vn 0.273516 -0.961461 -0.027981
v -0.413974 -0.484577 -0.506990
vn -0.417655 0.908465 0.016001
v -1.125969 0.487675 -0.533238
vn 0.882279 0.155909 0.444157
v -0.491234 0.209351 -0.497078
vn 1.263114 5.878509 1.383795
v -0.619952 0.578246 -0.568644
vn 0.000000 0.000000 0.000000
v -1.036121 -0.489258 -0.476454
vn -0.644996 -0.753402 -0.127932
v -1.660250 -0.469894 -0.471880
vn -0.977571 -0.210484 -0.007157
v -1.720239 -0.423067 -0.415555
vn -5.399443 3.099611 -0.252117
v -1.543343 0.048995 -0.554208
vn 0.897177 -0.099628 0.430288
v -0.492795 0.273469 -0.482129
vn -5.744041 1.816236 -0.886970
v -1.657108 -0.210105 -0.552250
vn -2.679678 1.556138 0.132391
v -1.524498 0.074330 -0.466448
vn 0.000000 0.000000 0.000000
v -1.070299 0.467758 -0.462673
vn 0.638307 -0.684083 0.352979
v -0.372898 -0.469478 -0.471478
vn 1.044396 2.651453 0.764967
v -0.683831 0.569133 -0.445798
vn 0.996036 2.145251 0.923862
v -0.546769 0.491518 -0.441558
vn 0.805395 0.380132 0.454795
v -0.423660 0.026404 -0.468615
vn 0.000000 0.000000 0.000000
v -1.165576 0.416597 -0.473816
vn 0.000000 0.000000 0.000000
v -0.998668 0.545879 -0.499418
vn 0.855503 0.101479 0.507756
v -0.315814 -0.212636 -0.522909
vn 0.000000 0.000000 0.000000
v -1.002079 0.386083 -0.400138
vn -0.152078 -0.941784 0.299860
v -1.569339 -0.483324 -0.355164
vn 0.000000 0.000000 0.000000
v -1.447076 0.161569 -0.428071
vn 0.000000 0.000000 0.000000
v -1.375022 0.264678 -0.480000
vn 0.000000 0.000000 0.000000
v -0.880569 -0.496461 -0.326622
vn 0.000000 0.000000 0.000000
v -1.268034 0.331947 -0.457249
vn 0.853567 -0.181733 0.488259
v -0.360863 -0.395188 -0.448862
vn 0.000000 0.000000 0.000000
v -0.939585 0.500564 -0.440791
vn 0.948291 0.107609 0.298603
v -0.521199 0.227019 -0.417639
vn -0.140541 0.945835 0.292651
v -0.830026 0.567416 -0.458453
vn 0.000000 0.000000 0.000000
v -1.138649 0.349147 -0.425230
vn 0.829177 0.171013 0.532184
v -0.538945 0.335085 -0.373346
vn 0.801113 0.131990 0.583779
v -0.388887 -0.197133 -0.430421
vn 0.000000 0.000000 0.000000
v -1.491499 0.039137 -0.369283
vn -0.911368 0.285876 0.296114
v -1.664283 -0.339522 -0.323991
vn 0.105511 -0.993773 0.035823
v -0.570850 -0.481181 -0.425755
vn 0.552698 -0.718164 0.422807
v -0.461087 -0.468296 -0.391612
vn -2.271756 0.914936 0.315298
v -1.602625 -0.107523 -0.391715
vn 0.873109 0.302223 0.382547
v -0.479608 0.116907 -0.453957
vn 0.000000 0.000000 0.000000
v -1.335036 0.137336 -0.361377
vn 0.000000 0.000000 0.000000
v -0.709272 0.503624 -0.376008
vn 0.000000 0.000000 0.000000
v -1.222351 0.241982 -0.376388
vn -0.764023 -0.536292 0.358692
v -1.679314 -0.467583 -0.354829
vn 0.000000 0.000000 0.000000
v -1.187147 0.160149 -0.320647
vn 0.000000 0.000000 0.000000
v -0.718012 0.345872 -0.312994
vn 0.881278 -0.165498 0.442673
v -0.459314 -0.362628 -0.302692
vn 0.000000 0.000000 0.000000
v -1.337915 -0.495067 -0.342670
vn 0.613063 0.307165 0.727876
v -0.622239 0.262829 -0.272698
vn 0.000000 0.000000 0.000000
v -1.656591 -0.248305 -0.352710
vn 0.842683 1.522930 0.637224
v -0.611957 0.505715 -0.389280
vn 0.000000 0.000000 0.000000
v -0.860645 0.350158 -0.344895
vn 0.000000 0.000000 0.000000
v -0.795995 0.469900 -0.378839
vn 0.963315 0.094609 0.251143
v -0.507771 -0.246489 -0.183300
vn 0.000000 0.000000 0.000000
v -1.019077 0.250139 -0.328217
vn 0.881536 0.246082 0.402913
v -0.537898 0.144645 -0.293861
vn -0.303337 -0.795987 0.523823
v -1.397723 -0.494028 -0.251209
vn -0.762056 -0.222206 0.608190
v -1.680086 -0.422429 -0.316745
vn 0.000000 0.000000 0.000000
v -1.377096 0.002695 -0.299935
vn -0.360525 -0.320988 0.875779
v -1.545110 -0.364880 -0.245621
vn 0.188924 -0.979666 0.067542
v -0.636081 -0.482883 -0.280863
vn 0.000000 0.000000 0.000000
v -1.196356 0.032442 -0.268815
vn 0.863860 0.207937 0.458811
v -0.462642 -0.046941 -0.367062
vn -0.343166 -0.521081 0.781480
v -1.611539 -0.457792 -0.296378
vn 0.000000 0.000000 0.000000
v -1.586002 -0.160400 -0.300271
vn 0.650093 0.330802 0.684068
v -0.609276 0.399576 -0.337694
vn 0.000000 0.000000 0.000000
v -1.180884 -0.058675 -0.209330
vn -0.384771 -0.682870 0.620999
v -1.288409 -0.475311 -0.149833
vn 0.536839 -0.834387 0.124905
v -0.542202 -0.458219 -0.220713
vn 0.936675 -0.333513 0.106815
v -0.520435 -0.414342 -0.140766
vn -0.374827 -0.549323 0.746826
v -1.493761 -0.467115 -0.265926
vn 0.000000 0.000000 0.000000
v -1.015070 0.069179 -0.240170
vn 0.000000 0.000000 0.000000
v -1.113672 -0.108508 -0.154271
vn 0.000000 0.000000 0.000000
v -1.607213 -0.246204 -0.288769
vn 0.000000 0.000000 0.000000
v -1.492696 -0.079578 -0.290665
vn -0.200623 -0.966756 0.158537
v -1.220759 -0.505093 -0.210750
vn -0.195396 -0.851940 0.485818
v -1.179938 -0.500544 -0.120447
vn -0.443933 -0.244680 0.862006
v -1.352939 -0.357398 -0.149597
vn 0.000000 0.000000 0.000000
v -0.601918 0.074696 -0.136866
vn 0.887867 0.258017 0.380945
v -0.561069 0.006876 -0.147751
vn 0.000000 0.000000 0.000000
v -1.276980 -0.243898 -0.138389
vn 0.000000 0.000000 0.000000
v -0.804438 0.176085 -0.238019
vn -0.403946 -0.600942 0.689707
v -1.401978 -0.461234 -0.203840
vn 0.000000 0.000000 0.000000
v -1.470556 -0.230648 -0.225069
vn 0.000000 0.000000 0.000000
v -0.684629 0.067697 -0.137451
vn 0.811726 0.355177 0.463627
v -0.594241 0.153344 -0.201879
vn 0.000000 0.000000 0.000000
v -1.286704 -0.113577 -0.209696
vn 0.212037 -0.977170 -0.013395
v -0.708792 -0.496202 -0.086900
vn 0.000000 0.000000 0.000000
v -0.870593 -0.054051 -0.125135
vn 0.993081 -0.116950 -0.010663
v -0.518021 -0.374889 -0.022500
vn 0.000000 0.000000 0.000000
v -0.956192 -0.157177 -0.080529
vn -0.217671 -0.751397 0.622913
v -1.050276 -0.501389 -0.095029
vn 0.000000 0.000000 0.000000
v -0.978860 -0.238621 -0.018359
vn -0.411108 -0.736401 0.537312
v -0.882788 -0.498228 -0.029048
vn 0.000000 0.000000 0.000000
v -0.803686 -0.201985 0.019019
vn -0.319518 -0.406863 0.855787
v -1.162350 -0.441358 -0.074353
vn 0.000000 0.000000 0.000000
v -1.226655 -0.329665 -0.093809
vn 0.000000 0.000000 0.000000
v -0.747886 -0.075136 -0.062995
vn 0.472916 0.512893 0.716443
v -0.627540 -0.059610 -0.056278
vn 0.000000 0.000000 0.000000
v -1.059773 -0.205269 -0.070662
vn 0.696240 -0.709746 -0.107285
v -0.559851 -0.468655 0.002735
vn 0.943365 0.242037 0.226892
v -0.544357 -0.209356 -0.003985
vn -0.385184 0.018492 0.922655
v -1.115889 -0.285914 -0.058073
vn -0.601954 -0.552081 0.576938
v -0.851338 -0.490210 0.057412
vn -0.247900 -0.865335 0.435592
v -0.799338 -0.507682 0.042096
vn -0.278441 -0.807066 0.520688
v -0.730268 -0.509185 0.095200
vn 0.000000 0.000000 0.000000
v -0.616617 -0.207417 0.053256
vn 0.130104 -0.991317 0.019041
v -0.622426 -0.508643 0.101417
vn -0.346685 -0.516623 0.782886
v -0.995545 -0.439902 -0.004746
vn -0.587590 -0.338341 0.735026
v -0.877139 -0.445813 0.055652
vn -0.453839 0.012905 0.890990
v -0.889368 -0.309084 0.047442
vn -0.462970 -0.460183 0.757556
v -0.799192 -0.476203 0.104715
vn 0.941758 0.288868 0.172185
v -0.514119 -0.344881 0.082510
vn 0.770635 0.480673 0.418420
v -0.550952 -0.320583 0.122436
vn 0.966600 -0.253159 -0.039937
v -0.505951 -0.435175 0.117075
vn -0.536219 0.045934 0.842828
v -0.767603 -0.367859 0.118907
vn -0.277194 -0.747945 0.603111
v -0.659885 -0.490842 0.168196
vn -0.415346 -0.331458 0.847127
v -0.726362 -0.459252 0.151630
vn 0.000000 0.000000 0.000000
v -0.569723 -0.404508 0.196517
vn 0.102030 -0.841497 0.530539
v -0.581017 -0.508432 0.195331
vn -0.208872 0.071894 0.975297
v -0.653840 -0.371116 0.160665
vn 0.921108 -0.045258 0.386668
v -0.516170 -0.421366 0.183583
vn 0.244520 -0.389497 0.887976
v -0.577242 -0.465465 0.216433
vn 0.712729 -0.631797 0.304712
v -0.530106 -0.484326 0.175631
# 279 vertices, 0 vertices normals

f 55//55 32//32 54//54
f 148//148 126//126 95//95
f 15//15 9//9 22//22
f 167//167 148//148 145//145
f 43//43 40//40 29//29
f 15//15 22//22 29//29
f 147//147 95//95 88//88
f 9//9 13//13 7//7
f 172//172 161//161 171//171
f 161//161 157//157 171//171
f 135//135 161//161 172//172
f 7//7 13//13 12//12
f 54//54 86//86 78//78
f 54//54 32//32 49//49
f 69//69 73//73 50//50
f 95//95 78//78 88//88
f 88//88 78//78 86//86
f 90//90 109//109 127//127
f 127//127 138//138 90//90
f 138//138 91//91 90//90
f 138//138 132//132 91//91
f 132//132 69//69 91//91
f 105//105 69//69 132//132
f 132//132 116//116 105//105
f 136//136 105//105 116//116
f 92//92 105//105 136//136
f 145//145 147//147 141//141
f 148//148 147//147 145//145
f 95//95 147//147 148//148
f 2//2 21//21 12//12
f 21//21 26//26 19//19
f 21//21 19//19 12//12
f 90//90 91//91 109//109
f 91//91 69//69 82//82
f 107//107 78//78 95//95
f 78//78 71//71 54//54
f 32//32 19//19 26//26
f 50//50 73//73 45//45
f 161//161 138//138 157//157
f 132//132 138//138 161//161
f 116//116 132//132 161//161
f 161//161 135//135 136//136
f 161//161 136//136 116//116
f 54//54 49//49 86//86
f 80//80 113//113 93//93
f 109//109 93//93 113//113
f 128//128 107//107 126//126
f 167//167 126//126 148//148
f 167//167 128//128 126//126
f 129//129 128//128 167//167
f 24//24 22//22 7//7
f 22//22 9//9 7//7
f 43//43 37//37 57//57
f 93//93 52//52 64//64
f 114//114 96//96 129//129
f 129//129 167//167 155//155
f 35//35 40//40 43//43
f 57//57 50//50 43//43
f 117//117 96//96 114//114
f 114//114 79//79 117//117
f 114//114 106//106 79//79
f 118//118 80//80 106//106
f 165//165 129//129 155//155
f 56//56 28//28 55//55
f 34//34 28//28 56//56
f 83//83 54//54 71//71
f 55//55 54//54 83//83
f 83//83 56//56 55//55
f 83//83 72//72 56//56
f 72//72 64//64 56//56
f 126//126 107//107 95//95
f 117//117 128//128 129//129
f 96//96 117//117 129//129
f 114//114 129//129 165//165
f 165//165 168//168 114//114
f 168//168 153//153 114//114
f 106//106 114//114 153//153
f 7//7 12//12 11//11
f 43//43 50//50 42//42
f 120//120 113//113 80//80
f 34//34 22//22 24//24
f 37//37 22//22 34//34
f 93//93 109//109 62//62
f 7//7 11//11 24//24
f 62//62 109//109 50//50
f 82//82 50//50 109//109
f 82//82 69//69 50//50
f 167//167 145//145 194//194
f 194//194 155//155 167//167
f 168//168 155//155 194//194
f 168//168 165//165 155//155
f 57//57 52//52 93//93
f 93//93 62//62 57//57
f 120//120 80//80 118//118
f 127//127 109//109 113//113
f 19//19 20//20 12//12
f 12//12 20//20 11//11
f 24//24 11//11 20//20
f 43//43 22//22 37//37
f 29//29 22//22 43//43
f 91//91 82//82 109//109
f 83//83 128//128 117//117
f 107//107 128//128 83//83
f 42//42 35//35 43//43
f 50//50 57//57 62//62
f 107//107 71//71 78//78
f 107//107 83//83 71//71
f 83//83 117//117 72//72
f 122//122 113//113 118//118
f 113//113 120//120 118//118
f 127//127 113//113 122//122
f 79//79 72//72 117//117
f 106//106 80//80 79//79
f 32//32 55//55 19//19
f 28//28 20//20 55//55
f 20//20 19//19 55//55
f 28//28 34//34 20//20
f 34//34 24//24 20//20
f 42//42 45//45 35//35
f 45//45 42//42 50//50
f 64//64 34//34 56//56
f 52//52 34//34 64//64
f 37//37 34//34 52//52
f 52//52 57//57 37//37
f 79//79 87//87 72//72
f 64//64 87//87 79//79
f 72//72 87//87 64//64
f 79//79 93//93 64//64
f 80//80 93//93 79//79
f 171//171 206//206 172//172
f 13//13 9//9 15//15
f 36//36 40//40 35//35
f 45//45 36//36 35//35
# 133 faces, 0 coords texture

# End of File
