####
#
# OBJ File Generated by Meshlab
#
####
# Object cake_part07_seg_02.obj
#
# Vertices: 279
# Faces: 89
#
####
vn 0.490564 -0.104310 -0.865140
v -1.067775 -0.399113 -1.234513
vn -0.099529 0.046872 -0.993930
v -1.199897 -0.328784 -1.251744
vn 0.134409 -0.029680 -0.990481
v -1.139927 -0.385012 -1.255809
vn 0.089522 0.129248 -0.987563
v -1.123749 -0.205762 -1.253568
vn 0.518662 0.101055 -0.848986
v -1.036626 -0.132174 -1.202340
vn -0.340569 -0.493575 -0.800248
v -1.250905 -0.416303 -1.204251
vn -0.067370 0.128871 -0.989370
v -1.158485 0.063827 -1.197463
vn -0.036568 -0.711144 -0.702095
v -1.130192 -0.441390 -1.199211
vn 0.278197 0.264726 -0.923324
v -1.088349 0.152095 -1.192665
vn 0.600085 -0.030181 -0.799367
v -0.969184 -0.321834 -1.167060
vn 0.000000 0.000000 0.000000
v -1.216496 -0.035423 -1.196575
vn -0.194540 0.187987 -0.962712
v -1.204353 -0.137520 -1.223954
vn 0.400073 0.113181 -0.909468
v -1.090852 0.035805 -1.205718
vn 0.412685 0.009578 -0.910824
v -1.072054 -0.302344 -1.244134
vn 0.494086 0.002710 -0.869409
v -0.983677 0.176320 -1.143635
vn -0.315232 -0.929194 -0.192945
v -1.286957 -0.444893 -1.089697
vn 0.616923 -0.165036 -0.769525
v -1.015899 -0.425658 -1.182244
vn 0.587770 -0.113787 -0.800986
v -0.920578 -0.412736 -1.118515
vn -0.657106 0.105260 -0.746413
v -1.352996 -0.261973 -1.147257
vn 0.000000 0.000000 0.000000
v -1.269154 -0.070113 -1.152569
vn -0.556704 -0.056903 -0.828760
v -1.307036 -0.345101 -1.197743
vn 0.191348 0.420742 -0.886771
v -1.096102 0.218066 -1.148087
vn 0.532071 0.043396 -0.845587
v -0.964677 0.029524 -1.133470
vn 0.000000 0.000000 0.000000
v -1.203563 0.071144 -1.156596
vn 0.000000 0.000000 0.000000
v -1.036796 -0.454351 -1.099004
vn -0.729785 -0.477956 -0.488848
v -1.395739 -0.391414 -1.108274
vn -0.506880 -0.686963 -0.520726
v -1.335406 -0.419594 -1.156491
vn 0.000000 0.000000 0.000000
v -1.299018 -0.048387 -1.089679
vn 0.434095 -0.006660 -0.900843
v -0.933466 0.311308 -1.109155
vn -0.442255 -0.824792 -0.352320
v -1.402806 -0.422217 -0.982324
vn 0.456628 -0.067828 -0.887068
v -0.778434 0.207213 -1.033447
vn -0.865247 -0.166043 -0.473050
v -1.442199 -0.347108 -1.049739
vn 0.312081 -0.831074 -0.460349
v -0.917216 -0.455347 -1.039308
vn 0.000000 0.000000 0.000000
v -1.221473 0.114340 -1.078700
vn 0.241509 0.435536 -0.867169
v -0.870103 0.464273 -1.065055
vn 0.451091 0.298432 -0.841104
v -0.811324 0.464300 -1.048671
vn 0.000000 0.000000 0.000000
v -1.102151 0.286573 -1.067897
vn 0.555340 0.047190 -0.830284
v -0.878074 -0.127022 -1.081833
vn 0.428628 -0.023711 -0.903170
v -0.771715 0.343719 -1.040467
vn 0.419600 0.007356 -0.907680
v -0.866590 0.408957 -1.086363
vn 0.512688 -0.077403 -0.855079
v -0.658519 0.144630 -0.961922
vn 0.000000 0.000000 0.000000
v -0.882572 0.480596 -1.033490
vn -0.166770 0.330994 -0.928779
v -0.966837 0.398581 -1.072061
vn 0.551533 -0.140004 -0.822320
v -0.690507 -0.407654 -0.962347
vn 0.379879 0.488640 -0.785444
v -0.787848 0.506905 -1.005019
vn 0.548222 -0.030805 -0.835765
v -0.791981 -0.302774 -1.035937
vn 0.558009 -0.103840 -0.823312
v -0.801030 -0.418256 -1.027505
vn 0.515085 -0.024148 -0.856799
v -0.619620 0.335596 -0.966558
vn -0.757131 -0.567401 -0.323741
v -1.473444 -0.403214 -0.969527
vn -0.274444 0.904249 -0.327130
v -0.856108 0.510755 -0.949040
vn 0.000000 0.000000 0.000000
v -1.167965 -0.462746 -0.915777
vn 0.000000 0.000000 0.000000
v -1.160222 0.265856 -0.972623
vn 0.000000 0.000000 0.000000
v -0.807448 -0.459724 -0.951880
vn -0.949752 -0.000685 -0.313001
v -1.481050 -0.330142 -0.952030
vn -0.868322 0.297450 -0.396913
v -1.382455 -0.186837 -1.060330
vn 0.000000 0.000000 0.000000
v -1.331890 -0.017084 -1.000408
vn 0.000000 0.000000 0.000000
v -1.053431 0.370722 -0.968643
vn 0.387499 0.396657 -0.832170
v -0.655224 0.499390 -0.960164
vn 0.437602 0.204141 -0.875689
v -0.730582 0.433051 -1.016456
vn 0.476930 0.017748 -0.878762
v -0.696085 -0.153773 -0.976525
vn 0.498431 -0.021098 -0.866673
v -0.799208 0.036914 -1.029341
vn 0.000000 0.000000 0.000000
v -0.982011 0.446066 -0.901004
vn 0.593038 -0.153628 -0.790383
v -0.606737 -0.305090 -0.923403
vn 0.000000 0.000000 0.000000
v -1.271027 0.158040 -0.926697
vn 0.000000 0.000000 0.000000
v -0.674872 -0.466510 -0.873331
vn 0.000000 0.000000 0.000000
v -1.354224 -0.447966 -0.875807
vn 0.683347 -0.214711 -0.697808
v -0.596292 -0.422101 -0.877171
vn 0.702295 -0.061754 -0.709203
v -0.512407 0.201644 -0.861860
vn 0.076810 0.951816 -0.296894
v -0.696913 0.585798 -0.845236
vn 0.692709 -0.035997 -0.720319
v -0.527619 0.347495 -0.903075
vn -0.925970 0.197494 -0.321833
v -1.498818 -0.270732 -0.864452
vn 0.000000 0.000000 0.000000
v -1.375742 0.046977 -0.873500
vn 0.226828 0.725877 -0.649347
v -0.722678 0.554994 -0.938694
vn 0.495189 -0.027445 -0.868352
v -0.591663 -0.184302 -0.930487
vn 0.613579 0.226148 -0.756556
v -0.542829 0.475395 -0.907256
vn 0.602285 0.015327 -0.798134
v -0.559761 -0.005846 -0.897092
vn 0.688442 -0.052035 -0.723423
v -0.526663 -0.185109 -0.882482
vn -0.851240 -0.239560 -0.466906
v -1.533399 -0.360483 -0.820031
vn 0.000000 0.000000 0.000000
v -1.345432 0.231292 -0.785927
vn 0.000000 0.000000 0.000000
v -1.218929 0.389446 -0.759527
vn 0.000000 0.000000 0.000000
v -0.578213 -0.468163 -0.798605
vn -0.256942 0.965967 -0.029818
v -0.781228 0.563205 -0.850602
vn 0.000000 0.000000 0.000000
v -1.461404 -0.150423 -0.868872
vn 0.350574 0.763074 -0.542970
v -0.582448 0.565463 -0.880812
vn 0.734398 0.409591 -0.541198
v -0.480374 0.521898 -0.823630
vn -0.805989 -0.499291 -0.317947
v -1.469848 -0.421231 -0.877098
vn 0.000000 0.000000 0.000000
v -1.334123 0.131475 -0.870642
vn -0.589299 -0.663729 -0.460642
v -1.534428 -0.423096 -0.762737
vn 0.746710 -0.162142 -0.645085
v -0.462811 -0.282294 -0.793647
vn -0.213030 0.940451 -0.264897
v -0.863893 0.550384 -0.731268
vn -0.223669 0.967892 -0.114705
v -0.776312 0.567362 -0.758289
vn 0.621043 0.701757 -0.349060
v -0.474675 0.561034 -0.750861
vn 0.000000 0.000000 0.000000
v -1.120211 0.370072 -0.867438
vn 0.000000 0.000000 0.000000
v -0.675140 -0.484620 -0.772373
vn -0.799511 -0.159051 -0.579210
v -1.601064 -0.365122 -0.714007
vn 0.000000 0.000000 0.000000
v -1.524945 0.047188 -0.686435
vn 0.893365 0.020181 -0.448879
v -0.420482 0.187160 -0.744576
vn 0.000000 0.000000 0.000000
v -0.871969 -0.476455 -0.804795
vn 0.881710 0.006279 -0.471751
v -0.431469 0.369107 -0.772530
vn 0.870537 0.062493 -0.488118
v -0.374611 0.014477 -0.657750
vn -0.216981 -0.920685 -0.324437
v -1.399040 -0.455454 -0.761457
vn 0.883196 0.190904 -0.428393
v -0.420765 0.491473 -0.729546
vn 0.000000 0.000000 0.000000
v -1.210881 -0.471069 -0.706870
vn 0.695159 -0.263702 -0.668741
v -0.488475 -0.416473 -0.764199
vn 0.267876 0.927593 -0.260412
v -0.565732 0.598314 -0.746604
vn 0.000000 0.000000 0.000000
v -1.352073 0.314141 -0.658531
vn -0.840001 0.110230 -0.531270
v -1.562607 -0.281737 -0.757512
vn 0.788631 0.020491 -0.614526
v -0.457569 -0.079935 -0.797161
vn -0.223999 0.919855 -0.322012
v -0.927389 0.505785 -0.814500
vn 0.788544 -0.016019 -0.614769
v -0.459294 0.097408 -0.797642
vn 0.965681 0.044521 -0.255888
v -0.404585 0.232696 -0.669235
vn -0.240498 -0.922009 -0.303415
v -1.533483 -0.452689 -0.679391
vn 0.000000 0.000000 0.000000
v -1.107487 0.485384 -0.717816
vn 0.000000 0.000000 0.000000
v -1.491527 0.122049 -0.644112
vn 0.945879 -0.001625 -0.324514
v -0.400859 0.407575 -0.683503
vn 0.151113 0.976052 0.156482
v -0.578502 0.596538 -0.660615
vn 0.000000 0.000000 0.000000
v -1.495614 0.025322 -0.736791
vn 0.000000 0.000000 0.000000
v -1.233446 0.426267 -0.660725
vn 0.817459 -0.040556 -0.574557
v -0.359469 -0.208376 -0.659360
vn 0.000000 0.000000 0.000000
v -1.180488 0.446684 -0.712376
vn -0.238372 -0.925077 -0.295653
v -1.607854 -0.464237 -0.605766
vn 0.000000 0.000000 0.000000
v -1.145124 0.495002 -0.623294
vn 0.506877 -0.715833 -0.480269
v -0.424812 -0.460543 -0.605442
vn 0.901263 -0.160470 -0.402460
v -0.326504 -0.373809 -0.562969
vn 0.971798 -0.124380 -0.200346
v -0.305073 -0.259720 -0.578035
vn -0.814977 0.147489 -0.560410
v -1.636192 -0.287569 -0.642512
vn -0.273338 0.951134 -0.143634
v -0.995465 0.549812 -0.654710
vn 0.000000 0.000000 0.000000
v -1.598464 -0.175370 -0.677034
vn 0.000000 0.000000 0.000000
v -1.579832 -0.044872 -0.624929
vn 0.000000 0.000000 0.000000
v -1.065871 -0.479874 -0.603398
vn 0.000000 0.000000 0.000000
v -0.576654 -0.480475 -0.648273
vn -0.088188 0.995597 0.031776
v -0.667237 0.594207 -0.687518
vn 0.940724 -0.017436 0.338724
v -0.418189 0.351613 -0.616846
vn 0.881430 0.381460 0.278511
v -0.425348 0.485122 -0.616349
vn 0.589178 0.698300 0.406505
v -0.483463 0.532754 -0.563721
vn 0.513525 0.842443 0.163040
v -0.493718 0.566077 -0.656492
vn 0.808526 -0.157739 -0.566925
v -0.392682 -0.377535 -0.676386
vn -0.098684 0.986633 -0.129681
v -0.790926 0.583217 -0.643741
vn 0.000000 0.000000 0.000000
v -1.270751 0.394478 -0.557873
vn 0.000000 0.000000 0.000000
v -0.817561 -0.487428 -0.617086
vn -0.781568 -0.553291 -0.288134
v -1.679430 -0.451403 -0.559040
vn 0.891695 0.057580 0.448959
v -0.453972 0.237214 -0.566572
vn 0.837153 0.340718 0.427885
v -0.377055 -0.039842 -0.503587
vn 0.911518 0.280332 0.300914
v -0.405880 0.076725 -0.572633
vn -0.980973 -0.060456 -0.184490
v -1.707893 -0.367515 -0.483344
vn 0.896986 0.110360 -0.428062
v -0.314364 -0.124109 -0.593712
vn -0.703780 -0.480046 -0.523688
v -1.630932 -0.420479 -0.653472
vn -0.927930 -0.066148 -0.366837
v -1.677402 -0.345762 -0.597898
vn 0.929969 0.324016 -0.173699
v -0.327305 -0.071130 -0.564168
vn 0.760789 -0.631077 -0.151463
v -0.353010 -0.459794 -0.530779
vn 0.000000 0.000000 0.000000
v -1.266564 -0.482939 -0.496760
vn -0.208534 0.977077 -0.042827
v -0.921729 0.581852 -0.549148
vn 0.000000 0.000000 0.000000
v -1.450281 0.199815 -0.528482
vn -0.016740 -0.994717 -0.101280
v -1.453499 -0.473361 -0.541666
vn 0.000000 0.000000 0.000000
v -1.599484 -0.059800 -0.502036
vn 0.878916 0.049621 0.474389
v -0.460871 0.367819 -0.511812
vn 0.024090 0.999610 0.014126
v -0.762790 0.599406 -0.529554
vn 0.273516 -0.961461 -0.027981
v -0.413974 -0.484577 -0.506990
vn -0.417655 0.908465 0.016001
v -1.125969 0.487675 -0.533238
vn 0.882279 0.155909 0.444157
v -0.491234 0.209351 -0.497078
vn 0.204723 0.952778 0.224283
v -0.619952 0.578246 -0.568644
vn 0.000000 0.000000 0.000000
v -1.036121 -0.489258 -0.476454
vn -0.644996 -0.753402 -0.127932
v -1.660250 -0.469894 -0.471880
vn -0.977571 -0.210484 -0.007157
v -1.720239 -0.423067 -0.415555
vn 0.000000 0.000000 0.000000
v -1.543343 0.048995 -0.554208
vn 0.897177 -0.099628 0.430288
v -0.492795 0.273469 -0.482129
vn -0.953255 0.214292 -0.213035
v -1.657108 -0.210105 -0.552250
vn 0.000000 0.000000 0.000000
v -1.524498 0.074330 -0.466448
vn 0.000000 0.000000 0.000000
v -1.070299 0.467758 -0.462673
vn 0.638307 -0.684083 0.352979
v -0.372898 -0.469478 -0.471478
vn 0.330203 0.913038 0.239431
v -0.683831 0.569133 -0.445798
vn 0.654972 0.543325 0.525177
v -0.546769 0.491518 -0.441558
vn 0.805395 0.380132 0.454795
v -0.423660 0.026404 -0.468615
vn 0.000000 0.000000 0.000000
v -1.165576 0.416597 -0.473816
vn 0.000000 0.000000 0.000000
v -0.998668 0.545879 -0.499418
vn 0.984221 0.018488 0.175972
v -0.315814 -0.212636 -0.522909
vn 0.000000 0.000000 0.000000
v -1.002079 0.386083 -0.400138
vn -0.152078 -0.941784 0.299860
v -1.569339 -0.483324 -0.355164
vn 0.000000 0.000000 0.000000
v -1.447076 0.161569 -0.428071
vn 0.000000 0.000000 0.000000
v -1.375022 0.264678 -0.480000
vn 0.000000 0.000000 0.000000
v -0.880569 -0.496461 -0.326622
vn 0.000000 0.000000 0.000000
v -1.268034 0.331947 -0.457249
vn 0.853567 -0.181733 0.488259
v -0.360863 -0.395188 -0.448862
vn 0.000000 0.000000 0.000000
v -0.939585 0.500564 -0.440791
vn 0.948291 0.107609 0.298603
v -0.521199 0.227019 -0.417639
vn -0.140541 0.945835 0.292651
v -0.830026 0.567416 -0.458453
vn 0.000000 0.000000 0.000000
v -1.138649 0.349147 -0.425230
vn 0.829177 0.171013 0.532184
v -0.538945 0.335085 -0.373346
vn 0.801113 0.131990 0.583779
v -0.388887 -0.197133 -0.430421
vn 0.000000 0.000000 0.000000
v -1.491499 0.039137 -0.369283
vn -0.911368 0.285876 0.296114
v -1.664283 -0.339522 -0.323991
vn 0.105511 -0.993773 0.035823
v -0.570850 -0.481181 -0.425755
vn 0.552698 -0.718164 0.422807
v -0.461087 -0.468296 -0.391612
vn 0.000000 0.000000 0.000000
v -1.602625 -0.107523 -0.391715
vn 0.873109 0.302223 0.382547
v -0.479608 0.116907 -0.453957
vn 0.000000 0.000000 0.000000
v -1.335036 0.137336 -0.361377
vn 0.000000 0.000000 0.000000
v -0.709272 0.503624 -0.376008
vn 0.000000 0.000000 0.000000
v -1.222351 0.241982 -0.376388
vn -0.764023 -0.536292 0.358692
v -1.679314 -0.467583 -0.354829
vn 0.000000 0.000000 0.000000
v -1.187147 0.160149 -0.320647
vn 0.000000 0.000000 0.000000
v -0.718012 0.345872 -0.312994
vn 0.881278 -0.165498 0.442673
v -0.459314 -0.362628 -0.302692
vn 0.000000 0.000000 0.000000
v -1.337915 -0.495067 -0.342670
vn 0.613063 0.307165 0.727876
v -0.622239 0.262829 -0.272698
vn 0.000000 0.000000 0.000000
v -1.656591 -0.248305 -0.352710
vn 0.000000 0.000000 0.000000
v -0.611957 0.505715 -0.389280
vn 0.000000 0.000000 0.000000
v -0.860645 0.350158 -0.344895
vn 0.000000 0.000000 0.000000
v -0.795995 0.469900 -0.378839
vn 0.963315 0.094609 0.251143
v -0.507771 -0.246489 -0.183300
vn 0.000000 0.000000 0.000000
v -1.019077 0.250139 -0.328217
vn 0.881536 0.246082 0.402913
v -0.537898 0.144645 -0.293861
vn -0.303337 -0.795987 0.523823
v -1.397723 -0.494028 -0.251209
vn -0.762056 -0.222206 0.608190
v -1.680086 -0.422429 -0.316745
vn 0.000000 0.000000 0.000000
v -1.377096 0.002695 -0.299935
vn -0.360525 -0.320988 0.875779
v -1.545110 -0.364880 -0.245621
vn 0.188924 -0.979666 0.067542
v -0.636081 -0.482883 -0.280863
vn 0.000000 0.000000 0.000000
v -1.196356 0.032442 -0.268815
vn 0.863860 0.207937 0.458811
v -0.462642 -0.046941 -0.367062
vn -0.343166 -0.521081 0.781480
v -1.611539 -0.457792 -0.296378
vn 0.000000 0.000000 0.000000
v -1.586002 -0.160400 -0.300271
vn 0.650093 0.330802 0.684068
v -0.609276 0.399576 -0.337694
vn 0.000000 0.000000 0.000000
v -1.180884 -0.058675 -0.209330
vn -0.384771 -0.682870 0.620999
v -1.288409 -0.475311 -0.149833
vn 0.536839 -0.834387 0.124905
v -0.542202 -0.458219 -0.220713
vn 0.936675 -0.333513 0.106815
v -0.520435 -0.414342 -0.140766
vn -0.374827 -0.549323 0.746826
v -1.493761 -0.467115 -0.265926
vn 0.000000 0.000000 0.000000
v -1.015070 0.069179 -0.240170
vn 0.000000 0.000000 0.000000
v -1.113672 -0.108508 -0.154271
vn 0.000000 0.000000 0.000000
v -1.607213 -0.246204 -0.288769
vn 0.000000 0.000000 0.000000
v -1.492696 -0.079578 -0.290665
vn -0.200623 -0.966756 0.158537
v -1.220759 -0.505093 -0.210750
vn -0.195396 -0.851940 0.485818
v -1.179938 -0.500544 -0.120447
vn -0.443933 -0.244680 0.862006
v -1.352939 -0.357398 -0.149597
vn 0.000000 0.000000 0.000000
v -0.601918 0.074696 -0.136866
vn 0.887867 0.258017 0.380945
v -0.561069 0.006876 -0.147751
vn 0.000000 0.000000 0.000000
v -1.276980 -0.243898 -0.138389
vn 0.000000 0.000000 0.000000
v -0.804438 0.176085 -0.238019
vn -0.403946 -0.600942 0.689707
v -1.401978 -0.461234 -0.203840
vn 0.000000 0.000000 0.000000
v -1.470556 -0.230648 -0.225069
vn 0.000000 0.000000 0.000000
v -0.684629 0.067697 -0.137451
vn 0.811726 0.355177 0.463627
v -0.594241 0.153344 -0.201879
vn 0.000000 0.000000 0.000000
v -1.286704 -0.113577 -0.209696
vn 0.212037 -0.977170 -0.013395
v -0.708792 -0.496202 -0.086900
vn 0.000000 0.000000 0.000000
v -0.870593 -0.054051 -0.125135
vn 0.993081 -0.116950 -0.010663
v -0.518021 -0.374889 -0.022500
vn 0.000000 0.000000 0.000000
v -0.956192 -0.157177 -0.080529
vn -0.217671 -0.751397 0.622913
v -1.050276 -0.501389 -0.095029
vn 0.000000 0.000000 0.000000
v -0.978860 -0.238621 -0.018359
vn -0.411108 -0.736401 0.537312
v -0.882788 -0.498228 -0.029048
vn 0.000000 0.000000 0.000000
v -0.803686 -0.201985 0.019019
vn -0.319518 -0.406863 0.855787
v -1.162350 -0.441358 -0.074353
vn 0.000000 0.000000 0.000000
v -1.226655 -0.329665 -0.093809
vn 0.000000 0.000000 0.000000
v -0.747886 -0.075136 -0.062995
vn 0.472916 0.512893 0.716443
v -0.627540 -0.059610 -0.056278
vn 0.000000 0.000000 0.000000
v -1.059773 -0.205269 -0.070662
vn 0.696240 -0.709746 -0.107285
v -0.559851 -0.468655 0.002735
vn 0.943365 0.242037 0.226892
v -0.544357 -0.209356 -0.003985
vn -0.385184 0.018492 0.922655
v -1.115889 -0.285914 -0.058073
vn -0.601954 -0.552081 0.576938
v -0.851338 -0.490210 0.057412
vn -0.247900 -0.865335 0.435592
v -0.799338 -0.507682 0.042096
vn -0.278441 -0.807066 0.520688
v -0.730268 -0.509185 0.095200
vn 0.000000 0.000000 0.000000
v -0.616617 -0.207417 0.053256
vn 0.130104 -0.991317 0.019041
v -0.622426 -0.508643 0.101417
vn -0.346685 -0.516623 0.782886
v -0.995545 -0.439902 -0.004746
vn -0.587590 -0.338341 0.735026
v -0.877139 -0.445813 0.055652
vn -0.453839 0.012905 0.890990
v -0.889368 -0.309084 0.047442
vn -0.462970 -0.460183 0.757556
v -0.799192 -0.476203 0.104715
vn 0.941758 0.288868 0.172185
v -0.514119 -0.344881 0.082510
vn 0.770635 0.480673 0.418420
v -0.550952 -0.320583 0.122436
vn 0.966600 -0.253159 -0.039937
v -0.505951 -0.435175 0.117075
vn -0.536219 0.045934 0.842828
v -0.767603 -0.367859 0.118907
vn -0.277194 -0.747945 0.603111
v -0.659885 -0.490842 0.168196
vn -0.415346 -0.331458 0.847127
v -0.726362 -0.459252 0.151630
vn 0.000000 0.000000 0.000000
v -0.569723 -0.404508 0.196517
vn 0.102030 -0.841497 0.530539
v -0.581017 -0.508432 0.195331
vn -0.208872 0.071894 0.975297
v -0.653840 -0.371116 0.160665
vn 0.921108 -0.045258 0.386668
v -0.516170 -0.421366 0.183583
vn 0.244520 -0.389497 0.887976
v -0.577242 -0.465465 0.216433
vn 0.712729 -0.631797 0.304712
v -0.530106 -0.484326 0.175631
# 279 vertices, 0 vertices normals

f 63//63 44//44 46//46
f 46//46 38//38 60//60
f 38//38 61//61 60//60
f 63//63 74//74 77//77
f 77//77 74//74 76//76
f 61//61 38//38 23//23
f 23//23 13//13 15//15
f 75//75 70//70 48//48
f 60//60 63//63 46//46
f 74//74 63//63 60//60
f 74//74 60//60 76//76
f 60//60 61//61 76//76
f 76//76 61//61 41//41
f 46//46 10//10 38//38
f 115//115 111//111 99//99
f 5//5 4//4 13//13
f 41//41 61//61 31//31
f 48//48 31//31 39//39
f 39//39 59//59 48//48
f 44//44 47//47 46//46
f 18//18 17//17 10//10
f 84//84 73//73 69//69
f 99//99 75//75 85//85
f 84//84 85//85 75//75
f 10//10 17//17 1//1
f 10//10 1//1 14//14
f 10//10 14//14 5//5
f 4//4 12//12 13//13
f 38//38 10//10 5//5
f 84//84 69//69 105//105
f 92//92 102//102 85//85
f 105//105 92//92 84//84
f 92//92 85//85 84//84
f 61//61 23//23 15//15
f 15//15 31//31 61//61
f 31//31 15//15 29//29
f 39//39 31//31 29//29
f 39//39 29//29 40//40
f 39//39 40//40 59//59
f 59//59 40//40 36//36
f 41//41 31//31 48//48
f 76//76 41//41 68//68
f 68//68 41//41 48//48
f 18//18 10//10 46//46
f 59//59 36//36 45//45
f 58//58 59//59 45//45
f 58//58 45//45 73//73
f 48//48 59//59 58//58
f 73//73 84//84 58//58
f 48//48 58//58 75//75
f 75//75 58//58 84//84
f 23//23 38//38 5//5
f 5//5 13//13 23//23
f 18//18 46//46 47//47
f 3//3 2//2 4//4
f 4//4 2//2 12//12
f 14//14 3//3 4//4
f 14//14 1//1 3//3
f 5//5 14//14 4//4
f 176//176 124//124 125//125
f 125//125 146//146 176//176
f 119//119 137//137 89//89
f 89//89 108//108 119//119
f 100//100 119//119 108//108
f 110//110 100//100 108//108
f 125//125 119//119 146//146
f 99//99 85//85 102//102
f 104//104 89//89 137//137
f 111//111 100//100 97//97
f 97//97 99//99 111//111
f 146//146 100//100 149//149
f 124//124 119//119 125//125
f 137//137 119//119 124//124
f 119//119 100//100 146//146
f 110//110 76//76 68//68
f 89//89 77//77 108//108
f 76//76 110//110 108//108
f 63//63 104//104 67//67
f 70//70 68//68 48//48
f 70//70 75//75 99//99
f 100//100 110//110 97//97
f 99//99 68//68 70//70
f 99//99 97//97 68//68
f 97//97 110//110 68//68
f 102//102 115//115 99//99
f 67//67 44//44 63//63
f 89//89 104//104 63//63
f 89//89 63//63 77//77
f 108//108 77//77 76//76
# 89 faces, 0 coords texture

# End of File
