####
#
# OBJ File Generated by Meshlab
#
####
# Object head_part11_seg_00.obj
#
# Vertices: 186
# Faces: 163
#
####
vn 1.004653 -0.265988 -2.155174
v -0.185974 2.038160 0.225394
vn 3.217410 -0.301008 0.902870
v -0.156012 2.067914 0.255497
vn 0.000000 0.000000 0.000000
v -0.198799 2.071643 0.242322
vn 0.000000 0.000000 0.000000
v -0.280859 1.989088 0.250755
vn 0.000000 0.000000 0.000000
v -0.227274 2.019542 0.229538
vn 3.376576 -1.326902 -2.163318
v -0.164158 2.023168 0.237414
vn 5.060032 -2.742649 -0.259433
v -0.181122 1.992620 0.276182
vn 1.800939 -2.135496 -1.998876
v -0.216061 1.981281 0.241602
vn 0.902755 -0.254664 0.698568
v -0.153132 2.098381 0.262882
vn 0.000000 0.000000 0.000000
v -0.243921 2.041779 0.255524
vn 0.449070 -1.750757 -2.741937
v -0.374178 1.870593 0.283329
vn 0.000000 0.000000 0.000000
v -0.211357 2.074966 0.276375
vn 1.738011 -3.987805 -4.347918
v -0.320088 1.842791 0.311863
vn 2.132657 0.032124 1.311170
v -0.172939 2.082456 0.282673
vn 0.000000 0.000000 0.000000
v -0.409749 1.900342 0.286595
vn 0.000000 0.000000 0.000000
v -0.170590 2.098025 0.261978
vn 0.000000 0.000000 0.000000
v -0.341642 1.943145 0.267002
vn 0.796447 -1.818006 -2.377395
v -0.292536 1.928975 0.259437
vn 3.547419 -3.508765 -3.032020
v -0.234005 1.910008 0.296691
vn 2.980328 -0.507536 1.013236
v -0.176553 2.042019 0.302922
vn 0.991962 -3.962955 -4.508500
v -0.420888 1.794881 0.323286
vn 0.000000 0.000000 0.000000
v -0.487658 1.880666 0.305569
vn 0.000000 0.000000 0.000000
v -0.437443 1.920546 0.312420
vn 0.000000 0.000000 0.000000
v -0.353593 1.967864 0.298006
vn 3.490542 -4.178589 -2.401035
v -0.256470 1.861236 0.332275
vn 0.199602 -1.435773 -2.482176
v -0.476368 1.819291 0.307231
vn 0.607852 -1.943497 -2.556169
v -0.596608 1.721937 0.341556
vn 0.000000 0.000000 0.000000
v -0.528710 1.881932 0.318679
vn 0.000000 0.000000 0.000000
v -0.505531 1.906037 0.342237
vn 3.216840 -4.661293 -2.170777
v -0.288062 1.829827 0.350211
vn 2.636110 -0.593658 0.784137
v -0.198620 1.987432 0.331079
vn 0.655079 -2.013522 -2.531978
v -0.540294 1.760052 0.329362
vn 0.000000 0.000000 0.000000
v -0.544371 1.825662 0.324027
vn 0.000000 0.000000 0.000000
v -0.505271 1.842080 0.311825
vn 3.513244 -1.609516 -0.077678
v -0.213207 1.930436 0.339516
vn 0.000000 0.000000 0.000000
v -0.205795 2.054926 0.315710
vn -0.495180 -0.887982 -2.904991
v -0.658747 1.702641 0.361256
vn 0.000000 0.000000 0.000000
v -0.558535 1.866419 0.352327
vn 0.000000 0.000000 0.000000
v -0.408584 1.935706 0.358221
vn 2.102728 -5.099673 -2.725902
v -0.371126 1.783571 0.360566
vn 0.000000 0.000000 0.000000
v -0.344285 1.975594 0.342831
vn 2.510679 -4.977633 -2.549878
v -0.319001 1.809976 0.354320
vn 0.000000 0.000000 0.000000
v -0.273924 2.015970 0.317784
vn 1.401029 -4.177738 -4.267725
v -0.483188 1.757718 0.342922
vn 5.039384 -2.854822 -0.149404
v -0.231443 1.883397 0.348330
vn 0.000000 0.000000 0.000000
v -0.597972 1.756715 0.339687
vn -0.058093 -2.891339 -3.401025
v -0.648040 1.662187 0.368622
vn 0.000000 0.000000 0.000000
v -0.225653 2.011198 0.343709
vn 0.000000 0.000000 0.000000
v -0.574350 1.860056 0.408013
vn 1.911739 -4.372992 -3.133469
v -0.719384 1.612255 0.398055
vn -1.230712 0.690018 -2.185372
v -0.718703 1.683059 0.390658
vn 0.000000 0.000000 0.000000
v -0.499133 1.903418 0.394754
vn 1.892821 -4.796480 -3.322559
v -0.535080 1.720675 0.365450
vn 0.000000 0.000000 0.000000
v -0.239244 1.952523 0.385071
vn 0.000000 0.000000 0.000000
v -0.619789 1.793544 0.377163
vn -1.168788 -0.214051 -3.004967
v -0.768853 1.633088 0.399785
vn 0.000000 0.000000 0.000000
v -0.353809 1.957513 0.372491
vn -0.690901 -1.015523 -5.166145
v -0.725247 1.637616 0.379995
vn 2.081302 -4.590348 -3.051362
v -0.669910 1.642313 0.395404
vn 1.308146 -3.910591 -4.068160
v -0.614932 1.685927 0.364147
vn 2.000653 -5.343468 -2.523209
v -0.447914 1.745048 0.383646
vn 0.000000 0.000000 0.000000
v -0.430879 1.914012 0.408280
vn -0.039926 -3.527619 -3.241401
v -0.761248 1.593941 0.403630
vn -0.538995 -1.268774 -1.474468
v -0.806877 1.600351 0.414794
vn 2.989151 -5.073792 -0.905511
v -0.606026 1.673470 0.418292
vn 4.855550 -3.513151 0.341275
v -0.261568 1.844917 0.396354
vn 0.000000 0.000000 0.000000
v -0.263025 1.982992 0.376899
vn 0.000000 0.000000 0.000000
v -0.392959 1.918577 0.430188
vn 0.000000 0.000000 0.000000
v -0.692280 1.733641 0.409303
vn 0.000000 0.000000 0.000000
v -0.667129 1.779497 0.430737
vn 2.569181 -5.593849 -0.794595
v -0.696285 1.607785 0.467272
vn 0.000000 0.000000 0.000000
v -0.526608 1.879876 0.437013
vn 2.331464 -5.555088 -1.669077
v -0.573162 1.686817 0.406470
vn 0.000000 0.000000 0.000000
v -0.633176 1.821576 0.436220
vn 2.828996 -0.827900 0.822423
v -0.253532 1.883492 0.416864
vn 0.000000 0.000000 0.000000
v -0.778267 1.645339 0.475336
vn 0.000000 0.000000 0.000000
v -0.812615 1.600515 0.446418
vn 0.000000 0.000000 0.000000
v -0.801255 1.626923 0.445671
vn 2.437892 -5.550675 -1.550436
v -0.395571 1.746543 0.438420
vn 0.494787 -5.602328 0.530240
v -0.758267 1.584873 0.451589
vn 3.791349 -4.688783 -0.543151
v -0.313327 1.793036 0.425139
vn 0.000000 0.000000 0.000000
v -0.341867 1.933484 0.422679
vn 2.117085 -5.667626 -1.681068
v -0.459481 1.723514 0.435215
vn -0.362943 -2.785529 -0.451289
v -0.798523 1.585325 0.435877
vn 0.000000 0.000000 0.000000
v -0.459573 1.888474 0.462476
vn 0.000000 0.000000 0.000000
v -0.303003 1.962422 0.393963
vn 4.927434 -2.251548 1.703051
v -0.266103 1.848258 0.437341
vn 0.000000 0.000000 0.000000
v -0.436541 1.881977 0.514846
vn 0.125102 -5.768438 1.359307
v -0.730563 1.596825 0.493808
vn 0.000000 0.000000 0.000000
v -0.405821 1.899598 0.489412
vn 3.063230 -5.286356 -1.385821
v -0.622042 1.649583 0.486153
vn 0.000000 0.000000 0.000000
v -0.747798 1.683235 0.450572
vn 3.261755 -5.219191 -0.658604
v -0.365163 1.750300 0.485643
vn 0.000000 0.000000 0.000000
v -0.346947 1.903324 0.508328
vn 2.424026 -5.704350 -0.946259
v -0.589522 1.672130 0.450853
vn 0.000000 0.000000 0.000000
v -0.714468 1.747124 0.470795
vn 4.669609 -3.480969 0.769069
v -0.314775 1.789963 0.487957
vn 2.895050 -1.629966 0.723070
v -0.296761 1.830029 0.490392
vn 2.638201 -5.053940 -1.427987
v -0.597726 1.667081 0.482467
vn 2.106406 -5.712251 -1.500645
v -0.516189 1.700269 0.442270
vn 0.000000 0.000000 0.000000
v -0.679962 1.797383 0.491499
vn 2.878911 -5.359740 -1.444317
v -0.624509 1.663168 0.404256
vn 2.180739 -5.746029 -1.293747
v -0.455422 1.715322 0.473243
vn 0.000000 0.000000 0.000000
v -0.547477 1.863043 0.491549
vn 2.348092 -5.698833 -1.215311
v -0.407570 1.730434 0.491596
vn -1.145608 -2.757600 1.449783
v -0.770133 1.608326 0.494269
vn 0.000000 0.000000 0.000000
v -0.738959 1.717191 0.541149
vn 0.000000 0.000000 0.000000
v -0.469826 1.861982 0.581969
vn 0.000000 0.000000 0.000000
v -0.289175 1.904928 0.457634
vn 0.000000 0.000000 0.000000
v -0.619413 1.831930 0.504699
vn 0.000000 0.000000 0.000000
v -0.563448 1.839681 0.564913
vn 3.063334 -5.327251 -0.512700
v -0.400076 1.723034 0.539223
vn 0.340109 -6.008440 0.452270
v -0.687827 1.607953 0.544628
vn 0.000000 0.000000 0.000000
v -0.726511 1.761494 0.537783
vn 0.000000 0.000000 0.000000
v -0.303555 1.879818 0.513989
vn 2.139601 -5.719067 -1.372315
v -0.563677 1.673834 0.500717
vn 2.555423 -5.522632 -1.498092
v -0.628043 1.629359 0.540495
vn 2.418144 -5.505173 -1.732764
v -0.568747 1.660006 0.542879
vn 0.000000 0.000000 0.000000
v -0.352519 1.882407 0.561796
vn 2.089889 -5.766582 -1.356449
v -0.485281 1.693149 0.525626
vn -4.321743 -1.667485 3.204322
v -0.752025 1.624273 0.534722
vn 0.000000 0.000000 0.000000
v -0.671592 1.803979 0.553430
vn -3.167182 -4.026600 2.575728
v -0.720678 1.620414 0.563407
vn -1.811000 -0.216088 1.343087
v -0.748955 1.651093 0.538989
vn 2.598841 -5.613459 -0.847262
v -0.449020 1.696566 0.568605
vn 0.000000 0.000000 0.000000
v -0.425126 1.868252 0.579291
vn 0.000000 0.000000 0.000000
v -0.704724 1.787001 0.553549
vn 4.526771 -3.936218 1.038881
v -0.350665 1.762306 0.537061
vn 0.000000 0.000000 0.000000
v -0.633235 1.795021 0.607268
vn 0.000000 0.000000 0.000000
v -0.323127 1.861167 0.552775
vn 2.367295 -5.453040 -1.963450
v -0.548547 1.656194 0.579753
vn -1.640869 -5.536393 0.664530
v -0.653892 1.612132 0.625966
vn 1.833689 -5.696356 -1.638045
v -0.605090 1.621929 0.594319
vn 2.703880 -5.466952 -1.455052
v -0.491871 1.670369 0.607777
vn 4.042095 -4.589838 0.417718
v -0.414282 1.714272 0.605298
vn 0.000000 0.000000 0.000000
v -0.358671 1.851038 0.604262
vn 0.000000 0.000000 0.000000
v -0.563019 1.818239 0.610247
vn -2.006534 -2.231120 1.566475
v -0.697356 1.638122 0.613347
vn 0.000000 0.000000 0.000000
v -0.700307 1.758206 0.604232
vn 0.000000 0.000000 0.000000
v -0.711697 1.692515 0.612908
vn 2.657596 -5.313183 -2.003154
v -0.545432 1.632262 0.636510
vn 0.000000 0.000000 0.000000
v -0.523598 1.819322 0.645015
vn 3.629532 -5.019841 -0.489286
v -0.461462 1.678828 0.644427
vn 0.000000 0.000000 0.000000
v -0.400258 1.877640 0.580503
vn 0.000000 0.000000 0.000000
v -0.398990 1.853050 0.642508
vn 3.034539 -1.751807 1.200449
v -0.365628 1.789595 0.621442
vn 0.000000 0.000000 0.000000
v -0.637005 1.764329 0.663194
vn 0.000000 0.000000 0.000000
v -0.596476 1.786142 0.662780
vn 0.000000 0.000000 0.000000
v -0.407650 1.835922 0.679900
vn 2.361725 -5.541112 -0.947341
v -0.544836 1.613221 0.691773
vn 4.837080 -3.307438 1.415980
v -0.430605 1.708322 0.681762
vn -1.921207 -5.244851 0.485891
v -0.620487 1.602546 0.694971
vn -2.028543 -2.199159 0.922036
v -0.672116 1.642475 0.661332
vn 3.519918 -5.031185 -1.105054
v -0.492252 1.652835 0.667284
vn 1.668421 -0.575035 0.912733
v -0.389444 1.811737 0.678926
vn 0.000000 0.000000 0.000000
v -0.373973 1.834575 0.650995
vn 0.000000 0.000000 0.000000
v -0.665360 1.695353 0.680927
vn 0.000000 0.000000 0.000000
v -0.690335 1.727315 0.641872
vn -1.741810 -2.972505 0.560649
v -0.624197 1.613835 0.743298
vn 0.000000 0.000000 0.000000
v -0.523754 1.809657 0.687829
vn -1.771383 -1.447802 0.463124
v -0.645913 1.642327 0.722082
vn 4.413104 -3.970809 0.380675
v -0.475579 1.657234 0.715603
vn 0.000000 0.000000 0.000000
v -0.660799 1.744626 0.661131
vn 0.000000 0.000000 0.000000
v -0.427901 1.817037 0.697584
vn 1.064043 -5.815644 -1.041951
v -0.590479 1.604838 0.656882
vn 0.000000 0.000000 0.000000
v -0.450799 1.838331 0.662761
vn 0.000000 0.000000 0.000000
v -0.480390 1.797906 0.722237
vn 0.000000 0.000000 0.000000
v -0.631658 1.688027 0.746882
vn 2.652797 -1.013024 1.373102
v -0.418728 1.772961 0.708026
vn 0.641238 -5.839341 0.449365
v -0.572855 1.600996 0.737274
vn 2.977433 -5.120288 0.879760
v -0.526650 1.618975 0.743673
vn 0.000000 0.000000 0.000000
v -0.555295 1.779146 0.732555
vn 0.000000 0.000000 0.000000
v -0.453382 1.763611 0.740282
vn 1.762159 -2.437935 1.966654
v -0.519035 1.646564 0.786198
vn 2.997005 -1.711696 3.426539
v -0.492175 1.658154 0.775617
vn 4.427592 -3.610328 1.526934
v -0.487371 1.651982 0.754124
vn 0.000000 0.000000 0.000000
v -0.620996 1.742528 0.715978
vn 0.000000 0.000000 0.000000
v -0.579382 1.725253 0.774296
vn 0.000000 0.000000 0.000000
v -0.506020 1.717042 0.787108
vn 0.000000 0.000000 0.000000
v -0.504792 1.751693 0.766644
vn 2.498311 -1.034750 1.188386
v -0.468556 1.706096 0.760034
vn 0.000000 0.000000 0.000000
v -0.547813 1.687861 0.802540
vn -0.462826 -3.119655 1.201250
v -0.600716 1.613281 0.775862
vn 0.000000 0.000000 0.000000
v -0.608771 1.653809 0.794478
vn 1.091719 -4.806911 2.759251
v -0.566645 1.612814 0.781370
vn 0.285499 -1.147529 1.126853
v -0.581398 1.642527 0.815366
# 186 vertices, 0 vertices normals

f 19//19 13//13 18//18
f 8//8 19//19 18//18
f 19//19 8//8 7//7
f 79//79 103//103 83//83
f 83//83 61//61 79//79
f 44//44 21//21 61//61
f 40//40 61//61 21//21
f 8//8 6//6 7//7
f 120//120 112//112 125//125
f 100//100 61//61 83//83
f 112//112 120//120 105//105
f 105//105 93//93 112//112
f 93//93 128//128 112//112
f 98//98 128//128 97//97
f 131//131 118//118 120//120
f 35//35 45//45 19//19
f 73//73 65//65 102//102
f 100//100 73//73 53//53
f 61//61 100//100 53//53
f 100//100 83//83 103//103
f 105//105 103//103 79//79
f 93//93 105//105 79//79
f 79//79 81//81 93//93
f 97//97 81//81 98//98
f 81//81 66//66 98//98
f 120//120 103//103 105//105
f 93//93 81//81 128//128
f 97//97 128//128 81//81
f 134//134 135//135 143//143
f 151//151 135//135 146//146
f 11//11 13//13 21//21
f 84//84 63//63 80//80
f 80//80 63//63 71//71
f 133//133 118//118 131//131
f 117//117 118//118 133//133
f 162//162 150//150 154//154
f 71//71 117//117 113//113
f 117//117 91//91 118//118
f 133//133 113//113 117//117
f 133//133 132//132 113//113
f 154//154 151//151 162//162
f 152//152 150//150 170//170
f 165//165 141//141 150//150
f 150//150 141//141 154//154
f 30//30 13//13 25//25
f 25//25 13//13 19//19
f 25//25 19//19 45//45
f 19//19 7//7 35//35
f 25//25 45//45 66//66
f 75//75 66//66 45//45
f 118//118 91//91 116//116
f 120//120 118//118 116//116
f 170//170 171//171 185//185
f 89//89 106//106 80//80
f 89//89 80//80 71//71
f 71//71 59//59 91//91
f 59//59 102//102 91//91
f 95//95 91//91 102//102
f 106//106 89//89 113//113
f 89//89 71//71 113//113
f 71//71 91//91 117//117
f 150//150 152//152 165//165
f 79//79 61//61 40//40
f 81//81 40//40 42//42
f 81//81 79//79 40//40
f 81//81 42//42 30//30
f 81//81 30//30 66//66
f 30//30 25//25 66//66
f 95//95 102//102 65//65
f 95//95 65//65 73//73
f 73//73 100//100 95//95
f 133//133 165//165 132//132
f 60//60 47//47 37//37
f 27//27 53//53 60//60
f 44//44 53//53 32//32
f 50//50 63//63 58//58
f 58//58 59//59 50//50
f 71//71 63//63 50//50
f 71//71 50//50 59//59
f 91//91 95//95 99//99
f 116//116 99//99 95//95
f 116//116 91//91 99//99
f 95//95 100//100 116//116
f 120//120 116//116 100//100
f 120//120 100//100 103//103
f 37//37 47//47 59//59
f 102//102 47//47 60//60
f 102//102 59//59 47//47
f 73//73 102//102 60//60
f 53//53 73//73 60//60
f 61//61 53//53 44//44
f 154//154 143//143 151//151
f 151//151 143//143 135//135
f 44//44 26//26 21//21
f 40//40 21//21 13//13
f 42//42 40//40 13//13
f 42//42 13//13 30//30
f 133//133 131//131 141//141
f 134//134 141//141 131//131
f 134//134 131//131 120//120
f 134//134 120//120 125//125
f 170//170 150//150 171//171
f 150//150 162//162 171//171
f 171//171 162//162 176//176
f 133//133 141//141 165//165
f 141//141 134//134 154//154
f 143//143 154//154 134//134
f 176//176 162//162 181//181
f 181//181 162//162 151//151
f 171//171 176//176 174//174
f 134//134 125//125 135//135
f 125//125 112//112 135//135
f 135//135 112//112 128//128
f 135//135 128//128 146//146
f 18//18 13//13 11//11
f 7//7 6//6 2//2
f 66//66 87//87 98//98
f 26//26 11//11 21//21
f 64//64 63//63 84//84
f 185//185 174//174 186//186
f 124//124 121//121 123//123
f 132//132 123//123 113//113
f 132//132 138//138 123//123
f 138//138 124//124 123//123
f 6//6 8//8 1//1
f 6//6 1//1 2//2
f 31//31 35//35 7//7
f 45//45 35//35 75//75
f 185//185 183//183 170//170
f 183//183 152//152 170//170
f 159//159 152//152 183//183
f 106//106 84//84 80//80
f 123//123 121//121 106//106
f 106//106 113//113 123//123
f 121//121 124//124 106//106
f 153//153 152//152 161//161
f 161//161 152//152 159//159
f 174//174 175//175 181//181
f 87//87 75//75 98//98
f 153//153 138//138 132//132
f 132//132 165//165 152//152
f 153//153 132//132 152//152
f 26//26 44//44 32//32
f 60//60 37//37 27//27
f 53//53 27//27 32//32
f 63//63 64//64 56//56
f 37//37 59//59 58//58
f 37//37 58//58 51//51
f 87//87 66//66 75//75
f 151//151 146//146 169//169
f 155//155 169//169 146//146
f 183//183 185//185 186//186
f 14//14 2//2 9//9
f 181//181 151//151 169//169
f 174//174 185//185 171//171
f 175//175 174//174 176//176
f 175//175 176//176 181//181
f 20//20 7//7 2//2
f 20//20 31//31 7//7
f 20//20 2//2 14//14
f 128//128 98//98 146//146
f 56//56 58//58 63//63
f 56//56 51//51 58//58
# 163 faces, 0 coords texture

# End of File
