####
#
# OBJ File Generated by Meshlab
#
####
# Object cake_part05_seg_01.obj
#
# Vertices: 232
# Faces: 163
#
####
vn -0.0522961 -0.5646580 -0.8236665
v 0.4632947 0.1606466 -1.5547194
vn 0.4403523 -0.2879950 -0.8503816
v 0.5307041 0.1898686 -1.5190324
vn 0.1045707 -0.7169358 -0.6892518
v 0.5043408 0.1141038 -1.5070251
vn -0.1496593 -0.6036795 -0.7830537
v 0.0859530 0.2513625 -1.5314883
vn -0.3216483 -0.6446331 -0.6935349
v 0.4136280 0.1473151 -1.5229568
vn -0.0873720 -0.6820292 -0.7260870
v 0.1786882 0.2076605 -1.5155209
vn 0.0000000 0.0000000 0.0000000
v 0.3067402 0.2549068 -1.5006690
vn -0.3593392 -0.2730886 -0.8923553
v 0.4180073 0.2030845 -1.5417875
vn 0.0000000 0.0000000 0.0000000
v 0.0696342 0.2908210 -1.5371433
vn -0.1269367 -0.7340125 -0.6671677
v 0.0935645 0.1684562 -1.4690281
vn 0.0000000 0.0000000 0.0000000
v 0.0165723 0.2651751 -1.4609622
vn -0.1837648 -0.7178388 -0.6715191
v 0.3097174 0.1862173 -1.5057248
vn 0.0000000 0.0000000 0.0000000
v 0.0833423 0.3134346 -1.5203527
vn -0.0891286 -0.8075615 -0.5830100
v 0.2750805 0.1491593 -1.4578344
vn 0.2966350 -0.3655355 -0.8822650
v 0.6483981 0.1256113 -1.4530519
vn 0.0000000 0.0000000 0.0000000
v 0.0418009 0.3012375 -1.5207624
vn -0.0600030 -0.8194219 -0.5700415
v 0.1866634 0.1591261 -1.4665397
vn 0.0000000 0.0000000 0.0000000
v 0.1702445 0.3015368 -1.4819993
vn -0.1048716 -0.9364167 -0.3348520
v 0.4922655 0.0649486 -1.3799533
vn 0.0000000 0.0000000 0.0000000
v -0.0100985 0.3904326 -1.4129008
vn 0.0138584 -0.9188646 -0.3943296
v 0.1709164 0.1394789 -1.4021151
vn 0.0000000 0.0000000 0.0000000
v 0.0119732 0.4119773 -1.4428606
vn 0.0000000 0.0000000 0.0000000
v 0.0555078 0.3772144 -1.4783107
vn -0.2037554 -0.8514827 -0.4831780
v 0.3665601 0.1155375 -1.4351070
vn 0.0000000 0.0000000 0.0000000
v 0.2721592 0.3312673 -1.4235353
vn 0.1376276 -0.7562609 -0.6396312
v 0.6140578 0.0794993 -1.4439499
vn 0.0000000 0.0000000 0.0000000
v 0.0076190 0.3535903 -1.4770708
vn 0.0000000 0.0000000 0.0000000
v 0.3743013 0.3114595 -1.4484965
vn 0.0356901 -0.7856938 -0.6175853
v 0.8615061 0.0492242 -1.3757920
vn 0.0000000 0.0000000 0.0000000
v 0.0993210 0.4109738 -1.4184233
vn -0.1259726 -0.8303242 -0.5428561
v 0.2313708 0.1057158 -1.3758379
vn 0.0000000 0.0000000 0.0000000
v 0.3444214 0.3451233 -1.4009174
vn 0.0000000 0.0000000 0.0000000
v 0.5603742 0.2695827 -1.4546487
vn 0.0000000 0.0000000 0.0000000
v 0.4658648 0.2872210 -1.4786718
vn 0.0562829 -0.7714373 -0.6338114
v 0.7399887 0.0850331 -1.4115900
vn -0.1692330 -0.7725856 -0.6119410
v 0.0774926 0.0907900 -1.3780195
vn 0.0000000 0.0000000 0.0000000
v 0.4836567 0.3421932 -1.3905512
vn 0.0000000 0.0000000 0.0000000
v 0.6780493 0.2297614 -1.3755058
vn -0.5224231 -0.5868924 -0.6185721
v 0.0324943 0.1467409 -1.3931010
vn 0.0000000 0.0000000 0.0000000
v -0.0145282 0.1966969 -1.3127370
vn 0.0000000 0.0000000 0.0000000
v 0.0336318 0.4546834 -1.3721714
vn 0.0684554 -0.8097114 -0.5828220
v 0.1496375 0.0717991 -1.3335687
vn 0.0000000 0.0000000 0.0000000
v 0.3168432 0.3930605 -1.3417238
vn 0.0000000 0.0000000 0.0000000
v 0.8995941 0.2564198 -1.2778460
vn 0.1208912 -0.7061964 -0.6976188
v 0.1636309 0.1150374 -1.3637214
vn 0.0014565 -0.8993787 -0.4371681
v 0.8701856 0.0214859 -1.3396320
vn 0.0000000 0.0000000 0.0000000
v 0.9311470 0.1328079 -1.3456093
vn 0.0000000 0.0000000 0.0000000
v 0.4113615 0.3585706 -1.3684812
vn 0.2146754 -0.8162783 -0.5362874
v 0.1306522 0.1269226 -1.4052920
vn 0.0000000 0.0000000 0.0000000
v 0.2153542 0.3624302 -1.3967934
vn 0.3693835 -0.6645312 -0.6495801
v 0.9926682 0.0464188 -1.3342159
vn -0.3183258 -0.7804453 -0.5381207
v 0.0063093 0.0700463 -1.3039142
vn -0.0854611 -0.9012248 -0.4248415
v 0.0857479 0.0421159 -1.2825748
vn -0.0365573 -0.9799684 -0.1957694
v 0.6246189 0.0344419 -1.2928891
vn -0.0143586 -0.9396548 -0.3418227
v 0.6757743 0.0444960 -1.3569063
vn 0.0000000 0.0000000 0.0000000
v 0.1732852 0.4249074 -1.3350526
vn 0.2158200 -0.8689569 -0.4453489
v 0.9726462 0.0036089 -1.3037339
vn 0.4748087 -0.8026503 -0.3609837
v 1.0704945 0.0381575 -1.2400349
vn 0.0000000 0.0000000 0.0000000
v 1.0402683 0.1438570 -1.2594661
vn 0.0031140 -0.9053346 -0.4246876
v 0.2351024 0.0362071 -1.2717575
vn 0.0000000 0.0000000 0.0000000
v 0.5820046 0.3408402 -1.3500963
vn -0.0568303 -0.9052218 -0.4211223
v 0.3442726 0.0539896 -1.3123100
vn -0.5247085 -0.7039701 -0.4786513
v -0.0222413 0.0349568 -1.2563428
vn 0.0000000 0.0000000 0.0000000
v -0.0229421 0.3301385 -1.3417577
vn 0.0000000 0.0000000 0.0000000
v -0.0487733 0.4526131 -1.2581106
vn 0.0168833 -0.9493116 -0.3138830
v 0.3231870 0.0242312 -1.2433090
vn 0.0000000 0.0000000 0.0000000
v 0.2483004 0.3973414 -1.3397622
vn 0.0000000 0.0000000 0.0000000
v 0.3906897 0.4477171 -1.2640996
vn 0.0000000 0.0000000 0.0000000
v 0.7883523 0.1715691 -1.3662533
vn -0.3537674 -0.9173586 -0.1824880
v 0.0025935 0.0215171 -1.2083088
vn 0.0000000 0.0000000 0.0000000
v 0.6058668 0.4274725 -1.1796755
vn 0.0000000 0.0000000 0.0000000
v 0.4773259 0.4907221 -1.1705811
vn -0.0001173 -0.9282011 -0.3720788
v 0.1536630 0.0190960 -1.2409694
vn 0.0000000 0.0000000 0.0000000
v 0.5181295 0.4103311 -1.2822951
vn 0.0000000 0.0000000 0.0000000
v -0.0528187 0.5087198 -1.2116380
vn -0.0892794 -0.9906493 -0.1031652
v 0.7610651 0.0189160 -1.2494781
vn 0.0000000 0.0000000 0.0000000
v -0.0044941 0.5155473 -1.2316684
vn 0.0054294 -0.9824518 -0.1864376
v 0.4644648 0.0283773 -1.2354013
vn 0.1753048 -0.9661886 -0.1890708
v 0.9944430 -0.0067740 -1.2301688
vn 0.0000000 0.0000000 0.0000000
v 0.7974944 0.3443715 -1.2071247
vn 0.0000000 0.0000000 0.0000000
v 1.0611898 0.2108511 -1.1825389
vn -0.1147178 -0.9533443 -0.2792391
v 0.0715434 0.0111323 -1.1888794
vn -0.0473833 -0.9816338 -0.1847970
v 0.1274734 -0.0115387 -1.1484480
vn -0.1111629 -0.9904191 -0.0819316
v 0.7802902 0.0119758 -1.1394479
vn 0.0000000 0.0000000 0.0000000
v -0.0682830 0.1892998 -1.1507474
vn 0.3965921 -0.9179716 0.0065618
v 1.0812482 0.0045362 -1.1479014
vn 0.0000000 0.0000000 0.0000000
v 1.1018808 0.0874395 -1.1620066
vn 0.0000000 0.0000000 0.0000000
v 0.1008182 0.5154184 -1.2107626
vn 0.0000000 0.0000000 0.0000000
v 0.1874297 0.5355883 -1.0737517
vn 0.0647799 -0.9921511 -0.1069569
v 0.2281466 -0.0115116 -1.1085960
vn 0.0000000 0.0000000 0.0000000
v 0.8659842 0.4519783 -1.0675806
vn 0.0000000 0.0000000 0.0000000
v 0.3573636 0.5380904 -1.0856377
vn 0.0000000 0.0000000 0.0000000
v 1.0773016 0.1301372 -1.0907141
vn 0.0000000 0.0000000 0.0000000
v 0.4428907 0.5333040 -1.1131929
vn 0.0000000 0.0000000 0.0000000
v 0.6950285 0.3768198 -1.1977897
vn -0.0656805 -0.9948339 -0.0774056
v 0.7113740 0.0202991 -1.1561816
vn -0.0161403 -0.9973505 -0.0709332
v 0.6172551 0.0240511 -1.1601907
vn 0.0000000 0.0000000 0.0000000
v -0.0897349 0.4530169 -1.1424985
vn -0.0933427 -0.9941530 -0.0542867
v 0.9031222 -0.0045824 -1.1552606
vn 0.0000000 0.0000000 0.0000000
v 0.9106742 0.3728854 -1.1653316
vn 0.0233551 -0.9952314 -0.0947047
v 0.5197217 0.0142682 -1.0921874
vn 0.0000000 0.0000000 0.0000000
v 1.0546150 0.2492590 -1.1203550
vn 0.0000000 0.0000000 0.0000000
v 0.2509472 0.4787202 -1.2054538
vn 0.0000000 0.0000000 0.0000000
v -0.0629588 0.3346897 -1.1776688
vn 0.0000000 0.0000000 0.0000000
v 0.9902666 0.2910082 -1.1937304
vn -0.7832401 -0.6117142 -0.1110895
v -0.0499816 0.0722633 -1.1958977
vn 0.0000000 0.0000000 0.0000000
v 0.4851602 0.5317339 -1.0502753
vn -0.0452896 -0.9932435 -0.1068474
v 0.6672329 0.0109684 -1.0709497
vn -0.2217076 -0.9720370 -0.0773942
v 0.0608582 -0.0096993 -1.0870525
vn 0.0680842 -0.9970760 -0.0347009
v 0.3981142 0.0073399 -1.0716107
vn 0.0000000 0.0000000 0.0000000
v 0.9490106 0.4100122 -1.0657014
vn 0.0000000 0.0000000 0.0000000
v 1.0311511 0.2240841 -1.0409021
vn 0.1062622 -0.9933295 -0.0447755
v 1.0112246 -0.0134443 -1.1597486
vn 0.5294961 -0.7292950 0.4333161
v 1.0645932 0.0414308 -1.0631195
vn 0.0000000 0.0000000 0.0000000
v -0.1114574 0.3099214 -1.0359498
vn -0.0277635 -0.9995565 -0.0107764
v 0.8181818 -0.0037408 -1.0280839
vn 0.0000000 0.0000000 0.0000000
v 1.0050553 0.3242568 -1.0516158
vn 0.0000000 0.0000000 0.0000000
v -0.0764035 0.5132594 -1.1240174
vn 0.2560071 -0.9342902 0.2481171
v 1.0024840 -0.0104383 -1.0745229
vn 0.0000000 0.0000000 0.0000000
v 0.6414065 0.4870603 -1.0372177
vn -0.2803457 -0.9598927 -0.0034882
v 0.0387804 -0.0133053 -0.9647322
vn -0.6020507 -0.7973883 -0.0413150
v -0.0368472 0.0362471 -1.0481632
vn 0.0000000 0.0000000 0.0000000
v -0.0958795 0.1724927 -1.0345881
vn 0.0000000 0.0000000 0.0000000
v 0.7659535 0.4837926 -1.0311371
vn 0.0000000 0.0000000 0.0000000
v -0.0758793 0.5478390 -1.0103592
vn 0.0000000 0.0000000 0.0000000
v 0.0337585 0.5568404 -1.0523566
vn 0.0000000 0.0000000 0.0000000
v 0.3866520 0.5620648 -0.9264790
vn 0.0000000 0.0000000 0.0000000
v 0.5802161 0.5261273 -0.9696386
vn 0.0000000 0.0000000 0.0000000
v 0.8073176 0.5290081 -0.9068473
vn 0.0000000 0.0000000 0.0000000
v -0.1287467 0.4904276 -0.9748344
vn 0.1172102 -0.9924586 -0.0358834
v 0.2349517 -0.0104418 -0.9248652
vn 0.0000000 0.0000000 0.0000000
v -0.0564255 0.5428134 -0.9073775
vn 0.0688651 -0.9974067 -0.0209181
v 0.3611401 0.0102521 -0.9221566
vn -0.0060622 -0.9994936 -0.0312383
v 0.5782155 0.0060873 -0.9502867
vn 0.0000000 0.0000000 0.0000000
v 0.9383774 0.3968667 -0.9530957
vn 0.0000000 0.0000000 0.0000000
v 0.8949009 0.4779846 -0.9603975
vn 0.1919524 -0.9588142 0.2093552
v 0.8562499 -0.0009262 -0.9343849
vn 0.1935298 -0.9418118 0.2748397
v 0.9525052 0.0139594 -0.9766656
vn 0.0000000 0.0000000 0.0000000
v 0.9755064 0.1193691 -0.9552186
vn 0.0000000 0.0000000 0.0000000
v -0.1238205 0.4286017 -1.0389969
vn -0.0141745 -0.9983007 0.0565228
v 0.7386240 0.0025360 -0.9131539
vn -0.0467167 -0.9988510 -0.0106918
v 0.1238416 -0.0193478 -0.9184783
vn 0.4065881 -0.8066263 0.4289990
v 0.8811208 0.0389660 -0.8836639
vn -0.8627353 -0.5030900 0.0508763
v -0.0935037 0.1453506 -0.9300470
vn 0.0000000 0.0000000 0.0000000
v 0.1101204 0.5490785 -0.9034147
vn 0.0000000 0.0000000 0.0000000
v 0.9253958 0.1627113 -0.8965011
vn 0.0000000 0.0000000 0.0000000
v 0.9199206 0.2589800 -0.8943322
vn 0.0000000 0.0000000 0.0000000
v 0.4809361 0.5574493 -0.8451595
vn -0.5400321 -0.8394747 -0.0603946
v -0.0118595 0.0129902 -0.8544095
vn 0.0000000 0.0000000 0.0000000
v 0.5949413 0.5678060 -0.8002844
vn 0.2391094 -0.9267805 0.2896630
v 0.8139090 0.0084705 -0.8695334
vn 0.0000000 0.0000000 0.0000000
v -0.1437359 0.3412022 -0.9119078
vn 0.0828653 -0.9866418 -0.1402547
v 0.3587641 0.0093072 -0.8396266
vn 0.0000000 0.0000000 0.0000000
v 0.6912771 0.5483611 -0.9011583
vn 0.0000000 0.0000000 0.0000000
v 0.8623945 0.1303042 -0.8419776
vn 0.0000000 0.0000000 0.0000000
v 0.2112805 0.5523343 -0.9386889
vn 0.0000000 0.0000000 0.0000000
v 0.8983220 0.3763286 -0.8768454
vn 0.0514825 -0.9927794 -0.1083448
v 0.4715419 -0.0040449 -0.7947788
vn 0.1592588 -0.9480383 0.2754269
v 0.7323198 0.0080112 -0.8154706
vn 0.0000000 0.0000000 0.0000000
v -0.1392823 0.4666844 -0.8330196
vn 0.0000000 0.0000000 0.0000000
v -0.1294325 0.4461299 -0.7637644
vn 0.0000000 0.0000000 0.0000000
v 0.8474005 0.3433845 -0.8128402
vn 0.0000000 0.0000000 0.0000000
v 0.0533226 0.5234382 -0.8231205
vn 0.3435505 -0.8265126 0.4459261
v 0.8222871 0.0364881 -0.8211778
vn 0.0000000 0.0000000 0.0000000
v 0.5360539 0.5484850 -0.9060627
vn 0.0000000 0.0000000 0.0000000
v 0.8713229 0.4522454 -0.8647152
vn 0.0000000 0.0000000 0.0000000
v 0.8491364 0.5106674 -0.8750188
vn 0.1075413 -0.9918668 0.0680817
v 0.6027890 0.0045125 -0.7920111
vn -0.0915979 -0.9883561 -0.1214992
v 0.1112590 -0.0212666 -0.8283621
vn -0.9129074 -0.4081589 -0.0025742
v -0.0579986 0.0913851 -0.7361298
vn 0.0000000 0.0000000 0.0000000
v -0.1406306 0.3486589 -0.7805200
vn 0.0000000 0.0000000 0.0000000
v 0.7185252 0.5562991 -0.7803475
vn 0.0000000 0.0000000 0.0000000
v -0.1105352 0.2034907 -0.8183565
vn -0.0497749 -0.9947674 -0.0892206
v 0.0931774 -0.0419757 -0.7240564
vn 0.0000000 0.0000000 0.0000000
v -0.0693756 0.4877335 -0.7715504
vn 0.3648065 -0.7210790 0.5890343
v 0.7581740 0.0557923 -0.7549925
vn 0.0000000 0.0000000 0.0000000
v 0.7751330 0.5000975 -0.7686961
vn 0.0000000 0.0000000 0.0000000
v 0.2051238 0.5250998 -0.8159614
vn 0.0000000 0.0000000 0.0000000
v 0.4206005 0.5394267 -0.7812548
vn -0.6341231 -0.7732139 -0.0053189
v -0.0089490 -0.0183234 -0.7358435
vn 0.0000000 0.0000000 0.0000000
v 0.4389890 0.5152144 -0.7129062
vn 0.0000000 0.0000000 0.0000000
v 0.4785057 0.5255484 -0.7001469
vn -0.8478882 -0.4740718 0.2373638
v -0.0206501 0.0233572 -0.6943949
vn 0.0000000 0.0000000 0.0000000
v -0.0667890 0.3875475 -0.7281013
vn 0.0000000 0.0000000 0.0000000
v 0.2675604 0.4838448 -0.7259598
vn 0.0858122 -0.9855857 -0.1457981
v 0.2746658 -0.0164087 -0.7861338
vn 0.0000000 0.0000000 0.0000000
v 0.8035305 0.2506965 -0.7698115
vn 0.0000000 0.0000000 0.0000000
v 0.7769320 0.3798738 -0.7442977
vn 0.3720675 -0.7104154 0.5973908
v 0.6717176 0.0353438 -0.7211167
vn 0.0000000 0.0000000 0.0000000
v 0.7412820 0.1734745 -0.7200772
vn 0.0000000 0.0000000 0.0000000
v 0.0877668 0.4602205 -0.7403881
vn 0.3753879 -0.9110531 0.1704881
v 0.5495251 0.0003033 -0.6929168
vn -0.3575491 -0.8935236 0.2716143
v 0.0351597 -0.0320942 -0.6693780
vn 0.0000000 0.0000000 0.0000000
v 0.5817021 0.5435662 -0.6870351
vn -0.1579643 -0.9741428 0.1615336
v 0.2389368 -0.0350990 -0.6643342
vn 0.0000000 0.0000000 0.0000000
v 0.1383076 0.1372421 -0.6611782
vn 0.0000000 0.0000000 0.0000000
v -0.0814046 0.2393485 -0.7271735
vn 0.5221188 -0.3184665 0.7911834
v 0.6546242 0.1292029 -0.6720562
vn 0.0000000 0.0000000 0.0000000
v 0.6797596 0.5209754 -0.6814389
vn 0.0000000 0.0000000 0.0000000
v 0.0048265 0.0925453 -0.6738533
vn 0.0000000 0.0000000 0.0000000
v 0.0534992 0.2796698 -0.6912708
vn 0.0000000 0.0000000 0.0000000
v 0.2642406 0.3878905 -0.6691550
vn 0.0000000 0.0000000 0.0000000
v 0.6888485 0.2519121 -0.6633820
vn -0.0911134 -0.9955729 -0.0230850
v 0.3282602 -0.0485559 -0.6289716
vn 0.0000000 0.0000000 0.0000000
v 0.6106290 0.4827399 -0.6087067
vn -0.0134404 -0.8260509 0.5634352
v 0.0990830 -0.0427003 -0.6587841
vn 0.0000000 0.0000000 0.0000000
v 0.3183053 0.3252878 -0.6294633
vn -0.1433160 -0.2330889 0.9618369
v 0.1072132 0.0120603 -0.6443021
vn 0.0000000 0.0000000 0.0000000
v 0.4137185 0.4794110 -0.6693162
vn 0.0000000 0.0000000 0.0000000
v 0.1870717 0.0475475 -0.6443316
vn 0.0000000 0.0000000 0.0000000
v 0.2190835 0.1046357 -0.6557394
vn 0.0000000 0.0000000 0.0000000
v 0.5906781 0.1974896 -0.5897896
vn 0.0000000 0.0000000 0.0000000
v 0.6550648 0.3896354 -0.6244335
vn 0.0000000 0.0000000 0.0000000
v 0.3806881 0.2362699 -0.5747349
vn -0.1403501 -0.9815325 0.1299838
v 0.3763407 -0.0576956 -0.5686490
vn 0.0000000 0.0000000 0.0000000
v 0.3291390 0.0687908 -0.5780554
vn -0.1923166 -0.8158482 0.5453494
v 0.2053207 -0.0074777 -0.6374485
vn 0.0000000 0.0000000 0.0000000
v 0.5342861 0.4761384 -0.5941102
vn 0.5816543 -0.7554147 0.3017070
v 0.5215698 0.0066504 -0.5989737
vn 0.5882733 -0.5663343 0.5772348
v 0.5788314 0.0647916 -0.6396555
vn 0.0000000 0.0000000 0.0000000
v 0.2485118 0.0675143 -0.6346713
vn 0.0000000 0.0000000 0.0000000
v 0.2516929 0.2145974 -0.6425325
vn 0.0000000 0.0000000 0.0000000
v 0.5241777 0.1168091 -0.5531262
vn 0.3705476 -0.9220435 0.1119392
v 0.4415453 -0.0418821 -0.5928896
vn -0.4253889 -0.8168624 0.3895897
v 0.3203025 -0.0311618 -0.5784104
vn 0.0000000 0.0000000 0.0000000
v 0.5613228 0.4139979 -0.5612991
vn 0.0000000 0.0000000 0.0000000
v 0.4529108 0.3763028 -0.5756932
vn 0.1508216 -0.6411833 0.7524207
v 0.4064018 -0.0505414 -0.5276310
vn 0.3314264 -0.5143948 0.7909200
v 0.4188887 -0.0006525 -0.5195363
vn 0.4292503 -0.7532657 0.4983324
v 0.4798243 0.0216479 -0.5298319
vn 0.0000000 0.0000000 0.0000000
v 0.4579689 0.1587952 -0.5264844
vn 0.0000000 0.0000000 0.0000000
v 0.5574439 0.2804811 -0.5548362
# 232 vertices, 0 vertices normals

f 90//90 109//109 83//83
f 133//133 90//90 110//110
f 42//42 36//36 49//49
f 42//42 49//49 45//45
f 45//45 49//49 21//21
f 45//45 21//21 31//31
f 101//101 108//108 134//134
f 134//134 116//116 141//141
f 108//108 116//116 134//134
f 141//141 116//116 137//137
f 138//138 116//116 119//119
f 138//138 137//137 116//116
f 138//138 119//119 114//114
f 106//106 70//70 122//122
f 70//70 82//82 109//109
f 109//109 122//122 70//70
f 109//109 82//82 83//83
f 90//90 78//78 110//110
f 101//101 110//110 78//78
f 180//180 149//149 174//174
f 149//149 169//169 174//174
f 170//170 149//149 180//180
f 174//174 186//186 195//195
f 174//174 169//169 186//186
f 158//158 186//186 153//153
f 215//215 224//224 228//228
f 229//229 228//228 224//224
f 55//55 29//29 46//46
f 46//46 51//51 57//57
f 122//122 109//109 121//121
f 109//109 90//90 121//121
f 134//134 110//110 101//101
f 133//133 110//110 134//134
f 220//220 192//192 189//189
f 82//82 73//73 83//83
f 83//83 73//73 90//90
f 66//66 78//78 90//90
f 21//21 17//17 31//31
f 24//24 31//31 14//14
f 55//55 78//78 19//19
f 101//101 78//78 97//97
f 99//99 116//116 84//84
f 113//113 86//86 119//119
f 228//228 225//225 215//215
f 141//141 137//137 151//151
f 151//151 137//137 143//143
f 143//143 137//137 138//138
f 53//53 52//52 36//36
f 36//36 42//42 53//53
f 52//52 39//39 36//36
f 24//24 19//19 62//62
f 78//78 62//62 19//19
f 45//45 31//31 42//42
f 31//31 60//60 42//42
f 31//31 62//62 60//60
f 24//24 62//62 31//31
f 17//17 10//10 6//6
f 14//14 17//17 12//12
f 12//12 5//5 24//24
f 19//19 26//26 55//55
f 35//35 55//55 26//26
f 3//3 26//26 19//19
f 142//142 149//149 121//121
f 122//122 121//121 149//149
f 144//144 122//122 149//149
f 121//121 90//90 142//142
f 131//131 142//142 90//90
f 90//90 133//133 131//131
f 225//225 195//195 204//204
f 204//204 224//224 215//215
f 215//215 225//225 204//204
f 39//39 10//10 36//36
f 49//49 36//36 10//10
f 49//49 17//17 21//21
f 10//10 17//17 49//49
f 31//31 17//17 14//14
f 14//14 12//12 24//24
f 78//78 54//54 76//76
f 55//55 54//54 78//78
f 54//54 55//55 76//76
f 55//55 46//46 76//76
f 46//46 57//57 76//76
f 79//79 76//76 57//57
f 58//58 79//79 57//57
f 106//106 63//63 70//70
f 82//82 70//70 53//53
f 53//53 73//73 82//82
f 73//73 60//60 90//90
f 90//90 60//60 66//66
f 108//108 101//101 97//97
f 108//108 96//96 84//84
f 97//97 96//96 108//108
f 116//116 108//108 84//84
f 119//119 99//99 113//113
f 119//119 116//116 99//99
f 114//114 119//119 86//86
f 168//168 158//158 134//134
f 168//168 134//134 159//159
f 134//134 141//141 159//159
f 141//141 151//151 159//159
f 164//164 159//159 151//151
f 26//26 3//3 15//15
f 63//63 106//106 52//52
f 52//52 70//70 63//63
f 70//70 52//52 53//53
f 53//53 42//42 73//73
f 73//73 42//42 60//60
f 66//66 60//60 62//62
f 62//62 78//78 66//66
f 78//78 76//76 97//97
f 96//96 97//97 76//76
f 84//84 96//96 76//76
f 84//84 76//76 99//99
f 76//76 79//79 99//99
f 99//99 79//79 113//113
f 79//79 58//58 86//86
f 86//86 113//113 79//79
f 5//5 1//1 3//3
f 24//24 5//5 3//3
f 19//19 24//24 3//3
f 158//158 168//168 192//192
f 189//189 168//168 159//159
f 189//189 192//192 168//168
f 159//159 176//176 189//189
f 149//149 142//142 169//169
f 186//186 169//169 142//142
f 142//142 131//131 186//186
f 186//186 133//133 153//153
f 131//131 133//133 186//186
f 158//158 153//153 133//133
f 158//158 133//133 134//134
f 180//180 174//174 193//193
f 193//193 174//174 206//206
f 206//206 174//174 217//217
f 195//195 217//217 174//174
f 195//195 186//186 204//204
f 224//224 204//204 186//186
f 186//186 158//158 224//224
f 224//224 158//158 192//192
f 224//224 192//192 219//219
f 193//193 206//206 208//208
f 217//217 208//208 206//206
f 176//176 159//159 164//164
f 224//224 219//219 230//230
f 229//229 224//224 230//230
f 29//29 51//51 46//46
f 198//198 220//220 189//189
f 58//58 57//57 51//51
f 229//229 225//225 228//228
f 29//29 55//55 35//35
f 170//170 180//180 183//183
f 2//2 3//3 1//1
f 2//2 15//15 3//3
f 10//10 4//4 6//6
f 17//17 6//6 12//12
f 15//15 35//35 26//26
f 225//225 217//217 195//195
f 164//164 151//151 143//143
f 5//5 12//12 8//8
f 8//8 1//1 5//5
f 198//198 189//189 176//176
f 193//193 183//183 180//180
f 220//220 219//219 192//192
# 163 faces, 0 coords texture

# End of File
