####
#
# OBJ File Generated by Meshlab
#
####
# Object venus_part05_seg_02.obj
#
# Vertices: 327
# Faces: 167
#
####
vn 0.065648 -0.659472 -0.748857
v 1.665985 -0.779048 -1.592914
vn 0.000000 0.000000 0.000000
v 1.645061 -0.653661 -1.612532
vn 0.000000 0.000000 0.000000
v 1.794350 -0.668676 -1.609697
vn 0.000000 0.000000 0.000000
v 1.727963 -0.653737 -1.601397
vn 0.000000 0.000000 0.000000
v 1.643110 -0.701598 -1.629400
vn 0.000000 0.000000 0.000000
v 1.601857 -0.731226 -1.597555
vn 0.000000 0.000000 0.000000
v 1.595158 -0.655600 -1.587396
vn 0.132864 -0.652065 -0.746431
v 1.774693 -0.801332 -1.563760
vn 0.207595 -0.470383 -0.857697
v 1.758298 -0.712870 -1.616243
vn 0.187421 -0.438831 -0.878807
v 1.904212 -0.711226 -1.570406
vn -0.017351 -0.878916 -0.476660
v 1.696036 -0.840739 -1.511470
vn 0.000000 0.000000 0.000000
v 2.008753 -0.620400 -1.521716
vn 0.000000 0.000000 0.000000
v 2.457820 -0.640575 -1.535943
vn 0.641540 -0.443500 -0.625887
v 2.589356 -0.703250 -1.530667
vn 0.000000 0.000000 0.000000
v 1.864274 -0.643724 -1.566338
vn 0.000000 0.000000 0.000000
v 1.993910 -0.657930 -1.555562
vn 0.000000 0.000000 0.000000
v 2.145576 -0.669544 -1.551591
vn -0.016654 -0.221639 -0.974987
v 2.282787 -0.679811 -1.554541
vn 0.000000 0.000000 0.000000
v 1.666465 -0.603054 -1.545886
vn 0.025688 -0.262254 -0.964657
v 2.412657 -0.693771 -1.553292
vn 0.099192 -0.253802 -0.962157
v 2.510353 -0.686685 -1.550468
vn 0.870471 -0.486180 0.076881
v 2.619931 -0.679344 -1.450932
vn 0.000000 0.000000 0.000000
v 1.629414 -0.798290 -1.521164
vn 0.000000 0.000000 0.000000
v 1.593836 -0.606205 -1.467423
vn 0.000000 0.000000 0.000000
v 2.628085 -0.654665 -1.493523
vn 0.031696 -0.783918 -0.620055
v 2.235861 -0.862547 -1.491951
vn 0.180069 -0.843438 -0.506149
v 2.382016 -0.845681 -1.486255
vn 0.401400 -0.813049 -0.421699
v 2.503471 -0.803609 -1.493048
vn 0.700026 -0.651986 -0.291338
v 2.577503 -0.751308 -1.497026
vn 0.256702 -0.461640 -0.849113
v 2.532224 -0.744506 -1.532884
vn 0.000000 0.000000 0.000000
v 2.595578 -0.660138 -1.522477
vn -0.047049 -0.642891 -0.764511
v 2.071479 -0.836757 -1.499591
vn 0.000000 0.000000 0.000000
v 2.092377 -0.646944 -1.539180
vn 0.000000 0.000000 0.000000
v 2.233123 -0.628244 -1.535331
vn 0.109365 -0.673791 -0.730784
v 1.910025 -0.817061 -1.517563
vn 0.013037 -0.373477 -0.927548
v 2.264670 -0.795089 -1.528026
vn 0.000000 0.000000 0.000000
v 1.605800 -0.602165 -1.532321
vn 0.010928 -0.369648 -0.929108
v 2.070445 -0.755594 -1.533009
vn 0.000000 0.000000 0.000000
v 2.046427 -0.695683 -1.547284
vn 0.094460 -0.455187 -0.885371
v 2.437822 -0.776886 -1.528694
vn 0.000000 0.000000 0.000000
v 2.152453 -0.603149 -1.475216
vn 0.000000 0.000000 0.000000
v 1.588359 -0.712685 -1.517259
vn 0.000000 0.000000 0.000000
v 1.601962 -0.687814 -1.443546
vn 0.033837 -0.924530 -0.379604
v 1.795666 -0.852994 -1.489712
vn 0.252255 -0.964160 0.082234
v 2.370789 -0.858716 -1.385829
vn 0.000000 0.000000 0.000000
v 2.026996 -0.572773 -1.416965
vn 0.000000 0.000000 0.000000
v 2.393661 -0.586316 -1.361804
vn 0.000000 0.000000 0.000000
v 2.581866 -0.626556 -1.450743
vn 0.665314 -0.733510 0.138997
v 2.547168 -0.772800 -1.400252
vn 0.000000 0.000000 0.000000
v 1.795759 -0.591394 -1.504640
vn -0.078937 -0.940977 -0.329138
v 2.094690 -0.871339 -1.452050
vn -0.042542 -0.983697 -0.174730
v 1.719450 -0.859179 -1.436335
vn 0.000000 0.000000 0.000000
v 1.559608 -0.442503 -1.413365
vn 0.071281 -0.994512 -0.076576
v 2.234064 -0.882750 -1.419054
vn 0.000000 0.000000 0.000000
v 1.562025 -0.353410 -1.411963
vn -0.009136 -0.950336 -0.311093
v 1.930017 -0.858316 -1.445104
vn 0.000000 0.000000 0.000000
v 2.415712 -0.607349 -1.459872
vn 0.000000 0.000000 0.000000
v 1.717234 -0.508845 -1.441221
vn 0.000000 0.000000 0.000000
v 1.614584 -0.530279 -1.471329
vn 0.000000 0.000000 0.000000
v 1.910521 -0.594490 -1.482637
vn -0.009706 -0.993510 -0.113332
v 1.792409 -0.870164 -1.365054
vn 0.000000 0.000000 0.000000
v 1.503596 -0.336641 -1.380368
vn -0.014892 -0.998593 -0.050903
v 2.001311 -0.875719 -1.341224
vn 0.000000 0.000000 0.000000
v 1.487888 -0.278849 -1.337054
vn 0.000000 0.000000 0.000000
v 1.703106 -0.296031 -1.318444
vn 0.419212 -0.905475 0.066151
v 2.461071 -0.831639 -1.415997
vn 0.000000 0.000000 0.000000
v 1.780607 -0.436402 -1.354611
vn 0.000000 0.000000 0.000000
v 2.611328 -0.629030 -1.401647
vn 0.000000 0.000000 0.000000
v 1.632310 -0.407300 -1.408143
vn 0.000000 0.000000 0.000000
v 1.883841 -0.511985 -1.390092
vn 0.000000 0.000000 0.000000
v 1.606096 -0.559554 -1.376058
vn 0.000000 0.000000 0.000000
v 1.576792 -0.475977 -1.342722
vn 0.000000 0.000000 0.000000
v 1.524042 -0.379284 -1.347250
vn 0.841768 -0.520983 0.141435
v 2.557307 -0.748220 -1.329090
vn 0.000000 0.000000 0.000000
v 2.289725 -0.575831 -1.360316
vn 0.000000 0.000000 0.000000
v 1.592269 -0.116104 -1.258365
vn 0.000000 0.000000 0.000000
v 2.038894 -0.549923 -1.364051
vn 0.000000 0.000000 0.000000
v 1.982699 -0.514144 -1.350139
vn 0.000000 0.000000 0.000000
v 1.678139 -0.822738 -1.403694
vn 0.000000 0.000000 0.000000
v 1.623326 -0.749683 -1.421131
vn 0.000000 0.000000 0.000000
v 1.518444 -0.303043 -1.391957
vn 0.000000 0.000000 0.000000
v 1.575252 -0.271066 -1.370512
vn 0.000000 0.000000 0.000000
v 1.724137 -0.376935 -1.346630
vn 0.000000 0.000000 0.000000
v 1.643708 -0.667198 -1.364077
vn 0.000000 0.000000 0.000000
v 1.468502 -0.200794 -1.301832
vn 0.000000 0.000000 0.000000
v 1.633175 -0.217477 -1.312601
vn 0.000000 0.000000 0.000000
v 2.106373 -0.534431 -1.319293
vn 0.000000 0.000000 0.000000
v 1.497621 -0.187183 -1.322992
vn 0.000000 0.000000 0.000000
v 2.578693 -0.603365 -1.296754
vn 0.000000 0.000000 0.000000
v 2.605117 -0.625443 -1.358660
vn 0.000000 0.000000 0.000000
v 1.889751 -0.449021 -1.318368
vn 0.000000 0.000000 0.000000
v 1.776871 -0.369217 -1.317245
vn 0.000000 0.000000 0.000000
v 1.653316 -0.586117 -1.279870
vn 0.000000 0.000000 0.000000
v 1.758718 -0.847592 -1.287149
vn 0.000000 0.000000 0.000000
v 1.466022 -0.125510 -1.220755
vn 0.000000 0.000000 0.000000
v 2.491873 -0.583995 -1.311175
vn 0.515897 -0.808093 0.284317
v 2.503344 -0.769346 -1.283599
vn 0.820108 -0.476060 0.317474
v 2.566094 -0.709531 -1.285987
vn 0.000000 0.000000 0.000000
v 1.955470 -0.471429 -1.311886
vn 0.000000 0.000000 0.000000
v 1.715484 -0.752020 -1.278758
vn 0.000000 0.000000 0.000000
v 1.476404 -0.134846 -1.268526
vn 0.000000 0.000000 0.000000
v 1.801810 -0.820268 -1.182006
vn 0.095748 -0.993446 0.062432
v 2.045326 -0.871707 -1.144775
vn 0.000000 0.000000 0.000000
v 1.493658 -0.234068 -1.220982
vn 0.000000 0.000000 0.000000
v 1.710457 -0.169666 -1.230509
vn 0.000000 0.000000 0.000000
v 1.482468 -0.065848 -1.202844
vn 0.000000 0.000000 0.000000
v 2.401875 -0.542015 -1.264832
vn 0.000000 0.000000 0.000000
v 1.832712 -0.198325 -1.184433
vn 0.000000 0.000000 0.000000
v 1.929678 -0.400195 -1.262706
vn 0.763033 0.617316 -0.191575
v 2.523857 -0.551627 -1.203154
vn 0.000000 0.000000 0.000000
v 1.548304 -0.306620 -1.128941
vn 0.000000 0.000000 0.000000
v 2.094265 -0.414817 -1.195340
vn -0.021943 -0.998928 -0.040772
v 1.854210 -0.876737 -1.237114
vn 0.132794 -0.985124 0.109067
v 2.167476 -0.865812 -1.223210
vn 0.045510 -0.998958 -0.003305
v 1.950644 -0.881066 -1.183094
vn 0.000000 0.000000 0.000000
v 1.489271 -0.043796 -1.138265
vn 0.000000 0.000000 0.000000
v 1.715299 -0.670411 -1.224253
vn 0.000000 0.000000 0.000000
v 1.568838 -0.415581 -1.247407
vn 0.592428 -0.708520 0.383442
v 2.473404 -0.739953 -1.171309
vn 0.000000 0.000000 0.000000
v 1.988994 -0.299333 -1.162421
vn 0.000000 0.000000 0.000000
v 2.285152 -0.508825 -1.247620
vn 0.000000 0.000000 0.000000
v 1.533926 -0.061770 -1.227321
vn 0.000000 0.000000 0.000000
v 1.664495 -0.093392 -1.209473
vn 0.926321 -0.190380 0.325093
v 2.578415 -0.631861 -1.244393
vn 0.000000 0.000000 0.000000
v 1.814410 -0.260637 -1.235510
vn 0.000000 0.000000 0.000000
v 1.543138 0.012920 -1.126103
vn 0.101839 -0.991089 0.085861
v 1.954509 -0.878712 -1.101225
vn 0.000000 0.000000 0.000000
v 1.827151 -0.779779 -1.086419
vn 0.000000 0.000000 0.000000
v 1.487851 -0.122464 -1.139626
vn 0.000000 0.000000 0.000000
v 2.099409 -0.347050 -1.139785
vn 0.000000 0.000000 0.000000
v 1.619370 0.019128 -1.145312
vn 0.000000 0.000000 0.000000
v 2.223147 -0.420475 -1.164690
vn 0.000000 0.000000 0.000000
v 2.363166 -0.424263 -1.147813
vn 0.546645 0.580283 -0.603698
v 2.452716 -0.471123 -1.161295
vn 0.000000 0.000000 0.000000
v 1.689144 -0.568459 -1.142548
vn 0.000000 0.000000 0.000000
v 1.633669 -0.474564 -1.137004
vn 0.000000 0.000000 0.000000
v 1.740198 0.082840 -1.055972
vn 0.778104 -0.424223 0.463237
v 2.517478 -0.673618 -1.149210
vn 0.913431 -0.007346 0.406927
v 2.535166 -0.540818 -1.123281
vn 0.846768 0.486803 -0.214491
v 2.508534 -0.472992 -1.112549
vn 0.000000 0.000000 0.000000
v 2.131200 -0.175701 -1.030655
vn 0.364440 -0.896158 0.253148
v 2.364153 -0.814694 -1.205672
vn 0.000000 0.000000 0.000000
v 1.677300 -0.014189 -1.155736
vn 0.000000 0.000000 0.000000
v 1.808999 -0.074775 -1.122774
vn 0.000000 0.000000 0.000000
v 1.963814 -0.202668 -1.119214
vn 0.755789 0.532628 -0.380907
v 2.455116 -0.404294 -1.094886
vn 0.136595 -0.981318 0.135488
v 2.081552 -0.863576 -1.094347
vn 0.231112 -0.959351 0.161964
v 2.171870 -0.845248 -1.075752
vn 0.000000 0.000000 0.000000
v 2.006016 -0.115219 -1.052814
vn 0.000000 0.000000 0.000000
v 1.946382 -0.048289 -1.040781
vn 0.817420 -0.233004 0.526814
v 2.496674 -0.593915 -1.069170
vn 0.123368 -0.986221 0.110218
v 1.986410 -0.857121 -0.980225
vn 0.000000 0.000000 0.000000
v 1.550267 0.043199 -1.039266
vn 0.000000 0.000000 0.000000
v 1.549901 -0.269052 -1.087916
vn 0.000000 0.000000 0.000000
v 1.577861 0.062619 -1.054566
vn 0.000000 0.000000 0.000000
v 1.884158 -0.780481 -0.982297
vn 0.000000 0.000000 0.000000
v 1.643183 0.082327 -1.059844
vn 0.000000 0.000000 0.000000
v 2.386580 -0.269717 -1.013760
vn 0.000000 0.000000 0.000000
v 2.361082 -0.347042 -1.081248
vn 0.000000 0.000000 0.000000
v 2.196426 -0.298435 -1.077556
vn 0.000000 0.000000 0.000000
v 2.109228 -0.239256 -1.070943
vn 0.000000 0.000000 0.000000
v 1.590044 -0.391034 -1.133214
vn 0.540594 -0.750835 0.379480
v 2.377964 -0.760471 -1.071682
vn 0.000000 0.000000 0.000000
v 1.586159 -0.349593 -1.081245
vn 0.000000 0.000000 0.000000
v 1.537241 -0.015966 -1.024077
vn 0.684452 -0.518290 0.512739
v 2.436260 -0.693922 -1.057165
vn 0.000000 0.000000 0.000000
v 1.846860 0.077173 -1.019783
vn 0.897701 0.400654 -0.183328
v 2.451031 -0.340566 -1.040223
vn 0.000000 0.000000 0.000000
v 1.887065 0.009218 -1.042565
vn 0.000000 0.000000 0.000000
v 1.717363 -0.535072 -1.029827
vn 0.000000 0.000000 0.000000
v 1.558800 -0.172431 -1.005717
vn 0.000000 0.000000 0.000000
v 1.791328 -0.671498 -1.054135
vn 0.442600 -0.852320 0.278667
v 2.231589 -0.798921 -0.955547
vn 0.000000 0.000000 0.000000
v 1.603406 0.092016 -0.988991
vn -0.316326 -0.947712 0.042184
v 1.877777 -0.852948 -1.097800
vn 0.869610 0.001546 0.493738
v 2.489645 -0.425447 -1.036650
vn 0.000000 0.000000 0.000000
v 2.186599 -0.219480 -1.030865
vn 0.000000 0.000000 0.000000
v 1.607155 -0.260372 -0.956598
vn 0.000000 0.000000 0.000000
v 2.291823 -0.185641 -0.978680
vn 0.000000 0.000000 0.000000
v 1.575286 0.063203 -0.968123
vn 0.000000 0.000000 0.000000
v 1.792334 -0.556021 -0.928303
vn 0.000000 0.000000 0.000000
v 1.705151 0.128864 -0.964786
vn 0.000000 0.000000 0.000000
v 1.637133 -0.222934 -0.895104
vn 0.000000 0.000000 0.000000
v 2.187103 -0.100566 -0.963140
vn 0.000000 0.000000 0.000000
v 1.979088 0.035511 -0.962292
vn 0.000000 0.000000 0.000000
v 2.389043 -0.229542 -0.959858
vn 0.000000 0.000000 0.000000
v 2.085112 -0.042749 -0.973035
vn 0.000000 0.000000 0.000000
v 1.815118 0.142537 -0.958849
vn 0.000000 0.000000 0.000000
v 1.608209 0.043480 -0.894444
vn 0.757792 -0.258414 0.599144
v 2.414292 -0.576075 -0.951651
vn 0.192568 -0.966641 0.168888
v 2.034024 -0.847580 -0.890220
vn 0.830727 -0.111083 0.545485
v 2.461289 -0.512739 -0.990551
vn 0.000000 0.000000 0.000000
v 2.120778 0.012551 -0.905554
vn 0.000000 0.000000 0.000000
v 1.586559 -0.126102 -0.939245
vn 0.000000 0.000000 0.000000
v 1.617114 -0.041585 -0.882916
vn 0.844482 0.398618 0.357707
v 2.275049 -0.111026 -0.876000
vn 0.000000 0.000000 0.000000
v 1.874670 0.176459 -0.891617
vn 0.812950 0.190718 0.550218
v 2.391684 -0.283628 -0.904994
vn 0.000000 0.000000 0.000000
v 1.870085 -0.689415 -0.941666
vn 0.000000 0.000000 0.000000
v 1.639831 -0.418566 -1.043932
vn 0.000000 0.000000 0.000000
v 1.893968 0.133272 -0.937848
vn 0.852842 0.135612 0.504251
v 2.442351 -0.305397 -0.980081
vn 0.225924 -0.958324 0.174851
v 2.106191 -0.838083 -0.918149
vn 0.000000 0.000000 0.000000
v 1.645550 -0.355139 -0.968277
vn 0.744541 0.429187 0.511328
v 2.353343 -0.201247 -0.907256
vn 0.000000 0.000000 0.000000
v 1.727384 0.132234 -0.875402
vn 0.306840 -0.903207 0.300110
v 2.134508 -0.811342 -0.840450
vn 0.000000 0.000000 0.000000
v 1.799136 0.158206 -0.886569
vn 0.652213 -0.656241 0.379429
v 2.247818 -0.742128 -0.852306
vn 0.822419 -0.140383 0.551289
v 2.369870 -0.504337 -0.871125
vn 0.635201 -0.622851 0.456702
v 2.324971 -0.728647 -0.954537
vn 0.833369 0.040972 0.551196
v 2.433838 -0.394182 -0.941805
vn 0.000000 0.000000 0.000000
v 2.196585 -0.026354 -0.894998
vn 0.000000 0.000000 0.000000
v 2.168668 0.032523 -0.846298
vn 0.755761 -0.376169 0.536025
v 2.365307 -0.633591 -0.918967
vn 0.000000 0.000000 0.000000
v 1.963393 -0.795067 -0.867131
vn 0.535349 -0.763608 0.360976
v 2.199720 -0.767469 -0.819200
vn 0.000000 0.000000 0.000000
v 1.892850 0.186637 -0.833582
vn 0.000000 0.000000 0.000000
v 1.851677 -0.588376 -0.874899
vn 0.714422 -0.564982 0.412792
v 2.246375 -0.716422 -0.808505
vn 0.000000 0.000000 0.000000
v 1.638761 0.097501 -0.897776
vn 0.827458 0.034665 0.560456
v 2.363292 -0.389703 -0.846873
vn 0.000000 0.000000 0.000000
v 1.948046 0.161350 -0.869384
vn 0.000000 0.000000 0.000000
v 1.976952 0.195499 -0.800759
vn 0.000000 0.000000 0.000000
v 1.664559 0.050655 -0.824103
vn 0.000000 0.000000 0.000000
v 2.009231 -0.820596 -0.833986
vn 0.000000 0.000000 0.000000
v 1.719910 0.087637 -0.808541
vn 0.590694 -0.616152 0.520997
v 2.184127 -0.707778 -0.704116
vn 0.000000 0.000000 0.000000
v 1.700150 -0.134783 -0.778827
vn 0.000000 0.000000 0.000000
v 1.817309 0.131248 -0.807540
vn 0.857496 0.262584 0.442437
v 2.302735 -0.262656 -0.782022
vn 0.868032 -0.057398 0.493179
v 2.340926 -0.443749 -0.811519
vn 0.893593 -0.016348 0.448579
v 2.314749 -0.436291 -0.765243
vn 0.930687 0.344196 0.123896
v 2.196122 0.021027 -0.787621
vn 0.000000 0.000000 0.000000
v 1.866230 -0.511760 -0.766142
vn 0.366461 -0.811479 0.455201
v 2.141930 -0.775183 -0.760218
vn 0.000000 0.000000 0.000000
v 1.979903 0.227985 -0.739846
vn 0.000000 0.000000 0.000000
v 2.027951 0.215627 -0.749044
vn 0.931007 0.364980 -0.004040
v 2.182346 0.065273 -0.725539
vn 0.000000 0.000000 0.000000
v 1.953557 -0.683494 -0.811895
vn 0.923740 0.309602 0.225501
v 2.234113 -0.095815 -0.745855
vn 0.852865 -0.261872 0.451712
v 2.295038 -0.565842 -0.762547
vn 0.000000 0.000000 0.000000
v 1.924334 0.179673 -0.771275
vn 0.000000 0.000000 0.000000
v 1.801409 -0.372624 -0.730270
vn 0.000000 0.000000 0.000000
v 1.818426 -0.455719 -0.775322
vn 0.000000 0.000000 0.000000
v 1.751278 -0.260543 -0.747955
vn 0.000000 0.000000 0.000000
v 1.804711 0.053628 -0.742469
vn 0.000000 0.000000 0.000000
v 1.725037 -0.006280 -0.744450
vn 0.000000 0.000000 0.000000
v 2.098116 0.116788 -0.797305
vn 0.000000 0.000000 0.000000
v 1.911432 0.090783 -0.745061
vn 0.000000 0.000000 0.000000
v 1.742556 -0.432600 -0.879299
vn 0.000000 0.000000 0.000000
v 1.969180 0.120883 -0.702524
vn 0.763622 -0.451017 0.462023
v 2.275096 -0.673811 -0.812692
vn 0.000000 0.000000 0.000000
v 2.010607 -0.760520 -0.771461
vn 0.195947 -0.890706 0.410179
v 2.067674 -0.798261 -0.770604
vn 0.000000 0.000000 0.000000
v 2.017776 0.237656 -0.703343
vn 0.000000 0.000000 0.000000
v 1.759660 -0.108312 -0.702895
vn 0.926613 0.064505 0.370443
v 2.278192 -0.376942 -0.683985
vn 0.000000 0.000000 0.000000
v 1.781696 0.010743 -0.708756
vn 0.000000 0.000000 0.000000
v 1.894636 -0.314566 -0.596885
vn 0.000000 0.000000 0.000000
v 2.003949 -0.694893 -0.746278
vn 0.000000 0.000000 0.000000
v 2.083257 0.210625 -0.704144
vn 0.000000 0.000000 0.000000
v 1.908758 0.028313 -0.721871
vn 0.000000 0.000000 0.000000
v 1.855202 -0.020458 -0.691530
vn 0.000000 0.000000 0.000000
v 2.009581 0.209110 -0.661458
vn 0.000000 0.000000 0.000000
v 1.986758 0.016412 -0.666000
vn 0.914562 -0.079689 0.396517
v 2.276390 -0.475795 -0.676998
vn 0.919112 0.124787 0.373713
v 2.269998 -0.294066 -0.689133
vn 0.000000 0.000000 0.000000
v 1.997877 -0.627916 -0.690024
vn 0.000000 0.000000 0.000000
v 1.823442 -0.172034 -0.651075
vn 0.967766 0.229951 0.102725
v 2.191348 0.011979 -0.648566
vn 0.000000 0.000000 0.000000
v 1.860551 -0.095095 -0.652742
vn 0.930237 0.366884 -0.007413
v 2.151663 0.133793 -0.691397
vn 0.000000 0.000000 0.000000
v 2.045254 -0.712364 -0.683624
vn 0.000000 0.000000 0.000000
v 1.779560 -0.037174 -0.691580
vn 0.000000 0.000000 0.000000
v 1.932213 -0.021138 -0.689749
vn 0.000000 0.000000 0.000000
v 1.928745 -0.543774 -0.704858
vn 0.000000 0.000000 0.000000
v 2.058447 0.250442 -0.649226
vn 0.987891 0.113943 0.105299
v 2.184615 0.021451 -0.587137
vn 0.000000 0.000000 0.000000
v 1.983998 -0.548076 -0.597560
vn 0.871246 -0.066070 0.486380
v 2.241267 -0.419170 -0.597466
vn 0.899092 0.436222 -0.036668
v 2.110418 0.224941 -0.618370
vn 0.928525 0.141757 0.343142
v 2.238146 -0.259179 -0.623789
vn 0.000000 0.000000 0.000000
v 1.880545 -0.425331 -0.654889
vn 0.906363 0.050825 0.419431
v 2.260140 -0.372309 -0.635832
vn 0.000000 0.000000 0.000000
v 1.810469 -0.070227 -0.669634
vn 0.000000 0.000000 0.000000
v 1.949452 -0.108754 -0.639047
vn 0.000000 0.000000 0.000000
v 2.093901 0.000490 -0.539450
vn 0.000000 0.000000 0.000000
v 1.913149 -0.387749 -0.577927
vn 0.000000 0.000000 0.000000
v 2.096126 -0.634389 -0.559312
vn 0.955857 0.157244 0.248219
v 2.176654 0.039523 -0.548414
vn 0.000000 0.000000 0.000000
v 1.902056 -0.195713 -0.606689
vn 0.000000 0.000000 0.000000
v 1.934412 -0.461975 -0.590165
vn 0.000000 0.000000 0.000000
v 2.079014 0.234198 -0.591093
vn 0.951075 0.137941 0.276458
v 2.197539 -0.143227 -0.533023
vn 0.838565 -0.230226 0.493765
v 2.257217 -0.518027 -0.647958
vn 0.398137 -0.707521 0.583868
v 2.100136 -0.708043 -0.641891
vn 0.000000 0.000000 0.000000
v 2.048542 -0.626324 -0.587566
vn 0.000000 0.000000 0.000000
v 1.993935 -0.244081 -0.565195
vn 0.000000 0.000000 0.000000
v 2.098787 -0.162860 -0.508143
vn 0.000000 0.000000 0.000000
v 2.078768 0.196819 -0.566532
vn 0.000000 0.000000 0.000000
v 2.035309 -0.135202 -0.580837
vn 0.000000 0.000000 0.000000
v 1.975885 -0.507629 -0.561284
vn 0.000000 0.000000 0.000000
v 2.122697 0.184884 -0.549602
vn 0.755288 -0.375287 0.537308
v 2.218771 -0.567899 -0.619258
vn 0.940386 0.150618 0.304941
v 2.173332 -0.026823 -0.521173
vn 0.000000 0.000000 0.000000
v 2.128757 0.074654 -0.506047
vn 0.955000 0.187994 0.229418
v 2.159275 0.077760 -0.507403
vn 0.907006 0.025871 0.420323
v 2.191779 -0.284659 -0.502725
vn 0.000000 0.000000 0.000000
v 2.135937 0.136959 -0.509142
vn 0.955098 0.292768 0.045539
v 2.160182 0.127928 -0.552288
vn 0.933729 0.161661 0.319399
v 2.177245 -0.111240 -0.489885
vn 0.000000 0.000000 0.000000
v 2.137721 -0.020292 -0.499064
vn 0.718554 0.233062 0.655257
v 2.145521 0.023963 -0.508739
vn 0.000000 0.000000 0.000000
v 1.981752 -0.445560 -0.531738
vn 0.000000 0.000000 0.000000
v 2.016679 -0.542761 -0.539294
vn 0.000000 0.000000 0.000000
v 2.076974 0.128969 -0.561367
vn 0.808532 -0.180707 0.560019
v 2.165233 -0.437104 -0.484474
vn 0.000000 0.000000 0.000000
v 2.070305 -0.257054 -0.511900
vn 0.661230 -0.450645 0.599745
v 2.138978 -0.585715 -0.537358
vn 0.000000 0.000000 0.000000
v 2.131234 -0.288378 -0.468792
vn 0.000000 0.000000 0.000000
v 2.075879 -0.555963 -0.512088
vn 0.904921 0.053588 0.422192
v 2.175266 -0.199134 -0.478187
vn 0.000000 0.000000 0.000000
v 2.035312 -0.344734 -0.509679
vn 0.000000 0.000000 0.000000
v 2.139932 -0.105193 -0.486240
vn 0.000000 0.000000 0.000000
v 2.168004 -0.328062 -0.464854
vn 0.000000 0.000000 0.000000
v 2.091539 -0.450892 -0.476873
# 327 vertices, 0 vertices normals

f 241//241 231//231 196//196
f 233//233 231//231 258//258
f 148//148 147//147 114//114
f 191//191 152//152 203//203
f 98//98 22//22 124//124
f 98//98 119//119 97//97
f 97//97 74//74 98//98
f 271//271 283//283 241//241
f 148//148 114//114 142//142
f 151//151 166//166 138//138
f 151//151 176//176 192//192
f 151//151 139//139 176//176
f 291//291 271//271 311//311
f 279//279 271//271 291//291
f 271//271 273//273 311//311
f 281//281 283//283 309//309
f 305//305 296//296 281//281
f 291//291 311//311 308//308
f 115//115 114//114 103//103
f 63//63 114//114 115//115
f 138//138 124//124 151//151
f 124//124 110//110 139//139
f 139//139 151//151 124//124
f 203//203 173//173 207//207
f 209//209 173//173 211//211
f 253//253 209//209 211//211
f 253//253 211//211 215//215
f 295//295 306//306 312//312
f 314//314 306//306 291//291
f 215//215 151//151 190//190
f 212//212 202//202 198//198
f 198//198 205//205 231//231
f 236//236 255//255 207//207
f 236//236 217//217 228//228
f 253//253 228//228 220//220
f 320//320 228//228 305//305
f 234//234 239//239 271//271
f 271//271 241//241 234//234
f 273//273 271//271 239//239
f 305//305 281//281 318//318
f 309//309 318//318 281//281
f 54//54 27//27 45//45
f 66//66 45//45 27//27
f 192//192 190//190 151//151
f 212//212 192//192 176//176
f 202//202 212//212 176//176
f 103//103 114//114 147//147
f 119//119 142//142 97//97
f 119//119 98//98 138//138
f 138//138 98//98 124//124
f 148//148 142//142 173//173
f 163//163 142//142 119//119
f 119//119 138//138 166//166
f 166//166 163//163 119//119
f 127//127 103//103 147//147
f 147//147 152//152 127//127
f 268//268 231//231 283//283
f 268//268 258//258 231//231
f 231//231 241//241 283//283
f 305//305 253//253 242//242
f 296//296 305//305 242//242
f 267//267 242//242 233//233
f 267//267 296//296 242//242
f 233//233 258//258 267//267
f 210//210 190//190 192//192
f 210//210 215//215 190//190
f 210//210 212//212 222//222
f 222//222 198//198 231//231
f 212//212 198//198 222//222
f 210//210 192//192 212//212
f 297//297 236//236 228//228
f 228//228 253//253 305//305
f 323//323 309//309 295//295
f 152//152 148//148 203//203
f 147//147 148//148 152//152
f 148//148 173//173 203//203
f 173//173 142//142 163//163
f 211//211 173//173 163//163
f 215//215 211//211 166//166
f 211//211 163//163 166//166
f 151//151 215//215 166//166
f 255//255 203//203 207//207
f 191//191 203//203 255//255
f 236//236 207//207 173//173
f 217//217 236//236 173//173
f 217//217 209//209 228//228
f 173//173 209//209 217//217
f 220//220 228//228 209//209
f 220//220 209//209 253//253
f 281//281 296//296 267//267
f 281//281 267//267 258//258
f 258//258 285//285 281//281
f 285//285 258//258 283//283
f 283//283 281//281 285//285
f 283//283 258//258 268//268
f 54//54 45//45 114//114
f 63//63 54//54 114//114
f 114//114 45//45 142//142
f 142//142 45//45 66//66
f 142//142 66//66 49//49
f 142//142 49//49 97//97
f 115//115 103//103 127//127
f 242//242 253//253 215//215
f 233//233 242//242 210//210
f 242//242 215//215 210//210
f 210//210 222//222 232//232
f 232//232 233//233 210//210
f 233//233 232//232 222//222
f 222//222 231//231 233//233
f 295//295 309//309 283//283
f 283//283 271//271 295//295
f 295//295 271//271 306//306
f 271//271 279//279 306//306
f 306//306 279//279 291//291
f 273//273 282//282 311//311
f 231//231 205//205 196//196
f 241//241 196//196 234//234
f 297//297 228//228 320//320
f 239//239 234//234 273//273
f 318//318 320//320 305//305
f 26//26 27//27 54//54
f 66//66 27//27 28//28
f 49//49 28//28 29//29
f 49//49 66//66 28//28
f 29//29 22//22 49//49
f 27//27 26//26 36//36
f 36//36 40//40 27//27
f 36//36 18//18 20//20
f 20//20 40//40 36//36
f 40//40 28//28 27//27
f 20//20 21//21 40//40
f 28//28 40//40 30//30
f 30//30 29//29 28//28
f 30//30 40//40 21//21
f 29//29 30//30 14//14
f 29//29 14//14 22//22
f 255//255 236//236 297//297
f 49//49 22//22 98//98
f 14//14 30//30 21//21
f 97//97 49//49 74//74
f 74//74 49//49 98//98
f 61//61 63//63 113//113
f 63//63 61//61 56//56
f 56//56 51//51 63//63
f 9//9 8//8 1//1
f 10//10 8//8 9//9
f 113//113 63//63 115//115
f 1//1 8//8 11//11
f 44//44 11//11 8//8
f 8//8 35//35 44//44
f 35//35 8//8 10//10
f 44//44 52//52 11//11
f 35//35 56//56 44//44
f 35//35 32//32 56//56
f 51//51 56//56 32//32
f 231//231 205//205 196//196
f 241//241 196//196 234//234
f 52//52 44//44 61//61
f 61//61 44//44 56//56
f 38//38 32//32 35//35
f 38//38 35//35 10//10
f 51//51 32//32 26//26
f 54//54 51//51 26//26
f 36//36 26//26 32//32
f 18//18 36//36 38//38
f 36//36 32//32 38//38
f 54//54 63//63 51//51
# 167 faces, 0 coords texture

# End of File
