# Blender 3.6.1
# www.blender.org
o cone_subdivide.002
v 0.000000 1.000000 -0.000000
v 0.500000 0.000000 0.000000
v 0.475528 0.000000 0.154508
v 0.404508 0.000000 0.293893
v 0.293893 0.000000 0.404508
v 0.154508 0.000000 0.475528
v 0.000000 0.000000 0.500000
v -0.154508 0.000000 0.475528
v -0.293893 0.000000 0.404508
v -0.404508 0.000000 0.293893
v -0.475528 0.000000 0.154508
v -0.500000 0.000000 0.000000
v -0.475528 -0.000000 -0.154508
v -0.404508 -0.000000 -0.293893
v -0.293893 -0.000000 -0.404508
v -0.154508 -0.000000 -0.475528
v 0.000000 -0.000000 -0.500000
v 0.154508 -0.000000 -0.475528
v 0.293893 -0.000000 -0.404508
v 0.404508 -0.000000 -0.293893
v 0.475528 -0.000000 -0.154508
v 0.250000 0.500000 -0.000000
v 0.487764 0.000000 0.077254
v 0.237764 0.500000 0.077254
v 0.440018 0.000000 0.224201
v 0.202254 0.500000 0.146946
v 0.349200 0.000000 0.349200
v 0.146947 0.500000 0.202254
v 0.224201 0.000000 0.440018
v 0.077254 0.500000 0.237764
v 0.077254 0.000000 0.487764
v 0.000000 0.500000 0.250000
v -0.077254 0.000000 0.487764
v -0.077254 0.500000 0.237764
v -0.224201 0.000000 0.440018
v -0.146947 0.500000 0.202254
v -0.349200 0.000000 0.349200
v -0.202254 0.500000 0.146946
v -0.440018 0.000000 0.224201
v -0.237764 0.500000 0.077254
v -0.487764 0.000000 0.077254
v -0.250000 0.500000 -0.000000
v -0.487764 -0.000000 -0.077254
v -0.237764 0.500000 -0.077254
v -0.440018 -0.000000 -0.224201
v -0.202254 0.500000 -0.146947
v -0.349200 -0.000000 -0.349200
v -0.146947 0.500000 -0.202254
v -0.224201 -0.000000 -0.440018
v -0.077254 0.500000 -0.237764
v -0.077254 -0.000000 -0.487764
v 0.000000 0.500000 -0.250000
v 0.077254 -0.000000 -0.487764
v 0.077254 0.500000 -0.237764
v 0.224201 -0.000000 -0.440018
v 0.146947 0.500000 -0.202254
v 0.349200 -0.000000 -0.349200
v 0.202254 0.500000 -0.146947
v 0.440018 -0.000000 -0.224201
v 0.237764 0.500000 -0.077254
v 0.487764 -0.000000 -0.077254
v 0.375000 0.250000 -0.000000
v 0.493882 0.000000 0.038627
v 0.368882 0.250000 0.038627
v 0.362764 0.250000 0.077254
v 0.481646 0.000000 0.115881
v 0.356646 0.250000 0.115881
v 0.243882 0.500000 0.038627
v 0.118882 0.750000 0.038627
v 0.125000 0.750000 -0.000000
v 0.457773 0.000000 0.189354
v 0.338891 0.250000 0.150727
v 0.321136 0.250000 0.185573
v 0.422263 0.000000 0.259047
v 0.303381 0.250000 0.220420
v 0.220009 0.500000 0.112100
v 0.101127 0.750000 0.073473
v 0.376854 0.000000 0.321547
v 0.275727 0.250000 0.248073
v 0.248073 0.250000 0.275727
v 0.321547 0.000000 0.376854
v 0.220420 0.250000 0.303381
v 0.174600 0.500000 0.174600
v 0.073473 0.750000 0.101127
v 0.259047 0.000000 0.422263
v 0.185574 0.250000 0.321136
v 0.150727 0.250000 0.338891
v 0.189354 0.000000 0.457773
v 0.115881 0.250000 0.356646
v 0.112100 0.500000 0.220009
v 0.038627 0.750000 0.118882
v 0.115881 0.000000 0.481646
v 0.077254 0.250000 0.362764
v 0.038627 0.250000 0.368882
v 0.038627 0.000000 0.493882
v 0.000000 0.250000 0.375000
v 0.038627 0.500000 0.243882
v 0.000000 0.750000 0.125000
v -0.038627 0.000000 0.493882
v -0.038627 0.250000 0.368882
v -0.077254 0.250000 0.362764
v -0.115881 0.000000 0.481646
v -0.115881 0.250000 0.356646
v -0.038627 0.500000 0.243882
v -0.038627 0.750000 0.118882
v -0.189354 0.000000 0.457773
v -0.150727 0.250000 0.338891
v -0.185574 0.250000 0.321136
v -0.259047 0.000000 0.422263
v -0.220420 0.250000 0.303381
v -0.112100 0.500000 0.220009
v -0.073473 0.750000 0.101127
v -0.321547 0.000000 0.376854
v -0.248073 0.250000 0.275727
v -0.275727 0.250000 0.248073
v -0.376854 0.000000 0.321547
v -0.303381 0.250000 0.220420
v -0.174600 0.500000 0.174600
v -0.101127 0.750000 0.073473
v -0.422263 0.000000 0.259047
v -0.321136 0.250000 0.185573
v -0.338891 0.250000 0.150727
v -0.457773 0.000000 0.189354
v -0.356646 0.250000 0.115881
v -0.220009 0.500000 0.112100
v -0.118882 0.750000 0.038627
v -0.481646 0.000000 0.115881
v -0.362764 0.250000 0.077254
v -0.368882 0.250000 0.038627
v -0.493882 0.000000 0.038627
v -0.375000 0.250000 -0.000000
v -0.243882 0.500000 0.038627
v -0.125000 0.750000 -0.000000
v -0.493882 -0.000000 -0.038627
v -0.368882 0.250000 -0.038627
v -0.362764 0.250000 -0.077254
v -0.481646 -0.000000 -0.115881
v -0.356646 0.250000 -0.115881
v -0.243882 0.500000 -0.038627
v -0.118882 0.750000 -0.038627
v -0.457773 -0.000000 -0.189354
v -0.338891 0.250000 -0.150727
v -0.321136 0.250000 -0.185574
v -0.422263 -0.000000 -0.259047
v -0.303381 0.250000 -0.220420
v -0.220009 0.500000 -0.112100
v -0.101127 0.750000 -0.073473
v -0.376854 -0.000000 -0.321547
v -0.275727 0.250000 -0.248074
v -0.248073 0.250000 -0.275727
v -0.321547 -0.000000 -0.376854
v -0.220420 0.250000 -0.303381
v -0.174600 0.500000 -0.174600
v -0.073473 0.750000 -0.101127
v -0.259047 -0.000000 -0.422263
v -0.185574 0.250000 -0.321136
v -0.150727 0.250000 -0.338891
v -0.189354 -0.000000 -0.457773
v -0.115881 0.250000 -0.356646
v -0.112100 0.500000 -0.220009
v -0.038627 0.750000 -0.118882
v -0.115881 -0.000000 -0.481646
v -0.077254 0.250000 -0.362764
v -0.038627 0.250000 -0.368882
v -0.038627 -0.000000 -0.493882
v 0.000000 0.250000 -0.375000
v -0.038627 0.500000 -0.243882
v 0.000000 0.750000 -0.125000
v 0.038627 -0.000000 -0.493882
v 0.038627 0.250000 -0.368882
v 0.077254 0.250000 -0.362764
v 0.115881 -0.000000 -0.481646
v 0.115881 0.250000 -0.356646
v 0.038627 0.500000 -0.243882
v 0.038627 0.750000 -0.118882
v 0.189354 -0.000000 -0.457773
v 0.150727 0.250000 -0.338891
v 0.185574 0.250000 -0.321136
v 0.259047 -0.000000 -0.422263
v 0.220420 0.250000 -0.303381
v 0.112100 0.500000 -0.220009
v 0.073473 0.750000 -0.101127
v 0.321547 -0.000000 -0.376854
v 0.248073 0.250000 -0.275727
v 0.275727 0.250000 -0.248074
v 0.376854 -0.000000 -0.321547
v 0.303381 0.250000 -0.220420
v 0.174600 0.500000 -0.174600
v 0.101127 0.750000 -0.073473
v 0.422263 -0.000000 -0.259047
v 0.321136 0.250000 -0.185574
v 0.338891 0.250000 -0.150727
v 0.457773 -0.000000 -0.189354
v 0.356646 0.250000 -0.115881
v 0.220009 0.500000 -0.112100
v 0.118882 0.750000 -0.038627
v 0.481646 -0.000000 -0.115881
v 0.362764 0.250000 -0.077254
v 0.368882 0.250000 -0.038627
v 0.493882 -0.000000 -0.038627
v 0.243882 0.500000 -0.038627
vn -0.8856 -0.4428 -0.1403
vn -0.7989 -0.4428 -0.4071
vn -0.6340 -0.4428 -0.6340
vn -0.4071 -0.4428 -0.7989
vn -0.1403 -0.4428 -0.8856
vn 0.1403 -0.4428 -0.8856
vn 0.4071 -0.4428 -0.7989
vn 0.6340 -0.4428 -0.6340
vn 0.7989 -0.4428 -0.4071
vn 0.8856 -0.4428 -0.1403
vn 0.8856 -0.4428 0.1403
vn 0.7989 -0.4428 0.4071
vn 0.6340 -0.4428 0.6340
vn 0.4071 -0.4428 0.7989
vn 0.1403 -0.4428 0.8856
vn -0.1403 -0.4428 0.8856
vn -0.4071 -0.4428 0.7989
vn -0.6340 -0.4428 0.6340
vn -0.7989 -0.4428 0.4071
vn -0.8856 -0.4428 0.1403
s 0
f 2//1 63//1 62//1
f 63//1 23//1 64//1
f 64//1 22//1 62//1
f 63//1 64//1 62//1
f 23//1 66//1 65//1
f 66//1 3//1 67//1
f 67//1 24//1 65//1
f 66//1 67//1 65//1
f 24//1 69//1 68//1
f 69//1 1//1 70//1
f 70//1 22//1 68//1
f 69//1 70//1 68//1
f 23//1 65//1 64//1
f 65//1 24//1 68//1
f 68//1 22//1 64//1
f 65//1 68//1 64//1
f 3//2 71//2 67//2
f 71//2 25//2 72//2
f 72//2 24//2 67//2
f 71//2 72//2 67//2
f 25//2 74//2 73//2
f 74//2 4//2 75//2
f 75//2 26//2 73//2
f 74//2 75//2 73//2
f 26//2 77//2 76//2
f 77//2 1//2 69//2
f 69//2 24//2 76//2
f 77//2 69//2 76//2
f 25//2 73//2 72//2
f 73//2 26//2 76//2
f 76//2 24//2 72//2
f 73//2 76//2 72//2
f 4//3 78//3 75//3
f 78//3 27//3 79//3
f 79//3 26//3 75//3
f 78//3 79//3 75//3
f 27//3 81//3 80//3
f 81//3 5//3 82//3
f 82//3 28//3 80//3
f 81//3 82//3 80//3
f 28//3 84//3 83//3
f 84//3 1//3 77//3
f 77//3 26//3 83//3
f 84//3 77//3 83//3
f 27//3 80//3 79//3
f 80//3 28//3 83//3
f 83//3 26//3 79//3
f 80//3 83//3 79//3
f 5//4 85//4 82//4
f 85//4 29//4 86//4
f 86//4 28//4 82//4
f 85//4 86//4 82//4
f 29//4 88//4 87//4
f 88//4 6//4 89//4
f 89//4 30//4 87//4
f 88//4 89//4 87//4
f 30//4 91//4 90//4
f 91//4 1//4 84//4
f 84//4 28//4 90//4
f 91//4 84//4 90//4
f 29//4 87//4 86//4
f 87//4 30//4 90//4
f 90//4 28//4 86//4
f 87//4 90//4 86//4
f 6//5 92//5 89//5
f 92//5 31//5 93//5
f 93//5 30//5 89//5
f 92//5 93//5 89//5
f 31//5 95//5 94//5
f 95//5 7//5 96//5
f 96//5 32//5 94//5
f 95//5 96//5 94//5
f 32//5 98//5 97//5
f 98//5 1//5 91//5
f 91//5 30//5 97//5
f 98//5 91//5 97//5
f 31//5 94//5 93//5
f 94//5 32//5 97//5
f 97//5 30//5 93//5
f 94//5 97//5 93//5
f 7//6 99//6 96//6
f 99//6 33//6 100//6
f 100//6 32//6 96//6
f 99//6 100//6 96//6
f 33//6 102//6 101//6
f 102//6 8//6 103//6
f 103//6 34//6 101//6
f 102//6 103//6 101//6
f 34//6 105//6 104//6
f 105//6 1//6 98//6
f 98//6 32//6 104//6
f 105//6 98//6 104//6
f 33//6 101//6 100//6
f 101//6 34//6 104//6
f 104//6 32//6 100//6
f 101//6 104//6 100//6
f 8//7 106//7 103//7
f 106//7 35//7 107//7
f 107//7 34//7 103//7
f 106//7 107//7 103//7
f 35//7 109//7 108//7
f 109//7 9//7 110//7
f 110//7 36//7 108//7
f 109//7 110//7 108//7
f 36//7 112//7 111//7
f 112//7 1//7 105//7
f 105//7 34//7 111//7
f 112//7 105//7 111//7
f 35//7 108//7 107//7
f 108//7 36//7 111//7
f 111//7 34//7 107//7
f 108//7 111//7 107//7
f 9//8 113//8 110//8
f 113//8 37//8 114//8
f 114//8 36//8 110//8
f 113//8 114//8 110//8
f 37//8 116//8 115//8
f 116//8 10//8 117//8
f 117//8 38//8 115//8
f 116//8 117//8 115//8
f 38//8 119//8 118//8
f 119//8 1//8 112//8
f 112//8 36//8 118//8
f 119//8 112//8 118//8
f 37//8 115//8 114//8
f 115//8 38//8 118//8
f 118//8 36//8 114//8
f 115//8 118//8 114//8
f 10//9 120//9 117//9
f 120//9 39//9 121//9
f 121//9 38//9 117//9
f 120//9 121//9 117//9
f 39//9 123//9 122//9
f 123//9 11//9 124//9
f 124//9 40//9 122//9
f 123//9 124//9 122//9
f 40//9 126//9 125//9
f 126//9 1//9 119//9
f 119//9 38//9 125//9
f 126//9 119//9 125//9
f 39//9 122//9 121//9
f 122//9 40//9 125//9
f 125//9 38//9 121//9
f 122//9 125//9 121//9
f 11//10 127//10 124//10
f 127//10 41//10 128//10
f 128//10 40//10 124//10
f 127//10 128//10 124//10
f 41//10 130//10 129//10
f 130//10 12//10 131//10
f 131//10 42//10 129//10
f 130//10 131//10 129//10
f 42//10 133//10 132//10
f 133//10 1//10 126//10
f 126//10 40//10 132//10
f 133//10 126//10 132//10
f 41//10 129//10 128//10
f 129//10 42//10 132//10
f 132//10 40//10 128//10
f 129//10 132//10 128//10
f 12//11 134//11 131//11
f 134//11 43//11 135//11
f 135//11 42//11 131//11
f 134//11 135//11 131//11
f 43//11 137//11 136//11
f 137//11 13//11 138//11
f 138//11 44//11 136//11
f 137//11 138//11 136//11
f 44//11 140//11 139//11
f 140//11 1//11 133//11
f 133//11 42//11 139//11
f 140//11 133//11 139//11
f 43//11 136//11 135//11
f 136//11 44//11 139//11
f 139//11 42//11 135//11
f 136//11 139//11 135//11
f 13//12 141//12 138//12
f 141//12 45//12 142//12
f 142//12 44//12 138//12
f 141//12 142//12 138//12
f 45//12 144//12 143//12
f 144//12 14//12 145//12
f 145//12 46//12 143//12
f 144//12 145//12 143//12
f 46//12 147//12 146//12
f 147//12 1//12 140//12
f 140//12 44//12 146//12
f 147//12 140//12 146//12
f 45//12 143//12 142//12
f 143//12 46//12 146//12
f 146//12 44//12 142//12
f 143//12 146//12 142//12
f 14//13 148//13 145//13
f 148//13 47//13 149//13
f 149//13 46//13 145//13
f 148//13 149//13 145//13
f 47//13 151//13 150//13
f 151//13 15//13 152//13
f 152//13 48//13 150//13
f 151//13 152//13 150//13
f 48//13 154//13 153//13
f 154//13 1//13 147//13
f 147//13 46//13 153//13
f 154//13 147//13 153//13
f 47//13 150//13 149//13
f 150//13 48//13 153//13
f 153//13 46//13 149//13
f 150//13 153//13 149//13
f 15//14 155//14 152//14
f 155//14 49//14 156//14
f 156//14 48//14 152//14
f 155//14 156//14 152//14
f 49//14 158//14 157//14
f 158//14 16//14 159//14
f 159//14 50//14 157//14
f 158//14 159//14 157//14
f 50//14 161//14 160//14
f 161//14 1//14 154//14
f 154//14 48//14 160//14
f 161//14 154//14 160//14
f 49//14 157//14 156//14
f 157//14 50//14 160//14
f 160//14 48//14 156//14
f 157//14 160//14 156//14
f 16//15 162//15 159//15
f 162//15 51//15 163//15
f 163//15 50//15 159//15
f 162//15 163//15 159//15
f 51//15 165//15 164//15
f 165//15 17//15 166//15
f 166//15 52//15 164//15
f 165//15 166//15 164//15
f 52//15 168//15 167//15
f 168//15 1//15 161//15
f 161//15 50//15 167//15
f 168//15 161//15 167//15
f 51//15 164//15 163//15
f 164//15 52//15 167//15
f 167//15 50//15 163//15
f 164//15 167//15 163//15
f 17//16 169//16 166//16
f 169//16 53//16 170//16
f 170//16 52//16 166//16
f 169//16 170//16 166//16
f 53//16 172//16 171//16
f 172//16 18//16 173//16
f 173//16 54//16 171//16
f 172//16 173//16 171//16
f 54//16 175//16 174//16
f 175//16 1//16 168//16
f 168//16 52//16 174//16
f 175//16 168//16 174//16
f 53//16 171//16 170//16
f 171//16 54//16 174//16
f 174//16 52//16 170//16
f 171//16 174//16 170//16
f 18//17 176//17 173//17
f 176//17 55//17 177//17
f 177//17 54//17 173//17
f 176//17 177//17 173//17
f 55//17 179//17 178//17
f 179//17 19//17 180//17
f 180//17 56//17 178//17
f 179//17 180//17 178//17
f 56//17 182//17 181//17
f 182//17 1//17 175//17
f 175//17 54//17 181//17
f 182//17 175//17 181//17
f 55//17 178//17 177//17
f 178//17 56//17 181//17
f 181//17 54//17 177//17
f 178//17 181//17 177//17
f 19//18 183//18 180//18
f 183//18 57//18 184//18
f 184//18 56//18 180//18
f 183//18 184//18 180//18
f 57//18 186//18 185//18
f 186//18 20//18 187//18
f 187//18 58//18 185//18
f 186//18 187//18 185//18
f 58//18 189//18 188//18
f 189//18 1//18 182//18
f 182//18 56//18 188//18
f 189//18 182//18 188//18
f 57//18 185//18 184//18
f 185//18 58//18 188//18
f 188//18 56//18 184//18
f 185//18 188//18 184//18
f 20//19 190//19 187//19
f 190//19 59//19 191//19
f 191//19 58//19 187//19
f 190//19 191//19 187//19
f 59//19 193//19 192//19
f 193//19 21//19 194//19
f 194//19 60//19 192//19
f 193//19 194//19 192//19
f 60//19 196//19 195//19
f 196//19 1//19 189//19
f 189//19 58//19 195//19
f 196//19 189//19 195//19
f 59//19 192//19 191//19
f 192//19 60//19 195//19
f 195//19 58//19 191//19
f 192//19 195//19 191//19
f 21//20 197//20 194//20
f 197//20 61//20 198//20
f 198//20 60//20 194//20
f 197//20 198//20 194//20
f 61//20 200//20 199//20
f 200//20 2//20 62//20
f 62//20 22//20 199//20
f 200//20 62//20 199//20
f 22//20 70//20 201//20
f 70//20 1//20 196//20
f 196//20 60//20 201//20
f 70//20 196//20 201//20
f 61//20 199//20 198//20
f 199//20 22//20 201//20
f 201//20 60//20 198//20
f 199//20 201//20 198//20
