####
#
# OBJ File Generated by Meshlab
#
####
# Object boxtorus.obj
#
# Vertices: 32
# Faces: 64
#
####
vn -0.577350 -0.577350 -0.577350
v 0.000000 0.000000 0.000000
vn 0.000000 -0.707107 -0.707107
v 1.000000 0.000000 0.000000
vn 0.000000 -0.707107 -0.707107
v 2.000000 0.000000 0.000000
vn 0.577350 -0.577350 -0.577350
v 3.000000 0.000000 0.000000
vn -0.707107 0.000000 -0.707107
v 0.000000 1.000000 0.000000
vn 0.301511 0.301511 -0.904534
v 1.000000 1.000000 0.000000
vn -0.301511 0.301511 -0.904534
v 2.000000 1.000000 0.000000
vn 0.707107 0.000000 -0.707107
v 3.000000 1.000000 0.000000
vn -0.707107 0.000000 -0.707107
v 0.000000 2.000000 0.000000
vn 0.301511 -0.301511 -0.904534
v 1.000000 2.000000 0.000000
vn -0.301511 -0.301511 -0.904534
v 2.000000 2.000000 0.000000
vn 0.707107 0.000000 -0.707107
v 3.000000 2.000000 0.000000
vn -0.577350 0.577350 -0.577350
v 0.000000 3.000000 0.000000
vn 0.000000 0.707107 -0.707107
v 1.000000 3.000000 0.000000
vn 0.000000 0.707107 -0.707107
v 2.000000 3.000000 0.000000
vn 0.577350 0.577350 -0.577350
v 3.000000 3.000000 0.000000
vn -0.577350 -0.577350 0.577350
v 0.000000 0.000000 1.000000
vn 0.000000 -0.707107 0.707107
v 1.000000 0.000000 1.000000
vn 0.000000 -0.707107 0.707107
v 2.000000 0.000000 1.000000
vn 0.577350 -0.577350 0.577350
v 3.000000 0.000000 1.000000
vn -0.707107 0.000000 0.707107
v 0.000000 1.000000 1.000000
vn 0.301511 0.301511 0.904534
v 1.000000 1.000000 1.000000
vn -0.301511 0.301511 0.904534
v 2.000000 1.000000 1.000000
vn 0.707107 0.000000 0.707107
v 3.000000 1.000000 1.000000
vn -0.707107 0.000000 0.707107
v 0.000000 2.000000 1.000000
vn 0.301511 -0.301511 0.904534
v 1.000000 2.000000 1.000000
vn -0.301511 -0.301511 0.904534
v 2.000000 2.000000 1.000000
vn 0.707107 0.000000 0.707107
v 3.000000 2.000000 1.000000
vn -0.577350 0.577350 0.577350
v 0.000000 3.000000 1.000000
vn 0.000000 0.707107 0.707107
v 1.000000 3.000000 1.000000
vn 0.000000 0.707107 0.707107
v 2.000000 3.000000 1.000000
vn 0.577350 0.577350 0.577350
v 3.000000 3.000000 1.000000
# 32 vertices, 0 vertices normals

f 5//5 6//6 2//2
f 5//5 2//2 1//1
f 6//6 7//7 3//3
f 6//6 3//3 2//2
f 7//7 8//8 4//4
f 7//7 4//4 3//3
f 9//9 10//10 6//6
f 9//9 6//6 5//5
f 11//11 12//12 8//8
f 11//11 8//8 7//7
f 13//13 14//14 10//10
f 13//13 10//10 9//9
f 14//14 15//15 11//11
f 14//14 11//11 10//10
f 15//15 16//16 12//12
f 15//15 12//12 11//11
f 22//22 21//21 17//17
f 22//22 17//17 18//18
f 23//23 22//22 18//18
f 23//23 18//18 19//19
f 24//24 23//23 19//19
f 24//24 19//19 20//20
f 26//26 25//25 21//21
f 26//26 21//21 22//22
f 28//28 27//27 23//23
f 28//28 23//23 24//24
f 30//30 29//29 25//25
f 30//30 25//25 26//26
f 31//31 30//30 26//26
f 31//31 26//26 27//27
f 32//32 31//31 27//27
f 32//32 27//27 28//28
f 2//2 18//18 17//17
f 2//2 17//17 1//1
f 3//3 19//19 18//18
f 3//3 18//18 2//2
f 4//4 20//20 19//19
f 4//4 19//19 3//3
f 8//8 24//24 20//20
f 8//8 20//20 4//4
f 12//12 28//28 24//24
f 12//12 24//24 8//8
f 16//16 32//32 28//28
f 16//16 28//28 12//12
f 15//15 31//31 32//32
f 15//15 32//32 16//16
f 14//14 30//30 31//31
f 14//14 31//31 15//15
f 13//13 29//29 30//30
f 13//13 30//30 14//14
f 9//9 25//25 29//29
f 9//9 29//29 13//13
f 5//5 21//21 25//25
f 5//5 25//25 9//9
f 1//1 17//17 21//21
f 1//1 21//21 5//5
f 11//11 27//27 26//26
f 11//11 26//26 10//10
f 7//7 23//23 27//27
f 7//7 27//27 11//11
f 6//6 22//22 23//23
f 6//6 23//23 7//7
f 10//10 26//26 22//22
f 10//10 22//22 6//6
# 64 faces, 0 coords texture

# End of File
