####
#
# OBJ File Generated by Meshlab
#
####
# Object icosahedron.obj
#
# Vertices: 12
# Faces: 20
#
####
vn 0.000000 0.000000 1.000000
v 0.000000 0.000000 2.000000
vn 0.894427 0.000000 0.447214
v 1.788854 0.000000 0.894427
vn 0.276393 0.850651 0.447214
v 0.552786 1.701302 0.894427
vn -0.723607 0.525731 0.447214
v -1.447214 1.051462 0.894427
vn -0.723607 -0.525731 0.447213
v -1.447214 -1.051462 0.894427
vn 0.276393 -0.850651 0.447214
v 0.552786 -1.701302 0.894427
vn 0.723607 0.525731 -0.447214
v 1.447214 1.051462 -0.894427
vn -0.276393 0.850651 -0.447214
v -0.552786 1.701302 -0.894427
vn -0.894427 0.000000 -0.447214
v -1.788854 0.000000 -0.894427
vn -0.276393 -0.850651 -0.447214
v -0.552786 -1.701302 -0.894427
vn 0.723607 -0.525731 -0.447214
v 1.447214 -1.051462 -0.894427
vn -0.000000 0.000000 -1.000000
v 0.000000 0.000000 -2.000000
# 12 vertices, 0 vertices normals

f 3//3 1//1 2//2
f 4//4 1//1 3//3
f 5//5 1//1 4//4
f 6//6 1//1 5//5
f 2//2 1//1 6//6
f 3//3 2//2 7//7
f 8//8 3//3 7//7
f 4//4 3//3 8//8
f 9//9 4//4 8//8
f 5//5 4//4 9//9
f 10//10 5//5 9//9
f 6//6 5//5 10//10
f 11//11 6//6 10//10
f 7//7 2//2 11//11
f 2//2 6//6 11//11
f 7//7 12//12 8//8
f 8//8 12//12 9//9
f 9//9 12//12 10//10
f 10//10 12//12 11//11
f 11//11 12//12 7//7
# 20 faces, 0 coords texture

# End of File
