####
#
# OBJ File Generated by Meshlab
#
####
# Object octtorus.obj
#
# Vertices: 32
# Faces: 32
#
####
vn -3.738812 -1.617492 0.060110
v 1.500000 0.700000 0.000000
vn 3.199648 1.078328 0.707107
v 2.500000 0.900000 0.000000
vn -1.617492 -3.738812 -0.060110
v 0.700000 1.500000 0.000000
vn 2.156656 4.277976 -0.707107
v 0.900000 2.500000 0.000000
vn 3.738812 -1.617492 -0.060110
v -1.500000 0.700000 0.000000
vn -4.277976 2.156656 -0.707107
v -2.500000 0.900000 0.000000
vn 1.617492 -3.738812 0.060110
v -0.700000 1.500000 0.000000
vn -1.078328 3.199648 0.707107
v -0.900000 2.500000 0.000000
vn -3.738812 1.617492 -0.060110
v 1.500000 -0.700000 0.000000
vn 4.277976 -2.156656 -0.707107
v 2.500000 -0.900000 0.000000
vn -1.617492 3.738812 0.060110
v 0.700000 -1.500000 0.000000
vn 1.078328 -3.199648 0.707107
v 0.900000 -2.500000 0.000000
vn 3.738812 1.617492 0.060110
v -1.500000 -0.700000 0.000000
vn -3.199648 -1.078328 0.707107
v -2.500000 -0.900000 0.000000
vn 1.617492 3.738812 -0.060110
v -0.700000 -1.500000 0.000000
vn -2.156656 -4.277976 -0.707107
v -0.900000 -2.500000 0.000000
vn -0.000000 0.000000 4.002200
v 2.000000 0.800000 0.500000
vn 0.000000 0.000000 4.122421
v 0.800000 2.000000 0.500000
vn 0.000000 0.000000 4.122421
v -2.000000 0.800000 0.500000
vn 0.000000 0.000000 4.002200
v -0.800000 2.000000 0.500000
vn 0.000000 0.000000 4.122421
v 2.000000 -0.800000 0.500000
vn 0.000000 0.000000 4.002200
v 0.800000 -2.000000 0.500000
vn 0.000000 0.000000 4.002200
v -2.000000 -0.800000 0.500000
vn 0.000000 0.000000 4.122421
v -0.800000 -2.000000 0.500000
vn 0.539164 0.539164 -4.769417
v 2.000000 0.800000 -0.500000
vn -0.539164 -0.539164 -3.355204
v 0.800000 2.000000 -0.500000
vn 0.539164 -0.539164 -3.355204
v -2.000000 0.800000 -0.500000
vn -0.539164 0.539164 -4.769417
v -0.800000 2.000000 -0.500000
vn -0.539164 0.539164 -3.355204
v 2.000000 -0.800000 -0.500000
vn 0.539164 -0.539164 -4.769417
v 0.800000 -2.000000 -0.500000
vn -0.539164 -0.539164 -4.769417
v -2.000000 -0.800000 -0.500000
vn 0.539164 0.539164 -3.355204
v -0.800000 -2.000000 -0.500000
# 32 vertices, 0 vertices normals

f 18//18 3//3 1//1 17//17
f 20//20 7//7 3//3 18//18
f 19//19 5//5 7//7 20//20
f 23//23 13//13 5//5 19//19
f 24//24 15//15 13//13 23//23
f 22//22 11//11 15//15 24//24
f 21//21 9//9 11//11 22//22
f 17//17 1//1 9//9 21//21
f 17//17 21//21 10//10 2//2
f 21//21 22//22 12//12 10//10
f 22//22 24//24 16//16 12//12
f 24//24 23//23 14//14 16//16
f 23//23 19//19 6//6 14//14
f 19//19 20//20 8//8 6//6
f 20//20 18//18 4//4 8//8
f 18//18 17//17 2//2 4//4
f 29//29 9//9 1//1 25//25
f 30//30 11//11 9//9 29//29
f 32//32 15//15 11//11 30//30
f 31//31 13//13 15//15 32//32
f 27//27 5//5 13//13 31//31
f 28//28 7//7 5//5 27//27
f 26//26 3//3 7//7 28//28
f 25//25 1//1 3//3 26//26
f 2//2 10//10 29//29 25//25
f 12//12 30//30 29//29 10//10
f 12//12 16//16 32//32 30//30
f 14//14 31//31 32//32 16//16
f 14//14 6//6 27//27 31//31
f 8//8 28//28 27//27 6//6
f 8//8 4//4 26//26 28//28
f 2//2 25//25 26//26 4//4
# 32 faces, 0 coords texture

# End of File
