####
#
# OBJ File Generated by Meshlab
#
####
# Object head_part07_seg_01.obj
#
# Vertices: 216
# Faces: 206
#
####
vn 0.000000 0.000000 0.000000
v -1.140705 0.947584 -0.443445
vn 0.000000 0.000000 0.000000
v -1.182945 1.013323 -0.393744
vn 0.000000 0.000000 0.000000
v -1.156483 1.022835 -0.444852
vn 2.686877 -0.372072 -2.114971
v -1.089741 0.965317 -0.424821
vn 1.191156 0.477243 -2.150810
v -1.134045 1.071222 -0.438641
vn 2.210932 -0.404878 -1.841882
v -1.121365 0.768473 -0.401138
vn 0.608056 1.311954 -2.420344
v -1.125174 1.196561 -0.393875
vn 4.226488 -1.203303 -3.755597
v -1.082791 0.669608 -0.347084
vn 2.072247 2.515465 -4.133947
v -1.047487 1.202349 -0.377397
vn 3.612029 0.051122 -4.904756
v -1.057569 1.060681 -0.398627
vn 4.162984 0.339925 -4.451561
v -0.989254 1.119614 -0.343844
vn 0.000000 0.000000 0.000000
v -1.195771 0.721891 -0.341798
vn 0.000000 0.000000 0.000000
v -1.191202 0.868933 -0.390871
vn 0.000000 0.000000 0.000000
v -1.195198 1.142241 -0.348916
vn 0.000000 0.000000 0.000000
v -1.229427 0.835724 -0.327334
vn 4.425374 -1.362463 -2.995419
v -1.081098 0.512506 -0.289242
vn 0.000000 0.000000 0.000000
v -1.178396 0.555584 -0.280941
vn 3.271552 3.649271 -3.525789
v -0.959470 1.243491 -0.251204
vn 5.263662 -1.325230 -3.103502
v -1.050125 0.808705 -0.310946
vn 0.000000 0.000000 0.000000
v -1.231200 1.040686 -0.299469
vn 1.307913 -0.971960 -2.692097
v -1.129513 0.593863 -0.342229
vn 1.305001 -0.913129 -2.123431
v -1.138039 0.422726 -0.285628
vn 4.472439 0.446562 -3.694715
v -0.925670 1.126627 -0.285212
vn 0.000000 0.000000 0.000000
v -1.194527 1.257756 -0.231504
vn -0.108693 -0.885175 -1.786531
v -1.194439 0.288000 -0.190130
vn 5.909944 -1.152882 -1.445282
v -1.056849 0.661522 -0.233974
vn 5.608756 -1.089038 -1.659027
v -0.900402 1.081249 -0.228398
vn 6.088293 -0.711577 -1.162762
v -1.064219 0.621034 -0.273051
vn 4.830386 -1.686002 -3.412066
v -0.963611 0.976154 -0.281562
vn 5.498895 -1.807973 -2.439044
v -1.022269 0.716221 -0.192421
vn 5.695890 -1.750008 -0.792942
v -0.947684 0.881854 -0.164688
vn 4.994643 1.238035 -2.055757
v -0.882962 1.213393 -0.189170
vn 1.051761 2.555317 -1.678249
v -1.099311 1.329827 -0.213686
vn 0.000000 0.000000 0.000000
v -1.247925 0.891152 -0.248584
vn 6.162590 -0.610489 0.055341
v -1.087913 0.298772 -0.110662
vn 0.000000 0.000000 0.000000
v -1.248500 1.112471 -0.195926
vn 3.195520 -1.041392 -1.656431
v -1.097187 0.328230 -0.216286
vn 2.906859 -1.976155 -3.183612
v -1.117297 0.146891 -0.124908
vn 0.350957 -2.389663 -1.392614
v -1.186486 0.039976 -0.068906
vn 5.602381 -1.891649 -0.075191
v -0.983581 0.739090 -0.117696
vn 0.000000 0.000000 0.000000
v -1.251952 1.185317 -0.062900
vn 6.115009 -1.249430 -0.194043
v -1.064431 0.544604 -0.162755
vn 2.561732 -2.941324 -0.834717
v -1.118770 0.039812 -0.040835
vn 4.295026 2.872191 -1.987783
v -0.882533 1.316640 -0.076311
vn 6.042815 -0.858457 0.599389
v -1.105367 0.123989 0.009241
vn 1.143360 2.192020 -1.559711
v -1.099414 1.453964 -0.027404
vn 0.000000 0.000000 0.000000
v -1.257535 0.844685 -0.113472
vn 0.000000 0.000000 0.000000
v -1.285839 0.996548 -0.071440
vn 6.101053 -1.337422 0.155274
v -0.890127 1.132974 -0.125245
vn 3.312491 4.484608 -2.750553
v -0.962715 1.444798 0.059924
vn 0.000000 0.000000 0.000000
v -1.268720 0.099587 0.011425
vn 0.000000 0.000000 0.000000
v -1.296286 1.092147 0.001420
vn 6.120359 -0.872295 0.792329
v -1.094104 0.462966 -0.040801
vn 0.000000 0.000000 0.000000
v -1.233716 0.685268 -0.171155
vn 0.000000 0.000000 0.000000
v -1.246185 0.130809 -0.085743
vn 2.659651 -3.951067 1.202085
v -1.144307 0.043877 0.071437
vn 0.000000 0.000000 0.000000
v -1.276634 0.828472 0.012758
vn 0.000000 0.000000 0.000000
v -1.297646 1.024937 0.058396
vn 0.000000 0.000000 0.000000
v -1.235576 1.279592 -0.010217
vn 0.000000 0.000000 0.000000
v -1.200777 1.360355 0.048613
vn 5.860208 -1.759473 1.313911
v -1.048273 0.640138 -0.030072
vn 0.000000 0.000000 0.000000
v -1.184382 1.365052 -0.067255
vn 0.000000 0.000000 0.000000
v -1.126009 1.490843 0.089231
vn 0.092704 -2.697751 0.635286
v -1.221298 0.043915 0.082832
vn 6.004764 -1.043564 -0.191625
v -0.858375 1.260609 0.048989
vn 0.000000 0.000000 0.000000
v -1.290926 0.469407 0.013347
vn 6.221247 -0.727808 -0.149645
v -1.115135 0.380185 0.180110
vn 0.000000 0.000000 0.000000
v -1.299218 0.692809 0.084068
vn 0.000000 0.000000 0.000000
v -1.263064 1.193876 0.068131
vn 5.769053 -1.663371 1.715665
v -0.985912 0.811196 -0.035198
vn 1.221380 2.003592 -1.529819
v -1.064804 1.534575 0.095997
vn 0.000000 0.000000 0.000000
v -1.073530 1.560359 0.171482
vn 0.000000 0.000000 0.000000
v -1.248185 1.203507 0.214098
vn 6.189318 -0.802140 0.558408
v -1.095840 0.502884 0.096630
vn 0.000000 0.000000 0.000000
v -1.290199 0.139987 0.217880
vn 0.000000 0.000000 0.000000
v -1.310387 0.248498 0.131456
vn 0.000000 0.000000 0.000000
v -1.171323 1.414393 0.160899
vn 5.794374 -2.046000 1.258603
v -0.952426 1.017659 0.054632
vn 6.039585 -0.497889 -0.077944
v -1.110098 0.575038 0.214109
vn 0.000000 0.000000 0.000000
v -1.316928 0.579504 0.173625
vn 6.194401 -0.406162 0.593521
v -1.120587 0.325101 0.073751
vn 5.852357 -1.419946 1.059760
v -1.070058 0.768819 0.133132
vn 1.641400 2.208467 -1.482903
v -1.015933 1.565002 0.180034
vn 5.485167 -2.911868 0.849250
v -0.912418 1.179800 0.196467
vn 0.000000 0.000000 0.000000
v -1.276844 0.873923 0.160448
vn 1.921091 -2.453407 1.199947
v -1.206671 0.106407 0.236053
vn 5.148450 1.763390 -1.229095
v -0.842445 1.380041 0.161090
vn 0.000000 0.000000 0.000000
v -1.320421 0.408240 0.239173
vn 6.116058 -0.457319 -1.142754
v -1.098020 0.448488 0.303507
vn 0.000000 0.000000 0.000000
v -1.226135 1.294992 0.183441
vn 0.000000 0.000000 0.000000
v -1.029955 1.588363 0.289671
vn 5.648162 -2.156808 0.207611
v -0.990882 1.085828 0.312338
vn 0.000000 0.000000 0.000000
v -1.327770 0.254409 0.336270
vn 5.900089 -1.349269 -0.631505
v -1.055834 0.873817 0.293227
vn 0.000000 0.000000 0.000000
v -1.099456 1.498598 0.273758
vn 5.492152 -2.802542 0.316180
v -0.851772 1.293760 0.297328
vn 0.000000 0.000000 0.000000
v -1.242700 1.021075 0.307848
vn 0.000000 0.000000 0.000000
v -1.274411 1.090120 0.194747
vn 2.272417 1.675893 -1.232913
v -0.958759 1.593782 0.294332
vn 5.901604 -0.555773 -1.748925
v -1.073528 0.610544 0.389844
vn 5.149185 -2.995814 -0.294032
v -0.924729 1.238345 0.428319
vn 0.000000 0.000000 0.000000
v -1.211797 1.273952 0.291673
vn 0.000000 0.000000 0.000000
v -0.966904 1.612907 0.385844
vn 5.953155 -1.098329 -1.369393
v -1.114242 0.307551 0.339521
vn 0.000000 0.000000 0.000000
v -1.218479 1.161536 0.389740
vn 5.536485 -0.334133 0.006155
v -0.807604 1.388758 0.349275
vn 0.000000 0.000000 0.000000
v -1.233760 0.899274 0.368118
vn 5.598488 1.546636 -1.487844
v -0.831453 1.488045 0.409243
vn 0.000000 0.000000 0.000000
v -1.184497 1.293049 0.376004
vn 0.000000 0.000000 0.000000
v -1.150953 1.375545 0.329216
vn 5.356057 -2.701043 0.462589
v -1.147406 0.173581 0.260701
vn 0.000000 0.000000 0.000000
v -1.289042 0.645449 0.370927
vn 0.000000 0.000000 0.000000
v -1.302412 0.174516 0.418393
vn 1.097206 -2.712713 -0.468687
v -1.212029 0.135461 0.398718
vn 0.000000 0.000000 0.000000
v -1.154338 1.299730 0.445264
vn 5.189778 -1.384936 -3.170110
v -1.048457 0.268790 0.518359
vn 5.548411 -1.350556 -1.908783
v -0.961021 1.122965 0.473679
vn 0.000000 0.000000 0.000000
v -1.276607 0.433126 0.475089
vn 2.216890 1.697884 -1.383655
v -0.881231 1.620191 0.451675
vn 0.000000 0.000000 0.000000
v -1.241362 0.131666 0.540574
vn 5.285496 -1.690651 -2.661316
v -0.888040 1.213238 0.561751
vn 0.000000 0.000000 0.000000
v -0.978668 1.514422 0.531204
vn 5.807095 -2.083056 -0.288746
v -0.843583 1.347521 0.472469
vn 6.004310 -0.075826 -0.587950
v -0.793167 1.522305 0.555498
vn 3.612328 2.950471 -0.205465
v -0.805562 1.603104 0.542588
vn 3.891866 -3.584312 -2.529675
v -1.101973 0.147564 0.483493
vn 0.000000 0.000000 0.000000
v -1.285069 0.229843 0.528438
vn 0.000000 0.000000 0.000000
v -1.172222 1.009258 0.503126
vn 0.000000 0.000000 0.000000
v -1.074116 1.464503 0.422286
vn 2.090252 -4.009669 -3.516777
v -1.044947 0.038095 0.668253
vn 0.000000 0.000000 0.000000
v -1.181353 0.826651 0.585662
vn 4.650341 -2.303343 -3.526941
v -1.004780 0.166291 0.624455
vn 0.000000 0.000000 0.000000
v -1.222482 0.228710 0.628720
vn 0.000000 0.000000 0.000000
v -1.153578 1.118812 0.553726
vn 0.000000 0.000000 0.000000
v -1.145316 1.229389 0.549373
vn 5.427433 -0.464897 -2.896656
v -0.990151 0.636112 0.584141
vn 0.000000 0.000000 0.000000
v -1.084136 1.378749 0.508370
vn 0.000000 0.000000 0.000000
v -1.206255 0.438201 0.639767
vn 4.866666 -1.196965 -3.526658
v -0.947840 0.256142 0.636454
vn 5.522496 -0.469488 -2.904988
v -1.021434 0.388608 0.523405
vn 5.582757 -1.095349 -2.559853
v -0.979954 0.900503 0.497788
vn 0.000000 0.000000 0.000000
v -0.919269 1.618512 0.486325
vn 0.306110 -2.826076 -1.550259
v -1.152809 0.070060 0.607722
vn 4.971478 -1.001536 -3.692809
v -0.851741 0.999584 0.668897
vn 1.389789 2.269042 0.822164
v -0.853086 1.618238 0.580953
vn 0.000000 0.000000 0.000000
v -1.080417 1.183089 0.679581
vn 4.982107 1.819571 1.614432
v -0.798941 1.527761 0.636747
vn -0.677792 -2.267310 -1.449060
v -1.120103 -0.013175 0.770435
vn 0.000000 0.000000 0.000000
v -1.074586 0.753092 0.798179
vn 5.396013 -0.381696 -3.050763
v -0.882383 0.297321 0.738318
vn 0.000000 0.000000 0.000000
v -1.051344 1.030249 0.719162
vn 0.000000 0.000000 0.000000
v -1.201689 0.137021 0.643000
vn 0.000000 0.000000 0.000000
v -0.885342 1.461383 0.738161
vn 5.290934 1.716146 1.176589
v -0.801642 1.459055 0.721365
vn 1.909781 1.909498 1.487330
v -0.843111 1.538488 0.677627
vn 5.192822 -2.022235 -2.462183
v -0.902193 0.124013 0.778562
vn 0.000000 0.000000 0.000000
v -1.199867 0.304301 0.650890
vn 0.000000 0.000000 0.000000
v -1.032924 1.322406 0.658961
vn 6.012218 -0.748244 -1.386948
v -0.817412 1.348658 0.631896
vn 5.037247 -1.080410 -3.575630
v -0.881864 0.737202 0.712635
vn 5.326909 0.131480 -3.121392
v -0.779188 1.173936 0.724824
vn 0.000000 0.000000 0.000000
v -1.168423 0.111657 0.749243
vn 5.285590 -0.060682 -3.311255
v -0.928262 0.485864 0.695462
vn 5.300179 -0.889645 -2.333942
v -0.721203 1.048488 0.803291
vn 3.813297 -2.978661 -3.675423
v -0.976590 -0.003557 0.758991
vn 0.000000 0.000000 0.000000
v -1.162399 0.411949 0.781017
vn 5.399372 -1.375715 -2.376575
v -0.765175 0.864787 0.815358
vn 0.000000 0.000000 0.000000
v -1.211309 0.588100 0.633203
vn 5.552438 -1.042455 -0.554776
v -0.835185 0.259666 0.841015
vn 5.609416 -1.055644 -2.329645
v -0.813965 0.672668 0.825236
vn 5.809073 -0.271396 -1.749148
v -0.830705 0.432155 0.838342
vn 0.000000 0.000000 0.000000
v -0.889180 1.288073 0.879859
vn 0.000000 0.000000 0.000000
v -0.874478 1.380519 0.834024
vn 0.832373 -2.883323 -1.333433
v -1.038240 -0.111094 0.887446
vn 5.570375 1.886848 0.715518
v -0.758171 1.235477 0.830093
vn 5.528358 1.695037 1.131633
v -0.790406 1.364884 0.793450
vn 2.369057 1.353641 1.299156
v -0.825252 1.439027 0.788184
vn 4.771851 1.095238 -0.214577
v -0.708732 1.132766 0.820814
vn 0.000000 0.000000 0.000000
v -0.938293 1.358623 0.763828
vn 0.376795 -4.569873 -3.190561
v -1.028381 -0.054209 0.773855
vn 3.878180 -3.421107 -1.828875
v -0.950171 -0.056458 0.840396
vn 0.000000 0.000000 0.000000
v -0.999629 1.194216 0.779191
vn 0.000000 0.000000 0.000000
v -1.166097 0.130454 0.912544
vn 0.000000 0.000000 0.000000
v -1.093178 0.414386 0.905447
vn 0.000000 0.000000 0.000000
v -1.180613 0.004176 0.871339
vn 4.891132 -0.588405 2.639140
v -0.832668 0.394309 0.913294
vn 5.569958 -1.196167 1.242216
v -0.764978 0.816303 0.892290
vn 3.744941 -2.978158 0.774793
v -0.956092 -0.087766 0.923060
vn 5.267651 -0.769567 2.002555
v -0.806998 0.639907 0.912335
vn 5.193804 -0.272039 1.842113
v -0.716012 1.040112 0.884906
vn 0.000000 0.000000 0.000000
v -0.930293 1.217113 0.877355
vn 0.000000 0.000000 0.000000
v -0.964116 0.697068 0.953252
vn 0.000000 0.000000 0.000000
v -0.926630 1.106817 0.876954
vn 0.000000 0.000000 0.000000
v -1.134645 -0.075652 0.902698
vn 1.405012 -1.359452 0.438212
v -1.018548 -0.139609 0.962481
vn 0.000000 0.000000 0.000000
v -1.163296 -0.057688 0.969085
vn 0.000000 0.000000 0.000000
v -1.103309 0.172373 0.956447
vn 1.616461 -0.571461 1.890763
v -1.024735 -0.088171 0.994186
vn 0.591483 0.030294 2.722822
v -1.012141 0.111188 0.973040
vn 1.942389 -0.375597 2.815934
v -0.918481 0.313825 0.962064
vn 0.000000 0.000000 0.000000
v -1.029660 0.295604 0.949558
vn 0.000000 0.000000 0.000000
v -1.007636 0.461063 0.960577
vn 2.605785 0.669229 1.505212
v -0.769547 1.124646 0.944546
vn 3.366186 -0.670782 4.753222
v -0.940521 0.054606 0.958112
vn 0.000000 0.000000 0.000000
v -0.848107 1.176207 0.954383
vn 2.594913 -0.460065 2.074986
v -0.798608 0.875282 0.954800
vn 5.462923 -1.555975 1.372352
v -0.888243 0.105802 0.902715
vn 4.016905 -0.251000 3.937875
v -0.907439 0.154133 0.950838
vn 0.000000 0.000000 0.000000
v -1.097696 -0.110542 1.008582
vn 0.000000 0.000000 0.000000
v -1.082685 -0.126813 0.973737
vn 0.000000 0.000000 0.000000
v -1.169555 -0.021862 0.984084
vn 2.240502 0.956558 1.202803
v -0.816720 1.290390 0.898521
vn 0.000000 0.000000 0.000000
v -1.116440 -0.026333 0.998395
vn 0.000000 0.000000 0.000000
v -0.938614 0.560768 0.991656
vn 0.000000 0.000000 0.000000
v -0.880084 0.974353 0.932021
vn 1.844388 -0.362422 2.143233
v -0.870883 0.691043 0.977675
# 216 vertices, 0 vertices normals

f 18//18 9//9 33//33
f 53//53 61//61 74//74
f 74//74 61//61 82//82
f 140//140 100//100 163//163
f 11//11 10//10 9//9
f 44//44 32//32 18//18
f 121//121 117//117 101//101
f 154//154 159//159 147//147
f 155//155 154//154 147//147
f 29//29 27//27 31//31
f 49//49 31//31 27//27
f 49//49 27//27 32//32
f 150//150 140//140 163//163
f 150//150 139//139 140//140
f 160//160 163//163 136//136
f 27//27 29//29 23//23
f 27//27 23//23 32//32
f 30//30 31//31 40//40
f 31//31 49//49 78//78
f 61//61 53//53 42//42
f 42//42 40//40 61//61
f 61//61 40//40 70//70
f 78//78 49//49 65//65
f 49//49 32//32 65//65
f 136//136 163//163 100//100
f 141//141 136//136 100//100
f 176//176 175//175 159//159
f 154//154 176//176 159//159
f 206//206 187//187 190//190
f 190//190 175//175 203//203
f 126//126 114//114 111//111
f 111//111 104//104 126//126
f 116//116 126//126 104//104
f 104//104 89//89 140//140
f 140//140 116//116 104//104
f 89//89 100//100 140//140
f 78//78 70//70 31//31
f 70//70 40//40 31//31
f 79//79 74//74 82//82
f 100//100 94//94 141//141
f 123//123 121//121 101//101
f 123//123 106//106 108//108
f 125//125 108//108 119//119
f 125//125 124//124 108//108
f 45//45 56//56 43//43
f 96//96 87//87 106//106
f 65//65 87//87 96//96
f 101//101 92//92 96//96
f 132//132 116//116 139//139
f 176//176 154//154 177//177
f 10//10 4//4 5//5
f 7//7 9//9 10//10
f 38//38 25//25 37//37
f 35//35 38//38 37//37
f 35//35 37//37 42//42
f 44//44 18//18 50//50
f 101//101 96//96 123//123
f 106//106 123//123 96//96
f 178//178 161//161 175//175
f 212//212 175//175 176//176
f 216//216 186//186 189//189
f 45//45 43//43 38//38
f 38//38 35//35 45//45
f 81//81 45//45 35//35
f 35//35 42//42 53//53
f 53//53 81//81 35//35
f 87//87 44//44 50//50
f 32//32 44//44 65//65
f 65//65 44//44 87//87
f 92//92 82//82 78//78
f 92//92 94//94 82//82
f 89//89 104//104 67//67
f 92//92 101//101 117//117
f 160//160 136//136 141//141
f 181//181 180//180 165//165
f 156//156 181//181 165//165
f 169//169 156//156 150//150
f 8//8 16//16 21//21
f 28//28 16//16 8//8
f 19//19 28//28 8//8
f 159//159 124//124 147//147
f 145//145 147//147 125//125
f 147//147 124//124 125//125
f 16//16 37//37 22//22
f 42//42 37//37 16//16
f 42//42 28//28 26//26
f 42//42 30//30 40//40
f 26//26 30//30 42//42
f 43//43 39//39 38//38
f 84//84 92//92 78//78
f 84//84 78//78 65//65
f 96//96 84//84 65//65
f 116//116 140//140 139//139
f 187//187 170//170 167//167
f 190//190 187//187 167//167
f 190//190 167//167 164//164
f 190//190 164//164 178//178
f 175//175 190//190 178//178
f 206//206 189//189 187//187
f 11//11 9//9 18//18
f 67//67 81//81 74//74
f 81//81 53//53 74//74
f 106//106 87//87 108//108
f 108//108 87//87 50//50
f 117//117 141//141 92//92
f 171//171 150//150 163//163
f 171//171 169//169 150//150
f 170//170 163//163 160//160
f 170//170 171//171 163//163
f 23//23 29//29 11//11
f 23//23 11//11 18//18
f 23//23 18//18 32//32
f 89//89 79//79 100//100
f 94//94 92//92 141//141
f 130//130 143//143 126//126
f 130//130 126//126 132//132
f 126//126 116//116 132//132
f 160//160 167//167 170//170
f 167//167 160//160 144//144
f 167//167 144//144 164//164
f 164//164 144//144 161//161
f 175//175 161//161 159//159
f 164//164 161//161 178//178
f 29//29 10//10 11//11
f 29//29 19//19 10//10
f 31//31 30//30 19//19
f 31//31 19//19 29//29
f 144//144 160//160 141//141
f 141//141 117//117 144//144
f 117//117 121//121 144//144
f 144//144 121//121 161//161
f 159//159 161//161 121//121
f 121//121 123//123 159//159
f 123//123 108//108 159//159
f 159//159 108//108 124//124
f 188//188 174//174 181//181
f 207//207 188//188 181//181
f 181//181 156//156 207//207
f 156//156 169//169 207//207
f 186//186 207//207 169//169
f 8//8 6//6 19//19
f 19//19 4//4 10//10
f 6//6 4//4 19//19
f 100//100 79//79 82//82
f 94//94 100//100 82//82
f 186//186 169//169 171//171
f 189//189 171//171 170//170
f 189//189 186//186 171//171
f 187//187 189//189 170//170
f 28//28 42//42 16//16
f 26//26 28//28 19//19
f 26//26 19//19 30//30
f 82//82 61//61 70//70
f 82//82 70//70 78//78
f 111//111 45//45 81//81
f 111//111 56//56 45//45
f 111//111 81//81 104//104
f 81//81 67//67 104//104
f 67//67 74//74 89//89
f 89//89 74//74 79//79
f 92//92 84//84 96//96
f 165//165 130//130 156//156
f 156//156 130//130 132//132
f 156//156 132//132 139//139
f 150//150 156//156 139//139
f 130//130 165//165 180//180
f 204//204 188//188 207//207
f 204//204 207//207 208//208
f 200//200 207//207 186//186
f 208//208 207//207 200//200
f 21//21 6//6 8//8
f 9//9 7//7 33//33
f 50//50 33//33 46//46
f 56//56 64//64 39//39
f 39//39 43//43 56//56
f 114//114 86//86 111//111
f 38//38 39//39 25//25
f 155//155 147//147 145//145
f 177//177 154//154 155//155
f 206//206 190//190 203//203
f 203//203 175//175 212//212
f 111//111 86//86 56//56
f 86//86 64//64 56//56
f 50//50 83//83 99//99
f 10//10 5//5 7//7
f 33//33 50//50 18//18
f 83//83 50//50 71//71
f 50//50 46//46 71//71
f 212//212 176//176 177//177
f 200//200 186//186 216//216
f 216//216 189//189 206//206
f 174//174 180//180 181//181
f 16//16 22//22 21//21
f 148//148 143//143 130//130
f 174//174 148//148 180//180
f 99//99 108//108 50//50
f 204//204 199//199 198//198
f 119//119 108//108 99//99
f 125//125 119//119 145//145
f 114//114 126//126 143//143
f 180//180 148//148 130//130
f 198//198 195//195 188//188
f 195//195 174//174 188//188
f 204//204 198//198 188//188
f 200//200 199//199 204//204
f 208//208 200//200 204//204
# 206 faces, 0 coords texture

# End of File
