####
#
# OBJ File Generated by Meshlab
#
####
# Object head_part03_seg_00.obj
#
# Vertices: 300
# Faces: 145
#
####
vn 0.0000000 0.0000000 0.0000000
v 0.2652363 0.7472956 -1.1853726
vn 0.0000000 0.0000000 0.0000000
v 0.1708951 0.8534679 -1.2003587
vn 0.0000000 0.0000000 0.0000000
v 0.2551014 0.8487536 -1.1850748
vn 0.0000000 0.0000000 0.0000000
v 0.1341541 0.5702220 -1.1746351
vn 0.0000000 0.0000000 0.0000000
v 0.1468501 0.7256129 -1.2040778
vn 0.0000000 0.0000000 0.0000000
v 0.1960230 0.8121911 -1.2075894
vn 0.0000000 0.0000000 0.0000000
v 0.2317592 0.6245705 -1.1768261
vn 0.0000000 0.0000000 0.0000000
v 0.0971852 0.8367359 -1.1554784
vn 0.2175700 0.9499887 0.2240195
v 0.2042041 0.8866121 -1.1627152
vn 0.0000000 0.0000000 0.0000000
v 0.3570608 0.6406798 -1.1543709
vn 0.0000000 0.0000000 0.0000000
v 0.2168803 0.5295325 -1.1623973
vn 0.3055367 0.9281367 0.2126255
v 0.2708268 0.8620913 -1.1234356
vn 0.5239099 0.8493943 -0.0636221
v 0.3727456 0.7980729 -1.1388482
vn 0.0000000 0.0000000 0.0000000
v 0.4476919 0.7047592 -1.1353281
vn 0.0000000 0.0000000 0.0000000
v 0.5108725 0.6143057 -1.0960646
vn 0.0000000 0.0000000 0.0000000
v 0.5961599 0.6677793 -1.0462508
vn 0.1452634 0.9702166 0.1938513
v 0.1498048 0.8745205 -1.0586057
vn 0.0000000 0.0000000 0.0000000
v 0.4966885 0.4878351 -1.0649768
vn 0.0000000 0.0000000 0.0000000
v -0.0141974 0.3495649 -1.0760236
vn 0.0000000 0.0000000 0.0000000
v -0.1228669 0.5192166 -0.9996778
vn 0.0000000 0.0000000 0.0000000
v 0.3276322 0.4993668 -1.1266173
vn 0.0000000 0.0000000 0.0000000
v 0.0875472 0.3824422 -1.1247221
vn 0.0000000 0.0000000 0.0000000
v 0.2237679 0.4134258 -1.1227010
vn 0.0000000 0.0000000 0.0000000
v 0.0259442 0.6167337 -1.1481886
vn 0.0000000 0.0000000 0.0000000
v 0.5928332 0.6189842 -1.0495445
vn 0.0000000 0.0000000 0.0000000
v 0.5018796 0.7462876 -1.0811833
vn 0.0000000 0.0000000 0.0000000
v 0.3500147 0.3277751 -1.0612324
vn 0.0000000 0.0000000 0.0000000
v 0.4417019 0.2792663 -1.0301914
vn 0.0000000 0.0000000 0.0000000
v -0.0359555 0.7420445 -1.0845394
vn 0.3538064 0.9251161 0.1377724
v 0.3804569 0.8012216 -1.0333107
vn 0.0000000 0.0000000 0.0000000
v -0.0305756 0.1435679 -1.0039150
vn -0.1473304 0.9890845 0.0023342
v 0.0340867 0.8572812 -1.0576190
vn 0.0000000 0.0000000 0.0000000
v 0.1041545 0.0753478 -1.0276562
vn 0.0000000 0.0000000 0.0000000
v 0.0735264 0.2133709 -1.0725241
vn 0.0000000 0.0000000 0.0000000
v 0.5259438 0.3643891 -1.0172356
vn 0.0000000 0.0000000 0.0000000
v 0.2332041 0.2313202 -1.0644193
vn 0.0000000 0.0000000 0.0000000
v 0.2602468 0.0883586 -1.0131196
vn 0.0000000 0.0000000 0.0000000
v -0.0607495 0.8155268 -0.9942614
vn 0.0000000 0.0000000 0.0000000
v 0.3932326 0.1783354 -1.0039095
vn 0.0000000 0.0000000 0.0000000
v -0.1321881 0.7271990 -0.9955865
vn 0.0000000 0.0000000 0.0000000
v 0.4596276 0.7509397 -0.9358206
vn 0.0000000 0.0000000 0.0000000
v 0.5682746 0.1544708 -0.9373101
vn 0.0000000 0.0000000 0.0000000
v 0.6546215 0.5618576 -1.0002214
vn -0.0755579 0.9085633 0.4108575
v 0.0292412 0.8562558 -0.9289430
vn 0.0000000 0.0000000 0.0000000
v 0.3442862 0.0311986 -0.9744642
vn 0.0000000 0.0000000 0.0000000
v 0.4571632 0.0749700 -0.9582741
vn 0.0000000 0.0000000 0.0000000
v 0.5328564 0.2155144 -0.9831241
vn 0.0000000 0.0000000 0.0000000
v 0.5964146 0.7183531 -1.0152932
vn 0.0000000 0.0000000 0.0000000
v 0.1611089 -0.1538015 -0.9564618
vn 0.0000000 0.0000000 0.0000000
v -0.0386142 -0.0571276 -0.9612150
vn 0.0000000 0.0000000 0.0000000
v -0.0900038 0.0591302 -0.9325411
vn 0.0000000 0.0000000 0.0000000
v 0.2835073 -0.1109599 -0.9444548
vn 0.0000000 0.0000000 0.0000000
v 0.1505539 -0.0576901 -0.9797850
vn 0.0000000 0.0000000 0.0000000
v 0.5696140 0.2806245 -0.9808724
vn 0.0000000 0.0000000 0.0000000
v -0.0979782 0.3203295 -0.9739825
vn 0.0000000 0.0000000 0.0000000
v 0.1754125 -0.2458809 -0.9187974
vn 0.0000000 0.0000000 0.0000000
v 0.6210158 0.2248624 -0.9308967
vn 0.0000000 0.0000000 0.0000000
v -0.1810411 0.6641829 -0.9045601
vn -0.0655793 0.6386409 0.7667054
v -0.0809895 0.8174122 -0.9060160
vn 0.0000000 0.0000000 0.0000000
v 0.7935859 0.4406579 -0.8672705
vn 0.0000000 0.0000000 0.0000000
v 0.7500218 0.5400939 -0.9215214
vn 0.0000000 0.0000000 0.0000000
v 0.7002957 0.6580276 -0.9380213
vn 0.0000000 0.0000000 0.0000000
v 0.7092674 0.2130966 -0.8630646
vn 0.0000000 0.0000000 0.0000000
v 0.8148896 0.5435476 -0.8737048
vn 0.1905385 0.9556184 0.2246965
v 0.2110037 0.8321263 -0.9286101
vn 0.0000000 0.0000000 0.0000000
v 0.0607299 -0.3518198 -0.8917449
vn 0.0000000 0.0000000 0.0000000
v 0.5695781 0.7320793 -0.9753665
vn 0.0000000 0.0000000 0.0000000
v 0.6732258 0.6949173 -0.8871708
vn 0.0000000 0.0000000 0.0000000
v -0.1320506 0.1925597 -0.8579387
vn 0.0000000 0.0000000 0.0000000
v 0.3714957 -0.2198841 -0.8874580
vn 0.0000000 0.0000000 0.0000000
v 0.4373955 -0.0348311 -0.9251220
vn 0.0000000 0.0000000 0.0000000
v 0.0251062 -0.2714171 -0.9216380
vn 0.0000000 0.0000000 0.0000000
v -0.0817920 -0.2612827 -0.8674126
vn 0.0000000 0.0000000 0.0000000
v 0.6757776 0.3519982 -0.9322165
vn 0.0000000 0.0000000 0.0000000
v 0.0308055 -0.1866398 -0.9454940
vn 0.0000000 0.0000000 0.0000000
v -0.1295929 0.7805423 -0.9058243
vn 0.0000000 0.0000000 0.0000000
v 0.7391300 0.6725199 -0.8318570
vn 0.0000000 0.0000000 0.0000000
v 0.5579273 -0.0607732 -0.8711522
vn 0.0000000 0.0000000 0.0000000
v 0.5622063 0.0563031 -0.9071094
vn 0.0000000 0.0000000 0.0000000
v 0.6478019 0.1177060 -0.8852720
vn 0.0000000 0.0000000 0.0000000
v 0.8054705 0.6158095 -0.8608342
vn 0.0000000 0.0000000 0.0000000
v 0.0380902 -0.5263283 -0.8276957
vn 0.0000000 0.0000000 0.0000000
v 0.1999396 -0.5406321 -0.8237828
vn 0.0000000 0.0000000 0.0000000
v 0.2850927 -0.4724711 -0.8215660
vn 0.0000000 0.0000000 0.0000000
v 0.7133515 0.1144448 -0.8266873
vn -0.2525106 0.4023597 0.8799688
v 0.0944828 0.8078183 -0.8303107
vn 0.0958835 0.9082136 0.4073749
v 0.2430795 0.8060982 -0.8255711
vn 0.0000000 0.0000000 0.0000000
v 0.6545187 0.0535903 -0.8524278
vn 0.0000000 0.0000000 0.0000000
v 0.1338814 -0.4996662 -0.8377440
vn 0.0000000 0.0000000 0.0000000
v 0.1069323 -0.4351480 -0.8659272
vn 0.0000000 0.0000000 0.0000000
v 0.2100340 -0.4466721 -0.8429638
vn 0.0000000 0.0000000 0.0000000
v 0.3736279 -0.4329388 -0.8177860
vn 0.0000000 0.0000000 0.0000000
v 0.3041753 -0.3887973 -0.8452269
vn 0.2889188 0.9445660 0.1559525
v 0.3807236 0.7672320 -0.8665784
vn -0.5421556 0.3049472 0.7829908
v -0.1895156 0.5933852 -0.8370163
vn -0.9590258 0.0381491 0.2807387
v -0.1785420 0.4265525 -0.8618711
vn 0.0000000 0.0000000 0.0000000
v -0.1399108 -0.0435518 -0.8187991
vn 0.0000000 0.0000000 0.0000000
v -0.1475472 -0.2871569 -0.7922974
vn 0.2199117 0.9704061 0.0997539
v 0.6070127 0.6987055 -0.7760540
vn 0.0000000 0.0000000 0.0000000
v -0.1645901 0.2922831 -0.7894120
vn 0.0000000 0.0000000 0.0000000
v 0.6231517 -0.1912564 -0.7691058
vn 0.0000000 0.0000000 0.0000000
v 0.7764745 0.3363797 -0.8420265
vn 0.0000000 0.0000000 0.0000000
v 0.2063200 -0.3470466 -0.8858476
vn 0.0000000 0.0000000 0.0000000
v 0.4870373 -0.2572745 -0.8272618
vn 0.0000000 0.0000000 0.0000000
v 0.0555391 -0.6562641 -0.7983840
vn 0.0000000 0.0000000 0.0000000
v 0.3001651 -0.5519750 -0.7943402
vn 0.0000000 0.0000000 0.0000000
v 0.3129149 -0.6296294 -0.7590847
vn 0.0000000 0.0000000 0.0000000
v -0.0021913 -0.7417083 -0.7584821
vn 0.0000000 0.0000000 0.0000000
v 0.2081909 -0.6340767 -0.7860965
vn 0.0000000 0.0000000 0.0000000
v 0.3925115 -0.5872333 -0.7536392
vn -0.3647951 0.2665324 0.8921239
v -0.1524761 0.5307954 -0.7869931
vn -0.1642972 0.7780781 0.6063011
v 0.3413805 0.7627581 -0.7548633
vn 0.0000000 0.0000000 0.0000000
v 0.0491592 -0.8618960 -0.7296203
vn 0.0000000 0.0000000 0.0000000
v 0.9146192 0.5028355 -0.7310838
vn 0.0000000 0.0000000 0.0000000
v -0.1659417 0.0828791 -0.7066512
vn 0.0000000 0.0000000 0.0000000
v 0.8636608 0.5591798 -0.8047076
vn 0.0000000 0.0000000 0.0000000
v 0.5309029 -0.4151640 -0.7443385
vn -0.5179122 0.3138557 0.7957773
v -0.1469430 0.3715077 -0.7464463
vn 0.0000000 0.0000000 0.0000000
v -0.1099570 -0.6434836 -0.7575781
vn 0.0000000 0.0000000 0.0000000
v 0.8645486 0.3583647 -0.7580723
vn 0.0000000 0.0000000 0.0000000
v -0.1498343 -0.4812660 -0.7665943
vn -0.3077361 0.4716029 0.8263711
v 0.2093812 0.7273611 -0.7493328
vn 0.0000000 0.0000000 0.0000000
v 0.1838107 -0.7685921 -0.7486268
vn 0.0000000 0.0000000 0.0000000
v 0.7272431 0.0008529 -0.7636546
vn -0.2748948 0.3473622 0.8965335
v -0.1130268 0.7329677 -0.8384167
vn 0.0000000 0.0000000 0.0000000
v 0.0778945 -0.9604160 -0.6889673
vn 0.0000000 0.0000000 0.0000000
v 0.1862715 -0.9066988 -0.7128384
vn -0.2141372 0.7932684 0.5699741
v 0.4650165 0.7202287 -0.6723953
vn 0.0000000 0.0000000 0.0000000
v 0.2767757 -0.9064416 -0.6665445
vn -0.6168976 0.4333867 0.6569729
v -0.1710711 -0.4932944 -0.6731445
vn 0.0000000 0.0000000 0.0000000
v 0.7682798 0.6627132 -0.6010016
vn 0.0000000 0.0000000 0.0000000
v 0.4198755 -0.7774255 -0.6804397
vn 0.0000000 0.0000000 0.0000000
v 0.3770131 -0.7144068 -0.7135802
vn -0.7325243 0.4151856 0.5394712
v -0.1500168 0.2218101 -0.7060028
vn 0.0000000 0.0000000 0.0000000
v 0.8139595 0.1656494 -0.7438599
vn -0.9807090 -0.0886946 0.1741934
v -0.1610498 -0.1937532 -0.7312043
vn -0.6337728 -0.0638619 0.7708786
v -0.1445742 -0.3225729 -0.7040380
vn 0.0000000 0.0000000 0.0000000
v 0.3393569 -0.8341652 -0.6905873
vn 0.0000000 0.0000000 0.0000000
v -0.2282248 -0.6770569 -0.6813703
vn 0.0000000 0.0000000 0.0000000
v 0.9417425 0.5762202 -0.6682834
vn 0.0000000 0.0000000 0.0000000
v -0.1693314 -0.8149685 -0.6888276
vn -0.3090326 0.3427596 0.8871385
v -0.0058270 0.5513733 -0.7418373
vn 0.0000000 0.0000000 0.0000000
v 0.6524999 -0.3039117 -0.6993667
vn 0.0000000 0.0000000 0.0000000
v 0.7514524 -0.1498358 -0.6787416
vn 0.0000000 0.0000000 0.0000000
v 0.0537065 -0.9865292 -0.6210123
vn 0.0000000 0.0000000 0.0000000
v 0.1702985 -0.9616321 -0.6717064
vn 0.0000000 0.0000000 0.0000000
v 0.6250049 -0.5511951 -0.6169798
vn 0.0000000 0.0000000 0.0000000
v 0.8279733 -0.0616976 -0.6317078
vn 0.0000000 0.0000000 0.0000000
v 0.5106543 -0.6435667 -0.6737488
vn 0.0000000 0.0000000 0.0000000
v 0.8320549 0.6437583 -0.7154599
vn 0.0000000 0.0000000 0.0000000
v 0.4608699 -0.7639953 -0.6359679
vn 0.0000000 0.0000000 0.0000000
v 0.5607144 -0.6824847 -0.6084005
vn 0.0000000 0.0000000 0.0000000
v -0.2853683 -0.8033408 -0.6140709
vn -0.5079481 0.4178822 0.7532351
v -0.2307612 -0.6559190 -0.5911276
vn 0.0000000 0.0000000 0.0000000
v -0.2680544 -0.7102047 -0.6249354
vn 0.0000000 0.0000000 0.0000000
v 0.8554942 0.0652383 -0.6408003
vn 0.0000000 0.0000000 0.0000000
v -0.1455906 -1.0314485 -0.5977235
vn -0.4163536 0.4254054 0.8035422
v -0.1279391 -0.5361677 -0.5868037
vn -0.4463331 0.1030322 0.8889158
v -0.0319945 -0.4029242 -0.6021188
vn 0.0000000 0.0000000 0.0000000
v 0.9342666 0.2358869 -0.6151239
vn -0.9049137 -0.1160025 0.4094809
v -0.1800117 -0.0513341 -0.6461936
vn -0.4632230 0.4607472 0.7570578
v -0.0769406 0.2799987 -0.6515588
vn -0.2738834 0.6375028 0.7201236
v 0.3411522 0.7069926 -0.6833601
vn -0.3896953 0.3401105 0.8558402
v 0.2529800 0.5085548 -0.6283900
vn 0.0000000 0.0000000 0.0000000
v 0.6656085 -0.3907658 -0.6518325
vn 0.0000000 0.0000000 0.0000000
v 1.0074047 0.5141863 -0.5990031
vn 0.0000000 0.0000000 0.0000000
v -0.1185276 -0.9679190 -0.6513947
vn -0.2702609 0.3810765 0.8841605
v 0.0646030 0.3340501 -0.6398802
vn 0.0000000 0.0000000 0.0000000
v -0.2901086 -1.0417755 -0.5659614
vn 0.0000000 0.0000000 0.0000000
v 1.0298026 0.4579287 -0.5327042
vn 0.0000000 0.0000000 0.0000000
v -0.2874752 -0.9617431 -0.6144319
vn 0.0000000 0.0000000 0.0000000
v 0.9983000 0.5927216 -0.5681193
vn 0.0000000 0.0000000 0.0000000
v 0.5676144 -0.6851863 -0.5660690
vn 0.0000000 0.0000000 0.0000000
v 0.8572709 -0.1262427 -0.5501003
vn 0.0000000 0.0000000 0.0000000
v -0.2598697 -1.0284405 -0.6076101
vn 0.0000000 0.0000000 0.0000000
v 0.8138111 -0.1501522 -0.6068338
vn 0.0000000 0.0000000 0.0000000
v 0.6140643 -0.6286862 -0.5538637
vn 0.0000000 0.0000000 0.0000000
v 0.7677042 -0.2630554 -0.5964733
vn 0.0000000 0.0000000 0.0000000
v 0.9739553 0.4219455 -0.6207937
vn 0.0000000 0.0000000 0.0000000
v -0.3242199 -0.9501415 -0.5379427
vn 0.0000000 0.0000000 0.0000000
v 0.7275298 -0.4273261 -0.5582209
vn 0.2310428 -0.3826370 0.8945435
v 0.1980665 -0.8914741 -0.5727795
vn 0.0000000 0.0000000 0.0000000
v 0.6669351 -0.5546883 -0.5428219
vn 0.0000000 0.0000000 0.0000000
v -0.1680210 -1.0323000 -0.5313281
vn 0.0000000 0.0000000 0.0000000
v 0.3701416 -0.8347576 -0.6091644
vn -0.4375896 0.4117362 0.7993677
v -0.2922240 -0.8135871 -0.5435622
vn 0.0000000 0.0000000 0.0000000
v 0.9326404 0.0903066 -0.5416698
vn -0.6525415 0.3196890 0.6870142
v -0.1577065 0.1291299 -0.5898108
vn -0.2984963 0.6821155 0.6675466
v 0.4979118 0.6710516 -0.5675583
vn -0.6428961 -0.1054717 0.7586570
v -0.1442902 -0.0086001 -0.5551463
vn -0.4634107 0.3857017 0.7977999
v 0.4935490 0.5813572 -0.5200374
vn -0.4061908 0.5629786 0.7197667
v 0.4039034 0.6523803 -0.6102815
vn -0.3240717 0.5121418 0.7954171
v -0.0833203 0.1824151 -0.5654199
vn -0.5208431 -0.2987639 0.7996640
v -0.1434150 -0.1633480 -0.6164388
vn -0.1390378 0.4460723 0.8841313
v 0.0607302 0.1885398 -0.5599537
vn -0.1585684 0.2106818 0.9646083
v -0.0321652 -0.5157017 -0.5754307
vn -0.0621042 0.2236600 0.9726866
v 0.0252730 -0.6608371 -0.5379089
vn -0.4857861 -0.2166096 0.8468130
v -0.0567983 -0.2548523 -0.6004295
vn 0.4944565 -0.6466940 0.5807751
v 0.7131512 -0.4822850 -0.4920484
vn 0.0000000 0.0000000 0.0000000
v -0.2987461 -0.8796363 -0.4805853
vn 0.0000000 0.0000000 0.0000000
v -0.0385874 -1.0111057 -0.5602562
vn 0.0000000 0.0000000 0.0000000
v 0.5636714 -0.6435211 -0.5202867
vn 0.0000000 0.0000000 0.0000000
v 0.8424938 -0.1816490 -0.5484345
vn 0.0000000 0.0000000 0.0000000
v 1.0384445 0.5516296 -0.5277124
vn 0.2967728 -0.5543174 0.7775977
v 0.4973915 -0.7221701 -0.5611514
vn 0.0000000 0.0000000 0.0000000
v 0.8000098 -0.3387621 -0.5060046
vn 0.0000000 0.0000000 0.0000000
v 1.0747433 0.4621294 -0.4427055
vn 0.0000000 0.0000000 0.0000000
v 1.0764346 0.5673053 -0.4446068
vn 0.0000000 0.0000000 0.0000000
v -0.2904248 -1.0232948 -0.5094856
vn 0.0000000 0.0000000 0.0000000
v -0.3021185 -0.9540257 -0.4617036
vn 0.2025406 0.0790411 0.9760788
v 0.0619284 -0.9035243 -0.4890983
vn 0.1090788 -0.4065227 0.9071059
v 0.3841639 -0.7238935 -0.5191663
vn -0.4171405 0.6421289 0.6431674
v 0.6177500 0.6710384 -0.5305797
vn 0.0000000 0.0000000 0.0000000
v 1.0018040 0.1751427 -0.4672292
vn 0.0755023 0.9786192 0.1913218
v 0.7838706 0.6696000 -0.4668343
vn 0.0000000 0.0000000 0.0000000
v 1.0241371 0.3257455 -0.4918082
vn -0.3132026 0.2701624 0.9104486
v 0.2638923 0.2522104 -0.5396248
vn -0.1231539 0.3505663 0.9284053
v -0.1782561 -0.7879043 -0.4944026
vn -0.2568276 0.3805794 0.8883687
v -0.1471109 -0.6347322 -0.5488215
vn -0.2465493 -0.1274496 0.9607134
v 0.0214292 -0.0702086 -0.5211890
vn -0.2144372 -0.0234457 0.9764563
v 0.2422341 -0.1403982 -0.4799087
vn -0.2360335 0.0597122 0.9699086
v 0.1410734 -0.5635774 -0.5364432
vn -0.2595233 0.1870153 0.9474561
v -0.0665099 0.0988414 -0.5280483
vn -0.0064729 -0.1550686 0.9878826
v 0.2263123 -0.7288071 -0.5104948
vn 0.1159104 0.0865620 0.9894806
v 0.0756966 -0.8276148 -0.4981022
vn -0.3026863 -0.0534065 0.9515928
v 0.2579073 -0.4683029 -0.4928923
vn -0.2046160 0.1611257 0.9654899
v 0.2611876 0.0743153 -0.4936832
vn -0.3069014 -0.0812156 0.9482698
v 0.2203503 -0.2662468 -0.4952516
vn 0.0000000 0.0000000 0.0000000
v 0.9405810 0.6454908 -0.5082157
vn 0.3027451 -0.5091947 0.8056465
v 0.6528461 -0.4997329 -0.4601345
vn 0.1816699 -0.5568761 0.8104845
v 0.7374798 -0.4155526 -0.4303785
vn 0.0000000 0.0000000 0.0000000
v 0.7902553 -0.3808325 -0.4709145
vn 0.0000000 0.0000000 0.0000000
v 0.8528579 -0.2351036 -0.4717535
vn 0.2471814 -0.3454331 0.9053051
v -0.0155737 -0.9624199 -0.5031275
vn 0.1429567 0.0991422 0.9847509
v -0.0336353 -0.8861139 -0.4706782
vn 0.1546513 -0.0493384 0.9867364
v -0.1248505 -0.9173532 -0.4560950
vn -0.1273700 -0.2009540 0.9712849
v 0.3587230 -0.6060172 -0.4751386
vn 0.4474503 -0.4455808 0.7754006
v 0.8073772 -0.3458716 -0.4171196
vn 0.4474503 -0.4455808 0.7754006
v 0.8558679 -0.2682657 -0.4005056
vn 0.0000000 0.0000000 0.0000000
v 1.0863352 0.3371063 -0.3400006
vn 0.0000000 0.0000000 0.0000000
v 1.0258461 0.6215351 -0.4776800
vn 0.0918712 0.0941080 0.9913140
v -0.2581334 -0.9070412 -0.4447218
vn 0.0975701 -0.3848013 0.9178280
v 0.4897458 -0.6032027 -0.4734265
vn 0.0000000 0.0000000 0.0000000
v 0.9023232 -0.1773337 -0.4067840
vn -0.3577206 0.0595717 0.9319266
v 0.4974244 0.1550468 -0.4370098
vn -0.5473050 0.5708502 0.6120354
v 0.7073815 0.6584123 -0.4013742
vn 0.0000000 0.0000000 0.0000000
v 0.9105229 -0.0576419 -0.4893147
vn 0.3322569 -0.5486504 0.7671950
v 0.6253851 -0.5697915 -0.4983433
vn 0.1167360 -0.2276678 0.9667161
v -0.2137806 -0.9813645 -0.4604313
vn -0.2132831 0.0747948 0.9741232
v 0.3052824 -0.0725013 -0.4697864
vn -0.3414935 0.0895003 0.9356131
v 0.5390724 -0.0377197 -0.4168086
vn -0.2775589 0.0518897 0.9593063
v 0.3726810 -0.1663807 -0.4472332
vn 0.0000000 0.0000000 0.0000000
v 1.1080172 0.4136240 -0.3101367
vn 0.1189881 0.8707000 0.4772037
v 1.0158026 0.6139022 -0.3954597
vn 0.0000000 0.0000000 0.0000000
v 1.1027400 0.4960542 -0.3420258
vn 0.0000000 0.0000000 0.0000000
v 1.0794760 0.5712032 -0.3784628
vn -0.6167571 0.3349116 0.7123517
v 0.6457744 0.5673742 -0.3960515
vn 0.0736961 0.8277480 0.5562392
v 0.8943069 0.6231701 -0.3820756
vn -0.0018714 -0.4128384 0.9108024
v 0.7454019 -0.2992211 -0.3545488
vn -0.4912680 0.0154513 0.8708714
v 0.6806086 0.0824920 -0.3643640
vn -0.3067723 -0.0250592 0.9514530
v 0.5976757 -0.2154878 -0.3686912
vn -0.0949262 0.6921575 0.7154769
v 0.7702084 0.6497814 -0.3758888
vn 0.0000000 0.0000000 0.0000000
v 0.9958290 0.0463450 -0.3719852
vn -0.1089599 -0.2523349 0.9614858
v 0.4994818 -0.4523262 -0.4244279
vn -0.2444409 -0.1272288 0.9612812
v 0.5272818 -0.3312431 -0.3907590
vn -0.5134764 -0.0571265 0.8562001
v 0.6616215 0.2410214 -0.3559307
vn -0.4996451 0.1417244 0.8545578
v 0.5212367 0.3652548 -0.4446753
vn 0.2394915 -0.5901193 0.7709754
v 0.8779140 -0.2215206 -0.3362381
vn 0.0000000 0.0000000 0.0000000
v 1.0577818 0.2121990 -0.3488189
vn -0.3400410 0.5972112 0.7264372
v 0.8842358 0.5305018 -0.2549047
vn -0.6414899 -0.0668348 0.7642145
v 0.7967752 -0.0580831 -0.2522901
vn -0.4447913 -0.1626531 0.8807410
v 0.7442030 -0.1621247 -0.3019314
vn 0.0290097 -0.4818132 0.8757936
v 0.8950676 -0.1458972 -0.2630334
vn -0.6277184 0.0624582 0.7759308
v 0.7472758 0.0044504 -0.3122491
vn 0.0000000 0.0000000 0.0000000
v 0.9596155 -0.0872592 -0.3146692
vn -0.6724517 -0.0588547 0.7377973
v 0.7709743 0.1695324 -0.2926710
vn -0.6301094 0.0345822 0.7757359
v 0.7141684 0.3764924 -0.3084188
vn -0.3640865 0.4348025 0.8236430
v 0.7282652 0.5984377 -0.3317833
vn 0.0000000 0.0000000 0.0000000
v 1.1042634 0.3410412 -0.2358676
vn 0.0000000 0.0000000 0.0000000
v 1.0886282 0.2524654 -0.2494529
vn -0.3807644 -0.2387878 0.8933079
v 0.8625745 -0.0433540 -0.2055435
vn -0.6052444 0.2744734 0.7472239
v 0.8307269 0.4369886 -0.2030738
vn -0.0295439 0.8198553 0.5718080
v 0.9854928 0.5401652 -0.2533626
vn 0.0000000 0.0000000 0.0000000
v 1.0638419 0.5334775 -0.2806747
vn 0.0000000 0.0000000 0.0000000
v 1.0316539 0.0791659 -0.2295039
vn -0.2328189 -0.3771887 0.8963951
v 0.8133332 -0.1553385 -0.2655201
vn -0.4969636 0.2969324 0.8153884
v 0.7708901 0.5450280 -0.2968883
vn 0.0000000 0.0000000 0.0000000
v 1.1034909 0.4020515 -0.1947853
vn 0.0000000 0.0000000 0.0000000
v 1.0914193 0.2492286 -0.1672895
vn -0.6655958 -0.0378433 0.7453523
v 0.8496122 0.0824880 -0.2002806
vn -0.6968583 -0.0729597 0.7134883
v 0.8584346 0.2575295 -0.1844834
vn -0.5100160 0.4473484 0.7346857
v 0.9086279 0.4674503 -0.1646489
vn 0.0378430 -0.3986395 0.9163266
v 0.9484761 -0.0191565 -0.1985642
vn -0.5089591 0.0979420 0.8552006
v 0.9291315 0.3558616 -0.1039883
vn -0.3521893 -0.1204122 0.9281507
v 0.9991773 0.2696985 -0.0783658
vn 0.0000000 0.0000000 0.0000000
v 1.0653324 0.3039159 -0.0968601
vn -0.3478958 0.2489844 0.9038669
v 1.0050701 0.4105951 -0.0898370
vn 0.0000000 0.0000000 0.0000000
v 1.0634453 0.4322021 -0.1287119
vn -0.4156909 -0.1882586 0.8898088
v 0.9303282 0.1185636 -0.1379009
vn -0.0020221 -0.3657104 0.9307265
v 1.0192111 0.1254330 -0.1350086
# 300 vertices, 0 vertices normals

f 122//122 142//142 164//164
f 163//163 122//122 164//164
f 192//192 163//163 164//164
f 188//188 161//161 190//190
f 162//162 188//188 193//193
f 162//162 193//193 195//195
f 195//195 168//168 162//162
f 195//195 217//217 168//168
f 243//243 212//212 205//205
f 188//188 190//190 223//223
f 227//227 223//223 220//220
f 190//190 220//220 223//223
f 188//188 223//223 193//193
f 223//223 195//195 193//193
f 223//223 227//227 195//195
f 220//220 250//250 227//227
f 195//195 227//227 217//217
f 217//217 227//227 245//245
f 236//236 234//234 235//235
f 235//235 211//211 225//225
f 243//243 237//237 212//212
f 230//230 199//199 231//231
f 237//237 243//243 264//264
f 299//299 281//281 293//293
f 299//299 290//290 281//281
f 95//95 111//111 125//125
f 111//111 142//142 125//125
f 125//125 142//142 86//86
f 86//86 142//142 122//122
f 264//264 231//231 259//259
f 259//259 265//265 264//264
f 265//265 259//259 261//261
f 259//259 238//238 239//239
f 128//128 112//112 163//163
f 192//192 128//128 163//163
f 245//245 251//251 260//260
f 227//227 251//251 245//245
f 189//189 192//192 191//191
f 191//191 213//213 189//189
f 260//260 274//274 276//276
f 277//277 266//266 276//276
f 222//222 197//197 224//224
f 212//212 224//224 182//182
f 222//222 224//224 237//237
f 237//237 224//224 212//212
f 226//226 222//222 237//237
f 282//282 270//270 287//287
f 188//188 162//162 134//134
f 128//128 192//192 189//189
f 189//189 213//213 128//128
f 158//158 130//130 154//154
f 159//159 130//130 158//158
f 159//159 137//137 130//130
f 137//137 159//159 198//198
f 198//198 194//194 137//137
f 227//227 250//250 251//251
f 112//112 122//122 163//163
f 154//154 219//219 158//158
f 161//161 194//194 190//190
f 197//197 196//196 158//158
f 196//196 197//197 222//222
f 159//159 158//158 196//196
f 196//196 222//222 159//159
f 222//222 226//226 159//159
f 228//228 198//198 159//159
f 220//220 194//194 198//198
f 228//228 220//220 198//198
f 220//220 190//190 194//194
f 228//228 159//159 226//226
f 277//277 257//257 267//267
f 191//191 267//267 257//257
f 213//213 191//191 257//257
f 257//257 246//246 213//213
f 270//270 282//282 292//292
f 134//134 162//162 118//118
f 168//168 142//142 162//162
f 118//118 162//162 142//142
f 142//142 111//111 118//118
f 168//168 164//164 142//142
f 217//217 164//164 168//168
f 164//164 191//191 192//192
f 236//236 242//242 249//249
f 218//218 242//242 236//236
f 249//249 234//234 236//236
f 235//235 218//218 236//236
f 235//235 225//225 218//218
f 218//218 154//154 186//186
f 154//154 218//218 219//219
f 197//197 218//218 225//225
f 219//219 218//218 197//197
f 219//219 197//197 158//158
f 224//224 197//197 225//225
f 225//225 182//182 224//224
f 164//164 217//217 267//267
f 297//297 294//294 295//295
f 261//261 259//259 272//272
f 272//272 259//259 286//286
f 286//286 259//259 268//268
f 261//261 272//272 274//274
f 272//272 271//271 274//274
f 287//287 257//257 277//277
f 287//287 278//278 257//257
f 287//287 262//262 278//278
f 246//246 257//257 278//278
f 246//246 278//278 262//262
f 245//245 267//267 217//217
f 191//191 164//164 267//267
f 245//245 260//260 266//266
f 261//261 274//274 251//251
f 274//274 260//260 251//251
f 266//266 260//260 276//276
f 245//245 266//266 267//267
f 277//277 267//267 266//266
f 290//290 299//299 291//291
f 291//291 299//299 294//294
f 294//294 282//282 291//291
f 294//294 292//292 282//282
f 299//299 300//300 295//295
f 295//295 294//294 299//299
f 297//297 292//292 294//294
f 228//228 252//252 221//221
f 228//228 221//221 220//220
f 250//250 220//220 221//221
f 230//230 243//243 248//248
f 230//230 264//264 243//243
f 226//226 237//237 264//264
f 228//228 226//226 264//264
f 264//264 265//265 228//228
f 231//231 264//264 230//230
f 230//230 248//248 199//199
f 261//261 228//228 265//265
f 252//252 228//228 261//261
f 221//221 252//252 250//250
f 252//252 261//261 251//251
f 251//251 250//250 252//252
f 272//272 286//286 271//271
f 281//281 286//286 273//273
f 271//271 286//286 281//281
f 281//281 290//290 271//271
f 290//290 274//274 271//271
f 276//276 274//274 290//290
f 290//290 291//291 276//276
f 291//291 277//277 276//276
f 282//282 287//287 277//277
f 282//282 277//277 291//291
# 145 faces, 0 coords texture

# End of File
