####
#
# OBJ File Generated by Meshlab
#
####
# Object cake_part09_seg_04.obj
#
# Vertices: 242
# Faces: 83
#
####
vn 0.000000 0.000000 0.000000
v -0.401096 -0.201944 0.361115
vn 0.000000 0.000000 0.000000
v -0.486121 -0.149475 0.372197
vn 0.000000 0.000000 0.000000
v -0.565658 -0.100669 0.418390
vn 0.000000 0.000000 0.000000
v -0.430606 -0.368856 0.390078
vn 0.000000 0.000000 0.000000
v -0.400260 -0.109037 0.394278
vn 0.000000 0.000000 0.000000
v -0.327991 -0.380536 0.400327
vn 0.000000 0.000000 0.000000
v 0.293048 -0.120349 0.446872
vn 0.000000 0.000000 0.000000
v 0.199710 -0.065062 0.512637
vn 0.000000 0.000000 0.000000
v 0.380187 -0.080410 0.465925
vn 0.000000 0.000000 0.000000
v -0.304511 -0.473416 0.535240
vn 0.000000 0.000000 0.000000
v -0.582905 -0.017720 0.467640
vn 0.000000 0.000000 0.000000
v -0.238793 -0.443522 0.465676
vn 0.000000 0.000000 0.000000
v -0.538617 -0.279081 0.418767
vn 0.000000 0.000000 0.000000
v -0.293869 -0.079138 0.503443
vn 0.000000 0.000000 0.000000
v -0.653010 -0.164032 0.484328
vn 0.000000 0.000000 0.000000
v -0.276522 -0.190114 0.429946
vn 0.000000 0.000000 0.000000
v 0.407980 -0.256366 0.512484
vn 0.000000 0.000000 0.000000
v -0.193400 -0.363964 0.456615
vn 0.000000 0.000000 0.000000
v 0.237145 -0.310572 0.462621
vn 0.000000 0.000000 0.000000
v 0.333833 -0.283734 0.457508
vn 0.000000 0.000000 0.000000
v -0.141636 -0.456853 0.508001
vn 0.000000 0.000000 0.000000
v 0.255272 -0.018812 0.540095
vn 0.000000 0.000000 0.000000
v 0.324242 -0.026300 0.491556
vn 0.000000 0.000000 0.000000
v -0.659410 -0.036745 0.488036
vn 0.000000 0.000000 0.000000
v 0.344527 -0.407654 0.527459
vn 0.000000 0.000000 0.000000
v -0.474679 -0.029690 0.480295
vn 0.000000 0.000000 0.000000
v -0.006665 -0.410221 0.508547
vn 0.000000 0.000000 0.000000
v 0.118555 -0.338971 0.491803
vn 0.000000 0.000000 0.000000
v 0.134044 -0.170495 0.499350
vn 0.000000 0.000000 0.000000
v -0.063580 -0.188662 0.508315
vn 0.000000 0.000000 0.000000
v 0.219498 -0.428893 0.512410
vn 0.000000 0.000000 0.000000
v 0.456124 -0.107878 0.591331
vn 0.000000 0.000000 0.000000
v 0.055253 -0.083392 0.585290
vn 0.000000 0.000000 0.000000
v -0.609799 -0.493296 0.677465
vn 0.000000 0.000000 0.000000
v -0.671272 -0.451507 0.592530
vn 0.000000 0.000000 0.000000
v 0.395540 -0.033157 0.606286
vn 0.000000 0.000000 0.000000
v 0.403858 -0.387782 0.611329
vn 0.000000 0.000000 0.000000
v -0.529547 -0.433549 0.501013
vn 0.000000 0.000000 0.000000
v 0.405458 -0.139521 0.475574
vn 0.000000 0.000000 0.000000
v 0.292754 -0.459661 0.620702
vn 0.000000 0.000000 0.000000
v 0.459228 -0.229447 0.627776
vn 0.000000 0.000000 0.000000
v -0.664040 -0.331736 0.549612
vn 0.000000 0.000000 0.000000
v 0.015559 -0.483454 0.627645
vn 0.000000 0.000000 0.000000
v -0.786223 -0.177034 0.604463
vn 0.000000 0.000000 0.000000
v -0.041771 -0.033204 0.729877
vn 0.000000 0.000000 0.000000
v -0.564198 0.034666 0.578043
vn 0.000000 0.000000 0.000000
v -0.773267 -0.050988 0.560742
vn 0.000000 0.000000 0.000000
v -0.787620 0.045820 0.609656
vn 0.000000 0.000000 0.000000
v 0.460415 -0.174963 0.711762
vn 0.000000 0.000000 0.000000
v -0.138725 -0.061716 0.615649
vn 0.000000 0.000000 0.000000
v -0.364197 0.007394 0.652488
vn 0.000000 0.000000 0.000000
v 0.163643 -0.028482 0.655169
vn 0.000000 0.000000 0.000000
v -0.767144 -0.476270 0.681975
vn 0.000000 0.000000 0.000000
v -0.770586 -0.416302 0.646992
vn 0.000000 0.000000 0.000000
v 0.302568 -0.014515 0.607852
vn 0.000000 0.000000 0.000000
v 0.437566 -0.084269 0.738297
vn 0.000000 0.000000 0.000000
v 0.403212 -0.376605 0.715785
vn 0.000000 0.000000 0.000000
v -0.985101 -0.011767 0.665748
vn 0.000000 0.000000 0.000000
v -0.968510 0.082969 0.673533
vn 0.000000 0.000000 0.000000
v -1.162152 0.116075 0.714544
vn -0.820448 0.487635 -0.298457
v -1.246539 0.204473 0.804573
vn 0.000000 0.000000 0.000000
v -0.914119 -0.433308 0.751243
vn 0.000000 0.000000 0.000000
v -0.345698 -0.499538 0.798811
vn -0.864799 0.370071 -0.339366
v -1.300732 0.073291 0.789512
vn 0.000000 0.000000 0.000000
v 0.082053 -0.002750 0.800218
vn 0.000000 0.000000 0.000000
v 0.326373 -0.027693 0.771423
vn 0.000000 0.000000 0.000000
v -1.151188 0.192457 0.762405
vn 0.000000 0.000000 0.000000
v 0.400655 -0.208608 0.842609
vn 0.000000 0.000000 0.000000
v -1.166728 -0.112600 0.771923
vn 0.000000 0.000000 0.000000
v 0.341958 -0.405534 0.836240
vn 0.000000 0.000000 0.000000
v -0.977756 -0.135687 0.697204
vn 0.000000 0.000000 0.000000
v -1.228322 -0.001334 0.753016
vn 0.000000 0.000000 0.000000
v -0.864302 -0.299910 0.695962
vn 0.000000 0.000000 0.000000
v -1.044250 0.154473 0.731301
vn 0.000000 0.000000 0.000000
v -0.868886 0.120196 0.725604
vn 0.000000 0.000000 0.000000
v -1.048630 -0.354104 0.816232
vn 0.000000 0.000000 0.000000
v -1.100164 -0.232978 0.805608
vn 0.000000 0.000000 0.000000
v -1.033358 -0.454754 0.837560
vn 0.000000 0.000000 0.000000
v -0.882955 -0.489148 0.801149
vn 0.000000 0.000000 0.000000
v -0.067004 0.007109 0.826495
vn -0.956994 0.289575 0.017597
v -1.340254 0.030740 0.848303
vn 0.000000 0.000000 0.000000
v -1.122859 0.252814 0.892407
vn 0.000000 0.000000 0.000000
v 0.233035 -0.470962 0.790038
vn 0.000000 0.000000 0.000000
v -1.003368 0.200148 0.847791
vn 0.000000 0.000000 0.000000
v 0.328850 -0.041915 0.930899
vn 0.000000 0.000000 0.000000
v -0.944631 0.171374 0.796327
vn 0.000000 0.000000 0.000000
v -0.659766 0.105054 0.746305
vn 0.000000 0.000000 0.000000
v -0.544501 0.120525 0.890746
vn -0.903374 0.428069 0.025922
v -1.298430 0.166700 0.885505
vn -0.781407 0.599631 0.172758
v -1.236475 0.255837 0.899351
vn 0.000000 0.000000 0.000000
v -0.201392 0.020425 0.813823
vn 0.000000 0.000000 0.000000
v -1.035154 -0.482175 0.968429
vn 0.000000 0.000000 0.000000
v -0.431415 0.069285 0.821020
vn 0.000000 0.000000 0.000000
v -0.173026 -0.494176 0.913767
vn 0.000000 0.000000 0.000000
v -1.245996 -0.241920 0.897219
vn 0.000000 0.000000 0.000000
v -1.307452 -0.123718 0.873008
vn -0.920483 0.205883 0.332150
v -1.337312 -0.021574 0.916793
vn 0.000000 0.000000 0.000000
v 0.181944 0.006508 0.963964
vn 0.000000 0.000000 0.000000
v -0.786412 -0.497048 0.920793
vn 0.000000 0.000000 0.000000
v -1.132770 -0.441312 0.907784
vn 0.000000 0.000000 0.000000
v 0.389102 -0.081293 0.865437
vn 0.000000 0.000000 0.000000
v -1.231120 -0.182152 0.834008
vn 0.000000 0.000000 0.000000
v -0.806347 0.172718 0.886428
vn 0.000000 0.000000 0.000000
v 0.358384 -0.115978 1.010864
vn 0.000000 0.000000 0.000000
v -0.033693 0.040376 0.930231
vn -0.825360 0.287909 0.485684
v -1.275778 0.075685 1.017236
vn 0.000000 0.000000 0.000000
v -1.156368 -0.470270 1.023613
vn 0.000000 0.000000 0.000000
v -1.202035 -0.337609 0.923802
vn -0.907472 0.142920 0.395055
v -1.317473 -0.165104 1.025970
vn 0.000000 0.000000 0.000000
v 0.321449 -0.326562 0.957515
vn 0.000000 0.000000 0.000000
v 0.241496 -0.437465 0.952337
vn 0.000000 0.000000 0.000000
v -0.435386 0.123687 0.990486
vn 0.000000 0.000000 0.000000
v -1.303682 -0.272504 0.983738
vn 0.000000 0.000000 0.000000
v -0.261253 0.102182 0.993044
vn 0.000000 0.000000 0.000000
v 0.171489 -0.438339 1.029755
vn -0.468173 0.728500 0.500101
v -1.166000 0.274176 0.981520
vn -0.255574 0.858804 0.444002
v -1.056084 0.275623 1.017785
vn 0.000000 0.000000 0.000000
v -0.920248 0.238824 0.976628
vn 0.000000 0.000000 0.000000
v -1.227252 -0.432366 0.988952
vn 0.000000 0.000000 0.000000
v 0.206640 -0.370734 1.069945
vn 0.000000 0.000000 0.000000
v -0.724965 0.215980 1.052081
vn 0.000000 0.000000 0.000000
v -1.260161 -0.439572 1.102456
vn -0.966297 -0.017449 0.256838
v -1.305124 -0.360397 1.059163
vn -0.767606 0.273642 0.579570
v -1.237210 -0.099506 1.162371
vn 0.000000 0.000000 0.000000
v -0.921200 0.291723 1.089063
vn 0.000000 0.000000 0.000000
v -0.570056 0.180562 1.069646
vn -0.682640 0.515333 0.518107
v -1.223331 0.209689 1.005274
vn 0.000000 0.000000 0.000000
v 0.306623 -0.208772 1.084892
vn 0.000000 0.000000 0.000000
v 0.320397 -0.089337 1.189982
vn -0.870199 0.140518 0.472238
v -1.266379 -0.334482 1.206695
vn 0.000000 0.000000 0.000000
v 0.118827 -0.427483 1.188901
vn 0.000000 0.000000 0.000000
v -0.598753 -0.490773 1.072655
vn 0.000000 0.000000 0.000000
v 0.225169 -0.006140 1.227240
vn 0.000000 0.000000 0.000000
v 0.305593 -0.033067 1.089303
vn 0.000000 0.000000 0.000000
v -0.791029 0.289864 1.129321
vn -0.501853 0.712096 0.490982
v -0.868134 0.312676 1.184224
vn 0.000000 0.000000 0.000000
v -1.297685 -0.396062 1.145998
vn -0.424288 0.662768 0.617024
v -1.121744 0.228647 1.070851
vn 0.000000 0.000000 0.000000
v -0.638215 0.213418 1.114427
vn 0.000000 0.000000 0.000000
v -0.303688 -0.486408 1.163537
vn 0.000000 0.000000 0.000000
v -0.119530 0.108948 1.133423
vn 0.000000 0.000000 0.000000
v 0.052068 -0.465252 1.060776
vn 0.000000 0.000000 0.000000
v -0.908645 -0.467062 1.211383
vn 0.000000 0.000000 0.000000
v -0.295188 0.161278 1.168356
vn 0.000000 0.000000 0.000000
v -1.107058 -0.439185 1.264523
vn 0.000000 0.000000 0.000000
v 0.292464 -0.170487 1.186368
vn 0.000000 0.000000 0.000000
v -1.242739 -0.422662 1.212147
vn 0.000000 0.000000 0.000000
v 0.037864 0.053291 1.131540
vn 0.000000 0.000000 0.000000
v 0.219900 -0.312892 1.198897
vn 0.000000 0.000000 0.000000
v -0.636197 0.282521 1.224865
vn 0.000000 0.000000 0.000000
v -1.182172 -0.396196 1.320008
vn 0.000000 0.000000 0.000000
v -0.514953 0.291911 1.343696
vn -0.371959 0.758671 0.534850
v -0.748479 0.324596 1.270506
vn 0.000000 0.000000 0.000000
v 0.099429 0.037800 1.300665
vn 0.000000 0.000000 0.000000
v -0.098202 0.120406 1.297561
vn -0.526048 0.566503 0.634309
v -0.991719 0.242380 1.147638
vn -0.551107 0.563586 0.615347
v -0.843966 0.254066 1.293933
vn 0.000000 0.000000 0.000000
v 0.306274 -0.161309 1.270950
vn -0.575274 0.407887 0.709005
v -1.141608 0.054954 1.171180
vn 0.000000 0.000000 0.000000
v -0.566953 -0.474893 1.323559
vn 0.000000 0.000000 0.000000
v -0.538907 -0.464359 1.479485
vn 0.000000 0.000000 0.000000
v 0.327575 -0.155123 1.366257
vn -0.570254 0.280667 0.772034
v -1.151575 -0.296221 1.337201
vn -0.530508 0.358344 0.768213
v -1.116803 -0.161523 1.301868
vn 0.000000 0.000000 0.000000
v 0.006593 -0.467412 1.296091
vn -0.371035 0.586773 0.719743
v -0.747824 0.251055 1.372063
vn 0.000000 0.000000 0.000000
v 0.312307 -0.075413 1.340580
vn -0.547303 0.306498 0.778793
v -0.929034 -0.105553 1.383219
vn -0.581194 0.374639 0.722398
v -0.947646 0.090692 1.283229
vn 0.000000 0.000000 0.000000
v -0.935341 -0.430355 1.381597
vn 0.000000 0.000000 0.000000
v -0.313383 -0.468386 1.430753
vn -0.280185 0.778340 0.561857
v -0.397225 0.274142 1.394644
vn 0.000000 0.000000 0.000000
v -0.301896 0.250504 1.405389
vn 0.000000 0.000000 0.000000
v -0.782622 -0.455561 1.365514
vn -0.179589 0.646446 0.741522
v -0.647335 0.291201 1.360214
vn 0.000000 0.000000 0.000000
v 0.254284 -0.380316 1.514366
vn 0.000000 0.000000 0.000000
v 0.026794 0.069274 1.344067
vn 0.000000 0.000000 0.000000
v -0.390422 0.243073 1.282277
vn 0.000000 0.000000 0.000000
v -0.417255 -0.459937 1.541780
vn -0.203790 0.551802 0.808693
v -0.494614 0.193118 1.458322
vn 0.000000 0.000000 0.000000
v 0.153657 -0.433760 1.426834
vn 0.000000 0.000000 0.000000
v -0.201488 0.184768 1.361719
vn 0.000000 0.000000 0.000000
v 0.276758 -0.289863 1.381171
vn -0.441002 0.177753 0.879728
v -1.042788 -0.383166 1.409303
vn -0.481829 0.219940 0.848214
v -0.962933 -0.287866 1.430078
vn 0.000000 0.000000 0.000000
v -0.666023 -0.465720 1.468258
vn 0.000000 0.000000 0.000000
v -0.748751 -0.441916 1.508462
vn -0.308289 0.543026 0.781076
v -0.327821 0.228963 1.491841
vn 0.000000 0.000000 0.000000
v -0.021089 -0.462856 1.481230
vn -0.531555 0.345931 0.773163
v -0.770713 0.040526 1.461122
vn 0.000000 0.000000 0.000000
v -0.015276 0.113431 1.469692
vn -0.222649 0.548380 0.806044
v -0.197617 0.228565 1.543108
vn 0.000000 0.000000 0.000000
v -0.589199 -0.446104 1.569393
vn 0.000000 0.000000 0.000000
v 0.174856 -0.426416 1.691392
vn -0.606052 0.117676 0.786673
v -0.815866 -0.285793 1.521466
vn 0.000000 0.000000 0.000000
v -0.120906 0.201756 1.508044
vn -0.588589 0.250869 0.768523
v -0.760419 -0.121044 1.529544
vn 0.000000 0.000000 0.000000
v 0.168708 0.007809 1.446543
vn 0.000000 0.000000 0.000000
v 0.288648 -0.069832 1.498483
vn -0.252630 0.464003 0.849046
v -0.651877 0.095994 1.494698
vn 0.000000 0.000000 0.000000
v -0.236778 0.244226 1.467484
vn -0.271590 0.410733 0.870367
v -0.354841 0.043500 1.579775
vn 0.000000 0.000000 0.000000
v 0.309511 -0.154912 1.494827
vn -0.371524 0.344591 0.862106
v -0.650834 -0.148744 1.612617
vn 0.000000 0.000000 0.000000
v -0.643445 -0.434083 1.621276
vn -0.297564 0.305852 0.904384
v -0.173563 -0.010110 1.670394
vn 0.000000 0.000000 0.000000
v -0.272737 -0.444201 1.601369
vn 0.000000 0.000000 0.000000
v 0.066836 0.084684 1.576724
vn 0.093672 0.598806 0.795398
v -0.065256 0.164015 1.585926
vn 0.000000 0.000000 0.000000
v 0.256752 -0.368867 1.657079
vn 0.000000 0.000000 0.000000
v 0.197329 -0.008366 1.590741
vn -0.522099 -0.128799 0.843103
v -0.858233 -0.389092 1.479450
vn 0.000000 0.000000 0.000000
v -0.452188 -0.422613 1.641698
vn 0.000000 0.000000 0.000000
v 0.280658 -0.140664 1.622326
vn -0.610456 0.019338 0.791815
v -0.714621 -0.386536 1.616224
vn -0.555335 0.148157 0.818323
v -0.692068 -0.280684 1.631026
vn 0.000000 0.000000 0.000000
v 0.055084 -0.457317 1.642848
vn -0.132234 0.508954 0.850577
v -0.155134 0.133011 1.619851
vn -0.170907 0.271093 0.947259
v -0.297772 -0.184087 1.675187
vn 0.325082 0.450089 0.831710
v 0.218306 -0.072712 1.655553
vn 0.049182 0.236227 0.970452
v -0.318709 -0.308705 1.706582
vn -0.158225 0.380125 0.911301
v -0.517668 -0.180919 1.659251
vn 0.162985 0.513267 0.842611
v 0.049973 0.024791 1.668583
vn 0.000000 0.000000 0.000000
v 0.283260 -0.259087 1.582512
vn 0.000000 0.000000 0.000000
v -0.547939 -0.415750 1.693343
vn -0.082585 0.323052 0.942771
v -0.447192 -0.316388 1.718863
vn 0.000000 0.000000 0.000000
v -0.056524 -0.444391 1.663210
vn 0.394039 0.376926 0.838248
v 0.191694 -0.214339 1.742598
vn 0.000000 0.000000 0.000000
v -0.388760 -0.371689 1.711398
vn 0.000000 0.000000 0.000000
v 0.048222 -0.439058 1.727400
vn 0.000000 0.000000 0.000000
v -0.484584 -0.385308 1.721925
vn 0.000000 0.000000 0.000000
v 0.256455 -0.287625 1.693198
vn -0.152793 -0.005980 0.988240
v 0.069874 -0.391497 1.798661
vn -0.336356 0.236596 0.911530
v -0.581187 -0.350662 1.704099
vn -0.263575 0.066867 0.962319
v -0.214019 -0.369627 1.719387
vn 0.241188 0.443526 0.863199
v 0.079091 -0.133886 1.759444
vn -0.107786 0.376624 0.920074
v -0.016814 -0.084708 1.739454
vn -0.269697 -0.107042 0.956977
v -0.019231 -0.395466 1.774197
vn 0.000000 0.000000 0.000000
v 0.224286 -0.356878 1.749781
vn -0.252810 0.067361 0.965168
v -0.032561 -0.278651 1.783507
vn 0.079492 0.103347 0.991464
v 0.145637 -0.350553 1.804565
vn 0.086155 0.206005 0.974751
v 0.083739 -0.239600 1.800585
# 242 vertices, 0 vertices normals

f 226//226 222//222 234//234
f 168//168 159//159 164//164
f 156//156 159//159 169//169
f 157//157 136//136 156//156
f 188//188 180//180 202//202
f 218//218 223//223 209//209
f 200//200 175//175 166//166
f 237//237 218//218 206//206
f 223//223 218//218 237//237
f 106//106 124//124 159//159
f 159//159 127//127 106//106
f 116//116 127//127 138//138
f 156//156 117//117 138//138
f 218//218 202//202 206//206
f 192//192 188//188 218//218
f 188//188 202//202 218//218
f 218//218 209//209 192//192
f 206//206 240//240 237//237
f 195//195 185//185 212//212
f 202//202 219//219 206//206
f 190//190 166//166 157//157
f 166//166 190//190 200//200
f 180//180 175//175 200//200
f 168//168 164//164 185//185
f 164//164 163//163 185//185
f 188//188 172//172 180//180
f 240//240 242//242 237//237
f 163//163 124//124 130//130
f 163//163 164//164 124//124
f 159//159 124//124 164//164
f 185//185 163//163 184//184
f 168//168 185//185 195//195
f 195//195 197//197 168//168
f 168//168 197//197 190//190
f 180//180 200//200 222//222
f 222//222 202//202 180//180
f 202//202 222//222 219//219
f 204//204 200//200 190//190
f 169//169 159//159 168//168
f 168//168 190//190 169//169
f 157//157 169//169 190//190
f 157//157 156//156 169//169
f 166//166 153//153 157//157
f 240//240 219//219 235//235
f 240//240 206//206 219//219
f 138//138 127//127 159//159
f 159//159 156//156 138//138
f 215//215 216//216 195//195
f 216//216 197//197 195//195
f 190//190 197//197 204//204
f 197//197 216//216 204//204
f 200//200 204//204 222//222
f 226//226 219//219 222//222
f 234//234 216//216 215//215
f 204//204 216//216 234//234
f 204//204 234//234 222//222
f 89//89 90//90 61//61
f 89//89 81//81 97//97
f 153//153 136//136 157//157
f 89//89 64//64 81//81
f 89//89 61//61 64//64
f 106//106 109//109 124//124
f 117//117 116//116 138//138
f 235//235 238//238 240//240
f 236//236 237//237 242//242
f 228//228 242//242 241//241
f 242//242 228//228 236//236
f 106//106 97//97 109//109
f 106//106 89//89 97//97
f 106//106 127//127 89//89
f 90//90 89//89 127//127
f 127//127 116//116 90//90
f 237//237 236//236 223//223
f 130//130 109//109 123//123
f 124//124 109//109 130//130
f 175//175 153//153 166//166
f 219//219 221//221 235//235
f 236//236 228//228 223//223
f 228//228 220//220 223//223
f 226//226 221//221 219//219
f 240//240 238//238 233//233
f 241//241 240//240 233//233
f 242//242 240//240 241//241
# 83 faces, 0 coords texture

# End of File
