####
#
# OBJ File Generated by Meshlab
#
####
# Object cake_part10_seg_00.obj
#
# Vertices: 221
# Faces: 154
#
####
vn 0.000000 0.000000 0.000000
v -0.488020 0.478888 0.297530
vn 0.000000 0.000000 0.000000
v -0.394202 0.530001 0.357946
vn 0.000000 0.000000 0.000000
v -0.487859 0.300810 0.305102
vn 0.000000 0.000000 0.000000
v -0.578013 0.366426 0.314214
vn 0.000000 0.000000 0.000000
v -0.677818 0.420110 0.368437
vn 0.000000 0.000000 0.000000
v -0.361095 0.400029 0.370236
vn 0.000000 0.000000 0.000000
v -0.487781 0.136009 0.353548
vn 0.000000 0.000000 0.000000
v -0.612834 0.532691 0.327560
vn -0.155368 0.723020 -0.673129
v -0.662089 0.624148 0.345656
vn 0.282499 0.779559 -0.559001
v -0.493290 0.592192 0.345574
vn 0.000000 0.000000 0.000000
v -0.422130 0.225175 0.337314
vn 0.000000 0.000000 0.000000
v -0.410455 0.126872 0.364577
vn 0.000000 0.000000 0.000000
v -0.398449 0.047126 0.411182
vn 0.250620 0.857886 -0.448576
v -0.485413 0.649577 0.430437
vn 0.056245 0.939672 -0.337421
v -0.600108 0.659402 0.390656
vn -0.468856 0.557597 -0.685026
v -0.852556 0.608339 0.448782
vn 0.000000 0.000000 0.000000
v -0.575058 0.058838 0.424474
vn 0.000000 0.000000 0.000000
v -0.606221 0.210100 0.378495
vn 0.295954 0.736879 -0.607799
v -0.311633 0.580898 0.431324
vn -0.442105 0.453639 -0.773793
v -0.738089 0.600365 0.369201
vn 0.000000 0.000000 0.000000
v -0.689327 0.072216 0.492938
vn 0.000000 0.000000 0.000000
v -0.389371 -0.000586 0.474793
vn 0.000000 0.000000 0.000000
v -0.764196 0.487691 0.407508
vn 0.000000 0.000000 0.000000
v -0.743783 0.172990 0.483802
vn 0.000000 0.000000 0.000000
v -0.259704 0.064396 0.460792
vn 0.259588 0.834085 -0.486741
v -0.356803 0.628306 0.468818
vn -0.254679 0.804395 -0.536738
v -0.728335 0.658223 0.397547
vn 0.000000 0.000000 0.000000
v -0.724040 0.311046 0.430271
vn 0.000000 0.000000 0.000000
v -0.945612 0.489794 0.501974
vn 0.000000 0.000000 0.000000
v -0.331402 0.168302 0.399857
vn 0.000000 0.000000 0.000000
v -0.274311 0.504928 0.426043
vn 0.000000 0.000000 0.000000
v -0.287625 0.442574 0.416517
vn 0.000000 0.000000 0.000000
v -0.519517 0.013097 0.483206
vn 0.000000 0.000000 0.000000
v -0.631599 0.041278 0.507299
vn 0.000000 0.000000 0.000000
v -0.299364 -0.000153 0.561826
vn -0.298194 0.907497 -0.295853
v -0.852270 0.660551 0.496236
vn 0.000000 0.000000 0.000000
v -0.094812 0.216574 0.501005
vn -0.578804 0.374653 -0.724307
v -0.997518 0.574219 0.529772
vn 0.000000 0.000000 0.000000
v -0.867256 0.363574 0.489963
vn -0.291932 0.886741 -0.358423
v -0.791114 0.665176 0.453671
vn 0.000000 0.000000 0.000000
v -0.105945 0.492303 0.496934
vn 0.099164 0.962605 -0.252106
v -0.525883 0.674364 0.473426
vn 0.000000 0.000000 0.000000
v 0.051018 0.299060 0.564849
vn 0.152131 0.964437 -0.216143
v -0.406209 0.678097 0.561658
vn 0.000000 0.000000 0.000000
v -0.688479 0.055169 0.553116
vn 0.000000 0.000000 0.000000
v -0.476966 0.025117 0.591191
vn 0.000000 0.000000 0.000000
v 0.060839 0.370727 0.548770
vn -0.485857 0.752825 -0.444070
v -0.966107 0.626073 0.531492
vn 0.000000 0.000000 0.000000
v 0.000644 0.066737 0.580055
vn 0.000000 0.000000 0.000000
v 0.019370 0.179556 0.558255
vn 0.000000 0.000000 0.000000
v -0.163136 -0.004193 0.516668
vn 0.000000 0.000000 0.000000
v -0.009338 0.301762 0.522167
vn 0.000000 0.000000 0.000000
v -0.131006 0.081764 0.498678
vn 0.000000 0.000000 0.000000
v -0.185277 0.331099 0.468046
vn 0.000000 0.000000 0.000000
v -0.034875 0.095800 0.526184
vn 0.000000 0.000000 0.000000
v 0.038103 0.493422 0.547922
vn 0.000000 0.000000 0.000000
v -0.805862 0.274574 0.493888
vn 0.290588 0.673065 -0.680104
v -0.168885 0.565795 0.488224
vn 0.250355 0.793337 -0.554923
v -0.032805 0.574677 0.536423
vn -0.102360 0.965137 0.240901
v -0.784323 0.649832 0.606493
vn -0.189421 0.979736 0.065098
v -0.725807 0.661179 0.591081
vn -0.074728 0.993885 -0.081296
v -0.660039 0.674538 0.500071
vn 0.000000 0.000000 0.000000
v -0.078820 -0.028975 0.609303
vn 0.000000 0.000000 0.000000
v -0.830250 0.124913 0.562550
vn 0.025031 0.995794 -0.088140
v -0.520024 0.694510 0.580996
vn 0.000000 0.000000 0.000000
v -0.753001 0.073738 0.552624
vn -0.731167 0.681737 -0.025107
v -1.040687 0.590198 0.577120
vn 0.000000 0.000000 0.000000
v -0.133162 -0.026525 0.582833
vn 0.000000 0.000000 0.000000
v 0.064017 0.389491 0.598453
vn 0.000000 0.000000 0.000000
v 0.054963 0.514928 0.611851
vn -0.195180 0.969734 0.146698
v -0.881955 0.651107 0.573087
vn 0.219201 0.823422 -0.523380
v -0.147530 0.623484 0.554440
vn 0.000000 0.000000 0.000000
v -0.988670 0.404789 0.554875
vn 0.000000 0.000000 0.000000
v -0.913809 0.124515 0.644123
vn 0.000000 0.000000 0.000000
v -0.646847 0.072648 0.647769
vn 0.267704 0.824522 -0.498495
v 0.010929 0.599652 0.600118
vn -0.676244 0.736334 0.022492
v -1.070678 0.524910 0.613431
vn 0.000000 0.000000 0.000000
v -0.054108 -0.003504 0.572999
vn -0.527568 0.835976 0.151052
v -1.017098 0.608771 0.604907
vn 0.000000 0.000000 0.000000
v -0.778027 0.081981 0.611929
vn 0.123589 0.950196 -0.286100
v -0.235608 0.664750 0.612457
vn 0.000000 0.000000 0.000000
v -1.059806 0.362432 0.615930
vn 0.000000 0.000000 0.000000
v -1.127890 0.447326 0.652461
vn 0.000000 0.000000 0.000000
v -1.010176 0.201225 0.634470
vn 0.000000 0.000000 0.000000
v -0.919432 0.265967 0.558025
vn 0.268357 0.918371 -0.290826
v -0.017335 0.649467 0.668287
vn 0.000000 0.000000 0.000000
v 0.026009 0.580061 0.694620
vn 0.000000 0.000000 0.000000
v -0.454988 0.054286 0.778155
vn -0.794871 0.594946 -0.119244
v -1.174759 0.442578 0.703378
vn -0.570402 0.820325 0.041347
v -1.121132 0.519528 0.687147
vn -0.407813 0.872263 0.269900
v -1.019835 0.572157 0.712463
vn 0.000000 0.000000 0.000000
v 0.027273 0.219527 0.657542
vn 0.000000 0.000000 0.000000
v 0.016796 0.513802 0.747256
vn 0.000000 0.000000 0.000000
v -0.844093 0.120308 0.724013
vn 0.000000 0.000000 0.000000
v -1.155970 0.308412 0.674613
vn 0.000000 0.000000 0.000000
v -1.130540 0.217973 0.700842
vn -0.277444 0.943059 0.183477
v -0.808989 0.630191 0.696035
vn 0.041860 0.996129 -0.077293
v -0.318462 0.683207 0.699806
vn 0.000000 0.000000 0.000000
v -0.557328 0.068827 0.709376
vn 0.000000 0.000000 0.000000
v -1.203811 0.267908 0.729160
vn 0.000000 0.000000 0.000000
v -0.224858 -0.008268 0.630770
vn -0.053168 0.990332 -0.128125
v -0.255360 0.687029 0.778417
vn 0.000000 0.000000 0.000000
v -1.247182 0.300144 0.773468
vn -0.935047 0.354447 0.007431
v -1.227416 0.363573 0.755509
vn -0.785836 0.614822 0.066744
v -1.195867 0.440073 0.777593
vn 0.000000 0.000000 0.000000
v -0.107722 -0.006601 0.710472
vn -0.010826 0.986858 -0.161225
v -0.204869 0.683034 0.710261
vn 0.000000 0.000000 0.000000
v -0.024179 0.051405 0.700628
vn 0.000000 0.000000 0.000000
v -1.003489 0.166977 0.711012
vn 0.000000 0.000000 0.000000
v 0.040887 0.425142 0.696038
vn 0.000000 0.000000 0.000000
v -1.120963 0.226396 0.787796
vn -0.183751 0.982783 0.019329
v -0.642100 0.686210 0.673667
vn -0.011488 0.998350 0.056260
v -0.507602 0.695473 0.724108
vn 0.000000 0.000000 0.000000
v -0.301842 0.034256 0.814295
vn -0.068235 0.991048 -0.114751
v -0.322884 0.689129 0.804051
vn -0.304808 0.896365 0.321904
v -0.897372 0.579726 0.772716
vn 0.000000 0.000000 0.000000
v 0.008738 0.308329 0.788673
vn 0.219563 0.964215 -0.148599
v -0.108777 0.682918 0.712573
vn 0.000000 0.000000 0.000000
v -1.217199 0.270130 0.803505
vn -0.578799 0.783587 0.225794
v -1.135177 0.492559 0.760707
vn 0.000000 0.000000 0.000000
v -0.602104 0.111959 0.827511
vn -0.467548 0.853376 0.230541
v -0.835630 0.586502 0.842929
vn -0.047869 0.967667 0.247647
v -0.607769 0.667781 0.886276
vn -0.281905 0.951873 0.120280
v -0.692778 0.665914 0.822139
vn -0.104788 0.993501 0.044448
v -0.386843 0.685166 0.830682
vn 0.000000 0.000000 0.000000
v -0.023412 0.544884 0.848542
vn 0.000000 0.000000 0.000000
v -0.748385 0.139974 0.836641
vn 0.447497 0.882085 0.147213
v -0.113351 0.671139 0.924886
vn 0.000000 0.000000 0.000000
v -0.931405 0.189839 0.829741
vn 0.000000 0.000000 0.000000
v -0.036850 0.368822 0.925688
vn 0.000000 0.000000 0.000000
v -0.049245 0.266945 0.919141
vn -0.112363 0.993607 0.010941
v -0.276014 0.710043 0.900761
vn 0.000000 0.000000 0.000000
v -1.019889 0.223845 0.862800
vn -0.357755 0.802564 0.477391
v -1.051321 0.484445 0.857893
vn 0.395111 0.916058 0.068744
v -0.032606 0.644099 0.792062
vn -0.374876 0.837293 0.398006
v -0.931433 0.534043 0.849256
vn 0.000000 0.000000 0.000000
v -0.153919 0.027852 0.857641
vn 0.000000 0.000000 0.000000
v -0.079684 0.059744 0.851979
vn -0.897582 0.204959 0.390305
v -1.224868 0.325173 0.842945
vn 0.000000 0.000000 0.000000
v -0.019568 0.157709 0.811810
vn 0.000000 0.000000 0.000000
v -0.835236 0.161715 0.837696
vn 0.000000 0.000000 0.000000
v -1.114202 0.289451 0.905780
vn -0.102659 0.965396 0.239733
v -0.490110 0.660938 0.902085
vn -0.534215 0.656635 0.532395
v -1.159626 0.425949 0.868533
vn 0.257200 0.934349 0.246659
v -0.196914 0.703647 0.976177
vn -0.812878 0.384947 0.437087
v -1.206797 0.389197 0.850881
vn 0.174853 0.983605 -0.044126
v -0.173515 0.706968 0.836193
vn 0.000000 0.000000 0.000000
v -0.001737 0.443414 0.834282
vn -0.304486 0.819293 0.485846
v -0.977123 0.494622 0.886744
vn 0.000000 0.000000 0.000000
v -0.579282 0.139956 0.949345
vn -0.226167 0.926507 0.300722
v -0.700781 0.639688 0.956977
vn -0.459093 0.553497 0.694892
v -1.070166 0.406084 0.952014
vn 0.000000 0.000000 0.000000
v -0.804330 0.198477 0.960304
vn -0.061669 0.870228 0.488774
v -0.644920 0.587091 1.072077
vn -0.263492 0.900990 0.344658
v -0.474063 0.623185 1.028929
vn -0.570489 0.384999 0.725478
v -1.138359 0.356373 0.933282
vn -0.427734 0.762751 0.485030
v -0.967096 0.470562 0.933883
vn -0.587789 0.710088 0.387659
v -0.883164 0.499825 0.985921
vn 0.000000 0.000000 0.000000
v -0.098754 0.173949 0.935836
vn 0.000000 0.000000 0.000000
v -0.671907 0.166963 0.967067
vn 0.000000 0.000000 0.000000
v -0.938431 0.242908 0.953621
vn 0.000000 0.000000 0.000000
v -0.105284 0.103339 0.924914
vn 0.000000 0.000000 0.000000
v -0.574962 0.196677 1.107875
vn -0.568429 0.271114 0.776779
v -1.021750 0.335448 1.006893
vn -0.266954 0.947277 0.177203
v -0.382826 0.673744 0.969925
vn -0.526751 0.813277 0.247211
v -0.779484 0.598770 0.964255
vn 0.000000 0.000000 0.000000
v -0.074866 0.476243 0.980223
vn 0.000000 0.000000 0.000000
v -0.086823 0.583907 0.974759
vn 0.000000 0.000000 0.000000
v -0.089212 0.332053 0.999065
vn 0.000000 0.000000 0.000000
v -0.468563 0.103493 0.939057
vn 0.000000 0.000000 0.000000
v -0.344675 0.099094 0.971497
vn 0.000000 0.000000 0.000000
v -0.239774 0.082376 0.953848
vn 0.000000 0.000000 0.000000
v -0.274848 0.141084 1.043358
vn 0.000000 0.000000 0.000000
v -0.157846 0.097515 0.954736
vn -0.607296 0.514783 0.605136
v -0.949853 0.404537 1.040324
vn 0.000000 0.000000 0.000000
v -0.426945 0.140781 1.051910
vn 0.000000 0.000000 0.000000
v -0.768233 0.282277 1.108908
vn 0.000000 0.000000 0.000000
v -0.142070 0.282083 1.031004
vn -0.722565 0.280878 0.631671
v -0.932157 0.351108 1.084325
vn 0.000000 0.000000 0.000000
v -0.907506 0.307291 1.065864
vn -0.631310 0.622774 0.462169
v -0.809438 0.513469 1.101204
vn 0.000000 0.000000 0.000000
v -0.710024 0.210768 1.048476
vn -0.377951 0.823134 0.423796
v -0.748145 0.569080 1.082296
vn -0.141116 0.773087 0.618403
v -0.723962 0.555806 1.123647
vn 0.000000 0.000000 0.000000
v -0.125393 0.376513 1.057298
vn 0.000000 0.000000 0.000000
v -0.220694 0.198507 1.064117
vn 0.000000 0.000000 0.000000
v -0.134222 0.601479 1.052753
vn 0.000000 0.000000 0.000000
v -0.858859 0.340643 1.132954
vn -0.703578 0.389833 0.594145
v -0.886639 0.382632 1.129554
vn -0.427195 0.795702 0.429376
v -0.445358 0.586334 1.139489
vn 0.000000 0.000000 0.000000
v -0.227272 0.288623 1.142300
vn 0.393996 0.798665 0.454864
v -0.200868 0.637789 1.106156
vn -0.000817 0.930139 0.367206
v -0.281859 0.676494 1.090575
vn 0.000000 0.000000 0.000000
v -0.192088 0.448942 1.170375
vn 0.000000 0.000000 0.000000
v -0.707674 0.352682 1.232941
vn 0.000000 0.000000 0.000000
v -0.435450 0.253093 1.249716
vn 0.000000 0.000000 0.000000
v -0.650112 0.292712 1.211907
vn 0.000000 0.000000 0.000000
v -0.353229 0.220297 1.188093
vn 0.254211 0.654965 0.711616
v -0.258302 0.554152 1.238897
vn 0.241138 0.747437 0.619024
v -0.264887 0.621863 1.185351
vn -0.319291 0.869207 0.377534
v -0.366494 0.648430 1.108203
vn -0.593940 0.531617 0.603836
v -0.820226 0.424436 1.176040
vn -0.240004 0.752248 0.613614
v -0.518496 0.525156 1.183762
vn -0.117094 0.693920 0.710467
v -0.636756 0.487825 1.205448
vn 0.000000 0.000000 0.000000
v -0.278531 0.304530 1.252805
vn 0.000000 0.000000 0.000000
v -0.487351 0.224336 1.199385
vn 0.000000 0.000000 0.000000
v -0.816957 0.365699 1.181424
vn 0.441015 0.443306 0.780375
v -0.273249 0.459069 1.313337
vn -0.317304 0.647084 0.693253
v -0.741526 0.502401 1.174812
vn -0.157679 0.654111 0.739782
v -0.600271 0.408504 1.276044
vn 0.000000 0.000000 0.000000
v -0.468796 0.314878 1.305351
vn 0.000000 0.000000 0.000000
v -0.330419 0.327926 1.334448
vn -0.250103 0.555900 0.792732
v -0.707016 0.423015 1.239484
vn 0.000000 0.000000 0.000000
v -0.561530 0.315673 1.273963
vn -0.202862 0.750480 0.628989
v -0.351534 0.579414 1.229064
vn 0.000000 0.000000 0.000000
v -0.281238 0.369703 1.311953
vn 0.010429 0.609508 0.792711
v -0.332417 0.497252 1.325085
vn -0.355099 0.637629 0.683618
v -0.465304 0.405683 1.317395
vn 0.000000 0.000000 0.000000
v -0.395847 0.333212 1.341228
vn -0.302495 0.545445 0.781656
v -0.388166 0.410719 1.363893
vn 0.112238 0.421772 0.899728
v -0.335470 0.408643 1.367003
# 221 vertices, 0 vertices normals

f 44//44 81//81 26//26
f 215//215 201//201 190//190
f 201//201 155//155 190//190
f 40//40 27//27 16//16
f 81//81 72//72 26//26
f 72//72 19//19 26//26
f 112//112 61//61 97//97
f 209//209 202//202 213//213
f 204//204 209//209 213//213
f 40//40 62//62 27//27
f 42//42 15//15 62//62
f 62//62 15//15 27//27
f 107//107 81//81 98//98
f 102//102 107//107 98//98
f 118//118 81//81 107//107
f 102//102 98//98 115//115
f 102//102 147//147 107//107
f 118//118 107//107 147//147
f 190//190 155//155 203//203
f 165//165 155//155 201//201
f 193//193 165//165 201//201
f 193//193 192//192 145//145
f 145//145 147//147 132//132
f 165//165 193//193 132//132
f 145//145 132//132 193//193
f 204//204 210//210 203//203
f 215//215 203//203 218//218
f 215//215 190//190 203//203
f 71//71 36//36 48//48
f 62//62 71//71 61//61
f 36//36 71//71 62//62
f 61//61 60//60 97//97
f 62//62 61//61 112//112
f 112//112 97//97 124//124
f 124//124 113//113 112//112
f 123//123 143//143 113//113
f 143//143 125//125 113//113
f 113//113 125//125 98//98
f 115//115 98//98 125//125
f 102//102 115//115 132//132
f 132//132 147//147 102//102
f 128//128 118//118 147//147
f 154//154 203//203 155//155
f 71//71 48//48 79//79
f 71//71 60//60 61//61
f 123//123 151//151 154//154
f 143//143 123//123 154//154
f 154//154 155//155 143//143
f 27//27 15//15 9//9
f 136//136 91//91 134//134
f 152//152 144//144 156//156
f 166//166 122//122 158//158
f 164//164 175//175 152//152
f 157//157 152//152 175//175
f 158//158 157//157 175//175
f 36//36 40//40 16//16
f 36//36 62//62 40//40
f 144//144 152//152 134//134
f 152//152 157//157 134//134
f 157//157 149//149 134//134
f 134//134 149//149 136//136
f 157//157 136//136 149//149
f 158//158 136//136 157//157
f 122//122 136//136 158//158
f 42//42 62//62 65//65
f 44//44 42//42 65//65
f 124//124 97//97 122//122
f 124//124 123//123 113//113
f 166//166 158//158 181//181
f 181//181 183//183 166//166
f 183//183 151//151 166//166
f 154//154 151//151 183//183
f 202//202 175//175 189//189
f 158//158 175//175 202//202
f 181//181 158//158 202//202
f 154//154 183//183 184//184
f 105//105 120//120 89//89
f 120//120 91//91 90//90
f 146//146 144//144 105//105
f 144//144 120//120 105//105
f 144//144 134//134 120//120
f 134//134 91//91 120//120
f 136//136 116//116 91//91
f 122//122 116//116 136//136
f 97//97 116//116 122//122
f 209//209 181//181 202//202
f 183//183 181//181 209//209
f 209//209 184//184 183//183
f 209//209 204//204 154//154
f 204//204 203//203 154//154
f 184//184 209//209 154//154
f 26//26 10//10 14//14
f 14//14 15//15 42//42
f 42//42 44//44 14//14
f 26//26 14//14 44//44
f 79//79 77//77 91//91
f 91//91 116//116 97//97
f 14//14 10//10 15//15
f 71//71 79//79 91//91
f 97//97 71//71 91//91
f 60//60 71//71 97//97
f 124//124 122//122 166//166
f 151//151 124//124 166//166
f 123//123 124//124 151//151
f 165//165 143//143 155//155
f 125//125 143//143 165//165
f 132//132 125//125 165//165
f 115//115 125//125 132//132
f 145//145 128//128 147//147
f 215//215 193//193 201//201
f 215//215 200//200 193//193
f 65//65 62//62 112//112
f 112//112 113//113 65//65
f 44//44 65//65 113//113
f 113//113 98//98 44//44
f 81//81 44//44 98//98
f 118//118 72//72 81//81
f 86//86 72//72 118//118
f 59//59 58//58 72//72
f 220//220 217//217 218//218
f 217//217 215//215 218//218
f 27//27 20//20 16//16
f 58//58 19//19 72//72
f 204//204 213//213 210//210
f 145//145 192//192 128//128
f 203//203 210//210 218//218
f 217//217 199//199 215//215
f 215//215 199//199 200//200
f 135//135 118//118 128//128
f 67//67 48//48 38//38
f 67//67 79//79 48//48
f 27//27 9//9 20//20
f 152//152 156//156 164//164
f 48//48 16//16 38//38
f 36//36 16//16 48//48
f 139//139 156//156 146//146
f 156//156 144//144 146//146
f 76//76 59//59 72//72
f 175//175 164//164 179//179
f 189//189 175//175 179//179
f 105//105 89//89 104//104
f 90//90 89//89 120//120
f 139//139 146//146 104//104
f 146//146 105//105 104//104
f 26//26 19//19 10//10
f 91//91 77//77 90//90
f 79//79 67//67 77//77
f 199//199 192//192 200//200
f 200//200 192//192 193//193
f 76//76 72//72 86//86
f 135//135 86//86 118//118
f 217//217 208//208 199//199
f 217//217 220//220 221//221
f 221//221 208//208 217//217
# 154 faces, 0 coords texture

# End of File
