####
#
# OBJ File Generated by Meshlab
#
####
# Object venus_part07_seg_02.obj
#
# Vertices: 279
# Faces: 171
#
####
vn -3.791640 1.799888 -4.353014
v 1.857334 -0.117995 -3.868855
vn -1.697804 0.279014 -2.371192
v 1.870024 -0.193570 -3.889847
vn 0.000000 0.000000 0.000000
v 1.964728 -0.157034 -3.889305
vn -1.181315 0.657444 -2.043678
v 1.933059 -0.112329 -3.910804
vn 0.000000 0.000000 0.000000
v 1.838681 -0.288522 -3.833173
vn -1.759008 -0.163421 -2.325263
v 1.774847 -0.303005 -3.810747
vn -4.298603 2.537115 -3.621233
v 1.885271 0.017234 -3.806192
vn 0.000000 0.000000 0.000000
v 1.887284 -0.242404 -3.860637
vn -1.155370 2.196460 -2.458721
v 1.977023 0.110230 -3.812373
vn 0.000000 0.000000 0.000000
v 1.919753 -0.200827 -3.887068
vn 0.000000 0.000000 0.000000
v 2.030738 0.006427 -3.863466
vn 0.000000 0.000000 0.000000
v 2.008885 -0.090033 -3.884312
vn 0.000000 0.000000 0.000000
v 2.216242 -0.164951 -3.840728
vn 0.000000 0.000000 0.000000
v 2.287997 -0.215304 -3.824856
vn 0.000000 0.000000 0.000000
v 2.271910 -0.122186 -3.818292
vn -1.675133 1.320809 -2.190377
v 1.947895 -0.018604 -3.882260
vn 0.000000 0.000000 0.000000
v 2.248197 -0.328206 -3.822841
vn 0.000000 0.000000 0.000000
v 2.165936 -0.477205 -3.779629
vn 0.000000 0.000000 0.000000
v 2.104309 0.107309 -3.785156
vn -4.853899 2.980815 -2.586394
v 1.808347 -0.100866 -3.782557
vn 0.000000 0.000000 0.000000
v 2.305784 -0.274534 -3.777292
vn 0.000000 0.000000 0.000000
v 1.968293 -0.202286 -3.848187
vn 0.000000 0.000000 0.000000
v 2.223214 -0.276780 -3.850739
vn 0.000000 0.000000 0.000000
v 2.109869 -0.088659 -3.833745
vn 0.000000 0.000000 0.000000
v 2.134955 -0.193849 -3.812029
vn 0.000000 0.000000 0.000000
v 2.174117 -0.120166 -3.825995
vn -4.378281 1.386163 -3.693154
v 1.743735 -0.215367 -3.791538
vn 0.000000 0.000000 0.000000
v 2.156116 -0.346278 -3.814748
vn 0.000000 0.000000 0.000000
v 2.215055 -0.418553 -3.786388
vn -2.242130 -0.602507 -2.087736
v 1.690209 -0.364506 -3.736871
vn 0.000000 0.000000 0.000000
v 2.025107 -0.207241 -3.810497
vn 0.000000 0.000000 0.000000
v 2.101787 -0.486071 -3.765943
vn 0.000000 0.000000 0.000000
v 1.790604 -0.385993 -3.733210
vn -2.786665 3.553275 -3.420548
v 1.912621 0.134228 -3.763981
vn 0.000000 0.000000 0.000000
v 2.145799 -0.007992 -3.811023
vn 0.000000 0.000000 0.000000
v 2.212448 -0.069396 -3.809880
vn -5.001854 3.053029 -2.221468
v 1.712050 -0.172139 -3.675416
vn -4.626014 0.119180 -3.591896
v 1.676680 -0.316077 -3.736318
vn 0.000000 0.000000 0.000000
v 2.104500 -0.565361 -3.729072
vn -4.256716 2.872946 -3.343436
v 1.838329 0.140216 -3.650246
vn 0.000000 0.000000 0.000000
v 2.179840 -0.508077 -3.726019
vn 0.000000 0.000000 0.000000
v 2.020714 -0.538566 -3.715833
vn -1.151826 3.384185 -2.143733
v 1.959366 0.192460 -3.696036
vn 0.000000 0.000000 0.000000
v 2.197757 0.145448 -3.721957
vn 0.000000 0.000000 0.000000
v 2.366949 0.039469 -3.704800
vn -5.188482 2.967695 -1.848738
v 1.834993 -0.047986 -3.763015
vn 0.000000 0.000000 0.000000
v 2.024420 -0.329278 -3.751112
vn -0.111791 0.915899 -0.664350
v 2.076669 0.175303 -3.739429
vn 0.000000 0.000000 0.000000
v 2.090375 -0.262489 -3.781525
vn 0.000000 0.000000 0.000000
v 2.274205 -0.064384 -3.773452
vn 0.000000 0.000000 0.000000
v 2.254161 0.003217 -3.756179
vn 0.000000 0.000000 0.000000
v 2.257919 0.082127 -3.736862
vn 0.000000 0.000000 0.000000
v 2.336854 -0.216463 -3.690873
vn 0.000000 0.000000 0.000000
v 2.107007 -0.581546 -3.675388
vn 0.000000 0.000000 0.000000
v 1.925684 -0.416674 -3.695112
vn 0.000000 0.000000 0.000000
v 2.313329 0.116713 -3.687695
vn 0.000000 0.000000 0.000000
v 2.172116 -0.472274 -3.638829
vn 0.000000 0.000000 0.000000
v 2.409029 0.067202 -3.637037
vn 0.000000 0.000000 0.000000
v 2.134800 0.179210 -3.657898
vn 0.000000 0.000000 0.000000
v 1.892237 -0.329459 -3.765781
vn 0.000000 0.000000 0.000000
v 2.337222 -0.082808 -3.708885
vn 0.000000 0.000000 0.000000
v 1.987530 -0.591743 -3.673748
vn -5.091420 1.385844 -3.204293
v 1.753569 -0.044650 -3.590133
vn -2.778218 -0.090921 -2.042759
v 1.641922 -0.412982 -3.650569
vn 0.000000 0.000000 0.000000
v 2.267478 -0.347985 -3.715374
vn -5.263637 1.644287 -2.706161
v 1.634855 -0.288298 -3.641847
vn 0.000000 0.000000 0.000000
v 1.932537 -0.603769 -3.627022
vn 0.378451 3.122364 -0.888368
v 1.957414 0.220786 -3.613668
vn -4.999242 1.235724 -3.590708
v 1.765561 0.049410 -3.587136
vn 0.000000 0.000000 0.000000
v 2.431179 0.023911 -3.583976
vn 0.000000 0.000000 0.000000
v 1.718053 -0.439053 -3.683095
vn 0.000000 0.000000 0.000000
v 2.095699 -0.545782 -3.620840
vn 0.000000 0.000000 0.000000
v 1.930631 -0.510922 -3.658365
vn 0.000000 0.000000 0.000000
v 2.012448 -0.438575 -3.718514
vn -5.092544 2.413802 -2.521162
v 1.791400 -0.056805 -3.669691
vn 0.000000 0.000000 0.000000
v 1.711414 -0.616704 -3.590775
vn 0.000000 0.000000 0.000000
v 2.424215 -0.006425 -3.639925
vn -1.309907 4.668154 -3.212246
v 1.887445 0.234594 -3.594944
vn 0.000000 0.000000 0.000000
v 2.316960 -0.249168 -3.547012
vn 0.000000 0.000000 0.000000
v 1.640661 -0.587568 -3.578150
vn -4.861263 0.366169 -3.939990
v 1.583182 -0.408799 -3.583487
vn 0.000000 0.000000 0.000000
v 2.028870 0.192742 -3.573115
vn 0.000000 0.000000 0.000000
v 2.371026 -0.159846 -3.611216
vn 0.000000 0.000000 0.000000
v 2.024519 -0.530448 -3.564995
vn 0.000000 0.000000 0.000000
v 2.400407 -0.080701 -3.602231
vn 0.000000 0.000000 0.000000
v 1.826312 -0.483738 -3.649940
vn 0.000000 0.000000 0.000000
v 1.683464 -0.554075 -3.619087
vn 0.000000 0.000000 0.000000
v 1.729382 -0.602797 -3.608167
vn 0.000000 0.000000 0.000000
v 1.912812 -0.579661 -3.570910
vn 0.000000 0.000000 0.000000
v 1.887668 -0.571473 -3.616287
vn 0.000000 0.000000 0.000000
v 2.001663 -0.594726 -3.623522
vn 0.000000 0.000000 0.000000
v 2.420577 -0.047109 -3.547441
vn -4.630093 1.615476 -3.844328
v 1.551596 -0.358315 -3.527061
vn 0.000000 0.000000 0.000000
v 1.626539 -0.584713 -3.543364
vn 0.000000 0.000000 0.000000
v 1.707931 -0.603879 -3.544039
vn -4.631063 2.724216 -3.171593
v 1.579156 -0.273950 -3.506273
vn -1.141750 -0.409914 -0.855102
v 1.566452 -0.538136 -3.544831
vn 1.060804 2.265146 -1.075728
v 1.964597 0.235161 -3.539780
vn 0.000000 0.000000 0.000000
v 1.812816 -0.591599 -3.541280
vn 0.000000 0.000000 0.000000
v 2.279014 0.124222 -3.585923
vn 0.000000 0.000000 0.000000
v 2.102354 -0.480591 -3.566242
vn -4.434481 2.708820 -3.527661
v 1.755783 0.193631 -3.496094
vn 0.000000 0.000000 0.000000
v 2.232433 -0.360422 -3.572359
vn 0.000000 0.000000 0.000000
v 1.784680 -0.590654 -3.594340
vn -2.317390 -0.298138 -1.978986
v 1.583085 -0.502772 -3.583992
vn 0.000000 0.000000 0.000000
v 2.372150 0.071385 -3.555153
vn 0.000000 0.000000 0.000000
v 1.716269 -0.508290 -3.432798
vn 0.898937 4.476914 -2.800047
v 1.891374 0.312371 -3.494263
vn 1.747153 2.041690 -0.718121
v 1.945895 0.277338 -3.461219
vn 0.000000 0.000000 0.000000
v 1.841418 -0.555610 -3.503844
vn 0.000000 0.000000 0.000000
v 1.593181 -0.542488 -3.503023
vn -2.230025 0.063903 -2.225495
v 1.515341 -0.464632 -3.511822
vn 0.000000 0.000000 0.000000
v 2.083733 -0.402215 -3.467806
vn -4.510253 1.935526 -3.888160
v 1.706566 0.130352 -3.478111
vn 0.000000 0.000000 0.000000
v 2.109111 0.108789 -3.428202
vn 0.000000 0.000000 0.000000
v 2.391936 -0.136072 -3.527859
vn -4.879263 2.231232 -2.990628
v 1.692830 -0.115121 -3.538158
vn 0.000000 0.000000 0.000000
v 2.120869 0.150785 -3.514208
vn -4.813151 0.940099 -3.916834
v 1.669042 0.010028 -3.474341
vn 0.000000 0.000000 0.000000
v 1.448188 -0.428476 -3.430953
vn -4.931835 2.937524 -2.519156
v 1.640270 -0.205014 -3.544369
vn 0.000000 0.000000 0.000000
v 2.347729 -0.185991 -3.435341
vn -3.889344 3.308402 -3.634547
v 1.787549 0.229545 -3.504992
vn -3.180163 3.853476 -3.769276
v 1.811432 0.277094 -3.482367
vn 0.000000 0.000000 0.000000
v 2.376796 -0.112434 -3.449110
vn 0.000000 0.000000 0.000000
v 2.373581 -0.001099 -3.493789
vn -1.961696 1.126021 -2.780273
v 1.470294 -0.395999 -3.474896
vn 0.000000 0.000000 0.000000
v 2.271190 0.044778 -3.456205
vn 1.850259 2.180968 -1.114254
v 1.889560 0.356949 -3.378882
vn 0.000000 0.000000 0.000000
v 2.216461 -0.304449 -3.449076
vn 0.000000 0.000000 0.000000
v 1.544786 -0.483569 -3.443171
vn -4.527539 1.140463 -4.169649
v 1.579890 0.114285 -3.353357
vn -3.534543 2.951026 -4.254521
v 1.709850 0.284377 -3.376721
vn -4.578967 1.271291 -3.914719
v 1.590428 -0.083844 -3.383761
vn -1.288469 1.356465 -2.617121
v 1.390475 -0.354381 -3.412403
vn -3.176860 2.997085 -4.453783
v 1.484733 -0.293595 -3.424973
vn 0.000000 0.000000 0.000000
v 2.013518 0.178471 -3.440566
vn 0.000000 0.000000 0.000000
v 1.911414 -0.484460 -3.457563
vn -1.516829 1.018402 -2.386860
v 1.306338 -0.320240 -3.349081
vn -2.284957 3.198527 -4.778756
v 1.351826 -0.270629 -3.351583
vn 0.000000 0.000000 0.000000
v 2.170085 0.023463 -3.394042
vn 1.316458 3.120662 -1.726804
v 1.843039 0.422608 -3.375218
vn 0.000000 0.000000 0.000000
v 2.259181 -0.197846 -3.345277
vn 0.000000 0.000000 0.000000
v 1.945570 0.219411 -3.363995
vn 0.000000 0.000000 0.000000
v 2.206592 -0.061871 -3.361082
vn -0.755677 4.070914 -3.965447
v 1.835590 0.359455 -3.420583
vn 0.000000 0.000000 0.000000
v 2.043199 0.039782 -3.349072
vn 0.000000 0.000000 0.000000
v 1.472237 -0.400107 -3.341602
vn 0.000000 0.000000 0.000000
v 2.282840 -0.246055 -3.412219
vn 0.000000 0.000000 0.000000
v 2.222796 -0.006096 -3.398803
vn -4.184160 2.648867 -3.713346
v 1.577702 -0.182167 -3.423252
vn 0.000000 0.000000 0.000000
v 1.922909 0.042531 -3.262042
vn 0.000000 0.000000 0.000000
v 1.856461 0.204793 -3.227485
vn 0.000000 0.000000 0.000000
v 1.330281 -0.331257 -3.291281
vn -1.710655 -0.111780 -1.311278
v 1.264329 -0.295673 -3.296371
vn -1.662347 3.784914 -4.697862
v 1.363554 -0.186143 -3.277674
vn 0.000000 0.000000 0.000000
v 2.014809 -0.362879 -3.353904
vn 0.000000 0.000000 0.000000
v 2.074314 -0.069798 -3.320948
vn 0.000000 0.000000 0.000000
v 2.172780 -0.251455 -3.322410
vn 0.000000 0.000000 0.000000
v 1.375080 -0.379972 -3.376716
vn 0.000000 0.000000 0.000000
v 1.972464 -0.049218 -3.279811
vn -3.044869 3.524317 -4.111594
v 1.773920 0.408171 -3.345694
vn 0.000000 0.000000 0.000000
v 2.300111 -0.112919 -3.385151
vn -4.232554 0.796993 -4.523680
v 1.513931 0.028908 -3.290046
vn 0.000000 0.000000 0.000000
v 1.631323 -0.379128 -3.275035
vn 0.000000 0.000000 0.000000
v 1.972233 0.128205 -3.331732
vn -2.098482 1.500411 -2.691871
v 1.257120 -0.257453 -3.290224
vn 0.000000 0.000000 0.000000
v 2.042906 -0.311326 -3.311638
vn 0.001484 4.572856 -1.320092
v 1.798957 0.444852 -3.325722
vn -1.139483 2.764295 -1.785676
v 1.703972 0.451527 -3.230636
vn 0.000000 0.000000 0.000000
v 2.069439 -0.237408 -3.260158
vn -2.531795 3.333831 -4.540561
v 1.425622 -0.185812 -3.302238
vn -3.880733 0.905080 -4.409242
v 1.538084 -0.054558 -3.315264
vn 0.000000 0.000000 0.000000
v 1.945084 -0.380538 -3.334037
vn -3.960762 2.075515 -4.385452
v 1.583221 0.222692 -3.313991
vn 0.000000 0.000000 0.000000
v 2.120708 -0.183400 -3.278207
vn 0.000000 0.000000 0.000000
v 2.175463 -0.141926 -3.312002
vn 0.000000 0.000000 0.000000
v 1.256209 -0.273020 -3.238743
vn -3.668985 1.884975 -4.716615
v 1.333234 -0.000032 -3.160652
vn -1.829512 1.199038 -1.626698
v 1.223250 -0.220468 -3.219576
vn 0.000000 0.000000 0.000000
v 1.799924 -0.396512 -3.305582
vn 0.000000 0.000000 0.000000
v 1.903111 -0.295036 -3.224824
vn 0.000000 0.000000 0.000000
v 1.856409 -0.042519 -3.169587
vn 1.303773 2.487178 0.539028
v 1.812618 0.431412 -3.283673
vn 0.000000 0.000000 0.000000
v 1.544337 -0.326463 -3.219042
vn 0.000000 0.000000 0.000000
v 1.704829 -0.336053 -3.216321
vn -3.265512 2.930911 -4.383249
v 1.587504 0.365908 -3.246528
vn 0.000000 0.000000 0.000000
v 1.409075 -0.341563 -3.271340
vn 0.000000 0.000000 0.000000
v 1.981450 -0.243304 -3.240232
vn -2.732523 3.809402 -4.136578
v 1.670288 0.400609 -3.270123
vn 0.000000 0.000000 0.000000
v 1.530699 -0.357785 -3.264419
vn 0.000000 0.000000 0.000000
v 1.992797 -0.151147 -3.245879
vn -3.354100 3.115109 -4.263126
v 1.265352 -0.097468 -3.166260
vn 0.000000 0.000000 0.000000
v 1.254508 -0.212982 -3.155391
vn 0.000000 0.000000 0.000000
v 1.902518 -0.125557 -3.192539
vn 0.000000 0.000000 0.000000
v 1.823570 0.366108 -3.238898
vn -3.806638 2.684857 -4.094974
v 1.517620 0.378154 -3.179446
vn -2.487125 2.875236 -4.918927
v 1.361680 -0.115641 -3.227242
vn 0.000000 0.000000 0.000000
v 1.618590 -0.266524 -3.133394
vn -2.226045 4.431917 -3.510494
v 1.583146 0.446778 -3.173579
vn 0.000000 0.000000 0.000000
v 1.754472 0.421009 -3.184067
vn 0.000000 0.000000 0.000000
v 1.316756 -0.287218 -3.220213
vn -2.350153 1.432834 -1.888327
v 1.211066 -0.161200 -3.165641
vn -2.873762 3.365333 -4.216983
v 1.273195 -0.191040 -3.254056
vn -3.430977 2.179236 -4.666610
v 1.486111 -0.115655 -3.301173
vn 0.000000 0.000000 0.000000
v 1.830053 -0.191933 -3.132971
vn 0.000000 0.000000 0.000000
v 1.428708 -0.283064 -3.191276
vn 0.000000 0.000000 0.000000
v 1.799927 -0.096518 -3.100690
vn -4.030509 1.751111 -4.478235
v 1.438402 0.217632 -3.173208
vn -0.178753 3.050135 -1.256150
v 1.609353 0.479851 -3.113655
vn 0.000000 0.000000 0.000000
v 1.694364 0.453278 -3.159994
vn 0.000000 0.000000 0.000000
v 1.905958 -0.214665 -3.194301
vn 0.000000 0.000000 0.000000
v 1.717622 0.404746 -3.134474
vn -2.755265 0.096721 0.262892
v 1.209226 -0.130396 -3.092128
vn -4.845976 1.390988 -1.470170
v 1.205698 -0.112521 -3.123766
vn -5.160130 1.661525 -1.916188
v 1.217629 -0.061731 -3.091185
vn 0.000000 0.000000 0.000000
v 1.408623 -0.111462 -2.998336
vn 0.000000 0.000000 0.000000
v 1.765996 -0.256983 -3.140109
vn 0.000000 0.000000 0.000000
v 1.728519 0.307396 -3.097881
vn 0.000000 0.000000 0.000000
v 1.737395 -0.145716 -3.049467
vn -3.024144 -0.303435 0.179559
v 1.221365 -0.062029 -3.020605
vn -3.437257 2.952805 -4.306654
v 1.441970 0.439300 -3.064864
vn -4.439596 1.774887 -3.943985
v 1.286467 0.167658 -3.065703
vn -0.895130 4.783817 -2.677474
v 1.516420 0.499442 -3.070683
vn 0.000000 0.000000 0.000000
v 1.752405 0.241197 -3.101084
vn -3.526513 2.313907 -4.644238
v 1.401020 0.337535 -3.081281
vn -4.075622 2.139521 -4.164107
v 1.338087 0.289911 -3.061466
vn 0.000000 0.000000 0.000000
v 1.555157 -0.183528 -3.041757
vn 0.000000 0.000000 0.000000
v 1.780298 0.036696 -3.107503
vn -5.247661 0.828305 -2.472100
v 1.213924 0.017729 -3.043298
vn 0.000000 0.000000 0.000000
v 1.281474 -0.144637 -3.067849
vn -5.627679 1.199801 -1.137289
v 1.221194 0.146150 -2.974174
vn -4.142403 2.223171 -4.026118
v 1.348634 0.387628 -3.020999
vn -5.385076 1.968155 -2.155161
v 1.286004 0.344214 -2.956928
vn 0.000000 0.000000 0.000000
v 1.649359 -0.169557 -3.025387
vn 0.000000 0.000000 0.000000
v 1.665087 -0.047963 -2.985176
vn 0.000000 0.000000 0.000000
v 1.711141 0.227524 -3.050741
vn 0.000000 0.000000 0.000000
v 1.635326 0.435709 -3.064064
vn 0.000000 0.000000 0.000000
v 1.531110 -0.115614 -2.969600
vn -4.844745 -0.668197 1.282518
v 1.199193 0.022390 -2.976619
vn -3.762896 3.073893 -3.555226
v 1.359464 0.496345 -2.966383
vn -1.347827 2.954913 -2.185414
v 1.429515 0.542467 -2.968709
vn 0.000000 0.000000 0.000000
v 1.640984 0.359243 -3.006590
vn 0.000000 0.000000 0.000000
v 1.579093 0.401211 -2.946692
vn 0.000000 0.000000 0.000000
v 1.645312 0.042716 -2.970856
vn 0.442045 2.568015 -0.943513
v 1.494703 0.536241 -2.980700
vn 0.000000 0.000000 0.000000
v 1.652042 0.298990 -2.996396
vn 0.000000 0.000000 0.000000
v 1.705498 0.129322 -3.038028
vn 0.878191 2.227760 -0.417397
v 1.551075 0.498226 -3.004261
vn -2.979072 -0.194485 1.380151
v 1.229326 0.035603 -2.932841
vn -2.973797 4.384579 -1.579982
v 1.353043 0.541159 -2.907878
vn 0.000000 0.000000 0.000000
v 1.584183 -0.085886 -2.947284
vn -5.931675 1.006809 0.408687
v 1.230537 0.222944 -2.865567
vn 0.000000 0.000000 0.000000
v 1.494903 -0.026367 -2.883918
vn -5.266073 2.316266 -0.985773
v 1.306736 0.487841 -2.883137
vn -0.575710 2.305475 -0.232172
v 1.402208 0.556812 -2.874361
vn 0.000000 0.000000 0.000000
v 1.514117 0.397428 -2.868861
vn 0.000000 0.000000 0.000000
v 1.478501 0.512221 -2.889264
vn 0.000000 0.000000 0.000000
v 1.588018 0.258639 -2.925874
vn -2.904912 -0.109029 0.511358
v 1.240793 0.114160 -2.830498
vn 0.000000 0.000000 0.000000
v 1.461615 0.311502 -2.817506
vn 0.000000 0.000000 0.000000
v 1.287784 0.043388 -2.860700
vn 0.000000 0.000000 0.000000
v 1.382883 0.030416 -2.828459
vn -2.616128 1.899516 0.443270
v 1.332718 0.533833 -2.824261
vn 0.000000 0.000000 0.000000
v 1.546175 0.028006 -2.881605
vn 0.000000 0.000000 0.000000
v 1.538070 0.128321 -2.881669
vn 0.000000 0.000000 0.000000
v 1.414500 0.533840 -2.794181
vn 0.000000 0.000000 0.000000
v 1.383707 0.361421 -2.746480
vn 0.000000 0.000000 0.000000
v 1.459617 0.447717 -2.812387
vn 0.000000 0.000000 0.000000
v 1.436482 0.070753 -2.807273
vn 0.000000 0.000000 0.000000
v 1.386073 0.199857 -2.766870
vn 0.000000 0.000000 0.000000
v 1.414668 0.449614 -2.754073
vn -3.228200 0.834355 1.131745
v 1.266347 0.288850 -2.769163
vn -5.436824 1.674411 1.733508
v 1.288324 0.401963 -2.804983
vn 0.000000 0.000000 0.000000
v 1.318695 0.112388 -2.769407
vn -2.400600 0.105884 0.621963
v 1.252306 0.178788 -2.774028
vn -1.868195 0.718909 1.624587
v 1.323260 0.352721 -2.743018
vn 0.000000 0.000000 0.000000
v 1.304590 0.201136 -2.740273
vn -1.757929 0.634915 1.100285
v 1.351304 0.472258 -2.744924
# 279 vertices, 0 vertices normals

f 227//227 223//223 234//234
f 209//209 164//164 179//179
f 38//38 6//6 30//30
f 136//136 127//127 135//135
f 136//136 93//93 127//127
f 96//96 93//93 136//136
f 121//121 96//96 151//151
f 132//132 164//164 209//209
f 132//132 209//209 175//175
f 209//209 197//197 175//175
f 197//197 187//187 175//175
f 187//187 133//133 175//175
f 20//20 27//27 37//37
f 133//133 190//190 162//162
f 66//66 121//121 37//37
f 117//117 75//75 37//37
f 119//119 117//117 134//134
f 179//179 230//230 223//223
f 223//223 209//209 179//179
f 227//227 209//209 223//223
f 226//226 209//209 227//227
f 226//226 222//222 209//209
f 66//66 27//27 38//38
f 66//66 37//37 27//27
f 75//75 117//117 63//63
f 241//241 233//233 234//234
f 20//20 1//1 27//27
f 69//69 75//75 63//63
f 40//40 75//75 69//69
f 81//81 93//93 66//66
f 96//96 66//66 93//93
f 121//121 66//66 96//96
f 37//37 121//121 117//117
f 132//132 119//119 164//164
f 114//114 119//119 132//132
f 175//175 114//114 132//132
f 133//133 114//114 175//175
f 133//133 102//102 114//114
f 179//179 198//198 193//193
f 205//205 198//198 179//179
f 136//136 135//135 140//140
f 136//136 151//151 96//96
f 151//151 117//117 121//121
f 151//151 134//134 117//117
f 119//119 134//134 164//164
f 200//200 187//187 197//197
f 46//46 75//75 7//7
f 75//75 40//40 7//7
f 75//75 20//20 37//37
f 75//75 46//46 20//20
f 46//46 7//7 20//20
f 7//7 1//1 20//20
f 102//102 133//133 123//123
f 124//124 123//123 133//133
f 136//136 140//140 172//172
f 140//140 204//204 156//156
f 156//156 172//172 140//140
f 136//136 172//172 205//205
f 205//205 151//151 136//136
f 151//151 205//205 134//134
f 173//173 134//134 205//205
f 164//164 134//134 173//173
f 209//209 222//222 197//197
f 119//119 69//69 63//63
f 119//119 114//114 69//69
f 40//40 114//114 102//102
f 69//69 114//114 40//40
f 119//119 63//63 117//117
f 102//102 123//123 40//40
f 190//190 133//133 187//187
f 200//200 190//190 187//187
f 233//233 227//227 234//234
f 233//233 226//226 227//227
f 241//241 222//222 233//233
f 222//222 226//226 233//233
f 198//198 204//204 193//193
f 156//156 204//204 198//198
f 198//198 172//172 156//156
f 205//205 172//172 198//198
f 164//164 205//205 179//179
f 164//164 173//173 205//205
f 6//6 38//38 27//27
f 215//215 193//193 203//203
f 221//221 230//230 216//216
f 43//43 78//78 68//68
f 129//129 146//146 142//142
f 1//1 7//7 16//16
f 230//230 232//232 223//223
f 232//232 234//234 223//223
f 255//255 264//264 251//251
f 234//234 253//253 274//274
f 255//255 234//234 274//274
f 274//274 264//264 255//255
f 256//256 251//251 264//264
f 162//162 146//146 133//133
f 255//255 241//241 234//234
f 255//255 251//251 241//241
f 242//242 241//241 251//251
f 251//251 256//256 242//242
f 273//273 277//277 274//274
f 277//277 279//279 274//274
f 264//264 274//274 279//279
f 27//27 1//1 2//2
f 253//253 260//260 276//276
f 276//276 273//273 253//253
f 274//274 253//253 273//273
f 43//43 34//34 40//40
f 78//78 43//43 40//40
f 142//142 146//146 162//162
f 169//169 142//142 162//162
f 215//215 203//203 214//214
f 216//216 193//193 215//215
f 216//216 179//179 193//193
f 184//184 169//169 170//170
f 66//66 38//38 64//64
f 98//98 68//68 78//78
f 98//98 78//78 108//108
f 142//142 169//169 184//184
f 129//129 142//142 184//184
f 253//253 250//250 260//260
f 1//1 4//4 2//2
f 16//16 4//4 1//1
f 78//78 124//124 108//108
f 109//109 98//98 108//108
f 230//230 179//179 216//216
f 9//9 16//16 7//7
f 64//64 38//38 30//30
f 146//146 129//129 108//108
f 109//109 108//108 129//129
f 140//140 135//135 139//139
f 222//222 224//224 197//197
f 210//210 200//200 224//224
f 81//81 66//66 64//64
f 112//112 105//105 97//97
f 81//81 105//105 112//112
f 112//112 93//93 81//81
f 127//127 93//93 112//112
f 203//203 204//204 180//180
f 203//203 193//193 204//204
f 2//2 6//6 27//27
f 34//34 7//7 40//40
f 34//34 9//9 7//7
f 9//9 34//34 43//43
f 48//48 9//9 43//43
f 81//81 64//64 105//105
f 216//216 215//215 214//214
f 221//221 216//216 214//214
f 133//133 146//146 124//124
f 146//146 108//108 124//124
f 167//167 139//139 155//155
f 167//167 140//140 139//139
f 167//167 204//204 140//140
f 224//224 200//200 197//197
f 170//170 200//200 210//210
f 250//250 240//240 221//221
f 232//232 240//240 250//250
f 253//253 232//232 250//250
f 234//234 232//232 253//253
f 123//123 78//78 40//40
f 123//123 124//124 78//78
f 200//200 170//170 190//190
f 170//170 162//162 190//190
f 170//170 169//169 162//162
f 242//242 222//222 241//241
f 242//242 224//224 222//222
f 242//242 246//246 224//224
f 249//249 224//224 246//246
f 210//210 224//224 249//249
f 180//180 204//204 167//167
f 240//240 230//230 221//221
f 232//232 230//230 240//240
# 171 faces, 0 coords texture

# End of File
