####
#
# OBJ File Generated by Meshlab
#
####
# Object cake_part09_seg_03.obj
#
# Vertices: 242
# Faces: 52
#
####
vn 0.067352 0.121459 -0.990309
v -0.401096 -0.201944 0.361115
vn -0.288028 0.035491 -0.956964
v -0.486121 -0.149475 0.372197
vn -0.538226 -0.083345 -0.838669
v -0.565658 -0.100669 0.418390
vn -0.207511 -0.131519 -0.969351
v -0.430606 -0.368856 0.390078
vn 0.271730 0.321358 -0.907134
v -0.400260 -0.109037 0.394278
vn 0.176496 -0.450897 -0.874952
v -0.327991 -0.380536 0.400327
vn 0.015488 -0.012682 -0.999800
v 0.293048 -0.120349 0.446872
vn -0.453314 0.383724 -0.804526
v 0.199710 -0.065062 0.512637
vn 0.845754 0.288300 -0.448981
v 0.380187 -0.080410 0.465925
vn -0.039188 -0.945629 -0.322877
v -0.304511 -0.473416 0.535240
vn -0.330876 0.429958 -0.840034
v -0.582905 -0.017720 0.467640
vn 0.137187 -0.700336 -0.700506
v -0.238793 -0.443522 0.465676
vn -0.538226 -0.083345 -0.838669
v -0.538617 -0.279081 0.418767
vn 0.282790 0.559965 -0.778761
v -0.293869 -0.079138 0.503443
vn -0.599308 -0.006813 -0.800490
v -0.653010 -0.164032 0.484328
vn 0.347783 0.334788 -0.875765
v -0.276522 -0.190114 0.429946
vn 0.897684 -0.213518 -0.385453
v 0.407980 -0.256366 0.512484
vn 0.314740 0.046511 -0.948038
v -0.193400 -0.363964 0.456615
vn -0.173169 -0.030609 -0.984416
v 0.237145 -0.310572 0.462621
vn 0.025392 -0.058627 -0.997957
v 0.333833 -0.283734 0.457508
vn 0.157025 -0.762665 -0.627444
v -0.141636 -0.456853 0.508001
vn 0.000000 0.000000 0.000000
v 0.255272 -0.018812 0.540095
vn -0.150415 0.464520 -0.872695
v 0.324242 -0.026300 0.491556
vn -0.506911 0.225090 -0.832092
v -0.659410 -0.036745 0.488036
vn 0.795137 -0.380257 -0.472401
v 0.344527 -0.407654 0.527459
vn -0.018919 0.670838 -0.741362
v -0.474679 -0.029690 0.480295
vn 0.068066 0.016438 -0.997545
v -0.006665 -0.410221 0.508547
vn -0.086142 0.005057 -0.996270
v 0.118555 -0.338971 0.491803
vn -0.242866 0.270230 -0.931661
v 0.134044 -0.170495 0.499350
vn 0.125522 0.217406 -0.967977
v -0.063580 -0.188662 0.508315
vn 0.095046 -0.765339 -0.636571
v 0.219498 -0.428893 0.512410
vn 0.972621 0.041464 -0.228669
v 0.456124 -0.107878 0.591331
vn -0.238575 0.564113 -0.790480
v 0.055253 -0.083392 0.585290
vn -0.053924 -0.974236 -0.218988
v -0.609799 -0.493296 0.677465
vn 0.000000 0.000000 0.000000
v -0.671272 -0.451507 0.592530
vn 0.753441 0.640571 -0.148307
v 0.395540 -0.033157 0.606286
vn 0.905717 -0.348691 -0.241023
v 0.403858 -0.387782 0.611329
vn -0.092248 -0.895142 -0.436132
v -0.529547 -0.433549 0.501013
vn 0.900516 0.103289 -0.422377
v 0.405458 -0.139521 0.475574
vn 0.378638 -0.914657 -0.141545
v 0.292754 -0.459661 0.620702
vn 0.976300 -0.179816 -0.120438
v 0.459228 -0.229447 0.627776
vn 0.000000 0.000000 0.000000
v -0.664040 -0.331736 0.549612
vn 0.058071 -0.917497 -0.393480
v 0.015559 -0.483454 0.627645
vn 0.000000 0.000000 0.000000
v -0.786223 -0.177034 0.604463
vn 0.000000 0.000000 0.000000
v -0.041771 -0.033204 0.729877
vn 0.000000 0.000000 0.000000
v -0.564198 0.034666 0.578043
vn -0.538473 0.315046 -0.781532
v -0.773267 -0.050988 0.560742
vn -0.538473 0.315046 -0.781532
v -0.787620 0.045820 0.609656
vn 0.975074 -0.020680 0.220916
v 0.460415 -0.174963 0.711762
vn 0.000000 0.000000 0.000000
v -0.138725 -0.061716 0.615649
vn 0.000000 0.000000 0.000000
v -0.364197 0.007394 0.652488
vn 0.000000 0.000000 0.000000
v 0.163643 -0.028482 0.655169
vn -0.111143 -0.970731 -0.212905
v -0.767144 -0.476270 0.681975
vn 0.000000 0.000000 0.000000
v -0.770586 -0.416302 0.646992
vn 0.000000 0.000000 0.000000
v 0.302568 -0.014515 0.607852
vn 0.949062 0.122395 0.290348
v 0.437566 -0.084269 0.738297
vn 0.926789 -0.291395 0.236964
v 0.403212 -0.376605 0.715785
vn -0.248316 0.122451 -0.960908
v -0.985101 -0.011767 0.665748
vn -0.220971 0.202414 -0.954044
v -0.968510 0.082969 0.673533
vn -0.355389 0.322514 -0.877316
v -1.162152 0.116075 0.714544
vn -0.596608 0.567859 -0.567093
v -1.246539 0.204473 0.804573
vn 0.000000 0.000000 0.000000
v -0.914119 -0.433308 0.751243
vn 0.010492 -0.995230 -0.096994
v -0.345698 -0.499538 0.798811
vn -0.869938 0.166753 -0.464114
v -1.300732 0.073291 0.789512
vn 0.000000 0.000000 0.000000
v 0.082053 -0.002750 0.800218
vn 0.485891 0.858280 0.165126
v 0.326373 -0.027693 0.771423
vn -0.283269 0.538090 -0.793863
v -1.151188 0.192457 0.762405
vn 0.926256 -0.142066 0.349094
v 0.400655 -0.208608 0.842609
vn 0.000000 0.000000 0.000000
v -1.166728 -0.112600 0.771923
vn 0.847336 -0.354472 0.395439
v 0.341958 -0.405534 0.836240
vn 0.000000 0.000000 0.000000
v -0.977756 -0.135687 0.697204
vn -0.469839 -0.024347 -0.882417
v -1.228322 -0.001334 0.753016
vn 0.000000 0.000000 0.000000
v -0.864302 -0.299910 0.695962
vn -0.073069 0.578776 -0.812206
v -1.044250 0.154473 0.731301
vn 0.000000 0.000000 0.000000
v -0.868886 0.120196 0.725604
vn -0.580827 -0.252148 -0.773991
v -1.048630 -0.354104 0.816232
vn 0.000000 0.000000 0.000000
v -1.100164 -0.232978 0.805608
vn -0.420902 -0.788511 -0.448434
v -1.033358 -0.454754 0.837560
vn -0.206194 -0.956512 -0.206322
v -0.882955 -0.489148 0.801149
vn 0.000000 0.000000 0.000000
v -0.067004 0.007109 0.826495
vn -0.961298 0.026255 -0.274256
v -1.340254 0.030740 0.848303
vn 0.004748 0.942951 -0.332898
v -1.122859 0.252814 0.892407
vn 0.445258 -0.885642 0.131848
v 0.233035 -0.470962 0.790038
vn 0.000000 0.000000 0.000000
v -1.003368 0.200148 0.847791
vn 0.728762 0.615229 0.300666
v 0.328850 -0.041915 0.930899
vn 0.000000 0.000000 0.000000
v -0.944631 0.171374 0.796327
vn 0.000000 0.000000 0.000000
v -0.659766 0.105054 0.746305
vn 0.000000 0.000000 0.000000
v -0.544501 0.120525 0.890746
vn -0.951843 0.289544 0.100797
v -1.298430 0.166700 0.885505
vn -0.498704 0.862002 -0.090816
v -1.236475 0.255837 0.899351
vn 0.000000 0.000000 0.000000
v -0.201392 0.020425 0.813823
vn -0.267217 -0.942412 -0.201134
v -1.035154 -0.482175 0.968429
vn 0.000000 0.000000 0.000000
v -0.431415 0.069285 0.821020
vn 0.000000 0.000000 0.000000
v -0.173026 -0.494176 0.913767
vn 0.000000 0.000000 0.000000
v -1.245996 -0.241920 0.897219
vn -0.961626 -0.204591 -0.182808
v -1.307452 -0.123718 0.873008
vn -0.991996 0.006733 0.126087
v -1.337312 -0.021574 0.916793
vn 0.000000 0.000000 0.000000
v 0.181944 0.006508 0.963964
vn 0.000000 0.000000 0.000000
v -0.786412 -0.497048 0.920793
vn -0.413038 -0.804304 -0.427194
v -1.132770 -0.441312 0.907784
vn 0.958409 0.036208 0.283092
v 0.389102 -0.081293 0.865437
vn 0.000000 0.000000 0.000000
v -1.231120 -0.182152 0.834008
vn 0.000000 0.000000 0.000000
v -0.806347 0.172718 0.886428
vn 0.932640 -0.209155 0.294002
v 0.358384 -0.115978 1.010864
vn 0.000000 0.000000 0.000000
v -0.033693 0.040376 0.930231
vn -0.905284 0.203761 0.372749
v -1.275778 0.075685 1.017236
vn -0.307257 -0.945155 -0.110790
v -1.156368 -0.470270 1.023613
vn -0.716201 -0.349214 -0.604240
v -1.202035 -0.337609 0.923802
vn -0.981330 0.029956 0.189983
v -1.317473 -0.165104 1.025970
vn 0.808913 -0.399241 0.431587
v 0.321449 -0.326562 0.957515
vn 0.698348 -0.526121 0.485290
v 0.241496 -0.437465 0.952337
vn 0.000000 0.000000 0.000000
v -0.435386 0.123687 0.990486
vn -0.932620 -0.230387 -0.277744
v -1.303682 -0.272504 0.983738
vn 0.000000 0.000000 0.000000
v -0.261253 0.102182 0.993044
vn 0.389979 -0.776350 0.495174
v 0.171489 -0.438339 1.029755
vn -0.311155 0.922920 0.226720
v -1.166000 0.274176 0.981520
vn -0.181393 0.836911 0.516408
v -1.056084 0.275623 1.017785
vn 0.000000 0.000000 0.000000
v -0.920248 0.238824 0.976628
vn -0.757685 -0.220647 -0.614189
v -1.227252 -0.432366 0.988952
vn 0.753367 -0.558783 0.346699
v 0.206640 -0.370734 1.069945
vn 0.000000 0.000000 0.000000
v -0.724965 0.215980 1.052081
vn -0.549133 -0.835642 -0.012521
v -1.260161 -0.439572 1.102456
vn -0.960678 -0.201469 -0.191069
v -1.305124 -0.360397 1.059163
vn -0.883168 0.179635 0.433296
v -1.237210 -0.099506 1.162371
vn -0.513975 0.852073 0.098999
v -0.921200 0.291723 1.089063
vn 0.000000 0.000000 0.000000
v -0.570056 0.180562 1.069646
vn -0.763448 0.525727 0.375177
v -1.223331 0.209689 1.005274
vn 0.875771 -0.372693 0.306798
v 0.306623 -0.208772 1.084892
vn 0.956835 -0.273471 0.098389
v 0.320397 -0.089337 1.189982
vn -0.939105 0.074613 0.335433
v -1.266379 -0.334482 1.206695
vn 0.749415 -0.662002 0.011423
v 0.118827 -0.427483 1.188901
vn 0.000000 0.000000 0.000000
v -0.598753 -0.490773 1.072655
vn 0.649645 0.759417 -0.035314
v 0.225169 -0.006140 1.227240
vn 0.885196 0.449231 0.120913
v 0.305593 -0.033067 1.089303
vn 0.000000 0.000000 0.000000
v -0.791029 0.289864 1.129321
vn -0.481526 0.816507 0.318511
v -0.868134 0.312676 1.184224
vn -0.929074 -0.293711 0.224844
v -1.297685 -0.396062 1.145998
vn -0.181393 0.836911 0.516408
v -1.121744 0.228647 1.070851
vn 0.000000 0.000000 0.000000
v -0.638215 0.213418 1.114427
vn 0.000000 0.000000 0.000000
v -0.303688 -0.486408 1.163537
vn 0.000000 0.000000 0.000000
v -0.119530 0.108948 1.133423
vn 0.407861 -0.894806 0.181581
v 0.052068 -0.465252 1.060776
vn 0.000000 0.000000 0.000000
v -0.908645 -0.467062 1.211383
vn 0.000000 0.000000 0.000000
v -0.295188 0.161278 1.168356
vn -0.214424 -0.912979 0.347118
v -1.107058 -0.439185 1.264523
vn 0.918279 -0.386207 0.087225
v 0.292464 -0.170487 1.186368
vn -0.589483 -0.692679 0.415579
v -1.242739 -0.422662 1.212147
vn 0.000000 0.000000 0.000000
v 0.037864 0.053291 1.131540
vn 0.822045 -0.569157 0.017372
v 0.219900 -0.312892 1.198897
vn 0.000000 0.000000 0.000000
v -0.636197 0.282521 1.224865
vn -0.583136 -0.464121 0.666741
v -1.182172 -0.396196 1.320008
vn 0.076163 0.761923 0.643173
v -0.514953 0.291911 1.343696
vn -0.347766 0.770907 0.533630
v -0.748479 0.324596 1.270506
vn 0.000000 0.000000 0.000000
v 0.099429 0.037800 1.300665
vn 0.000000 0.000000 0.000000
v -0.098202 0.120406 1.297561
vn -0.513975 0.852073 0.098999
v -0.991719 0.242380 1.147638
vn -0.433323 0.751762 0.497077
v -0.843966 0.254066 1.293933
vn 0.957146 -0.265112 -0.116569
v 0.306274 -0.161309 1.270950
vn 0.000000 0.000000 0.000000
v -1.141608 0.054954 1.171180
vn 0.000000 0.000000 0.000000
v -0.566953 -0.474893 1.323559
vn 0.000000 0.000000 0.000000
v -0.538907 -0.464359 1.479485
vn 0.996424 -0.081429 -0.022540
v 0.327575 -0.155123 1.366257
vn -0.646690 0.067252 0.759782
v -1.151575 -0.296221 1.337201
vn 0.000000 0.000000 0.000000
v -1.116803 -0.161523 1.301868
vn 0.314160 -0.949052 -0.024579
v 0.006593 -0.467412 1.296091
vn -0.246165 0.784265 0.569501
v -0.747824 0.251055 1.372063
vn 0.994522 0.104514 0.001562
v 0.312307 -0.075413 1.340580
vn 0.000000 0.000000 0.000000
v -0.929034 -0.105553 1.383219
vn 0.000000 0.000000 0.000000
v -0.947646 0.090692 1.283229
vn -0.177889 -0.848701 0.498059
v -0.935341 -0.430355 1.381597
vn 0.000000 0.000000 0.000000
v -0.313383 -0.468386 1.430753
vn 0.000000 0.000000 0.000000
v -0.397225 0.274142 1.394644
vn 0.000000 0.000000 0.000000
v -0.301896 0.250504 1.405389
vn -0.288296 -0.897947 0.332531
v -0.782622 -0.455561 1.365514
vn -0.103778 0.785022 0.610713
v -0.647335 0.291201 1.360214
vn 0.785586 -0.613350 -0.081589
v 0.254284 -0.380316 1.514366
vn 0.000000 0.000000 0.000000
v 0.026794 0.069274 1.344067
vn 0.000000 0.000000 0.000000
v -0.390422 0.243073 1.282277
vn 0.000000 0.000000 0.000000
v -0.417255 -0.459937 1.541780
vn 0.076163 0.761923 0.643173
v -0.494614 0.193118 1.458322
vn 0.657953 -0.733637 -0.169924
v 0.153657 -0.433760 1.426834
vn 0.000000 0.000000 0.000000
v -0.201488 0.184768 1.361719
vn 0.877115 -0.464754 -0.121136
v 0.276758 -0.289863 1.381171
vn -0.341638 -0.359172 0.868492
v -1.042788 -0.383166 1.409303
vn -0.351249 0.091188 0.931831
v -0.962933 -0.287866 1.430078
vn -0.125601 -0.967696 0.218605
v -0.666023 -0.465720 1.468258
vn -0.467410 -0.862694 0.193099
v -0.748751 -0.441916 1.508462
vn -0.095020 0.963879 0.248814
v -0.327821 0.228963 1.491841
vn 0.000000 0.000000 0.000000
v -0.021089 -0.462856 1.481230
vn 0.000000 0.000000 0.000000
v -0.770713 0.040526 1.461122
vn 0.000000 0.000000 0.000000
v -0.015276 0.113431 1.469692
vn -0.095020 0.963879 0.248814
v -0.197617 0.228565 1.543108
vn 0.003643 -0.975918 0.218106
v -0.589199 -0.446104 1.569393
vn 0.588448 -0.794485 0.150078
v 0.174856 -0.426416 1.691392
vn -0.689498 -0.011775 0.724191
v -0.815866 -0.285793 1.521466
vn 0.000000 0.000000 0.000000
v -0.120906 0.201756 1.508044
vn 0.000000 0.000000 0.000000
v -0.760419 -0.121044 1.529544
vn 0.527687 0.848019 0.049092
v 0.168708 0.007809 1.446543
vn 0.960272 0.228592 0.160074
v 0.288648 -0.069832 1.498483
vn 0.000000 0.000000 0.000000
v -0.651877 0.095994 1.494698
vn -0.095020 0.963879 0.248814
v -0.236778 0.244226 1.467484
vn 0.000000 0.000000 0.000000
v -0.354841 0.043500 1.579775
vn 0.990599 -0.000726 0.136794
v 0.309511 -0.154912 1.494827
vn 0.000000 0.000000 0.000000
v -0.650834 -0.148744 1.612617
vn -0.416757 -0.464657 0.781286
v -0.643445 -0.434083 1.621276
vn 0.000000 0.000000 0.000000
v -0.173563 -0.010110 1.670394
vn -0.049059 -0.833149 0.550868
v -0.272737 -0.444201 1.601369
vn 0.000000 0.000000 0.000000
v 0.066836 0.084684 1.576724
vn 0.000000 0.000000 0.000000
v -0.065256 0.164015 1.585926
vn 0.853063 -0.489268 0.181386
v 0.256752 -0.368867 1.657079
vn 0.614709 0.643041 0.456761
v 0.197329 -0.008366 1.590741
vn -0.446003 -0.631404 0.634358
v -0.858233 -0.389092 1.479450
vn 0.106191 -0.846441 0.521786
v -0.452188 -0.422613 1.641698
vn 0.892203 0.126727 0.433490
v 0.280658 -0.140664 1.622326
vn -0.528398 -0.309410 0.790608
v -0.714621 -0.386536 1.616224
vn 0.000000 0.000000 0.000000
v -0.692068 -0.280684 1.631026
vn 0.000000 0.000000 0.000000
v 0.055084 -0.457317 1.642848
vn 0.000000 0.000000 0.000000
v -0.155134 0.133011 1.619851
vn 0.052198 0.235713 0.970420
v -0.297772 -0.184087 1.675187
vn 0.676282 0.289296 0.677459
v 0.218306 -0.072712 1.655553
vn 0.025864 0.176283 0.984000
v -0.318709 -0.308705 1.706582
vn 0.000000 0.000000 0.000000
v -0.517668 -0.180919 1.659251
vn 0.317256 0.549005 0.773267
v 0.049973 0.024791 1.668583
vn 0.982067 -0.147696 0.117174
v 0.283260 -0.259087 1.582512
vn -0.390510 -0.340804 0.855193
v -0.547939 -0.415750 1.693343
vn 0.045172 0.057347 0.997332
v -0.447192 -0.316388 1.718863
vn -0.222550 -0.842016 0.491406
v -0.056524 -0.444391 1.663210
vn 0.688628 0.210871 0.693776
v 0.191694 -0.214339 1.742598
vn 0.061868 -0.455813 0.887923
v -0.388760 -0.371689 1.711398
vn -0.022737 -0.855983 0.516503
v 0.048222 -0.439058 1.727400
vn -0.035222 -0.263790 0.963937
v -0.484584 -0.385308 1.721925
vn 0.887899 0.036915 0.458556
v 0.256455 -0.287625 1.693198
vn -0.152793 -0.005980 0.988240
v 0.069874 -0.391497 1.798661
vn -0.365383 -0.293026 0.883533
v -0.581187 -0.350662 1.704099
vn -0.282547 -0.108202 0.953131
v -0.214019 -0.369627 1.719387
vn 0.241188 0.443526 0.863199
v 0.079091 -0.133886 1.759444
vn 0.058929 0.472390 0.879418
v -0.016814 -0.084708 1.739454
vn -0.269697 -0.107042 0.956977
v -0.019231 -0.395466 1.774197
vn 0.781087 -0.138122 0.608955
v 0.224286 -0.356878 1.749781
vn -0.216335 -0.069369 0.973852
v -0.032561 -0.278651 1.783507
vn 0.572356 0.171286 0.801916
v 0.145637 -0.350553 1.804565
vn -0.132544 -0.038419 0.990432
v 0.083739 -0.239600 1.800585
# 242 vertices, 0 vertices normals

f 224//224 203//203 214//214
f 228//228 239//239 232//232
f 149//149 131//131 120//120
f 149//149 120//120 128//128
f 149//149 128//128 146//146
f 183//183 158//158 162//162
f 68//68 57//57 49//49
f 68//68 56//56 101//101
f 49//49 56//56 68//68
f 181//181 183//183 176//176
f 32//32 39//39 9//9
f 203//203 162//162 167//167
f 37//37 41//41 57//57
f 149//149 146//146 158//158
f 146//146 128//128 129//129
f 241//241 239//239 228//228
f 37//37 25//25 17//17
f 41//41 37//37 17//17
f 32//32 41//41 17//17
f 68//68 101//101 104//104
f 183//183 162//162 203//203
f 203//203 167//167 199//199
f 70//70 57//57 68//68
f 183//183 224//224 176//176
f 203//203 224//224 183//183
f 32//32 17//17 39//39
f 111//111 70//70 110//110
f 68//68 110//110 70//70
f 194//194 176//176 210//210
f 181//181 176//176 194//194
f 224//224 210//210 176//176
f 214//214 203//203 199//199
f 181//181 131//131 149//149
f 181//181 149//149 183//183
f 158//158 183//183 149//149
f 158//158 129//129 167//167
f 158//158 146//146 129//129
f 49//49 57//57 41//41
f 49//49 32//32 56//56
f 41//41 32//32 49//49
f 167//167 162//162 158//158
f 194//194 210//210 239//239
f 224//224 232//232 210//210
f 232//232 239//239 210//210
f 228//228 232//232 214//214
f 232//232 224//224 214//214
f 228//228 214//214 220//220
f 120//120 111//111 110//110
f 128//128 120//120 110//110
f 104//104 110//110 68//68
f 128//128 110//110 104//104
f 129//129 128//128 104//104
# 52 faces, 0 coords texture

# End of File
