####
#
# OBJ File Generated by Meshlab
#
####
# Object cake_part11_seg_01.obj
#
# Vertices: 210
# Faces: 119
#
####
vn -0.376230 -0.212094 -0.901924
v 0.402096 -0.380180 0.356657
vn -0.339165 -0.544787 -0.766925
v 0.383620 -0.445017 0.379612
vn 0.161376 -0.624259 -0.764368
v 0.458268 -0.429994 0.363138
vn -0.651509 -0.127850 -0.747790
v 0.356206 -0.393346 0.394662
vn 0.092312 -0.955299 -0.280862
v 0.441573 -0.477343 0.433308
vn 0.649039 -0.084294 -0.756070
v 0.532784 -0.383842 0.420132
vn 0.366035 0.422713 -0.829055
v 0.449180 -0.331824 0.379418
vn -0.467185 -0.870164 -0.156694
v 0.348993 -0.479410 0.445888
vn 0.000000 0.000000 0.000000
v 0.351885 -0.397223 0.477951
vn 0.495105 -0.639448 -0.588198
v 0.523625 -0.453302 0.422161
vn 0.660589 -0.223487 -0.716712
v 0.626580 -0.346213 0.504452
vn -0.054630 0.769906 -0.635814
v 0.392253 -0.304818 0.412580
vn 0.635224 -0.514361 -0.576127
v 0.606414 -0.436174 0.488563
vn -0.504956 -0.805817 0.309320
v 0.346444 -0.459615 0.494621
vn -0.144418 -0.971481 0.188066
v 0.397119 -0.479944 0.503831
vn 0.000000 0.000000 0.000000
v 0.383702 -0.312009 0.501710
vn -0.162525 0.780926 -0.603109
v 0.426659 -0.227652 0.508092
vn -0.743455 -0.522800 -0.417079
v 0.323700 -0.446517 0.437184
vn 0.239667 0.655882 -0.715806
v 0.481783 -0.258121 0.461433
vn 0.205516 -0.915578 -0.345659
v 0.704410 -0.451491 0.627065
vn 0.190388 -0.484250 -0.853964
v 0.807318 -0.359906 0.580667
vn 0.181775 -0.977060 -0.110957
v 0.556269 -0.466797 0.531304
vn -0.353624 -0.831472 0.428490
v 0.392510 -0.451178 0.567941
vn -0.211928 -0.951736 0.222005
v 0.447709 -0.468641 0.577814
vn -0.216786 -0.975551 -0.036105
v 0.492865 -0.470072 0.691046
vn -0.440881 0.677738 -0.588468
v 0.472912 -0.150835 0.603557
vn 0.032621 0.638359 -0.769047
v 0.511428 -0.179441 0.541618
vn 0.290548 -0.702713 -0.649443
v 0.854242 -0.432228 0.619164
vn 0.255521 0.406102 -0.877377
v 0.688594 -0.077315 0.648167
vn 0.000000 0.000000 0.000000
v 0.431877 -0.268757 0.607712
vn -0.525778 0.596599 -0.606322
v 0.524754 -0.051628 0.656217
vn 0.223712 0.436896 -0.871249
v 0.611485 -0.002378 0.665945
vn 0.437763 -0.655356 -0.615526
v 0.945026 -0.388170 0.648807
vn 0.401810 0.160859 -0.901484
v 0.910390 -0.321439 0.632937
vn -0.055713 0.548520 -0.834279
v 0.551415 -0.075805 0.609309
vn 0.309652 0.383224 -0.870204
v 0.669466 -0.206547 0.583378
vn -0.638045 -0.767203 0.065559
v 0.415863 -0.395796 0.663222
vn 0.324668 0.334536 -0.884690
v 1.035636 -0.205959 0.718232
vn 0.335362 -0.807731 -0.484874
v 1.103499 -0.393827 0.732583
vn 0.000000 0.000000 0.000000
v 0.597780 0.025303 0.705649
vn 0.362695 0.172992 -0.915711
v 1.011013 -0.286385 0.684560
vn 0.317612 0.327475 -0.889878
v 0.833156 -0.194614 0.645343
vn -0.423318 -0.882603 -0.204487
v 0.409873 -0.446919 0.762914
vn 0.276982 -0.901993 -0.331193
v 0.927420 -0.438641 0.699428
vn 0.178078 -0.974856 -0.133953
v 1.059017 -0.433573 0.800435
vn -0.105846 0.597297 -0.795005
v 0.677354 0.131015 0.759233
vn 0.000000 0.000000 0.000000
v 0.416728 -0.308541 0.740691
vn 0.223673 0.372280 -0.900765
v 0.779605 0.037791 0.722723
vn 0.000000 0.000000 0.000000
v 0.598047 0.063390 0.776909
vn 0.000000 0.000000 0.000000
v 0.471773 -0.165061 0.715563
vn 0.082242 0.506186 -0.858494
v 0.769003 0.183087 0.786154
vn 0.507791 -0.379368 -0.773453
v 1.219399 -0.299493 0.770573
vn 0.318216 0.276253 -0.906875
v 1.115365 -0.224783 0.735877
vn 0.340631 0.308058 -0.888297
v 0.958988 -0.132176 0.712543
vn 0.578792 0.232621 -0.781593
v 1.298632 -0.196362 0.846923
vn 0.253146 0.366004 -0.895521
v 0.927984 0.098059 0.786523
vn -0.149510 -0.988717 -0.009247
v 0.459746 -0.473038 0.810161
vn 0.000000 0.000000 0.000000
v 0.380257 -0.334635 0.807402
vn 0.061772 -0.998021 0.011734
v 0.852203 -0.445273 0.834957
vn 0.373117 -0.800851 -0.468425
v 1.234939 -0.399431 0.829794
vn 0.302925 0.313736 -0.899892
v 1.058294 -0.146093 0.753900
vn 0.305429 0.295068 -0.905344
v 1.031515 -0.024306 0.774536
vn 0.385587 0.287135 -0.876856
v 1.164072 -0.133523 0.780991
vn -0.081659 0.739530 -0.668152
v 0.745480 0.305842 0.889472
vn -0.463961 -0.885318 0.030860
v 0.366305 -0.440924 0.846306
vn 0.000000 0.000000 0.000000
v 0.608295 0.128686 0.906840
vn 0.583962 -0.623205 -0.520197
v 1.341821 -0.340421 0.861378
vn 0.000000 0.000000 0.000000
v 0.419330 -0.144136 0.852143
vn -0.244023 0.748357 -0.616778
v 0.684230 0.205175 0.846493
vn 0.000000 0.000000 0.000000
v 0.520742 -0.014276 0.861472
vn 0.331959 0.281419 -0.900337
v 1.111496 0.092447 0.842209
vn -0.020559 0.647624 -0.761683
v 0.741698 0.249825 0.827933
vn 0.218673 0.386630 -0.895935
v 0.969793 0.204666 0.845392
vn 0.394941 0.321168 -0.860739
v 1.136386 -0.012884 0.819825
vn 0.087651 0.527131 -0.845252
v 0.833171 0.283774 0.854329
vn 0.000000 0.000000 0.000000
v 0.764099 0.366382 0.945965
vn 0.669018 -0.730785 -0.135531
v 1.404957 -0.323622 0.951856
vn 0.000000 0.000000 0.000000
v 1.385413 -0.220371 0.981208
vn -0.751415 -0.654299 -0.085251
v 0.324134 -0.364665 0.947555
vn 0.346423 0.516626 -0.783000
v 1.105806 0.299921 0.919685
vn 0.653633 0.212476 -0.726373
v 1.317054 -0.064508 0.924293
vn 0.492536 0.262231 -0.829845
v 1.268744 0.143045 0.923368
vn -0.406702 -0.908533 0.095719
v 0.396149 -0.448181 0.953784
vn 0.363419 -0.908259 -0.207347
v 1.297309 -0.399170 0.897414
vn 0.315192 0.465063 -0.827267
v 0.896513 0.463866 0.939299
vn 0.474963 0.192462 -0.858702
v 1.268978 0.079046 0.903283
vn 0.377795 0.356792 -0.854383
v 1.194366 0.197167 0.896325
vn 0.073019 0.364778 -0.928227
v 0.832979 0.411400 0.922402
vn 0.518700 0.264120 -0.813136
v 1.243459 -0.046512 0.863332
vn 0.000000 0.000000 0.000000
v 1.287824 0.073950 0.963177
vn 0.542294 0.610984 -0.576729
v 0.942415 0.468412 0.987276
vn 0.511606 -0.853465 -0.099287
v 1.345173 -0.385646 0.948118
vn 0.000000 0.000000 0.000000
v 1.131115 0.313218 0.964354
vn 0.373147 0.642535 -0.669261
v 1.046059 0.388820 0.971722
vn 0.000000 0.000000 0.000000
v 1.327660 -0.082378 1.034691
vn 0.000000 0.000000 0.000000
v 0.356412 -0.185283 0.958439
vn 0.539459 0.599382 -0.591376
v 1.213839 0.229994 0.947360
vn 0.249819 0.474262 -0.844196
v 0.974343 0.376322 0.919738
vn 0.105953 -0.994042 0.025578
v 1.074132 -0.422933 1.006769
vn 0.036278 -0.998282 0.046016
v 0.605484 -0.458705 0.945201
vn 0.000000 0.000000 0.000000
v 0.553083 0.111283 1.079966
vn 0.000000 0.000000 0.000000
v 0.940342 0.474290 1.034819
vn -0.399540 -0.903704 0.153903
v 0.379756 -0.416129 1.066875
vn 0.000000 0.000000 0.000000
v 0.300726 -0.307471 1.038502
vn 0.000000 0.000000 0.000000
v 0.857983 0.491090 1.002866
vn 0.000000 0.000000 0.000000
v 0.987150 0.434550 1.024939
vn 0.000000 0.000000 0.000000
v 0.792368 0.440133 1.016976
vn -0.052807 -0.997097 0.054848
v 0.506743 -0.458757 0.999467
vn 0.000000 0.000000 0.000000
v 1.095759 0.318616 1.025966
vn -0.581085 -0.811796 0.057692
v 0.319545 -0.391221 1.025338
vn 0.053018 -0.998057 0.032719
v 0.725684 -0.442560 1.134802
vn -0.401641 -0.913664 -0.062472
v 0.392247 -0.415572 1.191126
vn 0.000000 0.000000 0.000000
v 0.693044 0.281061 1.033243
vn -0.090787 -0.993548 0.067969
v 0.521638 -0.446918 1.087894
vn 0.000000 0.000000 0.000000
v 0.926667 0.442019 1.104413
vn 0.607471 -0.790141 0.081586
v 1.419884 -0.323833 1.030573
vn -0.568218 -0.822687 0.017727
v 0.310280 -0.354160 1.142630
vn 0.000000 0.000000 0.000000
v 0.293978 -0.288457 1.102705
vn 0.000000 0.000000 0.000000
v 0.437495 -0.033005 1.020439
vn 0.066375 -0.997382 0.028700
v 0.953082 -0.428388 1.116633
vn 0.140490 -0.989810 0.023216
v 1.177856 -0.411081 1.152654
vn 0.000000 0.000000 0.000000
v 0.750901 0.382464 1.166906
vn 0.761733 -0.530620 0.371758
v 1.382965 -0.290901 1.130441
vn 0.000000 0.000000 0.000000
v 0.305452 -0.248042 1.185008
vn 0.000000 0.000000 0.000000
v 1.343400 -0.199130 1.161586
vn 0.000000 0.000000 0.000000
v 0.344386 -0.141231 1.110500
vn 0.000000 0.000000 0.000000
v 1.288530 -0.118123 1.182552
vn 0.008247 -0.999904 0.011123
v 0.574759 -0.447377 1.212146
vn 0.000000 0.000000 0.000000
v 0.832545 0.451221 1.156097
vn 0.520108 -0.835464 0.177446
v 1.340557 -0.378438 1.092392
vn 0.075625 -0.995924 0.049155
v 0.860258 -0.430122 1.230948
vn 0.000000 0.000000 0.000000
v 0.785178 0.416387 1.215792
vn 0.000000 0.000000 0.000000
v 0.606276 0.192747 1.293458
vn 0.072884 -0.996088 0.049962
v 1.002626 -0.423138 1.171687
vn -0.113117 -0.993184 -0.028095
v 0.488513 -0.445364 1.248671
vn 0.000000 0.000000 0.000000
v 1.055184 0.268134 1.159597
vn 0.000000 0.000000 0.000000
v 1.209677 0.123318 1.062901
vn 0.000000 0.000000 0.000000
v 0.284533 -0.307465 1.273668
vn 0.331014 -0.893410 0.303724
v 1.222089 -0.398148 1.255706
vn 0.000000 0.000000 0.000000
v 0.350291 -0.105329 1.243203
vn 0.000000 0.000000 0.000000
v 1.332205 -0.262225 1.235445
vn 0.000000 0.000000 0.000000
v 0.832105 0.377357 1.249954
vn -0.284960 -0.957393 -0.046865
v 0.381326 -0.441990 1.414701
vn 0.041168 -0.998839 0.025013
v 0.639398 -0.443270 1.333971
vn 0.000000 0.000000 0.000000
v 0.979128 0.249285 1.252858
vn 0.000000 0.000000 0.000000
v 0.419082 0.012310 1.228490
vn 0.000000 0.000000 0.000000
v 1.240739 -0.216035 1.298787
vn 0.000000 0.000000 0.000000
v 0.495548 0.086095 1.181039
vn 0.000000 0.000000 0.000000
v 1.171029 0.020809 1.238863
vn 0.000000 0.000000 0.000000
v 1.099719 0.079938 1.280620
vn 0.586054 -0.713167 0.384622
v 1.296044 -0.339544 1.269305
vn 0.140388 -0.977242 0.159028
v 0.979165 -0.413791 1.328521
vn 0.000000 0.000000 0.000000
v 0.455560 0.060609 1.361891
vn 0.000000 0.000000 0.000000
v 0.525021 0.140254 1.350905
vn 0.000000 0.000000 0.000000
v 0.950490 0.147828 1.322882
vn 0.000000 0.000000 0.000000
v 0.688590 0.264492 1.263926
vn 0.000000 0.000000 0.000000
v 0.763775 0.344964 1.265656
vn 0.000000 0.000000 0.000000
v 1.081361 0.002993 1.317820
vn 0.000000 0.000000 0.000000
v 1.130857 -0.262430 1.365945
vn -0.526960 -0.843266 -0.105901
v 0.295750 -0.382751 1.349142
vn 0.220899 -0.900835 0.373766
v 1.131930 -0.373633 1.359508
vn 0.000000 0.000000 0.000000
v 0.305219 -0.198258 1.310443
vn 0.000000 0.000000 0.000000
v 0.810163 0.245000 1.320421
vn 0.000000 0.000000 0.000000
v 0.879720 0.023619 1.390373
vn 0.146532 -0.976026 0.160938
v 0.785339 -0.419093 1.503749
vn -0.059292 -0.988512 0.139029
v 0.397822 -0.442218 1.595812
vn 0.000000 0.000000 0.000000
v 0.749738 0.052429 1.453103
vn 0.000000 0.000000 0.000000
v 0.280337 -0.224877 1.492449
vn 0.084466 -0.994160 0.067174
v 0.712625 -0.436333 1.419136
vn 0.000000 0.000000 0.000000
v 0.497188 0.110048 1.393213
vn 0.000000 0.000000 0.000000
v 0.372155 -0.061903 1.384301
vn 0.000000 0.000000 0.000000
v 0.709615 0.203158 1.361453
vn 0.000000 0.000000 0.000000
v 0.978015 -0.268117 1.444335
vn 0.000000 0.000000 0.000000
v 0.479281 0.078653 1.443693
vn 0.045453 -0.996593 0.068821
v 0.510860 -0.442460 1.507358
vn 0.000000 0.000000 0.000000
v 0.921746 -0.326104 1.520157
vn 0.000000 0.000000 0.000000
v 0.554672 0.152966 1.466480
vn 0.000000 0.000000 0.000000
v 0.646556 0.165607 1.424089
vn 0.232980 -0.943431 0.235922
v 0.974175 -0.383849 1.443179
vn 0.000000 0.000000 0.000000
v 0.248340 -0.275040 1.681637
vn 0.000000 0.000000 0.000000
v 0.816222 -0.057845 1.468438
vn 0.000000 0.000000 0.000000
v 0.370969 -0.054898 1.516810
vn 0.203470 -0.963765 0.172501
v 0.876166 -0.388515 1.567456
vn 0.000000 0.000000 0.000000
v 0.812518 -0.318116 1.624161
vn 0.000000 0.000000 0.000000
v 0.510075 0.015629 1.601699
vn 0.000000 0.000000 0.000000
v 0.785982 -0.174827 1.567489
vn 0.083792 -0.918670 0.386037
v 0.513495 -0.422939 1.639207
vn 0.000000 0.000000 0.000000
v 0.493962 0.078598 1.540243
vn 0.130383 -0.959577 0.249424
v 0.752047 -0.394317 1.640363
vn -0.601604 -0.786509 -0.139555
v 0.253530 -0.364316 1.634591
vn 0.000000 0.000000 0.000000
v 0.304643 -0.202157 1.683957
vn 0.000000 0.000000 0.000000
v 0.642440 -0.161444 1.641855
vn 0.000000 0.000000 0.000000
v 0.323560 -0.151608 1.630740
vn 0.000000 0.000000 0.000000
v 0.620801 0.059523 1.538846
vn 0.000000 0.000000 0.000000
v 0.417116 -0.025815 1.598023
vn 0.000000 0.000000 0.000000
v 0.458588 -0.108213 1.646531
vn -0.214604 -0.961611 0.171025
v 0.320636 -0.421057 1.665086
vn 0.077114 -0.807910 0.584239
v 0.549643 -0.381442 1.691820
vn 0.000000 0.000000 0.000000
v 0.509319 -0.293966 1.695507
vn 0.000000 0.000000 0.000000
v 0.379936 -0.231162 1.686732
vn 0.000000 0.000000 0.000000
v 0.688955 -0.328503 1.682621
vn 0.000000 0.000000 0.000000
v 0.220812 -0.346787 1.758873
vn -0.078476 -0.979765 0.184127
v 0.243866 -0.398914 1.748747
vn 0.156322 -0.824460 0.543901
v 0.393702 -0.367201 1.724636
vn 0.000000 0.000000 0.000000
v 0.268520 -0.227772 1.695836
vn 0.060638 -0.952661 0.297925
v 0.215732 -0.384647 1.800094
vn 0.126619 -0.936497 0.327019
v 0.268706 -0.387315 1.780781
vn 0.000000 0.000000 0.000000
v 0.208819 -0.358731 1.803812
vn 0.000000 0.000000 0.000000
v 0.235856 -0.355805 1.797482
vn 0.000000 0.000000 0.000000
v 0.274181 -0.300027 1.749826
# 210 vertices, 0 vertices normals

f 6//6 11//11 13//13
f 11//11 20//20 13//13
f 11//11 21//21 20//20
f 44//44 39//39 45//45
f 197//197 187//187 204//204
f 103//103 114//114 112//112
f 45//45 59//59 44//44
f 45//45 39//39 60//60
f 130//130 92//92 77//77
f 144//144 135//135 128//128
f 143//143 135//135 144//144
f 189//189 187//187 165//165
f 20//20 25//25 22//22
f 43//43 25//25 57//57
f 25//25 20//20 57//57
f 84//84 60//60 67//67
f 130//130 99//99 92//92
f 99//99 84//84 92//92
f 15//15 24//24 23//23
f 25//25 24//24 22//22
f 92//92 84//84 67//67
f 203//203 190//190 197//197
f 197//197 166//166 187//187
f 5//5 8//8 2//2
f 25//25 37//37 24//24
f 121//121 134//134 99//99
f 99//99 130//130 121//121
f 152//152 139//139 161//161
f 59//59 20//20 44//44
f 60//60 39//39 52//52
f 60//60 52//52 67//67
f 59//59 100//100 20//20
f 44//44 20//20 28//28
f 120//120 111//111 99//99
f 134//134 120//120 99//99
f 139//139 130//130 151//151
f 144//144 152//152 169//169
f 166//166 143//143 175//175
f 144//144 175//175 143//143
f 166//166 175//175 187//187
f 175//175 165//165 187//187
f 65//65 57//57 83//83
f 100//100 83//83 57//57
f 57//57 20//20 100//100
f 160//160 112//112 143//143
f 135//135 143//143 112//112
f 8//8 5//5 15//15
f 15//15 14//14 8//8
f 15//15 5//5 24//24
f 5//5 10//10 22//22
f 22//22 24//24 5//5
f 128//128 111//111 144//144
f 160//160 143//143 197//197
f 197//197 143//143 166//166
f 144//144 169//169 175//175
f 165//165 175//175 169//169
f 5//5 2//2 3//3
f 5//5 3//3 10//10
f 59//59 45//45 99//99
f 45//45 60//60 99//99
f 60//60 84//84 99//99
f 117//117 103//103 112//112
f 144//144 131//131 152//152
f 134//134 121//121 152//152
f 139//139 152//152 121//121
f 203//203 197//197 207//207
f 20//20 22//22 13//13
f 99//99 100//100 59//59
f 112//112 114//114 135//135
f 114//114 111//111 128//128
f 128//128 135//135 114//114
f 103//103 110//110 83//83
f 108//108 83//83 100//100
f 103//103 83//83 114//114
f 114//114 83//83 108//108
f 114//114 108//108 100//100
f 100//100 111//111 114//114
f 100//100 99//99 111//111
f 111//111 120//120 134//134
f 134//134 131//131 111//111
f 130//130 139//139 121//121
f 111//111 131//131 144//144
f 131//131 134//134 152//152
f 169//169 152//152 165//165
f 152//152 179//179 165//165
f 187//187 198//198 204//204
f 24//24 37//37 23//23
f 130//130 77//77 116//116
f 161//161 139//139 151//151
f 165//165 183//183 189//189
f 57//57 65//65 43//43
f 183//183 165//165 179//179
f 92//92 67//67 77//77
f 187//187 189//189 198//198
f 8//8 18//18 2//2
f 4//4 2//2 18//18
f 13//13 10//10 6//6
f 25//25 43//43 37//37
f 44//44 28//28 33//33
f 39//39 44//44 33//33
f 130//130 116//116 123//123
f 161//161 179//179 152//152
f 2//2 1//1 3//3
f 23//23 14//14 15//15
f 130//130 123//123 151//151
f 79//79 65//65 83//83
f 14//14 18//18 8//8
f 10//10 13//13 22//22
f 117//117 112//112 160//160
f 197//197 190//190 160//160
f 4//4 1//1 2//2
f 10//10 3//3 6//6
f 207//207 206//206 203//203
f 207//207 197//197 204//204
f 110//110 79//79 83//83
f 117//117 110//110 103//103
f 28//28 20//20 21//21
f 44//44 28//28 33//33
f 28//28 21//21 33//33
# 119 faces, 0 coords texture

# End of File
