####
#
# OBJ File Generated by Meshlab
#
####
# Object head_part04_seg_04.obj
#
# Vertices: 241
# Faces: 147
#
####
vn 0.2798654 0.4819109 -2.9973335
v 0.3717814 1.0833542 -1.1842948
vn 1.1477376 1.1810443 -5.7483025
v 0.4116864 1.1479467 -1.1701837
vn -0.2832127 -0.3941355 -0.8743271
v 0.2377824 0.9503593 -1.1810459
vn 0.0495405 -0.3919519 -0.9186509
v 0.3305006 0.9226423 -1.1700879
vn 0.0205845 0.0064903 -0.9997671
v 0.3180521 1.0183036 -1.1958928
vn -0.4979162 0.4349287 -0.7502777
v 0.3172148 1.2133093 -1.1100832
vn -0.0762961 -0.6231669 -0.7783585
v 0.3853415 0.8488460 -1.1249217
vn 0.0292429 -0.6118816 -0.7904087
v 0.4928673 0.8170045 -1.1135660
vn -0.6256894 -0.4813147 -0.6138802
v 0.1681304 0.9280233 -1.1095215
vn -0.2860416 -0.7058160 -0.6480771
v 0.2520212 0.8881031 -1.1301237
vn -0.6461521 -0.2704341 -0.7136897
v 0.1926270 0.9863195 -1.1537898
vn -0.1255563 0.1246045 -0.9842303
v 0.2554151 1.0280635 -1.1866667
vn -0.2092476 0.4342770 -1.6160352
v 0.3211976 1.1227006 -1.1652514
vn 1.5116041 0.0644770 -3.4040151
v 0.4294190 1.0305686 -1.1703284
vn 0.5191273 0.8523857 -3.1345203
v 0.3836778 1.2187012 -1.1510652
vn 1.8198804 -0.1381002 -3.1017444
v 0.5273249 0.8736464 -1.1215575
vn 1.0038041 -0.0379892 -2.1649902
v 0.4495694 0.9294257 -1.1559172
vn 3.3651676 -1.7809054 -4.8610992
v 0.5989835 0.8284166 -1.0671076
vn 0.0000000 0.0000000 0.0000000
v 0.2116243 1.0654100 -1.1101258
vn 2.7827365 0.0767376 -5.6223650
v 0.5422393 1.0386052 -1.1148663
vn -0.3119361 0.4077356 -0.8581652
v 0.3640342 1.2865863 -1.1116711
vn 1.7906923 -0.7543313 -2.2974505
v 0.5515502 0.8188283 -1.1009301
vn 0.7526757 0.9873929 -3.2957687
v 0.4199093 1.3029149 -1.1242231
vn 2.8612990 0.5913118 -5.5485892
v 0.4733783 1.1055521 -1.1449119
vn 2.1369166 1.0933203 -5.7888789
v 0.4788609 1.2127969 -1.1259354
vn 2.8831680 0.7600766 -5.4309111
v 0.5782083 1.1957116 -1.0906279
vn 1.4055153 1.3345531 -4.6883092
v 0.4844136 1.3350656 -1.0998151
vn 3.6569288 0.8256351 -5.0402946
v 0.6513078 1.2044495 -1.0350693
vn 3.4616151 -0.5736135 -5.1968107
v 0.6270056 0.9138018 -1.0610054
vn -0.6920108 -0.6493500 -0.3153818
v 0.1334420 0.8933436 -1.0251789
vn 0.0000000 0.0000000 0.0000000
v 0.3617780 1.4188752 -1.0200667
vn -0.8095834 0.2196786 -0.5443493
v 0.1485305 1.0151708 -1.0628854
vn 1.1813771 -1.2586524 -1.7502449
v 0.5569259 0.7787931 -1.0597914
vn 2.7762637 1.2122151 -5.4562049
v 0.5607212 1.3034897 -1.0773375
vn 0.0804633 0.4022483 -0.7424953
v 0.4129174 1.3861336 -1.0798969
vn 3.3640182 -0.0922749 -5.1975121
v 0.6358207 1.0317223 -1.0687788
vn 1.4131322 0.7921091 -3.0922627
v 0.5118828 1.4377754 -1.0657175
vn 3.3278377 0.4618135 -5.2653208
v 0.6159021 1.1158606 -1.0751055
vn 0.0000000 0.0000000 0.0000000
v 0.2992889 1.3022885 -1.0382839
vn -0.1102851 0.2992343 -0.9477848
v 0.4274970 1.5058992 -1.0343902
vn 0.7339218 1.1793668 -2.3898189
v 0.4900640 1.5850916 -1.0166680
vn -0.3504479 -0.8276416 -0.4384013
v 0.2533398 0.8421814 -1.0563620
vn -0.1867732 -0.8784512 -0.4398172
v 0.4233950 0.7882665 -1.0451943
vn 0.0000000 0.0000000 0.0000000
v 0.2635853 1.1704993 -1.0842301
vn 3.5376856 1.0506988 -5.0841208
v 0.6270882 1.2892784 -1.0360789
vn 3.1151645 1.5395107 -5.2120028
v 0.5712726 1.5007739 -1.0190070
vn 3.0398614 -1.9170136 -5.0498919
v 0.6506728 0.8057793 -1.0243686
vn 1.6552041 2.0226710 -5.3389845
v 0.5284464 1.5321960 -1.0352154
vn 0.0000000 0.0000000 0.0000000
v 0.1895278 1.1540675 -1.0333699
vn -0.1415665 -0.9205677 -0.3640249
v 0.5216946 0.7367014 -0.9728146
vn 1.1499848 -1.4384288 -2.4141645
v 0.6287403 0.7398758 -0.9958830
vn 1.2307444 -1.5910039 -2.3652616
v 0.6877768 0.7149213 -0.9554607
vn -0.2891486 -0.9102439 -0.2963934
v 0.3286794 0.7880926 -0.9908642
vn -0.3496441 0.5023963 -0.7907888
v 0.4143978 1.5918578 -0.9789138
vn 4.0141954 0.9186497 -4.6704607
v 0.7201629 1.2226548 -0.9844526
vn 3.5686164 2.0120034 -4.2846622
v 0.6214125 1.5429547 -0.9795786
vn 2.9116590 3.3901701 -4.1062837
v 0.5618564 1.6020454 -0.9801872
vn 3.8726931 -0.2806831 -4.9329481
v 0.7055919 0.9893255 -1.0099741
vn 1.4253461 1.3859237 -1.1501513
v 0.5074694 1.6596971 -0.9781176
vn -0.8689514 -0.1176789 -0.4807029
v 0.1167540 0.9408396 -1.0456231
vn 3.8261721 0.4574472 -4.9591217
v 0.6940186 1.1021175 -1.0163264
vn 4.1050830 0.1163307 -4.6459079
v 0.7676165 1.0520265 -0.9666212
vn 3.3685517 1.3720900 -5.0966916
v 0.6152348 1.3842978 -1.0242487
vn 3.8724451 1.2010192 -4.7716246
v 0.6811031 1.3302727 -0.9897278
vn 0.0000000 0.0000000 0.0000000
v 0.3446827 1.5155534 -0.9465798
vn 4.2821679 1.7882993 -4.0997534
v 0.6567041 1.4743474 -0.9647688
vn -0.9452048 0.2836219 -0.1616993
v 0.1345052 1.1408266 -0.9634450
vn -0.0827723 -0.9467902 -0.3110260
v 0.6277508 0.7065219 -0.9172876
vn 1.5051372 -1.6992115 -1.9908639
v 0.7308843 0.7015385 -0.9173927
vn 1.2245512 1.5728991 -0.4251515
v 0.5185682 1.6615589 -0.9240826
vn 4.4734201 -0.2538232 -4.3704133
v 0.8060196 0.9673066 -0.9229907
vn 0.0000000 0.0000000 0.0000000
v 0.1957998 1.2784847 -0.9626415
vn 3.2028575 4.6767645 -1.0393107
v 0.5788045 1.6258672 -0.9302251
vn -0.9722981 -0.0878391 -0.2166120
v 0.0843379 0.9702626 -0.9653756
vn -0.4026379 -0.9152331 -0.0152064
v 0.2619227 0.8038990 -0.9331315
vn 0.0000000 0.0000000 0.0000000
v 0.2567005 1.3838667 -0.9494629
vn 4.2465997 3.2916973 -1.7021737
v 0.6373390 1.5709102 -0.9395454
vn 4.5182362 1.2927893 -4.1596766
v 0.7614290 1.2853842 -0.9234186
vn -0.4457479 -0.8840765 -0.1404192
v 0.2121838 0.8299550 -0.9692067
vn 3.9415097 -2.0371084 -3.8873034
v 0.7908139 0.7523030 -0.9141824
vn -0.2046313 0.8583108 -0.4705620
v 0.4445403 1.6645422 -0.9460641
vn 3.8402503 -0.6166344 -4.9023905
v 0.7236808 0.8788238 -0.9884364
vn 4.3160076 0.7952136 -4.4669805
v 0.7638102 1.1533786 -0.9542763
vn 3.1212561 -2.0547316 -4.7621393
v 0.7260512 0.7618426 -0.9671068
vn 0.0000000 0.0000000 0.0000000
v 0.3114225 1.4276582 -0.9663418
vn -0.5735074 0.6089357 -0.5479842
v 0.3311701 1.6124038 -0.8853512
vn 0.0000000 0.0000000 0.0000000
v 0.2039417 1.3631939 -0.9126036
vn 4.4519529 0.9562979 -4.3223362
v 0.8018699 1.1887053 -0.9031205
vn -0.9698977 -0.1360501 0.2019622
v 0.0754634 0.9651684 -0.8915361
vn 2.5550940 1.4241241 -1.2282908
v 0.6893637 1.5045298 -0.8874776
vn -0.9599707 0.2692190 0.0773139
v 0.1098887 1.0969872 -0.8964453
vn 4.3175178 -0.5886332 -4.5155811
v 0.7923745 0.8414484 -0.9221585
vn 4.4375305 1.9677768 -3.7451737
v 0.7183626 1.4071090 -0.9350442
vn -0.2505525 -0.9586219 -0.1351573
v 0.5223407 0.7115505 -0.8830267
vn -0.1470323 -0.9789797 -0.1413515
v 0.5959679 0.6897721 -0.8536770
vn -0.7060310 -0.6997803 0.1087557
v 0.1174884 0.8879661 -0.9191378
vn 4.5076852 -0.9324529 -4.2250834
v 0.8527237 0.8091720 -0.8518478
vn -0.9667241 0.2430001 0.0799722
v 0.1680620 1.2930733 -0.8878682
vn 1.8920994 2.0621557 0.2640111
v 0.6029309 1.6006669 -0.8876988
vn 4.1366138 1.8559364 -1.9463570
v 0.7783703 1.3709308 -0.8691815
vn -0.4580117 -0.8750321 0.1566654
v 0.2547314 0.8105913 -0.8904061
vn -0.0607251 0.9733282 -0.2212343
v 0.3830103 1.6821167 -0.8621389
vn -0.3043525 -0.9439541 -0.1277508
v 0.3743829 0.7611363 -0.9321367
vn 0.0000000 0.0000000 0.0000000
v 0.1292669 1.1009146 -0.8570037
vn 4.7673478 -0.3826435 -4.0172467
v 0.8487602 0.9005244 -0.8729967
vn -0.8737311 0.3877876 -0.2936233
v 0.2326524 1.4417183 -0.8837539
vn 4.6975188 0.4427259 -4.1072178
v 0.8410338 1.0949883 -0.8835492
vn 4.7849560 1.4243915 -3.6282670
v 0.8363476 1.2193967 -0.8642378
vn -0.9944499 0.0984915 0.0369971
v 0.1853647 1.3792876 -0.8254927
vn 4.3716569 2.1837788 -0.9169675
v 0.8416514 1.2662712 -0.8174636
vn 4.7361774 -0.1717098 -4.1152234
v 0.8784201 0.9751261 -0.8348482
vn 5.1908231 0.4771248 -3.2914684
v 0.9196118 1.0344716 -0.7922742
vn 0.4602822 0.8291942 0.3171394
v 0.5127183 1.6280242 -0.8361152
vn -0.0207989 -0.9866810 -0.1613322
v 0.6946910 0.6787478 -0.8237848
vn 5.2152042 1.5891445 -1.4504071
v 0.8934272 1.1536801 -0.8082933
vn -0.3690331 0.8425311 -0.3923723
v 0.3151200 1.6752269 -0.8338487
vn -0.0622366 0.9948194 -0.0803802
v 0.3355893 1.7031330 -0.7931784
vn 0.3800537 0.8929007 0.2414282
v 0.4109769 1.6667646 -0.7802562
vn 2.1303287 -1.4548690 -2.2321575
v 0.8092968 0.6967117 -0.8378828
vn 0.8350899 0.4776531 -0.0551927
v 0.7629911 1.4040008 -0.8156786
vn 0.2416985 0.9656084 0.0958251
v 0.4461263 1.6774409 -0.8686715
vn 0.0000000 0.0000000 0.0000000
v 0.1649035 1.0805092 -0.8338778
vn -0.5618347 -0.5322497 0.6332867
v 0.1634884 0.9504265 -0.8258326
vn -0.9210846 0.2516129 0.2971432
v 0.1007688 1.0183266 -0.8581073
vn -0.9163404 0.1196753 0.3820972
v 0.1825602 1.2213843 -0.8306453
vn -0.9469530 0.1964448 -0.2543413
v 0.2144063 1.5187399 -0.8259108
vn -0.9351315 0.3351962 -0.1147721
v 0.2032791 1.5703080 -0.7833069
vn -0.9881278 -0.0047206 0.1535618
v 0.1886813 1.4609061 -0.7748014
vn 0.0000000 0.0000000 0.0000000
v 0.3123156 1.2155007 -0.7577271
vn -0.5025145 -0.7968818 0.3353487
v 0.2478615 0.8498793 -0.8073414
vn -0.5830073 0.8109534 -0.0495701
v 0.2655749 1.6727357 -0.7714029
vn 0.0000000 0.0000000 0.0000000
v 0.6373382 1.5270535 -0.8082375
vn 3.5391974 -1.2541865 -4.5752840
v 0.9466827 0.6787776 -0.7502665
vn 4.7658396 -0.2150661 -4.0470395
v 0.9015297 0.8844576 -0.7983355
vn 0.0000000 0.0000000 0.0000000
v 0.2572854 1.6225820 -0.8188367
vn 0.0000000 0.0000000 0.0000000
v 0.2458548 1.1119570 -0.8027903
vn 1.2655287 -1.2127278 -2.5115647
v 0.8742622 0.6612687 -0.7691032
vn 3.8513575 -1.1229597 -4.6292591
v 0.9050307 0.7514325 -0.7974884
vn 4.5698695 0.1444237 -4.2916284
v 0.9129544 0.8254828 -0.7912924
vn -0.4610199 -0.8705346 0.1721343
v 0.3886790 0.7638302 -0.8076937
vn 0.0000000 0.0000000 0.0000000
v 0.6130334 1.5070577 -0.7561775
vn 3.5197105 1.7315021 0.3786827
v 0.8631198 1.2221667 -0.7761952
vn -0.9391668 0.3309201 0.0919650
v 0.2016552 1.5877004 -0.7192804
vn 3.8010097 1.0063089 -0.6474401
v 0.9338605 1.0534806 -0.7491046
vn 0.5790859 0.4356779 0.1643704
v 0.8048238 1.2896268 -0.7496241
vn 2.8653767 -0.7978230 -1.8545196
v 0.9735099 0.6401294 -0.7142172
vn 1.6840332 0.6147884 0.6677994
v 0.9301775 1.0026226 -0.6929961
vn 2.0685792 0.9731768 0.5527197
v 0.8788105 1.1395549 -0.7287194
vn 0.0000000 0.0000000 0.0000000
v 0.3118740 0.9093006 -0.7474327
vn 4.8985991 -0.3590543 -3.7110562
v 0.9325405 0.9531481 -0.7793333
vn 1.0253868 -0.9174789 -2.0315790
v 0.9364374 0.6284451 -0.7327069
vn -0.8738010 -0.2304459 0.4282133
v 0.2176018 1.3522173 -0.7742787
vn 0.0000000 0.0000000 0.0000000
v 0.7059288 1.4050014 -0.7379764
vn -0.2990454 -0.9532393 0.0436669
v 0.5576679 0.6991222 -0.7648025
vn 3.4137278 0.2292345 -1.8976839
v 0.9682705 0.9265978 -0.7190678
vn -0.5974905 -0.7598391 0.2562218
v 0.4288905 0.7610468 -0.7295267
vn -0.1422146 -0.9833083 -0.1134894
v 0.7535032 0.6598040 -0.7104371
vn -0.1721694 -0.9815288 -0.0834208
v 0.8870257 0.6355278 -0.6990784
vn -0.4740157 0.8273869 0.3012308
v 0.2622459 1.6640280 -0.6871984
vn 5.2691293 -1.0141318 -3.0408528
v 0.9992507 0.6931419 -0.6760750
vn 0.0000000 0.0000000 0.0000000
v 0.4028156 1.0899608 -0.7073570
vn 0.0000000 0.0000000 0.0000000
v 0.4620652 1.1182314 -0.6583520
vn 0.0000000 0.0000000 0.0000000
v 0.7492566 1.3206730 -0.7122259
vn -0.8811421 -0.1110970 0.4596152
v 0.2168870 1.4716274 -0.7181359
vn 5.0802207 -0.2641731 -3.0718117
v 1.0154042 0.7977076 -0.6796418
vn 0.0000000 0.0000000 0.0000000
v 0.4093135 1.2604804 -0.6848031
vn 0.0000000 0.0000000 0.0000000
v 0.3470875 1.3267821 -0.7123606
vn 4.7130485 0.1682952 -4.1354384
v 0.9637640 0.8171537 -0.7345940
vn 0.0000000 0.0000000 0.0000000
v 0.2932169 1.3872498 -0.7141508
vn 0.0000000 0.0000000 0.0000000
v 0.3284540 1.0298244 -0.7519716
vn -0.6193536 -0.7421957 0.2560210
v 0.4702549 0.7500746 -0.6588402
vn 0.0000000 0.0000000 0.0000000
v 0.8457589 0.9560168 -0.6208313
vn 0.0000000 0.0000000 0.0000000
v 0.9819756 0.9092628 -0.6545136
vn -0.9315662 0.0200436 0.3630190
v 0.2205936 1.5728509 -0.6698616
vn -0.7678173 0.5036138 0.3960176
v 0.2227206 1.6220753 -0.6671211
vn 2.1080217 -1.2099106 -0.9447075
v 0.9755058 0.6298197 -0.6506316
vn 0.4755845 0.7532825 0.4542960
v 0.4151964 1.6001000 -0.6741347
vn 0.0000000 0.0000000 0.0000000
v 0.5342610 1.5299039 -0.7085712
vn 0.0471496 0.9430373 0.3293291
v 0.3243754 1.6880862 -0.7249504
vn 0.0000000 0.0000000 0.0000000
v 0.4613127 0.9855388 -0.6605576
vn -0.7499955 -0.5552230 0.3594915
v 0.3902687 0.8294020 -0.7045296
vn 0.0000000 0.0000000 0.0000000
v 0.8151679 1.1069857 -0.6644114
vn 0.0000000 0.0000000 0.0000000
v 0.9282140 0.8860444 -0.6113917
vn 4.9376941 -0.3873376 -3.8367271
v 0.9718649 0.7457422 -0.7217866
vn 0.0000000 0.0000000 0.0000000
v 0.5067161 1.3790413 -0.5977319
vn 0.0000000 0.0000000 0.0000000
v 0.6302706 1.3744514 -0.6263853
vn 0.0000000 0.0000000 0.0000000
v 0.5114622 0.8826349 -0.6043175
vn 0.0000000 0.0000000 0.0000000
v 0.3644956 1.5355792 -0.6267674
vn -0.1206147 -0.9731166 0.1962045
v 0.8723169 0.6432922 -0.6071482
vn 3.1104476 0.5063381 -1.3312821
v 1.0191401 0.8511374 -0.6602196
vn -0.2520218 0.6005816 0.7588060
v 0.2753302 1.6106386 -0.6405959
vn 0.0000000 0.0000000 0.0000000
v 0.5041769 1.4950719 -0.6205745
vn 0.0274725 0.8218939 0.5689777
v 0.3337898 1.6309816 -0.6429169
vn 0.0000000 0.0000000 0.0000000
v 0.4604833 1.4530640 -0.6039351
vn 0.0000000 0.0000000 0.0000000
v 0.5385794 1.2541031 -0.5869969
vn 0.0000000 0.0000000 0.0000000
v 0.3875891 1.4130270 -0.6583360
vn 0.0000000 0.0000000 0.0000000
v 0.7340852 1.2342950 -0.6556920
vn 0.0000000 0.0000000 0.0000000
v 0.2862489 1.5163223 -0.6599849
vn 0.0000000 0.0000000 0.0000000
v 0.4554121 1.5375264 -0.6299229
vn 0.0000000 0.0000000 0.0000000
v 0.5613000 1.1061502 -0.5823594
vn 4.1758051 0.4647494 -1.0065875
v 1.0380002 0.7585564 -0.6125627
vn 0.0000000 0.0000000 0.0000000
v 0.5084130 1.4535238 -0.5928305
vn 0.0000000 0.0000000 0.0000000
v 0.7587233 1.0702066 -0.6172917
vn 3.3405924 -1.2204634 0.0180048
v 1.0649608 0.6571876 -0.5632086
vn 1.4424188 0.4878258 0.3768454
v 1.0098771 0.8251375 -0.5911074
vn 0.0000000 0.0000000 0.0000000
v 0.4507160 1.5001562 -0.6070476
vn 0.0000000 0.0000000 0.0000000
v 0.5573719 1.4349990 -0.6047429
vn 2.3641024 -2.1073623 -0.3410403
v 1.0392814 0.6345467 -0.5653874
vn 0.0000000 0.0000000 0.0000000
v 0.4005066 1.5588052 -0.6254556
vn 5.0721116 -1.0183309 -2.4356062
v 1.0514697 0.6737214 -0.5916287
vn -0.3733965 -0.9082665 0.1887513
v 0.5945286 0.6967567 -0.5939082
vn 0.0000000 0.0000000 0.0000000
v 0.6072427 0.8238750 -0.4985988
vn 0.0000000 0.0000000 0.0000000
v 0.5963024 1.2134498 -0.5595307
vn 0.0000000 0.0000000 0.0000000
v 0.6126369 0.9205659 -0.5340254
vn -0.8376809 -0.2244166 0.4979236
v 0.4960025 0.7888297 -0.5980566
vn -0.0956641 -0.9605038 0.2613062
v 0.9821138 0.6279582 -0.5748220
vn -0.0688736 -0.0026248 0.9976220
v 0.9126530 0.7472862 -0.5307263
vn -0.6150427 -0.6826860 0.3945406
v 0.5130163 0.7401357 -0.5913800
vn 0.0000000 0.0000000 0.0000000
v 0.6458203 1.1365073 -0.5739797
vn 0.0000000 0.0000000 0.0000000
v 0.5708084 1.3690566 -0.5807249
vn 0.0000000 0.0000000 0.0000000
v 0.6024255 1.2909178 -0.5719019
vn 0.0000000 0.0000000 0.0000000
v 0.6462725 1.2663829 -0.5861002
vn 0.0000000 0.0000000 0.0000000
v 0.8332672 0.8182535 -0.5402394
vn 0.0000000 0.0000000 0.0000000
v 0.7229905 0.9557639 -0.5475661
vn -0.1932259 -0.9723189 0.1313759
v 0.7183044 0.6647965 -0.5638872
vn 0.0000000 0.0000000 0.0000000
v 0.7720749 0.8158079 -0.4958619
vn -0.0913512 -0.0426016 1.0897871
v 0.9647398 0.6618086 -0.5273552
vn -0.0270595 -0.9196122 0.3918944
v 0.7773783 0.6666148 -0.5200174
vn 0.0000000 0.0000000 0.0000000
v 0.6077007 1.0189512 -0.5579680
vn 0.4795870 -0.2067511 0.8527897
v 0.8427451 0.7315677 -0.5007380
vn 1.1894131 -0.6899039 2.6090627
v 1.0249242 0.6469696 -0.5228903
vn 0.1199622 -0.6659995 0.7362430
v 0.8760836 0.6739990 -0.5334437
vn 3.8620121 0.2188997 2.3164499
v 1.0586816 0.6776947 -0.5394156
vn -0.2655243 -0.8503218 0.4543674
v 0.6705083 0.6957266 -0.4960039
vn 0.0000000 0.0000000 0.0000000
v 0.7537916 0.7517062 -0.4507576
vn -0.4636474 -0.7833819 0.4139369
v 0.5793013 0.7428806 -0.5236739
vn 1.1991777 0.7902920 2.1223547
v 1.0139649 0.7185677 -0.5210101
vn 0.0000000 0.0000000 0.0000000
v 0.9735553 0.7776566 -0.5370953
vn 0.0000000 0.0000000 0.0000000
v 0.6900472 0.8204055 -0.4648652
vn -0.1764402 -0.6309953 0.7554560
v 0.6718213 0.7430753 -0.4561492
vn 0.0897927 -0.6777348 0.7298033
v 0.7721657 0.6999876 -0.4687023
# 241 vertices, 0 vertices normals

f 119//119 69//69 80//80
f 138//138 119//119 97//97
f 165//165 190//190 201//201
f 201//201 190//190 205//205
f 137//137 133//133 151//151
f 151//151 133//133 146//146
f 23//23 27//27 25//25
f 190//190 168//168 155//155
f 237//237 233//233 201//201
f 233//233 210//210 201//201
f 90//90 93//93 66//66
f 100//100 93//93 90//90
f 13//13 2//2 1//1
f 110//110 108//108 100//100
f 110//110 100//100 120//120
f 108//108 110//110 115//115
f 112//112 115//115 144//144
f 148//148 144//144 115//115
f 56//56 77//77 66//66
f 77//77 56//56 57//57
f 77//77 57//57 73//73
f 146//146 160//160 176//176
f 41//41 59//59 57//57
f 115//115 107//107 108//108
f 112//112 107//107 115//115
f 142//142 110//110 145//145
f 142//142 115//115 110//110
f 142//142 148//148 115//115
f 160//160 146//146 133//133
f 165//165 168//168 190//190
f 57//57 48//48 41//41
f 137//137 119//119 138//138
f 133//133 137//137 138//138
f 204//204 208//208 210//210
f 210//210 160//160 201//201
f 84//84 51//51 47//47
f 51//51 33//33 47//47
f 33//33 18//18 47//47
f 66//66 77//77 90//90
f 73//73 99//99 77//77
f 99//99 90//90 77//77
f 99//99 73//73 70//70
f 227//227 231//231 237//237
f 233//233 237//237 231//231
f 155//155 112//112 144//144
f 25//25 2//2 15//15
f 23//23 25//25 15//15
f 2//2 13//13 15//15
f 48//48 37//37 41//41
f 70//70 57//57 59//59
f 70//70 73//73 57//57
f 14//14 1//1 2//2
f 33//33 22//22 18//18
f 84//84 52//52 51//51
f 84//84 69//69 52//52
f 69//69 84//84 80//80
f 80//80 97//97 119//119
f 210//210 208//208 176//176
f 210//210 176//176 160//160
f 201//201 160//160 184//184
f 201//201 184//184 165//165
f 231//231 208//208 233//233
f 208//208 204//204 233//233
f 233//233 204//204 210//210
f 29//29 20//20 36//36
f 36//36 58//58 29//29
f 62//62 58//58 61//61
f 83//83 62//62 61//61
f 61//61 55//55 83//83
f 108//108 88//88 78//78
f 100//100 108//108 78//78
f 26//26 25//25 34//34
f 34//34 25//25 27//27
f 27//27 23//23 35//35
f 155//155 144//144 147//147
f 105//105 71//71 111//111
f 71//71 107//107 111//111
f 108//108 107//107 88//88
f 82//82 29//29 58//58
f 58//58 36//36 61//61
f 61//61 36//36 38//38
f 28//28 61//61 38//38
f 88//88 83//83 78//78
f 78//78 93//93 100//100
f 20//20 29//29 16//16
f 38//38 36//36 20//20
f 111//111 112//112 150//150
f 17//17 14//14 20//20
f 18//18 16//16 29//29
f 28//28 45//45 64//64
f 55//55 28//28 64//64
f 64//64 45//45 63//63
f 66//66 63//63 46//46
f 66//66 64//64 63//63
f 97//97 105//105 134//134
f 107//107 112//112 111//111
f 134//134 105//105 111//111
f 184//184 160//160 133//133
f 165//165 184//184 168//168
f 56//56 66//66 46//46
f 57//57 46//46 48//48
f 56//56 46//46 57//57
f 184//184 133//133 138//138
f 168//168 184//184 138//138
f 139//139 138//138 97//97
f 139//139 168//168 138//138
f 139//139 97//97 134//134
f 55//55 61//61 28//28
f 45//45 34//34 63//63
f 84//84 47//47 82//82
f 105//105 92//92 71//71
f 71//71 62//62 107//107
f 88//88 107//107 83//83
f 28//28 38//38 26//26
f 45//45 28//28 26//26
f 34//34 45//45 26//26
f 34//34 37//37 63//63
f 63//63 37//37 46//46
f 47//47 18//18 29//29
f 47//47 29//29 82//82
f 155//155 168//168 134//134
f 168//168 139//139 134//134
f 155//155 134//134 150//150
f 134//134 111//111 150//150
f 150//150 112//112 155//155
f 92//92 82//82 71//71
f 82//82 58//58 71//71
f 71//71 58//58 62//62
f 107//107 62//62 83//83
f 20//20 16//16 17//17
f 37//37 34//34 27//27
f 48//48 46//46 37//37
f 83//83 55//55 78//78
f 78//78 55//55 64//64
f 93//93 64//64 66//66
f 78//78 64//64 93//93
f 24//24 20//20 14//14
f 24//24 14//14 2//2
f 24//24 2//2 25//25
f 20//20 26//26 38//38
f 20//20 24//24 25//25
f 25//25 26//26 20//20
f 16//16 18//18 22//22
f 80//80 84//84 92//92
f 84//84 82//82 92//92
f 97//97 80//80 92//92
f 97//97 92//92 105//105
# 147 faces, 0 coords texture

# End of File
