####
#
# OBJ File Generated by Meshlab
#
####
# Object head_part04_seg_01.obj
#
# Vertices: 241
# Faces: 83
#
####
vn 0.2249837 -0.0121206 -0.9742872
v 0.3717814 1.0833542 -1.1842948
vn 0.0000000 0.0000000 0.0000000
v 0.4116864 1.1479467 -1.1701837
vn -0.1835544 -0.5380635 -0.8226758
v 0.2377824 0.9503593 -1.1810459
vn 0.0284249 -0.4156474 -0.9090816
v 0.3305006 0.9226423 -1.1700879
vn 0.1773289 -0.1850927 -0.9665895
v 0.3180521 1.0183036 -1.1958928
vn 0.0000000 0.0000000 0.0000000
v 0.3172148 1.2133093 -1.1100832
vn -0.0855686 -0.6608163 -0.7456540
v 0.3853415 0.8488460 -1.1249217
vn 0.0105943 -0.5813670 -0.8135725
v 0.4928673 0.8170045 -1.1135660
vn -0.5103969 -0.6780933 -0.5288522
v 0.1681304 0.9280233 -1.1095215
vn -0.3079273 -0.7200719 -0.6218339
v 0.2520212 0.8881031 -1.1301237
vn 0.0000000 0.0000000 0.0000000
v 0.1926270 0.9863195 -1.1537898
vn 0.0000000 0.0000000 0.0000000
v 0.2554151 1.0280635 -1.1866667
vn 0.0000000 0.0000000 0.0000000
v 0.3211976 1.1227006 -1.1652514
vn 0.1929992 -0.1139518 -0.9745595
v 0.4294190 1.0305686 -1.1703284
vn 0.0000000 0.0000000 0.0000000
v 0.3836778 1.2187012 -1.1510652
vn 0.1242638 -0.2853683 -0.9503281
v 0.5273249 0.8736464 -1.1215575
vn 0.1157233 -0.3194906 -0.9404967
v 0.4495694 0.9294257 -1.1559172
vn 0.0000000 0.0000000 0.0000000
v 0.5989835 0.8284166 -1.0671076
vn 0.0000000 0.0000000 0.0000000
v 0.2116243 1.0654100 -1.1101258
vn 0.0000000 0.0000000 0.0000000
v 0.5422393 1.0386052 -1.1148663
vn 0.0000000 0.0000000 0.0000000
v 0.3640342 1.2865863 -1.1116711
vn 0.1929391 -0.5422477 -0.8177664
v 0.5515502 0.8188283 -1.1009301
vn 0.0000000 0.0000000 0.0000000
v 0.4199093 1.3029149 -1.1242231
vn 0.0000000 0.0000000 0.0000000
v 0.4733783 1.1055521 -1.1449119
vn 0.0000000 0.0000000 0.0000000
v 0.4788609 1.2127969 -1.1259354
vn 0.0000000 0.0000000 0.0000000
v 0.5782083 1.1957116 -1.0906279
vn 0.0000000 0.0000000 0.0000000
v 0.4844136 1.3350656 -1.0998151
vn 0.0000000 0.0000000 0.0000000
v 0.6513078 1.2044495 -1.0350693
vn 0.0000000 0.0000000 0.0000000
v 0.6270056 0.9138018 -1.0610054
vn -0.6891776 -0.6514595 -0.3172297
v 0.1334420 0.8933436 -1.0251789
vn 0.0000000 0.0000000 0.0000000
v 0.3617780 1.4188752 -1.0200667
vn 0.0000000 0.0000000 0.0000000
v 0.1485305 1.0151708 -1.0628854
vn -0.0506313 -0.8547682 -0.5165344
v 0.5569259 0.7787931 -1.0597914
vn 0.0000000 0.0000000 0.0000000
v 0.5607212 1.3034897 -1.0773375
vn 0.0000000 0.0000000 0.0000000
v 0.4129174 1.3861336 -1.0798969
vn 0.0000000 0.0000000 0.0000000
v 0.6358207 1.0317223 -1.0687788
vn 0.0000000 0.0000000 0.0000000
v 0.5118828 1.4377754 -1.0657175
vn 0.0000000 0.0000000 0.0000000
v 0.6159021 1.1158606 -1.0751055
vn 0.0000000 0.0000000 0.0000000
v 0.2992889 1.3022885 -1.0382839
vn 0.0000000 0.0000000 0.0000000
v 0.4274970 1.5058992 -1.0343902
vn 0.0000000 0.0000000 0.0000000
v 0.4900640 1.5850916 -1.0166680
vn -0.3534888 -0.8324758 -0.4266495
v 0.2533398 0.8421814 -1.0563620
vn -0.1919843 -0.8764893 -0.4414845
v 0.4233950 0.7882665 -1.0451943
vn 0.0000000 0.0000000 0.0000000
v 0.2635853 1.1704993 -1.0842301
vn 0.0000000 0.0000000 0.0000000
v 0.6270882 1.2892784 -1.0360789
vn 0.0000000 0.0000000 0.0000000
v 0.5712726 1.5007739 -1.0190070
vn 0.0000000 0.0000000 0.0000000
v 0.6506728 0.8057793 -1.0243686
vn 0.0000000 0.0000000 0.0000000
v 0.5284464 1.5321960 -1.0352154
vn 0.0000000 0.0000000 0.0000000
v 0.1895278 1.1540675 -1.0333699
vn -0.1474276 -0.9209695 -0.3606664
v 0.5216946 0.7367014 -0.9728146
vn -0.0792941 -0.9080366 -0.4113174
v 0.6287403 0.7398758 -0.9958830
vn -0.0763227 -0.9418490 -0.3272543
v 0.6877768 0.7149213 -0.9554607
vn -0.2862777 -0.9134071 -0.2893658
v 0.3286794 0.7880926 -0.9908642
vn 0.0000000 0.0000000 0.0000000
v 0.4143978 1.5918578 -0.9789138
vn 0.0000000 0.0000000 0.0000000
v 0.7201629 1.2226548 -0.9844526
vn 0.0000000 0.0000000 0.0000000
v 0.6214125 1.5429547 -0.9795786
vn 0.0000000 0.0000000 0.0000000
v 0.5618564 1.6020454 -0.9801872
vn 0.0000000 0.0000000 0.0000000
v 0.7055919 0.9893255 -1.0099741
vn 0.0000000 0.0000000 0.0000000
v 0.5074694 1.6596971 -0.9781176
vn -0.8245739 -0.4418218 -0.3533716
v 0.1167540 0.9408396 -1.0456231
vn 0.0000000 0.0000000 0.0000000
v 0.6940186 1.1021175 -1.0163264
vn 0.0000000 0.0000000 0.0000000
v 0.7676165 1.0520265 -0.9666212
vn 0.0000000 0.0000000 0.0000000
v 0.6152348 1.3842978 -1.0242487
vn 0.0000000 0.0000000 0.0000000
v 0.6811031 1.3302727 -0.9897278
vn 0.0000000 0.0000000 0.0000000
v 0.3446827 1.5155534 -0.9465798
vn 0.0000000 0.0000000 0.0000000
v 0.6567041 1.4743474 -0.9647688
vn 0.0000000 0.0000000 0.0000000
v 0.1345052 1.1408266 -0.9634450
vn -0.0814450 -0.9457963 -0.3143821
v 0.6277508 0.7065219 -0.9172876
vn 0.0184518 -0.9712941 -0.2371651
v 0.7308843 0.7015385 -0.9173927
vn 0.4472523 0.8254364 0.3444130
v 0.5185682 1.6615589 -0.9240826
vn 0.0000000 0.0000000 0.0000000
v 0.8060196 0.9673066 -0.9229907
vn 0.0000000 0.0000000 0.0000000
v 0.1957998 1.2784847 -0.9626415
vn 0.0000000 0.0000000 0.0000000
v 0.5788045 1.6258672 -0.9302251
vn -0.8875277 -0.4324726 -0.1589402
v 0.0843379 0.9702626 -0.9653756
vn -0.3986272 -0.9164340 -0.0352866
v 0.2619227 0.8038990 -0.9331315
vn 0.0000000 0.0000000 0.0000000
v 0.2567005 1.3838667 -0.9494629
vn 0.0000000 0.0000000 0.0000000
v 0.6373390 1.5709102 -0.9395454
vn 0.0000000 0.0000000 0.0000000
v 0.7614290 1.2853842 -0.9234186
vn -0.4645147 -0.8740370 -0.1424270
v 0.2121838 0.8299550 -0.9692067
vn 0.0000000 0.0000000 0.0000000
v 0.7908139 0.7523030 -0.9141824
vn 0.0000000 0.0000000 0.0000000
v 0.4445403 1.6645422 -0.9460641
vn 0.0000000 0.0000000 0.0000000
v 0.7236808 0.8788238 -0.9884364
vn 0.0000000 0.0000000 0.0000000
v 0.7638102 1.1533786 -0.9542763
vn 0.0000000 0.0000000 0.0000000
v 0.7260512 0.7618426 -0.9671068
vn 0.0000000 0.0000000 0.0000000
v 0.3114225 1.4276582 -0.9663418
vn 0.0000000 0.0000000 0.0000000
v 0.3311701 1.6124038 -0.8853512
vn 0.0000000 0.0000000 0.0000000
v 0.2039417 1.3631939 -0.9126036
vn 0.0000000 0.0000000 0.0000000
v 0.8018699 1.1887053 -0.9031205
vn -0.5925937 -0.3850071 0.7075325
v 0.0754634 0.9651684 -0.8915361
vn 0.7214100 0.6567018 0.2197964
v 0.6893637 1.5045298 -0.8874776
vn -0.8687279 0.2956353 0.3973811
v 0.1098887 1.0969872 -0.8964453
vn 0.0000000 0.0000000 0.0000000
v 0.7923745 0.8414484 -0.9221585
vn 0.0000000 0.0000000 0.0000000
v 0.7183626 1.4071090 -0.9350442
vn -0.2526712 -0.9579607 -0.1358991
v 0.5223407 0.7115505 -0.8830267
vn -0.1482353 -0.9795219 -0.1362468
v 0.5959679 0.6897721 -0.8536770
vn -0.6050192 -0.4908834 0.6268854
v 0.1174884 0.8879661 -0.9191378
vn 0.0000000 0.0000000 0.0000000
v 0.8527237 0.8091720 -0.8518478
vn 0.0000000 0.0000000 0.0000000
v 0.1680620 1.2930733 -0.8878682
vn 0.5385498 0.7441523 0.3952234
v 0.6029309 1.6006669 -0.8876988
vn 0.8343998 0.5427956 -0.0956554
v 0.7783703 1.3709308 -0.8691815
vn -0.4637090 -0.8660245 0.1870172
v 0.2547314 0.8105913 -0.8904061
vn 0.0000000 0.0000000 0.0000000
v 0.3830103 1.6821167 -0.8621389
vn -0.2982388 -0.9472221 -0.1175756
v 0.3743829 0.7611363 -0.9321367
vn -0.7324661 0.2129429 0.6466442
v 0.1292669 1.1009146 -0.8570037
vn 0.0000000 0.0000000 0.0000000
v 0.8487602 0.9005244 -0.8729967
vn 0.0000000 0.0000000 0.0000000
v 0.2326524 1.4417183 -0.8837539
vn 0.0000000 0.0000000 0.0000000
v 0.8410338 1.0949883 -0.8835492
vn 0.0000000 0.0000000 0.0000000
v 0.8363476 1.2193967 -0.8642378
vn -0.8468472 -0.0023135 0.5318313
v 0.1853647 1.3792876 -0.8254927
vn 0.8327523 0.4718493 0.2896235
v 0.8416514 1.2662712 -0.8174636
vn 0.0000000 0.0000000 0.0000000
v 0.8784201 0.9751261 -0.8348482
vn 0.0000000 0.0000000 0.0000000
v 0.9196118 1.0344716 -0.7922742
vn 0.4915345 0.7533045 0.4369510
v 0.5127183 1.6280242 -0.8361152
vn -0.0246232 -0.9870176 -0.1587132
v 0.6946910 0.6787478 -0.8237848
vn 0.0000000 0.0000000 0.0000000
v 0.8934272 1.1536801 -0.8082933
vn 0.0000000 0.0000000 0.0000000
v 0.3151200 1.6752269 -0.8338487
vn 0.0000000 0.0000000 0.0000000
v 0.3355893 1.7031330 -0.7931784
vn 0.5356245 0.7165415 0.4468498
v 0.4109769 1.6667646 -0.7802562
vn 0.0257643 -0.9661451 -0.2567098
v 0.8092968 0.6967117 -0.8378828
vn 0.7647024 0.5878050 0.2640370
v 0.7629911 1.4040008 -0.8156786
vn 0.0000000 0.0000000 0.0000000
v 0.4461263 1.6774409 -0.8686715
vn -0.4285791 0.0694697 0.9008296
v 0.1649035 1.0805092 -0.8338778
vn -0.5491049 -0.2003145 0.8113926
v 0.1634884 0.9504265 -0.8258326
vn -0.5689473 0.0113382 0.8222958
v 0.1007688 1.0183266 -0.8581073
vn -0.5534871 -0.0625217 0.8305078
v 0.1825602 1.2213843 -0.8306453
vn 0.0000000 0.0000000 0.0000000
v 0.2144063 1.5187399 -0.8259108
vn 0.0000000 0.0000000 0.0000000
v 0.2032791 1.5703080 -0.7833069
vn -0.8545834 -0.2251412 0.4679728
v 0.1886813 1.4609061 -0.7748014
vn -0.5149867 -0.1301166 0.8472652
v 0.3123156 1.2155007 -0.7577271
vn -0.5698115 -0.2908874 0.7685698
v 0.2478615 0.8498793 -0.8073414
vn 0.0000000 0.0000000 0.0000000
v 0.2655749 1.6727357 -0.7714029
vn 0.6033198 0.6815492 0.4141207
v 0.6373382 1.5270535 -0.8082375
vn 0.0000000 0.0000000 0.0000000
v 0.9466827 0.6787776 -0.7502665
vn 0.0000000 0.0000000 0.0000000
v 0.9015297 0.8844576 -0.7983355
vn 0.0000000 0.0000000 0.0000000
v 0.2572854 1.6225820 -0.8188367
vn -0.4557195 0.0166552 0.8899676
v 0.2458548 1.1119570 -0.8027903
vn -0.1879633 -0.9300097 -0.3158349
v 0.8742622 0.6612687 -0.7691032
vn 0.0000000 0.0000000 0.0000000
v 0.9050307 0.7514325 -0.7974884
vn 0.0000000 0.0000000 0.0000000
v 0.9129544 0.8254828 -0.7912924
vn -0.4506102 -0.8642592 0.2236214
v 0.3886790 0.7638302 -0.8076937
vn 0.5399436 0.6424936 0.5437489
v 0.6130334 1.5070577 -0.7561775
vn 0.7386905 0.4358082 0.5142059
v 0.8631198 1.2221667 -0.7761952
vn -0.9385493 -0.1199713 0.3236233
v 0.2016552 1.5877004 -0.7192804
vn 0.8042048 0.4131474 0.4272750
v 0.9338605 1.0534806 -0.7491046
vn 0.7168339 0.4471536 0.5349793
v 0.8048238 1.2896268 -0.7496241
vn 0.3684489 -0.9157677 -0.1600469
v 0.9735099 0.6401294 -0.7142172
vn 0.5897037 0.4758740 0.6525285
v 0.9301775 1.0026226 -0.6929961
vn 0.6248994 0.3761834 0.6840956
v 0.8788105 1.1395549 -0.7287194
vn -0.5269338 -0.0479058 0.8485551
v 0.3118740 0.9093006 -0.7474327
vn 0.0000000 0.0000000 0.0000000
v 0.9325405 0.9531481 -0.7793333
vn -0.0763124 -0.9913344 -0.1069230
v 0.9364374 0.6284451 -0.7327069
vn -0.6510236 -0.2092193 0.7296545
v 0.2176018 1.3522173 -0.7742787
vn 0.6273044 0.5569844 0.5442956
v 0.7059288 1.4050014 -0.7379764
vn -0.2952739 -0.9546805 0.0373961
v 0.5576679 0.6991222 -0.7648025
vn 0.8715867 0.4872359 -0.0542014
v 0.9682705 0.9265978 -0.7190678
vn -0.6025004 -0.7536204 0.2627728
v 0.4288905 0.7610468 -0.7295267
vn -0.1368332 -0.9851917 -0.1033154
v 0.7535032 0.6598040 -0.7104371
vn -0.1739300 -0.9813379 -0.0820021
v 0.8870257 0.6355278 -0.6990784
vn -0.1854809 0.6199962 0.7623657
v 0.2622459 1.6640280 -0.6871984
vn 0.0000000 0.0000000 0.0000000
v 0.9992507 0.6931419 -0.6760750
vn -0.5726818 -0.0149240 0.8196419
v 0.4028156 1.0899608 -0.7073570
vn -0.6146342 -0.0476915 0.7873693
v 0.4620652 1.1182314 -0.6583520
vn 0.5628912 0.4473067 0.6950326
v 0.7492566 1.3206730 -0.7122259
vn -0.6174829 -0.3270258 0.7153803
v 0.2168870 1.4716274 -0.7181359
vn 0.0000000 0.0000000 0.0000000
v 1.0154042 0.7977076 -0.6796418
vn -0.5713095 -0.1325302 0.8099637
v 0.4093135 1.2604804 -0.6848031
vn -0.4602881 -0.2499916 0.8518445
v 0.3470875 1.3267821 -0.7123606
vn 0.0000000 0.0000000 0.0000000
v 0.9637640 0.8171537 -0.7345940
vn -0.4359107 -0.3369516 0.8345332
v 0.2932169 1.3872498 -0.7141508
vn -0.5039179 0.0610622 0.8615905
v 0.3284540 1.0298244 -0.7519716
vn -0.7574130 -0.3556341 0.5475857
v 0.4702549 0.7500746 -0.6588402
vn 0.4305412 0.4205695 0.7985960
v 0.8457589 0.9560168 -0.6208313
vn 0.6953301 0.6017303 0.3929843
v 0.9819756 0.9092628 -0.6545136
vn -0.6096562 -0.2013568 0.7666647
v 0.2205936 1.5728509 -0.6698616
vn -0.4551728 -0.0298755 0.8899018
v 0.2227206 1.6220753 -0.6671211
vn -0.0244630 -0.9996994 -0.0016338
v 0.9755058 0.6298197 -0.6506316
vn 0.4895230 0.6888492 0.5346531
v 0.4151964 1.6001000 -0.6741347
vn 0.5435555 0.6850479 0.4850328
v 0.5342610 1.5299039 -0.7085712
vn 0.4647911 0.7508119 0.4693087
v 0.3243754 1.6880862 -0.7249504
vn -0.5901623 0.0509032 0.8056782
v 0.4613127 0.9855388 -0.6605576
vn -0.6149804 -0.0443659 0.7872933
v 0.3902687 0.8294020 -0.7045296
vn 0.5457931 0.3142890 0.7767447
v 0.8151679 1.1069857 -0.6644114
vn 0.2873251 0.5399369 0.7911463
v 0.9282140 0.8860444 -0.6113917
vn 0.0000000 0.0000000 0.0000000
v 0.9718649 0.7457422 -0.7217866
vn -0.4323863 -0.1132231 0.8945517
v 0.5067161 1.3790413 -0.5977319
vn 0.6105505 0.4592848 0.6452020
v 0.6302706 1.3744514 -0.6263853
vn -0.6451195 0.1555992 0.7480707
v 0.5114622 0.8826349 -0.6043175
vn -0.2455115 -0.0707097 0.9668114
v 0.3644956 1.5355792 -0.6267674
vn -0.1147841 -0.9779194 0.1746376
v 0.8723169 0.6432922 -0.6071482
vn 0.8333640 0.5125281 0.2069291
v 1.0191401 0.8511374 -0.6602196
vn -0.2637838 0.1350549 0.9550803
v 0.2753302 1.6106386 -0.6405959
vn 0.4446101 0.6264359 0.6402342
v 0.5041769 1.4950719 -0.6205745
vn -0.0884887 0.3123073 0.9458510
v 0.3337898 1.6309816 -0.6429169
vn -0.3452367 -0.1240410 0.9302825
v 0.4604833 1.4530640 -0.6039351
vn -0.4686775 -0.0101139 0.8833115
v 0.5385794 1.2541031 -0.5869969
vn -0.4511636 -0.2865489 0.8451871
v 0.3875891 1.4130270 -0.6583360
vn 0.6025270 0.3078023 0.7363552
v 0.7340852 1.2342950 -0.6556920
vn -0.3784823 -0.3086101 0.8726460
v 0.2862489 1.5163223 -0.6599849
vn 0.3963173 0.6180605 0.6789211
v 0.4554121 1.5375264 -0.6299229
vn -0.4212513 -0.0221529 0.9066734
v 0.5613000 1.1061502 -0.5823594
vn 0.8975770 0.2657836 0.3517309
v 1.0380002 0.7585564 -0.6125627
vn -0.2252429 -0.0354575 0.9736573
v 0.5084130 1.4535238 -0.5928305
vn 0.4876664 0.3116242 0.8155194
v 0.7587233 1.0702066 -0.6172917
vn 0.0000000 0.0000000 0.0000000
v 1.0649608 0.6571876 -0.5632086
vn 0.5454090 0.5534076 0.6294991
v 1.0098771 0.8251375 -0.5911074
vn -0.2086255 0.0413759 0.9771200
v 0.4507160 1.5001562 -0.6070476
vn 0.4416542 0.4589674 0.7709024
v 0.5573719 1.4349990 -0.6047429
vn 0.0821795 -0.9791433 0.1858093
v 1.0392814 0.6345467 -0.5653874
vn -0.1358333 0.1553404 0.9784778
v 0.4005066 1.5588052 -0.6254556
vn 0.0000000 0.0000000 0.0000000
v 1.0514697 0.6737214 -0.5916287
vn -0.3688631 -0.9083396 0.1971272
v 0.5945286 0.6967567 -0.5939082
vn -0.5319197 0.1759530 0.8283127
v 0.6072427 0.8238750 -0.4985988
vn -0.3221017 -0.0200366 0.9464930
v 0.5963024 1.2134498 -0.5595307
vn -0.3547144 0.3183007 0.8791260
v 0.6126369 0.9205659 -0.5340254
vn -0.7404094 -0.0576873 0.6696761
v 0.4960025 0.7888297 -0.5980566
vn -0.0876843 -0.9693726 0.2294084
v 0.9821138 0.6279582 -0.5748220
vn -0.0688736 -0.0026248 0.9976220
v 0.9126530 0.7472862 -0.5307263
vn -0.7604999 -0.1801846 0.6238377
v 0.5130163 0.7401357 -0.5913800
vn -0.0663303 -0.0002631 0.9977977
v 0.6458203 1.1365073 -0.5739797
vn -0.2485733 0.0168506 0.9684665
v 0.5708084 1.3690566 -0.5807249
vn -0.2700312 0.0746983 0.9599497
v 0.6024255 1.2909178 -0.5719019
vn 0.5388136 0.2158679 0.8142979
v 0.6462725 1.2663829 -0.5861002
vn 0.4132858 0.4368086 0.7989951
v 0.8332672 0.8182535 -0.5402394
vn 0.0489654 0.3593094 0.9319330
v 0.7229905 0.9557639 -0.5475661
vn -0.2011198 -0.9707043 0.1314693
v 0.7183044 0.6647965 -0.5638872
vn 0.3374489 0.4514135 0.8260473
v 0.7720749 0.8158079 -0.4958619
vn -0.2134325 -0.7280360 0.6514677
v 0.9647398 0.6618086 -0.5273552
vn -0.0233595 -0.9198543 0.3915640
v 0.7773783 0.6666148 -0.5200174
vn -0.2838445 0.1331554 0.9495799
v 0.6077007 1.0189512 -0.5579680
vn 0.4795870 -0.2067511 0.8527897
v 0.8427451 0.7315677 -0.5007380
vn -0.0905452 -0.9087805 0.4073322
v 1.0249242 0.6469696 -0.5228903
vn 0.0549080 -0.7239127 0.6877031
v 0.8760836 0.6739990 -0.5334437
vn 0.0000000 0.0000000 0.0000000
v 1.0586816 0.6776947 -0.5394156
vn -0.3419125 -0.5995885 0.7235948
v 0.6705083 0.6957266 -0.4960039
vn 0.0659820 0.0055239 0.9978055
v 0.7537916 0.7517062 -0.4507576
vn -0.6341988 -0.1175875 0.7641760
v 0.5793013 0.7428806 -0.5236739
vn 0.2683613 0.2372727 0.9336401
v 1.0139649 0.7185677 -0.5210101
vn 0.1335158 0.4732535 0.8707495
v 0.9735553 0.7776566 -0.5370953
vn -0.0339122 0.3538807 0.9346756
v 0.6900472 0.8204055 -0.4648652
vn -0.3176880 -0.2403570 0.9172257
v 0.6718213 0.7430753 -0.4561492
vn -0.0900292 -0.4660853 0.8801473
v 0.7721657 0.6999876 -0.4687023
# 241 vertices, 0 vertices normals

f 214//214 224//224 229//229
f 229//229 224//224 219//219
f 123//123 96//96 130//130
f 124//124 123//123 122//122
f 124//124 122//122 104//104
f 122//122 136//136 125//125
f 123//123 136//136 122//122
f 198//198 174//174 164//164
f 239//239 214//214 212//212
f 239//239 224//224 214//214
f 164//164 174//174 143//143
f 200//200 229//229 219//219
f 219//219 213//213 200//200
f 188//188 196//196 194//194
f 174//174 198//198 191//191
f 175//175 174//174 191//191
f 198//198 188//188 191//191
f 193//193 159//159 191//191
f 104//104 122//122 125//125
f 240//240 241//241 235//235
f 240//240 239//239 212//212
f 123//123 124//124 89//89
f 104//104 91//91 124//124
f 130//130 149//149 123//123
f 149//149 130//130 181//181
f 170//170 123//123 149//149
f 170//170 136//136 123//123
f 188//188 198//198 196//196
f 196//196 185//185 194//194
f 180//180 229//229 200//200
f 239//239 240//240 235//235
f 185//185 195//195 220//220
f 194//194 185//185 202//202
f 128//128 152//152 164//164
f 169//169 152//152 129//129
f 167//167 169//169 129//129
f 166//166 167//167 129//129
f 164//164 152//152 169//169
f 218//218 236//236 215//215
f 214//214 180//180 187//187
f 214//214 229//229 180//180
f 240//240 236//236 234//234
f 212//212 236//236 240//240
f 235//235 226//226 239//239
f 226//226 224//224 239//239
f 104//104 125//125 91//91
f 194//194 206//206 188//188
f 194//194 202//202 206//206
f 193//193 188//188 209//209
f 191//191 188//188 193//193
f 209//209 188//188 206//206
f 215//215 212//212 187//187
f 187//187 212//212 214//214
f 162//162 195//195 166//166
f 195//195 185//185 166//166
f 196//196 167//167 166//166
f 169//169 167//167 196//196
f 198//198 164//164 169//169
f 198//198 169//169 196//196
f 196//196 166//166 185//185
f 109//109 125//125 152//152
f 129//129 125//125 136//136
f 129//129 152//152 125//125
f 171//171 215//215 181//181
f 187//187 181//181 215//215
f 180//180 181//181 187//187
f 162//162 161//161 180//180
f 181//181 180//180 149//149
f 180//180 170//170 149//149
f 180//180 161//161 170//170
f 136//136 170//170 129//129
f 166//166 161//161 162//162
f 129//129 161//161 166//166
f 129//129 170//170 161//161
f 180//180 200//200 162//162
f 162//162 200//200 195//195
f 200//200 213//213 195//195
f 213//213 221//221 195//195
f 195//195 221//221 220//220
f 236//236 212//212 215//215
f 241//241 240//240 234//234
f 123//123 89//89 96//96
f 218//218 215//215 171//171
# 83 faces, 0 coords texture

# End of File
