####
#
# OBJ File Generated by Meshlab
#
####
# Object head_part04_seg_02.obj
#
# Vertices: 241
# Faces: 87
#
####
vn -0.1374344 0.2827666 -0.9492918
v 0.3717814 1.0833542 -1.1842948
vn 0.0000000 0.0000000 0.0000000
v 0.4116864 1.1479467 -1.1701837
vn -0.4729097 -0.0756391 -0.8778583
v 0.2377824 0.9503593 -1.1810459
vn 0.0000000 0.0000000 0.0000000
v 0.3305006 0.9226423 -1.1700879
vn -0.1230099 0.1921485 -0.9736260
v 0.3180521 1.0183036 -1.1958928
vn -0.5908972 0.3915766 -0.7053427
v 0.3172148 1.2133093 -1.1100832
vn 0.0000000 0.0000000 0.0000000
v 0.3853415 0.8488460 -1.1249217
vn 0.0000000 0.0000000 0.0000000
v 0.4928673 0.8170045 -1.1135660
vn -0.8096135 0.0080337 -0.5869084
v 0.1681304 0.9280233 -1.1095215
vn 0.0000000 0.0000000 0.0000000
v 0.2520212 0.8881031 -1.1301237
vn -0.7230055 0.1179824 -0.6806932
v 0.1926270 0.9863195 -1.1537898
vn -0.3992100 0.2794504 -0.8732347
v 0.2554151 1.0280635 -1.1866667
vn -0.4470958 0.4163153 -0.7916988
v 0.3211976 1.1227006 -1.1652514
vn 0.0000000 0.0000000 0.0000000
v 0.4294190 1.0305686 -1.1703284
vn -0.4655330 0.3827353 -0.7979930
v 0.3836778 1.2187012 -1.1510652
vn 0.0000000 0.0000000 0.0000000
v 0.5273249 0.8736464 -1.1215575
vn 0.0000000 0.0000000 0.0000000
v 0.4495694 0.9294257 -1.1559172
vn 0.0000000 0.0000000 0.0000000
v 0.5989835 0.8284166 -1.0671076
vn -0.6561226 0.4478686 -0.6073853
v 0.2116243 1.0654100 -1.1101258
vn 0.0000000 0.0000000 0.0000000
v 0.5422393 1.0386052 -1.1148663
vn -0.4923708 0.4216154 -0.7614536
v 0.3640342 1.2865863 -1.1116711
vn 0.0000000 0.0000000 0.0000000
v 0.5515502 0.8188283 -1.1009301
vn -0.3138073 0.4187606 -0.8521529
v 0.4199093 1.3029149 -1.1242231
vn 0.0000000 0.0000000 0.0000000
v 0.4733783 1.1055521 -1.1449119
vn 0.0000000 0.0000000 0.0000000
v 0.4788609 1.2127969 -1.1259354
vn 0.0000000 0.0000000 0.0000000
v 0.5782083 1.1957116 -1.0906279
vn -0.0329309 0.3228233 -0.9458862
v 0.4844136 1.3350656 -1.0998151
vn 0.0000000 0.0000000 0.0000000
v 0.6513078 1.2044495 -1.0350693
vn 0.0000000 0.0000000 0.0000000
v 0.6270056 0.9138018 -1.0610054
vn 0.0000000 0.0000000 0.0000000
v 0.1334420 0.8933436 -1.0251789
vn -0.6150997 0.3952412 -0.6822293
v 0.3617780 1.4188752 -1.0200667
vn -0.8094265 0.2725038 -0.5201638
v 0.1485305 1.0151708 -1.0628854
vn 0.0000000 0.0000000 0.0000000
v 0.5569259 0.7787931 -1.0597914
vn 0.0000000 0.0000000 0.0000000
v 0.5607212 1.3034897 -1.0773375
vn -0.3691346 0.4024294 -0.8377292
v 0.4129174 1.3861336 -1.0798969
vn 0.0000000 0.0000000 0.0000000
v 0.6358207 1.0317223 -1.0687788
vn -0.0625459 0.3336432 -0.9406223
v 0.5118828 1.4377754 -1.0657175
vn 0.0000000 0.0000000 0.0000000
v 0.6159021 1.1158606 -1.0751055
vn -0.6022007 0.4298308 -0.6727553
v 0.2992889 1.3022885 -1.0382839
vn -0.3953874 0.3725063 -0.8395879
v 0.4274970 1.5058992 -1.0343902
vn -0.3037783 0.4458814 -0.8419671
v 0.4900640 1.5850916 -1.0166680
vn 0.0000000 0.0000000 0.0000000
v 0.2533398 0.8421814 -1.0563620
vn 0.0000000 0.0000000 0.0000000
v 0.4233950 0.7882665 -1.0451943
vn -0.5957084 0.4187413 -0.6854103
v 0.2635853 1.1704993 -1.0842301
vn 0.0000000 0.0000000 0.0000000
v 0.6270882 1.2892784 -1.0360789
vn 0.0000000 0.0000000 0.0000000
v 0.5712726 1.5007739 -1.0190070
vn 0.0000000 0.0000000 0.0000000
v 0.6506728 0.8057793 -1.0243686
vn 0.0000000 0.0000000 0.0000000
v 0.5284464 1.5321960 -1.0352154
vn -0.6835243 0.3843562 -0.6205360
v 0.1895278 1.1540675 -1.0333699
vn 0.0000000 0.0000000 0.0000000
v 0.5216946 0.7367014 -0.9728146
vn 0.0000000 0.0000000 0.0000000
v 0.6287403 0.7398758 -0.9958830
vn 0.0000000 0.0000000 0.0000000
v 0.6877768 0.7149213 -0.9554607
vn 0.0000000 0.0000000 0.0000000
v 0.3286794 0.7880926 -0.9908642
vn -0.5246345 0.4454364 -0.7254965
v 0.4143978 1.5918578 -0.9789138
vn 0.0000000 0.0000000 0.0000000
v 0.7201629 1.2226548 -0.9844526
vn 0.0000000 0.0000000 0.0000000
v 0.6214125 1.5429547 -0.9795786
vn 0.0000000 0.0000000 0.0000000
v 0.5618564 1.6020454 -0.9801872
vn 0.0000000 0.0000000 0.0000000
v 0.7055919 0.9893255 -1.0099741
vn -0.2071654 0.8217070 -0.5309239
v 0.5074694 1.6596971 -0.9781176
vn -0.8149322 0.2242751 -0.5344028
v 0.1167540 0.9408396 -1.0456231
vn 0.0000000 0.0000000 0.0000000
v 0.6940186 1.1021175 -1.0163264
vn 0.0000000 0.0000000 0.0000000
v 0.7676165 1.0520265 -0.9666212
vn 0.0000000 0.0000000 0.0000000
v 0.6152348 1.3842978 -1.0242487
vn 0.0000000 0.0000000 0.0000000
v 0.6811031 1.3302727 -0.9897278
vn -0.6462361 0.3586607 -0.6736034
v 0.3446827 1.5155534 -0.9465798
vn 0.0000000 0.0000000 0.0000000
v 0.6567041 1.4743474 -0.9647688
vn -0.8776465 0.3164088 -0.3600307
v 0.1345052 1.1408266 -0.9634450
vn 0.0000000 0.0000000 0.0000000
v 0.6277508 0.7065219 -0.9172876
vn 0.0000000 0.0000000 0.0000000
v 0.7308843 0.7015385 -0.9173927
vn 0.0701597 0.9923485 -0.1015980
v 0.5185682 1.6615589 -0.9240826
vn 0.0000000 0.0000000 0.0000000
v 0.8060196 0.9673066 -0.9229907
vn -0.7321934 0.3956048 -0.5544274
v 0.1957998 1.2784847 -0.9626415
vn 0.0000000 0.0000000 0.0000000
v 0.5788045 1.6258672 -0.9302251
vn -0.9197248 0.2625560 -0.2918402
v 0.0843379 0.9702626 -0.9653756
vn 0.0000000 0.0000000 0.0000000
v 0.2619227 0.8038990 -0.9331315
vn -0.5974616 0.4562786 -0.6594312
v 0.2567005 1.3838667 -0.9494629
vn 0.0000000 0.0000000 0.0000000
v 0.6373390 1.5709102 -0.9395454
vn 0.0000000 0.0000000 0.0000000
v 0.7614290 1.2853842 -0.9234186
vn 0.0000000 0.0000000 0.0000000
v 0.2121838 0.8299550 -0.9692067
vn 0.0000000 0.0000000 0.0000000
v 0.7908139 0.7523030 -0.9141824
vn -0.2657849 0.8219180 -0.5037948
v 0.4445403 1.6645422 -0.9460641
vn 0.0000000 0.0000000 0.0000000
v 0.7236808 0.8788238 -0.9884364
vn 0.0000000 0.0000000 0.0000000
v 0.7638102 1.1533786 -0.9542763
vn 0.0000000 0.0000000 0.0000000
v 0.7260512 0.7618426 -0.9671068
vn -0.6157362 0.4230748 -0.6647381
v 0.3114225 1.4276582 -0.9663418
vn -0.5828758 0.4367164 -0.6852260
v 0.3311701 1.6124038 -0.8853512
vn -0.7960820 0.4216447 -0.4341305
v 0.2039417 1.3631939 -0.9126036
vn 0.0000000 0.0000000 0.0000000
v 0.8018699 1.1887053 -0.9031205
vn -0.9672934 0.2531896 0.0154466
v 0.0754634 0.9651684 -0.8915361
vn 0.0000000 0.0000000 0.0000000
v 0.6893637 1.5045298 -0.8874776
vn -0.9604006 0.2765607 -0.0338360
v 0.1098887 1.0969872 -0.8964453
vn 0.0000000 0.0000000 0.0000000
v 0.7923745 0.8414484 -0.9221585
vn 0.0000000 0.0000000 0.0000000
v 0.7183626 1.4071090 -0.9350442
vn 0.0000000 0.0000000 0.0000000
v 0.5223407 0.7115505 -0.8830267
vn 0.0000000 0.0000000 0.0000000
v 0.5959679 0.6897721 -0.8536770
vn 0.0000000 0.0000000 0.0000000
v 0.1174884 0.8879661 -0.9191378
vn 0.0000000 0.0000000 0.0000000
v 0.8527237 0.8091720 -0.8518478
vn -0.9656059 0.2537636 -0.0566512
v 0.1680620 1.2930733 -0.8878682
vn 0.0000000 0.0000000 0.0000000
v 0.6029309 1.6006669 -0.8876988
vn 0.0000000 0.0000000 0.0000000
v 0.7783703 1.3709308 -0.8691815
vn 0.0000000 0.0000000 0.0000000
v 0.2547314 0.8105913 -0.8904061
vn -0.1569670 0.9281963 -0.3373619
v 0.3830103 1.6821167 -0.8621389
vn 0.0000000 0.0000000 0.0000000
v 0.3743829 0.7611363 -0.9321367
vn 0.0000000 0.0000000 0.0000000
v 0.1292669 1.1009146 -0.8570037
vn 0.0000000 0.0000000 0.0000000
v 0.8487602 0.9005244 -0.8729967
vn -0.7392832 0.3546913 -0.5724111
v 0.2326524 1.4417183 -0.8837539
vn 0.0000000 0.0000000 0.0000000
v 0.8410338 1.0949883 -0.8835492
vn 0.0000000 0.0000000 0.0000000
v 0.8363476 1.2193967 -0.8642378
vn -0.9899507 0.1297787 -0.0561709
v 0.1853647 1.3792876 -0.8254927
vn 0.0000000 0.0000000 0.0000000
v 0.8416514 1.2662712 -0.8174636
vn 0.0000000 0.0000000 0.0000000
v 0.8784201 0.9751261 -0.8348482
vn 0.0000000 0.0000000 0.0000000
v 0.9196118 1.0344716 -0.7922742
vn 0.0000000 0.0000000 0.0000000
v 0.5127183 1.6280242 -0.8361152
vn 0.0000000 0.0000000 0.0000000
v 0.6946910 0.6787478 -0.8237848
vn 0.0000000 0.0000000 0.0000000
v 0.8934272 1.1536801 -0.8082933
vn -0.4679289 0.6752532 -0.5701541
v 0.3151200 1.6752269 -0.8338487
vn -0.0377153 0.9975109 -0.0595791
v 0.3355893 1.7031330 -0.7931784
vn 0.3257634 0.9362621 0.1314973
v 0.4109769 1.6667646 -0.7802562
vn 0.0000000 0.0000000 0.0000000
v 0.8092968 0.6967117 -0.8378828
vn 0.0000000 0.0000000 0.0000000
v 0.7629911 1.4040008 -0.8156786
vn 0.0747554 0.9946969 -0.0706379
v 0.4461263 1.6774409 -0.8686715
vn 0.0000000 0.0000000 0.0000000
v 0.1649035 1.0805092 -0.8338778
vn 0.0000000 0.0000000 0.0000000
v 0.1634884 0.9504265 -0.8258326
vn -0.9210846 0.2516129 0.2971432
v 0.1007688 1.0183266 -0.8581073
vn -0.8850588 0.1676291 0.4342481
v 0.1825602 1.2213843 -0.8306453
vn -0.8066097 0.2484379 -0.5363389
v 0.2144063 1.5187399 -0.8259108
vn -0.8942543 0.3151915 -0.3177479
v 0.2032791 1.5703080 -0.7833069
vn -0.9984887 0.0548938 -0.0026642
v 0.1886813 1.4609061 -0.7748014
vn 0.0000000 0.0000000 0.0000000
v 0.3123156 1.2155007 -0.7577271
vn 0.0000000 0.0000000 0.0000000
v 0.2478615 0.8498793 -0.8073414
vn -0.6245014 0.7638166 -0.1630403
v 0.2655749 1.6727357 -0.7714029
vn 0.0000000 0.0000000 0.0000000
v 0.6373382 1.5270535 -0.8082375
vn 0.0000000 0.0000000 0.0000000
v 0.9466827 0.6787776 -0.7502665
vn 0.0000000 0.0000000 0.0000000
v 0.9015297 0.8844576 -0.7983355
vn -0.6798899 0.4422155 -0.5849746
v 0.2572854 1.6225820 -0.8188367
vn 0.0000000 0.0000000 0.0000000
v 0.2458548 1.1119570 -0.8027903
vn 0.0000000 0.0000000 0.0000000
v 0.8742622 0.6612687 -0.7691032
vn 0.0000000 0.0000000 0.0000000
v 0.9050307 0.7514325 -0.7974884
vn 0.0000000 0.0000000 0.0000000
v 0.9129544 0.8254828 -0.7912924
vn 0.0000000 0.0000000 0.0000000
v 0.3886790 0.7638302 -0.8076937
vn 0.0000000 0.0000000 0.0000000
v 0.6130334 1.5070577 -0.7561775
vn 0.0000000 0.0000000 0.0000000
v 0.8631198 1.2221667 -0.7761952
vn -0.9319950 0.3598495 0.0435157
v 0.2016552 1.5877004 -0.7192804
vn 0.0000000 0.0000000 0.0000000
v 0.9338605 1.0534806 -0.7491046
vn 0.0000000 0.0000000 0.0000000
v 0.8048238 1.2896268 -0.7496241
vn 0.0000000 0.0000000 0.0000000
v 0.9735099 0.6401294 -0.7142172
vn 0.0000000 0.0000000 0.0000000
v 0.9301775 1.0026226 -0.6929961
vn 0.0000000 0.0000000 0.0000000
v 0.8788105 1.1395549 -0.7287194
vn 0.0000000 0.0000000 0.0000000
v 0.3118740 0.9093006 -0.7474327
vn 0.0000000 0.0000000 0.0000000
v 0.9325405 0.9531481 -0.7793333
vn 0.0000000 0.0000000 0.0000000
v 0.9364374 0.6284451 -0.7327069
vn -0.8738010 -0.2304459 0.4282133
v 0.2176018 1.3522173 -0.7742787
vn 0.0000000 0.0000000 0.0000000
v 0.7059288 1.4050014 -0.7379764
vn 0.0000000 0.0000000 0.0000000
v 0.5576679 0.6991222 -0.7648025
vn 0.0000000 0.0000000 0.0000000
v 0.9682705 0.9265978 -0.7190678
vn 0.0000000 0.0000000 0.0000000
v 0.4288905 0.7610468 -0.7295267
vn 0.0000000 0.0000000 0.0000000
v 0.7535032 0.6598040 -0.7104371
vn 0.0000000 0.0000000 0.0000000
v 0.8870257 0.6355278 -0.6990784
vn -0.5956703 0.7751098 0.2106699
v 0.2622459 1.6640280 -0.6871984
vn 0.0000000 0.0000000 0.0000000
v 0.9992507 0.6931419 -0.6760750
vn 0.0000000 0.0000000 0.0000000
v 0.4028156 1.0899608 -0.7073570
vn 0.0000000 0.0000000 0.0000000
v 0.4620652 1.1182314 -0.6583520
vn 0.0000000 0.0000000 0.0000000
v 0.7492566 1.3206730 -0.7122259
vn -0.8811421 -0.1110970 0.4596152
v 0.2168870 1.4716274 -0.7181359
vn 0.0000000 0.0000000 0.0000000
v 1.0154042 0.7977076 -0.6796418
vn 0.0000000 0.0000000 0.0000000
v 0.4093135 1.2604804 -0.6848031
vn 0.0000000 0.0000000 0.0000000
v 0.3470875 1.3267821 -0.7123606
vn 0.0000000 0.0000000 0.0000000
v 0.9637640 0.8171537 -0.7345940
vn 0.0000000 0.0000000 0.0000000
v 0.2932169 1.3872498 -0.7141508
vn 0.0000000 0.0000000 0.0000000
v 0.3284540 1.0298244 -0.7519716
vn 0.0000000 0.0000000 0.0000000
v 0.4702549 0.7500746 -0.6588402
vn 0.0000000 0.0000000 0.0000000
v 0.8457589 0.9560168 -0.6208313
vn 0.0000000 0.0000000 0.0000000
v 0.9819756 0.9092628 -0.6545136
vn -0.9315662 0.0200436 0.3630190
v 0.2205936 1.5728509 -0.6698616
vn -0.7551579 0.5769734 0.3111884
v 0.2227206 1.6220753 -0.6671211
vn 0.0000000 0.0000000 0.0000000
v 0.9755058 0.6298197 -0.6506316
vn 0.0000000 0.0000000 0.0000000
v 0.4151964 1.6001000 -0.6741347
vn 0.0000000 0.0000000 0.0000000
v 0.5342610 1.5299039 -0.7085712
vn -0.1358601 0.9767839 0.1656362
v 0.3243754 1.6880862 -0.7249504
vn 0.0000000 0.0000000 0.0000000
v 0.4613127 0.9855388 -0.6605576
vn 0.0000000 0.0000000 0.0000000
v 0.3902687 0.8294020 -0.7045296
vn 0.0000000 0.0000000 0.0000000
v 0.8151679 1.1069857 -0.6644114
vn 0.0000000 0.0000000 0.0000000
v 0.9282140 0.8860444 -0.6113917
vn 0.0000000 0.0000000 0.0000000
v 0.9718649 0.7457422 -0.7217866
vn 0.0000000 0.0000000 0.0000000
v 0.5067161 1.3790413 -0.5977319
vn 0.0000000 0.0000000 0.0000000
v 0.6302706 1.3744514 -0.6263853
vn 0.0000000 0.0000000 0.0000000
v 0.5114622 0.8826349 -0.6043175
vn 0.0000000 0.0000000 0.0000000
v 0.3644956 1.5355792 -0.6267674
vn 0.0000000 0.0000000 0.0000000
v 0.8723169 0.6432922 -0.6071482
vn 0.0000000 0.0000000 0.0000000
v 1.0191401 0.8511374 -0.6602196
vn -0.2520218 0.6005817 0.7588060
v 0.2753302 1.6106386 -0.6405959
vn 0.0000000 0.0000000 0.0000000
v 0.5041769 1.4950719 -0.6205745
vn 0.0000000 0.0000000 0.0000000
v 0.3337898 1.6309816 -0.6429169
vn 0.0000000 0.0000000 0.0000000
v 0.4604833 1.4530640 -0.6039351
vn 0.0000000 0.0000000 0.0000000
v 0.5385794 1.2541031 -0.5869969
vn 0.0000000 0.0000000 0.0000000
v 0.3875891 1.4130270 -0.6583360
vn 0.0000000 0.0000000 0.0000000
v 0.7340852 1.2342950 -0.6556920
vn 0.0000000 0.0000000 0.0000000
v 0.2862489 1.5163223 -0.6599849
vn 0.0000000 0.0000000 0.0000000
v 0.4554121 1.5375264 -0.6299229
vn 0.0000000 0.0000000 0.0000000
v 0.5613000 1.1061502 -0.5823594
vn 0.0000000 0.0000000 0.0000000
v 1.0380002 0.7585564 -0.6125627
vn 0.0000000 0.0000000 0.0000000
v 0.5084130 1.4535238 -0.5928305
vn 0.0000000 0.0000000 0.0000000
v 0.7587233 1.0702066 -0.6172917
vn 0.0000000 0.0000000 0.0000000
v 1.0649608 0.6571876 -0.5632086
vn 0.0000000 0.0000000 0.0000000
v 1.0098771 0.8251375 -0.5911074
vn 0.0000000 0.0000000 0.0000000
v 0.4507160 1.5001562 -0.6070476
vn 0.0000000 0.0000000 0.0000000
v 0.5573719 1.4349990 -0.6047429
vn 0.0000000 0.0000000 0.0000000
v 1.0392814 0.6345467 -0.5653874
vn 0.0000000 0.0000000 0.0000000
v 0.4005066 1.5588052 -0.6254556
vn 0.0000000 0.0000000 0.0000000
v 1.0514697 0.6737214 -0.5916287
vn 0.0000000 0.0000000 0.0000000
v 0.5945286 0.6967567 -0.5939082
vn 0.0000000 0.0000000 0.0000000
v 0.6072427 0.8238750 -0.4985988
vn 0.0000000 0.0000000 0.0000000
v 0.5963024 1.2134498 -0.5595307
vn 0.0000000 0.0000000 0.0000000
v 0.6126369 0.9205659 -0.5340254
vn 0.0000000 0.0000000 0.0000000
v 0.4960025 0.7888297 -0.5980566
vn 0.0000000 0.0000000 0.0000000
v 0.9821138 0.6279582 -0.5748220
vn 0.0000000 0.0000000 0.0000000
v 0.9126530 0.7472862 -0.5307263
vn 0.0000000 0.0000000 0.0000000
v 0.5130163 0.7401357 -0.5913800
vn 0.0000000 0.0000000 0.0000000
v 0.6458203 1.1365073 -0.5739797
vn 0.0000000 0.0000000 0.0000000
v 0.5708084 1.3690566 -0.5807249
vn 0.0000000 0.0000000 0.0000000
v 0.6024255 1.2909178 -0.5719019
vn 0.0000000 0.0000000 0.0000000
v 0.6462725 1.2663829 -0.5861002
vn 0.0000000 0.0000000 0.0000000
v 0.8332672 0.8182535 -0.5402394
vn 0.0000000 0.0000000 0.0000000
v 0.7229905 0.9557639 -0.5475661
vn 0.0000000 0.0000000 0.0000000
v 0.7183044 0.6647965 -0.5638872
vn 0.0000000 0.0000000 0.0000000
v 0.7720749 0.8158079 -0.4958619
vn 0.0000000 0.0000000 0.0000000
v 0.9647398 0.6618086 -0.5273552
vn 0.0000000 0.0000000 0.0000000
v 0.7773783 0.6666148 -0.5200174
vn 0.0000000 0.0000000 0.0000000
v 0.6077007 1.0189512 -0.5579680
vn 0.0000000 0.0000000 0.0000000
v 0.8427451 0.7315677 -0.5007380
vn 0.0000000 0.0000000 0.0000000
v 1.0249242 0.6469696 -0.5228903
vn 0.0000000 0.0000000 0.0000000
v 0.8760836 0.6739990 -0.5334437
vn 0.0000000 0.0000000 0.0000000
v 1.0586816 0.6776947 -0.5394156
vn 0.0000000 0.0000000 0.0000000
v 0.6705083 0.6957266 -0.4960039
vn 0.0000000 0.0000000 0.0000000
v 0.7537916 0.7517062 -0.4507576
vn 0.0000000 0.0000000 0.0000000
v 0.5793013 0.7428806 -0.5236739
vn 0.0000000 0.0000000 0.0000000
v 1.0139649 0.7185677 -0.5210101
vn 0.0000000 0.0000000 0.0000000
v 0.9735553 0.7776566 -0.5370953
vn 0.0000000 0.0000000 0.0000000
v 0.6900472 0.8204055 -0.4648652
vn 0.0000000 0.0000000 0.0000000
v 0.6718213 0.7430753 -0.4561492
vn 0.0000000 0.0000000 0.0000000
v 0.7721657 0.6999876 -0.4687023
# 241 vertices, 0 vertices normals

f 35//35 23//23 21//21
f 54//54 40//40 65//65
f 11//11 12//12 3//3
f 41//41 40//40 54//54
f 32//32 49//49 19//19
f 44//44 19//19 49//49
f 67//67 32//32 74//74
f 49//49 32//32 67//67
f 67//67 72//72 49//49
f 126//126 106//106 109//109
f 39//39 44//44 49//49
f 86//86 65//65 106//106
f 86//86 54//54 65//65
f 81//81 54//54 86//86
f 98//98 106//106 87//87
f 135//135 86//86 126//126
f 86//86 106//106 126//126
f 86//86 135//135 116//116
f 102//102 86//86 116//116
f 21//21 15//15 6//6
f 72//72 39//39 49//49
f 76//76 39//39 72//72
f 85//85 39//39 76//76
f 85//85 31//31 39//39
f 65//65 31//31 85//85
f 65//65 40//40 31//31
f 11//11 9//9 32//32
f 19//19 11//11 32//32
f 12//12 11//11 19//19
f 19//19 13//13 12//12
f 19//19 44//44 13//13
f 6//6 13//13 44//44
f 98//98 72//72 67//67
f 98//98 87//87 72//72
f 76//76 72//72 87//87
f 106//106 76//76 87//87
f 65//65 85//85 106//106
f 85//85 76//76 106//106
f 128//128 127//127 126//126
f 37//37 27//27 35//35
f 37//37 35//35 40//40
f 127//127 135//135 126//126
f 127//127 131//131 135//135
f 131//131 116//116 135//135
f 39//39 6//6 44//44
f 39//39 21//21 6//6
f 31//31 35//35 39//39
f 35//35 21//21 39//39
f 40//40 35//35 31//31
f 91//91 74//74 89//89
f 67//67 74//74 91//91
f 159//159 143//143 175//175
f 174//174 175//175 143//143
f 81//81 41//41 54//54
f 81//81 59//59 41//41
f 13//13 5//5 12//12
f 1//1 5//5 13//13
f 74//74 32//32 60//60
f 159//159 175//175 191//191
f 125//125 109//109 98//98
f 106//106 98//98 109//109
f 131//131 127//127 143//143
f 143//143 159//159 131//131
f 159//159 179//179 131//131
f 118//118 117//117 179//179
f 117//117 131//131 179//179
f 91//91 89//89 124//124
f 143//143 128//128 164//164
f 127//127 128//128 143//143
f 102//102 81//81 86//86
f 121//121 81//81 102//102
f 121//121 70//70 81//81
f 98//98 91//91 125//125
f 117//117 102//102 116//116
f 118//118 102//102 117//117
f 121//121 102//102 118//118
f 6//6 15//15 13//13
f 21//21 23//23 15//15
f 32//32 9//9 60//60
f 91//91 98//98 67//67
f 128//128 109//109 152//152
f 126//126 109//109 128//128
f 40//40 41//41 37//37
f 81//81 70//70 59//59
f 131//131 117//117 116//116
f 5//5 3//3 12//12
f 3//3 9//9 11//11
# 87 faces, 0 coords texture

# End of File
