####
#
# OBJ File Generated by Meshlab
#
####
# Object cake_part08_seg_03.obj
#
# Vertices: 301
# Faces: 171
#
####
vn 0.183988 0.059816 -3.255951
v -1.041248 0.539132 -0.415336
vn -0.822617 0.984042 -2.507535
v -1.226193 0.476849 -0.391657
vn 1.341056 1.243304 -3.530237
v -0.825241 0.601742 -0.416156
vn 0.053036 0.082092 -2.998209
v -0.924334 0.596274 -0.410261
vn 0.338968 2.150053 -1.365885
v -0.842901 0.623642 -0.386065
vn -1.186960 -0.064300 -5.337725
v -1.266549 0.384711 -0.413522
vn -0.097824 -0.067626 -5.633026
v -1.131427 0.453511 -0.426295
vn 1.494756 0.128220 -3.100914
v -0.759794 0.587052 -0.370218
vn 2.057995 -1.431614 -4.151969
v -0.622775 0.513440 -0.350207
vn 1.642023 1.525340 -2.280613
v -0.619030 0.546032 -0.352664
vn 0.953310 -2.730342 -5.490743
v -1.164919 0.362849 -0.396884
vn 1.279340 -2.877160 -5.430802
v -1.032220 0.376990 -0.368133
vn 0.980701 -1.567592 -5.881142
v -0.995070 0.476864 -0.407745
vn 1.166232 -2.791594 -5.499857
v -0.882820 0.368863 -0.330617
vn 1.142503 -1.628513 -5.827249
v -0.869360 0.536273 -0.402974
vn 0.000000 0.000000 0.000000
v -1.014800 0.600872 -0.336712
vn 0.000000 0.000000 0.000000
v -0.797022 0.627169 -0.285247
vn 1.002634 2.199303 -0.625435
v -0.684733 0.583834 -0.283805
vn 2.710079 4.191869 -0.528330
v -0.626346 0.560138 -0.316696
vn 2.297281 -2.286925 -4.975173
v -0.644921 0.447639 -0.321410
vn -0.086957 -2.057371 -5.766980
v -1.329842 0.280415 -0.369459
vn -2.052505 -0.185559 -5.188640
v -1.461417 0.215726 -0.346318
vn 1.070940 -2.981236 -5.417970
v -1.133387 0.223582 -0.299727
vn 0.473712 -2.597018 -5.606200
v -1.435948 0.116582 -0.312344
vn 1.035056 1.654300 -5.087394
v -0.684271 0.542706 -0.348299
vn -1.014169 -0.032267 -3.002541
v -1.391892 0.341080 -0.363887
vn 1.187550 -2.794404 -5.495785
v -1.283199 0.195487 -0.314206
vn 1.266042 -2.014684 -5.796906
v -0.767340 0.453924 -0.342644
vn 0.000000 0.000000 0.000000
v -1.227777 0.551431 -0.278420
vn 0.000000 0.000000 0.000000
v -1.071227 0.627308 -0.224662
vn 0.000000 0.000000 0.000000
v -0.897452 0.650712 -0.229416
vn 2.672071 1.399424 0.683194
v -0.617814 0.527236 -0.246690
vn 5.179517 0.084183 -0.996888
v -0.599295 0.502198 -0.301888
vn -2.584478 -0.437963 -4.781218
v -1.538598 0.116408 -0.306629
vn -1.681684 -1.636761 -5.214666
v -1.568376 0.011208 -0.264816
vn 1.147072 -2.888966 -5.452419
v -1.007724 0.252715 -0.289467
vn 1.583826 -2.890570 -5.274733
v -0.705078 0.340698 -0.282967
vn 4.377742 -1.799906 -3.144219
v -0.616511 0.379656 -0.260969
vn 0.967697 -3.303258 -5.249135
v -1.459499 -0.033394 -0.225262
vn -1.324003 -1.492197 -2.817304
v -1.638866 -0.072869 -0.205583
vn -1.883560 0.656991 -1.898362
v -1.524355 0.230459 -0.282946
vn 1.463669 -3.087102 -5.264421
v -0.824418 0.177389 -0.211210
vn 2.839298 -0.924021 -1.530174
v -0.597019 0.328063 -0.188982
vn 0.000000 0.000000 0.000000
v -1.455551 0.416540 -0.178190
vn 1.115477 -2.995517 -5.401704
v -1.278625 0.058361 -0.246775
vn -0.473766 -2.979875 -4.963630
v -1.581964 -0.080215 -0.226071
vn 1.124978 -2.847618 -5.463883
v -1.006328 0.120137 -0.228896
vn 0.000000 0.000000 0.000000
v -1.405345 0.420282 -0.267866
vn 3.212270 -2.791599 -4.181699
v -0.639399 0.274315 -0.217225
vn 1.064160 -3.234766 -5.269531
v -1.119740 0.028598 -0.196299
vn -0.281228 -3.345450 -5.149824
v -1.584130 -0.145591 -0.173341
vn 0.000000 0.000000 0.000000
v -0.895091 0.659682 -0.135150
vn 2.955371 -3.059512 -4.419019
v -0.648873 0.177854 -0.152372
vn 0.000000 0.000000 0.000000
v -1.536438 0.306517 -0.181856
vn 0.000000 0.000000 0.000000
v -0.796914 0.648073 -0.160317
vn 0.000000 0.000000 0.000000
v -0.694743 0.595465 -0.123605
vn 2.925940 -0.085738 -0.250799
v -0.604238 0.426417 -0.207150
vn 0.000000 0.000000 0.000000
v -1.415810 0.458538 -0.137568
vn 0.000000 0.000000 0.000000
v -0.624268 0.510841 -0.152188
vn -1.235815 -1.095402 -2.720963
v -1.683638 -0.153085 -0.132032
vn 1.237083 -3.659634 -4.952161
v -1.090220 -0.105352 -0.093796
vn 2.199043 -1.576540 -2.509934
v -0.601755 0.137393 -0.080684
vn 0.000000 0.000000 0.000000
v -1.050762 0.636024 -0.136121
vn 2.250857 -1.235673 -1.796033
v -0.599216 0.245469 -0.141356
vn -1.978169 -0.008169 -2.082785
v -1.609951 0.068778 -0.233122
vn 1.096367 -3.403012 -5.158578
v -1.261773 -0.051924 -0.176369
vn -2.706285 -1.521586 -3.890423
v -1.707691 -0.268388 -0.100757
vn 1.664498 -3.541145 -4.869435
v -0.837462 -0.020011 -0.098350
vn 0.241924 -3.315175 -5.029630
v -1.621323 -0.268357 -0.106784
vn 1.280557 -3.369179 -5.112269
v -0.946963 0.007940 -0.150113
vn 1.059304 -3.527709 -5.088238
v -1.439634 -0.154307 -0.137010
vn 0.000000 0.000000 0.000000
v -1.619955 0.173569 -0.117020
vn 0.000000 0.000000 0.000000
v -1.284861 0.541346 -0.164765
vn 0.000000 0.000000 0.000000
v -1.096404 0.608684 -0.018391
vn 0.000000 0.000000 0.000000
v -1.522713 0.330170 -0.056688
vn 0.000000 0.000000 0.000000
v -0.942080 0.645834 -0.043324
vn 0.000000 0.000000 0.000000
v -1.407289 0.449081 -0.067064
vn 0.000000 0.000000 0.000000
v -1.677300 0.005023 -0.112745
vn 1.115108 -3.816333 -4.855877
v -1.459414 -0.259240 -0.067912
vn 1.128137 -3.633095 -4.986633
v -1.253507 -0.149413 -0.107761
vn -2.202274 -3.170788 -3.671849
v -1.711656 -0.339481 -0.046339
vn 3.488904 -2.349956 -4.200186
v -0.611071 0.023314 -0.035096
vn 1.323286 -3.924950 -4.703485
v -0.946393 -0.080571 -0.082488
vn 1.056337 -3.670445 -4.987871
v -1.320305 -0.224278 -0.063150
vn 2.161629 -3.072972 -5.023694
v -0.705673 0.050203 -0.090723
vn -2.329893 -0.376954 -1.333989
v -1.751143 -0.257002 -0.015734
vn -0.428997 -2.391133 -1.554535
v -1.718617 -0.418576 0.065695
vn 0.000000 0.000000 0.000000
v -0.590132 0.337346 -0.062324
vn 1.455948 -3.531931 -4.964671
v -0.973438 -0.169473 -0.012074
vn 2.027736 -3.379472 -4.836945
v -0.675742 -0.069689 -0.002015
vn 2.055804 -0.586306 -1.249172
v -0.572490 0.088553 -0.002223
vn 0.820283 -3.608316 -4.490714
v -0.928268 -0.415458 0.107919
vn 0.000000 0.000000 0.000000
v -1.767543 -0.184820 0.081239
vn 0.463664 -4.949471 -3.685916
v -1.643010 -0.383023 0.007885
vn 0.000000 0.000000 0.000000
v -1.675758 0.076331 0.010297
vn 0.000000 0.000000 0.000000
v -0.942900 0.649177 0.034512
vn 1.451876 -2.574856 -5.525823
v -0.968755 -0.279408 0.051782
vn 0.797270 -4.622428 -4.147603
v -1.516392 -0.354601 0.006462
vn 1.428007 -3.366562 -5.070814
v -0.801129 -0.187024 0.055875
vn 0.000000 0.000000 0.000000
v -1.446848 0.385964 0.038780
vn 0.000000 0.000000 0.000000
v -1.724404 -0.068645 0.004216
vn 1.923092 -1.329434 -2.485572
v -0.568209 -0.047044 0.054140
vn 0.000000 0.000000 0.000000
v -0.812658 0.650083 -0.007465
vn 1.217368 -3.316030 -5.181987
v -1.126665 -0.229143 -0.014191
vn 0.651538 -3.855714 -4.891246
v -1.306640 -0.333377 0.017706
vn 0.000000 0.000000 0.000000
v -0.665480 0.594695 0.107330
vn 1.518315 -3.957380 -4.628062
v -0.857788 -0.113711 -0.019235
vn 0.676305 -3.789182 -4.767283
v -1.094744 -0.388051 0.075519
vn -1.442941 -1.295246 -1.350709
v -1.769866 -0.366235 0.041501
vn 0.107728 -2.304616 -1.480962
v -1.566707 -0.457498 0.147227
vn 0.000000 0.000000 0.000000
v -1.794319 -0.301338 0.138174
vn 0.000000 0.000000 0.000000
v -1.643386 0.107311 0.092596
vn 0.000000 0.000000 0.000000
v -0.602581 0.471811 0.049259
vn 0.000000 0.000000 0.000000
v -0.780853 0.651305 0.179341
vn 0.000000 0.000000 0.000000
v -1.618413 0.185519 0.013780
vn 0.000000 0.000000 0.000000
v -1.298601 0.506327 0.028496
vn 0.000000 0.000000 0.000000
v -1.148496 0.602123 0.093823
vn 0.176347 -4.832985 -3.755847
v -1.234038 -0.432373 0.104386
vn 1.831872 -2.472475 -5.399367
v -0.784616 -0.300146 0.125520
vn 0.243780 -4.937585 -3.829180
v -1.411358 -0.426036 0.100664
vn 2.361130 -2.633892 -5.024783
v -0.597648 -0.167245 0.086723
vn 0.000000 0.000000 0.000000
v -1.586127 0.159147 0.151204
vn 0.000000 0.000000 0.000000
v -1.014390 0.654704 0.115374
vn 0.000000 0.000000 0.000000
v -1.776184 -0.219606 0.164359
vn 1.127544 -3.289506 -5.230530
v -0.633583 -0.276786 0.145567
vn 2.669037 -2.552319 -4.485494
v -0.557914 -0.257528 0.145635
vn 0.000000 0.000000 0.000000
v -0.877387 0.669952 0.113796
vn 0.000000 0.000000 0.000000
v -0.611575 0.491484 0.146682
vn 2.277817 -0.966014 -2.421889
v -0.528872 -0.183758 0.146071
vn 0.000000 0.000000 0.000000
v -1.397879 0.426508 0.130560
vn 2.055248 -1.814981 -5.579886
v -0.870814 -0.361546 0.104084
vn -0.184206 -5.298368 -2.224066
v -1.476397 -0.461749 0.142096
vn 0.000000 0.000000 0.000000
v -1.290961 0.536766 0.195608
vn 0.000000 0.000000 0.000000
v -1.782743 -0.389914 0.191197
vn 0.000000 0.000000 0.000000
v -1.278540 -0.488674 0.268036
vn 0.000000 0.000000 0.000000
v -0.544329 0.101549 0.134733
vn 0.000000 0.000000 0.000000
v -0.557202 0.123187 0.302475
vn 0.000000 0.000000 0.000000
v -1.690243 -0.448082 0.188997
vn 1.161711 -4.973355 -2.973618
v -0.806411 -0.463955 0.198457
vn 0.000000 0.000000 0.000000
v -0.622290 0.380439 0.208395
vn 0.000000 0.000000 0.000000
v -0.907165 0.666803 0.196691
vn 0.083073 -2.740969 -1.418981
v -1.379078 -0.465874 0.172584
vn 2.108009 -0.810765 -1.426937
v -0.481403 -0.257714 0.251574
vn 0.000000 0.000000 0.000000
v -0.574768 0.290576 0.177656
vn 2.170366 -2.949895 -4.945667
v -0.804811 -0.412172 0.153230
vn 0.000000 0.000000 0.000000
v -0.659191 0.488608 0.204838
vn 0.000000 0.000000 0.000000
v -0.693840 0.588195 0.203083
vn 3.255298 -2.722279 -4.069147
v -0.539830 -0.323743 0.201222
vn 0.000000 0.000000 0.000000
v -0.630314 0.556117 0.162497
vn 3.042072 -3.730258 -2.957170
v -0.523697 -0.425067 0.293264
vn 0.000000 0.000000 0.000000
v -0.500974 -0.034036 0.265394
vn 0.000000 0.000000 0.000000
v -1.557018 0.172999 0.234643
vn 0.000000 0.000000 0.000000
v -1.099749 0.624004 0.228589
vn 0.000000 0.000000 0.000000
v -0.913563 0.640702 0.289601
vn 0.000000 0.000000 0.000000
v -1.470698 -0.485077 0.278248
vn 0.000000 0.000000 0.000000
v -1.488601 0.312901 0.161399
vn 0.112058 -2.861651 -1.728215
v -1.036962 -0.476332 0.201267
vn 0.000000 0.000000 0.000000
v -0.599577 0.266540 0.264515
vn 0.000000 0.000000 0.000000
v -0.663110 0.389199 0.269171
vn 0.000000 0.000000 0.000000
v -0.735529 0.518572 0.285677
vn 1.783352 -3.962893 -4.396621
v -0.646157 -0.405267 0.222444
vn 0.000000 0.000000 0.000000
v -1.186059 -0.491161 0.270821
vn 0.000000 0.000000 0.000000
v -1.732167 -0.399938 0.317286
vn 0.000000 0.000000 0.000000
v -1.051725 0.602851 0.372877
vn 0.000000 0.000000 0.000000
v -1.617677 0.020380 0.282033
vn 0.000000 0.000000 0.000000
v -1.542261 0.184307 0.334013
vn 0.000000 0.000000 0.000000
v -1.477968 0.341882 0.294060
vn 0.000000 0.000000 0.000000
v -1.405752 0.434283 0.267199
vn 0.000000 0.000000 0.000000
v -0.469325 -0.234879 0.317709
vn 0.000000 0.000000 0.000000
v -0.831691 0.601992 0.310683
vn 1.962090 -1.277463 -1.138948
v -0.473987 -0.393042 0.342981
vn 0.000000 0.000000 0.000000
v -1.598588 -0.005352 0.410984
vn 0.000000 0.000000 0.000000
v -1.192140 -0.495607 0.335679
vn 0.000000 0.000000 0.000000
v -0.768200 0.453362 0.388511
vn 0.000000 0.000000 0.000000
v -1.614957 -0.462216 0.306412
vn 0.000000 0.000000 0.000000
v -0.644059 0.215137 0.394869
vn 0.000000 0.000000 0.000000
v -0.479751 -0.321263 0.380624
vn 0.000000 0.000000 0.000000
v -0.514666 -0.030829 0.343385
vn 0.000000 0.000000 0.000000
v -1.364825 -0.491185 0.364610
vn 0.891825 -1.704717 -0.742064
v -0.532835 -0.469411 0.384152
vn 0.000000 0.000000 0.000000
v -0.696797 0.389096 0.363138
vn 0.000000 0.000000 0.000000
v -0.872360 0.535449 0.399918
vn 0.000000 0.000000 0.000000
v -1.776306 -0.309351 0.248579
vn 0.000000 0.000000 0.000000
v -1.712177 -0.089912 0.172333
vn 0.000000 0.000000 0.000000
v -1.588152 -0.453893 0.444798
vn 0.000000 0.000000 0.000000
v -1.286636 0.513351 0.344423
vn 0.000000 0.000000 0.000000
v -1.442127 0.375184 0.379757
vn 0.000000 0.000000 0.000000
v -0.917477 0.487393 0.463693
vn 0.000000 0.000000 0.000000
v -0.935915 0.599940 0.409557
vn 0.000000 0.000000 0.000000
v -1.082546 0.575242 0.503018
vn 0.000000 0.000000 0.000000
v -1.003778 0.609528 0.479519
vn 0.000000 0.000000 0.000000
v -0.972483 -0.503756 0.435968
vn 0.796787 -2.633685 -1.470084
v -0.687836 -0.487008 0.319756
vn 0.000000 0.000000 0.000000
v -0.522525 -0.156388 0.392109
vn 0.000000 0.000000 0.000000
v -0.696512 0.284483 0.438662
vn 0.000000 0.000000 0.000000
v -1.276117 -0.492289 0.449761
vn 0.000000 0.000000 0.000000
v -1.189710 0.526141 0.436363
vn 0.000000 0.000000 0.000000
v -1.503726 -0.482179 0.374639
vn 0.000000 0.000000 0.000000
v -0.545286 -0.292904 0.454316
vn 0.000000 0.000000 0.000000
v -0.587280 0.016556 0.416643
vn 0.000000 0.000000 0.000000
v -1.694198 -0.313728 0.402707
vn 0.000000 0.000000 0.000000
v -0.979943 0.591118 0.499969
vn 0.000000 0.000000 0.000000
v -1.687055 -0.388719 0.445327
vn 0.000000 0.000000 0.000000
v -1.645300 -0.174470 0.418422
vn 0.000000 0.000000 0.000000
v -1.469377 -0.461255 0.485963
vn 0.000000 0.000000 0.000000
v -0.594963 -0.487482 0.451889
vn 0.000000 0.000000 0.000000
v -0.560313 -0.360183 0.499890
vn 0.000000 0.000000 0.000000
v -0.625069 -0.148698 0.487871
vn 0.000000 0.000000 0.000000
v -0.544504 -0.412835 0.471447
vn 0.000000 0.000000 0.000000
v -1.186126 0.508169 0.523329
vn 0.000000 0.000000 0.000000
v -0.963117 0.528822 0.492480
vn 0.000000 0.000000 0.000000
v -1.658547 -0.426619 0.436469
vn 0.000000 0.000000 0.000000
v -1.324072 0.410476 0.508570
vn 0.000000 0.000000 0.000000
v -0.857089 0.418415 0.475459
vn 0.000000 0.000000 0.000000
v -1.565493 0.085164 0.488896
vn 0.000000 0.000000 0.000000
v -0.764564 0.333043 0.469140
vn 0.000000 0.000000 0.000000
v -1.188343 -0.497609 0.582230
vn 0.000000 0.000000 0.000000
v -1.529687 0.096881 0.603192
vn 0.000000 0.000000 0.000000
v -1.149451 0.521860 0.607272
vn 0.000000 0.000000 0.000000
v -0.780653 0.146879 0.537793
vn 0.000000 0.000000 0.000000
v -1.636614 -0.352626 0.593413
vn 0.000000 0.000000 0.000000
v -0.702165 -0.215370 0.593751
vn 0.000000 0.000000 0.000000
v -1.379927 -0.478186 0.563371
vn 0.000000 0.000000 0.000000
v -1.024401 0.549615 0.552522
vn 0.000000 0.000000 0.000000
v -0.749737 -0.503611 0.522644
vn 0.000000 0.000000 0.000000
v -0.961801 0.412427 0.553173
vn 0.000000 0.000000 0.000000
v -0.651454 -0.472701 0.544780
vn 0.000000 0.000000 0.000000
v -1.588926 -0.434229 0.553398
vn 0.000000 0.000000 0.000000
v -1.484579 0.247306 0.508292
vn 0.000000 0.000000 0.000000
v -0.912647 0.212819 0.599911
vn 0.000000 0.000000 0.000000
v -1.563689 -0.433726 0.705480
vn 0.000000 0.000000 0.000000
v -1.506824 -0.450681 0.597884
vn 0.000000 0.000000 0.000000
v -1.453895 0.197776 0.619769
vn 0.000000 0.000000 0.000000
v -1.588698 -0.093136 0.603863
vn 0.000000 0.000000 0.000000
v -0.626501 -0.321603 0.548927
vn 0.000000 0.000000 0.000000
v -1.263343 0.414769 0.606532
vn 0.000000 0.000000 0.000000
v -1.221033 -0.489969 0.742030
vn 0.000000 0.000000 0.000000
v -0.844911 -0.489336 0.668248
vn 0.000000 0.000000 0.000000
v -0.735433 -0.488736 0.597446
vn 0.000000 0.000000 0.000000
v -0.757665 -0.441800 0.651302
vn 0.000000 0.000000 0.000000
v -0.663098 -0.399089 0.589166
vn 0.000000 0.000000 0.000000
v -0.730236 -0.033872 0.557004
vn 0.000000 0.000000 0.000000
v -1.200430 0.447458 0.672018
vn 0.000000 0.000000 0.000000
v -1.460636 0.120134 0.681149
vn 0.000000 0.000000 0.000000
v -1.383537 0.202343 0.691664
vn 0.000000 0.000000 0.000000
v -1.370720 0.286994 0.630752
vn 0.000000 0.000000 0.000000
v -0.816012 -0.165755 0.663950
vn 0.000000 0.000000 0.000000
v -1.090081 0.522458 0.617570
vn 0.000000 0.000000 0.000000
v -1.045238 0.241075 0.663021
vn 0.000000 0.000000 0.000000
v -0.772257 -0.332991 0.675881
vn 0.000000 0.000000 0.000000
v -1.051710 0.415266 0.630253
vn 0.000000 0.000000 0.000000
v -1.167884 0.052354 0.754795
vn 0.000000 0.000000 0.000000
v -1.366720 0.090610 0.775872
vn 0.000000 0.000000 0.000000
v -1.624594 -0.329382 0.735411
vn 0.000000 0.000000 0.000000
v -0.913482 -0.419818 0.753513
vn 0.000000 0.000000 0.000000
v -1.041014 -0.004170 0.726378
vn 0.000000 0.000000 0.000000
v -0.875329 -0.035028 0.654634
vn 0.000000 0.000000 0.000000
v -1.289406 0.322642 0.709139
vn 0.000000 0.000000 0.000000
v -1.219757 0.347389 0.726422
vn 0.000000 0.000000 0.000000
v -1.142361 0.400340 0.685741
vn 0.000000 0.000000 0.000000
v -1.139649 0.494555 0.661442
vn 0.000000 0.000000 0.000000
v -1.488151 0.003295 0.729539
vn 0.000000 0.000000 0.000000
v -1.175514 0.237975 0.720071
vn 0.000000 0.000000 0.000000
v -1.581563 -0.411893 0.810659
vn 0.000000 0.000000 0.000000
v -1.109631 -0.197633 0.832468
vn 0.000000 0.000000 0.000000
v -1.404164 -0.472210 0.698659
vn 0.000000 0.000000 0.000000
v -1.599077 -0.250393 0.742649
vn 0.000000 0.000000 0.000000
v -1.530535 -0.134836 0.778376
vn 0.000000 0.000000 0.000000
v -1.266295 0.149711 0.769525
vn 0.000000 0.000000 0.000000
v -1.277013 0.017242 0.794997
vn 0.000000 0.000000 0.000000
v -1.251649 0.264387 0.755022
vn 0.000000 0.000000 0.000000
v -0.944734 -0.215035 0.756370
vn 0.000000 0.000000 0.000000
v -0.945889 -0.482028 0.740120
vn 0.000000 0.000000 0.000000
v -1.514961 -0.286175 0.893976
vn 0.000000 0.000000 0.000000
v -1.286490 -0.478665 0.859573
vn 0.000000 0.000000 0.000000
v -1.332596 -0.065092 0.858321
vn 0.000000 0.000000 0.000000
v -1.304628 0.231470 0.759216
vn 0.000000 0.000000 0.000000
v -1.030391 -0.489421 0.727947
vn 0.000000 0.000000 0.000000
v -1.599853 -0.357082 0.814593
vn 0.000000 0.000000 0.000000
v -1.178621 -0.478217 0.853344
vn 0.000000 0.000000 0.000000
v -1.390634 -0.469163 0.866175
vn 0.000000 0.000000 0.000000
v -1.319476 -0.462016 0.954287
vn 0.000000 0.000000 0.000000
v -1.411064 -0.074573 0.851158
vn 0.000000 0.000000 0.000000
v -1.253137 -0.126572 0.850449
vn 0.000000 0.000000 0.000000
v -1.077253 -0.441317 0.841026
vn 0.000000 0.000000 0.000000
v -1.290043 -0.076001 0.837381
vn 0.000000 0.000000 0.000000
v -1.200925 -0.430888 0.939301
vn 0.000000 0.000000 0.000000
v -1.427824 -0.178555 0.904091
vn 0.000000 0.000000 0.000000
v -1.332305 -0.174501 0.928697
vn 0.000000 0.000000 0.000000
v -1.158947 -0.304020 0.910264
vn 0.000000 0.000000 0.000000
v -1.081255 -0.351259 0.860860
vn 0.000000 0.000000 0.000000
v -1.538191 -0.383710 0.914532
vn 0.000000 0.000000 0.000000
v -1.223980 -0.255010 0.929675
vn 0.000000 0.000000 0.000000
v -1.471722 -0.440333 0.911895
vn 0.000000 0.000000 0.000000
v -1.366892 -0.324860 1.013208
vn 0.000000 0.000000 0.000000
v -1.375276 -0.236594 0.970672
vn 0.000000 0.000000 0.000000
v -1.258240 -0.351234 0.992540
vn 0.000000 0.000000 0.000000
v -1.384805 -0.435718 1.012509
vn 0.000000 0.000000 0.000000
v -1.302285 -0.261313 0.986287
vn 0.000000 0.000000 0.000000
v -1.435006 -0.386471 0.997166
vn 0.000000 0.000000 0.000000
v -1.334000 -0.413218 1.024948
# 301 vertices, 0 vertices normals

f 37//37 38//38 49//49
f 131//131 92//92 97//97
f 97//97 119//119 131//131
f 119//119 97//97 99//99
f 125//125 119//119 99//99
f 125//125 99//99 121//121
f 125//125 121//121 126//126
f 129//129 126//126 121//121
f 193//193 139//139 161//161
f 148//148 150//150 161//161
f 108//108 118//118 105//105
f 104//104 108//108 105//105
f 21//21 6//6 11//11
f 53//53 42//42 49//49
f 53//53 49//49 64//64
f 139//139 145//145 161//161
f 161//161 145//145 119//119
f 39//39 46//46 35//35
f 39//39 35//35 24//24
f 45//45 39//39 24//24
f 15//15 13//13 1//1
f 12//12 23//23 11//11
f 20//20 9//9 33//33
f 22//22 21//21 24//24
f 24//24 21//21 27//27
f 23//23 27//27 21//21
f 51//51 40//40 46//46
f 51//51 46//46 39//39
f 39//39 66//66 71//71
f 45//45 24//24 27//27
f 27//27 23//23 45//45
f 51//51 69//69 60//60
f 71//71 51//51 39//39
f 66//66 80//80 71//71
f 108//108 92//92 157//157
f 139//139 157//157 92//92
f 139//139 92//92 145//145
f 145//145 92//92 131//131
f 145//145 131//131 119//119
f 42//42 70//70 47//47
f 82//82 85//85 62//62
f 118//118 108//108 157//157
f 119//119 125//125 161//161
f 125//125 148//148 161//161
f 125//125 126//126 148//148
f 148//148 126//126 129//129
f 28//28 15//15 8//8
f 25//25 20//20 28//28
f 9//9 20//20 25//25
f 21//21 11//11 23//23
f 79//79 105//105 98//98
f 84//84 104//104 105//105
f 12//12 11//11 7//7
f 7//7 13//13 12//12
f 14//14 12//12 13//13
f 14//14 13//13 15//15
f 28//28 14//14 15//15
f 110//110 94//94 98//98
f 120//120 110//110 98//98
f 120//120 98//98 105//105
f 120//120 105//105 118//118
f 142//142 120//120 118//118
f 47//47 23//23 36//36
f 12//12 36//36 23//23
f 47//47 36//36 42//42
f 42//42 36//36 14//14
f 42//42 37//37 49//49
f 36//36 12//12 14//14
f 37//37 42//42 14//14
f 37//37 14//14 28//28
f 28//28 20//20 37//37
f 38//38 37//37 20//20
f 50//50 66//66 45//45
f 89//89 61//61 83//83
f 89//89 104//104 61//61
f 89//89 83//83 107//107
f 107//107 83//83 68//68
f 90//90 107//107 68//68
f 90//90 68//68 85//85
f 85//85 82//82 90//90
f 85//85 42//42 53//53
f 62//62 85//85 53//53
f 61//61 80//80 66//66
f 66//66 39//39 45//45
f 50//50 45//45 23//23
f 23//23 47//47 50//50
f 50//50 61//61 66//66
f 61//61 70//70 83//83
f 50//50 70//70 61//61
f 70//70 68//68 83//83
f 50//50 47//47 70//70
f 85//85 68//68 42//42
f 68//68 70//70 42//42
f 98//98 69//69 79//79
f 79//79 69//69 71//71
f 69//69 51//51 71//71
f 79//79 84//84 105//105
f 84//84 79//79 71//71
f 71//71 80//80 84//84
f 84//84 80//80 104//104
f 104//104 80//80 61//61
f 94//94 69//69 98//98
f 94//94 81//81 69//69
f 108//108 104//104 97//97
f 92//92 108//108 97//97
f 89//89 97//97 104//104
f 99//99 97//97 89//89
f 99//99 89//89 107//107
f 121//121 99//99 90//90
f 99//99 107//107 90//90
f 121//121 90//90 102//102
f 102//102 90//90 82//82
f 6//6 21//21 26//26
f 41//41 34//34 65//65
f 49//49 38//38 43//43
f 57//57 43//43 38//38
f 57//57 38//38 33//33
f 32//32 57//57 33//33
f 193//193 161//161 150//150
f 3//3 8//8 15//15
f 5//5 8//8 3//3
f 121//121 102//102 129//129
f 193//193 157//157 139//139
f 180//180 193//193 150//150
f 180//180 150//150 171//171
f 150//150 148//148 143//143
f 2//2 6//6 26//26
f 43//43 64//64 49//49
f 65//65 34//34 35//35
f 24//24 35//35 34//34
f 40//40 35//35 46//46
f 40//40 65//65 35//35
f 13//13 7//7 1//1
f 15//15 1//1 4//4
f 4//4 3//3 15//15
f 3//3 4//4 5//5
f 34//34 22//22 24//24
f 41//41 22//22 34//34
f 41//41 26//26 22//22
f 26//26 21//21 22//22
f 51//51 60//60 40//40
f 7//7 6//6 2//2
f 11//11 6//6 7//7
f 7//7 2//2 1//1
f 60//60 69//69 67//67
f 62//62 53//53 64//64
f 148//148 129//129 143//143
f 19//19 18//18 32//32
f 33//33 19//19 32//32
f 8//8 25//25 28//28
f 8//8 18//18 25//25
f 25//25 10//10 9//9
f 18//18 19//19 25//25
f 19//19 10//10 25//25
f 33//33 9//9 10//10
f 33//33 10//10 19//19
f 87//87 94//94 110//110
f 132//132 120//120 142//142
f 120//120 132//132 110//110
f 157//157 142//142 118//118
f 33//33 38//38 20//20
f 82//82 62//62 91//91
f 171//171 150//150 143//143
f 86//86 67//67 81//81
f 81//81 67//67 69//69
f 86//86 60//60 67//67
f 109//109 81//81 87//87
f 87//87 81//81 94//94
f 86//86 81//81 109//109
f 102//102 82//82 91//91
f 132//132 142//142 110//110
# 171 faces, 0 coords texture

# End of File
