####
#
# OBJ File Generated by Meshlab
#
####
# Object cake_part08_seg_00.obj
#
# Vertices: 301
# Faces: 184
#
####
vn -0.165736 0.427502 -0.888692
v -1.041248 0.539132 -0.415336
vn -0.406298 0.589224 -0.698382
v -1.226193 0.476849 -0.391657
vn 0.248542 0.332106 -0.909908
v -0.825241 0.601742 -0.416156
vn -0.153389 0.547331 -0.822740
v -0.924334 0.596274 -0.410261
vn 0.094535 0.942845 -0.319540
v -0.842901 0.623642 -0.386065
vn 0.081683 -0.334709 -0.938775
v -1.266549 0.384711 -0.413522
vn 0.081683 -0.334709 -0.938775
v -1.131427 0.453511 -0.426295
vn 0.504871 0.567720 -0.650230
v -0.759794 0.587052 -0.370218
vn 0.485442 -0.121041 -0.865849
v -0.622775 0.513440 -0.350207
vn 0.608860 0.423823 -0.670569
v -0.619030 0.546032 -0.352664
vn 0.081683 -0.334709 -0.938775
v -1.164919 0.362849 -0.396884
vn 0.000000 0.000000 0.000000
v -1.032220 0.376990 -0.368133
vn 0.137882 -0.018471 -0.990277
v -0.995070 0.476864 -0.407745
vn 0.000000 0.000000 0.000000
v -0.882820 0.368863 -0.330617
vn 0.161030 -0.234739 -0.958628
v -0.869360 0.536273 -0.402974
vn -0.232292 0.899420 -0.370247
v -1.014800 0.600872 -0.336712
vn 0.241281 0.953094 -0.182746
v -0.797022 0.627169 -0.285247
vn 0.692232 0.717254 0.079765
v -0.684733 0.583834 -0.283805
vn 0.546867 0.829105 -0.116284
v -0.626346 0.560138 -0.316696
vn 0.668360 -0.318377 -0.672258
v -0.644921 0.447639 -0.321410
vn -0.220983 -0.137337 -0.965560
v -1.329842 0.280415 -0.369459
vn -0.411519 0.027206 -0.910995
v -1.461417 0.215726 -0.346318
vn 0.000000 0.000000 0.000000
v -1.133387 0.223582 -0.299727
vn -0.051569 -0.345973 -0.936826
v -1.435948 0.116582 -0.312344
vn 0.150703 0.545384 -0.824527
v -0.684271 0.542706 -0.348299
vn -0.514405 0.263807 -0.815962
v -1.391892 0.341080 -0.363887
vn 0.000000 0.000000 0.000000
v -1.283199 0.195487 -0.314206
vn 0.157495 -0.208837 -0.965185
v -0.767340 0.453924 -0.342644
vn -0.447454 0.799359 -0.401011
v -1.227777 0.551431 -0.278420
vn -0.220524 0.918650 -0.327798
v -1.071227 0.627308 -0.224662
vn 0.020641 0.969692 -0.243458
v -0.897452 0.650712 -0.229416
vn 0.763559 0.625434 0.160654
v -0.617814 0.527236 -0.246690
vn 0.982860 0.086447 -0.162829
v -0.599295 0.502198 -0.301888
vn -0.491643 -0.074286 -0.867622
v -1.538598 0.116408 -0.306629
vn -0.450197 -0.207873 -0.868396
v -1.568376 0.011208 -0.264816
vn 0.000000 0.000000 0.000000
v -1.007724 0.252715 -0.289467
vn 0.000000 0.000000 0.000000
v -0.705078 0.340698 -0.282967
vn 0.895648 -0.217661 -0.387864
v -0.616511 0.379656 -0.260969
vn 0.000000 0.000000 0.000000
v -1.459499 -0.033394 -0.225262
vn -0.666715 -0.156751 -0.728642
v -1.638866 -0.072869 -0.205583
vn -0.744763 0.345460 -0.570951
v -1.524355 0.230459 -0.282946
vn 0.000000 0.000000 0.000000
v -0.824418 0.177389 -0.211210
vn 0.998349 0.015201 -0.055396
v -0.597019 0.328063 -0.188982
vn 0.000000 0.000000 0.000000
v -1.455551 0.416540 -0.178190
vn 0.000000 0.000000 0.000000
v -1.278625 0.058361 -0.246775
vn -0.357247 -0.318941 -0.877868
v -1.581964 -0.080215 -0.226071
vn 0.000000 0.000000 0.000000
v -1.006328 0.120137 -0.228896
vn -0.641627 0.619657 -0.452040
v -1.405345 0.420282 -0.267866
vn 0.785369 -0.351497 -0.509554
v -0.639399 0.274315 -0.217225
vn 0.000000 0.000000 0.000000
v -1.119740 0.028598 -0.196299
vn -0.281914 -0.558179 -0.780359
v -1.584130 -0.145591 -0.173341
vn 0.092418 0.991022 -0.096619
v -0.895091 0.659682 -0.135150
vn 0.660320 -0.379360 -0.648123
v -0.648873 0.177854 -0.152372
vn -0.734497 0.497185 -0.461867
v -1.536438 0.306517 -0.181856
vn 0.299117 0.949535 -0.094407
v -0.796914 0.648073 -0.160317
vn 0.794857 0.606733 -0.008773
v -0.694743 0.595465 -0.123605
vn 0.986344 0.162221 0.028442
v -0.604238 0.426417 -0.207150
vn 0.000000 0.000000 0.000000
v -1.415810 0.458538 -0.137568
vn 0.893665 0.447021 0.039175
v -0.624268 0.510841 -0.152188
vn -0.761664 -0.078388 -0.643213
v -1.683638 -0.153085 -0.132032
vn 0.000000 0.000000 0.000000
v -1.090220 -0.105352 -0.093796
vn 0.956025 -0.028770 -0.291871
v -0.601755 0.137393 -0.080684
vn 0.000000 0.000000 0.000000
v -1.050762 0.636024 -0.136121
vn 0.997195 -0.054022 -0.051809
v -0.599216 0.245469 -0.141356
vn -0.813049 0.143124 -0.564328
v -1.609951 0.068778 -0.233122
vn 0.000000 0.000000 0.000000
v -1.261773 -0.051924 -0.176369
vn -0.552565 -0.311054 -0.773251
v -1.707691 -0.268388 -0.100757
vn 0.000000 0.000000 0.000000
v -0.837462 -0.020011 -0.098350
vn -0.062516 -0.435142 -0.898189
v -1.621323 -0.268357 -0.106784
vn 0.000000 0.000000 0.000000
v -0.946963 0.007940 -0.150113
vn 0.000000 0.000000 0.000000
v -1.439634 -0.154307 -0.137010
vn -0.876839 0.316889 -0.361572
v -1.619955 0.173569 -0.117020
vn -0.587384 0.777094 -0.226065
v -1.284861 0.541346 -0.164765
vn 0.000000 0.000000 0.000000
v -1.096404 0.608684 -0.018391
vn 0.000000 0.000000 0.000000
v -1.522713 0.330170 -0.056688
vn 0.000000 0.000000 0.000000
v -0.942080 0.645834 -0.043324
vn 0.000000 0.000000 0.000000
v -1.407289 0.449081 -0.067064
vn -0.908609 0.140112 -0.393444
v -1.677300 0.005023 -0.112745
vn 0.000000 0.000000 0.000000
v -1.459414 -0.259240 -0.067912
vn 0.000000 0.000000 0.000000
v -1.253507 -0.149413 -0.107761
vn -0.504824 -0.572003 -0.646502
v -1.711656 -0.339481 -0.046339
vn 0.827047 -0.230823 -0.512557
v -0.611071 0.023314 -0.035096
vn 0.000000 0.000000 0.000000
v -0.946393 -0.080571 -0.082488
vn 0.000000 0.000000 0.000000
v -1.320305 -0.224278 -0.063150
vn 0.000000 0.000000 0.000000
v -0.705673 0.050203 -0.090723
vn -0.903829 -0.035810 -0.426393
v -1.751143 -0.257002 -0.015734
vn -0.324130 -0.873965 -0.362112
v -1.718617 -0.418576 0.065695
vn 0.993425 0.081067 -0.080840
v -0.590132 0.337346 -0.062324
vn 0.000000 0.000000 0.000000
v -0.973438 -0.169473 -0.012074
vn 0.000000 0.000000 0.000000
v -0.675742 -0.069689 -0.002015
vn 0.971976 -0.012247 -0.234762
v -0.572490 0.088553 -0.002223
vn 0.000000 0.000000 0.000000
v -0.928268 -0.415458 0.107919
vn 0.000000 0.000000 0.000000
v -1.767543 -0.184820 0.081239
vn -0.010813 -0.845382 -0.534052
v -1.643010 -0.383023 0.007885
vn 0.000000 0.000000 0.000000
v -1.675758 0.076331 0.010297
vn 0.000000 0.000000 0.000000
v -0.942900 0.649177 0.034512
vn 0.000000 0.000000 0.000000
v -0.968755 -0.279408 0.051782
vn 0.000000 0.000000 0.000000
v -1.516392 -0.354601 0.006462
vn 0.000000 0.000000 0.000000
v -0.801129 -0.187024 0.055875
vn 0.000000 0.000000 0.000000
v -1.446848 0.385964 0.038780
vn -0.926998 0.123757 -0.354060
v -1.724404 -0.068645 0.004216
vn 0.953737 0.009703 -0.300487
v -0.568209 -0.047044 0.054140
vn 0.411255 0.911075 -0.028504
v -0.812658 0.650083 -0.007465
vn 0.000000 0.000000 0.000000
v -1.126665 -0.229143 -0.014191
vn 0.000000 0.000000 0.000000
v -1.306640 -0.333377 0.017706
vn 0.774476 0.632385 0.016609
v -0.665480 0.594695 0.107330
vn 0.000000 0.000000 0.000000
v -0.857788 -0.113711 -0.019235
vn 0.000000 0.000000 0.000000
v -1.094744 -0.388051 0.075519
vn -0.847494 -0.387497 -0.362768
v -1.769866 -0.366235 0.041501
vn -0.058627 -0.929215 -0.364858
v -1.566707 -0.457498 0.147227
vn -0.978030 -0.084882 -0.190399
v -1.794319 -0.301338 0.138174
vn 0.000000 0.000000 0.000000
v -1.643386 0.107311 0.092596
vn 0.947502 0.318126 -0.032195
v -0.602581 0.471811 0.049259
vn 0.437224 0.809585 0.391673
v -0.780853 0.651305 0.179341
vn 0.000000 0.000000 0.000000
v -1.618413 0.185519 0.013780
vn 0.000000 0.000000 0.000000
v -1.298601 0.506327 0.028496
vn 0.000000 0.000000 0.000000
v -1.148496 0.602123 0.093823
vn 0.008146 -0.904274 -0.426874
v -1.234038 -0.432373 0.104386
vn 0.000000 0.000000 0.000000
v -0.784616 -0.300146 0.125520
vn 0.027916 -0.778414 -0.627131
v -1.411358 -0.426036 0.100664
vn 0.565520 -0.341946 -0.750507
v -0.597648 -0.167245 0.086723
vn 0.000000 0.000000 0.000000
v -1.586127 0.159147 0.151204
vn 0.000000 0.000000 0.000000
v -1.014390 0.654704 0.115374
vn 0.000000 0.000000 0.000000
v -1.776184 -0.219606 0.164359
vn 0.000000 0.000000 0.000000
v -0.633583 -0.276786 0.145567
vn 0.000000 0.000000 0.000000
v -0.557914 -0.257528 0.145635
vn 0.000000 0.000000 0.000000
v -0.877387 0.669952 0.113796
vn 0.921898 0.278631 0.269202
v -0.611575 0.491484 0.146682
vn 0.923948 0.034918 -0.380921
v -0.528872 -0.183758 0.146071
vn 0.000000 0.000000 0.000000
v -1.397879 0.426508 0.130560
vn 0.000000 0.000000 0.000000
v -0.870814 -0.361546 0.104084
vn 0.003141 -0.900319 -0.435219
v -1.476397 -0.461749 0.142096
vn 0.000000 0.000000 0.000000
v -1.290961 0.536766 0.195608
vn -0.791452 -0.610555 0.028766
v -1.782743 -0.389914 0.191197
vn 0.000000 0.000000 0.000000
v -1.278540 -0.488674 0.268036
vn 0.987200 0.109472 -0.115984
v -0.544329 0.101549 0.134733
vn 0.905714 0.303897 0.295515
v -0.557202 0.123187 0.302475
vn -0.411168 -0.910377 -0.046415
v -1.690243 -0.448082 0.188997
vn 0.049305 -0.971277 -0.232787
v -0.806411 -0.463955 0.198457
vn 0.806934 0.300072 0.508738
v -0.622290 0.380439 0.208395
vn 0.154412 0.948366 0.277055
v -0.907165 0.666803 0.196691
vn 0.031124 -0.945792 -0.323280
v -1.379078 -0.465874 0.172584
vn 0.973219 0.030197 -0.227888
v -0.481403 -0.257714 0.251574
vn 0.954822 0.233893 0.183328
v -0.574768 0.290576 0.177656
vn 0.000000 0.000000 0.000000
v -0.804811 -0.412172 0.153230
vn 0.739987 0.256147 0.621938
v -0.659191 0.488608 0.204838
vn 0.610772 0.617370 0.495794
v -0.693840 0.588195 0.203083
vn 0.795102 -0.302893 -0.525423
v -0.539830 -0.323743 0.201222
vn 0.852442 0.446138 0.272587
v -0.630314 0.556117 0.162497
vn 0.586351 -0.643932 -0.491472
v -0.523697 -0.425067 0.293264
vn 0.979495 0.200338 -0.021299
v -0.500974 -0.034036 0.265394
vn 0.000000 0.000000 0.000000
v -1.557018 0.172999 0.234643
vn 0.000000 0.000000 0.000000
v -1.099749 0.624004 0.228589
vn 0.309378 0.867035 0.390558
v -0.913563 0.640702 0.289601
vn 0.000000 0.000000 0.000000
v -1.470698 -0.485077 0.278248
vn 0.000000 0.000000 0.000000
v -1.488601 0.312901 0.161399
vn 0.022668 -0.964848 -0.261830
v -1.036962 -0.476332 0.201267
vn 0.841401 0.368536 0.395255
v -0.599577 0.266540 0.264515
vn 0.823460 0.368596 0.431337
v -0.663110 0.389199 0.269171
vn 0.671530 0.450633 0.588198
v -0.735529 0.518572 0.285677
vn 0.205440 -0.790935 -0.576382
v -0.646157 -0.405267 0.222444
vn 0.000000 0.000000 0.000000
v -1.186059 -0.491161 0.270821
vn -0.796174 -0.540701 0.271567
v -1.732167 -0.399938 0.317286
vn -0.011087 0.993434 0.113872
v -1.051725 0.602851 0.372877
vn 0.000000 0.000000 0.000000
v -1.617677 0.020380 0.282033
vn 0.000000 0.000000 0.000000
v -1.542261 0.184307 0.334013
vn 0.000000 0.000000 0.000000
v -1.477968 0.341882 0.294060
vn 0.000000 0.000000 0.000000
v -1.405752 0.434283 0.267199
vn 0.990145 0.098007 0.100036
v -0.469325 -0.234879 0.317709
vn 0.470389 0.695153 0.543596
v -0.831691 0.601992 0.310683
vn 0.935069 -0.189531 0.299541
v -0.473987 -0.393042 0.342981
vn 0.000000 0.000000 0.000000
v -1.598588 -0.005352 0.410984
vn 0.000000 0.000000 0.000000
v -1.192140 -0.495607 0.335679
vn 0.575415 0.529072 0.623683
v -0.768200 0.453362 0.388511
vn -0.461109 -0.883054 0.087146
v -1.614957 -0.462216 0.306412
vn 0.780034 0.282762 0.558205
v -0.644059 0.215137 0.394869
vn 0.904510 0.030988 0.425326
v -0.479751 -0.321263 0.380624
vn 0.883447 0.250309 0.396065
v -0.514666 -0.030829 0.343385
vn 0.000000 0.000000 0.000000
v -1.364825 -0.491185 0.364610
vn 0.768599 -0.485052 0.417109
v -0.532835 -0.469411 0.384152
vn 0.773228 0.424962 0.470665
v -0.696797 0.389096 0.363138
vn 0.567540 0.500602 0.653679
v -0.872360 0.535449 0.399918
vn -0.917994 -0.178792 0.354006
v -1.776306 -0.309351 0.248579
vn 0.000000 0.000000 0.000000
v -1.712177 -0.089912 0.172333
vn -0.373145 -0.913389 0.162736
v -1.588152 -0.453893 0.444798
vn 0.000000 0.000000 0.000000
v -1.286636 0.513351 0.344423
vn 0.000000 0.000000 0.000000
v -1.442127 0.375184 0.379757
vn 0.590913 0.414845 0.691900
v -0.917477 0.487393 0.463693
vn 0.605867 0.574838 0.549987
v -0.935915 0.599940 0.409557
vn -0.079038 0.857268 0.508767
v -1.082546 0.575242 0.503018
vn 0.161829 0.853758 0.494882
v -1.003778 0.609528 0.479519
vn 0.009940 -0.992875 -0.118743
v -0.972483 -0.503756 0.435968
vn 0.131037 -0.957611 -0.256537
v -0.687836 -0.487008 0.319756
vn 0.783857 0.169041 0.597490
v -0.522525 -0.156388 0.392109
vn 0.698935 0.286391 0.655340
v -0.696512 0.284483 0.438662
vn 0.000000 0.000000 0.000000
v -1.276117 -0.492289 0.449761
vn 0.000000 0.000000 0.000000
v -1.189710 0.526141 0.436363
vn 0.000000 0.000000 0.000000
v -1.503726 -0.482179 0.374639
vn 0.745235 0.178786 0.642386
v -0.545286 -0.292904 0.454316
vn 0.717586 0.250018 0.650047
v -0.587280 0.016556 0.416643
vn -0.945510 0.088086 0.313451
v -1.694198 -0.313728 0.402707
vn 0.549830 0.576154 0.604759
v -0.979943 0.591118 0.499969
vn -0.890695 -0.283126 0.355672
v -1.687055 -0.388719 0.445327
vn 0.000000 0.000000 0.000000
v -1.645300 -0.174470 0.418422
vn 0.000000 0.000000 0.000000
v -1.469377 -0.461255 0.485963
vn 0.663949 -0.574295 0.478913
v -0.594963 -0.487482 0.451889
vn 0.708993 -0.031673 0.704503
v -0.560313 -0.360183 0.499890
vn 0.688356 0.202070 0.696659
v -0.625069 -0.148698 0.487871
vn 0.772637 -0.282501 0.568529
v -0.544504 -0.412835 0.471447
vn 0.000000 0.000000 0.000000
v -1.186126 0.508169 0.523329
vn 0.731916 0.285715 0.618599
v -0.963117 0.528822 0.492480
vn -0.608212 -0.745516 0.272551
v -1.658547 -0.426619 0.436469
vn 0.000000 0.000000 0.000000
v -1.324072 0.410476 0.508570
vn 0.485078 0.462570 0.742111
v -0.857089 0.418415 0.475459
vn 0.000000 0.000000 0.000000
v -1.565493 0.085164 0.488896
vn 0.531336 0.385572 0.754331
v -0.764564 0.333043 0.469140
vn 0.000000 0.000000 0.000000
v -1.188343 -0.497609 0.582230
vn 0.000000 0.000000 0.000000
v -1.529687 0.096881 0.603192
vn -0.182040 0.873854 0.450823
v -1.149451 0.521860 0.607272
vn 0.570271 0.241061 0.785290
v -0.780653 0.146879 0.537793
vn -0.851455 -0.466534 0.239522
v -1.636614 -0.352626 0.593413
vn 0.647538 0.211632 0.732057
v -0.702165 -0.215370 0.593751
vn 0.000000 0.000000 0.000000
v -1.379927 -0.478186 0.563371
vn 0.391506 0.610732 0.688280
v -1.024401 0.549615 0.552522
vn 0.147717 -0.979919 0.133936
v -0.749737 -0.503611 0.522644
vn 0.597363 0.320232 0.735261
v -0.961801 0.412427 0.553173
vn 0.634802 -0.397822 0.662393
v -0.651454 -0.472701 0.544780
vn -0.561608 -0.805016 0.191167
v -1.588926 -0.434229 0.553398
vn 0.000000 0.000000 0.000000
v -1.484579 0.247306 0.508292
vn 0.479634 0.279604 0.831729
v -0.912647 0.212819 0.599911
vn -0.502384 -0.860722 0.082271
v -1.563689 -0.433726 0.705480
vn -0.216706 -0.975450 0.039182
v -1.506824 -0.450681 0.597884
vn 0.000000 0.000000 0.000000
v -1.453895 0.197776 0.619769
vn 0.000000 0.000000 0.000000
v -1.588698 -0.093136 0.603863
vn 0.682230 0.136086 0.718361
v -0.626501 -0.321603 0.548927
vn 0.000000 0.000000 0.000000
v -1.263343 0.414769 0.606532
vn 0.010325 -0.994824 0.101087
v -1.221033 -0.489969 0.742030
vn 0.442937 -0.505777 0.740268
v -0.844911 -0.489336 0.668248
vn 0.500305 -0.539819 0.676971
v -0.735433 -0.488736 0.597446
vn 0.528949 -0.349312 0.773430
v -0.757665 -0.441800 0.651302
vn 0.653960 -0.125247 0.746090
v -0.663098 -0.399089 0.589166
vn 0.609269 0.240852 0.755500
v -0.730236 -0.033872 0.557004
vn -0.099308 0.450950 0.887007
v -1.200430 0.447458 0.672018
vn 0.000000 0.000000 0.000000
v -1.460636 0.120134 0.681149
vn -0.678928 0.373987 0.631815
v -1.383537 0.202343 0.691664
vn 0.000000 0.000000 0.000000
v -1.370720 0.286994 0.630752
vn 0.536436 0.245821 0.807347
v -0.816012 -0.165755 0.663950
vn 0.287132 0.671567 0.683046
v -1.090081 0.522458 0.617570
vn 0.448539 0.210153 0.868705
v -1.045238 0.241075 0.663021
vn 0.560689 0.050324 0.826496
v -0.772257 -0.332991 0.675881
vn 0.566639 0.230344 0.791115
v -1.051710 0.415266 0.630253
vn 0.311504 0.261403 0.913583
v -1.167884 0.052354 0.754795
vn 0.010719 0.290835 0.956713
v -1.366720 0.090610 0.775872
vn 0.000000 0.000000 0.000000
v -1.624594 -0.329382 0.735411
vn 0.460356 -0.246098 0.852941
v -0.913482 -0.419818 0.753513
vn 0.389217 0.292887 0.873343
v -1.041014 -0.004170 0.726378
vn 0.481888 0.277148 0.831248
v -0.875329 -0.035028 0.654634
vn -0.334713 0.464030 0.820149
v -1.289406 0.322642 0.709139
vn 0.020700 0.353607 0.935165
v -1.219757 0.347389 0.726422
vn 0.334560 0.250787 0.908392
v -1.142361 0.400340 0.685741
vn 0.055168 0.590505 0.805146
v -1.139649 0.494555 0.661442
vn -0.585831 0.461048 0.666511
v -1.488151 0.003295 0.729539
vn 0.400343 0.134739 0.906406
v -1.175514 0.237975 0.720071
vn -0.741215 -0.624066 0.247268
v -1.581563 -0.411893 0.810659
vn 0.420935 0.342422 0.839977
v -1.109631 -0.197633 0.832468
vn -0.231001 -0.970296 0.071864
v -1.404164 -0.472210 0.698659
vn 0.000000 0.000000 0.000000
v -1.599077 -0.250393 0.742649
vn -0.618138 0.433450 0.655764
v -1.530535 -0.134836 0.778376
vn 0.161235 0.149216 0.975570
v -1.266295 0.149711 0.769525
vn 0.211898 0.344939 0.914394
v -1.277013 0.017242 0.794997
vn 0.097687 0.270419 0.957774
v -1.251649 0.264387 0.755022
vn 0.475173 0.210724 0.854287
v -0.944734 -0.215035 0.756370
vn 0.124551 -0.270408 0.954655
v -0.945889 -0.482028 0.740120
vn -0.549822 0.342031 0.762044
v -1.514961 -0.286175 0.893976
vn 0.014362 -0.983933 0.177960
v -1.286490 -0.478665 0.859573
vn 0.165950 0.484334 0.859000
v -1.332596 -0.065092 0.858321
vn -0.067587 0.227745 0.971372
v -1.304628 0.231470 0.759216
vn 0.295103 -0.730034 0.616413
v -1.030391 -0.489421 0.727947
vn -0.899384 -0.321392 0.296336
v -1.599853 -0.357082 0.814593
vn 0.331440 -0.792350 0.512180
v -1.178621 -0.478217 0.853344
vn -0.202111 -0.949442 0.240233
v -1.390634 -0.469163 0.866175
vn 0.260013 -0.778670 0.571021
v -1.319476 -0.462016 0.954287
vn -0.161647 0.481755 0.861268
v -1.411064 -0.074573 0.851158
vn 0.351699 0.461370 0.814522
v -1.253137 -0.126572 0.850449
vn 0.473869 -0.538194 0.696990
v -1.077253 -0.441317 0.841026
vn 0.381618 0.421383 0.822681
v -1.290043 -0.076001 0.837381
vn 0.473708 -0.501208 0.724149
v -1.200925 -0.430888 0.939301
vn -0.231615 0.538047 0.810469
v -1.427824 -0.178555 0.904091
vn 0.113758 0.580512 0.806266
v -1.332305 -0.174501 0.928697
vn 0.563418 0.251545 0.786946
v -1.158947 -0.304020 0.910264
vn 0.561803 0.036012 0.826487
v -1.081255 -0.351259 0.860860
vn -0.696669 -0.367995 0.615819
v -1.538191 -0.383710 0.914532
vn 0.463327 0.443935 0.766974
v -1.223980 -0.255010 0.929675
vn -0.410265 -0.844767 0.343587
v -1.471722 -0.440333 0.911895
vn 0.026781 0.201336 0.979156
v -1.366892 -0.324860 1.013208
vn -0.075989 0.549531 0.832011
v -1.375276 -0.236594 0.970672
vn 0.463031 0.085236 0.882234
v -1.258240 -0.351234 0.992540
vn -0.096165 -0.306417 0.947027
v -1.384805 -0.435718 1.012509
vn 0.268856 0.431496 0.861120
v -1.302285 -0.261313 0.986287
vn -0.256264 0.035587 0.965952
v -1.435006 -0.386471 0.997166
vn 0.157783 -0.310588 0.937358
v -1.334000 -0.413218 1.024948
# 301 vertices, 0 vertices normals

f 144//144 113//113 128//128
f 136//136 113//113 144//144
f 227//227 206//206 209//209
f 136//136 102//102 91//91
f 144//144 137//137 136//136
f 59//59 57//57 32//32
f 149//149 128//128 106//106
f 180//180 171//171 209//209
f 255//255 272//272 291//291
f 255//255 250//250 272//272
f 253//253 276//276 270//270
f 255//255 278//278 273//273
f 255//255 285//285 278//278
f 285//285 255//255 291//291
f 206//206 180//180 209//209
f 209//209 199//199 207//207
f 297//297 301//301 287//287
f 295//295 299//299 296//296
f 295//295 297//297 299//299
f 209//209 171//171 177//177
f 209//209 177//177 199//199
f 64//64 88//88 62//62
f 106//106 128//128 113//113
f 136//136 129//129 102//102
f 143//143 129//129 136//136
f 171//171 169//169 177//177
f 273//273 238//238 255//255
f 255//255 238//238 240//240
f 255//255 240//240 250//250
f 280//280 278//278 285//285
f 282//282 280//280 287//287
f 287//287 280//280 285//285
f 291//291 287//287 285//285
f 288//288 289//289 283//283
f 289//289 276//276 283//283
f 170//170 114//114 154//154
f 170//170 147//147 114//114
f 297//297 295//295 301//301
f 113//113 88//88 59//59
f 113//113 56//56 106//106
f 59//59 56//56 113//113
f 113//113 136//136 88//88
f 106//106 147//147 149//149
f 147//147 106//106 114//114
f 151//151 143//143 136//136
f 202//202 211//211 189//189
f 211//211 182//182 189//189
f 191//191 202//202 189//189
f 191//191 190//190 224//224
f 191//191 224//224 202//202
f 178//178 151//151 137//137
f 240//240 238//238 239//239
f 301//301 298//298 282//282
f 301//301 282//282 287//287
f 136//136 137//137 151//151
f 91//91 62//62 88//88
f 88//88 136//136 91//91
f 189//189 182//182 170//170
f 189//189 170//170 154//154
f 207//207 235//235 209//209
f 253//253 270//270 269//269
f 277//277 253//253 269//269
f 277//277 269//269 271//271
f 297//297 287//287 291//291
f 289//289 288//288 296//296
f 296//296 299//299 289//289
f 64//64 43//43 88//88
f 57//57 88//88 43//43
f 88//88 57//57 59//59
f 171//171 143//143 169//169
f 143//143 151//151 169//169
f 169//169 151//151 178//178
f 276//276 253//253 283//283
f 59//59 18//18 56//56
f 32//32 18//18 59//59
f 240//240 239//239 227//227
f 240//240 241//241 250//250
f 227//227 241//241 240//240
f 241//241 227//227 209//209
f 241//241 209//209 235//235
f 301//301 300//300 298//298
f 295//295 300//300 301//301
f 260//260 259//259 263//263
f 291//291 272//272 265//265
f 276//276 284//284 286//286
f 140//140 144//144 128//128
f 146//146 140//140 128//128
f 216//216 174//174 214//214
f 199//199 194//194 208//208
f 208//208 194//194 200//200
f 220//220 195//195 216//216
f 226//226 188//188 211//211
f 214//214 188//188 226//226
f 176//176 242//242 200//200
f 195//195 220//220 176//176
f 265//265 272//272 256//256
f 256//256 272//272 257//257
f 182//182 174//174 160//160
f 174//174 181//181 160//160
f 182//182 160//160 170//170
f 216//216 230//230 220//220
f 224//224 226//226 211//211
f 230//230 214//214 226//226
f 230//230 216//216 214//214
f 243//243 259//259 260//260
f 261//261 243//243 260//260
f 272//272 247//247 257//257
f 252//252 265//265 256//256
f 252//252 284//284 265//265
f 270//270 284//284 252//252
f 276//276 286//286 270//270
f 290//290 291//291 265//265
f 199//199 177//177 194//194
f 200//200 194//194 178//178
f 200//200 178//178 137//137
f 220//220 242//242 176//176
f 222//222 235//235 208//208
f 242//242 222//222 208//208
f 177//177 169//169 194//194
f 178//178 194//194 169//169
f 188//188 214//214 182//182
f 214//214 174//174 182//182
f 200//200 137//137 176//176
f 195//195 176//176 181//181
f 216//216 181//181 174//174
f 216//216 195//195 181//181
f 293//293 265//265 284//284
f 293//293 290//290 265//265
f 289//289 293//293 284//284
f 289//289 284//284 276//276
f 160//160 147//147 170//170
f 160//160 146//146 147//147
f 235//235 207//207 199//199
f 199//199 208//208 235//235
f 208//208 200//200 242//242
f 251//251 260//260 249//249
f 251//251 248//248 260//260
f 261//261 260//260 248//248
f 146//146 128//128 149//149
f 149//149 147//147 146//146
f 230//230 226//226 249//249
f 251//251 249//249 226//226
f 251//251 226//226 224//224
f 224//224 248//248 251//251
f 249//249 252//252 256//256
f 263//263 252//252 249//249
f 249//249 256//256 230//230
f 256//256 257//257 230//230
f 263//263 249//249 260//260
f 270//270 252//252 269//269
f 269//269 252//252 263//263
f 263//263 271//271 269//269
f 271//271 263//263 259//259
f 188//188 182//182 211//211
f 202//202 224//224 211//211
f 159//159 160//160 181//181
f 176//176 159//159 181//181
f 137//137 158//158 176//176
f 144//144 158//158 137//137
f 158//158 159//159 176//176
f 158//158 140//140 159//159
f 158//158 144//144 140//140
f 159//159 140//140 146//146
f 159//159 146//146 160//160
f 250//250 247//247 272//272
f 222//222 247//247 250//250
f 247//247 242//242 257//257
f 247//247 222//222 242//242
f 257//257 242//242 220//220
f 230//230 257//257 220//220
f 250//250 235//235 222//222
f 297//297 291//291 290//290
f 297//297 293//293 299//299
f 293//293 297//297 290//290
f 299//299 293//293 289//289
f 286//286 284//284 270//270
f 241//241 235//235 250//250
f 261//261 248//248 219//219
f 259//259 243//243 258//258
f 261//261 219//219 243//243
f 259//259 258//258 271//271
f 258//258 277//277 271//271
f 219//219 248//248 190//190
f 248//248 224//224 190//190
# 184 faces, 0 coords texture

# End of File
