####
#
# OBJ File Generated by Meshlab
#
####
# Object head_part03_seg_02.obj
#
# Vertices: 300
# Faces: 69
#
####
vn 0.0000000 0.0000000 0.0000000
v 0.2652363 0.7472956 -1.1853726
vn -0.5103271 0.6027020 -0.6134465
v 0.1708951 0.8534679 -1.2003587
vn 0.0000000 0.0000000 0.0000000
v 0.2551014 0.8487536 -1.1850748
vn 0.0000000 0.0000000 0.0000000
v 0.1341541 0.5702220 -1.1746351
vn -0.5365463 0.1251805 -0.8345346
v 0.1468501 0.7256129 -1.2040778
vn 0.0000000 0.0000000 0.0000000
v 0.1960230 0.8121911 -1.2075894
vn 0.0000000 0.0000000 0.0000000
v 0.2317592 0.6245705 -1.1768261
vn -0.5114194 0.6462181 -0.5664384
v 0.0971852 0.8367359 -1.1554784
vn -0.4238556 0.8761527 -0.2295712
v 0.2042041 0.8866121 -1.1627152
vn 0.0000000 0.0000000 0.0000000
v 0.3570608 0.6406798 -1.1543709
vn 0.0000000 0.0000000 0.0000000
v 0.2168803 0.5295325 -1.1623973
vn 0.3409010 0.9265659 0.1589407
v 0.2708268 0.8620913 -1.1234356
vn 0.5239099 0.8493943 -0.0636221
v 0.3727456 0.7980729 -1.1388482
vn 0.0000000 0.0000000 0.0000000
v 0.4476919 0.7047592 -1.1353281
vn 0.0000000 0.0000000 0.0000000
v 0.5108725 0.6143057 -1.0960646
vn 0.0000000 0.0000000 0.0000000
v 0.5961599 0.6677793 -1.0462508
vn -0.2884493 0.9346574 -0.2078763
v 0.1498048 0.8745205 -1.0586057
vn 0.0000000 0.0000000 0.0000000
v 0.4966885 0.4878351 -1.0649768
vn -0.7353209 -0.1765529 -0.6543183
v -0.0141974 0.3495649 -1.0760236
vn -0.8308725 -0.0880729 -0.5494488
v -0.1228669 0.5192166 -0.9996778
vn 0.0000000 0.0000000 0.0000000
v 0.3276322 0.4993668 -1.1266173
vn 0.0000000 0.0000000 0.0000000
v 0.0875472 0.3824422 -1.1247221
vn 0.0000000 0.0000000 0.0000000
v 0.2237679 0.4134258 -1.1227010
vn -0.6504176 0.0631887 -0.7569441
v 0.0259442 0.6167337 -1.1481886
vn 0.0000000 0.0000000 0.0000000
v 0.5928332 0.6189842 -1.0495445
vn 0.0000000 0.0000000 0.0000000
v 0.5018796 0.7462876 -1.0811833
vn 0.0000000 0.0000000 0.0000000
v 0.3500147 0.3277751 -1.0612324
vn 0.0000000 0.0000000 0.0000000
v 0.4417019 0.2792663 -1.0301914
vn -0.6544231 0.2632889 -0.7088085
v -0.0359555 0.7420445 -1.0845394
vn 0.3432027 0.9264683 0.1544944
v 0.3804569 0.8012216 -1.0333107
vn -0.8306852 -0.0780979 -0.5512376
v -0.0305756 0.1435679 -1.0039150
vn -0.5131747 0.7575138 -0.4035153
v 0.0340867 0.8572812 -1.0576190
vn 0.0000000 0.0000000 0.0000000
v 0.1041545 0.0753478 -1.0276562
vn 0.0000000 0.0000000 0.0000000
v 0.0735264 0.2133709 -1.0725241
vn 0.0000000 0.0000000 0.0000000
v 0.5259438 0.3643891 -1.0172356
vn 0.0000000 0.0000000 0.0000000
v 0.2332041 0.2313202 -1.0644193
vn 0.0000000 0.0000000 0.0000000
v 0.2602468 0.0883586 -1.0131196
vn -0.5781819 0.7449699 -0.3327545
v -0.0607495 0.8155268 -0.9942614
vn 0.0000000 0.0000000 0.0000000
v 0.3932326 0.1783354 -1.0039095
vn -0.8058668 0.2834038 -0.5198663
v -0.1321881 0.7271990 -0.9955865
vn 0.0000000 0.0000000 0.0000000
v 0.4596276 0.7509397 -0.9358206
vn 0.0000000 0.0000000 0.0000000
v 0.5682746 0.1544708 -0.9373101
vn 0.0000000 0.0000000 0.0000000
v 0.6546215 0.5618576 -1.0002214
vn -0.3827631 0.9226017 -0.0479423
v 0.0292412 0.8562558 -0.9289430
vn 0.0000000 0.0000000 0.0000000
v 0.3442862 0.0311986 -0.9744642
vn 0.0000000 0.0000000 0.0000000
v 0.4571632 0.0749700 -0.9582741
vn 0.0000000 0.0000000 0.0000000
v 0.5328564 0.2155144 -0.9831241
vn 0.0000000 0.0000000 0.0000000
v 0.5964146 0.7183531 -1.0152932
vn 0.0000000 0.0000000 0.0000000
v 0.1611089 -0.1538015 -0.9564618
vn -0.8047513 -0.2197136 -0.5514538
v -0.0386142 -0.0571276 -0.9612150
vn -0.8512252 -0.0575880 -0.5216314
v -0.0900038 0.0591302 -0.9325411
vn 0.0000000 0.0000000 0.0000000
v 0.2835073 -0.1109599 -0.9444548
vn 0.0000000 0.0000000 0.0000000
v 0.1505539 -0.0576901 -0.9797850
vn 0.0000000 0.0000000 0.0000000
v 0.5696140 0.2806245 -0.9808724
vn -0.8298354 -0.1895949 -0.5248114
v -0.0979782 0.3203295 -0.9739825
vn 0.0000000 0.0000000 0.0000000
v 0.1754125 -0.2458809 -0.9187974
vn 0.0000000 0.0000000 0.0000000
v 0.6210158 0.2248624 -0.9308967
vn -0.9722501 0.2217836 -0.0744433
v -0.1810411 0.6641829 -0.9045601
vn -0.5257448 0.8502449 0.0260036
v -0.0809895 0.8174122 -0.9060160
vn 0.0000000 0.0000000 0.0000000
v 0.7935859 0.4406579 -0.8672705
vn 0.0000000 0.0000000 0.0000000
v 0.7500218 0.5400939 -0.9215214
vn 0.0000000 0.0000000 0.0000000
v 0.7002957 0.6580276 -0.9380213
vn 0.0000000 0.0000000 0.0000000
v 0.7092674 0.2130966 -0.8630646
vn 0.0000000 0.0000000 0.0000000
v 0.8148896 0.5435476 -0.8737048
vn 0.1899634 0.9540841 0.2315977
v 0.2110037 0.8321263 -0.9286101
vn 0.0000000 0.0000000 0.0000000
v 0.0607299 -0.3518198 -0.8917449
vn 0.0000000 0.0000000 0.0000000
v 0.5695781 0.7320793 -0.9753665
vn 0.0000000 0.0000000 0.0000000
v 0.6732258 0.6949173 -0.8871708
vn -0.9343200 -0.1008751 -0.3418631
v -0.1320506 0.1925597 -0.8579387
vn 0.0000000 0.0000000 0.0000000
v 0.3714957 -0.2198841 -0.8874580
vn 0.0000000 0.0000000 0.0000000
v 0.4373955 -0.0348311 -0.9251220
vn 0.0000000 0.0000000 0.0000000
v 0.0251062 -0.2714171 -0.9216380
vn -0.8171812 0.0007579 -0.5763804
v -0.0817920 -0.2612827 -0.8674126
vn 0.0000000 0.0000000 0.0000000
v 0.6757776 0.3519982 -0.9322165
vn 0.0000000 0.0000000 0.0000000
v 0.0308055 -0.1866398 -0.9454940
vn -0.7654229 0.6248114 0.1540735
v -0.1295929 0.7805423 -0.9058243
vn 0.0000000 0.0000000 0.0000000
v 0.7391300 0.6725199 -0.8318570
vn 0.0000000 0.0000000 0.0000000
v 0.5579273 -0.0607732 -0.8711522
vn 0.0000000 0.0000000 0.0000000
v 0.5622063 0.0563031 -0.9071094
vn 0.0000000 0.0000000 0.0000000
v 0.6478019 0.1177060 -0.8852720
vn 0.0000000 0.0000000 0.0000000
v 0.8054705 0.6158095 -0.8608342
vn 0.0000000 0.0000000 0.0000000
v 0.0380902 -0.5263283 -0.8276957
vn 0.0000000 0.0000000 0.0000000
v 0.1999396 -0.5406321 -0.8237828
vn 0.0000000 0.0000000 0.0000000
v 0.2850927 -0.4724711 -0.8215660
vn 0.0000000 0.0000000 0.0000000
v 0.7133515 0.1144448 -0.8266873
vn -0.1203511 0.7440573 0.6571867
v 0.0944828 0.8078183 -0.8303107
vn 0.0936098 0.9080995 0.4081575
v 0.2430795 0.8060982 -0.8255711
vn 0.0000000 0.0000000 0.0000000
v 0.6545187 0.0535903 -0.8524278
vn 0.0000000 0.0000000 0.0000000
v 0.1338814 -0.4996662 -0.8377440
vn 0.0000000 0.0000000 0.0000000
v 0.1069323 -0.4351480 -0.8659272
vn 0.0000000 0.0000000 0.0000000
v 0.2100340 -0.4466721 -0.8429638
vn 0.0000000 0.0000000 0.0000000
v 0.3736279 -0.4329388 -0.8177860
vn 0.0000000 0.0000000 0.0000000
v 0.3041753 -0.3887973 -0.8452269
vn 0.2883693 0.9455041 0.1512127
v 0.3807236 0.7672320 -0.8665784
vn -0.9941263 0.0464710 0.0977413
v -0.1895156 0.5933852 -0.8370163
vn -0.9901077 -0.0898109 -0.1078003
v -0.1785420 0.4265525 -0.8618711
vn -0.9363078 -0.0626547 -0.3455462
v -0.1399108 -0.0435518 -0.8187991
vn -0.9126832 0.0306084 -0.4075200
v -0.1475472 -0.2871569 -0.7922974
vn 0.2199117 0.9704062 0.0997539
v 0.6070127 0.6987055 -0.7760540
vn -0.9943630 -0.0963351 0.0442925
v -0.1645901 0.2922831 -0.7894120
vn 0.0000000 0.0000000 0.0000000
v 0.6231517 -0.1912564 -0.7691058
vn 0.0000000 0.0000000 0.0000000
v 0.7764745 0.3363797 -0.8420265
vn 0.0000000 0.0000000 0.0000000
v 0.2063200 -0.3470466 -0.8858476
vn 0.0000000 0.0000000 0.0000000
v 0.4870373 -0.2572745 -0.8272618
vn 0.0000000 0.0000000 0.0000000
v 0.0555391 -0.6562641 -0.7983840
vn 0.0000000 0.0000000 0.0000000
v 0.3001651 -0.5519750 -0.7943402
vn 0.0000000 0.0000000 0.0000000
v 0.3129149 -0.6296294 -0.7590847
vn 0.0000000 0.0000000 0.0000000
v -0.0021913 -0.7417083 -0.7584821
vn 0.0000000 0.0000000 0.0000000
v 0.2081909 -0.6340767 -0.7860965
vn 0.0000000 0.0000000 0.0000000
v 0.3925115 -0.5872333 -0.7536392
vn -0.9064116 -0.0722840 0.4161647
v -0.1524761 0.5307954 -0.7869931
vn 0.0149795 0.8884962 0.4586394
v 0.3413805 0.7627581 -0.7548633
vn 0.0000000 0.0000000 0.0000000
v 0.0491592 -0.8618960 -0.7296203
vn 0.0000000 0.0000000 0.0000000
v 0.9146192 0.5028355 -0.7310838
vn -0.9923480 0.0661412 -0.1042629
v -0.1659417 0.0828791 -0.7066512
vn 0.0000000 0.0000000 0.0000000
v 0.8636608 0.5591798 -0.8047076
vn 0.0000000 0.0000000 0.0000000
v 0.5309029 -0.4151640 -0.7443385
vn -0.9597870 0.0582715 0.2746152
v -0.1469430 0.3715077 -0.7464463
vn -0.4992337 -0.1699483 -0.8496372
v -0.1099570 -0.6434836 -0.7575781
vn 0.0000000 0.0000000 0.0000000
v 0.8645486 0.3583647 -0.7580723
vn -0.9316620 0.0855456 -0.3531116
v -0.1498343 -0.4812660 -0.7665943
vn -0.2296752 0.5849004 0.7779080
v 0.2093812 0.7273611 -0.7493328
vn 0.0000000 0.0000000 0.0000000
v 0.1838107 -0.7685921 -0.7486268
vn 0.0000000 0.0000000 0.0000000
v 0.7272431 0.0008529 -0.7636546
vn -0.7556067 0.4570527 0.4692136
v -0.1130268 0.7329677 -0.8384167
vn 0.0000000 0.0000000 0.0000000
v 0.0778945 -0.9604160 -0.6889673
vn 0.0000000 0.0000000 0.0000000
v 0.1862715 -0.9066988 -0.7128384
vn -0.0575429 0.9006816 0.4306526
v 0.4650165 0.7202287 -0.6723953
vn 0.0000000 0.0000000 0.0000000
v 0.2767757 -0.9064416 -0.6665445
vn -0.9563000 0.2336134 -0.1758272
v -0.1710711 -0.4932944 -0.6731445
vn 0.0000000 0.0000000 0.0000000
v 0.7682798 0.6627132 -0.6010016
vn 0.0000000 0.0000000 0.0000000
v 0.4198755 -0.7774255 -0.6804397
vn 0.0000000 0.0000000 0.0000000
v 0.3770131 -0.7144068 -0.7135802
vn -0.9996523 0.0167012 -0.0204069
v -0.1500168 0.2218101 -0.7060028
vn 0.0000000 0.0000000 0.0000000
v 0.8139595 0.1656494 -0.7438599
vn -0.9875131 -0.0791532 -0.1362081
v -0.1610498 -0.1937532 -0.7312043
vn -0.9995443 -0.0266144 0.0142410
v -0.1445742 -0.3225729 -0.7040380
vn 0.0000000 0.0000000 0.0000000
v 0.3393569 -0.8341652 -0.6905873
vn -0.8535393 0.1872960 -0.4862005
v -0.2282248 -0.6770569 -0.6813703
vn 0.0000000 0.0000000 0.0000000
v 0.9417425 0.5762202 -0.6682834
vn -0.5451515 -0.1886306 -0.8168405
v -0.1693314 -0.8149685 -0.6888276
vn -0.3145703 0.3502412 0.8822566
v -0.0058270 0.5513733 -0.7418373
vn 0.0000000 0.0000000 0.0000000
v 0.6524999 -0.3039117 -0.6993667
vn 0.0000000 0.0000000 0.0000000
v 0.7514524 -0.1498358 -0.6787416
vn 0.0000000 0.0000000 0.0000000
v 0.0537065 -0.9865292 -0.6210123
vn 0.0000000 0.0000000 0.0000000
v 0.1702985 -0.9616321 -0.6717064
vn 0.0000000 0.0000000 0.0000000
v 0.6250049 -0.5511951 -0.6169798
vn 0.0000000 0.0000000 0.0000000
v 0.8279733 -0.0616976 -0.6317078
vn 0.0000000 0.0000000 0.0000000
v 0.5106543 -0.6435667 -0.6737488
vn 0.0000000 0.0000000 0.0000000
v 0.8320549 0.6437583 -0.7154599
vn 0.0000000 0.0000000 0.0000000
v 0.4608699 -0.7639953 -0.6359679
vn 0.0000000 0.0000000 0.0000000
v 0.5607144 -0.6824847 -0.6084005
vn -0.9419288 0.1586611 -0.2959676
v -0.2853683 -0.8033408 -0.6140709
vn -0.9108915 0.4117308 -0.0274657
v -0.2307612 -0.6559190 -0.5911276
vn -0.9515550 0.3070476 -0.0162713
v -0.2680544 -0.7102047 -0.6249354
vn 0.0000000 0.0000000 0.0000000
v 0.8554942 0.0652383 -0.6408003
vn 0.0000000 0.0000000 0.0000000
v -0.1455906 -1.0314485 -0.5977235
vn -0.3665805 0.3905434 0.8444493
v -0.1279391 -0.5361677 -0.5868037
vn -0.4331939 0.1258577 0.8924702
v -0.0319945 -0.4029242 -0.6021188
vn 0.0000000 0.0000000 0.0000000
v 0.9342666 0.2358869 -0.6151239
vn -0.9959834 -0.0315094 -0.0838115
v -0.1800117 -0.0513341 -0.6461936
vn -0.4598504 0.4820710 0.7457514
v -0.0769406 0.2799987 -0.6515588
vn -0.2720703 0.6423469 0.7164973
v 0.3411522 0.7069926 -0.6833601
vn -0.4033161 0.3467298 0.8468262
v 0.2529800 0.5085548 -0.6283900
vn 0.0000000 0.0000000 0.0000000
v 0.6656085 -0.3907658 -0.6518325
vn 0.0000000 0.0000000 0.0000000
v 1.0074047 0.5141863 -0.5990031
vn 0.0000000 0.0000000 0.0000000
v -0.1185276 -0.9679190 -0.6513947
vn -0.2738623 0.3829722 0.8822311
v 0.0646030 0.3340501 -0.6398802
vn -0.8927296 -0.3353686 -0.3009349
v -0.2901086 -1.0417755 -0.5659614
vn 0.0000000 0.0000000 0.0000000
v 1.0298026 0.4579287 -0.5327042
vn -0.8751884 -0.1403993 -0.4629616
v -0.2874752 -0.9617431 -0.6144319
vn 0.0000000 0.0000000 0.0000000
v 0.9983000 0.5927216 -0.5681193
vn 0.0000000 0.0000000 0.0000000
v 0.5676144 -0.6851863 -0.5660690
vn 0.0000000 0.0000000 0.0000000
v 0.8572709 -0.1262427 -0.5501003
vn -0.6996951 -0.3531211 -0.6210735
v -0.2598697 -1.0284405 -0.6076101
vn 0.0000000 0.0000000 0.0000000
v 0.8138111 -0.1501522 -0.6068338
vn 0.0000000 0.0000000 0.0000000
v 0.6140643 -0.6286862 -0.5538637
vn 0.0000000 0.0000000 0.0000000
v 0.7677042 -0.2630554 -0.5964733
vn 0.0000000 0.0000000 0.0000000
v 0.9739553 0.4219455 -0.6207937
vn -0.9959193 -0.0776646 -0.0459674
v -0.3242199 -0.9501415 -0.5379427
vn 0.0000000 0.0000000 0.0000000
v 0.7275298 -0.4273261 -0.5582209
vn 0.1954057 -0.3800967 0.9040704
v 0.1980665 -0.8914741 -0.5727795
vn 0.0000000 0.0000000 0.0000000
v 0.6669351 -0.5546883 -0.5428219
vn 0.0000000 0.0000000 0.0000000
v -0.1680210 -1.0323000 -0.5313281
vn 0.0000000 0.0000000 0.0000000
v 0.3701416 -0.8347576 -0.6091644
vn -0.8863973 0.4191484 0.1965056
v -0.2922240 -0.8135871 -0.5435622
vn 0.0000000 0.0000000 0.0000000
v 0.9326404 0.0903066 -0.5416698
vn -0.9931317 0.1143588 0.0247300
v -0.1577065 0.1291299 -0.5898108
vn -0.3189475 0.6687379 0.6716115
v 0.4979118 0.6710516 -0.5675583
vn -0.6326172 -0.0976688 0.7682815
v -0.1442902 -0.0086001 -0.5551463
vn -0.4558270 0.4079239 0.7910879
v 0.4935490 0.5813572 -0.5200374
vn -0.3981413 0.5739878 0.7155568
v 0.4039034 0.6523803 -0.6102815
vn -0.3079771 0.4982926 0.8104657
v -0.0833203 0.1824151 -0.5654199
vn -0.9601558 -0.1957970 0.1994101
v -0.1434150 -0.1633480 -0.6164388
vn -0.1399965 0.4508264 0.8815649
v 0.0607302 0.1885398 -0.5599537
vn -0.1597015 0.2072053 0.9651743
v -0.0321652 -0.5157017 -0.5754307
vn -0.0637459 0.2351479 0.9698671
v 0.0252730 -0.6608371 -0.5379089
vn -0.4849197 -0.2147385 0.8477855
v -0.0567983 -0.2548523 -0.6004295
vn 0.4992302 -0.6218613 0.6033720
v 0.7131512 -0.4822850 -0.4920484
vn -0.7337155 0.3912437 0.5555087
v -0.2987461 -0.8796363 -0.4805853
vn 0.0000000 0.0000000 0.0000000
v -0.0385874 -1.0111057 -0.5602562
vn 0.0000000 0.0000000 0.0000000
v 0.5636714 -0.6435211 -0.5202867
vn 0.0000000 0.0000000 0.0000000
v 0.8424938 -0.1816490 -0.5484345
vn 0.0000000 0.0000000 0.0000000
v 1.0384445 0.5516296 -0.5277124
vn 0.2967728 -0.5543174 0.7775977
v 0.4973915 -0.7221701 -0.5611514
vn 0.0000000 0.0000000 0.0000000
v 0.8000098 -0.3387621 -0.5060046
vn 0.0000000 0.0000000 0.0000000
v 1.0747433 0.4621294 -0.4427055
vn 0.0000000 0.0000000 0.0000000
v 1.0764346 0.5673053 -0.4446068
vn -0.7878694 -0.4731969 0.3941403
v -0.2904248 -1.0232948 -0.5094856
vn -0.6552725 -0.2143174 0.7243522
v -0.3021185 -0.9540257 -0.4617036
vn 0.2025406 0.0790411 0.9760788
v 0.0619284 -0.9035243 -0.4890983
vn 0.1055025 -0.4074567 0.9071099
v 0.3841639 -0.7238935 -0.5191663
vn -0.2499125 0.8320383 0.4952334
v 0.6177500 0.6710384 -0.5305797
vn 0.0000000 0.0000000 0.0000000
v 1.0018040 0.1751427 -0.4672292
vn 0.0741875 0.9779362 0.1952870
v 0.7838706 0.6696000 -0.4668343
vn 0.0000000 0.0000000 0.0000000
v 1.0241371 0.3257455 -0.4918082
vn -0.3121215 0.2721138 0.9102386
v 0.2638923 0.2522104 -0.5396248
vn -0.3843273 0.6092866 0.6935866
v -0.1782561 -0.7879043 -0.4944026
vn -0.2580606 0.3801816 0.8881817
v -0.1471109 -0.6347322 -0.5488215
vn -0.2481856 -0.1089308 0.9625684
v 0.0214292 -0.0702086 -0.5211890
vn -0.2185358 -0.0171702 0.9756778
v 0.2422341 -0.1403982 -0.4799087
vn -0.2233142 0.0750979 0.9718494
v 0.1410734 -0.5635774 -0.5364432
vn -0.2494700 0.2009146 0.9473110
v -0.0665099 0.0988414 -0.5280483
vn 0.0035437 -0.1330698 0.9911004
v 0.2263123 -0.7288071 -0.5104948
vn 0.1219929 0.0994977 0.9875313
v 0.0756966 -0.8276148 -0.4981022
vn -0.3080952 -0.0500804 0.9500365
v 0.2579073 -0.4683029 -0.4928923
vn -0.1887124 0.1639135 0.9682562
v 0.2611876 0.0743153 -0.4936832
vn -0.3125593 -0.0764935 0.9468133
v 0.2203503 -0.2662468 -0.4952516
vn 0.0000000 0.0000000 0.0000000
v 0.9405810 0.6454908 -0.5082157
vn 0.3073491 -0.5189570 0.7976342
v 0.6528461 -0.4997329 -0.4601345
vn 0.2342802 -0.5663021 0.7901992
v 0.7374798 -0.4155526 -0.4303785
vn 0.0000000 0.0000000 0.0000000
v 0.7902553 -0.3808325 -0.4709145
vn 0.0000000 0.0000000 0.0000000
v 0.8528579 -0.2351036 -0.4717535
vn 0.2433387 -0.3528503 0.9034838
v -0.0155737 -0.9624199 -0.5031275
vn 0.1489824 0.0982338 0.9839483
v -0.0336353 -0.8861139 -0.4706782
vn 0.1500319 -0.0520954 0.9873077
v -0.1248505 -0.9173532 -0.4560950
vn -0.1312574 -0.1946076 0.9720594
v 0.3587230 -0.6060172 -0.4751386
vn 0.4474503 -0.4455808 0.7754006
v 0.8073772 -0.3458716 -0.4171196
vn 0.4474503 -0.4455808 0.7754006
v 0.8558679 -0.2682657 -0.4005056
vn 0.0000000 0.0000000 0.0000000
v 1.0863352 0.3371063 -0.3400006
vn 0.0000000 0.0000000 0.0000000
v 1.0258461 0.6215351 -0.4776800
vn -0.3525297 0.1965576 0.9149251
v -0.2581334 -0.9070412 -0.4447218
vn 0.1400378 -0.4213809 0.8960065
v 0.4897458 -0.6032027 -0.4734265
vn 0.0000000 0.0000000 0.0000000
v 0.9023232 -0.1773337 -0.4067840
vn -0.3637921 0.0630776 0.9293420
v 0.4974244 0.1550468 -0.4370098
vn -0.3342839 0.8130627 0.4766377
v 0.7073815 0.6584123 -0.4013742
vn 0.0000000 0.0000000 0.0000000
v 0.9105229 -0.0576419 -0.4893147
vn 0.3974059 -0.5545251 0.7311434
v 0.6253851 -0.5697915 -0.4983433
vn -0.1494903 -0.4418741 0.8845338
v -0.2137806 -0.9813645 -0.4604313
vn -0.2094832 0.0698955 0.9753109
v 0.3052824 -0.0725013 -0.4697864
vn -0.3306362 0.0926531 0.9391992
v 0.5390724 -0.0377197 -0.4168086
vn -0.2674191 0.0518053 0.9621867
v 0.3726810 -0.1663807 -0.4472332
vn 0.0000000 0.0000000 0.0000000
v 1.1080172 0.4136240 -0.3101367
vn 0.1189881 0.8707000 0.4772037
v 1.0158026 0.6139022 -0.3954597
vn 0.0000000 0.0000000 0.0000000
v 1.1027400 0.4960542 -0.3420258
vn 0.0000000 0.0000000 0.0000000
v 1.0794760 0.5712032 -0.3784628
vn -0.6158681 0.3186390 0.7205384
v 0.6457744 0.5673742 -0.3960515
vn 0.0627087 0.8323994 0.5506169
v 0.8943069 0.6231701 -0.3820756
vn -0.0269396 -0.3931416 0.9190832
v 0.7454019 -0.2992211 -0.3545488
vn -0.4856986 -0.0030482 0.8741211
v 0.6806086 0.0824920 -0.3643640
vn -0.3286741 -0.0121696 0.9443650
v 0.5976757 -0.2154878 -0.3686912
vn 0.0751419 0.8142853 0.5755808
v 0.7702084 0.6497814 -0.3758888
vn 0.0000000 0.0000000 0.0000000
v 0.9958290 0.0463450 -0.3719852
vn -0.0908541 -0.2709926 0.9582842
v 0.4994818 -0.4523262 -0.4244279
vn -0.2383008 -0.1256423 0.9630300
v 0.5272818 -0.3312431 -0.3907590
vn -0.5106534 -0.0540748 0.8580845
v 0.6616215 0.2410214 -0.3559307
vn -0.5058531 0.1396073 0.8512477
v 0.5212367 0.3652548 -0.4446753
vn 0.2394915 -0.5901193 0.7709754
v 0.8779140 -0.2215206 -0.3362381
vn 0.0000000 0.0000000 0.0000000
v 1.0577818 0.2121990 -0.3488189
vn -0.2115369 0.7395986 0.6389413
v 0.8842358 0.5305018 -0.2549047
vn -0.6173508 -0.0806428 0.7825438
v 0.7967752 -0.0580831 -0.2522901
vn -0.4775538 -0.1550533 0.8648127
v 0.7442030 -0.1621247 -0.3019314
vn 0.0290097 -0.4818132 0.8757936
v 0.8950676 -0.1458972 -0.2630334
vn -0.6129456 0.0645123 0.7874871
v 0.7472758 0.0044504 -0.3122491
vn 0.0000000 0.0000000 0.0000000
v 0.9596155 -0.0872592 -0.3146692
vn -0.6623043 -0.0557042 0.7471613
v 0.7709743 0.1695324 -0.2926710
vn -0.6319039 0.0269510 0.7745781
v 0.7141684 0.3764924 -0.3084188
vn -0.3680830 0.4982302 0.7850360
v 0.7282652 0.5984377 -0.3317833
vn 0.0000000 0.0000000 0.0000000
v 1.1042634 0.3410412 -0.2358676
vn 0.0000000 0.0000000 0.0000000
v 1.0886282 0.2524654 -0.2494529
vn -0.3427375 -0.2694065 0.8999729
v 0.8625745 -0.0433540 -0.2055435
vn -0.5926616 0.2901999 0.7513564
v 0.8307269 0.4369886 -0.2030738
vn -0.0187311 0.8213265 0.5701509
v 0.9854928 0.5401652 -0.2533626
vn 0.0000000 0.0000000 0.0000000
v 1.0638419 0.5334775 -0.2806747
vn 0.0000000 0.0000000 0.0000000
v 1.0316539 0.0791659 -0.2295039
vn -0.2394928 -0.3829324 0.8921917
v 0.8133332 -0.1553385 -0.2655201
vn -0.3166508 0.4651182 0.8266785
v 0.7708901 0.5450280 -0.2968883
vn 0.0000000 0.0000000 0.0000000
v 1.1034909 0.4020515 -0.1947853
vn 0.0000000 0.0000000 0.0000000
v 1.0914193 0.2492286 -0.1672895
vn -0.6744341 -0.0302485 0.7377151
v 0.8496122 0.0824880 -0.2002806
vn -0.6936534 -0.0629249 0.7175552
v 0.8584346 0.2575295 -0.1844834
vn -0.3320057 0.6139385 0.7161368
v 0.9086279 0.4674503 -0.1646489
vn 0.0378430 -0.3986395 0.9163266
v 0.9484761 -0.0191565 -0.1985642
vn -0.5306705 0.0898323 0.8428043
v 0.9291315 0.3558616 -0.1039883
vn -0.2495320 -0.1397994 0.9582223
v 0.9991773 0.2696985 -0.0783658
vn 0.0000000 0.0000000 0.0000000
v 1.0653324 0.3039159 -0.0968601
vn -0.2454663 0.4436570 0.8619251
v 1.0050701 0.4105951 -0.0898370
vn 0.0000000 0.0000000 0.0000000
v 1.0634453 0.4322021 -0.1287119
vn -0.4057472 -0.2002134 0.8917869
v 0.9303282 0.1185636 -0.1379009
vn -0.0020221 -0.3657104 0.9307265
v 1.0192111 0.1254330 -0.1350086
# 300 vertices, 0 vertices normals

f 118//118 111//111 96//96
f 194//194 136//136 137//137
f 38//38 29//29 40//40
f 40//40 29//29 20//20
f 32//32 29//29 38//38
f 44//44 32//32 38//38
f 38//38 59//59 44//44
f 40//40 58//58 76//76
f 38//38 40//40 76//76
f 59//59 38//38 76//76
f 76//76 58//58 125//125
f 169//169 180//180 171//171
f 169//169 209//209 180//180
f 210//210 200//200 180//180
f 200//200 186//186 180//180
f 210//210 180//180 209//209
f 249//249 210//210 209//209
f 242//242 200//200 210//210
f 242//242 210//210 249//249
f 96//96 69//69 100//100
f 111//111 95//95 96//96
f 96//96 100//100 118//118
f 69//69 97//97 115//115
f 121//121 119//119 139//139
f 139//139 130//130 121//121
f 130//130 137//137 121//121
f 98//98 121//121 137//137
f 136//136 98//98 137//137
f 115//115 97//97 161//161
f 161//161 188//188 115//115
f 188//188 134//134 115//115
f 9//9 2//2 8//8
f 121//121 98//98 73//73
f 98//98 136//136 73//73
f 97//97 73//73 136//136
f 97//97 51//51 50//50
f 97//97 69//69 51//51
f 69//69 96//96 55//55
f 55//55 96//96 20//20
f 130//130 139//139 154//154
f 194//194 161//161 136//136
f 97//97 136//136 161//161
f 96//96 95//95 58//58
f 95//95 125//125 58//58
f 125//125 59//59 76//76
f 69//69 115//115 134//134
f 100//100 69//69 134//134
f 134//134 118//118 100//100
f 171//171 175//175 169//169
f 218//218 200//200 242//242
f 153//153 139//139 141//141
f 155//155 139//139 153//153
f 154//154 139//139 155//155
f 200//200 218//218 186//186
f 8//8 2//2 5//5
f 58//58 20//20 96//96
f 40//40 20//20 58//58
f 9//9 8//8 17//17
f 51//51 69//69 31//31
f 55//55 31//31 69//69
f 20//20 29//29 24//24
f 29//29 8//8 24//24
f 29//29 32//32 8//8
f 17//17 8//8 32//32
f 55//55 20//20 19//19
f 180//180 153//153 171//171
f 180//180 186//186 153//153
f 154//154 153//153 186//186
f 155//155 153//153 154//154
# 69 faces, 0 coords texture

# End of File
